<svg id="SvgjsSvg1089" width="551.0000610351562" height="270" xmlns="http://www.w3.org/2000/svg" version="1.1" xmlns:xlink="http://www.w3.org/1999/xlink" xmlns:svgjs="http://svgjs.com/svgjs"><defs id="SvgjsDefs1090"><pattern patternUnits="userSpaceOnUse" id="pattern_mark_0" width="300" height="300"><text x="150" y="100" fill="rgba(229,229,229,0.8)" font-size="18" transform="rotate(-45, 150, 150)" style="dominant-baseline: middle; text-anchor: middle;"></text></pattern><pattern patternUnits="userSpaceOnUse" id="pattern_mark_1" width="300" height="300"><text x="150" y="200" fill="rgba(229,229,229,0.8)" font-size="18" transform="rotate(-45, 150, 150)" style="dominant-baseline: middle; text-anchor: middle;"></text></pattern><marker id="SvgjsMarker1158" markerWidth="12" markerHeight="8" refX="9" refY="4" viewBox="0 0 12 8" orient="auto" markerUnits="userSpaceOnUse" stroke-dasharray="0,0"><path id="SvgjsPath1159" d="M0,0 L12,4 L0,8 L0,0" fill="#323232" stroke="#323232" stroke-width="1"></path></marker></defs><rect id="svgbackgroundid" width="551.0000610351562" height="270" fill="transparent"></rect><rect id="SvgjsRect1092" width="551.0000610351562" height="270" fill="url(#pattern_mark_0)"></rect><rect id="SvgjsRect1093" width="551.0000610351562" height="270" fill="url(#pattern_mark_1)"></rect><g id="SvgjsG1094" transform="translate(286.00006103515625,27.49993896484375)"><path id="SvgjsPath1095" d="M 0 4Q 0 0 4 0L 116 0Q 120 0 120 4L 120 31Q 120 35 116 35L 4 35Q 0 35 0 31Z" stroke="rgba(33,41,48,1)" stroke-width="1" fill-opacity="1" fill="#ffffff"></path><g id="SvgjsG1096"><text id="SvgjsText1097" font-family="微软雅黑" text-anchor="middle" font-size="13px" width="100px" fill="#323232" font-weight="400" align="middle" lineHeight="125%" anchor="middle" family="微软雅黑" size="13px" weight="400" font-style="" opacity="1" y="6.875" transform="rotate(0)"><tspan id="SvgjsTspan1098" dy="16.25" x="60"><tspan id="SvgjsTspan1099" style="">盲目的随机性</tspan></tspan></text></g></g><g id="SvgjsG1100" transform="translate(286.00006103515625,87.49993896484375)"><path id="SvgjsPath1101" d="M 0 4Q 0 0 4 0L 116 0Q 120 0 120 4L 120 31Q 120 35 116 35L 4 35Q 0 35 0 31Z" stroke="rgba(33,41,48,1)" stroke-width="1" fill-opacity="1" fill="#ffffff"></path><g id="SvgjsG1102"><text id="SvgjsText1103" font-family="微软雅黑" text-anchor="middle" font-size="13px" width="100px" fill="#323232" font-weight="400" align="middle" lineHeight="125%" anchor="middle" family="微软雅黑" size="13px" weight="400" font-style="" opacity="1" y="6.875" transform="rotate(0)"><tspan id="SvgjsTspan1104" dy="16.25" x="60"><tspan id="SvgjsTspan1105" style="">跑出来的机会</tspan></tspan></text></g></g><g id="SvgjsG1106" transform="translate(286.00006103515625,147.49993896484375)"><path id="SvgjsPath1107" d="M 0 4Q 0 0 4 0L 116 0Q 120 0 120 4L 120 31Q 120 35 116 35L 4 35Q 0 35 0 31Z" stroke="rgba(33,41,48,1)" stroke-width="1" fill-opacity="1" fill="#ffffff"></path><g id="SvgjsG1108"><text id="SvgjsText1109" font-family="微软雅黑" text-anchor="middle" font-size="13px" width="100px" fill="#323232" font-weight="400" align="middle" lineHeight="125%" anchor="middle" family="微软雅黑" size="13px" weight="400" font-style="" opacity="1" y="6.875" transform="rotate(0)"><tspan id="SvgjsTspan1110" dy="16.25" x="60"><tspan id="SvgjsTspan1111" style="">有准备的头脑</tspan></tspan></text></g></g><g id="SvgjsG1112" transform="translate(286.00006103515625,207.49993896484375)"><path id="SvgjsPath1113" d="M 0 4Q 0 0 4 0L 116 0Q 120 0 120 4L 120 31Q 120 35 116 35L 4 35Q 0 35 0 31Z" stroke="rgba(33,41,48,1)" stroke-width="1" fill-opacity="1" fill="#ffffff"></path><g id="SvgjsG1114"><text id="SvgjsText1115" font-family="微软雅黑" text-anchor="middle" font-size="13px" width="100px" fill="#323232" font-weight="400" align="middle" lineHeight="125%" anchor="middle" family="微软雅黑" size="13px" weight="400" font-style="" opacity="1" y="6.875" transform="rotate(0)"><tspan id="SvgjsTspan1116" dy="16.25" x="60"><tspan id="SvgjsTspan1117" style="">人设的吸引力</tspan></tspan></text></g></g><g id="SvgjsG1118" transform="translate(466.00006103515625,24.99993896484375)"><path id="SvgjsPath1119" d="M 0 0L 60 0L 60 40L 0 40Z" stroke="none" fill="none"></path><g id="SvgjsG1120"><text id="SvgjsText1121" font-family="微软雅黑" text-anchor="middle" font-size="13px" width="60px" fill="#569230" font-weight="400" align="middle" lineHeight="125%" anchor="middle" family="微软雅黑" size="13px" weight="400" font-style="" opacity="1" y="9.375" transform="rotate(0)"><tspan id="SvgjsTspan1122" dy="16.25" x="30"><tspan id="SvgjsTspan1123" style="">随机性</tspan></tspan></text></g></g><g id="SvgjsG1124" transform="translate(466.00006103515625,84.99993896484375)"><path id="SvgjsPath1125" d="M 0 0L 60 0L 60 40L 0 40Z" stroke="none" fill="none"></path><g id="SvgjsG1126"><text id="SvgjsText1127" font-family="微软雅黑" text-anchor="middle" font-size="13px" width="60px" fill="#569230" font-weight="400" align="middle" lineHeight="125%" anchor="middle" family="微软雅黑" size="13px" weight="400" font-style="" opacity="1" y="9.375" transform="rotate(0)"><tspan id="SvgjsTspan1128" dy="16.25" x="30"><tspan id="SvgjsTspan1129" style="">主动性</tspan></tspan></text></g></g><g id="SvgjsG1130" transform="translate(466.00006103515625,144.99993896484375)"><path id="SvgjsPath1131" d="M 0 0L 60 0L 60 40L 0 40Z" stroke="none" fill="none"></path><g id="SvgjsG1132"><text id="SvgjsText1133" font-family="微软雅黑" text-anchor="middle" font-size="13px" width="60px" fill="#569230" font-weight="400" align="middle" lineHeight="125%" anchor="middle" family="微软雅黑" size="13px" weight="400" font-style="" opacity="1" y="9.375" transform="rotate(0)"><tspan id="SvgjsTspan1134" dy="16.25" x="30"><tspan id="SvgjsTspan1135" style="">客观性</tspan></tspan></text></g></g><g id="SvgjsG1136" transform="translate(466.00006103515625,204.99993896484375)"><path id="SvgjsPath1137" d="M 0 0L 60 0L 60 40L 0 40Z" stroke="none" fill="none"></path><g id="SvgjsG1138"><text id="SvgjsText1139" font-family="微软雅黑" text-anchor="middle" font-size="13px" width="60px" fill="#569230" font-weight="400" align="middle" lineHeight="125%" anchor="middle" family="微软雅黑" size="13px" weight="400" font-style="" opacity="1" y="9.375" transform="rotate(0)"><tspan id="SvgjsTspan1140" dy="16.25" x="30"><tspan id="SvgjsTspan1141" style="">特殊性</tspan></tspan></text></g></g><g id="SvgjsG1142"><path id="SvgjsPath1143" d="M406.50006103515625 44.99993896484375L436.00006103515625 44.99993896484375L436.00006103515625 44.99993896484375L465.25006103515625 44.99993896484375" stroke-dasharray="8,5" stroke="#569230" stroke-width="1" fill="none"></path></g><g id="SvgjsG1144"><path id="SvgjsPath1145" d="M406.50006103515625 104.99993896484375L436.00006103515625 104.99993896484375L436.00006103515625 104.99993896484375L465.25006103515625 104.99993896484375" stroke-dasharray="8,5" stroke="#569230" stroke-width="1" fill="none"></path></g><g id="SvgjsG1146"><path id="SvgjsPath1147" d="M406.50006103515625 164.99993896484375L436.00006103515625 164.99993896484375L436.00006103515625 164.99993896484375L465.25006103515625 164.99993896484375" stroke-dasharray="8,5" stroke="#569230" stroke-width="1" fill="none"></path></g><g id="SvgjsG1148"><path id="SvgjsPath1149" d="M406.50006103515625 224.99993896484375L436.00006103515625 224.99993896484375L436.00006103515625 224.99993896484375L465.25006103515625 224.99993896484375" stroke-dasharray="8,5" stroke="#569230" stroke-width="1" fill="none"></path></g><g id="SvgjsG1150" transform="translate(106.00006103515625,116.49993896484375)"><path id="SvgjsPath1151" d="M 0 4Q 0 0 4 0L 116 0Q 120 0 120 4L 120 31Q 120 35 116 35L 4 35Q 0 35 0 31Z" stroke="rgba(33,41,48,1)" stroke-width="1" fill-opacity="1" fill="#fbeada"></path><g id="SvgjsG1152"><text id="SvgjsText1153" font-family="微软雅黑" text-anchor="middle" font-size="13px" width="100px" fill="#323232" font-weight="400" align="middle" lineHeight="125%" anchor="middle" family="微软雅黑" size="13px" weight="400" font-style="" opacity="1" y="6.875" transform="rotate(0)"><tspan id="SvgjsTspan1154" dy="16.25" x="60"><tspan id="SvgjsTspan1155" style="">祝君好运</tspan></tspan></text></g></g><g id="SvgjsG1156"><path id="SvgjsPath1157" d="M285.50006103515625 224.99993896484375L41.00006103515625 224.99993896484375L41.00006103515625 44.99993896484375L284.20006103515624 44.99993896484375" stroke="#323232" stroke-width="1" fill="none" marker-end="url(#SvgjsMarker1158)"></path><rect id="SvgjsRect1160" width="52" height="32" x="15.00006103515625" y="118.65337180066467" fill="#ffffff"></rect><text id="SvgjsText1161" font-family="微软雅黑" text-anchor="middle" font-size="13px" width="52px" fill="#a23735" font-weight="400" align="top" lineHeight="16px" anchor="middle" family="微软雅黑" size="13px" weight="400" font-style="" opacity="1" y="116.02837180066467" transform="rotate(0)"><tspan id="SvgjsTspan1162" dy="16.25" x="41.00006103515625"><tspan id="SvgjsTspan1163" style="">行善积德</tspan></tspan><tspan id="SvgjsTspan1164" dy="16.25" x="41.00006103515625"><tspan id="SvgjsTspan1165" style="">利他行为</tspan></tspan></text></g><g id="SvgjsG1166"><path id="SvgjsPath1167" d="M226.2795574016883 133.58535268782123L285.7205646686242 45.41452524186627" stroke="#323232" stroke-width="1" fill="none"></path></g><g id="SvgjsG1168"><path id="SvgjsPath1169" d="M226.4502355115772 133.7823546345736L285.5498865587353 105.21752329511389" stroke="#323232" stroke-width="1" fill="none"></path></g><g id="SvgjsG1170"><path id="SvgjsPath1171" d="M226.44427398858494 134.22944899078192L285.55584808172756 164.77042893890558" stroke="#323232" stroke-width="1" fill="none"></path></g><g id="SvgjsG1172"><path id="SvgjsPath1173" d="M226.2752903929544 134.4173701575043L285.7248316773581 224.5825077721832" stroke="#323232" stroke-width="1" fill="none"></path></g></svg>