<svg id="SvgjsSvg1006" width="898.75" height="666.107142857143" xmlns="http://www.w3.org/2000/svg" version="1.1" xmlns:xlink="http://www.w3.org/1999/xlink" xmlns:svgjs="http://svgjs.com/svgjs"><defs id="SvgjsDefs1007"><pattern patternUnits="userSpaceOnUse" id="pattern_mark_0" width="300" height="300"><text x="150" y="100" fill="rgba(229,229,229,0.8)" font-size="18" transform="rotate(-45, 150, 150)" style="dominant-baseline: middle; text-anchor: middle;"></text></pattern><pattern patternUnits="userSpaceOnUse" id="pattern_mark_1" width="300" height="300"><text x="150" y="200" fill="rgba(229,229,229,0.8)" font-size="18" transform="rotate(-45, 150, 150)" style="dominant-baseline: middle; text-anchor: middle;"></text></pattern><marker id="SvgjsMarker1169" markerWidth="12" markerHeight="8" refX="9" refY="4" viewBox="0 0 12 8" orient="auto" markerUnits="userSpaceOnUse" stroke-dasharray="0,0"><path id="SvgjsPath1170" d="M0,0 L12,4 L0,8 L0,0" fill="#7fa7b8" stroke="#7fa7b8" stroke-width="1"></path></marker><marker id="SvgjsMarker1173" markerWidth="12" markerHeight="8" refX="9" refY="4" viewBox="0 0 12 8" orient="auto" markerUnits="userSpaceOnUse" stroke-dasharray="0,0"><path id="SvgjsPath1174" d="M0,0 L12,4 L0,8 L0,0" fill="#7fa7b8" stroke="#7fa7b8" stroke-width="1"></path></marker><marker id="SvgjsMarker1191" markerWidth="12" markerHeight="8" refX="9" refY="4" viewBox="0 0 12 8" orient="auto" markerUnits="userSpaceOnUse" stroke-dasharray="0,0"><path id="SvgjsPath1192" d="M0,0 L12,4 L0,8 L0,0" fill="#94da69" stroke="#94da69" stroke-width="1"></path></marker><linearGradient id="SvgjsLinearGradient1195" x1="0.5" y1="0" x2="0.5" y2="1"><stop id="SvgjsStop1196" stop-opacity="1" stop-color="#ffffff" offset="0"></stop><stop id="SvgjsStop1197" stop-opacity="1" stop-color="#fbfbfb" offset="1"></stop></linearGradient><marker id="SvgjsMarker1204" markerWidth="12" markerHeight="8" refX="9" refY="4" viewBox="0 0 12 8" orient="auto" markerUnits="userSpaceOnUse" stroke-dasharray="0,0"><path id="SvgjsPath1205" d="M0,0 L12,4 L0,8 L0,0" fill="#bfbfbf" stroke="#bfbfbf" stroke-width="1"></path></marker></defs><rect id="svgbackgroundid" width="898.75" height="666.107142857143" fill="transparent"></rect><rect id="SvgjsRect1009" width="898.75" height="666.107142857143" fill="url(#pattern_mark_0)"></rect><rect id="SvgjsRect1010" width="898.75" height="666.107142857143" fill="url(#pattern_mark_1)"></rect><g id="SvgjsG1011" transform="translate(25,25)"><path id="SvgjsPath1012" d="M 0 4Q 0 0 4 0L 844.75 0Q 848.75 0 848.75 4L 848.75 612.107142857143Q 848.75 616.107142857143 844.75 616.107142857143L 4 616.107142857143Q 0 616.107142857143 0 612.107142857143Z" stroke-dasharray="5,2" stroke="rgba(191,191,191,1)" stroke-width="1" fill-opacity="1" fill="#ffffff"></path><g id="SvgjsG1013"><text id="SvgjsText1014" font-family="思源宋体" text-anchor="middle" font-size="13px" width="829px" fill="#323232" font-weight="400" align="middle" lineHeight="125%" anchor="middle" family="思源宋体" size="13px" weight="400" font-style="" opacity="1" y="297.4285714285715" transform="rotate(0)"></text></g></g><g id="SvgjsG1015" transform="translate(217.74999999999994,142.29166666666663)"><path id="SvgjsPath1016" d="M 15 0L 553.857142857143 0C 573.857142857143 0 573.857142857143 45 553.857142857143 45L 15 45C -5 45 -5 0 15 0Z" stroke="none" fill-opacity="0.1" fill="#569230"></path><g id="SvgjsG1017"><text id="SvgjsText1018" font-family="思源黑体" text-anchor="middle" font-size="15px" width="549px" fill="#7fa7b8" font-weight="400" align="middle" lineHeight="100%" anchor="middle" family="思源黑体" size="15px" weight="400" font-style="" opacity="0.1" y="14" transform="rotate(0)"><tspan id="SvgjsTspan1019" dy="15" x="284.5"><tspan id="SvgjsTspan1020" style=""> </tspan></tspan></text></g></g><g id="SvgjsG1021" transform="translate(217.74999999999994,408.7202380952384)"><path id="SvgjsPath1022" d="M 15 0L 225 0C 245 0 245 45 225 45L 15 45C -5 45 -5 0 15 0Z" stroke="none" fill-opacity="0.1" fill="#7fa7b8"></path><g id="SvgjsG1023"><text id="SvgjsText1024" font-family="思源黑体" text-anchor="middle" font-size="15px" width="220px" fill="#7fa7b8" font-weight="400" align="middle" lineHeight="100%" anchor="middle" family="思源黑体" size="15px" weight="400" font-style="" opacity="0.1" y="14" transform="rotate(0)"></text></g></g><g id="SvgjsG1025" transform="translate(546.607142857143,408.7202380952384)"><path id="SvgjsPath1026" d="M 15 0L 225 0C 245 0 245 45 225 45L 15 45C -5 45 -5 0 15 0Z" stroke="none" fill-opacity="0.1" fill="#7fa7b8"></path><g id="SvgjsG1027"><text id="SvgjsText1028" font-family="思源黑体" text-anchor="middle" font-size="15px" width="220px" fill="#7fa7b8" font-weight="400" align="middle" lineHeight="100%" anchor="middle" family="思源黑体" size="15px" weight="400" font-style="" opacity="0.1" y="14" transform="rotate(0)"></text></g></g><g id="SvgjsG1029" transform="translate(217.74999999999994,322.18452380952345)"><path id="SvgjsPath1030" d="M 15 0L 110 0C 130 0 130 45 110 45L 15 45C -5 45 -5 0 15 0Z" stroke="none" fill-opacity="0.1" fill="#7fa7b8"></path><g id="SvgjsG1031"><text id="SvgjsText1032" font-family="思源黑体" text-anchor="middle" font-size="15px" width="105px" fill="#7fa7b8" font-weight="400" align="middle" lineHeight="100%" anchor="middle" family="思源黑体" size="15px" weight="400" font-style="" opacity="0.1" y="14" transform="rotate(0)"></text></g></g><g id="SvgjsG1033" transform="translate(661.607142857143,321.7202380952381)"><path id="SvgjsPath1034" d="M 15 0L 110 0C 130 0 130 45 110 45L 15 45C -5 45 -5 0 15 0Z" stroke="none" fill-opacity="0.1" fill="#7fa7b8"></path><g id="SvgjsG1035"><text id="SvgjsText1036" font-family="思源黑体" text-anchor="middle" font-size="15px" width="105px" fill="#7fa7b8" font-weight="400" align="middle" lineHeight="100%" anchor="middle" family="思源黑体" size="15px" weight="400" font-style="" opacity="0.1" y="14" transform="rotate(0)"></text></g></g><g id="SvgjsG1037" transform="translate(364.70238095238096,322.18452380952345)"><path id="SvgjsPath1038" d="M 15 0L 110 0C 130 0 130 45 110 45L 15 45C -5 45 -5 0 15 0Z" stroke="none" fill-opacity="0.1" fill="#7fa7b8"></path><g id="SvgjsG1039"><text id="SvgjsText1040" font-family="思源黑体" text-anchor="middle" font-size="15px" width="105px" fill="#7fa7b8" font-weight="400" align="middle" lineHeight="100%" anchor="middle" family="思源黑体" size="15px" weight="400" font-style="" opacity="0.1" y="14" transform="rotate(0)"></text></g></g><g id="SvgjsG1041" transform="translate(513.654761904762,321.7202380952381)"><path id="SvgjsPath1042" d="M 15 0L 110 0C 130 0 130 45 110 45L 15 45C -5 45 -5 0 15 0Z" stroke="none" fill-opacity="0.1" fill="#7fa7b8"></path><g id="SvgjsG1043"><text id="SvgjsText1044" font-family="思源黑体" text-anchor="middle" font-size="15px" width="105px" fill="#7fa7b8" font-weight="400" align="middle" lineHeight="100%" anchor="middle" family="思源黑体" size="15px" weight="400" font-style="" opacity="0.1" y="14" transform="rotate(0)"></text></g></g><g id="SvgjsG1045" transform="translate(217.74999999999994,503.68452380952374)"><path id="SvgjsPath1046" d="M 15 0L 225 0C 245 0 245 45 225 45L 15 45C -5 45 -5 0 15 0Z" stroke="none" fill-opacity="0.1" fill="#7fa7b8"></path><g id="SvgjsG1047"><text id="SvgjsText1048" font-family="思源黑体" text-anchor="middle" font-size="15px" width="220px" fill="#7fa7b8" font-weight="400" align="middle" lineHeight="100%" anchor="middle" family="思源黑体" size="15px" weight="400" font-style="" opacity="0.1" y="14" transform="rotate(0)"></text></g></g><g id="SvgjsG1049" transform="translate(546.607142857143,503.68452380952374)"><path id="SvgjsPath1050" d="M 15 0L 225 0C 245 0 245 45 225 45L 15 45C -5 45 -5 0 15 0Z" stroke="none" fill-opacity="0.1" fill="#7fa7b8"></path><g id="SvgjsG1051"><text id="SvgjsText1052" font-family="思源黑体" text-anchor="middle" font-size="15px" width="220px" fill="#7fa7b8" font-weight="400" align="middle" lineHeight="100%" anchor="middle" family="思源黑体" size="15px" weight="400" font-style="" opacity="0.1" y="14" transform="rotate(0)"></text></g></g><g id="SvgjsG1053" transform="translate(217.74999999999994,232.75595238095235)"><path id="SvgjsPath1054" d="M 15 0L 225 0C 245 0 245 45 225 45L 15 45C -5 45 -5 0 15 0Z" stroke="none" fill-opacity="0.1" fill="#569230"></path><g id="SvgjsG1055"><text id="SvgjsText1056" font-family="思源黑体" text-anchor="middle" font-size="15px" width="220px" fill="#7fa7b8" font-weight="400" align="middle" lineHeight="100%" anchor="middle" family="思源黑体" size="15px" weight="400" font-style="" opacity="0.1" y="14" transform="rotate(0)"><tspan id="SvgjsTspan1057" dy="15" x="120"><tspan id="SvgjsTspan1058" style=""> </tspan></tspan></text></g></g><g id="SvgjsG1059" transform="translate(546.607142857143,232.75595238095235)"><path id="SvgjsPath1060" d="M 15 0L 225 0C 245 0 245 45 225 45L 15 45C -5 45 -5 0 15 0Z" stroke="none" fill-opacity="0.1" fill="#616161"></path><g id="SvgjsG1061"><text id="SvgjsText1062" font-family="思源黑体" text-anchor="middle" font-size="15px" width="220px" fill="#7fa7b8" font-weight="400" align="middle" lineHeight="100%" anchor="middle" family="思源黑体" size="15px" weight="400" font-style="" opacity="0.1" y="14" transform="rotate(0)"></text></g></g><g id="SvgjsG1063" transform="translate(127.74999999999994,134.79166666666663)"><path id="SvgjsPath1064" d="M 0 30C 0 -10 60 -10 60 30C 60 70 0 70 0 30Z" stroke="none" fill-opacity="0.1" fill="#ff9f5a"></path><g id="SvgjsG1065"><text id="SvgjsText1066" font-family="思源黑体" text-anchor="middle" font-size="15px" width="40px" fill="#ff9f5a" font-weight="400" align="middle" lineHeight="125%" anchor="middle" family="思源黑体" size="15px" weight="400" font-style="" opacity="0.1" y="17.625" transform="rotate(0)"><tspan id="SvgjsTspan1067" dy="18.75" x="30"><tspan id="SvgjsTspan1068" style=""> </tspan></tspan></text></g></g><g id="SvgjsG1069" transform="translate(211.74999999999994,136.29166666666663)"><path id="SvgjsPath1070" d="M 15 0L 553.857142857143 0C 573.857142857143 0 573.857142857143 45 553.857142857143 45L 15 45C -5 45 -5 0 15 0Z" stroke="rgba(149,218,105,1)" stroke-width="3" fill-opacity="1" fill="#e5f6da"></path><g id="SvgjsG1071"><text id="SvgjsText1072" font-family="思源黑体" text-anchor="middle" font-size="15px" width="549px" fill="#569230" font-weight="400" align="middle" lineHeight="150%" anchor="middle" family="思源黑体" size="15px" weight="400" font-style="" opacity="1" y="6.25" transform="rotate(0)"><tspan id="SvgjsTspan1073" dy="22.5" x="284.5"><tspan id="SvgjsTspan1074" style="">启发并辅助你成为新时代的优秀创作者</tspan></tspan></text></g></g><g id="SvgjsG1075" transform="translate(121.74999999999994,128.79166666666663)"><path id="SvgjsPath1076" d="M 0 30C 0 -10 60 -10 60 30C 60 70 0 70 0 30Z" stroke="rgba(255,159,90,1)" stroke-width="3" fill-opacity="1" fill="#fcf9ea"></path><g id="SvgjsG1077"><text id="SvgjsText1078" font-family="思源黑体" text-anchor="middle" font-size="15px" width="40px" fill="#ff9f5a" font-weight="400" align="middle" lineHeight="125%" anchor="middle" family="思源黑体" size="15px" weight="400" font-style="" opacity="1" y="8.125" transform="rotate(0)"><tspan id="SvgjsTspan1079" dy="18.75" x="30"><tspan id="SvgjsTspan1080" style="">品牌</tspan></tspan><tspan id="SvgjsTspan1081" dy="18.75" x="30"><tspan id="SvgjsTspan1082" style="">定位</tspan></tspan></text></g></g><g id="SvgjsG1083" transform="translate(127.74999999999994,315.7202380952381)"><path id="SvgjsPath1084" d="M 0 30C 0 -10 60 -10 60 30C 60 70 0 70 0 30Z" stroke="none" fill-opacity="0.1" fill="#ff9f5a"></path><g id="SvgjsG1085"><text id="SvgjsText1086" font-family="思源黑体" text-anchor="middle" font-size="15px" width="40px" fill="#ff9f5a" font-weight="400" align="middle" lineHeight="125%" anchor="middle" family="思源黑体" size="15px" weight="400" font-style="" opacity="0.1" y="17.625" transform="rotate(0)"><tspan id="SvgjsTspan1087" dy="18.75" x="30"><tspan id="SvgjsTspan1088" style=""> </tspan></tspan></text></g></g><g id="SvgjsG1089" transform="translate(121.74999999999994,309.7202380952381)"><path id="SvgjsPath1090" d="M 0 30C 0 -10 60 -10 60 30C 60 70 0 70 0 30Z" stroke="rgba(255,159,90,1)" stroke-width="3" fill-opacity="1" fill="#fcf9ea"></path><g id="SvgjsG1091"><text id="SvgjsText1092" font-family="思源黑体" text-anchor="middle" font-size="15px" width="40px" fill="#ff9f5a" font-weight="400" align="middle" lineHeight="125%" anchor="middle" family="思源黑体" size="15px" weight="400" font-style="" opacity="1" y="8.125" transform="rotate(0)"><tspan id="SvgjsTspan1093" dy="18.75" x="30"><tspan id="SvgjsTspan1094" style="">产品</tspan></tspan><tspan id="SvgjsTspan1095" dy="18.75" x="30"><tspan id="SvgjsTspan1096" style="">形态</tspan></tspan></text></g></g><g id="SvgjsG1097" transform="translate(127.74999999999994,405.7202380952384)"><path id="SvgjsPath1098" d="M 0 30C 0 -10 60 -10 60 30C 60 70 0 70 0 30Z" stroke="none" fill-opacity="0.1" fill="#ff9f5a"></path><g id="SvgjsG1099"><text id="SvgjsText1100" font-family="思源黑体" text-anchor="middle" font-size="15px" width="40px" fill="#ff9f5a" font-weight="400" align="middle" lineHeight="125%" anchor="middle" family="思源黑体" size="15px" weight="400" font-style="" opacity="0.1" y="17.625" transform="rotate(0)"><tspan id="SvgjsTspan1101" dy="18.75" x="30"><tspan id="SvgjsTspan1102" style=""> </tspan></tspan></text></g></g><g id="SvgjsG1103" transform="translate(211.74999999999994,402.7202380952384)"><path id="SvgjsPath1104" d="M 15 0L 225 0C 245 0 245 45 225 45L 15 45C -5 45 -5 0 15 0Z" stroke="rgba(127,167,184,1)" stroke-width="3" fill-opacity="1" fill="#e2eff5"></path><g id="SvgjsG1105"><text id="SvgjsText1106" font-family="思源黑体" text-anchor="middle" font-size="15px" width="220px" fill="#7fa7b8" font-weight="400" align="middle" lineHeight="100%" anchor="middle" family="思源黑体" size="15px" weight="400" font-style="" opacity="1" y="14" transform="rotate(0)"><tspan id="SvgjsTspan1107" dy="15" x="120"><tspan id="SvgjsTspan1108" style="">以应用产品承载方法理念</tspan></tspan></text></g></g><g id="SvgjsG1109" transform="translate(127.74999999999994,495.7202380952384)"><path id="SvgjsPath1110" d="M 0 30C 0 -10 60 -10 60 30C 60 70 0 70 0 30Z" stroke="none" fill-opacity="0.1" fill="#ff9f5a"></path><g id="SvgjsG1111"><text id="SvgjsText1112" font-family="苍耳与墨" text-anchor="middle" font-size="15px" width="40px" fill="#ff9f5a" font-weight="400" align="middle" lineHeight="125%" anchor="middle" family="苍耳与墨" size="15px" weight="400" font-style="" opacity="0.1" y="17.625" transform="rotate(0)"><tspan id="SvgjsTspan1113" dy="18.75" x="30"><tspan id="SvgjsTspan1114" style=""> </tspan></tspan></text></g></g><g id="SvgjsG1115" transform="translate(127.74999999999994,225.25595238095235)"><path id="SvgjsPath1116" d="M 0 30C 0 -10 60 -10 60 30C 60 70 0 70 0 30Z" stroke="none" fill-opacity="0.1" fill="#ff9f5a"></path><g id="SvgjsG1117"><text id="SvgjsText1118" font-family="思源黑体" text-anchor="middle" font-size="15px" width="40px" fill="#ff9f5a" font-weight="400" align="middle" lineHeight="125%" anchor="middle" family="思源黑体" size="15px" weight="400" font-style="" opacity="0.1" y="17.625" transform="rotate(0)"><tspan id="SvgjsTspan1119" dy="18.75" x="30"><tspan id="SvgjsTspan1120" style=""> </tspan></tspan></text></g></g><g id="SvgjsG1121" transform="translate(121.74999999999994,399.7202380952384)"><path id="SvgjsPath1122" d="M 0 30C 0 -10 60 -10 60 30C 60 70 0 70 0 30Z" stroke="rgba(255,159,90,1)" stroke-width="3" fill-opacity="1" fill="#fcf9ea"></path><g id="SvgjsG1123"><text id="SvgjsText1124" font-family="思源黑体" text-anchor="middle" font-size="15px" width="40px" fill="#ff9f5a" font-weight="400" align="middle" lineHeight="125%" anchor="middle" family="思源黑体" size="15px" weight="400" font-style="" opacity="1" y="8.125" transform="rotate(0)"><tspan id="SvgjsTspan1125" dy="18.75" x="30"><tspan id="SvgjsTspan1126" style="">战略</tspan></tspan><tspan id="SvgjsTspan1127" dy="18.75" x="30"><tspan id="SvgjsTspan1128" style="">思考</tspan></tspan></text></g></g><g id="SvgjsG1129" transform="translate(211.74999999999994,315.7202380952381)"><path id="SvgjsPath1130" d="M 15 0L 110 0C 130 0 130 45 110 45L 15 45C -5 45 -5 0 15 0Z" stroke="rgba(127,167,184,1)" stroke-width="3" fill-opacity="1" fill="#e2eff5"></path><g id="SvgjsG1131"><text id="SvgjsText1132" font-family="&quot;Times New Roman&quot;" text-anchor="middle" font-size="15px" width="105px" fill="#7fa7b8" font-weight="400" align="middle" lineHeight="100%" anchor="middle" family="&quot;Times New Roman&quot;" size="15px" weight="400" font-style="" opacity="1" y="14" transform="rotate(0)"><tspan id="SvgjsTspan1133" dy="15" x="62.5"><tspan id="SvgjsTspan1134" style="">APP</tspan></tspan></text></g></g><g id="SvgjsG1135" transform="translate(655.6071428571431,315.7202380952381)"><path id="SvgjsPath1136" d="M 15 0L 110 0C 130 0 130 45 110 45L 15 45C -5 45 -5 0 15 0Z" stroke="rgba(127,167,184,1)" stroke-width="3" fill-opacity="1" fill="#e2eff5"></path><g id="SvgjsG1137"><text id="SvgjsText1138" font-family="思源黑体" text-anchor="middle" font-size="15px" width="105px" fill="#7fa7b8" font-weight="400" align="middle" lineHeight="100%" anchor="middle" family="思源黑体" size="15px" weight="400" font-style="" opacity="1" y="14" transform="rotate(0)"><tspan id="SvgjsTspan1139" dy="15" x="62.5"><tspan id="SvgjsTspan1140" style="">思维课堂</tspan></tspan></text></g></g><g id="SvgjsG1141" transform="translate(507.65476190476204,315.7202380952381)"><path id="SvgjsPath1142" d="M 15 0L 110 0C 130 0 130 45 110 45L 15 45C -5 45 -5 0 15 0Z" stroke="rgba(127,167,184,1)" stroke-width="3" fill-opacity="1" fill="#e2eff5"></path><g id="SvgjsG1143"><text id="SvgjsText1144" font-family="思源黑体" text-anchor="middle" font-size="15px" width="105px" fill="#7fa7b8" font-weight="400" align="middle" lineHeight="100%" anchor="middle" family="思源黑体" size="15px" weight="400" font-style="" opacity="1" y="14" transform="rotate(0)"><tspan id="SvgjsTspan1145" dy="15" x="62.5"><tspan id="SvgjsTspan1146" style="">技术思考</tspan></tspan></text></g></g><g id="SvgjsG1147" transform="translate(121.74999999999994,489.7202380952384)"><path id="SvgjsPath1148" d="M 0 30C 0 -10 60 -10 60 30C 60 70 0 70 0 30Z" stroke="rgba(255,159,90,1)" stroke-width="3" fill-opacity="1" fill="#fcf9ea"></path><g id="SvgjsG1149"><text id="SvgjsText1150" font-family="思源黑体" text-anchor="middle" font-size="15px" width="40px" fill="#ff9f5a" font-weight="400" align="middle" lineHeight="125%" anchor="middle" family="思源黑体" size="15px" weight="400" font-style="" opacity="1" y="8.125" transform="rotate(0)"><tspan id="SvgjsTspan1151" dy="18.75" x="30"><tspan id="SvgjsTspan1152" style="">能力</tspan></tspan><tspan id="SvgjsTspan1153" dy="18.75" x="30"><tspan id="SvgjsTspan1154" style="">边界</tspan></tspan></text></g></g><g id="SvgjsG1155" transform="translate(211.74999999999994,497.2202380952384)"><path id="SvgjsPath1156" d="M 15 0L 225 0C 245 0 245 45 225 45L 15 45C -5 45 -5 0 15 0Z" stroke="rgba(127,167,184,1)" stroke-width="3" fill-opacity="1" fill="#e2eff5"></path><g id="SvgjsG1157"><text id="SvgjsText1158" font-family="思源黑体" text-anchor="middle" font-size="15px" width="220px" fill="#7fa7b8" font-weight="400" align="middle" lineHeight="100%" anchor="middle" family="思源黑体" size="15px" weight="400" font-style="" opacity="1" y="14" transform="rotate(0)"><tspan id="SvgjsTspan1159" dy="15" x="120"><tspan id="SvgjsTspan1160" style="">金融领域知识</tspan></tspan></text></g></g><g id="SvgjsG1161" transform="translate(540.607142857143,497.2202380952384)"><path id="SvgjsPath1162" d="M 15 0L 225 0C 245 0 245 45 225 45L 15 45C -5 45 -5 0 15 0Z" stroke="rgba(127,167,184,1)" stroke-width="3" fill-opacity="1" fill="#e2eff5"></path><g id="SvgjsG1163"><text id="SvgjsText1164" font-family="思源黑体" text-anchor="middle" font-size="15px" width="220px" fill="#7fa7b8" font-weight="400" align="middle" lineHeight="100%" anchor="middle" family="思源黑体" size="15px" weight="400" font-style="" opacity="1" y="14" transform="rotate(0)"><tspan id="SvgjsTspan1165" dy="15" x="120"><tspan id="SvgjsTspan1166" style="">分析、设计、研发思维及能力</tspan></tspan></text></g></g><g id="SvgjsG1167"><path id="SvgjsPath1168" d="M449.8110679274836 507.761511355321L539.479175532829 507.761511355321" stroke="#7fa7b8" stroke-width="1" fill="none" marker-end="url(#SvgjsMarker1169)"></path></g><g id="SvgjsG1171"><path id="SvgjsPath1172" d="M540.779175532829 529.7931871121135L450.9806552925188 529.7931871121135" stroke="#7fa7b8" stroke-width="1" fill="none" marker-end="url(#SvgjsMarker1173)"></path></g><g id="SvgjsG1175" transform="translate(121.74999999999994,219.25595238095235)"><path id="SvgjsPath1176" d="M 0 30C 0 -10 60 -10 60 30C 60 70 0 70 0 30Z" stroke="rgba(255,159,90,1)" stroke-width="3" fill-opacity="1" fill="#fcf9ea"></path><g id="SvgjsG1177"><text id="SvgjsText1178" font-family="思源黑体" text-anchor="middle" font-size="15px" width="40px" fill="#ff9f5a" font-weight="400" align="middle" lineHeight="125%" anchor="middle" family="思源黑体" size="15px" weight="400" font-style="" opacity="1" y="8.125" transform="rotate(0)"><tspan id="SvgjsTspan1179" dy="18.75" x="30"><tspan id="SvgjsTspan1180" style="">北极</tspan></tspan><tspan id="SvgjsTspan1181" dy="18.75" x="30"><tspan id="SvgjsTspan1182" style="">指标</tspan></tspan></text></g></g><g id="SvgjsG1183" transform="translate(211.74999999999994,226.75595238095235)"><path id="SvgjsPath1184" d="M 15 0L 225 0C 245 0 245 45 225 45L 15 45C -5 45 -5 0 15 0Z" stroke="rgba(149,218,105,1)" stroke-width="3" fill-opacity="1" fill="#e5f6da"></path><g id="SvgjsG1185"><text id="SvgjsText1186" font-family="&quot;Times New Roman&quot;" text-anchor="middle" font-size="15px" width="220px" fill="#569230" font-weight="400" align="middle" lineHeight="150%" anchor="middle" family="&quot;Times New Roman&quot;" size="15px" weight="400" font-style="" opacity="1" y="6.25" transform="rotate(0)"><tspan id="SvgjsTspan1187" dy="22.5" x="120"><tspan id="SvgjsTspan1188" style="">H·K·R·R</tspan></tspan></text></g></g><g id="SvgjsG1189"><path id="SvgjsPath1190" d="M331.74999999999994 225.25595238095235L331.74999999999994 183.84166666666664" stroke="#94da69" stroke-width="1" fill="none" marker-end="url(#SvgjsMarker1191)"></path></g><g id="SvgjsG1193" transform="translate(540.607142857143,226.75595238095235)"><path id="SvgjsPath1194" d="M 15 0L 225 0C 245 0 245 45 225 45L 15 45C -5 45 -5 0 15 0Z" stroke="rgba(191,191,191,1)" stroke-width="3" fill="url(#SvgjsLinearGradient1195)"></path><g id="SvgjsG1198"><text id="SvgjsText1199" font-family="思源黑体" text-anchor="middle" font-size="15px" width="220px" fill="#616161" font-weight="400" align="middle" lineHeight="150%" anchor="middle" family="思源黑体" size="15px" weight="400" font-style="" opacity="1" y="6.25" transform="rotate(0)"><tspan id="SvgjsTspan1200" dy="22.5" x="120"><tspan id="SvgjsTspan1201" style="">闭门造车、自嗨创业</tspan></tspan></text></g></g><g id="SvgjsG1202"><path id="SvgjsPath1203" d="M453.2499999999999 249.25595238095235L537.807142857143 249.25595238095235" stroke="#bfbfbf" stroke-width="1" fill="none" marker-end="url(#SvgjsMarker1204)"></path></g><g id="SvgjsG1206" transform="translate(466.17857142857144,207.00595238095235)"><path id="SvgjsPath1207" d="M 0 0L 60 0L 60 40L 0 40Z" stroke="none" fill="none"></path><g id="SvgjsG1208"><text id="SvgjsText1209" font-family="思源黑体" text-anchor="middle" font-size="15px" width="60px" fill="#323232" font-weight="400" align="middle" lineHeight="125%" anchor="middle" family="思源黑体" size="15px" weight="400" font-style="" opacity="1" y="7.625" transform="rotate(0)"><tspan id="SvgjsTspan1210" dy="18.75" x="30"><tspan id="SvgjsTspan1211" style="">🥱 😔</tspan></tspan></text></g></g><g id="SvgjsG1212" transform="translate(336.74999999999994,185.25595238095235)"><path id="SvgjsPath1213" d="M 0 0L 60 0L 60 40L 0 40Z" stroke="none" fill="none"></path><g id="SvgjsG1214"><text id="SvgjsText1215" font-family="思源黑体" text-anchor="middle" font-size="15px" width="60px" fill="#323232" font-weight="400" align="middle" lineHeight="125%" anchor="middle" family="思源黑体" size="15px" weight="400" font-style="" opacity="1" y="7.625" transform="rotate(0)"><tspan id="SvgjsTspan1216" dy="18.75" x="30"><tspan id="SvgjsTspan1217" style="">😊 🤩</tspan></tspan></text></g></g><g id="SvgjsG1218" transform="translate(359.70238095238096,315.7202380952381)"><path id="SvgjsPath1219" d="M 15 0L 110 0C 130 0 130 45 110 45L 15 45C -5 45 -5 0 15 0Z" stroke="rgba(127,167,184,1)" stroke-width="3" fill-opacity="1" fill="#e2eff5"></path><g id="SvgjsG1220"><text id="SvgjsText1221" font-family="思源黑体" text-anchor="middle" font-size="15px" width="105px" fill="#7fa7b8" font-weight="400" align="middle" lineHeight="100%" anchor="middle" family="思源黑体" size="15px" weight="400" font-style="" opacity="1" y="14" transform="rotate(0)"><tspan id="SvgjsTspan1222" dy="15" x="62.5"><tspan id="SvgjsTspan1223" style="">项目经验</tspan></tspan></text></g></g><g id="SvgjsG1224" transform="translate(540.6071428571431,402.7202380952384)"><path id="SvgjsPath1225" d="M 15 0L 225 0C 245 0 245 45 225 45L 15 45C -5 45 -5 0 15 0Z" stroke="rgba(127,167,184,1)" stroke-width="3" fill-opacity="1" fill="#e2eff5"></path><g id="SvgjsG1226"><text id="SvgjsText1227" font-family="思源黑体" text-anchor="middle" font-size="15px" width="220px" fill="#7fa7b8" font-weight="400" align="middle" lineHeight="100%" anchor="middle" family="思源黑体" size="15px" weight="400" font-style="" opacity="1" y="14" transform="rotate(0)"><tspan id="SvgjsTspan1228" dy="15" x="120"><tspan id="SvgjsTspan1229" style="">以知识产品传播跨学科成果</tspan></tspan></text></g></g><g id="SvgjsG1230" transform="translate(451.7499999999999,464.7202380952384)"><path id="SvgjsPath1231" d="M 0 0L 90 0L 90 40L 0 40Z" stroke="none" fill="none"></path><g id="SvgjsG1232"><text id="SvgjsText1233" font-family="思源黑体" text-anchor="middle" font-size="13px" width="90px" fill="#7fa7b8" font-weight="400" align="middle" lineHeight="125%" anchor="middle" family="思源黑体" size="13px" weight="400" font-style="" opacity="1" y="9.375" transform="rotate(0)"><tspan id="SvgjsTspan1234" dy="16.25" x="45"><tspan id="SvgjsTspan1235" style="">知识用武之地</tspan></tspan></text></g></g><g id="SvgjsG1236" transform="translate(451.7499999999999,534.7202380952384)"><path id="SvgjsPath1237" d="M 0 0L 90 0L 90 40L 0 40Z" stroke="none" fill="none"></path><g id="SvgjsG1238"><text id="SvgjsText1239" font-family="思源黑体" text-anchor="middle" font-size="13px" width="90px" fill="#7fa7b8" font-weight="400" align="middle" lineHeight="125%" anchor="middle" family="思源黑体" size="13px" weight="400" font-style="" opacity="1" y="9.375" transform="rotate(0)"><tspan id="SvgjsTspan1240" dy="16.25" x="45"><tspan id="SvgjsTspan1241" style="">实践升华之法</tspan></tspan></text></g></g><g id="SvgjsG1242"></g></svg>