<svg id="SvgjsSvg1006" width="619" height="170" xmlns="http://www.w3.org/2000/svg" version="1.1" xmlns:xlink="http://www.w3.org/1999/xlink" xmlns:svgjs="http://svgjs.com/svgjs"><defs id="SvgjsDefs1007"><marker id="SvgjsMarker1030" markerWidth="16" markerHeight="16" refX="11" refY="8" viewBox="0 0 16 16" orient="auto" markerUnits="userSpaceOnUse" stroke-dasharray="0,0"><path id="SvgjsPath1031" d="M0,0 L10,8 L0,16" fill="none" stroke="#323232" stroke-width="1"></path></marker></defs><g id="SvgjsG1008" transform="translate(354,25)"><path id="SvgjsPath1009" d="M 0 4Q 0 0 4 0L 236 0Q 240 0 240 4L 240 116Q 240 120 236 120L 4 120Q 0 120 0 116Z" stroke="rgba(50,50,50,1)" stroke-width="1" fill-opacity="1" fill="#ffffff"></path><path id="SvgjsPath1010" d="M 0 30L 240 30" stroke="rgba(50,50,50,1)" stroke-width="1" fill="none"></path><path id="SvgjsPath1011" d="M 0 0L 240 0L 240 120L 0 120Z" stroke="none" fill="none"></path><g id="SvgjsG1012"><text id="SvgjsText1013" font-family="&quot;Times New Roman&quot;" text-anchor="middle" font-size="13px" width="220px" fill="#323232" font-weight="700" align="middle" anchor="middle" family="&quot;Times New Roman&quot;" size="13px" weight="700" font-style="" opacity="1" y="5.05" transform="rotate(0)"><tspan id="SvgjsTspan1014" dy="16" x="120"><tspan id="SvgjsTspan1015" style="text-decoration:;">Singleton</tspan></tspan></text></g><g id="SvgjsG1016"><text id="SvgjsText1017" font-family="&quot;Times New Roman&quot;" text-anchor="start" font-size="13px" width="220px" fill="#323232" font-weight="400" align="middle" anchor="start" family="&quot;Times New Roman&quot;" size="13px" weight="400" font-style="" opacity="1" y="57.05" transform="rotate(0)"><tspan id="SvgjsTspan1018" dy="16" x="10"><tspan id="SvgjsTspan1019" style="text-decoration:;">+ getInstance():Singleton</tspan></tspan><tspan id="SvgjsTspan1020" dy="16" x="10"><tspan id="SvgjsTspan1021" style="text-decoration:;">- Singleton()</tspan></tspan></text></g></g><g id="SvgjsG1022" transform="translate(25,25)"><path id="SvgjsPath1023" d="M 0 4Q 0 0 4 0L 236 0Q 240 0 240 4L 240 116Q 240 120 236 120L 4 120Q 0 120 0 116Z" stroke="rgba(50,50,50,1)" stroke-width="1" fill-opacity="1" fill="#ffffff"></path><g id="SvgjsG1024"><text id="SvgjsText1025" font-family="&quot;Times New Roman&quot;" text-anchor="middle" font-size="13px" width="220px" fill="#323232" font-weight="700" align="middle" anchor="middle" family="&quot;Times New Roman&quot;" size="13px" weight="700" font-style="" opacity="1" y="50.05" transform="rotate(0)"><tspan id="SvgjsTspan1026" dy="16" x="120"><tspan id="SvgjsTspan1027" style="text-decoration:;">Client</tspan></tspan></text></g></g><g id="SvgjsG1028"><path id="SvgjsPath1029" d="M265 85L309.5 85L309.5 85L354 85" stroke-dasharray="8,5" stroke="#323232" stroke-width="1" fill="none" marker-end="url(#SvgjsMarker1030)"></path></g><g id="SvgjsG1032" transform="translate(280,55.5)"><path id="SvgjsPath1033" d="M 0 0L 60 0L 60 30L 0 30Z" stroke="none" fill="none"></path><g id="SvgjsG1034"><text id="SvgjsText1035" font-family="&quot;Times New Roman&quot;" text-anchor="middle" font-size="13px" width="60px" fill="#323232" font-weight="400" align="middle" anchor="middle" family="&quot;Times New Roman&quot;" size="13px" weight="400" font-style="" opacity="1" y="5.05" transform="rotate(0)"><tspan id="SvgjsTspan1036" dy="16" x="30"><tspan id="SvgjsTspan1037" style="text-decoration:;">&lt;&lt;use&gt;&gt;</tspan></tspan></text></g></g></svg>