<svg id="SvgjsSvg1006" width="619" height="372" xmlns="http://www.w3.org/2000/svg" version="1.1" xmlns:xlink="http://www.w3.org/1999/xlink" xmlns:svgjs="http://svgjs.com/svgjs"><defs id="SvgjsDefs1007"><marker id="SvgjsMarker1078" markerWidth="16" markerHeight="16" refX="11" refY="8" viewBox="0 0 16 16" orient="auto" markerUnits="userSpaceOnUse" stroke-dasharray="0,0"><path id="SvgjsPath1079" d="M0,0 L10,8 L0,16" fill="none" stroke="#323232" stroke-width="1"></path></marker><marker id="SvgjsMarker1082" markerWidth="16" markerHeight="16" refX="11" refY="8" viewBox="0 0 16 16" orient="auto" markerUnits="userSpaceOnUse" stroke-dasharray="0,0"><path id="SvgjsPath1083" d="M0,0 L10,8 L0,16" fill="none" stroke="#323232" stroke-width="1"></path></marker><marker id="SvgjsMarker1088" markerWidth="14" markerHeight="12" refX="16" refY="6" viewBox="0 0 14 12" orient="auto" markerUnits="userSpaceOnUse" stroke-dasharray="0,0"><path id="SvgjsPath1089" d="M1,1 L14,6 L1,11L1,1" fill="#ffffff" stroke="#323232" stroke-width="1"></path></marker></defs><g id="SvgjsG1008" transform="translate(25,25)"><path id="SvgjsPath1009" d="M 0 4Q 0 0 4 0L 236 0Q 240 0 240 4L 240 106Q 240 110 236 110L 4 110Q 0 110 0 106Z" stroke="rgba(50,50,50,1)" stroke-width="1" fill-opacity="1" fill="#ffffff"></path><g id="SvgjsG1010"><text id="SvgjsText1011" font-family="&quot;Times New Roman&quot;" text-anchor="middle" font-size="13px" width="220px" fill="#323232" font-weight="700" align="middle" anchor="middle" family="&quot;Times New Roman&quot;" size="13px" weight="700" font-style="" opacity="1" y="45.05" transform="rotate(0)"><tspan id="SvgjsTspan1012" dy="16" x="120"><tspan id="SvgjsTspan1013" style="text-decoration:;">Client</tspan></tspan></text></g></g><g id="SvgjsG1014" transform="translate(354,25)"><path id="SvgjsPath1015" d="M 0 4Q 0 0 4 0L 236 0Q 240 0 240 4L 240 106Q 240 110 236 110L 4 110Q 0 110 0 106Z" stroke="rgba(50,50,50,1)" stroke-width="1" fill-opacity="1" fill="#ffffff"></path><path id="SvgjsPath1016" d="M 0 32L 240 32" stroke="rgba(50,50,50,1)" stroke-width="1" fill="none"></path><path id="SvgjsPath1017" d="M 0 0L 240 0L 240 110L 0 110Z" stroke="none" fill="none"></path><g id="SvgjsG1018"><text id="SvgjsText1019" font-family="&quot;Times New Roman&quot;" text-anchor="middle" font-size="13px" width="220px" fill="#323232" font-weight="700" align="middle" anchor="middle" family="&quot;Times New Roman&quot;" size="13px" weight="700" font-style="" opacity="1" y="-1.95" transform="rotate(0)"><tspan id="SvgjsTspan1020" dy="16" x="120"><tspan id="SvgjsTspan1021" style="text-decoration:;">&lt;&lt;interface&gt;&gt;</tspan></tspan><tspan id="SvgjsTspan1022" dy="16" x="120"><tspan id="SvgjsTspan1023" style="text-decoration:;">ILawsuit</tspan></tspan></text></g><g id="SvgjsG1024"><text id="SvgjsText1025" font-family="&quot;Times New Roman&quot;" text-anchor="start" font-size="13px" width="220px" fill="#323232" font-weight="400" align="middle" anchor="start" family="&quot;Times New Roman&quot;" size="13px" weight="400" font-style="" opacity="1" y="37.05" transform="rotate(0)"><tspan id="SvgjsTspan1026" dy="16" x="10"><tspan id="SvgjsTspan1027" style="text-decoration:;">+ submit():void</tspan></tspan><tspan id="SvgjsTspan1028" dy="16" x="10"><tspan id="SvgjsTspan1029" style="text-decoration:;">+ burden():void</tspan></tspan><tspan id="SvgjsTspan1030" dy="16" x="10"><tspan id="SvgjsTspan1031" style="text-decoration:;">+ defend():void</tspan></tspan><tspan id="SvgjsTspan1032" dy="16" x="10"><tspan id="SvgjsTspan1033" style="text-decoration:;">+ finish():void</tspan></tspan></text></g></g><g id="SvgjsG1034" transform="translate(25,197)"><path id="SvgjsPath1035" d="M 0 4Q 0 0 4 0L 236 0Q 240 0 240 4L 240 146Q 240 150 236 150L 4 150Q 0 150 0 146Z" stroke="rgba(50,50,50,1)" stroke-width="1" fill-opacity="1" fill="#ffffff"></path><path id="SvgjsPath1036" d="M 0 30L 240 30" stroke="rgba(50,50,50,1)" stroke-width="1" fill="none"></path><path id="SvgjsPath1037" d="M 0 0L 240 0L 240 150L 0 150Z" stroke="none" fill="none"></path><g id="SvgjsG1038"><text id="SvgjsText1039" font-family="&quot;Times New Roman&quot;" text-anchor="middle" font-size="13px" width="220px" fill="#323232" font-weight="700" align="middle" anchor="middle" family="&quot;Times New Roman&quot;" size="13px" weight="700" font-style="" opacity="1" y="5.05" transform="rotate(0)"><tspan id="SvgjsTspan1040" dy="16" x="120"><tspan id="SvgjsTspan1041" style="text-decoration:;">XiaoMin</tspan></tspan></text></g><g id="SvgjsG1042"><text id="SvgjsText1043" font-family="&quot;Times New Roman&quot;" text-anchor="start" font-size="13px" width="220px" fill="#323232" font-weight="400" align="middle" anchor="start" family="&quot;Times New Roman&quot;" size="13px" weight="400" font-style="" opacity="1" y="56.05" transform="rotate(0)"><tspan id="SvgjsTspan1044" dy="16" x="10"><tspan id="SvgjsTspan1045" style="text-decoration:;">+ submit():void</tspan></tspan><tspan id="SvgjsTspan1046" dy="16" x="10"><tspan id="SvgjsTspan1047" style="text-decoration:;">+ burden():void</tspan></tspan><tspan id="SvgjsTspan1048" dy="16" x="10"><tspan id="SvgjsTspan1049" style="text-decoration:;">+ defend():void</tspan></tspan><tspan id="SvgjsTspan1050" dy="16" x="10"><tspan id="SvgjsTspan1051" style="text-decoration:;">+ finish():void</tspan></tspan></text></g></g><g id="SvgjsG1052" transform="translate(354,197)"><path id="SvgjsPath1053" d="M 0 4Q 0 0 4 0L 236 0Q 240 0 240 4L 240 146Q 240 150 236 150L 4 150Q 0 150 0 146Z" stroke="rgba(50,50,50,1)" stroke-width="1" fill-opacity="1" fill="#ffffff"></path><path id="SvgjsPath1054" d="M 0 30L 240 30M 0 60L 240 60" stroke="rgba(50,50,50,1)" stroke-width="1" fill="none"></path><path id="SvgjsPath1055" d="M 0 0L 240 0L 240 150L 0 150Z" stroke="none" fill="none"></path><g id="SvgjsG1056"><text id="SvgjsText1057" font-family="&quot;Times New Roman&quot;" text-anchor="middle" font-size="13px" width="220px" fill="#323232" font-weight="700" align="middle" anchor="middle" family="&quot;Times New Roman&quot;" size="13px" weight="700" font-style="" opacity="1" y="5.05" transform="rotate(0)"><tspan id="SvgjsTspan1058" dy="16" x="120"><tspan id="SvgjsTspan1059" style="text-decoration:;">Laywer</tspan></tspan></text></g><g id="SvgjsG1060"><text id="SvgjsText1061" font-family="&quot;Times New Roman&quot;" text-anchor="start" font-size="13px" width="220px" fill="#323232" font-weight="400" align="middle" anchor="start" family="&quot;Times New Roman&quot;" size="13px" weight="400" font-style="" opacity="1" y="35.05" transform="rotate(0)"><tspan id="SvgjsTspan1062" dy="16" x="10"><tspan id="SvgjsTspan1063" style="text-decoration:;">+ mLawsuit:ILawsuit</tspan></tspan></text></g><g id="SvgjsG1064"><text id="SvgjsText1065" font-family="&quot;Times New Roman&quot;" text-anchor="start" font-size="13px" width="220px" fill="#323232" font-weight="400" align="middle" anchor="start" family="&quot;Times New Roman&quot;" size="13px" weight="400" font-style="" opacity="1" y="58.05" transform="rotate(0)"><tspan id="SvgjsTspan1066" dy="16" x="10"><tspan id="SvgjsTspan1067" style="text-decoration:;"> </tspan></tspan><tspan id="SvgjsTspan1068" dy="16" x="10"><tspan id="SvgjsTspan1069" style="text-decoration:;">+ submit():void</tspan></tspan><tspan id="SvgjsTspan1070" dy="16" x="10"><tspan id="SvgjsTspan1071" style="text-decoration:;">+ burden():void</tspan></tspan><tspan id="SvgjsTspan1072" dy="16" x="10"><tspan id="SvgjsTspan1073" style="text-decoration:;">+ defend():void</tspan></tspan><tspan id="SvgjsTspan1074" dy="16" x="10"><tspan id="SvgjsTspan1075" style="text-decoration:;">+ finish():void</tspan></tspan></text></g></g><g id="SvgjsG1076"><path id="SvgjsPath1077" d="M265 272L309.5 272L309.5 272L354 272" stroke-dasharray="8,5" stroke="#323232" stroke-width="1" fill="none" marker-end="url(#SvgjsMarker1078)"></path></g><g id="SvgjsG1080"><path id="SvgjsPath1081" d="M265 80L309.5 80L309.5 80L354 80" stroke-dasharray="8,5" stroke="#323232" stroke-width="1" fill="none" marker-end="url(#SvgjsMarker1082)"></path></g><g id="SvgjsG1084"><path id="SvgjsPath1085" d="M145 197L145 166L474 166L474 135" stroke="#323232" stroke-width="1" fill="none"></path></g><g id="SvgjsG1086"><path id="SvgjsPath1087" d="M474 197L474 166L474 166L474 135" stroke="#323232" stroke-width="1" fill="none" marker-end="url(#SvgjsMarker1088)"></path></g></svg>