<svg id="SvgjsSvg1006" width="1101.5" height="657.5" xmlns="http://www.w3.org/2000/svg" version="1.1" xmlns:xlink="http://www.w3.org/1999/xlink" xmlns:svgjs="http://svgjs.com/svgjs"><defs id="SvgjsDefs1007"><marker id="SvgjsMarker1176" markerWidth="14" markerHeight="12" refX="16" refY="6" viewBox="0 0 14 12" orient="auto" markerUnits="userSpaceOnUse" stroke-dasharray="0,0"><path id="SvgjsPath1177" d="M1,1 L14,6 L1,11L1,1" fill="#ffffff" stroke="#323232" stroke-width="1"></path></marker><marker id="SvgjsMarker1180" markerWidth="14" markerHeight="12" refX="16" refY="6" viewBox="0 0 14 12" orient="auto" markerUnits="userSpaceOnUse" stroke-dasharray="0,0"><path id="SvgjsPath1181" d="M1,1 L14,6 L1,11L1,1" fill="#ffffff" stroke="#323232" stroke-width="1"></path></marker><marker id="SvgjsMarker1184" markerWidth="14" markerHeight="12" refX="16" refY="6" viewBox="0 0 14 12" orient="auto" markerUnits="userSpaceOnUse" stroke-dasharray="0,0"><path id="SvgjsPath1185" d="M1,1 L14,6 L1,11L1,1" fill="#ffffff" stroke="#323232" stroke-width="1"></path></marker><marker id="SvgjsMarker1188" markerWidth="14" markerHeight="12" refX="16" refY="6" viewBox="0 0 14 12" orient="auto" markerUnits="userSpaceOnUse" stroke-dasharray="0,0"><path id="SvgjsPath1189" d="M1,1 L14,6 L1,11L1,1" fill="#ffffff" stroke="#323232" stroke-width="1"></path></marker><marker id="SvgjsMarker1192" markerWidth="14" markerHeight="12" refX="16" refY="6" viewBox="0 0 14 12" orient="auto" markerUnits="userSpaceOnUse" stroke-dasharray="0,0"><path id="SvgjsPath1193" d="M1,1 L14,6 L1,11L1,1" fill="#ffffff" stroke="#323232" stroke-width="1"></path></marker><marker id="SvgjsMarker1196" markerWidth="14" markerHeight="12" refX="16" refY="6" viewBox="0 0 14 12" orient="auto" markerUnits="userSpaceOnUse" stroke-dasharray="0,0"><path id="SvgjsPath1197" d="M1,1 L14,6 L1,11L1,1" fill="#ffffff" stroke="#323232" stroke-width="1"></path></marker><marker id="SvgjsMarker1216" markerWidth="14" markerHeight="12" refX="16" refY="6" viewBox="0 0 14 12" orient="auto" markerUnits="userSpaceOnUse" stroke-dasharray="0,0"><path id="SvgjsPath1217" d="M1,1 L14,6 L1,11L1,1" fill="#ffffff" stroke="#323232" stroke-width="1"></path></marker><marker id="SvgjsMarker1220" markerWidth="14" markerHeight="12" refX="16" refY="6" viewBox="0 0 14 12" orient="auto" markerUnits="userSpaceOnUse" stroke-dasharray="0,0"><path id="SvgjsPath1221" d="M1,1 L14,6 L1,11L1,1" fill="#ffffff" stroke="#323232" stroke-width="1"></path></marker><marker id="SvgjsMarker1224" markerWidth="16" markerHeight="16" refX="11" refY="8" viewBox="0 0 16 16" orient="auto" markerUnits="userSpaceOnUse" stroke-dasharray="0,0"><path id="SvgjsPath1225" d="M0,0 L10,8 L0,16" fill="none" stroke="#004c99" stroke-width="1"></path></marker><marker id="SvgjsMarker1228" markerWidth="16" markerHeight="16" refX="11" refY="8" viewBox="0 0 16 16" orient="auto" markerUnits="userSpaceOnUse" stroke-dasharray="0,0"><path id="SvgjsPath1229" d="M0,0 L10,8 L0,16" fill="none" stroke="#004c99" stroke-width="1"></path></marker><marker id="SvgjsMarker1232" markerWidth="16" markerHeight="16" refX="11" refY="8" viewBox="0 0 16 16" orient="auto" markerUnits="userSpaceOnUse" stroke-dasharray="0,0"><path id="SvgjsPath1233" d="M0,0 L10,8 L0,16" fill="none" stroke="#004c99" stroke-width="1"></path></marker><marker id="SvgjsMarker1236" markerWidth="16" markerHeight="16" refX="11" refY="8" viewBox="0 0 16 16" orient="auto" markerUnits="userSpaceOnUse" stroke-dasharray="0,0"><path id="SvgjsPath1237" d="M0,0 L10,8 L0,16" fill="none" stroke="#4d9900" stroke-width="1"></path></marker><marker id="SvgjsMarker1240" markerWidth="16" markerHeight="16" refX="11" refY="8" viewBox="0 0 16 16" orient="auto" markerUnits="userSpaceOnUse" stroke-dasharray="0,0"><path id="SvgjsPath1241" d="M0,0 L10,8 L0,16" fill="none" stroke="#4d9900" stroke-width="1"></path></marker><marker id="SvgjsMarker1244" markerWidth="16" markerHeight="16" refX="11" refY="8" viewBox="0 0 16 16" orient="auto" markerUnits="userSpaceOnUse" stroke-dasharray="0,0"><path id="SvgjsPath1245" d="M0,0 L10,8 L0,16" fill="none" stroke="#4d9900" stroke-width="1"></path></marker></defs><g id="SvgjsG1008" transform="translate(24.999999999999943,196.5)"><path id="SvgjsPath1009" d="M 0 4Q 0 0 4 0L 146 0Q 150 0 150 4L 150 71Q 150 75 146 75L 4 75Q 0 75 0 71Z" stroke="rgba(50,50,50,1)" stroke-width="1" fill-opacity="1" fill="#ffffff"></path><path id="SvgjsPath1010" d="M 0 30L 150 30" stroke="rgba(50,50,50,1)" stroke-width="1" fill="none"></path><path id="SvgjsPath1011" d="M 0 0L 150 0L 150 75L 0 75Z" stroke="none" fill="none"></path><g id="SvgjsG1012"><text id="SvgjsText1013" font-family="&quot;Times New Roman&quot;" text-anchor="middle" font-size="13px" width="130px" fill="#323232" font-weight="700" align="middle" anchor="middle" family="&quot;Times New Roman&quot;" size="13px" weight="700" font-style="" opacity="1" y="5.05" transform="rotate(0)"><tspan id="SvgjsTspan1014" dy="16" x="75"><tspan id="SvgjsTspan1015" style="text-decoration:;">NormalTire</tspan></tspan></text></g><g id="SvgjsG1016"><text id="SvgjsText1017" font-family="&quot;Times New Roman&quot;" text-anchor="start" font-size="13px" width="130px" fill="#323232" font-weight="400" align="middle" anchor="start" family="&quot;Times New Roman&quot;" size="13px" weight="400" font-style="" opacity="1" y="42.55" transform="rotate(0)"><tspan id="SvgjsTspan1018" dy="16" x="10"><tspan id="SvgjsTspan1019" style="text-decoration:;">+ tire():void</tspan></tspan></text></g></g><g id="SvgjsG1020" transform="translate(206.25,196.5)"><path id="SvgjsPath1021" d="M 0 4Q 0 0 4 0L 146 0Q 150 0 150 4L 150 71Q 150 75 146 75L 4 75Q 0 75 0 71Z" stroke="rgba(50,50,50,1)" stroke-width="1" fill-opacity="1" fill="#ffffff"></path><path id="SvgjsPath1022" d="M 0 30L 150 30" stroke="rgba(50,50,50,1)" stroke-width="1" fill="none"></path><path id="SvgjsPath1023" d="M 0 0L 150 0L 150 75L 0 75Z" stroke="none" fill="none"></path><g id="SvgjsG1024"><text id="SvgjsText1025" font-family="&quot;Times New Roman&quot;" text-anchor="middle" font-size="13px" width="130px" fill="#323232" font-weight="700" align="middle" anchor="middle" family="&quot;Times New Roman&quot;" size="13px" weight="700" font-style="" opacity="1" y="5.05" transform="rotate(0)"><tspan id="SvgjsTspan1026" dy="16" x="75"><tspan id="SvgjsTspan1027" style="text-decoration:;">SuvTire</tspan></tspan></text></g><g id="SvgjsG1028"><text id="SvgjsText1029" font-family="&quot;Times New Roman&quot;" text-anchor="start" font-size="13px" width="130px" fill="#323232" font-weight="400" align="middle" anchor="start" family="&quot;Times New Roman&quot;" size="13px" weight="400" font-style="" opacity="1" y="42.55" transform="rotate(0)"><tspan id="SvgjsTspan1030" dy="16" x="10"><tspan id="SvgjsTspan1031" style="text-decoration:;">+ tire():void</tspan></tspan></text></g></g><g id="SvgjsG1032" transform="translate(384.25,196.5)"><path id="SvgjsPath1033" d="M 0 4Q 0 0 4 0L 146 0Q 150 0 150 4L 150 71Q 150 75 146 75L 4 75Q 0 75 0 71Z" stroke="rgba(50,50,50,1)" stroke-width="1" fill-opacity="1" fill="#ffffff"></path><path id="SvgjsPath1034" d="M 0 30L 150 30" stroke="rgba(50,50,50,1)" stroke-width="1" fill="none"></path><path id="SvgjsPath1035" d="M 0 0L 150 0L 150 75L 0 75Z" stroke="none" fill="none"></path><g id="SvgjsG1036"><text id="SvgjsText1037" font-family="&quot;Times New Roman&quot;" text-anchor="middle" font-size="13px" width="130px" fill="#323232" font-weight="700" align="middle" anchor="middle" family="&quot;Times New Roman&quot;" size="13px" weight="700" font-style="" opacity="1" y="5.05" transform="rotate(0)"><tspan id="SvgjsTspan1038" dy="16" x="75"><tspan id="SvgjsTspan1039" style="text-decoration:;">DomesEngine</tspan></tspan></text></g><g id="SvgjsG1040"><text id="SvgjsText1041" font-family="&quot;Times New Roman&quot;" text-anchor="start" font-size="13px" width="130px" fill="#323232" font-weight="400" align="middle" anchor="start" family="&quot;Times New Roman&quot;" size="13px" weight="400" font-style="" opacity="1" y="42.55" transform="rotate(0)"><tspan id="SvgjsTspan1042" dy="16" x="10"><tspan id="SvgjsTspan1043" style="text-decoration:;">+ engine():void</tspan></tspan></text></g></g><g id="SvgjsG1044" transform="translate(565,196.5)"><path id="SvgjsPath1045" d="M 0 4Q 0 0 4 0L 146 0Q 150 0 150 4L 150 71Q 150 75 146 75L 4 75Q 0 75 0 71Z" stroke="rgba(50,50,50,1)" stroke-width="1" fill-opacity="1" fill="#ffffff"></path><path id="SvgjsPath1046" d="M 0 30L 150 30" stroke="rgba(50,50,50,1)" stroke-width="1" fill="none"></path><path id="SvgjsPath1047" d="M 0 0L 150 0L 150 75L 0 75Z" stroke="none" fill="none"></path><g id="SvgjsG1048"><text id="SvgjsText1049" font-family="&quot;Times New Roman&quot;" text-anchor="middle" font-size="13px" width="130px" fill="#323232" font-weight="700" align="middle" anchor="middle" family="&quot;Times New Roman&quot;" size="13px" weight="700" font-style="" opacity="1" y="5.05" transform="rotate(0)"><tspan id="SvgjsTspan1050" dy="16" x="75"><tspan id="SvgjsTspan1051" style="text-decoration:;">ImportEngine</tspan></tspan></text></g><g id="SvgjsG1052"><text id="SvgjsText1053" font-family="&quot;Times New Roman&quot;" text-anchor="start" font-size="13px" width="130px" fill="#323232" font-weight="400" align="middle" anchor="start" family="&quot;Times New Roman&quot;" size="13px" weight="400" font-style="" opacity="1" y="42.55" transform="rotate(0)"><tspan id="SvgjsTspan1054" dy="16" x="10"><tspan id="SvgjsTspan1055" style="text-decoration:;">+ engine():void</tspan></tspan></text></g></g><g id="SvgjsG1056" transform="translate(71.25,512.5)"><path id="SvgjsPath1057" d="M 0 4Q 0 0 4 0L 236 0Q 240 0 240 4L 240 116Q 240 120 236 120L 4 120Q 0 120 0 116Z" stroke="rgba(50,50,50,1)" stroke-width="1" fill-opacity="1" fill="#ffffff"></path><path id="SvgjsPath1058" d="M 0 30L 240 30" stroke="rgba(50,50,50,1)" stroke-width="1" fill="none"></path><path id="SvgjsPath1059" d="M 0 0L 240 0L 240 120L 0 120Z" stroke="none" fill="none"></path><g id="SvgjsG1060"><text id="SvgjsText1061" font-family="&quot;Times New Roman&quot;" text-anchor="middle" font-size="13px" width="220px" fill="#323232" font-weight="700" align="middle" anchor="middle" family="&quot;Times New Roman&quot;" size="13px" weight="700" font-style="" opacity="1" y="5.05" transform="rotate(0)"><tspan id="SvgjsTspan1062" dy="16" x="120"><tspan id="SvgjsTspan1063" style="text-decoration:;">Q3Factory</tspan></tspan></text></g><g id="SvgjsG1064"><text id="SvgjsText1065" font-family="&quot;Times New Roman&quot;" text-anchor="start" font-size="13px" width="220px" fill="#323232" font-weight="400" align="middle" anchor="start" family="&quot;Times New Roman&quot;" size="13px" weight="400" font-style="" opacity="1" y="49.05" transform="rotate(0)"><tspan id="SvgjsTspan1066" dy="16" x="10"><tspan id="SvgjsTspan1067" style="text-decoration:;">+ createTire():ITire</tspan></tspan><tspan id="SvgjsTspan1068" dy="16" x="10"><tspan id="SvgjsTspan1069" style="text-decoration:;">+ createEngine():IEngine</tspan></tspan><tspan id="SvgjsTspan1070" dy="16" x="10"><tspan id="SvgjsTspan1071" style="text-decoration:;">+ createBrake():IBrake</tspan></tspan></text></g></g><g id="SvgjsG1072" transform="translate(431.25,330.75)"><path id="SvgjsPath1073" d="M 0 4Q 0 0 4 0L 236 0Q 240 0 240 4L 240 116Q 240 120 236 120L 4 120Q 0 120 0 116Z" stroke="rgba(50,50,50,1)" stroke-width="1" fill-opacity="1" fill="#ffffff"></path><path id="SvgjsPath1074" d="M 0 32L 240 32" stroke="rgba(50,50,50,1)" stroke-width="1" fill="none"></path><path id="SvgjsPath1075" d="M 0 0L 240 0L 240 120L 0 120Z" stroke="none" fill="none"></path><g id="SvgjsG1076"><text id="SvgjsText1077" font-family="&quot;Times New Roman&quot;" text-anchor="middle" font-size="13px" width="220px" fill="#323232" font-weight="700" align="middle" anchor="middle" family="&quot;Times New Roman&quot;" size="13px" weight="700" font-style="" opacity="1" y="-1.95" transform="rotate(0)"><tspan id="SvgjsTspan1078" dy="16" x="120"><tspan id="SvgjsTspan1079" style="text-decoration:;">&lt;&lt;abstract&gt;&gt;</tspan></tspan><tspan id="SvgjsTspan1080" dy="16" x="120"><tspan id="SvgjsTspan1081" style="text-decoration:;">CarFactory</tspan></tspan></text></g><g id="SvgjsG1082"><text id="SvgjsText1083" font-family="&quot;Times New Roman&quot;" text-anchor="start" font-size="13px" width="220px" fill="#323232" font-weight="400" align="middle" anchor="start" family="&quot;Times New Roman&quot;" size="13px" weight="400" font-style="" opacity="1" y="50.05" transform="rotate(0)"><tspan id="SvgjsTspan1084" dy="16" x="10"><tspan id="SvgjsTspan1085" style="text-decoration:;">+ createTire():ITire</tspan></tspan><tspan id="SvgjsTspan1086" dy="16" x="10"><tspan id="SvgjsTspan1087" style="text-decoration:;">+ createEngine():IEngine</tspan></tspan><tspan id="SvgjsTspan1088" dy="16" x="10"><tspan id="SvgjsTspan1089" style="text-decoration:;">+ createBrake():IBrake</tspan></tspan></text></g></g><g id="SvgjsG1090" transform="translate(116.25,60)"><path id="SvgjsPath1091" d="M 0 4Q 0 0 4 0L 146 0Q 150 0 150 4L 150 71Q 150 75 146 75L 4 75Q 0 75 0 71Z" stroke="rgba(50,50,50,1)" stroke-width="1" fill-opacity="1" fill="#ffffff"></path><path id="SvgjsPath1092" d="M 0 32L 150 32" stroke="rgba(50,50,50,1)" stroke-width="1" fill="none"></path><path id="SvgjsPath1093" d="M 0 0L 150 0L 150 75L 0 75Z" stroke="none" fill="none"></path><g id="SvgjsG1094"><text id="SvgjsText1095" font-family="&quot;Times New Roman&quot;" text-anchor="middle" font-size="13px" width="130px" fill="#323232" font-weight="700" align="middle" anchor="middle" family="&quot;Times New Roman&quot;" size="13px" weight="700" font-style="" opacity="1" y="-1.95" transform="rotate(0)"><tspan id="SvgjsTspan1096" dy="16" x="75"><tspan id="SvgjsTspan1097" style="text-decoration:;">&lt;&lt;interface&gt;&gt;</tspan></tspan><tspan id="SvgjsTspan1098" dy="16" x="75"><tspan id="SvgjsTspan1099" style="text-decoration:;">ITire</tspan></tspan></text></g><g id="SvgjsG1100"><text id="SvgjsText1101" font-family="&quot;Times New Roman&quot;" text-anchor="start" font-size="13px" width="130px" fill="#323232" font-weight="400" align="middle" anchor="start" family="&quot;Times New Roman&quot;" size="13px" weight="400" font-style="" opacity="1" y="43.55" transform="rotate(0)"><tspan id="SvgjsTspan1102" dy="16" x="10"><tspan id="SvgjsTspan1103" style="text-decoration:;">+ tire():void</tspan></tspan></text></g></g><g id="SvgjsG1104" transform="translate(476.25,65.1875)"><path id="SvgjsPath1105" d="M 0 4Q 0 0 4 0L 146 0Q 150 0 150 4L 150 71Q 150 75 146 75L 4 75Q 0 75 0 71Z" stroke="rgba(50,50,50,1)" stroke-width="1" fill-opacity="1" fill="#ffffff"></path><path id="SvgjsPath1106" d="M 0 32L 150 32" stroke="rgba(50,50,50,1)" stroke-width="1" fill="none"></path><path id="SvgjsPath1107" d="M 0 0L 150 0L 150 75L 0 75Z" stroke="none" fill="none"></path><g id="SvgjsG1108"><text id="SvgjsText1109" font-family="&quot;Times New Roman&quot;" text-anchor="middle" font-size="13px" width="130px" fill="#323232" font-weight="700" align="middle" anchor="middle" family="&quot;Times New Roman&quot;" size="13px" weight="700" font-style="" opacity="1" y="-1.95" transform="rotate(0)"><tspan id="SvgjsTspan1110" dy="16" x="75"><tspan id="SvgjsTspan1111" style="text-decoration:;">&lt;&lt;interface&gt;&gt;</tspan></tspan><tspan id="SvgjsTspan1112" dy="16" x="75"><tspan id="SvgjsTspan1113" style="text-decoration:;">IEngine</tspan></tspan></text></g><g id="SvgjsG1114"><text id="SvgjsText1115" font-family="&quot;Times New Roman&quot;" text-anchor="start" font-size="13px" width="130px" fill="#323232" font-weight="400" align="middle" anchor="start" family="&quot;Times New Roman&quot;" size="13px" weight="400" font-style="" opacity="1" y="43.55" transform="rotate(0)"><tspan id="SvgjsTspan1116" dy="16" x="10"><tspan id="SvgjsTspan1117" style="text-decoration:;">+ engine():void</tspan></tspan></text></g></g><g id="SvgjsG1118" transform="translate(745.75,196.5)"><path id="SvgjsPath1119" d="M 0 4Q 0 0 4 0L 146 0Q 150 0 150 4L 150 71Q 150 75 146 75L 4 75Q 0 75 0 71Z" stroke="rgba(50,50,50,1)" stroke-width="1" fill-opacity="1" fill="#ffffff"></path><path id="SvgjsPath1120" d="M 0 30L 150 30" stroke="rgba(50,50,50,1)" stroke-width="1" fill="none"></path><path id="SvgjsPath1121" d="M 0 0L 150 0L 150 75L 0 75Z" stroke="none" fill="none"></path><g id="SvgjsG1122"><text id="SvgjsText1123" font-family="&quot;Times New Roman&quot;" text-anchor="middle" font-size="13px" width="130px" fill="#323232" font-weight="700" align="middle" anchor="middle" family="&quot;Times New Roman&quot;" size="13px" weight="700" font-style="" opacity="1" y="5.05" transform="rotate(0)"><tspan id="SvgjsTspan1124" dy="16" x="75"><tspan id="SvgjsTspan1125" style="text-decoration:;">NormalBrake</tspan></tspan></text></g><g id="SvgjsG1126"><text id="SvgjsText1127" font-family="&quot;Times New Roman&quot;" text-anchor="start" font-size="13px" width="130px" fill="#323232" font-weight="400" align="middle" anchor="start" family="&quot;Times New Roman&quot;" size="13px" weight="400" font-style="" opacity="1" y="42.55" transform="rotate(0)"><tspan id="SvgjsTspan1128" dy="16" x="10"><tspan id="SvgjsTspan1129" style="text-decoration:;">+ brake():void</tspan></tspan></text></g></g><g id="SvgjsG1130" transform="translate(926.5,196.5)"><path id="SvgjsPath1131" d="M 0 4Q 0 0 4 0L 146 0Q 150 0 150 4L 150 71Q 150 75 146 75L 4 75Q 0 75 0 71Z" stroke="rgba(50,50,50,1)" stroke-width="1" fill-opacity="1" fill="#ffffff"></path><path id="SvgjsPath1132" d="M 0 30L 150 30" stroke="rgba(50,50,50,1)" stroke-width="1" fill="none"></path><path id="SvgjsPath1133" d="M 0 0L 150 0L 150 75L 0 75Z" stroke="none" fill="none"></path><g id="SvgjsG1134"><text id="SvgjsText1135" font-family="&quot;Times New Roman&quot;" text-anchor="middle" font-size="13px" width="130px" fill="#323232" font-weight="700" align="middle" anchor="middle" family="&quot;Times New Roman&quot;" size="13px" weight="700" font-style="" opacity="1" y="5.05" transform="rotate(0)"><tspan id="SvgjsTspan1136" dy="16" x="75"><tspan id="SvgjsTspan1137" style="text-decoration:;">SeniorBrake</tspan></tspan></text></g><g id="SvgjsG1138"><text id="SvgjsText1139" font-family="&quot;Times New Roman&quot;" text-anchor="start" font-size="13px" width="130px" fill="#323232" font-weight="400" align="middle" anchor="start" family="&quot;Times New Roman&quot;" size="13px" weight="400" font-style="" opacity="1" y="42.55" transform="rotate(0)"><tspan id="SvgjsTspan1140" dy="16" x="10"><tspan id="SvgjsTspan1141" style="text-decoration:;">+ brake():void</tspan></tspan></text></g></g><g id="SvgjsG1142" transform="translate(835.75,65.1875)"><path id="SvgjsPath1143" d="M 0 4Q 0 0 4 0L 146 0Q 150 0 150 4L 150 71Q 150 75 146 75L 4 75Q 0 75 0 71Z" stroke="rgba(50,50,50,1)" stroke-width="1" fill-opacity="1" fill="#ffffff"></path><path id="SvgjsPath1144" d="M 0 32L 150 32" stroke="rgba(50,50,50,1)" stroke-width="1" fill="none"></path><path id="SvgjsPath1145" d="M 0 0L 150 0L 150 75L 0 75Z" stroke="none" fill="none"></path><g id="SvgjsG1146"><text id="SvgjsText1147" font-family="&quot;Times New Roman&quot;" text-anchor="middle" font-size="13px" width="130px" fill="#323232" font-weight="700" align="middle" anchor="middle" family="&quot;Times New Roman&quot;" size="13px" weight="700" font-style="" opacity="1" y="-1.95" transform="rotate(0)"><tspan id="SvgjsTspan1148" dy="16" x="75"><tspan id="SvgjsTspan1149" style="text-decoration:;">&lt;&lt;interface&gt;&gt;</tspan></tspan><tspan id="SvgjsTspan1150" dy="16" x="75"><tspan id="SvgjsTspan1151" style="text-decoration:;">IBrake</tspan></tspan></text></g><g id="SvgjsG1152"><text id="SvgjsText1153" font-family="&quot;Times New Roman&quot;" text-anchor="start" font-size="13px" width="130px" fill="#323232" font-weight="400" align="middle" anchor="start" family="&quot;Times New Roman&quot;" size="13px" weight="400" font-style="" opacity="1" y="43.55" transform="rotate(0)"><tspan id="SvgjsTspan1154" dy="16" x="10"><tspan id="SvgjsTspan1155" style="text-decoration:;">+ brake():void</tspan></tspan></text></g></g><g id="SvgjsG1156" transform="translate(116.25,25)"><path id="SvgjsPath1157" d="M 0 0L 150 0L 150 35L 0 35Z" stroke="none" fill="none"></path><g id="SvgjsG1158"><text id="SvgjsText1159" font-family="微软雅黑" text-anchor="middle" font-size="13px" width="150px" fill="#323232" font-weight="400" align="middle" anchor="middle" family="微软雅黑" size="13px" weight="400" font-style="" opacity="1" y="7.55" transform="rotate(0)"><tspan id="SvgjsTspan1160" dy="16" x="75"><tspan id="SvgjsTspan1161" style="text-decoration:;">轮胎相关类</tspan></tspan></text></g></g><g id="SvgjsG1162" transform="translate(476.25,30.1875)"><path id="SvgjsPath1163" d="M 0 0L 150 0L 150 35L 0 35Z" stroke="none" fill="none"></path><g id="SvgjsG1164"><text id="SvgjsText1165" font-family="微软雅黑" text-anchor="middle" font-size="13px" width="150px" fill="#323232" font-weight="400" align="middle" anchor="middle" family="微软雅黑" size="13px" weight="400" font-style="" opacity="1" y="7.55" transform="rotate(0)"><tspan id="SvgjsTspan1166" dy="16" x="75"><tspan id="SvgjsTspan1167" style="text-decoration:;">发动机相关类</tspan></tspan></text></g></g><g id="SvgjsG1168" transform="translate(835.75,30.1875)"><path id="SvgjsPath1169" d="M 0 0L 150 0L 150 35L 0 35Z" stroke="none" fill="none"></path><g id="SvgjsG1170"><text id="SvgjsText1171" font-family="微软雅黑" text-anchor="middle" font-size="13px" width="150px" fill="#323232" font-weight="400" align="middle" anchor="middle" family="微软雅黑" size="13px" weight="400" font-style="" opacity="1" y="7.55" transform="rotate(0)"><tspan id="SvgjsTspan1172" dy="16" x="75"><tspan id="SvgjsTspan1173" style="text-decoration:;">制动系统相关类</tspan></tspan></text></g></g><g id="SvgjsG1174"><path id="SvgjsPath1175" d="M99.99999999999994 196.5L99.99999999999994 165.75L191.25 165.75L191.25 135" stroke="#323232" stroke-width="1" fill="none" marker-end="url(#SvgjsMarker1176)"></path></g><g id="SvgjsG1178"><path id="SvgjsPath1179" d="M281.25 196.5L281.25 165.75L191.25 165.75L191.25 135" stroke="#323232" stroke-width="1" fill="none" marker-end="url(#SvgjsMarker1180)"></path></g><g id="SvgjsG1182"><path id="SvgjsPath1183" d="M459.25 196.5L459.25 168.34375L551.25 168.34375L551.25 140.1875" stroke="#323232" stroke-width="1" fill="none" marker-end="url(#SvgjsMarker1184)"></path></g><g id="SvgjsG1186"><path id="SvgjsPath1187" d="M640 196.5L640 168.34375L551.25 168.34375L551.25 140.1875" stroke="#323232" stroke-width="1" fill="none" marker-end="url(#SvgjsMarker1188)"></path></g><g id="SvgjsG1190"><path id="SvgjsPath1191" d="M820.75 196.5L820.75 168.34375L910.75 168.34375L910.75 140.1875" stroke="#323232" stroke-width="1" fill="none" marker-end="url(#SvgjsMarker1192)"></path></g><g id="SvgjsG1194"><path id="SvgjsPath1195" d="M1001.5 196.5L1001.5 168.34375L910.75 168.34375L910.75 140.1875" stroke="#323232" stroke-width="1" fill="none" marker-end="url(#SvgjsMarker1196)"></path></g><g id="SvgjsG1198" transform="translate(790.75,512.5)"><path id="SvgjsPath1199" d="M 0 4Q 0 0 4 0L 236 0Q 240 0 240 4L 240 116Q 240 120 236 120L 4 120Q 0 120 0 116Z" stroke="rgba(50,50,50,1)" stroke-width="1" fill-opacity="1" fill="#ffffff"></path><path id="SvgjsPath1200" d="M 0 30L 240 30" stroke="rgba(50,50,50,1)" stroke-width="1" fill="none"></path><path id="SvgjsPath1201" d="M 0 0L 240 0L 240 120L 0 120Z" stroke="none" fill="none"></path><g id="SvgjsG1202"><text id="SvgjsText1203" font-family="&quot;Times New Roman&quot;" text-anchor="middle" font-size="13px" width="220px" fill="#323232" font-weight="700" align="middle" anchor="middle" family="&quot;Times New Roman&quot;" size="13px" weight="700" font-style="" opacity="1" y="5.05" transform="rotate(0)"><tspan id="SvgjsTspan1204" dy="16" x="120"><tspan id="SvgjsTspan1205" style="text-decoration:;">Q7Factory</tspan></tspan></text></g><g id="SvgjsG1206"><text id="SvgjsText1207" font-family="&quot;Times New Roman&quot;" text-anchor="start" font-size="13px" width="220px" fill="#323232" font-weight="400" align="middle" anchor="start" family="&quot;Times New Roman&quot;" size="13px" weight="400" font-style="" opacity="1" y="49.05" transform="rotate(0)"><tspan id="SvgjsTspan1208" dy="16" x="10"><tspan id="SvgjsTspan1209" style="text-decoration:;">+ createTire():ITire</tspan></tspan><tspan id="SvgjsTspan1210" dy="16" x="10"><tspan id="SvgjsTspan1211" style="text-decoration:;">+ createEngine():IEngine</tspan></tspan><tspan id="SvgjsTspan1212" dy="16" x="10"><tspan id="SvgjsTspan1213" style="text-decoration:;">+ createBrake():IBrake</tspan></tspan></text></g></g><g id="SvgjsG1214"><path id="SvgjsPath1215" d="M311.25 572.5L551.25 572.5L551.25 450.75" stroke="#323232" stroke-width="1" fill="none" marker-end="url(#SvgjsMarker1216)"></path></g><g id="SvgjsG1218"><path id="SvgjsPath1219" d="M790.75 572.5L551.25 572.5L551.25 450.75" stroke="#323232" stroke-width="1" fill="none" marker-end="url(#SvgjsMarker1220)"></path></g><g id="SvgjsG1222"><path id="SvgjsPath1223" d="M191.25 512.5L191.25 303L99.99999999999994 303L99.99999999999994 271.5" stroke-dasharray="8,5" stroke="#004c99" stroke-width="1" fill="none" marker-end="url(#SvgjsMarker1224)"></path></g><g id="SvgjsG1226"><path id="SvgjsPath1227" d="M191.25 512.5L191.25 303L459.25 303L459.25 271.5" stroke-dasharray="8,5" stroke="#004c99" stroke-width="1" fill="none" marker-end="url(#SvgjsMarker1228)"></path></g><g id="SvgjsG1230"><path id="SvgjsPath1231" d="M191.25 512.5L191.25 303L820.75 303L820.75 271.5" stroke-dasharray="8,5" stroke="#004c99" stroke-width="1" fill="none" marker-end="url(#SvgjsMarker1232)"></path></g><g id="SvgjsG1234"><path id="SvgjsPath1235" d="M910.75 512.5L910.75 317L281.25 317L281.25 271.5" stroke-dasharray="8,5" stroke="#4d9900" stroke-width="1" fill="none" marker-end="url(#SvgjsMarker1236)"></path></g><g id="SvgjsG1238"><path id="SvgjsPath1239" d="M910.75 512.5L910.75 317L640 317L640 271.5" stroke-dasharray="8,5" stroke="#4d9900" stroke-width="1" fill="none" marker-end="url(#SvgjsMarker1240)"></path></g><g id="SvgjsG1242"><path id="SvgjsPath1243" d="M910.75 512.5L910.75 317L1001.5 317L1001.5 271.5" stroke-dasharray="8,5" stroke="#4d9900" stroke-width="1" fill="none" marker-end="url(#SvgjsMarker1244)"></path></g></svg>