<svg id="SvgjsSvg1006" width="642" height="331" xmlns="http://www.w3.org/2000/svg" version="1.1" xmlns:xlink="http://www.w3.org/1999/xlink" xmlns:svgjs="http://svgjs.com/svgjs"><defs id="SvgjsDefs1007"><marker id="SvgjsMarker1066" markerWidth="16" markerHeight="16" refX="11" refY="8" viewBox="0 0 16 16" orient="auto" markerUnits="userSpaceOnUse" stroke-dasharray="0,0"><path id="SvgjsPath1067" d="M0,0 L10,8 L0,16" fill="none" stroke="#323232" stroke-width="1"></path></marker><marker id="SvgjsMarker1070" markerWidth="14" markerHeight="12" refX="16" refY="6" viewBox="0 0 14 12" orient="auto" markerUnits="userSpaceOnUse" stroke-dasharray="0,0"><path id="SvgjsPath1071" d="M1,1 L14,6 L1,11L1,1" fill="#ffffff" stroke="#323232" stroke-width="1"></path></marker><marker id="SvgjsMarker1074" markerWidth="14" markerHeight="12" refX="16" refY="6" viewBox="0 0 14 12" orient="auto" markerUnits="userSpaceOnUse" stroke-dasharray="0,0"><path id="SvgjsPath1075" d="M1,1 L14,6 L1,11L1,1" fill="#ffffff" stroke="#323232" stroke-width="1"></path></marker></defs><g id="SvgjsG1008" transform="translate(25,25)"><path id="SvgjsPath1009" d="M 0 4Q 0 0 4 0L 246 0Q 250 0 250 4L 250 106Q 250 110 246 110L 4 110Q 0 110 0 106Z" stroke="rgba(50,50,50,1)" stroke-width="1" fill-opacity="1" fill="#ffffff"></path><path id="SvgjsPath1010" d="M 0 32L 250 32" stroke="rgba(50,50,50,1)" stroke-width="1" fill="none"></path><path id="SvgjsPath1011" d="M 0 0L 250 0L 250 110L 0 110Z" stroke="none" fill="none"></path><g id="SvgjsG1012"><text id="SvgjsText1013" font-family="&quot;Times New Roman&quot;" text-anchor="middle" font-size="13px" width="230px" fill="#323232" font-weight="700" align="middle" anchor="middle" family="&quot;Times New Roman&quot;" size="13px" weight="700" font-style="" opacity="1" y="-1.95" transform="rotate(0)"><tspan id="SvgjsTspan1014" dy="16" x="125"><tspan id="SvgjsTspan1015" style="text-decoration:;">&lt;&lt;interface&gt;&gt;</tspan></tspan><tspan id="SvgjsTspan1016" dy="16" x="125"><tspan id="SvgjsTspan1017" style="text-decoration:;">ILawsuit</tspan></tspan></text></g><g id="SvgjsG1018"><text id="SvgjsText1019" font-family="&quot;Times New Roman&quot;" text-anchor="start" font-size="13px" width="230px" fill="#323232" font-weight="400" align="middle" anchor="start" family="&quot;Times New Roman&quot;" size="13px" weight="400" font-style="" opacity="1" y="37.05" transform="rotate(0)"><tspan id="SvgjsTspan1020" dy="16" x="10"><tspan id="SvgjsTspan1021" style="text-decoration:;">+ submit():void</tspan></tspan><tspan id="SvgjsTspan1022" dy="16" x="10"><tspan id="SvgjsTspan1023" style="text-decoration:;">+ burden():void</tspan></tspan><tspan id="SvgjsTspan1024" dy="16" x="10"><tspan id="SvgjsTspan1025" style="text-decoration:;">+ defend():void</tspan></tspan><tspan id="SvgjsTspan1026" dy="16" x="10"><tspan id="SvgjsTspan1027" style="text-decoration:;">+ finish():void</tspan></tspan></text></g></g><g id="SvgjsG1028" transform="translate(25,196)"><path id="SvgjsPath1029" d="M 0 4Q 0 0 4 0L 246 0Q 250 0 250 4L 250 106Q 250 110 246 110L 4 110Q 0 110 0 106Z" stroke="rgba(50,50,50,1)" stroke-width="1" fill-opacity="1" fill="#ffffff"></path><path id="SvgjsPath1030" d="M 0 30L 250 30" stroke="rgba(50,50,50,1)" stroke-width="1" fill="none"></path><path id="SvgjsPath1031" d="M 0 0L 250 0L 250 110L 0 110Z" stroke="none" fill="none"></path><g id="SvgjsG1032"><text id="SvgjsText1033" font-family="&quot;Times New Roman&quot;" text-anchor="middle" font-size="13px" width="230px" fill="#323232" font-weight="700" align="middle" anchor="middle" family="&quot;Times New Roman&quot;" size="13px" weight="700" font-style="" opacity="1" y="5.05" transform="rotate(0)"><tspan id="SvgjsTspan1034" dy="16" x="125"><tspan id="SvgjsTspan1035" style="text-decoration:;">XiaoMin</tspan></tspan></text></g><g id="SvgjsG1036"><text id="SvgjsText1037" font-family="&quot;Times New Roman&quot;" text-anchor="start" font-size="13px" width="230px" fill="#323232" font-weight="400" align="middle" anchor="start" family="&quot;Times New Roman&quot;" size="13px" weight="400" font-style="" opacity="1" y="36.05" transform="rotate(0)"><tspan id="SvgjsTspan1038" dy="16" x="10"><tspan id="SvgjsTspan1039" style="text-decoration:;">+ submit():void</tspan></tspan><tspan id="SvgjsTspan1040" dy="16" x="10"><tspan id="SvgjsTspan1041" style="text-decoration:;">+ burden():void</tspan></tspan><tspan id="SvgjsTspan1042" dy="16" x="10"><tspan id="SvgjsTspan1043" style="text-decoration:;">+ defend():void</tspan></tspan><tspan id="SvgjsTspan1044" dy="16" x="10"><tspan id="SvgjsTspan1045" style="text-decoration:;">+ finish():void</tspan></tspan></text></g></g><g id="SvgjsG1046" transform="translate(367,197)"><path id="SvgjsPath1047" d="M 0 4Q 0 0 4 0L 246 0Q 250 0 250 4L 250 104Q 250 108 246 108L 4 108Q 0 108 0 104Z" stroke="rgba(50,50,50,1)" stroke-width="1" fill-opacity="1" fill="#ffffff"></path><path id="SvgjsPath1048" d="M 0 30L 250 30M 0 60L 250 60" stroke="rgba(50,50,50,1)" stroke-width="1" fill="none"></path><path id="SvgjsPath1049" d="M 0 0L 250 0L 250 108L 0 108Z" stroke="none" fill="none"></path><g id="SvgjsG1050"><text id="SvgjsText1051" font-family="&quot;Times New Roman&quot;" text-anchor="middle" font-size="13px" width="230px" fill="#323232" font-weight="700" align="middle" anchor="middle" family="&quot;Times New Roman&quot;" size="13px" weight="700" font-style="" opacity="1" y="5.05" transform="rotate(0)"><tspan id="SvgjsTspan1052" dy="16" x="125"><tspan id="SvgjsTspan1053" style="text-decoration:;">DynamicProxy</tspan></tspan></text></g><g id="SvgjsG1054"><text id="SvgjsText1055" font-family="&quot;Times New Roman&quot;" text-anchor="start" font-size="13px" width="230px" fill="#323232" font-weight="400" align="middle" anchor="start" family="&quot;Times New Roman&quot;" size="13px" weight="400" font-style="" opacity="1" y="35.05" transform="rotate(0)"><tspan id="SvgjsTspan1056" dy="16" x="10"><tspan id="SvgjsTspan1057" style="text-decoration:;">+ obj:Object</tspan></tspan></text></g><g id="SvgjsG1058"><text id="SvgjsText1059" font-family="&quot;Times New Roman&quot;" text-anchor="start" font-size="13px" width="230px" fill="#323232" font-weight="400" align="middle" anchor="start" family="&quot;Times New Roman&quot;" size="13px" weight="400" font-style="" opacity="1" y="66.05" transform="rotate(0)"><tspan id="SvgjsTspan1060" dy="16" x="10"><tspan id="SvgjsTspan1061" style="text-decoration:;">+ Dynamic(Object)</tspan></tspan><tspan id="SvgjsTspan1062" dy="16" x="10"><tspan id="SvgjsTspan1063" style="text-decoration:;">+ invoke(Object, Method, Object[]):Object</tspan></tspan></text></g></g><g id="SvgjsG1064"><path id="SvgjsPath1065" d="M275 251L321 251L321 251L367 251" stroke-dasharray="8,5" stroke="#323232" stroke-width="1" fill="none" marker-end="url(#SvgjsMarker1066)"></path></g><g id="SvgjsG1068"><path id="SvgjsPath1069" d="M150 196L150 165.5L150 165.5L150 135" stroke-dasharray="8,5" stroke="#323232" stroke-width="1" fill="none" marker-end="url(#SvgjsMarker1070)"></path></g><g id="SvgjsG1072"><path id="SvgjsPath1073" d="M492 197L492 166L492 166L492 135" stroke-dasharray="8,5" stroke="#323232" stroke-width="1" fill="none" marker-end="url(#SvgjsMarker1074)"></path></g><g id="SvgjsG1076" transform="translate(367,25)"><path id="SvgjsPath1077" d="M 0 4Q 0 0 4 0L 246 0Q 250 0 250 4L 250 106Q 250 110 246 110L 4 110Q 0 110 0 106Z" stroke="rgba(50,50,50,1)" stroke-width="1" fill-opacity="1" fill="#ffffff"></path><path id="SvgjsPath1078" d="M 0 32L 250 32" stroke="rgba(50,50,50,1)" stroke-width="1" fill="none"></path><path id="SvgjsPath1079" d="M 0 0L 250 0L 250 110L 0 110Z" stroke="none" fill="none"></path><g id="SvgjsG1080"><text id="SvgjsText1081" font-family="&quot;Times New Roman&quot;" text-anchor="middle" font-size="13px" width="230px" fill="#323232" font-weight="700" align="middle" anchor="middle" family="&quot;Times New Roman&quot;" size="13px" weight="700" font-style="" opacity="1" y="-1.95" transform="rotate(0)"><tspan id="SvgjsTspan1082" dy="16" x="125"><tspan id="SvgjsTspan1083" style="text-decoration:;">&lt;&lt;interface&gt;&gt;</tspan></tspan><tspan id="SvgjsTspan1084" dy="16" x="125"><tspan id="SvgjsTspan1085" style="text-decoration:;">InvocationHandler</tspan></tspan></text></g><g id="SvgjsG1086"><text id="SvgjsText1087" font-family="&quot;Times New Roman&quot;" text-anchor="start" font-size="13px" width="230px" fill="#323232" font-weight="400" align="middle" anchor="start" family="&quot;Times New Roman&quot;" size="13px" weight="400" font-style="" opacity="1" y="61.05" transform="rotate(0)"><tspan id="SvgjsTspan1088" dy="16" x="10"><tspan id="SvgjsTspan1089" style="text-decoration:;"> </tspan></tspan></text></g></g></svg>