<svg id="SvgjsSvg1006" width="620" height="711.5" xmlns="http://www.w3.org/2000/svg" version="1.1" xmlns:xlink="http://www.w3.org/1999/xlink" xmlns:svgjs="http://svgjs.com/svgjs"><defs id="SvgjsDefs1007"><marker id="SvgjsMarker1016" markerWidth="16" markerHeight="16" refX="11" refY="8" viewBox="0 0 16 16" orient="auto" markerUnits="userSpaceOnUse" stroke-dasharray="0,0"><path id="SvgjsPath1017" d="M0,0 L10,8 L0,16" fill="none" stroke="#323232" stroke-width="1"></path></marker><marker id="SvgjsMarker1100" markerWidth="14" markerHeight="12" refX="16" refY="6" viewBox="0 0 14 12" orient="auto" markerUnits="userSpaceOnUse" stroke-dasharray="0,0"><path id="SvgjsPath1101" d="M1,1 L14,6 L1,11L1,1" fill="#ffffff" stroke="#323232" stroke-width="1"></path></marker><marker id="SvgjsMarker1104" markerWidth="14" markerHeight="12" refX="16" refY="6" viewBox="0 0 14 12" orient="auto" markerUnits="userSpaceOnUse" stroke-dasharray="0,0"><path id="SvgjsPath1105" d="M1,1 L14,6 L1,11L1,1" fill="#ffffff" stroke="#323232" stroke-width="1"></path></marker><marker id="SvgjsMarker1108" markerWidth="20" markerHeight="12" refX="20" refY="6" viewBox="0 0 20 12" orient="auto" markerUnits="userSpaceOnUse" stroke-dasharray="0,0"><path id="SvgjsPath1109" d="M2,6 L10,2 L18,6 L10,10L2,6" fill="#ffffff" stroke="#323232" stroke-width="1"></path></marker><marker id="SvgjsMarker1112" markerWidth="14" markerHeight="12" refX="16" refY="6" viewBox="0 0 14 12" orient="auto" markerUnits="userSpaceOnUse" stroke-dasharray="0,0"><path id="SvgjsPath1113" d="M1,1 L14,6 L1,11L1,1" fill="#ffffff" stroke="#323232" stroke-width="1"></path></marker></defs><g id="SvgjsG1008" transform="translate(355,25)"><path id="SvgjsPath1009" d="M 0 4Q 0 0 4 0L 236 0Q 240 0 240 4L 240 116Q 240 120 236 120L 4 120Q 0 120 0 116Z" stroke="rgba(50,50,50,1)" stroke-width="1" fill-opacity="1" fill="#ffffff"></path><g id="SvgjsG1010"><text id="SvgjsText1011" font-family="&quot;Times New Roman&quot;" text-anchor="middle" font-size="13px" width="220px" fill="#323232" font-weight="700" align="middle" anchor="middle" family="&quot;Times New Roman&quot;" size="13px" weight="700" font-style="" opacity="1" y="50.05" transform="rotate(0)"><tspan id="SvgjsTspan1012" dy="16" x="120"><tspan id="SvgjsTspan1013" style="text-decoration:;">Client</tspan></tspan></text></g></g><g id="SvgjsG1014"><path id="SvgjsPath1015" d="M475 145L475 175.25L475 175.25L475 205.5" stroke-dasharray="8,5" stroke="#323232" stroke-width="1" fill="none" marker-end="url(#SvgjsMarker1016)"></path></g><g id="SvgjsG1018" transform="translate(355,205.5)"><path id="SvgjsPath1019" d="M 0 4Q 0 0 4 0L 236 0Q 240 0 240 4L 240 116Q 240 120 236 120L 4 120Q 0 120 0 116Z" stroke="rgba(50,50,50,1)" stroke-width="1" fill-opacity="1" fill="#ffffff"></path><path id="SvgjsPath1020" d="M 0 32L 240 32M 0 71L 240 71" stroke="rgba(50,50,50,1)" stroke-width="1" fill="none"></path><path id="SvgjsPath1021" d="M 0 0L 240 0L 240 120L 0 120Z" stroke="none" fill="none"></path><g id="SvgjsG1022"><text id="SvgjsText1023" font-family="&quot;Times New Roman&quot;" text-anchor="middle" font-size="13px" width="220px" fill="#323232" font-weight="700" align="middle" anchor="middle" family="&quot;Times New Roman&quot;" size="13px" weight="700" font-style="" opacity="1" y="-1.95" transform="rotate(0)"><tspan id="SvgjsTspan1024" dy="16" x="120"><tspan id="SvgjsTspan1025" style="text-decoration:;">&lt;&lt;abstract&gt;&gt;</tspan></tspan><tspan id="SvgjsTspan1026" dy="16" x="120"><tspan id="SvgjsTspan1027" style="text-decoration:;">Abstraction</tspan></tspan></text></g><g id="SvgjsG1028"><text id="SvgjsText1029" font-family="&quot;Times New Roman&quot;" text-anchor="start" font-size="13px" width="220px" fill="#323232" font-weight="400" align="middle" anchor="start" family="&quot;Times New Roman&quot;" size="13px" weight="400" font-style="" opacity="1" y="41.55" transform="rotate(0)"><tspan id="SvgjsTspan1030" dy="16" x="10"><tspan id="SvgjsTspan1031" style="text-decoration:;">- mImplementor:Implementor</tspan></tspan></text></g><g id="SvgjsG1032"><text id="SvgjsText1033" font-family="&quot;Times New Roman&quot;" text-anchor="start" font-size="13px" width="220px" fill="#323232" font-weight="400" align="middle" anchor="start" family="&quot;Times New Roman&quot;" size="13px" weight="400" font-style="" opacity="1" y="64.55" transform="rotate(0)"><tspan id="SvgjsTspan1034" dy="16" x="10"><tspan id="SvgjsTspan1035" style="text-decoration:;"> </tspan></tspan><tspan id="SvgjsTspan1036" dy="16" x="10"><tspan id="SvgjsTspan1037" style="text-decoration:;">+ Abstraction(Implementor)</tspan></tspan><tspan id="SvgjsTspan1038" dy="16" x="10"><tspan id="SvgjsTspan1039" style="text-decoration:;">+ operation():void</tspan></tspan></text></g></g><g id="SvgjsG1040" transform="translate(25,325.5)"><path id="SvgjsPath1041" d="M 0 0L 240 0L 240 35L 0 35Z" stroke="none" fill="none"></path><g id="SvgjsG1042"><text id="SvgjsText1043" font-family="微软雅黑" text-anchor="middle" font-size="13px" width="240px" fill="#323232" font-weight="400" align="middle" anchor="middle" family="微软雅黑" size="13px" weight="400" font-style="" opacity="1" y="7.55" transform="rotate(0)"><tspan id="SvgjsTspan1044" dy="16" x="120"><tspan id="SvgjsTspan1045" style="text-decoration:;">优化的抽象部分</tspan></tspan></text></g></g><g id="SvgjsG1046" transform="translate(25,205.5)"><path id="SvgjsPath1047" d="M 0 4Q 0 0 4 0L 236 0Q 240 0 240 4L 240 116Q 240 120 236 120L 4 120Q 0 120 0 116Z" stroke="rgba(50,50,50,1)" stroke-width="1" fill-opacity="1" fill="#ffffff"></path><path id="SvgjsPath1048" d="M 0 30L 240 30" stroke="rgba(50,50,50,1)" stroke-width="1" fill="none"></path><path id="SvgjsPath1049" d="M 0 0L 240 0L 240 120L 0 120Z" stroke="none" fill="none"></path><g id="SvgjsG1050"><text id="SvgjsText1051" font-family="&quot;Times New Roman&quot;" text-anchor="middle" font-size="13px" width="220px" fill="#323232" font-weight="700" align="middle" anchor="middle" family="&quot;Times New Roman&quot;" size="13px" weight="700" font-style="" opacity="1" y="5.05" transform="rotate(0)"><tspan id="SvgjsTspan1052" dy="16" x="120"><tspan id="SvgjsTspan1053" style="text-decoration:;">RefinedAbstraction</tspan></tspan></text></g><g id="SvgjsG1054"><text id="SvgjsText1055" font-family="&quot;Times New Roman&quot;" text-anchor="start" font-size="13px" width="220px" fill="#323232" font-weight="400" align="middle" anchor="start" family="&quot;Times New Roman&quot;" size="13px" weight="400" font-style="" opacity="1" y="57.05" transform="rotate(0)"><tspan id="SvgjsTspan1056" dy="16" x="10"><tspan id="SvgjsTspan1057" style="text-decoration:;">+ RefinedAbstraction(Implementor)</tspan></tspan><tspan id="SvgjsTspan1058" dy="16" x="10"><tspan id="SvgjsTspan1059" style="text-decoration:;">+ refinedOperation():void</tspan></tspan></text></g></g><g id="SvgjsG1060" transform="translate(355,385.5)"><path id="SvgjsPath1061" d="M 0 4Q 0 0 4 0L 236 0Q 240 0 240 4L 240 116Q 240 120 236 120L 4 120Q 0 120 0 116Z" stroke="rgba(50,50,50,1)" stroke-width="1" fill-opacity="1" fill="#ffffff"></path><path id="SvgjsPath1062" d="M 0 32L 240 32" stroke="rgba(50,50,50,1)" stroke-width="1" fill="none"></path><path id="SvgjsPath1063" d="M 0 0L 240 0L 240 120L 0 120Z" stroke="none" fill="none"></path><g id="SvgjsG1064"><text id="SvgjsText1065" font-family="&quot;Times New Roman&quot;" text-anchor="middle" font-size="13px" width="220px" fill="#323232" font-weight="700" align="middle" anchor="middle" family="&quot;Times New Roman&quot;" size="13px" weight="700" font-style="" opacity="1" y="-1.95" transform="rotate(0)"><tspan id="SvgjsTspan1066" dy="16" x="120"><tspan id="SvgjsTspan1067" style="text-decoration:;">&lt;&lt;interface&gt;&gt;</tspan></tspan><tspan id="SvgjsTspan1068" dy="16" x="120"><tspan id="SvgjsTspan1069" style="text-decoration:;">Implementor</tspan></tspan></text></g><g id="SvgjsG1070"><text id="SvgjsText1071" font-family="&quot;Times New Roman&quot;" text-anchor="start" font-size="13px" width="220px" fill="#323232" font-weight="400" align="middle" anchor="start" family="&quot;Times New Roman&quot;" size="13px" weight="400" font-style="" opacity="1" y="66.05" transform="rotate(0)"><tspan id="SvgjsTspan1072" dy="16" x="10"><tspan id="SvgjsTspan1073" style="text-decoration:;">+ operationImpl():void</tspan></tspan></text></g></g><g id="SvgjsG1074" transform="translate(25,566.5)"><path id="SvgjsPath1075" d="M 0 4Q 0 0 4 0L 236 0Q 240 0 240 4L 240 116Q 240 120 236 120L 4 120Q 0 120 0 116Z" stroke="rgba(50,50,50,1)" stroke-width="1" fill-opacity="1" fill="#ffffff"></path><path id="SvgjsPath1076" d="M 0 30L 240 30" stroke="rgba(50,50,50,1)" stroke-width="1" fill="none"></path><path id="SvgjsPath1077" d="M 0 0L 240 0L 240 120L 0 120Z" stroke="none" fill="none"></path><g id="SvgjsG1078"><text id="SvgjsText1079" font-family="&quot;Times New Roman&quot;" text-anchor="middle" font-size="13px" width="220px" fill="#323232" font-weight="700" align="middle" anchor="middle" family="&quot;Times New Roman&quot;" size="13px" weight="700" font-style="" opacity="1" y="5.05" transform="rotate(0)"><tspan id="SvgjsTspan1080" dy="16" x="120"><tspan id="SvgjsTspan1081" style="text-decoration:;">ConcreteImplementorA</tspan></tspan></text></g><g id="SvgjsG1082"><text id="SvgjsText1083" font-family="&quot;Times New Roman&quot;" text-anchor="start" font-size="13px" width="220px" fill="#323232" font-weight="400" align="middle" anchor="start" family="&quot;Times New Roman&quot;" size="13px" weight="400" font-style="" opacity="1" y="65.05" transform="rotate(0)"><tspan id="SvgjsTspan1084" dy="16" x="10"><tspan id="SvgjsTspan1085" style="text-decoration:;">+ operationImpl():void</tspan></tspan></text></g></g><g id="SvgjsG1086" transform="translate(355,566.5)"><path id="SvgjsPath1087" d="M 0 4Q 0 0 4 0L 236 0Q 240 0 240 4L 240 116Q 240 120 236 120L 4 120Q 0 120 0 116Z" stroke="rgba(50,50,50,1)" stroke-width="1" fill-opacity="1" fill="#ffffff"></path><path id="SvgjsPath1088" d="M 0 30L 240 30" stroke="rgba(50,50,50,1)" stroke-width="1" fill="none"></path><path id="SvgjsPath1089" d="M 0 0L 240 0L 240 120L 0 120Z" stroke="none" fill="none"></path><g id="SvgjsG1090"><text id="SvgjsText1091" font-family="&quot;Times New Roman&quot;" text-anchor="middle" font-size="13px" width="220px" fill="#323232" font-weight="700" align="middle" anchor="middle" family="&quot;Times New Roman&quot;" size="13px" weight="700" font-style="" opacity="1" y="5.05" transform="rotate(0)"><tspan id="SvgjsTspan1092" dy="16" x="120"><tspan id="SvgjsTspan1093" style="text-decoration:;">ConcreteImplementorB</tspan></tspan></text></g><g id="SvgjsG1094"><text id="SvgjsText1095" font-family="&quot;Times New Roman&quot;" text-anchor="start" font-size="13px" width="220px" fill="#323232" font-weight="400" align="middle" anchor="start" family="&quot;Times New Roman&quot;" size="13px" weight="400" font-style="" opacity="1" y="65.05" transform="rotate(0)"><tspan id="SvgjsTspan1096" dy="16" x="10"><tspan id="SvgjsTspan1097" style="text-decoration:;">+ operationImpl():void</tspan></tspan></text></g></g><g id="SvgjsG1098"><path id="SvgjsPath1099" d="M475 566.5L475 536L475 536L475 505.5" stroke-dasharray="8,5" stroke="#323232" stroke-width="1" fill="none" marker-end="url(#SvgjsMarker1100)"></path></g><g id="SvgjsG1102"><path id="SvgjsPath1103" d="M145 566.5L145 536L475 536L475 505.5" stroke-dasharray="8,5" stroke="#323232" stroke-width="1" fill="none" marker-end="url(#SvgjsMarker1104)"></path></g><g id="SvgjsG1106"><path id="SvgjsPath1107" d="M475 385.5L475 355.5L475 355.5L475 325.5" stroke="#323232" stroke-width="1" fill="none" marker-end="url(#SvgjsMarker1108)"></path></g><g id="SvgjsG1110"><path id="SvgjsPath1111" d="M265 265.5L310 265.5L310 265.5L355 265.5" stroke="#323232" stroke-width="1" fill="none" marker-end="url(#SvgjsMarker1112)"></path></g><g id="SvgjsG1114" transform="translate(475,325.5)"><path id="SvgjsPath1115" d="M 0 0L 120 0L 120 35L 0 35Z" stroke="none" fill="none"></path><g id="SvgjsG1116"><text id="SvgjsText1117" font-family="微软雅黑" text-anchor="middle" font-size="13px" width="120px" fill="#323232" font-weight="400" align="middle" anchor="middle" family="微软雅黑" size="13px" weight="400" font-style="" opacity="1" y="7.55" transform="rotate(0)"><tspan id="SvgjsTspan1118" dy="16" x="60"><tspan id="SvgjsTspan1119" style="text-decoration:;">抽象部分</tspan></tspan></text></g></g><g id="SvgjsG1120" transform="translate(191,531.5)"><path id="SvgjsPath1121" d="M 0 0L 240 0L 240 35L 0 35Z" stroke="none" fill="none"></path><g id="SvgjsG1122"><text id="SvgjsText1123" font-family="微软雅黑" text-anchor="middle" font-size="13px" width="240px" fill="#323232" font-weight="400" align="middle" anchor="middle" family="微软雅黑" size="13px" weight="400" font-style="" opacity="1" y="7.55" transform="rotate(0)"><tspan id="SvgjsTspan1124" dy="16" x="120"><tspan id="SvgjsTspan1125" style="text-decoration:;">实现部分抽象接口</tspan></tspan></text></g></g></svg>