<svg id="SvgjsSvg1006" width="626" height="450" xmlns="http://www.w3.org/2000/svg" version="1.1" xmlns:xlink="http://www.w3.org/1999/xlink" xmlns:svgjs="http://svgjs.com/svgjs"><defs id="SvgjsDefs1007"><marker id="SvgjsMarker1040" markerWidth="16" markerHeight="16" refX="11" refY="8" viewBox="0 0 16 16" orient="auto" markerUnits="userSpaceOnUse" stroke-dasharray="0,0"><path id="SvgjsPath1041" d="M0,0 L10,8 L0,16" fill="none" stroke="#323232" stroke-width="1"></path></marker><marker id="SvgjsMarker1046" markerWidth="14" markerHeight="12" refX="16" refY="6" viewBox="0 0 14 12" orient="auto" markerUnits="userSpaceOnUse" stroke-dasharray="0,0"><path id="SvgjsPath1047" d="M1,1 L14,6 L1,11L1,1" fill="#ffffff" stroke="#323232" stroke-width="1"></path></marker><marker id="SvgjsMarker1076" markerWidth="16" markerHeight="16" refX="11" refY="8" viewBox="0 0 16 16" orient="auto" markerUnits="userSpaceOnUse" stroke-dasharray="0,0"><path id="SvgjsPath1077" d="M0,0 L10,8 L0,16" fill="none" stroke="#323232" stroke-width="1"></path></marker><marker id="SvgjsMarker1086" markerWidth="20" markerHeight="12" refX="0" refY="6" viewBox="0 0 20 12" orient="auto" markerUnits="userSpaceOnUse" stroke-dasharray="0,0"><path id="SvgjsPath1087" d="M2,6 L10,2 L18,6 L10,10L2,6" fill="#ffffff" stroke="#323232" stroke-width="1"></path></marker><marker id="SvgjsMarker1088" markerWidth="16" markerHeight="16" refX="11" refY="8" viewBox="0 0 16 16" orient="auto" markerUnits="userSpaceOnUse" stroke-dasharray="0,0"><path id="SvgjsPath1089" d="M0,0 L10,8 L0,16" fill="none" stroke="#323232" stroke-width="1"></path></marker></defs><g id="SvgjsG1008" transform="translate(326,310)"><path id="SvgjsPath1009" d="M 0 4Q 0 0 4 0L 236 0Q 240 0 240 4L 240 76Q 240 80 236 80L 4 80Q 0 80 0 76Z" stroke="rgba(50,50,50,1)" stroke-width="1" fill-opacity="1" fill="#ffffff"></path><path id="SvgjsPath1010" d="M 0 30L 240 30" stroke="rgba(50,50,50,1)" stroke-width="1" fill="none"></path><path id="SvgjsPath1011" d="M 0 0L 240 0L 240 80L 0 80Z" stroke="none" fill="none"></path><g id="SvgjsG1012"><text id="SvgjsText1013" font-family="&quot;Times New Roman&quot;" text-anchor="middle" font-size="13px" width="220px" fill="#323232" font-weight="700" align="middle" anchor="middle" family="&quot;Times New Roman&quot;" size="13px" weight="700" font-style="" opacity="1" y="5.05" transform="rotate(0)"><tspan id="SvgjsTspan1014" dy="16" x="120"><tspan id="SvgjsTspan1015" style="text-decoration:;">NonterminalExpression</tspan></tspan></text></g><g id="SvgjsG1016"><text id="SvgjsText1017" font-family="&quot;Times New Roman&quot;" text-anchor="start" font-size="13px" width="220px" fill="#323232" font-weight="400" align="middle" anchor="start" family="&quot;Times New Roman&quot;" size="13px" weight="400" font-style="" opacity="1" y="45.05" transform="rotate(0)"><tspan id="SvgjsTspan1018" dy="16" x="10"><tspan id="SvgjsTspan1019" style="text-decoration:;">+ interpret(Context):void</tspan></tspan></text></g></g><g id="SvgjsG1020" transform="translate(25,167)"><path id="SvgjsPath1021" d="M 0 4Q 0 0 4 0L 236 0Q 240 0 240 4L 240 76Q 240 80 236 80L 4 80Q 0 80 0 76Z" stroke="rgba(50,50,50,1)" stroke-width="1" fill-opacity="1" fill="#ffffff"></path><g id="SvgjsG1022"><text id="SvgjsText1023" font-family="&quot;Times New Roman&quot;" text-anchor="middle" font-size="13px" width="220px" fill="#323232" font-weight="700" align="middle" anchor="middle" family="&quot;Times New Roman&quot;" size="13px" weight="700" font-style="" opacity="1" y="30.05" transform="rotate(0)"><tspan id="SvgjsTspan1024" dy="16" x="120"><tspan id="SvgjsTspan1025" style="text-decoration:;">Client</tspan></tspan></text></g></g><g id="SvgjsG1026" transform="translate(25,310)"><path id="SvgjsPath1027" d="M 0 4Q 0 0 4 0L 236 0Q 240 0 240 4L 240 76Q 240 80 236 80L 4 80Q 0 80 0 76Z" stroke="rgba(50,50,50,1)" stroke-width="1" fill-opacity="1" fill="#ffffff"></path><path id="SvgjsPath1028" d="M 0 30L 240 30" stroke="rgba(50,50,50,1)" stroke-width="1" fill="none"></path><path id="SvgjsPath1029" d="M 0 0L 240 0L 240 80L 0 80Z" stroke="none" fill="none"></path><g id="SvgjsG1030"><text id="SvgjsText1031" font-family="&quot;Times New Roman&quot;" text-anchor="middle" font-size="13px" width="220px" fill="#323232" font-weight="700" align="middle" anchor="middle" family="&quot;Times New Roman&quot;" size="13px" weight="700" font-style="" opacity="1" y="5.05" transform="rotate(0)"><tspan id="SvgjsTspan1032" dy="16" x="120"><tspan id="SvgjsTspan1033" style="text-decoration:;">TerminalExpression</tspan></tspan></text></g><g id="SvgjsG1034"><text id="SvgjsText1035" font-family="&quot;Times New Roman&quot;" text-anchor="start" font-size="13px" width="220px" fill="#323232" font-weight="400" align="middle" anchor="start" family="&quot;Times New Roman&quot;" size="13px" weight="400" font-style="" opacity="1" y="45.05" transform="rotate(0)"><tspan id="SvgjsTspan1036" dy="16" x="10"><tspan id="SvgjsTspan1037" style="text-decoration:;">+ interpret(Context):void</tspan></tspan></text></g></g><g id="SvgjsG1038"><path id="SvgjsPath1039" d="M265 207L295.5 207L295.5 207L326 207" stroke-dasharray="8,5" stroke="#323232" stroke-width="1" fill="none" marker-end="url(#SvgjsMarker1040)"></path></g><g id="SvgjsG1042"><path id="SvgjsPath1043" d="M145 310L145 278.5L446 278.5L446 247" stroke="#323232" stroke-width="1" fill="none"></path></g><g id="SvgjsG1044"><path id="SvgjsPath1045" d="M446 310L446 278.5L446 278.5L446 247" stroke="#323232" stroke-width="1" fill="none" marker-end="url(#SvgjsMarker1046)"></path></g><g id="SvgjsG1048" transform="translate(326,167)"><path id="SvgjsPath1049" d="M 0 4Q 0 0 4 0L 236 0Q 240 0 240 4L 240 76Q 240 80 236 80L 4 80Q 0 80 0 76Z" stroke="rgba(50,50,50,1)" stroke-width="1" fill-opacity="1" fill="#ffffff"></path><path id="SvgjsPath1050" d="M 0 32L 240 32" stroke="rgba(50,50,50,1)" stroke-width="1" fill="none"></path><path id="SvgjsPath1051" d="M 0 0L 240 0L 240 80L 0 80Z" stroke="none" fill="none"></path><g id="SvgjsG1052"><text id="SvgjsText1053" font-family="&quot;Times New Roman&quot;" text-anchor="middle" font-size="13px" width="220px" fill="#323232" font-weight="700" align="middle" anchor="middle" family="&quot;Times New Roman&quot;" size="13px" weight="700" font-style="" opacity="1" y="-1.95" transform="rotate(0)"><tspan id="SvgjsTspan1054" dy="16" x="120"><tspan id="SvgjsTspan1055" style="text-decoration:;">&lt;&lt;abstract&gt;&gt;</tspan></tspan><tspan id="SvgjsTspan1056" dy="16" x="120"><tspan id="SvgjsTspan1057" style="text-decoration:;">AbstractExpression</tspan></tspan></text></g><g id="SvgjsG1058"><text id="SvgjsText1059" font-family="&quot;Times New Roman&quot;" text-anchor="start" font-size="13px" width="220px" fill="#323232" font-weight="400" align="middle" anchor="start" family="&quot;Times New Roman&quot;" size="13px" weight="400" font-style="" opacity="1" y="46.05" transform="rotate(0)"><tspan id="SvgjsTspan1060" dy="16" x="10"><tspan id="SvgjsTspan1061" style="text-decoration:;">+ interpret(Context):void</tspan></tspan></text></g></g><g id="SvgjsG1062" transform="translate(25,25)"><path id="SvgjsPath1063" d="M 0 4Q 0 0 4 0L 236 0Q 240 0 240 4L 240 76Q 240 80 236 80L 4 80Q 0 80 0 76Z" stroke="rgba(50,50,50,1)" stroke-width="1" fill-opacity="1" fill="#ffffff"></path><path id="SvgjsPath1064" d="M 0 30L 240 30" stroke="rgba(50,50,50,1)" stroke-width="1" fill="none"></path><path id="SvgjsPath1065" d="M 0 0L 240 0L 240 80L 0 80Z" stroke="none" fill="none"></path><g id="SvgjsG1066"><text id="SvgjsText1067" font-family="&quot;Times New Roman&quot;" text-anchor="middle" font-size="13px" width="220px" fill="#323232" font-weight="700" align="middle" anchor="middle" family="&quot;Times New Roman&quot;" size="13px" weight="700" font-style="" opacity="1" y="5.05" transform="rotate(0)"><tspan id="SvgjsTspan1068" dy="16" x="120"><tspan id="SvgjsTspan1069" style="text-decoration:;">Context</tspan></tspan></text></g><g id="SvgjsG1070"><text id="SvgjsText1071" font-family="&quot;Times New Roman&quot;" text-anchor="start" font-size="13px" width="220px" fill="#323232" font-weight="400" align="middle" anchor="start" family="&quot;Times New Roman&quot;" size="13px" weight="400" font-style="" opacity="1" y="45.05" transform="rotate(0)"><tspan id="SvgjsTspan1072" dy="16" x="10"><tspan id="SvgjsTspan1073" style="text-decoration:;"> </tspan></tspan></text></g></g><g id="SvgjsG1074"><path id="SvgjsPath1075" d="M145 167L145 136L145 136L145 105" stroke-dasharray="8,5" stroke="#323232" stroke-width="1" fill="none" marker-end="url(#SvgjsMarker1076)"></path></g><g id="SvgjsG1078" transform="translate(326,132)"><path id="SvgjsPath1079" d="M 0 0L 240 0L 240 35L 0 35Z" stroke="none" fill="none"></path><g id="SvgjsG1080"><text id="SvgjsText1081" font-family="微软雅黑" text-anchor="middle" font-size="13px" width="240px" fill="#323232" font-weight="400" align="middle" anchor="middle" family="微软雅黑" size="13px" weight="400" font-style="" opacity="1" y="7.55" transform="rotate(0)"><tspan id="SvgjsTspan1082" dy="16" x="120"><tspan id="SvgjsTspan1083" style="text-decoration:;">抽象表达式</tspan></tspan></text></g></g><g id="SvgjsG1084"><path id="SvgjsPath1085" d="M566 350L601 350L601 207L566 207" stroke="#323232" stroke-width="1" fill="none" marker-start="url(#SvgjsMarker1086)" marker-end="url(#SvgjsMarker1088)"></path></g><g id="SvgjsG1090" transform="translate(566,208)"><path id="SvgjsPath1091" d="M 0 0L 35 0L 35 35L 0 35Z" stroke="none" fill="none"></path><g id="SvgjsG1092"><text id="SvgjsText1093" font-family="微软雅黑" text-anchor="middle" font-size="13px" width="35px" fill="#323232" font-weight="400" align="middle" anchor="middle" family="微软雅黑" size="13px" weight="400" font-style="" opacity="1" y="7.55" transform="rotate(0)"><tspan id="SvgjsTspan1094" dy="16" x="17.5"><tspan id="SvgjsTspan1095" style="text-decoration:;">*</tspan></tspan></text></g></g><g id="SvgjsG1096" transform="translate(25,390)"><path id="SvgjsPath1097" d="M 0 0L 240 0L 240 35L 0 35Z" stroke="none" fill="none"></path><g id="SvgjsG1098"><text id="SvgjsText1099" font-family="微软雅黑" text-anchor="middle" font-size="13px" width="240px" fill="#323232" font-weight="400" align="middle" anchor="middle" family="微软雅黑" size="13px" weight="400" font-style="" opacity="1" y="7.55" transform="rotate(0)"><tspan id="SvgjsTspan1100" dy="16" x="120"><tspan id="SvgjsTspan1101" style="text-decoration:;">终结符表达式</tspan></tspan></text></g></g><g id="SvgjsG1102" transform="translate(326,390)"><path id="SvgjsPath1103" d="M 0 0L 240 0L 240 35L 0 35Z" stroke="none" fill="none"></path><g id="SvgjsG1104"><text id="SvgjsText1105" font-family="微软雅黑" text-anchor="middle" font-size="13px" width="240px" fill="#323232" font-weight="400" align="middle" anchor="middle" family="微软雅黑" size="13px" weight="400" font-style="" opacity="1" y="7.55" transform="rotate(0)"><tspan id="SvgjsTspan1106" dy="16" x="120"><tspan id="SvgjsTspan1107" style="text-decoration:;">非终结符表达式</tspan></tspan></text></g></g></svg>