<svg id="SvgjsSvg1094" width="651" height="391" xmlns="http://www.w3.org/2000/svg" version="1.1" xmlns:xlink="http://www.w3.org/1999/xlink" xmlns:svgjs="http://svgjs.com/svgjs"><defs id="SvgjsDefs1095"><marker id="SvgjsMarker1148" markerWidth="16" markerHeight="16" refX="11" refY="8" viewBox="0 0 16 16" orient="auto" markerUnits="userSpaceOnUse" stroke-dasharray="0,0"><path id="SvgjsPath1149" d="M0,0 L10,8 L0,16" fill="none" stroke="#323232" stroke-width="1"></path></marker><marker id="SvgjsMarker1154" markerWidth="14" markerHeight="12" refX="16" refY="6" viewBox="0 0 14 12" orient="auto" markerUnits="userSpaceOnUse" stroke-dasharray="0,0"><path id="SvgjsPath1155" d="M1,1 L14,6 L1,11L1,1" fill="#ffffff" stroke="#323232" stroke-width="1"></path></marker><marker id="SvgjsMarker1178" markerWidth="20" markerHeight="12" refX="0" refY="6" viewBox="0 0 20 12" orient="auto" markerUnits="userSpaceOnUse" stroke-dasharray="0,0"><path id="SvgjsPath1179" d="M2,6 L10,2 L18,6 L10,10L2,6" fill="#ffffff" stroke="#323232" stroke-width="1"></path></marker><marker id="SvgjsMarker1180" markerWidth="16" markerHeight="16" refX="11" refY="8" viewBox="0 0 16 16" orient="auto" markerUnits="userSpaceOnUse" stroke-dasharray="0,0"><path id="SvgjsPath1181" d="M0,0 L10,8 L0,16" fill="none" stroke="#323232" stroke-width="1"></path></marker></defs><g id="SvgjsG1096" transform="translate(25,25)"><path id="SvgjsPath1097" d="M 0 4Q 0 0 4 0L 236 0Q 240 0 240 4L 240 136Q 240 140 236 140L 4 140Q 0 140 0 136Z" stroke="rgba(50,50,50,1)" stroke-width="1" fill-opacity="1" fill="#ffffff"></path><g id="SvgjsG1098"><text id="SvgjsText1099" font-family="&quot;Times New Roman&quot;" text-anchor="middle" font-size="13px" width="220px" fill="#323232" font-weight="700" align="middle" lineHeight="125%" anchor="middle" family="&quot;Times New Roman&quot;" size="13px" weight="700" font-style="" opacity="1" y="60.375" transform="rotate(0)"><tspan id="SvgjsTspan1100" dy="16" x="120"><tspan id="SvgjsTspan1101" style="text-decoration:;">Client</tspan></tspan></text></g></g><g id="SvgjsG1102" transform="translate(25,226)"><path id="SvgjsPath1103" d="M 0 4Q 0 0 4 0L 236 0Q 240 0 240 4L 240 136Q 240 140 236 140L 4 140Q 0 140 0 136Z" stroke="rgba(50,50,50,1)" stroke-width="1" fill-opacity="1" fill="#ffffff"></path><path id="SvgjsPath1104" d="M 0 30L 240 30" stroke="rgba(50,50,50,1)" stroke-width="1" fill="none"></path><path id="SvgjsPath1105" d="M 0 0L 240 0L 240 140L 0 140Z" stroke="none" fill="none"></path><g id="SvgjsG1106"><text id="SvgjsText1107" font-family="&quot;Times New Roman&quot;" text-anchor="middle" font-size="13px" width="220px" fill="#323232" font-weight="700" align="middle" lineHeight="125%" anchor="middle" family="&quot;Times New Roman&quot;" size="13px" weight="700" font-style="" opacity="1" y="5.375" transform="rotate(0)"><tspan id="SvgjsTspan1108" dy="16" x="120"><tspan id="SvgjsTspan1109" style="text-decoration:;">Leaf</tspan></tspan></text></g><g id="SvgjsG1110"><text id="SvgjsText1111" font-family="&quot;Times New Roman&quot;" text-anchor="start" font-size="13px" width="220px" fill="#323232" font-weight="400" align="middle" lineHeight="125%" anchor="start" family="&quot;Times New Roman&quot;" size="13px" weight="400" font-style="" opacity="1" y="43.375" transform="rotate(0)"><tspan id="SvgjsTspan1112" dy="16" x="10"><tspan id="SvgjsTspan1113" style="text-decoration:;">+ Leaf(String)</tspan></tspan><tspan id="SvgjsTspan1114" dy="16" x="10"><tspan id="SvgjsTspan1115" style="text-decoration:;">+ doSomething():void</tspan></tspan><tspan id="SvgjsTspan1116" dy="16" x="10"><tspan id="SvgjsTspan1117" style="text-decoration:;">+ addChild(Component):void</tspan></tspan><tspan id="SvgjsTspan1118" dy="16" x="10"><tspan id="SvgjsTspan1119" style="text-decoration:;">+ removeChild(Component):void</tspan></tspan><tspan id="SvgjsTspan1120" dy="16" x="10"><tspan id="SvgjsTspan1121" style="text-decoration:;">+ getChildren(int):Component</tspan></tspan></text></g></g><g id="SvgjsG1122" transform="translate(356,226)"><path id="SvgjsPath1123" d="M 0 4Q 0 0 4 0L 236 0Q 240 0 240 4L 240 136Q 240 140 236 140L 4 140Q 0 140 0 136Z" stroke="rgba(50,50,50,1)" stroke-width="1" fill-opacity="1" fill="#ffffff"></path><path id="SvgjsPath1124" d="M 0 30L 240 30M 0 60L 240 60" stroke="rgba(50,50,50,1)" stroke-width="1" fill="none"></path><path id="SvgjsPath1125" d="M 0 0L 240 0L 240 140L 0 140Z" stroke="none" fill="none"></path><g id="SvgjsG1126"><text id="SvgjsText1127" font-family="&quot;Times New Roman&quot;" text-anchor="middle" font-size="13px" width="220px" fill="#323232" font-weight="700" align="middle" lineHeight="125%" anchor="middle" family="&quot;Times New Roman&quot;" size="13px" weight="700" font-style="" opacity="1" y="5.375" transform="rotate(0)"><tspan id="SvgjsTspan1128" dy="16" x="120"><tspan id="SvgjsTspan1129" style="text-decoration:;">Composite</tspan></tspan></text></g><g id="SvgjsG1130"><text id="SvgjsText1131" font-family="&quot;Times New Roman&quot;" text-anchor="start" font-size="13px" width="220px" fill="#323232" font-weight="400" align="middle" lineHeight="125%" anchor="start" family="&quot;Times New Roman&quot;" size="13px" weight="400" font-style="" opacity="1" y="35.375" transform="rotate(0)"><tspan id="SvgjsTspan1132" dy="16" x="10"><tspan id="SvgjsTspan1133" style="text-decoration:;">- components:List&lt;Component&gt;</tspan></tspan></text></g><g id="SvgjsG1134"><text id="SvgjsText1135" font-family="&quot;Times New Roman&quot;" text-anchor="start" font-size="13px" width="220px" fill="#323232" font-weight="400" align="middle" lineHeight="125%" anchor="start" family="&quot;Times New Roman&quot;" size="13px" weight="400" font-style="" opacity="1" y="58.375" transform="rotate(0)"><tspan id="SvgjsTspan1136" dy="16" x="10"><tspan id="SvgjsTspan1137" style="text-decoration:;">+ Composite(String)</tspan></tspan><tspan id="SvgjsTspan1138" dy="16" x="10"><tspan id="SvgjsTspan1139" style="text-decoration:;">+ doSomething():void</tspan></tspan><tspan id="SvgjsTspan1140" dy="16" x="10"><tspan id="SvgjsTspan1141" style="text-decoration:;">+ addChild(Component):void</tspan></tspan><tspan id="SvgjsTspan1142" dy="16" x="10"><tspan id="SvgjsTspan1143" style="text-decoration:;">+ removeChild(Component):void</tspan></tspan><tspan id="SvgjsTspan1144" dy="16" x="10"><tspan id="SvgjsTspan1145" style="text-decoration:;">+ getChildren(int):Component</tspan></tspan></text></g></g><g id="SvgjsG1146"><path id="SvgjsPath1147" d="M265 95L310.5 95L310.5 95L356 95" stroke-dasharray="8,5" stroke="#323232" stroke-width="1" fill="none" marker-end="url(#SvgjsMarker1148)"></path></g><g id="SvgjsG1150"><path id="SvgjsPath1151" d="M145 226L145 195.5L476 195.5L476 165" stroke="#323232" stroke-width="1" fill="none"></path></g><g id="SvgjsG1152"><path id="SvgjsPath1153" d="M476 226L476 195.5L476 195.5L476 165" stroke="#323232" stroke-width="1" fill="none" marker-end="url(#SvgjsMarker1154)"></path></g><g id="SvgjsG1156" transform="translate(356,25)"><path id="SvgjsPath1157" d="M 0 4Q 0 0 4 0L 236 0Q 240 0 240 4L 240 136Q 240 140 236 140L 4 140Q 0 140 0 136Z" stroke="rgba(50,50,50,1)" stroke-width="1" fill-opacity="1" fill="#ffffff"></path><path id="SvgjsPath1158" d="M 0 32L 240 32M 0 62L 240 62" stroke="rgba(50,50,50,1)" stroke-width="1" fill="none"></path><path id="SvgjsPath1159" d="M 0 0L 240 0L 240 140L 0 140Z" stroke="none" fill="none"></path><g id="SvgjsG1160"><text id="SvgjsText1161" font-family="&quot;Times New Roman&quot;" text-anchor="middle" font-size="13px" width="220px" fill="#323232" font-weight="700" align="middle" lineHeight="125%" anchor="middle" family="&quot;Times New Roman&quot;" size="13px" weight="700" font-style="" opacity="1" y="-1.625" transform="rotate(0)"><tspan id="SvgjsTspan1162" dy="16" x="120"><tspan id="SvgjsTspan1163" style="text-decoration:;">&lt;&lt;abstract&gt;&gt;</tspan></tspan><tspan id="SvgjsTspan1164" dy="16" x="120"><tspan id="SvgjsTspan1165" style="text-decoration:;">Component</tspan></tspan></text></g><g id="SvgjsG1166"><text id="SvgjsText1167" font-family="&quot;Times New Roman&quot;" text-anchor="start" font-size="13px" width="220px" fill="#323232" font-weight="400" align="middle" lineHeight="125%" anchor="start" family="&quot;Times New Roman&quot;" size="13px" weight="400" font-style="" opacity="1" y="37.375" transform="rotate(0)"><tspan id="SvgjsTspan1168" dy="16" x="10"><tspan id="SvgjsTspan1169" style="text-decoration:;"># name:String</tspan></tspan></text></g><g id="SvgjsG1170"><text id="SvgjsText1171" font-family="&quot;Times New Roman&quot;" text-anchor="start" font-size="13px" width="220px" fill="#323232" font-weight="400" align="middle" lineHeight="125%" anchor="start" family="&quot;Times New Roman&quot;" size="13px" weight="400" font-style="" opacity="1" y="60.375" transform="rotate(0)"><tspan id="SvgjsTspan1172" dy="16" x="10"><tspan id="SvgjsTspan1173" style="text-decoration:;">+ Component(String):void</tspan></tspan><tspan id="SvgjsTspan1174" dy="16" x="10"><tspan id="SvgjsTspan1175" style="text-decoration:;">+ doSomething():void</tspan></tspan></text></g></g><g id="SvgjsG1176"><path id="SvgjsPath1177" d="M596 296L626 296L626 95L596 95" stroke="#323232" stroke-width="1" fill="none" marker-start="url(#SvgjsMarker1178)" marker-end="url(#SvgjsMarker1180)"></path></g></svg>