<svg id="SvgjsSvg1006" width="621" height="649" xmlns="http://www.w3.org/2000/svg" version="1.1" xmlns:xlink="http://www.w3.org/1999/xlink" xmlns:svgjs="http://svgjs.com/svgjs"><defs id="SvgjsDefs1007"><marker id="SvgjsMarker1140" markerWidth="14" markerHeight="12" refX="16" refY="6" viewBox="0 0 14 12" orient="auto" markerUnits="userSpaceOnUse" stroke-dasharray="0,0"><path id="SvgjsPath1141" d="M1,1 L14,6 L1,11L1,1" fill="#ffffff" stroke="#323232" stroke-width="1"></path></marker><marker id="SvgjsMarker1144" markerWidth="14" markerHeight="12" refX="16" refY="6" viewBox="0 0 14 12" orient="auto" markerUnits="userSpaceOnUse" stroke-dasharray="0,0"><path id="SvgjsPath1145" d="M1,1 L14,6 L1,11L1,1" fill="#ffffff" stroke="#323232" stroke-width="1"></path></marker><marker id="SvgjsMarker1148" markerWidth="20" markerHeight="12" refX="20" refY="6" viewBox="0 0 20 12" orient="auto" markerUnits="userSpaceOnUse" stroke-dasharray="0,0"><path id="SvgjsPath1149" d="M2,6 L10,2 L18,6 L10,10L2,6" fill="#ffffff" stroke="#323232" stroke-width="1"></path></marker><marker id="SvgjsMarker1152" markerWidth="16" markerHeight="16" refX="11" refY="8" viewBox="0 0 16 16" orient="auto" markerUnits="userSpaceOnUse" stroke-dasharray="0,0"><path id="SvgjsPath1153" d="M0,0 L10,8 L0,16" fill="none" stroke="#323232" stroke-width="1"></path></marker></defs><g id="SvgjsG1008" transform="translate(25,25)"><path id="SvgjsPath1009" d="M 0 4Q 0 0 4 0L 236 0Q 240 0 240 4L 240 156Q 240 160 236 160L 4 160Q 0 160 0 156Z" stroke="rgba(50,50,50,1)" stroke-width="1" fill-opacity="1" fill="#ffffff"></path><path id="SvgjsPath1010" d="M 0 30L 240 30M 0 60L 240 60" stroke="rgba(50,50,50,1)" stroke-width="1" fill="none"></path><path id="SvgjsPath1011" d="M 0 0L 240 0L 240 160L 0 160Z" stroke="none" fill="none"></path><g id="SvgjsG1012"><text id="SvgjsText1013" font-family="&quot;Times New Roman&quot;" text-anchor="middle" font-size="13px" width="220px" fill="#323232" font-weight="700" align="middle" anchor="middle" family="&quot;Times New Roman&quot;" size="13px" weight="700" font-style="" opacity="1" y="5.05" transform="rotate(0)"><tspan id="SvgjsTspan1014" dy="16" x="120"><tspan id="SvgjsTspan1015" style="text-decoration:;">Director</tspan></tspan></text></g><g id="SvgjsG1016"><text id="SvgjsText1017" font-family="&quot;Times New Roman&quot;" text-anchor="start" font-size="13px" width="220px" fill="#323232" font-weight="400" align="middle" anchor="start" family="&quot;Times New Roman&quot;" size="13px" weight="400" font-style="" opacity="1" y="35.05" transform="rotate(0)"><tspan id="SvgjsTspan1018" dy="16" x="10"><tspan id="SvgjsTspan1019" style="text-decoration:;">mBuilder:Builder</tspan></tspan></text></g><g id="SvgjsG1020"><text id="SvgjsText1021" font-family="&quot;Times New Roman&quot;" text-anchor="start" font-size="13px" width="220px" fill="#323232" font-weight="400" align="middle" anchor="start" family="&quot;Times New Roman&quot;" size="13px" weight="400" font-style="" opacity="1" y="58.05" transform="rotate(0)"><tspan id="SvgjsTspan1022" dy="16" x="10"><tspan id="SvgjsTspan1023" style="text-decoration:;"> </tspan></tspan><tspan id="SvgjsTspan1024" dy="16" x="10"><tspan id="SvgjsTspan1025" style="text-decoration:;">+ Director(Builder)</tspan></tspan><tspan id="SvgjsTspan1026" dy="16" x="10"><tspan id="SvgjsTspan1027" style="text-decoration:;">+ construct(String, String):void</tspan></tspan><tspan id="SvgjsTspan1028" dy="16" x="10"><tspan id="SvgjsTspan1029" style="text-decoration:;"> </tspan></tspan></text></g></g><g id="SvgjsG1030" transform="translate(266,514)"><path id="SvgjsPath1031" d="M 0 0L 90 0L 90 30L 0 30Z" stroke="none" fill="none"></path><g id="SvgjsG1032"><text id="SvgjsText1033" font-family="&quot;Times New Roman&quot;" text-anchor="middle" font-size="13px" width="90px" fill="#323232" font-weight="400" align="middle" anchor="middle" family="&quot;Times New Roman&quot;" size="13px" weight="400" font-style="" opacity="1" y="5.05" transform="rotate(0)"><tspan id="SvgjsTspan1034" dy="16" x="45"><tspan id="SvgjsTspan1035" style="text-decoration:;">&lt;&lt;use&gt;&gt;</tspan></tspan></text></g></g><g id="SvgjsG1036" transform="translate(25,247)"><path id="SvgjsPath1037" d="M 0 4Q 0 0 4 0L 236 0Q 240 0 240 4L 240 156Q 240 160 236 160L 4 160Q 0 160 0 156Z" stroke="rgba(50,50,50,1)" stroke-width="1" fill-opacity="1" fill="#ffffff"></path><path id="SvgjsPath1038" d="M 0 32L 240 32" stroke="rgba(50,50,50,1)" stroke-width="1" fill="none"></path><path id="SvgjsPath1039" d="M 0 0L 240 0L 240 160L 0 160Z" stroke="none" fill="none"></path><g id="SvgjsG1040"><text id="SvgjsText1041" font-family="&quot;Times New Roman&quot;" text-anchor="middle" font-size="13px" width="220px" fill="#323232" font-weight="700" align="middle" anchor="middle" family="&quot;Times New Roman&quot;" size="13px" weight="700" font-style="" opacity="1" y="-1.95" transform="rotate(0)"><tspan id="SvgjsTspan1042" dy="16" x="120"><tspan id="SvgjsTspan1043" style="text-decoration:;">&lt;&lt;abstract&gt;&gt;</tspan></tspan><tspan id="SvgjsTspan1044" dy="16" x="120"><tspan id="SvgjsTspan1045" style="text-decoration:;">Builder</tspan></tspan></text></g><g id="SvgjsG1046"><text id="SvgjsText1047" font-family="&quot;Times New Roman&quot;" text-anchor="start" font-size="13px" width="220px" fill="#323232" font-weight="400" align="middle" anchor="start" family="&quot;Times New Roman&quot;" size="13px" weight="400" font-style="" opacity="1" y="62.05" transform="rotate(0)"><tspan id="SvgjsTspan1048" dy="16" x="10"><tspan id="SvgjsTspan1049" style="text-decoration:;">+ buildBoard(String):void</tspan></tspan><tspan id="SvgjsTspan1050" dy="16" x="10"><tspan id="SvgjsTspan1051" style="text-decoration:;">+ buildDisplay(String):void</tspan></tspan><tspan id="SvgjsTspan1052" dy="16" x="10"><tspan id="SvgjsTspan1053" style="text-decoration:;">+ buildOS():void</tspan></tspan><tspan id="SvgjsTspan1054" dy="16" x="10"><tspan id="SvgjsTspan1055" style="text-decoration:;">+ create():Computer</tspan></tspan></text></g></g><g id="SvgjsG1056" transform="translate(25,464)"><path id="SvgjsPath1057" d="M 0 4Q 0 0 4 0L 236 0Q 240 0 240 4L 240 156Q 240 160 236 160L 4 160Q 0 160 0 156Z" stroke="rgba(50,50,50,1)" stroke-width="1" fill-opacity="1" fill="#ffffff"></path><path id="SvgjsPath1058" d="M 0 30L 240 30M 0 60L 240 60" stroke="rgba(50,50,50,1)" stroke-width="1" fill="none"></path><path id="SvgjsPath1059" d="M 0 0L 240 0L 240 160L 0 160Z" stroke="none" fill="none"></path><g id="SvgjsG1060"><text id="SvgjsText1061" font-family="&quot;Times New Roman&quot;" text-anchor="middle" font-size="13px" width="220px" fill="#323232" font-weight="700" align="middle" anchor="middle" family="&quot;Times New Roman&quot;" size="13px" weight="700" font-style="" opacity="1" y="5.05" transform="rotate(0)"><tspan id="SvgjsTspan1062" dy="16" x="120"><tspan id="SvgjsTspan1063" style="text-decoration:;">MacbookBuilder</tspan></tspan></text></g><g id="SvgjsG1064"><text id="SvgjsText1065" font-family="&quot;Times New Roman&quot;" text-anchor="start" font-size="13px" width="220px" fill="#323232" font-weight="400" align="middle" anchor="start" family="&quot;Times New Roman&quot;" size="13px" weight="400" font-style="" opacity="1" y="35.05" transform="rotate(0)"><tspan id="SvgjsTspan1066" dy="16" x="10"><tspan id="SvgjsTspan1067" style="text-decoration:;">-mComputer:Computer</tspan></tspan></text></g><g id="SvgjsG1068"><text id="SvgjsText1069" font-family="&quot;Times New Roman&quot;" text-anchor="start" font-size="13px" width="220px" fill="#323232" font-weight="400" align="middle" anchor="start" family="&quot;Times New Roman&quot;" size="13px" weight="400" font-style="" opacity="1" y="58.05" transform="rotate(0)"><tspan id="SvgjsTspan1070" dy="16" x="10"><tspan id="SvgjsTspan1071" style="text-decoration:;"> </tspan></tspan><tspan id="SvgjsTspan1072" dy="16" x="10"><tspan id="SvgjsTspan1073" style="text-decoration:;">+ buildBoard(String):void</tspan></tspan><tspan id="SvgjsTspan1074" dy="16" x="10"><tspan id="SvgjsTspan1075" style="text-decoration:;">+ buildDisplay(String):void</tspan></tspan><tspan id="SvgjsTspan1076" dy="16" x="10"><tspan id="SvgjsTspan1077" style="text-decoration:;">+ buildOS():void</tspan></tspan><tspan id="SvgjsTspan1078" dy="16" x="10"><tspan id="SvgjsTspan1079" style="text-decoration:;">+ create():Computer</tspan></tspan><tspan id="SvgjsTspan1080" dy="16" x="10"><tspan id="SvgjsTspan1081" style="text-decoration:;"> </tspan></tspan></text></g></g><g id="SvgjsG1082" transform="translate(356,464)"><path id="SvgjsPath1083" d="M 0 4Q 0 0 4 0L 236 0Q 240 0 240 4L 240 156Q 240 160 236 160L 4 160Q 0 160 0 156Z" stroke="rgba(50,50,50,1)" stroke-width="1" fill-opacity="1" fill="#ffffff"></path><path id="SvgjsPath1084" d="M 0 30L 240 30M 0 78L 240 78" stroke="rgba(50,50,50,1)" stroke-width="1" fill="none"></path><path id="SvgjsPath1085" d="M 0 0L 240 0L 240 160L 0 160Z" stroke="none" fill="none"></path><g id="SvgjsG1086"><text id="SvgjsText1087" font-family="&quot;Times New Roman&quot;" text-anchor="middle" font-size="13px" width="220px" fill="#323232" font-weight="700" align="middle" anchor="middle" family="&quot;Times New Roman&quot;" size="13px" weight="700" font-style="" opacity="1" y="5.05" transform="rotate(0)"><tspan id="SvgjsTspan1088" dy="16" x="120"><tspan id="SvgjsTspan1089" style="text-decoration:;">Macbook</tspan></tspan></text></g><g id="SvgjsG1090"><text id="SvgjsText1091" font-family="&quot;Times New Roman&quot;" text-anchor="start" font-size="13px" width="220px" fill="#323232" font-weight="400" align="middle" anchor="start" family="&quot;Times New Roman&quot;" size="13px" weight="400" font-style="" opacity="1" y="28.05" transform="rotate(0)"><tspan id="SvgjsTspan1092" dy="16" x="10"><tspan id="SvgjsTspan1093" style="text-decoration:;"># mBoard:String</tspan></tspan><tspan id="SvgjsTspan1094" dy="16" x="10"><tspan id="SvgjsTspan1095" style="text-decoration:;"># mDisplay:String</tspan></tspan><tspan id="SvgjsTspan1096" dy="16" x="10"><tspan id="SvgjsTspan1097" style="text-decoration:;"># mOS:String</tspan></tspan></text></g><g id="SvgjsG1098"><text id="SvgjsText1099" font-family="&quot;Times New Roman&quot;" text-anchor="start" font-size="13px" width="220px" fill="#323232" font-weight="400" align="middle" anchor="start" family="&quot;Times New Roman&quot;" size="13px" weight="400" font-style="" opacity="1" y="76.05" transform="rotate(0)"><tspan id="SvgjsTspan1100" dy="16" x="10"><tspan id="SvgjsTspan1101" style="text-decoration:;"> </tspan></tspan><tspan id="SvgjsTspan1102" dy="16" x="10"><tspan id="SvgjsTspan1103" style="text-decoration:;font-size: inherit;"># Macbook()</tspan></tspan><tspan id="SvgjsTspan1104" dy="16" x="10"><tspan id="SvgjsTspan1105" style="text-decoration:;">+ setBoard(String):void</tspan></tspan><tspan id="SvgjsTspan1106" dy="16" x="10"><tspan id="SvgjsTspan1107" style="text-decoration:;">+ setDisplay(String):void</tspan></tspan><tspan id="SvgjsTspan1108" dy="16" x="10"><tspan id="SvgjsTspan1109" style="text-decoration:;">+ setOS():void</tspan></tspan></text></g></g><g id="SvgjsG1110" transform="translate(356,247)"><path id="SvgjsPath1111" d="M 0 4Q 0 0 4 0L 236 0Q 240 0 240 4L 240 156Q 240 160 236 160L 4 160Q 0 160 0 156Z" stroke="rgba(50,50,50,1)" stroke-width="1" fill-opacity="1" fill="#ffffff"></path><path id="SvgjsPath1112" d="M 0 32L 240 32M 0 96L 240 96" stroke="rgba(50,50,50,1)" stroke-width="1" fill="none"></path><path id="SvgjsPath1113" d="M 0 0L 240 0L 240 160L 0 160Z" stroke="none" fill="none"></path><g id="SvgjsG1114"><text id="SvgjsText1115" font-family="&quot;Times New Roman&quot;" text-anchor="middle" font-size="13px" width="220px" fill="#323232" font-weight="700" align="middle" anchor="middle" family="&quot;Times New Roman&quot;" size="13px" weight="700" font-style="" opacity="1" y="-1.95" transform="rotate(0)"><tspan id="SvgjsTspan1116" dy="16" x="120"><tspan id="SvgjsTspan1117" style="text-decoration:;">&lt;&lt;abstract&gt;&gt;</tspan></tspan><tspan id="SvgjsTspan1118" dy="16" x="120"><tspan id="SvgjsTspan1119" style="text-decoration:;">Computer</tspan></tspan></text></g><g id="SvgjsG1120"><text id="SvgjsText1121" font-family="&quot;Times New Roman&quot;" text-anchor="start" font-size="13px" width="220px" fill="#323232" font-weight="400" align="middle" anchor="start" family="&quot;Times New Roman&quot;" size="13px" weight="400" font-style="" opacity="1" y="38.05" transform="rotate(0)"><tspan id="SvgjsTspan1122" dy="16" x="10"><tspan id="SvgjsTspan1123" style="text-decoration:;"># mBoard:String</tspan></tspan><tspan id="SvgjsTspan1124" dy="16" x="10"><tspan id="SvgjsTspan1125" style="text-decoration:;"># mDisplay:String</tspan></tspan><tspan id="SvgjsTspan1126" dy="16" x="10"><tspan id="SvgjsTspan1127" style="text-decoration:;"># mOS:String</tspan></tspan></text></g><g id="SvgjsG1128"><text id="SvgjsText1129" font-family="&quot;Times New Roman&quot;" text-anchor="start" font-size="13px" width="220px" fill="#323232" font-weight="400" align="middle" anchor="start" family="&quot;Times New Roman&quot;" size="13px" weight="400" font-style="" opacity="1" y="94.05" transform="rotate(0)"><tspan id="SvgjsTspan1130" dy="16" x="10"><tspan id="SvgjsTspan1131" style="text-decoration:;font-size: inherit;"># Computer()</tspan></tspan><tspan id="SvgjsTspan1132" dy="16" x="10"><tspan id="SvgjsTspan1133" style="text-decoration:;">+ setBoard(String):void</tspan></tspan><tspan id="SvgjsTspan1134" dy="16" x="10"><tspan id="SvgjsTspan1135" style="text-decoration:;">+ setDisplay(String):void</tspan></tspan><tspan id="SvgjsTspan1136" dy="16" x="10"><tspan id="SvgjsTspan1137" style="text-decoration:;">+ setOS():void</tspan></tspan></text></g></g><g id="SvgjsG1138"><path id="SvgjsPath1139" d="M145 464L145 435.5L145 435.5L145 407" stroke="#323232" stroke-width="1" fill="none" marker-end="url(#SvgjsMarker1140)"></path></g><g id="SvgjsG1142"><path id="SvgjsPath1143" d="M476 464L476 435.5L476 435.5L476 407" stroke="#323232" stroke-width="1" fill="none" marker-end="url(#SvgjsMarker1144)"></path></g><g id="SvgjsG1146"><path id="SvgjsPath1147" d="M145 247L145 216L145 216L145 185" stroke="#323232" stroke-width="1" fill="none" marker-end="url(#SvgjsMarker1148)"></path></g><g id="SvgjsG1150"><path id="SvgjsPath1151" d="M265 544L310.5 544L310.5 544L356 544" stroke-dasharray="8,5" stroke="#323232" stroke-width="1" fill="none" marker-end="url(#SvgjsMarker1152)"></path></g></svg>