<svg id="SvgjsSvg1006" width="532" height="291" xmlns="http://www.w3.org/2000/svg" version="1.1" xmlns:xlink="http://www.w3.org/1999/xlink" xmlns:svgjs="http://svgjs.com/svgjs"><defs id="SvgjsDefs1007"></defs><g id="SvgjsG1008" transform="translate(206,25)"><path id="SvgjsPath1009" d="M 0 0L 120 0L 120 60L 0 60Z" stroke="rgba(50,50,50,1)" stroke-width="1" fill-opacity="1" fill="#ffffff"></path><g id="SvgjsG1010"><text id="SvgjsText1011" font-family="&quot;Times New Roman&quot;" text-anchor="middle" font-size="13px" width="100px" fill="#323232" font-weight="400" align="middle" anchor="middle" family="&quot;Times New Roman&quot;" size="13px" weight="400" font-style="" opacity="1" y="20.05" transform="rotate(0)"><tspan id="SvgjsTspan1012" dy="16" x="60"><tspan id="SvgjsTspan1013" style="text-decoration:;">总公司</tspan></tspan></text></g></g><g id="SvgjsG1014" transform="translate(25,115)"><path id="SvgjsPath1015" d="M 0 0L 120 0L 120 60L 0 60Z" stroke="rgba(50,50,50,1)" stroke-width="1" fill-opacity="1" fill="#ffffff"></path><g id="SvgjsG1016"><text id="SvgjsText1017" font-family="&quot;Times New Roman&quot;" text-anchor="middle" font-size="13px" width="100px" fill="#323232" font-weight="400" align="middle" anchor="middle" family="&quot;Times New Roman&quot;" size="13px" weight="400" font-style="" opacity="1" y="20.05" transform="rotate(0)"><tspan id="SvgjsTspan1018" dy="16" x="60"><tspan id="SvgjsTspan1019" style="text-decoration:;">总公司行政部</tspan></tspan></text></g></g><g id="SvgjsG1020" transform="translate(206,115)"><path id="SvgjsPath1021" d="M 0 0L 120 0L 120 60L 0 60Z" stroke="rgba(50,50,50,1)" stroke-width="1" fill-opacity="1" fill="#ffffff"></path><g id="SvgjsG1022"><text id="SvgjsText1023" font-family="&quot;Times New Roman&quot;" text-anchor="middle" font-size="13px" width="100px" fill="#323232" font-weight="400" align="middle" anchor="middle" family="&quot;Times New Roman&quot;" size="13px" weight="400" font-style="" opacity="1" y="20.05" transform="rotate(0)"><tspan id="SvgjsTspan1024" dy="16" x="60"><tspan id="SvgjsTspan1025" style="text-decoration:;">子公司</tspan></tspan></text></g></g><g id="SvgjsG1026" transform="translate(115,206)"><path id="SvgjsPath1027" d="M 0 0L 120 0L 120 60L 0 60Z" stroke="rgba(50,50,50,1)" stroke-width="1" fill-opacity="1" fill="#ffffff"></path><g id="SvgjsG1028"><text id="SvgjsText1029" font-family="&quot;Times New Roman&quot;" text-anchor="middle" font-size="13px" width="100px" fill="#323232" font-weight="400" align="middle" anchor="middle" family="&quot;Times New Roman&quot;" size="13px" weight="400" font-style="" opacity="1" y="20.05" transform="rotate(0)"><tspan id="SvgjsTspan1030" dy="16" x="60"><tspan id="SvgjsTspan1031" style="text-decoration:;">子公司行政部</tspan></tspan></text></g></g><g id="SvgjsG1032" transform="translate(297,206)"><path id="SvgjsPath1033" d="M 0 0L 120 0L 120 60L 0 60Z" stroke="rgba(50,50,50,1)" stroke-width="1" fill-opacity="1" fill="#ffffff"></path><g id="SvgjsG1034"><text id="SvgjsText1035" font-family="&quot;Times New Roman&quot;" text-anchor="middle" font-size="13px" width="100px" fill="#323232" font-weight="400" align="middle" anchor="middle" family="&quot;Times New Roman&quot;" size="13px" weight="400" font-style="" opacity="1" y="20.05" transform="rotate(0)"><tspan id="SvgjsTspan1036" dy="16" x="60"><tspan id="SvgjsTspan1037" style="text-decoration:;">子公司研发部</tspan></tspan></text></g></g><g id="SvgjsG1038"><path id="SvgjsPath1039" d="M85 115L85 100L266 100L266 85" stroke="#323232" stroke-width="1" fill="none"></path></g><g id="SvgjsG1040"><path id="SvgjsPath1041" d="M266 115L266 100L266 100L266 85" stroke="#323232" stroke-width="1" fill="none"></path></g><g id="SvgjsG1042"><path id="SvgjsPath1043" d="M357 206L357 190.5L266 190.5L266 175" stroke="#323232" stroke-width="1" fill="none"></path></g><g id="SvgjsG1044"><path id="SvgjsPath1045" d="M175 206L175 190.5L266 190.5L266 175" stroke="#323232" stroke-width="1" fill="none"></path></g><g id="SvgjsG1046" transform="translate(387,115)"><path id="SvgjsPath1047" d="M 0 0L 120 0L 120 60L 0 60Z" stroke="rgba(50,50,50,1)" stroke-width="1" fill-opacity="1" fill="#ffffff"></path><g id="SvgjsG1048"><text id="SvgjsText1049" font-family="&quot;Times New Roman&quot;" text-anchor="middle" font-size="13px" width="100px" fill="#323232" font-weight="400" align="middle" anchor="middle" family="&quot;Times New Roman&quot;" size="13px" weight="400" font-style="" opacity="1" y="20.05" transform="rotate(0)"><tspan id="SvgjsTspan1050" dy="16" x="60"><tspan id="SvgjsTspan1051" style="text-decoration:;">总公司研发部</tspan></tspan></text></g></g><g id="SvgjsG1052"><path id="SvgjsPath1053" d="M266 85L266 100L447 100L447 115" stroke="#323232" stroke-width="1" fill="none"></path></g></svg>