<svg id="SvgjsSvg1006" width="900" height="783.109375" xmlns="http://www.w3.org/2000/svg" version="1.1" xmlns:xlink="http://www.w3.org/1999/xlink" xmlns:svgjs="http://svgjs.com/svgjs"><defs id="SvgjsDefs1007"><marker id="SvgjsMarker1158" markerWidth="16" markerHeight="16" refX="11" refY="8" viewBox="0 0 16 16" orient="auto" markerUnits="userSpaceOnUse" stroke-dasharray="0,0"><path id="SvgjsPath1159" d="M0,0 L10,8 L0,16" fill="none" stroke="#323232" stroke-width="1"></path></marker><marker id="SvgjsMarker1162" markerWidth="16" markerHeight="16" refX="11" refY="8" viewBox="0 0 16 16" orient="auto" markerUnits="userSpaceOnUse" stroke-dasharray="0,0"><path id="SvgjsPath1163" d="M0,0 L10,8 L0,16" fill="none" stroke="#323232" stroke-width="1"></path></marker><marker id="SvgjsMarker1172" markerWidth="16" markerHeight="16" refX="11" refY="8" viewBox="0 0 16 16" orient="auto" markerUnits="userSpaceOnUse" stroke-dasharray="0,0"><path id="SvgjsPath1173" d="M0,0 L10,8 L0,16" fill="none" stroke="#4d9900" stroke-width="1"></path></marker><marker id="SvgjsMarker1176" markerWidth="16" markerHeight="16" refX="11" refY="8" viewBox="0 0 16 16" orient="auto" markerUnits="userSpaceOnUse" stroke-dasharray="0,0"><path id="SvgjsPath1177" d="M0,0 L10,8 L0,16" fill="none" stroke="#4d9900" stroke-width="1"></path></marker><marker id="SvgjsMarker1180" markerWidth="16" markerHeight="16" refX="11" refY="8" viewBox="0 0 16 16" orient="auto" markerUnits="userSpaceOnUse" stroke-dasharray="0,0"><path id="SvgjsPath1181" d="M0,0 L10,8 L0,16" fill="none" stroke="#4d9900" stroke-width="1"></path></marker><marker id="SvgjsMarker1184" markerWidth="16" markerHeight="16" refX="11" refY="8" viewBox="0 0 16 16" orient="auto" markerUnits="userSpaceOnUse" stroke-dasharray="0,0"><path id="SvgjsPath1185" d="M0,0 L10,8 L0,16" fill="none" stroke="#4d9900" stroke-width="1"></path></marker><marker id="SvgjsMarker1188" markerWidth="14" markerHeight="12" refX="16" refY="6" viewBox="0 0 14 12" orient="auto" markerUnits="userSpaceOnUse" stroke-dasharray="0,0"><path id="SvgjsPath1189" d="M1,1 L14,6 L1,11L1,1" fill="#ffffff" stroke="#004c99" stroke-width="1"></path></marker><marker id="SvgjsMarker1196" markerWidth="14" markerHeight="12" refX="16" refY="6" viewBox="0 0 14 12" orient="auto" markerUnits="userSpaceOnUse" stroke-dasharray="0,0"><path id="SvgjsPath1197" d="M1,1 L14,6 L1,11L1,1" fill="#ffffff" stroke="#004c99" stroke-width="1"></path></marker></defs><g id="SvgjsG1008" transform="translate(635,206.7635030864201)"><path id="SvgjsPath1009" d="M 0 4Q 0 0 4 0L 236 0Q 240 0 240 4L 240 176Q 240 180 236 180L 4 180Q 0 180 0 176Z" stroke="rgba(50,50,50,1)" stroke-width="1" fill-opacity="1" fill="#ffffff"></path><path id="SvgjsPath1010" d="M 0 32L 240 32" stroke="rgba(50,50,50,1)" stroke-width="1" fill="none"></path><path id="SvgjsPath1011" d="M 0 0L 240 0L 240 180L 0 180Z" stroke="none" fill="none"></path><g id="SvgjsG1012"><text id="SvgjsText1013" font-family="&quot;Times New Roman&quot;" text-anchor="middle" font-size="13px" width="220px" fill="#323232" font-weight="700" align="middle" anchor="middle" family="&quot;Times New Roman&quot;" size="13px" weight="700" font-style="" opacity="1" y="-1.95" transform="rotate(0)"><tspan id="SvgjsTspan1014" dy="16" x="120"><tspan id="SvgjsTspan1015" style="text-decoration:;">&lt;&lt;interface&gt;&gt;</tspan></tspan><tspan id="SvgjsTspan1016" dy="16" x="120"><tspan id="SvgjsTspan1017" style="text-decoration:;">Command</tspan></tspan></text></g><g id="SvgjsG1018"><text id="SvgjsText1019" font-family="&quot;Times New Roman&quot;" text-anchor="start" font-size="13px" width="220px" fill="#323232" font-weight="400" align="middle" anchor="start" family="&quot;Times New Roman&quot;" size="13px" weight="400" font-style="" opacity="1" y="96.05" transform="rotate(0)"><tspan id="SvgjsTspan1020" dy="16" x="10"><tspan id="SvgjsTspan1021" style="text-decoration:;">+ execute():void</tspan></tspan></text></g></g><g id="SvgjsG1022" transform="translate(318.8255516604855,25.01041666666663)"><path id="SvgjsPath1023" d="M 0 4Q 0 0 4 0L 256 0Q 260 0 260 4L 260 116Q 260 120 256 120L 4 120Q 0 120 0 116Z" stroke="rgba(50,50,50,1)" stroke-width="1" fill-opacity="1" fill="#ffffff"></path><g id="SvgjsG1024"><text id="SvgjsText1025" font-family="&quot;Times New Roman&quot;" text-anchor="middle" font-size="13px" width="240px" fill="#323232" font-weight="700" align="middle" anchor="middle" family="&quot;Times New Roman&quot;" size="13px" weight="700" font-style="" opacity="1" y="50.05" transform="rotate(0)"><tspan id="SvgjsTspan1026" dy="16" x="130"><tspan id="SvgjsTspan1027" style="text-decoration:;">Client</tspan></tspan></text></g></g><g id="SvgjsG1028" transform="translate(318.82716049382725,208.12152777777794)"><path id="SvgjsPath1029" d="M 0 4Q 0 0 4 0L 256 0Q 260 0 260 4L 260 176Q 260 180 256 180L 4 180Q 0 180 0 176Z" stroke="rgba(50,50,50,1)" stroke-width="1" fill-opacity="1" fill="#ffffff"></path><path id="SvgjsPath1030" d="M 0 30L 260 30M 0 94L 260 94" stroke="rgba(50,50,50,1)" stroke-width="1" fill="none"></path><path id="SvgjsPath1031" d="M 0 0L 260 0L 260 180L 0 180Z" stroke="none" fill="none"></path><g id="SvgjsG1032"><text id="SvgjsText1033" font-family="&quot;Times New Roman&quot;" text-anchor="middle" font-size="13px" width="240px" fill="#323232" font-weight="700" align="middle" anchor="middle" family="&quot;Times New Roman&quot;" size="13px" weight="700" font-style="" opacity="1" y="5.05" transform="rotate(0)"><tspan id="SvgjsTspan1034" dy="16" x="130"><tspan id="SvgjsTspan1035" style="text-decoration:;">Buttons</tspan></tspan></text></g><g id="SvgjsG1036"><text id="SvgjsText1037" font-family="&quot;Times New Roman&quot;" text-anchor="start" font-size="13px" width="240px" fill="#323232" font-weight="400" align="middle" anchor="start" family="&quot;Times New Roman&quot;" size="13px" weight="400" font-style="" opacity="1" y="28.05" transform="rotate(0)"><tspan id="SvgjsTspan1038" dy="16" x="10"><tspan id="SvgjsTspan1039" style="text-decoration:;">- leftCommand:LeftCommand</tspan></tspan><tspan id="SvgjsTspan1040" dy="16" x="10"><tspan id="SvgjsTspan1041" style="text-decoration:;">- rightCommand:RightCommand</tspan></tspan><tspan id="SvgjsTspan1042" dy="16" x="10"><tspan id="SvgjsTspan1043" style="text-decoration:;">- fallCommand:FallCommand</tspan></tspan><tspan id="SvgjsTspan1044" dy="16" x="10"><tspan id="SvgjsTspan1045" style="text-decoration:;">- transCommand:TransCommand</tspan></tspan></text></g><g id="SvgjsG1046"><text id="SvgjsText1047" font-family="&quot;Times New Roman&quot;" text-anchor="start" font-size="13px" width="240px" fill="#323232" font-weight="400" align="middle" anchor="start" family="&quot;Times New Roman&quot;" size="13px" weight="400" font-style="" opacity="1" y="92.05" transform="rotate(0)"><tspan id="SvgjsTspan1048" dy="16" x="10"><tspan id="SvgjsTspan1049" style="text-decoration:;"> </tspan></tspan><tspan id="SvgjsTspan1050" dy="16" x="10"><tspan id="SvgjsTspan1051" style="text-decoration:;">+ setLeftCommand(LeftCommand):void</tspan></tspan><tspan id="SvgjsTspan1052" dy="16" x="10"><tspan id="SvgjsTspan1053" style="text-decoration:;">+ setRightCommand(RightCommand):void</tspan></tspan><tspan id="SvgjsTspan1054" dy="16" x="10"><tspan id="SvgjsTspan1055" style="text-decoration:;">+ setFallCommand(FallCommand):void</tspan></tspan><tspan id="SvgjsTspan1056" dy="16" x="10"><tspan id="SvgjsTspan1057" style="text-decoration:;">+ setTransCommand(TransCommand):void</tspan></tspan></text></g></g><g id="SvgjsG1058" transform="translate(25,451.34375)"><path id="SvgjsPath1059" d="M 0 4Q 0 0 4 0L 196 0Q 200 0 200 4L 200 116Q 200 120 196 120L 4 120Q 0 120 0 116Z" stroke="rgba(50,50,50,1)" stroke-width="1" fill-opacity="1" fill="#ffffff"></path><path id="SvgjsPath1060" d="M 0 30L 200 30M 0 60L 200 60" stroke="rgba(50,50,50,1)" stroke-width="1" fill="none"></path><path id="SvgjsPath1061" d="M 0 0L 200 0L 200 120L 0 120Z" stroke="none" fill="none"></path><g id="SvgjsG1062"><text id="SvgjsText1063" font-family="&quot;Times New Roman&quot;" text-anchor="middle" font-size="13px" width="180px" fill="#323232" font-weight="700" align="middle" anchor="middle" family="&quot;Times New Roman&quot;" size="13px" weight="700" font-style="" opacity="1" y="5.05" transform="rotate(0)"><tspan id="SvgjsTspan1064" dy="16" x="100"><tspan id="SvgjsTspan1065" style="text-decoration:;">LeftCommand</tspan></tspan></text></g><g id="SvgjsG1066"><text id="SvgjsText1067" font-family="&quot;Times New Roman&quot;" text-anchor="start" font-size="13px" width="180px" fill="#323232" font-weight="400" align="middle" anchor="start" family="&quot;Times New Roman&quot;" size="13px" weight="400" font-style="" opacity="1" y="35.05" transform="rotate(0)"><tspan id="SvgjsTspan1068" dy="16" x="10"><tspan id="SvgjsTspan1069" style="text-decoration:;">- machine:TetrisMachine</tspan></tspan></text></g><g id="SvgjsG1070"><text id="SvgjsText1071" font-family="&quot;Times New Roman&quot;" text-anchor="start" font-size="13px" width="180px" fill="#323232" font-weight="400" align="middle" anchor="start" family="&quot;Times New Roman&quot;" size="13px" weight="400" font-style="" opacity="1" y="58.05" transform="rotate(0)"><tspan id="SvgjsTspan1072" dy="16" x="10"><tspan id="SvgjsTspan1073" style="text-decoration:;"> </tspan></tspan><tspan id="SvgjsTspan1074" dy="16" x="10"><tspan id="SvgjsTspan1075" style="text-decoration:;">+ LeftCommand(TetrisMachine)</tspan></tspan><tspan id="SvgjsTspan1076" dy="16" x="10"><tspan id="SvgjsTspan1077" style="text-decoration:;">+ execute():void</tspan></tspan></text></g></g><g id="SvgjsG1078" transform="translate(318.8271604938273,638.1215277777776)"><path id="SvgjsPath1079" d="M 0 4Q 0 0 4 0L 256 0Q 260 0 260 4L 260 116Q 260 120 256 120L 4 120Q 0 120 0 116Z" stroke="rgba(50,50,50,1)" stroke-width="1" fill-opacity="1" fill="#ffffff"></path><path id="SvgjsPath1080" d="M 0 30L 260 30" stroke="rgba(50,50,50,1)" stroke-width="1" fill="none"></path><path id="SvgjsPath1081" d="M 0 0L 260 0L 260 120L 0 120Z" stroke="none" fill="none"></path><g id="SvgjsG1082"><text id="SvgjsText1083" font-family="&quot;Times New Roman&quot;" text-anchor="middle" font-size="13px" width="240px" fill="#323232" font-weight="700" align="middle" anchor="middle" family="&quot;Times New Roman&quot;" size="13px" weight="700" font-style="" opacity="1" y="5.05" transform="rotate(0)"><tspan id="SvgjsTspan1084" dy="16" x="130"><tspan id="SvgjsTspan1085" style="text-decoration:;">TetrisMachine</tspan></tspan></text></g><g id="SvgjsG1086"><text id="SvgjsText1087" font-family="&quot;Times New Roman&quot;" text-anchor="start" font-size="13px" width="240px" fill="#323232" font-weight="400" align="middle" anchor="start" family="&quot;Times New Roman&quot;" size="13px" weight="400" font-style="" opacity="1" y="41.05" transform="rotate(0)"><tspan id="SvgjsTspan1088" dy="16" x="10"><tspan id="SvgjsTspan1089" style="text-decoration:;">+ toLeft():void</tspan></tspan><tspan id="SvgjsTspan1090" dy="16" x="10"><tspan id="SvgjsTspan1091" style="text-decoration:;">+ toRight():void</tspan></tspan><tspan id="SvgjsTspan1092" dy="16" x="10"><tspan id="SvgjsTspan1093" style="text-decoration:;">+ fastToBottom():void</tspan></tspan><tspan id="SvgjsTspan1094" dy="16" x="10"><tspan id="SvgjsTspan1095" style="text-decoration:;">+ transform():void</tspan></tspan></text></g></g><g id="SvgjsG1096" transform="translate(241,451.34375)"><path id="SvgjsPath1097" d="M 0 4Q 0 0 4 0L 196 0Q 200 0 200 4L 200 116Q 200 120 196 120L 4 120Q 0 120 0 116Z" stroke="rgba(50,50,50,1)" stroke-width="1" fill-opacity="1" fill="#ffffff"></path><path id="SvgjsPath1098" d="M 0 30L 200 30M 0 60L 200 60" stroke="rgba(50,50,50,1)" stroke-width="1" fill="none"></path><path id="SvgjsPath1099" d="M 0 0L 200 0L 200 120L 0 120Z" stroke="none" fill="none"></path><g id="SvgjsG1100"><text id="SvgjsText1101" font-family="&quot;Times New Roman&quot;" text-anchor="middle" font-size="13px" width="180px" fill="#323232" font-weight="700" align="middle" anchor="middle" family="&quot;Times New Roman&quot;" size="13px" weight="700" font-style="" opacity="1" y="5.05" transform="rotate(0)"><tspan id="SvgjsTspan1102" dy="16" x="100"><tspan id="SvgjsTspan1103" style="text-decoration:;">RightCommand</tspan></tspan></text></g><g id="SvgjsG1104"><text id="SvgjsText1105" font-family="&quot;Times New Roman&quot;" text-anchor="start" font-size="13px" width="180px" fill="#323232" font-weight="400" align="middle" anchor="start" family="&quot;Times New Roman&quot;" size="13px" weight="400" font-style="" opacity="1" y="35.05" transform="rotate(0)"><tspan id="SvgjsTspan1106" dy="16" x="10"><tspan id="SvgjsTspan1107" style="text-decoration:;">- machine:TetrisMachine</tspan></tspan></text></g><g id="SvgjsG1108"><text id="SvgjsText1109" font-family="&quot;Times New Roman&quot;" text-anchor="start" font-size="13px" width="180px" fill="#323232" font-weight="400" align="middle" anchor="start" family="&quot;Times New Roman&quot;" size="13px" weight="400" font-style="" opacity="1" y="58.05" transform="rotate(0)"><tspan id="SvgjsTspan1110" dy="16" x="10"><tspan id="SvgjsTspan1111" style="text-decoration:;"> </tspan></tspan><tspan id="SvgjsTspan1112" dy="16" x="10"><tspan id="SvgjsTspan1113" style="text-decoration:;">+ RightCommand(TetrisMachine)</tspan></tspan><tspan id="SvgjsTspan1114" dy="16" x="10"><tspan id="SvgjsTspan1115" style="text-decoration:;">+ execute():void</tspan></tspan></text></g></g><g id="SvgjsG1116" transform="translate(459,451.34375)"><path id="SvgjsPath1117" d="M 0 4Q 0 0 4 0L 196 0Q 200 0 200 4L 200 116Q 200 120 196 120L 4 120Q 0 120 0 116Z" stroke="rgba(50,50,50,1)" stroke-width="1" fill-opacity="1" fill="#ffffff"></path><path id="SvgjsPath1118" d="M 0 30L 200 30M 0 60L 200 60" stroke="rgba(50,50,50,1)" stroke-width="1" fill="none"></path><path id="SvgjsPath1119" d="M 0 0L 200 0L 200 120L 0 120Z" stroke="none" fill="none"></path><g id="SvgjsG1120"><text id="SvgjsText1121" font-family="&quot;Times New Roman&quot;" text-anchor="middle" font-size="13px" width="180px" fill="#323232" font-weight="700" align="middle" anchor="middle" family="&quot;Times New Roman&quot;" size="13px" weight="700" font-style="" opacity="1" y="5.05" transform="rotate(0)"><tspan id="SvgjsTspan1122" dy="16" x="100"><tspan id="SvgjsTspan1123" style="text-decoration:;">FallCommand</tspan></tspan></text></g><g id="SvgjsG1124"><text id="SvgjsText1125" font-family="&quot;Times New Roman&quot;" text-anchor="start" font-size="13px" width="180px" fill="#323232" font-weight="400" align="middle" anchor="start" family="&quot;Times New Roman&quot;" size="13px" weight="400" font-style="" opacity="1" y="35.05" transform="rotate(0)"><tspan id="SvgjsTspan1126" dy="16" x="10"><tspan id="SvgjsTspan1127" style="text-decoration:;">- machine:TetrisMachine</tspan></tspan></text></g><g id="SvgjsG1128"><text id="SvgjsText1129" font-family="&quot;Times New Roman&quot;" text-anchor="start" font-size="13px" width="180px" fill="#323232" font-weight="400" align="middle" anchor="start" family="&quot;Times New Roman&quot;" size="13px" weight="400" font-style="" opacity="1" y="58.05" transform="rotate(0)"><tspan id="SvgjsTspan1130" dy="16" x="10"><tspan id="SvgjsTspan1131" style="text-decoration:;"> </tspan></tspan><tspan id="SvgjsTspan1132" dy="16" x="10"><tspan id="SvgjsTspan1133" style="text-decoration:;">+ FallCommand(TetrisMachine)</tspan></tspan><tspan id="SvgjsTspan1134" dy="16" x="10"><tspan id="SvgjsTspan1135" style="text-decoration:;">+ execute():void</tspan></tspan></text></g></g><g id="SvgjsG1136" transform="translate(675,451.34375)"><path id="SvgjsPath1137" d="M 0 4Q 0 0 4 0L 196 0Q 200 0 200 4L 200 116Q 200 120 196 120L 4 120Q 0 120 0 116Z" stroke="rgba(50,50,50,1)" stroke-width="1" fill-opacity="1" fill="#ffffff"></path><path id="SvgjsPath1138" d="M 0 30L 200 30M 0 60L 200 60" stroke="rgba(50,50,50,1)" stroke-width="1" fill="none"></path><path id="SvgjsPath1139" d="M 0 0L 200 0L 200 120L 0 120Z" stroke="none" fill="none"></path><g id="SvgjsG1140"><text id="SvgjsText1141" font-family="&quot;Times New Roman&quot;" text-anchor="middle" font-size="13px" width="180px" fill="#323232" font-weight="700" align="middle" anchor="middle" family="&quot;Times New Roman&quot;" size="13px" weight="700" font-style="" opacity="1" y="5.05" transform="rotate(0)"><tspan id="SvgjsTspan1142" dy="16" x="100"><tspan id="SvgjsTspan1143" style="text-decoration:;">TransCommand</tspan></tspan></text></g><g id="SvgjsG1144"><text id="SvgjsText1145" font-family="&quot;Times New Roman&quot;" text-anchor="start" font-size="13px" width="180px" fill="#323232" font-weight="400" align="middle" anchor="start" family="&quot;Times New Roman&quot;" size="13px" weight="400" font-style="" opacity="1" y="35.05" transform="rotate(0)"><tspan id="SvgjsTspan1146" dy="16" x="10"><tspan id="SvgjsTspan1147" style="text-decoration:;">- machine:TetrisMachine</tspan></tspan></text></g><g id="SvgjsG1148"><text id="SvgjsText1149" font-family="&quot;Times New Roman&quot;" text-anchor="start" font-size="13px" width="180px" fill="#323232" font-weight="400" align="middle" anchor="start" family="&quot;Times New Roman&quot;" size="13px" weight="400" font-style="" opacity="1" y="58.05" transform="rotate(0)"><tspan id="SvgjsTspan1150" dy="16" x="10"><tspan id="SvgjsTspan1151" style="text-decoration:;"> </tspan></tspan><tspan id="SvgjsTspan1152" dy="16" x="10"><tspan id="SvgjsTspan1153" style="text-decoration:;">+ TransCommand(TetrisMachine)</tspan></tspan><tspan id="SvgjsTspan1154" dy="16" x="10"><tspan id="SvgjsTspan1155" style="text-decoration:;">+ execute():void</tspan></tspan></text></g></g><g id="SvgjsG1156"><path id="SvgjsPath1157" d="M448.82555166048564 145.0104166666669L448.82555166048564 176.5659722222224L448.82716049382725 176.5659722222224L448.82716049382725 208.12152777777794" stroke-dasharray="8,5" stroke="#323232" stroke-width="1" fill="none" marker-end="url(#SvgjsMarker1158)"></path></g><g id="SvgjsG1160"><path id="SvgjsPath1161" d="M125 571.34375L125 604.7326388888888L448.82716049382725 604.7326388888888L448.82716049382725 638.1215277777776" stroke-dasharray="8,5" stroke="#323232" stroke-width="1" fill="none" marker-end="url(#SvgjsMarker1162)"></path></g><g id="SvgjsG1164"><path id="SvgjsPath1165" d="M341 571.34375L341 588.59375L341 588.59375L341 605.84375" stroke-dasharray="8,5" stroke="#323232" stroke-width="1" fill="none"></path></g><g id="SvgjsG1166"><path id="SvgjsPath1167" d="M559 571.34375L559 587.84375L559 587.84375L559 604.34375" stroke-dasharray="8,5" stroke="#323232" stroke-width="1" fill="none"></path></g><g id="SvgjsG1168"><path id="SvgjsPath1169" d="M783.3333333333333 570.8993055555555L783.3333333333333 604.5104166666665L448.82716049382725 604.5104166666665L448.82716049382725 638.1215277777776" stroke-dasharray="8,5" stroke="#323232" stroke-width="1" fill="none"></path></g><g id="SvgjsG1170"><path id="SvgjsPath1171" d="M448.82716049382725 388.12152777777794L448.82716049382725 430.7326388888889L125 430.7326388888889L125 451.34375" stroke-dasharray="8,5" stroke="#4d9900" stroke-width="1" fill="none" marker-end="url(#SvgjsMarker1172)"></path></g><g id="SvgjsG1174"><path id="SvgjsPath1175" d="M448.82716049382725 388.12152777777794L448.82716049382725 430.7326388888889L341 430.7326388888889L341 451.34375" stroke-dasharray="8,5" stroke="#4d9900" stroke-width="1" fill="none" marker-end="url(#SvgjsMarker1176)"></path></g><g id="SvgjsG1178"><path id="SvgjsPath1179" d="M448.82716049382725 388.12152777777794L448.82716049382725 430.7326388888889L559 430.7326388888889L559 451.34375" stroke-dasharray="8,5" stroke="#4d9900" stroke-width="1" fill="none" marker-end="url(#SvgjsMarker1180)"></path></g><g id="SvgjsG1182"><path id="SvgjsPath1183" d="M448.82716049382725 388.12152777777794L448.82716049382725 430.7326388888889L775 430.7326388888889L775 451.34375" stroke-dasharray="8,5" stroke="#4d9900" stroke-width="1" fill="none" marker-end="url(#SvgjsMarker1184)"></path></g><g id="SvgjsG1186"><path id="SvgjsPath1187" d="M174.44444444444446 452.01041666666663L174.44444444444446 408.0659722222224L755 408.0659722222224L755 388.12152777777806" stroke-dasharray="8,5" stroke="#004c99" stroke-width="1" fill="none" marker-end="url(#SvgjsMarker1188)"></path></g><g id="SvgjsG1190"><path id="SvgjsPath1191" d="M392.22222222222223 452.01041666666663L392.22222222222223 430.17708333333326L392.22222222222223 430.17708333333326L392.22222222222223 408.34375" stroke-dasharray="8,5" stroke="#004c99" stroke-width="1" fill="none"></path></g><g id="SvgjsG1192"><path id="SvgjsPath1193" d="M604.4444444444445 452.01041666666663L604.4444444444445 430.17708333333326L604.4444444444445 430.17708333333326L604.4444444444445 408.34375" stroke-dasharray="8,5" stroke="#004c99" stroke-width="1" fill="none"></path></g><g id="SvgjsG1194"><path id="SvgjsPath1195" d="M820 452.01041666666663L820 408.0659722222224L755 408.0659722222224L755 388.12152777777806" stroke-dasharray="8,5" stroke="#004c99" stroke-width="1" fill="none" marker-end="url(#SvgjsMarker1196)"></path></g></svg>