<svg id="SvgjsSvg1006" width="590" height="454" xmlns="http://www.w3.org/2000/svg" version="1.1" xmlns:xlink="http://www.w3.org/1999/xlink" xmlns:svgjs="http://svgjs.com/svgjs"><defs id="SvgjsDefs1007"><marker id="SvgjsMarker1062" markerWidth="14" markerHeight="12" refX="16" refY="6" viewBox="0 0 14 12" orient="auto" markerUnits="userSpaceOnUse" stroke-dasharray="0,0"><path id="SvgjsPath1063" d="M1,1 L14,6 L1,11L1,1" fill="#ffffff" stroke="#323232" stroke-width="1"></path></marker><marker id="SvgjsMarker1066" markerWidth="14" markerHeight="12" refX="16" refY="6" viewBox="0 0 14 12" orient="auto" markerUnits="userSpaceOnUse" stroke-dasharray="0,0"><path id="SvgjsPath1067" d="M1,1 L14,6 L1,11L1,1" fill="#ffffff" stroke="#323232" stroke-width="1"></path></marker><marker id="SvgjsMarker1070" markerWidth="20" markerHeight="12" refX="20" refY="6" viewBox="0 0 20 12" orient="auto" markerUnits="userSpaceOnUse" stroke-dasharray="0,0"><path id="SvgjsPath1071" d="M2,6 L10,2 L18,6 L10,10L2,6" fill="#ffffff" stroke="#323232" stroke-width="1"></path></marker></defs><g id="SvgjsG1008" transform="translate(325,95)"><path id="SvgjsPath1009" d="M 0 4Q 0 0 4 0L 236 0Q 240 0 240 4L 240 116Q 240 120 236 120L 4 120Q 0 120 0 116Z" stroke="rgba(50,50,50,1)" stroke-width="1" fill-opacity="1" fill="#ffffff"></path><path id="SvgjsPath1010" d="M 0 32L 240 32" stroke="rgba(50,50,50,1)" stroke-width="1" fill="none"></path><path id="SvgjsPath1011" d="M 0 0L 240 0L 240 120L 0 120Z" stroke="none" fill="none"></path><g id="SvgjsG1012"><text id="SvgjsText1013" font-family="&quot;Times New Roman&quot;" text-anchor="middle" font-size="13px" width="220px" fill="#323232" font-weight="700" align="middle" anchor="middle" family="&quot;Times New Roman&quot;" size="13px" weight="700" font-style="" opacity="1" y="-1.95" transform="rotate(0)"><tspan id="SvgjsTspan1014" dy="16" x="120"><tspan id="SvgjsTspan1015" style="text-decoration:;">&lt;&lt;interface&gt;&gt;</tspan></tspan><tspan id="SvgjsTspan1016" dy="16" x="120"><tspan id="SvgjsTspan1017" style="text-decoration:;">State</tspan></tspan></text></g><g id="SvgjsG1018"><text id="SvgjsText1019" font-family="&quot;Times New Roman&quot;" text-anchor="start" font-size="13px" width="220px" fill="#323232" font-weight="400" align="middle" anchor="start" family="&quot;Times New Roman&quot;" size="13px" weight="400" font-style="" opacity="1" y="66.05" transform="rotate(0)"><tspan id="SvgjsTspan1020" dy="16" x="10"><tspan id="SvgjsTspan1021" style="text-decoration:;">+ doSomeThing():void</tspan></tspan></text></g></g><g id="SvgjsG1022" transform="translate(25,95)"><path id="SvgjsPath1023" d="M 0 4Q 0 0 4 0L 236 0Q 240 0 240 4L 240 116Q 240 120 236 120L 4 120Q 0 120 0 116Z" stroke="rgba(50,50,50,1)" stroke-width="1" fill-opacity="1" fill="#ffffff"></path><path id="SvgjsPath1024" d="M 0 30L 240 30" stroke="rgba(50,50,50,1)" stroke-width="1" fill="none"></path><path id="SvgjsPath1025" d="M 0 0L 240 0L 240 120L 0 120Z" stroke="none" fill="none"></path><g id="SvgjsG1026"><text id="SvgjsText1027" font-family="&quot;Times New Roman&quot;" text-anchor="middle" font-size="13px" width="220px" fill="#323232" font-weight="700" align="middle" anchor="middle" family="&quot;Times New Roman&quot;" size="13px" weight="700" font-style="" opacity="1" y="5.05" transform="rotate(0)"><tspan id="SvgjsTspan1028" dy="16" x="120"><tspan id="SvgjsTspan1029" style="text-decoration:;">Context</tspan></tspan></text></g><g id="SvgjsG1030"><text id="SvgjsText1031" font-family="&quot;Times New Roman&quot;" text-anchor="start" font-size="13px" width="220px" fill="#323232" font-weight="400" align="middle" anchor="start" family="&quot;Times New Roman&quot;" size="13px" weight="400" font-style="" opacity="1" y="57.05" transform="rotate(0)"><tspan id="SvgjsTspan1032" dy="16" x="10"><tspan id="SvgjsTspan1033" style="text-decoration:;">+ setState(State)</tspan></tspan><tspan id="SvgjsTspan1034" dy="16" x="10"><tspan id="SvgjsTspan1035" style="text-decoration:;">+ doSomeThing():void</tspan></tspan></text></g></g><g id="SvgjsG1036" transform="translate(25,274)"><path id="SvgjsPath1037" d="M 0 4Q 0 0 4 0L 236 0Q 240 0 240 4L 240 116Q 240 120 236 120L 4 120Q 0 120 0 116Z" stroke="rgba(50,50,50,1)" stroke-width="1" fill-opacity="1" fill="#ffffff"></path><path id="SvgjsPath1038" d="M 0 30L 240 30" stroke="rgba(50,50,50,1)" stroke-width="1" fill="none"></path><path id="SvgjsPath1039" d="M 0 0L 240 0L 240 120L 0 120Z" stroke="none" fill="none"></path><g id="SvgjsG1040"><text id="SvgjsText1041" font-family="&quot;Times New Roman&quot;" text-anchor="middle" font-size="13px" width="220px" fill="#323232" font-weight="700" align="middle" anchor="middle" family="&quot;Times New Roman&quot;" size="13px" weight="700" font-style="" opacity="1" y="5.05" transform="rotate(0)"><tspan id="SvgjsTspan1042" dy="16" x="120"><tspan id="SvgjsTspan1043" style="text-decoration:;">ConcreteStateA</tspan></tspan></text></g><g id="SvgjsG1044"><text id="SvgjsText1045" font-family="&quot;Times New Roman&quot;" text-anchor="start" font-size="13px" width="220px" fill="#323232" font-weight="400" align="middle" anchor="start" family="&quot;Times New Roman&quot;" size="13px" weight="400" font-style="" opacity="1" y="65.05" transform="rotate(0)"><tspan id="SvgjsTspan1046" dy="16" x="10"><tspan id="SvgjsTspan1047" style="text-decoration:;">+ doSomeThing():void</tspan></tspan></text></g></g><g id="SvgjsG1048" transform="translate(325,274)"><path id="SvgjsPath1049" d="M 0 4Q 0 0 4 0L 236 0Q 240 0 240 4L 240 116Q 240 120 236 120L 4 120Q 0 120 0 116Z" stroke="rgba(50,50,50,1)" stroke-width="1" fill-opacity="1" fill="#ffffff"></path><path id="SvgjsPath1050" d="M 0 30L 240 30" stroke="rgba(50,50,50,1)" stroke-width="1" fill="none"></path><path id="SvgjsPath1051" d="M 0 0L 240 0L 240 120L 0 120Z" stroke="none" fill="none"></path><g id="SvgjsG1052"><text id="SvgjsText1053" font-family="&quot;Times New Roman&quot;" text-anchor="middle" font-size="13px" width="220px" fill="#323232" font-weight="700" align="middle" anchor="middle" family="&quot;Times New Roman&quot;" size="13px" weight="700" font-style="" opacity="1" y="5.05" transform="rotate(0)"><tspan id="SvgjsTspan1054" dy="16" x="120"><tspan id="SvgjsTspan1055" style="text-decoration:;">ConcreteStateB</tspan></tspan></text></g><g id="SvgjsG1056"><text id="SvgjsText1057" font-family="&quot;Times New Roman&quot;" text-anchor="start" font-size="13px" width="220px" fill="#323232" font-weight="400" align="middle" anchor="start" family="&quot;Times New Roman&quot;" size="13px" weight="400" font-style="" opacity="1" y="65.05" transform="rotate(0)"><tspan id="SvgjsTspan1058" dy="16" x="10"><tspan id="SvgjsTspan1059" style="text-decoration:;">+ doSomeThing():void</tspan></tspan></text></g></g><g id="SvgjsG1060"><path id="SvgjsPath1061" d="M445 274L445 244.5L445 244.5L445 215" stroke-dasharray="8,5" stroke="#323232" stroke-width="1" fill="none" marker-end="url(#SvgjsMarker1062)"></path></g><g id="SvgjsG1064"><path id="SvgjsPath1065" d="M145 274L145 244.5L445 244.5L445 215" stroke-dasharray="8,5" stroke="#323232" stroke-width="1" fill="none" marker-end="url(#SvgjsMarker1066)"></path></g><g id="SvgjsG1068"><path id="SvgjsPath1069" d="M325 155L295 155L295 155L265 155" stroke="#323232" stroke-width="1" fill="none" marker-end="url(#SvgjsMarker1070)"></path></g><g id="SvgjsG1072" transform="translate(25,25)"><path id="SvgjsPath1073" d="M 0 0L 240 0L 240 70L 0 70Z" stroke="none" fill="none"></path><g id="SvgjsG1074"><text id="SvgjsText1075" font-family="微软雅黑" text-anchor="middle" font-size="13px" width="240px" fill="#323232" font-weight="400" align="middle" anchor="middle" family="微软雅黑" size="13px" weight="400" font-style="" opacity="1" y="9.05" transform="rotate(0)"><tspan id="SvgjsTspan1076" dy="16" x="120"><tspan id="SvgjsTspan1077" style="text-decoration:;">环境类：定义客户感兴趣的接口，维护一</tspan></tspan><tspan id="SvgjsTspan1078" dy="16" x="120"><tspan id="SvgjsTspan1079" style="text-decoration:;">个 State 子类的实例，这实例定义了对象</tspan></tspan><tspan id="SvgjsTspan1080" dy="16" x="120"><tspan id="SvgjsTspan1081" style="text-decoration:;">的当前状态</tspan></tspan></text></g></g><g id="SvgjsG1082" transform="translate(325,60)"><path id="SvgjsPath1083" d="M 0 0L 240 0L 240 35L 0 35Z" stroke="none" fill="none"></path><g id="SvgjsG1084"><text id="SvgjsText1085" font-family="微软雅黑" text-anchor="middle" font-size="13px" width="240px" fill="#323232" font-weight="400" align="middle" anchor="middle" family="微软雅黑" size="13px" weight="400" font-style="" opacity="1" y="7.55" transform="rotate(0)"><tspan id="SvgjsTspan1086" dy="16" x="120"><tspan id="SvgjsTspan1087" style="text-decoration:;">抽象状态类 / 状态接口</tspan></tspan></text></g></g><g id="SvgjsG1088" transform="translate(25,394)"><path id="SvgjsPath1089" d="M 0 0L 240 0L 240 35L 0 35Z" stroke="none" fill="none"></path><g id="SvgjsG1090"><text id="SvgjsText1091" font-family="微软雅黑" text-anchor="middle" font-size="13px" width="240px" fill="#323232" font-weight="400" align="middle" anchor="middle" family="微软雅黑" size="13px" weight="400" font-style="" opacity="1" y="7.55" transform="rotate(0)"><tspan id="SvgjsTspan1092" dy="16" x="120"><tspan id="SvgjsTspan1093" style="text-decoration:;">具体状态类，既不同状态下的不同行为</tspan></tspan></text></g></g></svg>