<svg id="SvgjsSvg1006" width="410" height="184" xmlns="http://www.w3.org/2000/svg" version="1.1" xmlns:xlink="http://www.w3.org/1999/xlink" xmlns:svgjs="http://svgjs.com/svgjs"><defs id="SvgjsDefs1007"><marker id="SvgjsMarker1028" markerWidth="16" markerHeight="20" refX="0" refY="10" viewBox="0 0 16 20" orient="auto" markerUnits="userSpaceOnUse" stroke-dasharray="0,0"><path id="SvgjsPath1029" d="M15,1 L1,10 L15,19" fill="none" stroke="#323232" stroke-width="1"></path></marker><marker id="SvgjsMarker1030" markerWidth="16" markerHeight="16" refX="11" refY="8" viewBox="0 0 16 16" orient="auto" markerUnits="userSpaceOnUse" stroke-dasharray="0,0"><path id="SvgjsPath1031" d="M0,0 L10,8 L0,16" fill="none" stroke="#323232" stroke-width="1"></path></marker><marker id="SvgjsMarker1034" markerWidth="16" markerHeight="16" refX="11" refY="8" viewBox="0 0 16 16" orient="auto" markerUnits="userSpaceOnUse" stroke-dasharray="0,0"><path id="SvgjsPath1035" d="M0,0 L10,8 L0,16" fill="none" stroke="#323232" stroke-width="1"></path></marker><marker id="SvgjsMarker1038" markerWidth="16" markerHeight="20" refX="0" refY="10" viewBox="0 0 16 20" orient="auto" markerUnits="userSpaceOnUse" stroke-dasharray="0,0"><path id="SvgjsPath1039" d="M15,1 L1,10 L15,19" fill="none" stroke="#323232" stroke-width="1"></path></marker><marker id="SvgjsMarker1040" markerWidth="16" markerHeight="16" refX="11" refY="8" viewBox="0 0 16 16" orient="auto" markerUnits="userSpaceOnUse" stroke-dasharray="0,0"><path id="SvgjsPath1041" d="M0,0 L10,8 L0,16" fill="none" stroke="#323232" stroke-width="1"></path></marker></defs><g id="SvgjsG1008" transform="translate(145,25)"><path id="SvgjsPath1009" d="M 0 18Q 0 0 18 0L 102 0Q 120 0 120 18L 120 27Q 120 45 102 45L 18 45Q 0 45 0 27L 0 18Z" stroke="rgba(50,50,50,1)" stroke-width="1" fill-opacity="1" fill="#ffffff"></path><g id="SvgjsG1010"><text id="SvgjsText1011" font-family="微软雅黑" text-anchor="middle" font-size="13px" width="100px" fill="#323232" font-weight="400" align="middle" anchor="middle" family="微软雅黑" size="13px" weight="400" font-style="" opacity="1" y="12.55" transform="rotate(0)"><tspan id="SvgjsTspan1012" dy="16" x="60"><tspan id="SvgjsTspan1013" style="text-decoration:;">View</tspan></tspan></text></g></g><g id="SvgjsG1014" transform="translate(25,114)"><path id="SvgjsPath1015" d="M 0 18Q 0 0 18 0L 102 0Q 120 0 120 18L 120 27Q 120 45 102 45L 18 45Q 0 45 0 27L 0 18Z" stroke="rgba(50,50,50,1)" stroke-width="1" fill-opacity="1" fill="#ffffff"></path><g id="SvgjsG1016"><text id="SvgjsText1017" font-family="微软雅黑" text-anchor="middle" font-size="13px" width="100px" fill="#323232" font-weight="400" align="middle" anchor="middle" family="微软雅黑" size="13px" weight="400" font-style="" opacity="1" y="12.55" transform="rotate(0)"><tspan id="SvgjsTspan1018" dy="16" x="60"><tspan id="SvgjsTspan1019" style="text-decoration:;">Presenter</tspan></tspan></text></g></g><g id="SvgjsG1020" transform="translate(265,114)"><path id="SvgjsPath1021" d="M 0 18Q 0 0 18 0L 102 0Q 120 0 120 18L 120 27Q 120 45 102 45L 18 45Q 0 45 0 27L 0 18Z" stroke="rgba(50,50,50,1)" stroke-width="1" fill-opacity="1" fill="#ffffff"></path><g id="SvgjsG1022"><text id="SvgjsText1023" font-family="微软雅黑" text-anchor="middle" font-size="13px" width="100px" fill="#323232" font-weight="400" align="middle" anchor="middle" family="微软雅黑" size="13px" weight="400" font-style="" opacity="1" y="12.55" transform="rotate(0)"><tspan id="SvgjsTspan1024" dy="16" x="60"><tspan id="SvgjsTspan1025" style="text-decoration:;">Model</tspan></tspan></text></g></g><g id="SvgjsG1026"><path id="SvgjsPath1027" d="M85 114C 85 78.17319439302466 109.17319439302463 47.5 145 47.5" stroke="#323232" stroke-width="1" fill="none" marker-start="url(#SvgjsMarker1028)" marker-end="url(#SvgjsMarker1030)"></path></g><g id="SvgjsG1032"><path id="SvgjsPath1033" d="M145 136.5L205 136.5L205 136.5L265 136.5" stroke="#323232" stroke-width="1" fill="none" marker-end="url(#SvgjsMarker1034)"></path></g><g id="SvgjsG1036"><path id="SvgjsPath1037" d="M325 114C 325 78.17319439302466 300.6904737952325 50.6225118529519 265 47.5" stroke="#323232" stroke-width="1" fill="none" marker-start="url(#SvgjsMarker1038)" marker-end="url(#SvgjsMarker1040)"></path></g></svg>