<svg id="SvgjsSvg1006" width="590" height="349" xmlns="http://www.w3.org/2000/svg" version="1.1" xmlns:xlink="http://www.w3.org/1999/xlink" xmlns:svgjs="http://svgjs.com/svgjs"><defs id="SvgjsDefs1007"><marker id="SvgjsMarker1062" markerWidth="14" markerHeight="12" refX="16" refY="6" viewBox="0 0 14 12" orient="auto" markerUnits="userSpaceOnUse" stroke-dasharray="0,0"><path id="SvgjsPath1063" d="M1,1 L14,6 L1,11L1,1" fill="#ffffff" stroke="#323232" stroke-width="1"></path></marker><marker id="SvgjsMarker1066" markerWidth="14" markerHeight="12" refX="16" refY="6" viewBox="0 0 14 12" orient="auto" markerUnits="userSpaceOnUse" stroke-dasharray="0,0"><path id="SvgjsPath1067" d="M1,1 L14,6 L1,11L1,1" fill="#ffffff" stroke="#323232" stroke-width="1"></path></marker><marker id="SvgjsMarker1070" markerWidth="20" markerHeight="12" refX="20" refY="6" viewBox="0 0 20 12" orient="auto" markerUnits="userSpaceOnUse" stroke-dasharray="0,0"><path id="SvgjsPath1071" d="M2,6 L10,2 L18,6 L10,10L2,6" fill="#ffffff" stroke="#323232" stroke-width="1"></path></marker></defs><g id="SvgjsG1008" transform="translate(325,25)"><path id="SvgjsPath1009" d="M 0 4Q 0 0 4 0L 236 0Q 240 0 240 4L 240 116Q 240 120 236 120L 4 120Q 0 120 0 116Z" stroke="rgba(50,50,50,1)" stroke-width="1" fill-opacity="1" fill="#ffffff"></path><path id="SvgjsPath1010" d="M 0 32L 240 32" stroke="rgba(50,50,50,1)" stroke-width="1" fill="none"></path><path id="SvgjsPath1011" d="M 0 0L 240 0L 240 120L 0 120Z" stroke="none" fill="none"></path><g id="SvgjsG1012"><text id="SvgjsText1013" font-family="&quot;Times New Roman&quot;" text-anchor="middle" font-size="13px" width="220px" fill="#323232" font-weight="700" align="middle" anchor="middle" family="&quot;Times New Roman&quot;" size="13px" weight="700" font-style="" opacity="1" y="-1.95" transform="rotate(0)"><tspan id="SvgjsTspan1014" dy="16" x="120"><tspan id="SvgjsTspan1015" style="text-decoration:;">&lt;&lt;interface&gt;&gt;</tspan></tspan><tspan id="SvgjsTspan1016" dy="16" x="120"><tspan id="SvgjsTspan1017" style="text-decoration:;">CalculateStragety</tspan></tspan></text></g><g id="SvgjsG1018"><text id="SvgjsText1019" font-family="&quot;Times New Roman&quot;" text-anchor="start" font-size="13px" width="220px" fill="#323232" font-weight="400" align="middle" anchor="start" family="&quot;Times New Roman&quot;" size="13px" weight="400" font-style="" opacity="1" y="66.05" transform="rotate(0)"><tspan id="SvgjsTspan1020" dy="16" x="10"><tspan id="SvgjsTspan1021" style="text-decoration:;">+ calculatePrice(int):int</tspan></tspan></text></g></g><g id="SvgjsG1022" transform="translate(25,25)"><path id="SvgjsPath1023" d="M 0 4Q 0 0 4 0L 236 0Q 240 0 240 4L 240 116Q 240 120 236 120L 4 120Q 0 120 0 116Z" stroke="rgba(50,50,50,1)" stroke-width="1" fill-opacity="1" fill="#ffffff"></path><path id="SvgjsPath1024" d="M 0 30L 240 30" stroke="rgba(50,50,50,1)" stroke-width="1" fill="none"></path><path id="SvgjsPath1025" d="M 0 0L 240 0L 240 120L 0 120Z" stroke="none" fill="none"></path><g id="SvgjsG1026"><text id="SvgjsText1027" font-family="&quot;Times New Roman&quot;" text-anchor="middle" font-size="13px" width="220px" fill="#323232" font-weight="700" align="middle" anchor="middle" family="&quot;Times New Roman&quot;" size="13px" weight="700" font-style="" opacity="1" y="5.05" transform="rotate(0)"><tspan id="SvgjsTspan1028" dy="16" x="120"><tspan id="SvgjsTspan1029" style="text-decoration:;">TranficCalculator</tspan></tspan></text></g><g id="SvgjsG1030"><text id="SvgjsText1031" font-family="&quot;Times New Roman&quot;" text-anchor="start" font-size="13px" width="220px" fill="#323232" font-weight="400" align="middle" anchor="start" family="&quot;Times New Roman&quot;" size="13px" weight="400" font-style="" opacity="1" y="57.05" transform="rotate(0)"><tspan id="SvgjsTspan1032" dy="16" x="10"><tspan id="SvgjsTspan1033" style="text-decoration:;">+ calculatePrice(int):int</tspan></tspan><tspan id="SvgjsTspan1034" dy="16" x="10"><tspan id="SvgjsTspan1035" style="text-decoration:;">+ setStragety(CalculateStragety)</tspan></tspan></text></g></g><g id="SvgjsG1036" transform="translate(25,204)"><path id="SvgjsPath1037" d="M 0 4Q 0 0 4 0L 236 0Q 240 0 240 4L 240 116Q 240 120 236 120L 4 120Q 0 120 0 116Z" stroke="rgba(50,50,50,1)" stroke-width="1" fill-opacity="1" fill="#ffffff"></path><path id="SvgjsPath1038" d="M 0 30L 240 30" stroke="rgba(50,50,50,1)" stroke-width="1" fill="none"></path><path id="SvgjsPath1039" d="M 0 0L 240 0L 240 120L 0 120Z" stroke="none" fill="none"></path><g id="SvgjsG1040"><text id="SvgjsText1041" font-family="&quot;Times New Roman&quot;" text-anchor="middle" font-size="13px" width="220px" fill="#323232" font-weight="700" align="middle" anchor="middle" family="&quot;Times New Roman&quot;" size="13px" weight="700" font-style="" opacity="1" y="5.05" transform="rotate(0)"><tspan id="SvgjsTspan1042" dy="16" x="120"><tspan id="SvgjsTspan1043" style="text-decoration:;">BusStragety</tspan></tspan></text></g><g id="SvgjsG1044"><text id="SvgjsText1045" font-family="&quot;Times New Roman&quot;" text-anchor="start" font-size="13px" width="220px" fill="#323232" font-weight="400" align="middle" anchor="start" family="&quot;Times New Roman&quot;" size="13px" weight="400" font-style="" opacity="1" y="65.05" transform="rotate(0)"><tspan id="SvgjsTspan1046" dy="16" x="10"><tspan id="SvgjsTspan1047" style="text-decoration:;">+ calculatePrice(int):int</tspan></tspan></text></g></g><g id="SvgjsG1048" transform="translate(325,204)"><path id="SvgjsPath1049" d="M 0 4Q 0 0 4 0L 236 0Q 240 0 240 4L 240 116Q 240 120 236 120L 4 120Q 0 120 0 116Z" stroke="rgba(50,50,50,1)" stroke-width="1" fill-opacity="1" fill="#ffffff"></path><path id="SvgjsPath1050" d="M 0 30L 240 30" stroke="rgba(50,50,50,1)" stroke-width="1" fill="none"></path><path id="SvgjsPath1051" d="M 0 0L 240 0L 240 120L 0 120Z" stroke="none" fill="none"></path><g id="SvgjsG1052"><text id="SvgjsText1053" font-family="&quot;Times New Roman&quot;" text-anchor="middle" font-size="13px" width="220px" fill="#323232" font-weight="700" align="middle" anchor="middle" family="&quot;Times New Roman&quot;" size="13px" weight="700" font-style="" opacity="1" y="5.05" transform="rotate(0)"><tspan id="SvgjsTspan1054" dy="16" x="120"><tspan id="SvgjsTspan1055" style="text-decoration:;">SubwayStragety</tspan></tspan></text></g><g id="SvgjsG1056"><text id="SvgjsText1057" font-family="&quot;Times New Roman&quot;" text-anchor="start" font-size="13px" width="220px" fill="#323232" font-weight="400" align="middle" anchor="start" family="&quot;Times New Roman&quot;" size="13px" weight="400" font-style="" opacity="1" y="65.05" transform="rotate(0)"><tspan id="SvgjsTspan1058" dy="16" x="10"><tspan id="SvgjsTspan1059" style="text-decoration:;">+ calculatePrice(int):int</tspan></tspan></text></g></g><g id="SvgjsG1060"><path id="SvgjsPath1061" d="M445 204L445 174.5L445 174.5L445 145" stroke-dasharray="8,5" stroke="#323232" stroke-width="1" fill="none" marker-end="url(#SvgjsMarker1062)"></path></g><g id="SvgjsG1064"><path id="SvgjsPath1065" d="M145 204L145 174.5L445 174.5L445 145" stroke-dasharray="8,5" stroke="#323232" stroke-width="1" fill="none" marker-end="url(#SvgjsMarker1066)"></path></g><g id="SvgjsG1068"><path id="SvgjsPath1069" d="M325 85L295 85L295 85L265 85" stroke="#323232" stroke-width="1" fill="none" marker-end="url(#SvgjsMarker1070)"></path></g></svg>