<svg id="SvgjsSvg1006" width="619" height="380" xmlns="http://www.w3.org/2000/svg" version="1.1" xmlns:xlink="http://www.w3.org/1999/xlink" xmlns:svgjs="http://svgjs.com/svgjs"><defs id="SvgjsDefs1007"><marker id="SvgjsMarker1052" markerWidth="16" markerHeight="16" refX="11" refY="8" viewBox="0 0 16 16" orient="auto" markerUnits="userSpaceOnUse" stroke-dasharray="0,0"><path id="SvgjsPath1053" d="M0,0 L10,8 L0,16" fill="none" stroke="#323232" stroke-width="1"></path></marker><marker id="SvgjsMarker1062" markerWidth="20" markerHeight="12" refX="20" refY="6" viewBox="0 0 20 12" orient="auto" markerUnits="userSpaceOnUse" stroke-dasharray="0,0"><path id="SvgjsPath1063" d="M2,6 L10,2 L18,6 L10,10L2,6" fill="#ffffff" stroke="#323232" stroke-width="1"></path></marker><marker id="SvgjsMarker1098" markerWidth="16" markerHeight="16" refX="11" refY="8" viewBox="0 0 16 16" orient="auto" markerUnits="userSpaceOnUse" stroke-dasharray="0,0"><path id="SvgjsPath1099" d="M0,0 L10,8 L0,16" fill="none" stroke="#323232" stroke-width="1"></path></marker></defs><g id="SvgjsG1008" transform="translate(354,235)"><path id="SvgjsPath1009" d="M 0 4Q 0 0 4 0L 236 0Q 240 0 240 4L 240 116Q 240 120 236 120L 4 120Q 0 120 0 116Z" stroke="rgba(50,50,50,1)" stroke-width="1" fill-opacity="1" fill="#ffffff"></path><path id="SvgjsPath1010" d="M 0 30L 240 30M 0 78L 240 78" stroke="rgba(50,50,50,1)" stroke-width="1" fill="none"></path><path id="SvgjsPath1011" d="M 0 0L 240 0L 240 120L 0 120Z" stroke="none" fill="none"></path><g id="SvgjsG1012"><text id="SvgjsText1013" font-family="&quot;Times New Roman&quot;" text-anchor="middle" font-size="13px" width="220px" fill="#323232" font-weight="700" align="middle" anchor="middle" family="&quot;Times New Roman&quot;" size="13px" weight="700" font-style="" opacity="1" y="5.05" transform="rotate(0)"><tspan id="SvgjsTspan1014" dy="16" x="120"><tspan id="SvgjsTspan1015" style="text-decoration:;">Memoto</tspan></tspan></text></g><g id="SvgjsG1016"><text id="SvgjsText1017" font-family="&quot;Times New Roman&quot;" text-anchor="start" font-size="13px" width="220px" fill="#323232" font-weight="400" align="middle" anchor="start" family="&quot;Times New Roman&quot;" size="13px" weight="400" font-style="" opacity="1" y="28.05" transform="rotate(0)"><tspan id="SvgjsTspan1018" dy="16" x="10"><tspan id="SvgjsTspan1019" style="text-decoration:;">- mCheckPoint:int</tspan></tspan><tspan id="SvgjsTspan1020" dy="16" x="10"><tspan id="SvgjsTspan1021" style="text-decoration:;">- mLifeValue:int</tspan></tspan><tspan id="SvgjsTspan1022" dy="16" x="10"><tspan id="SvgjsTspan1023" style="text-decoration:;">- mWeapon:String</tspan></tspan></text></g><g id="SvgjsG1024"><text id="SvgjsText1025" font-family="&quot;Times New Roman&quot;" text-anchor="start" font-size="13px" width="220px" fill="#323232" font-weight="400" align="middle" anchor="start" family="&quot;Times New Roman&quot;" size="13px" weight="400" font-style="" opacity="1" y="76.05" transform="rotate(0)"><tspan id="SvgjsTspan1026" dy="16" x="10"><tspan id="SvgjsTspan1027" style="text-decoration:;"> </tspan></tspan><tspan id="SvgjsTspan1028" dy="16" x="10"><tspan id="SvgjsTspan1029" style="text-decoration:;">+ toString():String</tspan></tspan></text></g></g><g id="SvgjsG1030" transform="translate(354,25)"><path id="SvgjsPath1031" d="M 0 4Q 0 0 4 0L 236 0Q 240 0 240 4L 240 146Q 240 150 236 150L 4 150Q 0 150 0 146Z" stroke="rgba(50,50,50,1)" stroke-width="1" fill-opacity="1" fill="#ffffff"></path><path id="SvgjsPath1032" d="M 0 30L 240 30M 0 60L 240 60" stroke="rgba(50,50,50,1)" stroke-width="1" fill="none"></path><path id="SvgjsPath1033" d="M 0 0L 240 0L 240 150L 0 150Z" stroke="none" fill="none"></path><g id="SvgjsG1034"><text id="SvgjsText1035" font-family="&quot;Times New Roman&quot;" text-anchor="middle" font-size="13px" width="220px" fill="#323232" font-weight="700" align="middle" anchor="middle" family="&quot;Times New Roman&quot;" size="13px" weight="700" font-style="" opacity="1" y="5.05" transform="rotate(0)"><tspan id="SvgjsTspan1036" dy="16" x="120"><tspan id="SvgjsTspan1037" style="text-decoration:;">Caretaker</tspan></tspan></text></g><g id="SvgjsG1038"><text id="SvgjsText1039" font-family="&quot;Times New Roman&quot;" text-anchor="start" font-size="13px" width="220px" fill="#323232" font-weight="400" align="middle" anchor="start" family="&quot;Times New Roman&quot;" size="13px" weight="400" font-style="" opacity="1" y="35.05" transform="rotate(0)"><tspan id="SvgjsTspan1040" dy="16" x="10"><tspan id="SvgjsTspan1041" style="text-decoration:;">- mMemoto:Memoto</tspan></tspan></text></g><g id="SvgjsG1042"><text id="SvgjsText1043" font-family="&quot;Times New Roman&quot;" text-anchor="start" font-size="13px" width="220px" fill="#323232" font-weight="400" align="middle" anchor="start" family="&quot;Times New Roman&quot;" size="13px" weight="400" font-style="" opacity="1" y="58.05" transform="rotate(0)"><tspan id="SvgjsTspan1044" dy="16" x="10"><tspan id="SvgjsTspan1045" style="text-decoration:;"> </tspan></tspan><tspan id="SvgjsTspan1046" dy="16" x="10"><tspan id="SvgjsTspan1047" style="text-decoration:;">+ archive(Memoto):void</tspan></tspan><tspan id="SvgjsTspan1048" dy="16" x="10"><tspan id="SvgjsTspan1049" style="text-decoration:;">+ getMemoto():Memoto</tspan></tspan></text></g></g><g id="SvgjsG1050"><path id="SvgjsPath1051" d="M265 100L309.5 100L309.5 100L354 100" stroke-dasharray="8,5" stroke="#323232" stroke-width="1" fill="none" marker-end="url(#SvgjsMarker1052)"></path></g><g id="SvgjsG1054" transform="translate(279,70)"><path id="SvgjsPath1055" d="M 0 0L 60 0L 60 30L 0 30Z" stroke="none" fill="none"></path><g id="SvgjsG1056"><text id="SvgjsText1057" font-family="&quot;Times New Roman&quot;" text-anchor="middle" font-size="13px" width="60px" fill="#323232" font-weight="400" align="middle" anchor="middle" family="&quot;Times New Roman&quot;" size="13px" weight="400" font-style="" opacity="1" y="5.05" transform="rotate(0)"><tspan id="SvgjsTspan1058" dy="16" x="30"><tspan id="SvgjsTspan1059" style="text-decoration:;">&lt;&lt;use&gt;&gt;</tspan></tspan></text></g></g><g id="SvgjsG1060"><path id="SvgjsPath1061" d="M474 235L474 205L474 205L474 175" stroke="#323232" stroke-width="1" fill="none" marker-end="url(#SvgjsMarker1062)"></path></g><g id="SvgjsG1064" transform="translate(25,25)"><path id="SvgjsPath1065" d="M 0 4Q 0 0 4 0L 236 0Q 240 0 240 4L 240 146Q 240 150 236 150L 4 150Q 0 150 0 146Z" stroke="rgba(50,50,50,1)" stroke-width="1" fill-opacity="1" fill="#ffffff"></path><path id="SvgjsPath1066" d="M 0 30L 240 30M 0 78L 240 78" stroke="rgba(50,50,50,1)" stroke-width="1" fill="none"></path><path id="SvgjsPath1067" d="M 0 0L 240 0L 240 150L 0 150Z" stroke="none" fill="none"></path><g id="SvgjsG1068"><text id="SvgjsText1069" font-family="&quot;Times New Roman&quot;" text-anchor="middle" font-size="13px" width="220px" fill="#323232" font-weight="700" align="middle" anchor="middle" family="&quot;Times New Roman&quot;" size="13px" weight="700" font-style="" opacity="1" y="5.05" transform="rotate(0)"><tspan id="SvgjsTspan1070" dy="16" x="120"><tspan id="SvgjsTspan1071" style="text-decoration:;">CallOfDuty</tspan></tspan></text></g><g id="SvgjsG1072"><text id="SvgjsText1073" font-family="&quot;Times New Roman&quot;" text-anchor="start" font-size="13px" width="220px" fill="#323232" font-weight="400" align="middle" anchor="start" family="&quot;Times New Roman&quot;" size="13px" weight="400" font-style="" opacity="1" y="28.05" transform="rotate(0)"><tspan id="SvgjsTspan1074" dy="16" x="10"><tspan id="SvgjsTspan1075" style="text-decoration:;">- mCheckPoint:int</tspan></tspan><tspan id="SvgjsTspan1076" dy="16" x="10"><tspan id="SvgjsTspan1077" style="text-decoration:;">- mLifeValue:int</tspan></tspan><tspan id="SvgjsTspan1078" dy="16" x="10"><tspan id="SvgjsTspan1079" style="text-decoration:;">- mWeapon:String</tspan></tspan></text></g><g id="SvgjsG1080"><text id="SvgjsText1081" font-family="&quot;Times New Roman&quot;" text-anchor="start" font-size="13px" width="220px" fill="#323232" font-weight="400" align="middle" anchor="start" family="&quot;Times New Roman&quot;" size="13px" weight="400" font-style="" opacity="1" y="76.05" transform="rotate(0)"><tspan id="SvgjsTspan1082" dy="16" x="10"><tspan id="SvgjsTspan1083" style="text-decoration:;font-size: inherit;">+ play():void</tspan></tspan><tspan id="SvgjsTspan1084" dy="16" x="10"><tspan id="SvgjsTspan1085" style="text-decoration:;">+ quit():void</tspan></tspan><tspan id="SvgjsTspan1086" dy="16" x="10"><tspan id="SvgjsTspan1087" style="text-decoration:;">+ createMemoto():Memoto</tspan></tspan><tspan id="SvgjsTspan1088" dy="16" x="10"><tspan id="SvgjsTspan1089" style="text-decoration:;">+ restore(Memoto):void</tspan></tspan></text></g></g><g id="SvgjsG1090" transform="translate(25,235)"><path id="SvgjsPath1091" d="M 0 0L 240 0L 240 120L 0 120Z" stroke="rgba(50,50,50,1)" stroke-width="1" fill-opacity="1" fill="#ffffff"></path><g id="SvgjsG1092"><text id="SvgjsText1093" font-family="&quot;Times New Roman&quot;" text-anchor="middle" font-size="13px" width="220px" fill="#323232" font-weight="700" align="middle" anchor="middle" family="&quot;Times New Roman&quot;" size="13px" weight="700" font-style="" opacity="1" y="50.05" transform="rotate(0)"><tspan id="SvgjsTspan1094" dy="16" x="120"><tspan id="SvgjsTspan1095" style="text-decoration:;">Client</tspan></tspan></text></g></g><g id="SvgjsG1096"><path id="SvgjsPath1097" d="M145 235L145 205L145 205L145 175" stroke-dasharray="8,5" stroke="#323232" stroke-width="1" fill="none" marker-end="url(#SvgjsMarker1098)"></path></g></svg>