<svg id="SvgjsSvg1006" width="784" height="774.5" xmlns="http://www.w3.org/2000/svg" version="1.1" xmlns:xlink="http://www.w3.org/1999/xlink" xmlns:svgjs="http://svgjs.com/svgjs"><defs id="SvgjsDefs1007"><marker id="SvgjsMarker1148" markerWidth="14" markerHeight="12" refX="16" refY="6" viewBox="0 0 14 12" orient="auto" markerUnits="userSpaceOnUse" stroke-dasharray="0,0"><path id="SvgjsPath1149" d="M1,1 L14,6 L1,11L1,1" fill="#ffffff" stroke="#323232" stroke-width="1"></path></marker><marker id="SvgjsMarker1152" markerWidth="16" markerHeight="16" refX="11" refY="8" viewBox="0 0 16 16" orient="auto" markerUnits="userSpaceOnUse" stroke-dasharray="0,0"><path id="SvgjsPath1153" d="M0,0 L10,8 L0,16" fill="none" stroke="#323232" stroke-width="1"></path></marker><marker id="SvgjsMarker1156" markerWidth="16" markerHeight="16" refX="11" refY="8" viewBox="0 0 16 16" orient="auto" markerUnits="userSpaceOnUse" stroke-dasharray="0,0"><path id="SvgjsPath1157" d="M0,0 L10,8 L0,16" fill="none" stroke="#323232" stroke-width="1"></path></marker><marker id="SvgjsMarker1160" markerWidth="16" markerHeight="16" refX="11" refY="8" viewBox="0 0 16 16" orient="auto" markerUnits="userSpaceOnUse" stroke-dasharray="0,0"><path id="SvgjsPath1161" d="M0,0 L10,8 L0,16" fill="none" stroke="#323232" stroke-width="1"></path></marker><marker id="SvgjsMarker1164" markerWidth="16" markerHeight="16" refX="11" refY="8" viewBox="0 0 16 16" orient="auto" markerUnits="userSpaceOnUse" stroke-dasharray="0,0"><path id="SvgjsPath1165" d="M0,0 L10,8 L0,16" fill="none" stroke="#323232" stroke-width="1"></path></marker><marker id="SvgjsMarker1168" markerWidth="14" markerHeight="12" refX="16" refY="6" viewBox="0 0 14 12" orient="auto" markerUnits="userSpaceOnUse" stroke-dasharray="0,0"><path id="SvgjsPath1169" d="M1,1 L14,6 L1,11L1,1" fill="#ffffff" stroke="#323232" stroke-width="1"></path></marker></defs><g id="SvgjsG1008" transform="translate(282.5,25)"><path id="SvgjsPath1009" d="M 0 4Q 0 0 4 0L 216 0Q 220 0 220 4L 220 106Q 220 110 216 110L 4 110Q 0 110 0 106Z" stroke="rgba(50,50,50,1)" stroke-width="1" fill-opacity="1" fill="#ffffff"></path><path id="SvgjsPath1010" d="M 0 32L 220 32M 0 62L 220 62" stroke="rgba(50,50,50,1)" stroke-width="1" fill="none"></path><path id="SvgjsPath1011" d="M 0 0L 220 0L 220 110L 0 110Z" stroke="none" fill="none"></path><g id="SvgjsG1012"><text id="SvgjsText1013" font-family="&quot;Times New Roman&quot;" text-anchor="middle" font-size="13px" width="200px" fill="#323232" font-weight="700" align="middle" anchor="middle" family="&quot;Times New Roman&quot;" size="13px" weight="700" font-style="" opacity="1" y="-1.95" transform="rotate(0)"><tspan id="SvgjsTspan1014" dy="16" x="110"><tspan id="SvgjsTspan1015" style="text-decoration:;">&lt;&lt;abstract&gt;&gt;</tspan></tspan><tspan id="SvgjsTspan1016" dy="16" x="110"><tspan id="SvgjsTspan1017" style="text-decoration:;">Colleague</tspan></tspan></text></g><g id="SvgjsG1018"><text id="SvgjsText1019" font-family="&quot;Times New Roman&quot;" text-anchor="start" font-size="13px" width="200px" fill="#323232" font-weight="400" align="middle" anchor="start" family="&quot;Times New Roman&quot;" size="13px" weight="400" font-style="" opacity="1" y="37.05" transform="rotate(0)"><tspan id="SvgjsTspan1020" dy="16" x="10"><tspan id="SvgjsTspan1021" style="text-decoration:;"># mediator:Mediator</tspan></tspan></text></g><g id="SvgjsG1022"><text id="SvgjsText1023" font-family="&quot;Times New Roman&quot;" text-anchor="start" font-size="13px" width="200px" fill="#323232" font-weight="400" align="middle" anchor="start" family="&quot;Times New Roman&quot;" size="13px" weight="400" font-style="" opacity="1" y="60.05" transform="rotate(0)"><tspan id="SvgjsTspan1024" dy="16" x="10"><tspan id="SvgjsTspan1025" style="text-decoration:;"> </tspan></tspan><tspan id="SvgjsTspan1026" dy="16" x="10"><tspan id="SvgjsTspan1027" style="text-decoration:;">+ Colleague(Mediator)</tspan></tspan></text></g></g><g id="SvgjsG1028" transform="translate(25.000000000000057,196)"><path id="SvgjsPath1029" d="M 0 4Q 0 0 4 0L 156 0Q 160 0 160 4L 160 136Q 160 140 156 140L 4 140Q 0 140 0 136Z" stroke="rgba(50,50,50,1)" stroke-width="1" fill-opacity="1" fill="#ffffff"></path><path id="SvgjsPath1030" d="M 0 30L 160 30M 0 86L 160 86" stroke="rgba(50,50,50,1)" stroke-width="1" fill="none"></path><path id="SvgjsPath1031" d="M 0 0L 160 0L 160 140L 0 140Z" stroke="none" fill="none"></path><g id="SvgjsG1032"><text id="SvgjsText1033" font-family="&quot;Times New Roman&quot;" text-anchor="middle" font-size="13px" width="140px" fill="#323232" font-weight="700" align="middle" anchor="middle" family="&quot;Times New Roman&quot;" size="13px" weight="700" font-style="" opacity="1" y="5.05" transform="rotate(0)"><tspan id="SvgjsTspan1034" dy="16" x="80"><tspan id="SvgjsTspan1035" style="text-decoration:;">CPU</tspan></tspan></text></g><g id="SvgjsG1036"><text id="SvgjsText1037" font-family="&quot;Times New Roman&quot;" text-anchor="start" font-size="13px" width="140px" fill="#323232" font-weight="400" align="middle" anchor="start" family="&quot;Times New Roman&quot;" size="13px" weight="400" font-style="" opacity="1" y="40.05" transform="rotate(0)"><tspan id="SvgjsTspan1038" dy="16" x="10"><tspan id="SvgjsTspan1039" style="text-decoration:;">- dataVideo:String</tspan></tspan><tspan id="SvgjsTspan1040" dy="16" x="10"><tspan id="SvgjsTspan1041" style="text-decoration:;">- dataSound:String</tspan></tspan></text></g><g id="SvgjsG1042"><text id="SvgjsText1043" font-family="&quot;Times New Roman&quot;" text-anchor="start" font-size="13px" width="140px" fill="#323232" font-weight="400" align="middle" anchor="start" family="&quot;Times New Roman&quot;" size="13px" weight="400" font-style="" opacity="1" y="84.05" transform="rotate(0)"><tspan id="SvgjsTspan1044" dy="16" x="10"><tspan id="SvgjsTspan1045" style="text-decoration:;font-size: inherit;">+ CPU(Mediator)</tspan></tspan><tspan id="SvgjsTspan1046" dy="16" x="10"><tspan id="SvgjsTspan1047" style="text-decoration:;">+ decodeData(String):void</tspan></tspan></text></g></g><g id="SvgjsG1048" transform="translate(216.66666666666669,196)"><path id="SvgjsPath1049" d="M 0 4Q 0 0 4 0L 156 0Q 160 0 160 4L 160 136Q 160 140 156 140L 4 140Q 0 140 0 136Z" stroke="rgba(50,50,50,1)" stroke-width="1" fill-opacity="1" fill="#ffffff"></path><path id="SvgjsPath1050" d="M 0 30L 160 30M 0 60L 160 60" stroke="rgba(50,50,50,1)" stroke-width="1" fill="none"></path><path id="SvgjsPath1051" d="M 0 0L 160 0L 160 140L 0 140Z" stroke="none" fill="none"></path><g id="SvgjsG1052"><text id="SvgjsText1053" font-family="&quot;Times New Roman&quot;" text-anchor="middle" font-size="13px" width="140px" fill="#323232" font-weight="700" align="middle" anchor="middle" family="&quot;Times New Roman&quot;" size="13px" weight="700" font-style="" opacity="1" y="5.05" transform="rotate(0)"><tspan id="SvgjsTspan1054" dy="16" x="80"><tspan id="SvgjsTspan1055" style="text-decoration:;">CDDevice</tspan></tspan></text></g><g id="SvgjsG1056"><text id="SvgjsText1057" font-family="&quot;Times New Roman&quot;" text-anchor="start" font-size="13px" width="140px" fill="#323232" font-weight="400" align="middle" anchor="start" family="&quot;Times New Roman&quot;" size="13px" weight="400" font-style="" opacity="1" y="35.05" transform="rotate(0)"><tspan id="SvgjsTspan1058" dy="16" x="10"><tspan id="SvgjsTspan1059" style="text-decoration:;">- data:String</tspan></tspan></text></g><g id="SvgjsG1060"><text id="SvgjsText1061" font-family="&quot;Times New Roman&quot;" text-anchor="start" font-size="13px" width="140px" fill="#323232" font-weight="400" align="middle" anchor="start" family="&quot;Times New Roman&quot;" size="13px" weight="400" font-style="" opacity="1" y="58.05" transform="rotate(0)"><tspan id="SvgjsTspan1062" dy="16" x="10"><tspan id="SvgjsTspan1063" style="text-decoration:;"> </tspan></tspan><tspan id="SvgjsTspan1064" dy="16" x="10"><tspan id="SvgjsTspan1065" style="text-decoration:;">+ CDDevice(Mediator)</tspan></tspan><tspan id="SvgjsTspan1066" dy="16" x="10"><tspan id="SvgjsTspan1067" style="text-decoration:;">+ read():String</tspan></tspan><tspan id="SvgjsTspan1068" dy="16" x="10"><tspan id="SvgjsTspan1069" style="text-decoration:;">+ load():void</tspan></tspan></text></g></g><g id="SvgjsG1070" transform="translate(408.33333333333326,196)"><path id="SvgjsPath1071" d="M 0 4Q 0 0 4 0L 156 0Q 160 0 160 4L 160 136Q 160 140 156 140L 4 140Q 0 140 0 136Z" stroke="rgba(50,50,50,1)" stroke-width="1" fill-opacity="1" fill="#ffffff"></path><path id="SvgjsPath1072" d="M 0 30L 160 30M 0 60L 160 60" stroke="rgba(50,50,50,1)" stroke-width="1" fill="none"></path><path id="SvgjsPath1073" d="M 0 0L 160 0L 160 140L 0 140Z" stroke="none" fill="none"></path><g id="SvgjsG1074"><text id="SvgjsText1075" font-family="&quot;Times New Roman&quot;" text-anchor="middle" font-size="13px" width="140px" fill="#323232" font-weight="700" align="middle" anchor="middle" family="&quot;Times New Roman&quot;" size="13px" weight="700" font-style="" opacity="1" y="5.05" transform="rotate(0)"><tspan id="SvgjsTspan1076" dy="16" x="80"><tspan id="SvgjsTspan1077" style="text-decoration:;">GraphicsCard</tspan></tspan></text></g><g id="SvgjsG1078"><text id="SvgjsText1079" font-family="&quot;Times New Roman&quot;" text-anchor="start" font-size="13px" width="140px" fill="#323232" font-weight="400" align="middle" anchor="start" family="&quot;Times New Roman&quot;" size="13px" weight="400" font-style="" opacity="1" y="35.05" transform="rotate(0)"><tspan id="SvgjsTspan1080" dy="16" x="10"><tspan id="SvgjsTspan1081" style="text-decoration:;"> </tspan></tspan></text></g><g id="SvgjsG1082"><text id="SvgjsText1083" font-family="&quot;Times New Roman&quot;" text-anchor="start" font-size="13px" width="140px" fill="#323232" font-weight="400" align="middle" anchor="start" family="&quot;Times New Roman&quot;" size="13px" weight="400" font-style="" opacity="1" y="58.05" transform="rotate(0)"><tspan id="SvgjsTspan1084" dy="16" x="10"><tspan id="SvgjsTspan1085" style="text-decoration:;"> </tspan></tspan><tspan id="SvgjsTspan1086" dy="16" x="10"><tspan id="SvgjsTspan1087" style="text-decoration:;">+ GraphicsCard(Mediator)</tspan></tspan><tspan id="SvgjsTspan1088" dy="16" x="10"><tspan id="SvgjsTspan1089" style="text-decoration:;">+ videoPlay(String):void</tspan></tspan></text></g></g><g id="SvgjsG1090" transform="translate(599,196)"><path id="SvgjsPath1091" d="M 0 4Q 0 0 4 0L 156 0Q 160 0 160 4L 160 136Q 160 140 156 140L 4 140Q 0 140 0 136Z" stroke="rgba(50,50,50,1)" stroke-width="1" fill-opacity="1" fill="#ffffff"></path><path id="SvgjsPath1092" d="M 0 30L 160 30M 0 60L 160 60" stroke="rgba(50,50,50,1)" stroke-width="1" fill="none"></path><path id="SvgjsPath1093" d="M 0 0L 160 0L 160 140L 0 140Z" stroke="none" fill="none"></path><g id="SvgjsG1094"><text id="SvgjsText1095" font-family="&quot;Times New Roman&quot;" text-anchor="middle" font-size="13px" width="140px" fill="#323232" font-weight="700" align="middle" anchor="middle" family="&quot;Times New Roman&quot;" size="13px" weight="700" font-style="" opacity="1" y="5.05" transform="rotate(0)"><tspan id="SvgjsTspan1096" dy="16" x="80"><tspan id="SvgjsTspan1097" style="text-decoration:;">SoundCard</tspan></tspan></text></g><g id="SvgjsG1098"><text id="SvgjsText1099" font-family="&quot;Times New Roman&quot;" text-anchor="start" font-size="13px" width="140px" fill="#323232" font-weight="400" align="middle" anchor="start" family="&quot;Times New Roman&quot;" size="13px" weight="400" font-style="" opacity="1" y="35.05" transform="rotate(0)"><tspan id="SvgjsTspan1100" dy="16" x="10"><tspan id="SvgjsTspan1101" style="text-decoration:;"> </tspan></tspan></text></g><g id="SvgjsG1102"><text id="SvgjsText1103" font-family="&quot;Times New Roman&quot;" text-anchor="start" font-size="13px" width="140px" fill="#323232" font-weight="400" align="middle" anchor="start" family="&quot;Times New Roman&quot;" size="13px" weight="400" font-style="" opacity="1" y="58.05" transform="rotate(0)"><tspan id="SvgjsTspan1104" dy="16" x="10"><tspan id="SvgjsTspan1105" style="text-decoration:;"> </tspan></tspan><tspan id="SvgjsTspan1106" dy="16" x="10"><tspan id="SvgjsTspan1107" style="text-decoration:;">+ SoundCard(Mediator)</tspan></tspan><tspan id="SvgjsTspan1108" dy="16" x="10"><tspan id="SvgjsTspan1109" style="text-decoration:;">+ soundPlay(String):void</tspan></tspan></text></g></g><g id="SvgjsG1110" transform="translate(282.5,398)"><path id="SvgjsPath1111" d="M 0 4Q 0 0 4 0L 216 0Q 220 0 220 4L 220 176Q 220 180 216 180L 4 180Q 0 180 0 176Z" stroke="rgba(50,50,50,1)" stroke-width="1" fill-opacity="1" fill="#ffffff"></path><path id="SvgjsPath1112" d="M 0 30L 220 30M 0 94L 220 94" stroke="rgba(50,50,50,1)" stroke-width="1" fill="none"></path><path id="SvgjsPath1113" d="M 0 0L 220 0L 220 180L 0 180Z" stroke="none" fill="none"></path><g id="SvgjsG1114"><text id="SvgjsText1115" font-family="&quot;Times New Roman&quot;" text-anchor="middle" font-size="13px" width="200px" fill="#323232" font-weight="700" align="middle" anchor="middle" family="&quot;Times New Roman&quot;" size="13px" weight="700" font-style="" opacity="1" y="5.05" transform="rotate(0)"><tspan id="SvgjsTspan1116" dy="16" x="110"><tspan id="SvgjsTspan1117" style="text-decoration:;">MainBoard</tspan></tspan></text></g><g id="SvgjsG1118"><text id="SvgjsText1119" font-family="&quot;Times New Roman&quot;" text-anchor="start" font-size="13px" width="200px" fill="#323232" font-weight="400" align="middle" anchor="start" family="&quot;Times New Roman&quot;" size="13px" weight="400" font-style="" opacity="1" y="28.05" transform="rotate(0)"><tspan id="SvgjsTspan1120" dy="16" x="10"><tspan id="SvgjsTspan1121" style="text-decoration:;">+ cpu:CPU</tspan></tspan><tspan id="SvgjsTspan1122" dy="16" x="10"><tspan id="SvgjsTspan1123" style="text-decoration:;">+ cdDevice:CDDevice</tspan></tspan><tspan id="SvgjsTspan1124" dy="16" x="10"><tspan id="SvgjsTspan1125" style="text-decoration:;">+ graphicsCard:GraphicsCard</tspan></tspan><tspan id="SvgjsTspan1126" dy="16" x="10"><tspan id="SvgjsTspan1127" style="text-decoration:;">+ soundCard:SoundCard</tspan></tspan></text></g><g id="SvgjsG1128"><text id="SvgjsText1129" font-family="&quot;Times New Roman&quot;" text-anchor="start" font-size="13px" width="200px" fill="#323232" font-weight="400" align="middle" anchor="start" family="&quot;Times New Roman&quot;" size="13px" weight="400" font-style="" opacity="1" y="92.05" transform="rotate(0)"><tspan id="SvgjsTspan1130" dy="16" x="10"><tspan id="SvgjsTspan1131" style="text-decoration:;">+ changed(Colleague):void</tspan></tspan><tspan id="SvgjsTspan1132" dy="16" x="10"><tspan id="SvgjsTspan1133" style="text-decoration:;">- handleCPU(CPU):void</tspan></tspan><tspan id="SvgjsTspan1134" dy="16" x="10"><tspan id="SvgjsTspan1135" style="text-decoration:;">- handleCD(CDDevice):void</tspan></tspan><tspan id="SvgjsTspan1136" dy="16" x="10"><tspan id="SvgjsTspan1137" style="text-decoration:;">- handleGraphics(GraphicsCard):void</tspan></tspan><tspan id="SvgjsTspan1138" dy="16" x="10"><tspan id="SvgjsTspan1139" style="text-decoration:;">- handleSound(SoundCard):void</tspan></tspan></text></g></g><g id="SvgjsG1140"><path id="SvgjsPath1141" d="M488.33333333333326 196L488.33333333333326 181.25L488.33333333333326 181.25L488.33333333333326 166.5" stroke="#323232" stroke-width="1" fill="none"></path></g><g id="SvgjsG1142"><path id="SvgjsPath1143" d="M296.6666666666667 196L296.6666666666667 180.75L296.6666666666667 180.75L296.6666666666667 165.5" stroke="#323232" stroke-width="1" fill="none"></path></g><g id="SvgjsG1144"><path id="SvgjsPath1145" d="M679 196L679 165.5L392.5 165.5L392.5 135" stroke="#323232" stroke-width="1" fill="none"></path></g><g id="SvgjsG1146"><path id="SvgjsPath1147" d="M105.00000000000006 196L105.00000000000006 165.5L392.5 165.5L392.5 135" stroke="#323232" stroke-width="1" fill="none" marker-end="url(#SvgjsMarker1148)"></path></g><g id="SvgjsG1150"><path id="SvgjsPath1151" d="M392.5 398L392.5 367L105.00000000000006 367L105.00000000000006 336" stroke-dasharray="8,5" stroke="#323232" stroke-width="1" fill="none" marker-end="url(#SvgjsMarker1152)"></path></g><g id="SvgjsG1154"><path id="SvgjsPath1155" d="M392.5 398L392.5 367L296.6666666666667 367L296.6666666666667 336" stroke-dasharray="8,5" stroke="#323232" stroke-width="1" fill="none" marker-end="url(#SvgjsMarker1156)"></path></g><g id="SvgjsG1158"><path id="SvgjsPath1159" d="M392.5 398L392.5 367L679 367L679 336" stroke-dasharray="8,5" stroke="#323232" stroke-width="1" fill="none" marker-end="url(#SvgjsMarker1160)"></path></g><g id="SvgjsG1162"><path id="SvgjsPath1163" d="M392.5 398L392.5 367L488.33333333333326 367L488.33333333333326 336" stroke-dasharray="8,5" stroke="#323232" stroke-width="1" fill="none" marker-end="url(#SvgjsMarker1164)"></path></g><g id="SvgjsG1166"><path id="SvgjsPath1167" d="M392.5 578L392.5 608.75L392.5 608.75L392.5 639.5" stroke="#323232" stroke-width="1" fill="none" marker-end="url(#SvgjsMarker1168)"></path></g><g id="SvgjsG1170" transform="translate(282.5,639.5)"><path id="SvgjsPath1171" d="M 0 4Q 0 0 4 0L 216 0Q 220 0 220 4L 220 106Q 220 110 216 110L 4 110Q 0 110 0 106Z" stroke="rgba(50,50,50,1)" stroke-width="1" fill-opacity="1" fill="#ffffff"></path><path id="SvgjsPath1172" d="M 0 32L 220 32" stroke="rgba(50,50,50,1)" stroke-width="1" fill="none"></path><path id="SvgjsPath1173" d="M 0 0L 220 0L 220 110L 0 110Z" stroke="none" fill="none"></path><g id="SvgjsG1174"><text id="SvgjsText1175" font-family="&quot;Times New Roman&quot;" text-anchor="middle" font-size="13px" width="200px" fill="#323232" font-weight="700" align="middle" anchor="middle" family="&quot;Times New Roman&quot;" size="13px" weight="700" font-style="" opacity="1" y="-1.95" transform="rotate(0)"><tspan id="SvgjsTspan1176" dy="16" x="110"><tspan id="SvgjsTspan1177" style="text-decoration:;">&lt;&lt;abstract&gt;&gt;</tspan></tspan><tspan id="SvgjsTspan1178" dy="16" x="110"><tspan id="SvgjsTspan1179" style="text-decoration:;">Mediator</tspan></tspan></text></g><g id="SvgjsG1180"><text id="SvgjsText1181" font-family="&quot;Times New Roman&quot;" text-anchor="start" font-size="13px" width="200px" fill="#323232" font-weight="400" align="middle" anchor="start" family="&quot;Times New Roman&quot;" size="13px" weight="400" font-style="" opacity="1" y="61.05" transform="rotate(0)"><tspan id="SvgjsTspan1182" dy="16" x="10"><tspan id="SvgjsTspan1183" style="text-decoration:;">+ changed(Colleague):void</tspan></tspan></text></g></g></svg>