<svg id="SvgjsSvg1006" width="620" height="210" xmlns="http://www.w3.org/2000/svg" version="1.1" xmlns:xlink="http://www.w3.org/1999/xlink" xmlns:svgjs="http://svgjs.com/svgjs"><defs id="SvgjsDefs1007"><marker id="SvgjsMarker1016" markerWidth="12" markerHeight="8" refX="9" refY="4" viewBox="0 0 12 8" orient="auto" markerUnits="userSpaceOnUse" stroke-dasharray="0,0"><path id="SvgjsPath1017" d="M0,0 L12,4 L0,8 L0,0" fill="#323232" stroke="#323232" stroke-width="1"></path></marker><marker id="SvgjsMarker1032" markerWidth="12" markerHeight="8" refX="9" refY="4" viewBox="0 0 12 8" orient="auto" markerUnits="userSpaceOnUse" stroke-dasharray="0,0"><path id="SvgjsPath1033" d="M0,0 L12,4 L0,8 L0,0" fill="#323232" stroke="#323232" stroke-width="1"></path></marker><marker id="SvgjsMarker1054" markerWidth="12" markerHeight="8" refX="9" refY="4" viewBox="0 0 12 8" orient="auto" markerUnits="userSpaceOnUse" stroke-dasharray="0,0"><path id="SvgjsPath1055" d="M0,0 L12,4 L0,8 L0,0" fill="#323232" stroke="#323232" stroke-width="1"></path></marker></defs><g id="SvgjsG1008" transform="translate(40,75)"><path id="SvgjsPath1009" d="M 0 4Q 0 0 4 0L 116 0Q 120 0 120 4L 120 36Q 120 40 116 40L 4 40Q 0 40 0 36Z" stroke="rgba(50,50,50,1)" stroke-width="1" fill-opacity="1" fill="#ffffff"></path><g id="SvgjsG1010"><text id="SvgjsText1011" font-family="微软雅黑" text-anchor="middle" font-size="13px" width="100px" fill="#323232" font-weight="400" align="middle" lineHeight="125%" anchor="middle" family="微软雅黑" size="13px" weight="400" font-style="" opacity="1" y="9.375" transform="rotate(0)"><tspan id="SvgjsTspan1012" dy="16" x="60"><tspan id="SvgjsTspan1013" style="text-decoration:;">出离心</tspan></tspan></text></g></g><g id="SvgjsG1014"><path id="SvgjsPath1015" d="M520 115.5L520 145L100 145L100 116.80000000000001" stroke="#323232" stroke-width="1" fill="none" marker-end="url(#SvgjsMarker1016)"></path></g><g id="SvgjsG1018" transform="translate(250,75)"><path id="SvgjsPath1019" d="M 0 4Q 0 0 4 0L 116 0Q 120 0 120 4L 120 36Q 120 40 116 40L 4 40Q 0 40 0 36Z" stroke="rgba(50,50,50,1)" stroke-width="1" fill-opacity="1" fill="#ffffff"></path><g id="SvgjsG1020"><text id="SvgjsText1021" font-family="微软雅黑" text-anchor="middle" font-size="13px" width="100px" fill="#323232" font-weight="400" align="middle" lineHeight="125%" anchor="middle" family="微软雅黑" size="13px" weight="400" font-style="" opacity="1" y="9.375" transform="rotate(0)"><tspan id="SvgjsTspan1022" dy="16" x="60"><tspan id="SvgjsTspan1023" style="text-decoration:;">执着</tspan></tspan></text></g></g><g id="SvgjsG1024" transform="translate(460,75)"><path id="SvgjsPath1025" d="M 0 4Q 0 0 4 0L 116 0Q 120 0 120 4L 120 36Q 120 40 116 40L 4 40Q 0 40 0 36Z" stroke="rgba(50,50,50,1)" stroke-width="1" fill-opacity="1" fill="#ffffff"></path><g id="SvgjsG1026"><text id="SvgjsText1027" font-family="微软雅黑" text-anchor="middle" font-size="13px" width="100px" fill="#323232" font-weight="400" align="middle" lineHeight="125%" anchor="middle" family="微软雅黑" size="13px" weight="400" font-style="" opacity="1" y="9.375" transform="rotate(0)"><tspan id="SvgjsTspan1028" dy="16" x="60"><tspan id="SvgjsTspan1029" style="text-decoration:;">痛苦</tspan></tspan></text></g></g><g id="SvgjsG1030"><path id="SvgjsPath1031" d="M160.5 95L205 95L205 95L248.20000000000005 95" stroke="#323232" stroke-width="1" fill="none" marker-end="url(#SvgjsMarker1032)"></path></g><g id="SvgjsG1034" transform="translate(280,145)"><path id="SvgjsPath1035" d="M 0 0L 60 0L 60 40L 0 40Z" stroke="none" fill="none"></path><g id="SvgjsG1036"><text id="SvgjsText1037" font-family="微软雅黑" text-anchor="middle" font-size="13px" width="60px" fill="#4caf50" font-weight="400" align="middle" lineHeight="125%" anchor="middle" family="微软雅黑" size="13px" weight="400" font-style="" opacity="1" y="9.375" transform="rotate(0)"><tspan id="SvgjsTspan1038" dy="16" x="30"><tspan id="SvgjsTspan1039" style="text-decoration:;">修行</tspan></tspan></text></g></g><g id="SvgjsG1040" transform="translate(445,25)"><path id="SvgjsPath1041" d="M 0 0L 150 0L 150 40L 0 40Z" stroke="none" fill="none"></path><g id="SvgjsG1042"><text id="SvgjsText1043" font-family="微软雅黑" text-anchor="middle" font-size="13px" width="150px" fill="#f44336" font-weight="400" align="middle" lineHeight="125%" anchor="middle" family="微软雅黑" size="13px" weight="400" font-style="" opacity="1" y="9.375" transform="rotate(0)"><tspan id="SvgjsTspan1044" dy="16" x="75"><tspan id="SvgjsTspan1045" style="text-decoration:;">痛苦无时无刻存在身边</tspan></tspan></text></g></g><g id="SvgjsG1046" transform="translate(175,55)"><path id="SvgjsPath1047" d="M 0 0L 60 0L 60 40L 0 40Z" stroke="none" fill="none"></path><g id="SvgjsG1048"><text id="SvgjsText1049" font-family="微软雅黑" text-anchor="middle" font-size="13px" width="60px" fill="#4caf50" font-weight="400" align="middle" lineHeight="125%" anchor="middle" family="微软雅黑" size="13px" weight="400" font-style="" opacity="1" y="9.375" transform="rotate(0)"><tspan id="SvgjsTspan1050" dy="16" x="30"><tspan id="SvgjsTspan1051" style="text-decoration:;"> 化解</tspan></tspan></text></g></g><g id="SvgjsG1052"><path id="SvgjsPath1053" d="M370.5 95L415 95L415 95L458.20000000000005 95" stroke="#323232" stroke-width="1" fill="none" marker-end="url(#SvgjsMarker1054)"></path></g><g id="SvgjsG1056" transform="translate(385,55)"><path id="SvgjsPath1057" d="M 0 0L 60 0L 60 40L 0 40Z" stroke="none" fill="none"></path><g id="SvgjsG1058"><text id="SvgjsText1059" font-family="微软雅黑" text-anchor="middle" font-size="13px" width="60px" fill="#4caf50" font-weight="400" align="middle" lineHeight="125%" anchor="middle" family="微软雅黑" size="13px" weight="400" font-style="" opacity="1" y="9.375" transform="rotate(0)"><tspan id="SvgjsTspan1060" dy="16" x="30"><tspan id="SvgjsTspan1061" style="text-decoration:;">减缓</tspan></tspan></text></g></g><g id="SvgjsG1062" transform="translate(25,25)"><path id="SvgjsPath1063" d="M 0 0L 150 0L 150 40L 0 40Z" stroke="none" fill="none"></path><g id="SvgjsG1064"><text id="SvgjsText1065" font-family="微软雅黑" text-anchor="middle" font-size="13px" width="150px" fill="#f44336" font-weight="400" align="middle" lineHeight="125%" anchor="middle" family="微软雅黑" size="13px" weight="400" font-style="" opacity="1" y="9.375" transform="rotate(0)"><tspan id="SvgjsTspan1066" dy="16" x="75"><tspan id="SvgjsTspan1067" style="text-decoration:;">不要理解为厌世</tspan></tspan></text></g></g></svg>