<svg id="SvgjsSvg1006" width="517" height="290" xmlns="http://www.w3.org/2000/svg" version="1.1" xmlns:xlink="http://www.w3.org/1999/xlink" xmlns:svgjs="http://svgjs.com/svgjs"><defs id="SvgjsDefs1007"><marker id="SvgjsMarker1036" markerWidth="12" markerHeight="8" refX="9" refY="4" viewBox="0 0 12 8" orient="auto" markerUnits="userSpaceOnUse" stroke-dasharray="0,0"><path id="SvgjsPath1037" d="M0,0 L12,4 L0,8 L0,0" fill="#323232" stroke="#323232" stroke-width="1"></path></marker><marker id="SvgjsMarker1052" markerWidth="12" markerHeight="8" refX="9" refY="4" viewBox="0 0 12 8" orient="auto" markerUnits="userSpaceOnUse" stroke-dasharray="0,0"><path id="SvgjsPath1053" d="M0,0 L12,4 L0,8 L0,0" fill="#323232" stroke="#323232" stroke-width="1"></path></marker></defs><g id="SvgjsG1008" transform="translate(25,108)"><path id="SvgjsPath1009" d="M 0 4Q 0 0 4 0L 116 0Q 120 0 120 4L 120 36Q 120 40 116 40L 4 40Q 0 40 0 36Z" stroke="rgba(50,50,50,1)" stroke-width="1" fill-opacity="1" fill="#ffffff"></path><g id="SvgjsG1010"><text id="SvgjsText1011" font-family="微软雅黑" text-anchor="middle" font-size="13px" width="100px" fill="#323232" font-weight="400" align="middle" lineHeight="125%" anchor="middle" family="微软雅黑" size="13px" weight="400" font-style="" opacity="1" y="9.375" transform="rotate(0)"><tspan id="SvgjsTspan1012" dy="16" x="60"><tspan id="SvgjsTspan1013" style="text-decoration:;">痛苦</tspan></tspan></text></g></g><g id="SvgjsG1014" transform="translate(205,76)"><path id="SvgjsPath1015" d="M 0 4Q 0 0 4 0L 282 0Q 286 0 286 4L 286 100Q 286 104 282 104L 4 104Q 0 104 0 100Z" stroke="rgba(50,50,50,1)" stroke-width="1" fill-opacity="1" fill="#ffffff"></path><g id="SvgjsG1016"><text id="SvgjsText1017" font-family="微软雅黑" text-anchor="middle" font-size="13px" width="266px" fill="#323232" font-weight="400" align="middle" lineHeight="125%" anchor="middle" family="微软雅黑" size="13px" weight="400" font-style="" opacity="1" y="8.875" transform="rotate(0)"><tspan id="SvgjsTspan1018" dy="16" x="143"><tspan id="SvgjsTspan1019" style="text-decoration:;">我执</tspan></tspan><tspan id="SvgjsTspan1020" dy="16" x="143"><tspan id="SvgjsTspan1021" style="text-decoration:;"> </tspan></tspan><tspan id="SvgjsTspan1022" dy="16" x="143"><tspan id="SvgjsTspan1023" style="text-decoration:;"> </tspan></tspan><tspan id="SvgjsTspan1024" dy="16" x="143"><tspan id="SvgjsTspan1025" style="text-decoration:;"> </tspan></tspan><tspan id="SvgjsTspan1026" dy="16" x="143"><tspan id="SvgjsTspan1027" style="text-decoration:;"> </tspan></tspan></text></g></g><g id="SvgjsG1028" transform="translate(222,225)"><path id="SvgjsPath1029" d="M 0 4Q 0 0 4 0L 116 0Q 120 0 120 4L 120 36Q 120 40 116 40L 4 40Q 0 40 0 36Z" stroke="rgba(50,50,50,1)" stroke-width="1" fill-opacity="1" fill="#ffffff"></path><g id="SvgjsG1030"><text id="SvgjsText1031" font-family="微软雅黑" text-anchor="middle" font-size="13px" width="100px" fill="#323232" font-weight="400" align="middle" lineHeight="125%" anchor="middle" family="微软雅黑" size="13px" weight="400" font-style="" opacity="1" y="9.375" transform="rotate(0)"><tspan id="SvgjsTspan1032" dy="16" x="60"><tspan id="SvgjsTspan1033" style="text-decoration:;">菩提心</tspan></tspan></text></g></g><g id="SvgjsG1034"><path id="SvgjsPath1035" d="M282 165.5L282 195L282 195L282 223.2" stroke="#323232" stroke-width="1" fill="none" marker-end="url(#SvgjsMarker1036)"></path></g><g id="SvgjsG1038" transform="translate(222,125)"><path id="SvgjsPath1039" d="M 0 4Q 0 0 4 0L 116 0Q 120 0 120 4L 120 36Q 120 40 116 40L 4 40Q 0 40 0 36Z" stroke="rgba(50,50,50,1)" stroke-width="1" fill-opacity="1" fill="#f5f5f5"></path><g id="SvgjsG1040"><text id="SvgjsText1041" font-family="微软雅黑" text-anchor="middle" font-size="13px" width="100px" fill="#323232" font-weight="400" align="middle" lineHeight="125%" anchor="middle" family="微软雅黑" size="13px" weight="400" font-style="" opacity="1" y="9.375" transform="rotate(0)"><tspan id="SvgjsTspan1042" dy="16" x="60"><tspan id="SvgjsTspan1043" style="text-decoration:;">无我</tspan></tspan></text></g></g><g id="SvgjsG1044" transform="translate(357,125)"><path id="SvgjsPath1045" d="M 0 4Q 0 0 4 0L 116 0Q 120 0 120 4L 120 36Q 120 40 116 40L 4 40Q 0 40 0 36Z" stroke="rgba(50,50,50,1)" stroke-width="1" fill-opacity="1" fill="#f5f5f5"></path><g id="SvgjsG1046"><text id="SvgjsText1047" font-family="微软雅黑" text-anchor="middle" font-size="13px" width="100px" fill="#323232" font-weight="400" align="middle" lineHeight="125%" anchor="middle" family="微软雅黑" size="13px" weight="400" font-style="" opacity="1" y="9.375" transform="rotate(0)"><tspan id="SvgjsTspan1048" dy="16" x="60"><tspan id="SvgjsTspan1049" style="text-decoration:;">无常</tspan></tspan></text></g></g><g id="SvgjsG1050"><path id="SvgjsPath1051" d="M204.5 128L175 128L175 128L146.79999999999995 128" stroke="#323232" stroke-width="1" fill="none" marker-end="url(#SvgjsMarker1052)"></path></g><g id="SvgjsG1054" transform="translate(282,183)"><path id="SvgjsPath1055" d="M 0 0L 60 0L 60 40L 0 40Z" stroke="none" fill="none"></path><g id="SvgjsG1056"><text id="SvgjsText1057" font-family="微软雅黑" text-anchor="middle" font-size="13px" width="60px" fill="#4caf50" font-weight="400" align="middle" lineHeight="125%" anchor="middle" family="微软雅黑" size="13px" weight="400" font-style="" opacity="1" y="9.375" transform="rotate(0)"><tspan id="SvgjsTspan1058" dy="16" x="30"><tspan id="SvgjsTspan1059" style="text-decoration:;">修行</tspan></tspan></text></g></g><g id="SvgjsG1060" transform="translate(222,25)"><path id="SvgjsPath1061" d="M 0 0L 120 0L 120 40L 0 40Z" stroke="none" fill="none"></path><g id="SvgjsG1062"><text id="SvgjsText1063" font-family="微软雅黑" text-anchor="middle" font-size="13px" width="120px" fill="#4caf50" font-weight="400" align="middle" lineHeight="125%" anchor="middle" family="微软雅黑" size="13px" weight="400" font-style="" opacity="1" y="9.375" transform="rotate(0)"><tspan id="SvgjsTspan1064" dy="16" x="60"><tspan id="SvgjsTspan1065" style="text-decoration:;">辩证看待事物</tspan></tspan></text></g></g><g id="SvgjsG1066" transform="translate(357,25)"><path id="SvgjsPath1067" d="M 0 0L 120 0L 120 40L 0 40Z" stroke="none" fill="none"></path><g id="SvgjsG1068"><text id="SvgjsText1069" font-family="微软雅黑" text-anchor="middle" font-size="13px" width="120px" fill="#4caf50" font-weight="400" align="middle" lineHeight="125%" anchor="middle" family="微软雅黑" size="13px" weight="400" font-style="" opacity="1" y="9.375" transform="rotate(0)"><tspan id="SvgjsTspan1070" dy="16" x="60"><tspan id="SvgjsTspan1071" style="text-decoration:;">变化的普遍性</tspan></tspan></text></g></g><g id="SvgjsG1072"><path id="SvgjsPath1073" d="M417 66L417 95L417 95L417 124.5" stroke-dasharray="8,5" stroke="#323232" stroke-width="1" fill="none"></path></g><g id="SvgjsG1074"><path id="SvgjsPath1075" d="M282 66L282 95L282 95L282 124.5" stroke-dasharray="8,5" stroke="#323232" stroke-width="1" fill="none"></path></g><g id="SvgjsG1076" transform="translate(145,88)"><path id="SvgjsPath1077" d="M 0 0L 60 0L 60 40L 0 40Z" stroke="none" fill="none"></path><g id="SvgjsG1078"><text id="SvgjsText1079" font-family="微软雅黑" text-anchor="middle" font-size="13px" width="60px" fill="#4caf50" font-weight="400" align="middle" lineHeight="125%" anchor="middle" family="微软雅黑" size="13px" weight="400" font-style="" opacity="1" y="9.375" transform="rotate(0)"><tspan id="SvgjsTspan1080" dy="16" x="30"><tspan id="SvgjsTspan1081" style="text-decoration:;">造成</tspan></tspan></text></g></g><g id="SvgjsG1082" transform="translate(342,225)"><path id="SvgjsPath1083" d="M 0 0L 150 0L 150 40L 0 40Z" stroke="none" fill="none"></path><g id="SvgjsG1084"><text id="SvgjsText1085" font-family="&quot;Times New Roman&quot;" text-anchor="middle" font-size="13px" width="150px" fill="#e0e0e0" font-weight="400" align="middle" lineHeight="125%" anchor="middle" family="&quot;Times New Roman&quot;" size="13px" weight="400" font-style="" opacity="1" y="9.375" transform="rotate(0)"><tspan id="SvgjsTspan1086" dy="16" x="75"><tspan id="SvgjsTspan1087" style="text-decoration:;">www.kofes.cn</tspan></tspan></text></g></g></svg>