<svg id="SvgjsSvg1006" width="738" height="295" xmlns="http://www.w3.org/2000/svg" version="1.1" xmlns:xlink="http://www.w3.org/1999/xlink" xmlns:svgjs="http://svgjs.com/svgjs"><defs id="SvgjsDefs1007"></defs><g id="SvgjsG1008" transform="translate(25,25.00617000034879)"><path id="SvgjsPath1009" d="M 0 0L 688 0L 688 244.8688299996512L 0 244.8688299996512Z" stroke="rgba(50,50,50,1)" stroke-width="1" fill-opacity="1" fill="#ffffff"></path><g id="SvgjsG1010"><text id="SvgjsText1011" font-family="&quot;Times New Roman&quot;" text-anchor="middle" font-size="13px" width="668px" fill="#323232" font-weight="400" align="middle" lineHeight="125%" anchor="middle" family="&quot;Times New Roman&quot;" size="13px" weight="400" font-style="" opacity="1" y="111.8094149998256" transform="rotate(0)"></text></g></g><g id="SvgjsG1012" transform="translate(25,25.00617000034879)"><path id="SvgjsPath1013" d="M 0 0L 688 0L 688 45L 0 45Z" stroke="none" fill="none"></path><g id="SvgjsG1014"><text id="SvgjsText1015" font-family="&quot;Times New Roman&quot;" text-anchor="middle" font-size="13px" width="688px" fill="#000000" font-weight="400" align="middle" lineHeight="125%" anchor="middle" family="&quot;Times New Roman&quot;" size="13px" weight="400" font-style="" opacity="1" y="11.875" transform="rotate(0)"><tspan id="SvgjsTspan1016" dy="16" x="344"><tspan id="SvgjsTspan1017" style="text-decoration:;">JVM 堆内存</tspan></tspan></text></g></g><g id="SvgjsG1018" transform="translate(53,70.50617000034879)"><path id="SvgjsPath1019" d="M 0 0L 314 0L 314 170.3688299996512L 0 170.3688299996512Z" stroke="rgba(50,50,50,1)" stroke-width="1" fill-opacity="1" fill="#ffffff"></path><g id="SvgjsG1020"><text id="SvgjsText1021" font-family="&quot;Times New Roman&quot;" text-anchor="middle" font-size="13px" width="294px" fill="#323232" font-weight="400" align="middle" lineHeight="125%" anchor="middle" family="&quot;Times New Roman&quot;" size="13px" weight="400" font-style="" opacity="1" y="74.5594149998256" transform="rotate(0)"></text></g></g><g id="SvgjsG1022" transform="translate(84,115.00617000034879)"><path id="SvgjsPath1023" d="M 0 4Q 0 0 4 0L 146 0Q 150 0 150 4L 150 96Q 150 100 146 100L 4 100Q 0 100 0 96Z" stroke="rgba(50,50,50,1)" stroke-width="1" fill-opacity="1" fill="#cce5ff"></path><g id="SvgjsG1024"><text id="SvgjsText1025" font-family="&quot;Times New Roman&quot;" text-anchor="middle" font-size="12px" width="130px" fill="#323232" font-weight="400" align="middle" lineHeight="125%" anchor="middle" family="&quot;Times New Roman&quot;" size="12px" weight="400" font-style="" opacity="1" y="40" transform="rotate(0)"><tspan id="SvgjsTspan1026" dy="15" x="75"><tspan id="SvgjsTspan1027" style="text-decoration:;">Eden</tspan></tspan></text></g></g><g id="SvgjsG1028" transform="translate(254,115.00617000034879)"><path id="SvgjsPath1029" d="M 0 0L 80 0L 80 100L 0 100Z" stroke="rgba(50,50,50,1)" stroke-width="1" fill-opacity="1" fill="#ffffff"></path><g id="SvgjsG1030"><text id="SvgjsText1031" font-family="&quot;Times New Roman&quot;" text-anchor="middle" font-size="13px" width="60px" fill="#323232" font-weight="400" align="middle" lineHeight="125%" anchor="middle" family="&quot;Times New Roman&quot;" size="13px" weight="400" font-style="" opacity="1" y="39.375" transform="rotate(0)"></text></g></g><g id="SvgjsG1032" transform="translate(268,146.0061700003488)"><path id="SvgjsPath1033" d="M 0 4Q 0 0 4 0L 46 0Q 50 0 50 4L 50 16Q 50 20 46 20L 4 20Q 0 20 0 16Z" stroke="rgba(50,50,50,1)" stroke-width="1" fill-opacity="1" fill="#cce5ff"></path><g id="SvgjsG1034"><text id="SvgjsText1035" font-family="&quot;Times New Roman&quot;" text-anchor="middle" font-size="12px" width="30px" fill="#323232" font-weight="400" align="middle" lineHeight="125%" anchor="middle" family="&quot;Times New Roman&quot;" size="12px" weight="400" font-style="" opacity="1" y="0" transform="rotate(0)"><tspan id="SvgjsTspan1036" dy="15" x="25"><tspan id="SvgjsTspan1037" style="text-decoration:;">From</tspan></tspan></text></g></g><g id="SvgjsG1038" transform="translate(268,181.0061700003488)"><path id="SvgjsPath1039" d="M 0 4Q 0 0 4 0L 46 0Q 50 0 50 4L 50 16Q 50 20 46 20L 4 20Q 0 20 0 16Z" stroke="rgba(50,50,50,1)" stroke-width="1" fill-opacity="1" fill="#cce5ff"></path><g id="SvgjsG1040"><text id="SvgjsText1041" font-family="&quot;Times New Roman&quot;" text-anchor="middle" font-size="12px" width="30px" fill="#323232" font-weight="400" align="middle" lineHeight="125%" anchor="middle" family="&quot;Times New Roman&quot;" size="12px" weight="400" font-style="" opacity="1" y="0" transform="rotate(0)"><tspan id="SvgjsTspan1042" dy="15" x="25"><tspan id="SvgjsTspan1043" style="text-decoration:;">To</tspan></tspan></text></g></g><g id="SvgjsG1044" transform="translate(255,115.00617000034879)"><path id="SvgjsPath1045" d="M 0 0L 80 0L 80 30L 0 30Z" stroke="none" fill="none"></path><g id="SvgjsG1046"><text id="SvgjsText1047" font-family="&quot;Times New Roman&quot;" text-anchor="middle" font-size="12px" width="80px" fill="#000000" font-weight="400" align="middle" lineHeight="125%" anchor="middle" family="&quot;Times New Roman&quot;" size="12px" weight="400" font-style="" opacity="1" y="5" transform="rotate(0)"><tspan id="SvgjsTspan1048" dy="15" x="40"><tspan id="SvgjsTspan1049" style="text-decoration:;">Survivor</tspan></tspan></text></g></g><g id="SvgjsG1050" transform="translate(53,70.50617000034879)"><path id="SvgjsPath1051" d="M 0 0L 314 0L 314 45L 0 45Z" stroke="none" fill="none"></path><g id="SvgjsG1052"><text id="SvgjsText1053" font-family="&quot;Times New Roman&quot;" text-anchor="middle" font-size="13px" width="314px" fill="#000000" font-weight="400" align="middle" lineHeight="125%" anchor="middle" family="&quot;Times New Roman&quot;" size="13px" weight="400" font-style="" opacity="1" y="11.875" transform="rotate(0)"><tspan id="SvgjsTspan1054" dy="16" x="157"><tspan id="SvgjsTspan1055" style="text-decoration:;">新生代</tspan></tspan></text></g></g><g id="SvgjsG1056" transform="translate(396.5,70.875)"><path id="SvgjsPath1057" d="M 0 4Q 0 0 4 0L 166 0Q 170 0 170 4L 170 166Q 170 170 166 170L 4 170Q 0 170 0 166Z" stroke="rgba(50,50,50,1)" stroke-width="1" fill-opacity="1" fill="#ffe6cc"></path><g id="SvgjsG1058"><text id="SvgjsText1059" font-family="&quot;Times New Roman&quot;" text-anchor="middle" font-size="13px" width="150px" fill="#323232" font-weight="400" align="middle" lineHeight="125%" anchor="middle" family="&quot;Times New Roman&quot;" size="13px" weight="400" font-style="" opacity="1" y="74.375" transform="rotate(0)"><tspan id="SvgjsTspan1060" dy="16" x="85"><tspan id="SvgjsTspan1061" style="text-decoration:;">老年代</tspan></tspan></text></g></g><g id="SvgjsG1062" transform="translate(596,70.875)"><path id="SvgjsPath1063" d="M 0 4Q 0 0 4 0L 81 0Q 85 0 85 4L 85 166Q 85 170 81 170L 4 170Q 0 170 0 166Z" stroke="rgba(50,50,50,1)" stroke-width="1" fill-opacity="1" fill="#f5f5f5"></path><g id="SvgjsG1064"><text id="SvgjsText1065" font-family="&quot;Times New Roman&quot;" text-anchor="middle" font-size="13px" width="65px" fill="#323232" font-weight="400" align="middle" lineHeight="125%" anchor="middle" family="&quot;Times New Roman&quot;" size="13px" weight="400" font-style="" opacity="1" y="74.375" transform="rotate(0)"><tspan id="SvgjsTspan1066" dy="16" x="42.5"><tspan id="SvgjsTspan1067" style="text-decoration:;">永久代</tspan></tspan></text></g></g></svg>