<svg id="SvgjsSvg1006" width="602" height="529.375" xmlns="http://www.w3.org/2000/svg" version="1.1" xmlns:xlink="http://www.w3.org/1999/xlink" xmlns:svgjs="http://svgjs.com/svgjs"><defs id="SvgjsDefs1007"><marker id="SvgjsMarker1116" markerWidth="12" markerHeight="8" refX="9" refY="4" viewBox="0 0 12 8" orient="auto" markerUnits="userSpaceOnUse" stroke-dasharray="0,0"><path id="SvgjsPath1117" d="M0,0 L12,4 L0,8 L0,0" fill="#4d9900" stroke="#4d9900" stroke-width="1"></path></marker></defs><g id="SvgjsG1008" transform="translate(25,25.00617000034879)"><path id="SvgjsPath1009" d="M 0 0L 552 0L 552 478.8688299996512L 0 478.8688299996512Z" stroke="rgba(50,50,50,1)" stroke-width="1" fill-opacity="1" fill="#ffffff"></path><g id="SvgjsG1010"><text id="SvgjsText1011" font-family="&quot;Times New Roman&quot;" text-anchor="middle" font-size="13px" width="532px" fill="#323232" font-weight="400" align="middle" lineHeight="125%" anchor="middle" family="&quot;Times New Roman&quot;" size="13px" weight="400" font-style="" opacity="1" y="228.8094149998256" transform="rotate(0)"></text></g></g><g id="SvgjsG1012" transform="translate(58,383.0061700003488)"><path id="SvgjsPath1013" d="M 0 4Q 0 0 4 0L 484 0Q 488 0 488 4L 488 86Q 488 90 484 90L 4 90Q 0 90 0 86Z" stroke="rgba(50,50,50,1)" stroke-width="1" fill-opacity="1" fill="#ffffff"></path><g id="SvgjsG1014"><text id="SvgjsText1015" font-family="&quot;Times New Roman&quot;" text-anchor="middle" font-size="13px" width="468px" fill="#323232" font-weight="400" align="middle" lineHeight="125%" anchor="middle" family="&quot;Times New Roman&quot;" size="13px" weight="400" font-style="" opacity="1" y="25.875" transform="rotate(0)"><tspan id="SvgjsTspan1016" dy="16" x="244"><tspan id="SvgjsTspan1017" style="text-decoration:;">运行时常量池</tspan></tspan><tspan id="SvgjsTspan1018" dy="16" x="244"><tspan id="SvgjsTspan1019" style="text-decoration:;">Runtime Constant Pool</tspan></tspan></text></g></g><g id="SvgjsG1020" transform="translate(58,83.15779250008723)"><path id="SvgjsPath1021" d="M 0 4Q 0 0 4 0L 484 0Q 488 0 488 4L 488 266.28279250008717Q 488 270.28279250008717 484 270.28279250008717L 4 270.28279250008717Q 0 270.28279250008717 0 266.28279250008717Z" stroke="rgba(50,50,50,1)" stroke-width="1" fill-opacity="1" fill="#ffffff"></path><g id="SvgjsG1022"><text id="SvgjsText1023" font-family="&quot;Times New Roman&quot;" text-anchor="middle" font-size="13px" width="468px" fill="#323232" font-weight="400" align="middle" lineHeight="125%" anchor="middle" family="&quot;Times New Roman&quot;" size="13px" weight="400" font-style="" opacity="1" y="124.51639625004358" transform="rotate(0)"></text></g></g><g id="SvgjsG1024" transform="translate(91,144.0061700003488)"><path id="SvgjsPath1025" d="M 0 4Q 0 0 4 0L 116 0Q 120 0 120 4L 120 176Q 120 180 116 180L 4 180Q 0 180 0 176Z" stroke="rgba(50,50,50,1)" stroke-width="1" fill-opacity="1" fill="#cce5ff"></path><g id="SvgjsG1026"><text id="SvgjsText1027" font-family="&quot;Times New Roman&quot;" text-anchor="middle" font-size="13px" width="100px" fill="#323232" font-weight="400" align="middle" lineHeight="125%" anchor="middle" family="&quot;Times New Roman&quot;" size="13px" weight="400" font-style="" opacity="1" y="79.375" transform="rotate(0)"></text></g></g><g id="SvgjsG1028" transform="translate(91,145.0061700003488)"><path id="SvgjsPath1029" d="M 0 0L 120 0L 120 45L 0 45Z" stroke="none" fill="none"></path><g id="SvgjsG1030"><text id="SvgjsText1031" font-family="&quot;Times New Roman&quot;" text-anchor="middle" font-size="13px" width="120px" fill="#212121" font-weight="700" align="middle" lineHeight="125%" anchor="middle" family="&quot;Times New Roman&quot;" size="13px" weight="700" font-style="" opacity="1" y="11.875" transform="rotate(0)"><tspan id="SvgjsTspan1032" dy="16" x="60"><tspan id="SvgjsTspan1033" style="text-decoration:;">Class</tspan></tspan></text></g></g><g id="SvgjsG1034" transform="translate(92,190.5061700003488)"><path id="SvgjsPath1035" d="M 0 0L 120 0L 120 120L 0 120Z" stroke="none" fill="none"></path><g id="SvgjsG1036"><text id="SvgjsText1037" font-family="&quot;Times New Roman&quot;" text-anchor="middle" font-size="13px" width="120px" fill="#212121" font-weight="400" align="middle" lineHeight="150%" anchor="middle" family="&quot;Times New Roman&quot;" size="13px" weight="400" font-style="" opacity="1" y="-2.75" transform="rotate(0)"><tspan id="SvgjsTspan1038" dy="19" x="60"><tspan id="SvgjsTspan1039" style="text-decoration:;">方法表</tspan></tspan><tspan id="SvgjsTspan1040" dy="19" x="60"><tspan id="SvgjsTspan1041" style="text-decoration:;">字段、方法</tspan></tspan><tspan id="SvgjsTspan1042" dy="19" x="60"><tspan id="SvgjsTspan1043" style="text-decoration:;">类信息</tspan></tspan><tspan id="SvgjsTspan1044" dy="19" x="60"><tspan id="SvgjsTspan1045" style="text-decoration:;">类常量池</tspan></tspan><tspan id="SvgjsTspan1046" dy="19" x="60"><tspan id="SvgjsTspan1047" style="text-decoration:;">类加载器</tspan></tspan><tspan id="SvgjsTspan1048" dy="19" x="60"><tspan id="SvgjsTspan1049" style="text-decoration:;">类实例引用</tspan></tspan></text></g></g><g id="SvgjsG1050" transform="translate(241,144.0061700003488)"><path id="SvgjsPath1051" d="M 0 4Q 0 0 4 0L 116 0Q 120 0 120 4L 120 176Q 120 180 116 180L 4 180Q 0 180 0 176Z" stroke="rgba(50,50,50,1)" stroke-width="1" fill-opacity="1" fill="#cce5ff"></path><g id="SvgjsG1052"><text id="SvgjsText1053" font-family="&quot;Times New Roman&quot;" text-anchor="middle" font-size="13px" width="100px" fill="#323232" font-weight="400" align="middle" lineHeight="125%" anchor="middle" family="&quot;Times New Roman&quot;" size="13px" weight="400" font-style="" opacity="1" y="79.375" transform="rotate(0)"></text></g></g><g id="SvgjsG1054" transform="translate(241,145.0061700003488)"><path id="SvgjsPath1055" d="M 0 0L 120 0L 120 45L 0 45Z" stroke="none" fill="none"></path><g id="SvgjsG1056"><text id="SvgjsText1057" font-family="&quot;Times New Roman&quot;" text-anchor="middle" font-size="13px" width="120px" fill="#212121" font-weight="700" align="middle" lineHeight="125%" anchor="middle" family="&quot;Times New Roman&quot;" size="13px" weight="700" font-style="" opacity="1" y="11.875" transform="rotate(0)"><tspan id="SvgjsTspan1058" dy="16" x="60"><tspan id="SvgjsTspan1059" style="text-decoration:;">Class</tspan></tspan></text></g></g><g id="SvgjsG1060" transform="translate(242,190.5061700003488)"><path id="SvgjsPath1061" d="M 0 0L 120 0L 120 120L 0 120Z" stroke="none" fill="none"></path><g id="SvgjsG1062"><text id="SvgjsText1063" font-family="&quot;Times New Roman&quot;" text-anchor="middle" font-size="13px" width="120px" fill="#212121" font-weight="400" align="middle" lineHeight="150%" anchor="middle" family="&quot;Times New Roman&quot;" size="13px" weight="400" font-style="" opacity="1" y="-2.75" transform="rotate(0)"><tspan id="SvgjsTspan1064" dy="19" x="60"><tspan id="SvgjsTspan1065" style="text-decoration:;">方法表</tspan></tspan><tspan id="SvgjsTspan1066" dy="19" x="60"><tspan id="SvgjsTspan1067" style="text-decoration:;">字段、方法</tspan></tspan><tspan id="SvgjsTspan1068" dy="19" x="60"><tspan id="SvgjsTspan1069" style="text-decoration:;">类信息</tspan></tspan><tspan id="SvgjsTspan1070" dy="19" x="60"><tspan id="SvgjsTspan1071" style="text-decoration:;">类常量池</tspan></tspan><tspan id="SvgjsTspan1072" dy="19" x="60"><tspan id="SvgjsTspan1073" style="text-decoration:;">类加载器</tspan></tspan><tspan id="SvgjsTspan1074" dy="19" x="60"><tspan id="SvgjsTspan1075" style="text-decoration:;">类实例引用</tspan></tspan></text></g></g><g id="SvgjsG1076" transform="translate(391,144.0061700003488)"><path id="SvgjsPath1077" d="M 0 4Q 0 0 4 0L 116 0Q 120 0 120 4L 120 176Q 120 180 116 180L 4 180Q 0 180 0 176Z" stroke="rgba(50,50,50,1)" stroke-width="1" fill-opacity="1" fill="#cce5ff"></path><g id="SvgjsG1078"><text id="SvgjsText1079" font-family="&quot;Times New Roman&quot;" text-anchor="middle" font-size="13px" width="100px" fill="#323232" font-weight="400" align="middle" lineHeight="125%" anchor="middle" family="&quot;Times New Roman&quot;" size="13px" weight="400" font-style="" opacity="1" y="79.375" transform="rotate(0)"></text></g></g><g id="SvgjsG1080" transform="translate(391,145.0061700003488)"><path id="SvgjsPath1081" d="M 0 0L 120 0L 120 45L 0 45Z" stroke="none" fill="none"></path><g id="SvgjsG1082"><text id="SvgjsText1083" font-family="&quot;Times New Roman&quot;" text-anchor="middle" font-size="13px" width="120px" fill="#212121" font-weight="700" align="middle" lineHeight="125%" anchor="middle" family="&quot;Times New Roman&quot;" size="13px" weight="700" font-style="" opacity="1" y="11.875" transform="rotate(0)"><tspan id="SvgjsTspan1084" dy="16" x="60"><tspan id="SvgjsTspan1085" style="text-decoration:;">Class</tspan></tspan></text></g></g><g id="SvgjsG1086" transform="translate(392,190.5061700003488)"><path id="SvgjsPath1087" d="M 0 0L 120 0L 120 120L 0 120Z" stroke="none" fill="none"></path><g id="SvgjsG1088"><text id="SvgjsText1089" font-family="&quot;Times New Roman&quot;" text-anchor="middle" font-size="13px" width="120px" fill="#212121" font-weight="400" align="middle" lineHeight="150%" anchor="middle" family="&quot;Times New Roman&quot;" size="13px" weight="400" font-style="" opacity="1" y="-2.75" transform="rotate(0)"><tspan id="SvgjsTspan1090" dy="19" x="60"><tspan id="SvgjsTspan1091" style="text-decoration:;">方法表</tspan></tspan><tspan id="SvgjsTspan1092" dy="19" x="60"><tspan id="SvgjsTspan1093" style="text-decoration:;">字段、方法</tspan></tspan><tspan id="SvgjsTspan1094" dy="19" x="60"><tspan id="SvgjsTspan1095" style="text-decoration:;">类信息</tspan></tspan><tspan id="SvgjsTspan1096" dy="19" x="60"><tspan id="SvgjsTspan1097" style="text-decoration:;">类常量池</tspan></tspan><tspan id="SvgjsTspan1098" dy="19" x="60"><tspan id="SvgjsTspan1099" style="text-decoration:;">类加载器</tspan></tspan><tspan id="SvgjsTspan1100" dy="19" x="60"><tspan id="SvgjsTspan1101" style="text-decoration:;">类实例引用</tspan></tspan></text></g></g><g id="SvgjsG1102" transform="translate(58,83.15779250008723)"><path id="SvgjsPath1103" d="M 0 0L 488 0L 488 60L 0 60Z" stroke="none" fill="none"></path><g id="SvgjsG1104"><text id="SvgjsText1105" font-family="&quot;Times New Roman&quot;" text-anchor="middle" font-size="13px" width="488px" fill="#000000" font-weight="400" align="middle" lineHeight="125%" anchor="middle" family="&quot;Times New Roman&quot;" size="13px" weight="400" font-style="" opacity="1" y="19.375" transform="rotate(0)"><tspan id="SvgjsTspan1106" dy="16" x="244"><tspan id="SvgjsTspan1107" style="text-decoration:;">类信息表</tspan></tspan></text></g></g><g id="SvgjsG1108" transform="translate(25,25.00617000034879)"><path id="SvgjsPath1109" d="M 0 0L 552 0L 552 60L 0 60Z" stroke="none" fill="none"></path><g id="SvgjsG1110"><text id="SvgjsText1111" font-family="&quot;Times New Roman&quot;" text-anchor="middle" font-size="15px" width="552px" fill="#000000" font-weight="400" align="middle" lineHeight="125%" anchor="middle" family="&quot;Times New Roman&quot;" size="15px" weight="400" font-style="" opacity="1" y="17.625" transform="rotate(0)"><tspan id="SvgjsTspan1112" dy="18" x="276"><tspan id="SvgjsTspan1113" style="text-decoration:;">方法区</tspan></tspan></text></g></g><g id="SvgjsG1114"><path id="SvgjsPath1115" d="M488 260.875L488 260.875L561 260.875L561 428.0061700003488L547.8 428.0061700003488" stroke="#4d9900" stroke-width="1" fill="none" marker-end="url(#SvgjsMarker1116)"></path></g><g id="SvgjsG1118" transform="translate(242,474.375)"><path id="SvgjsPath1119" d="M 0 0L 120 0L 120 30L 0 30Z" stroke="none" fill="none"></path><g id="SvgjsG1120"><text id="SvgjsText1121" font-family="&quot;Times New Roman&quot;" text-anchor="middle" font-size="13px" width="120px" fill="#e0e0e0" font-weight="400" align="middle" lineHeight="125%" anchor="middle" family="&quot;Times New Roman&quot;" size="13px" weight="400" font-style="" opacity="1" y="4.375" transform="rotate(0)"><tspan id="SvgjsTspan1122" dy="16" x="60"><tspan id="SvgjsTspan1123" style="text-decoration:;">www.kofes.cn</tspan></tspan></text></g></g></svg>