<svg id="SvgjsSvg1006" width="912" height="410" xmlns="http://www.w3.org/2000/svg" version="1.1" xmlns:xlink="http://www.w3.org/1999/xlink" xmlns:svgjs="http://svgjs.com/svgjs"><defs id="SvgjsDefs1007"><marker id="SvgjsMarker1030" markerWidth="12" markerHeight="8" refX="9" refY="4" viewBox="0 0 12 8" orient="auto" markerUnits="userSpaceOnUse" stroke-dasharray="0,0"><path id="SvgjsPath1031" d="M0,0 L12,4 L0,8 L0,0" fill="#323232" stroke="#323232" stroke-width="1"></path></marker><marker id="SvgjsMarker1034" markerWidth="12" markerHeight="8" refX="9" refY="4" viewBox="0 0 12 8" orient="auto" markerUnits="userSpaceOnUse" stroke-dasharray="0,0"><path id="SvgjsPath1035" d="M0,0 L12,4 L0,8 L0,0" fill="#323232" stroke="#323232" stroke-width="1"></path></marker><marker id="SvgjsMarker1056" markerWidth="12" markerHeight="8" refX="9" refY="4" viewBox="0 0 12 8" orient="auto" markerUnits="userSpaceOnUse" stroke-dasharray="0,0"><path id="SvgjsPath1057" d="M0,0 L12,4 L0,8 L0,0" fill="#323232" stroke="#323232" stroke-width="1"></path></marker><marker id="SvgjsMarker1060" markerWidth="12" markerHeight="8" refX="9" refY="4" viewBox="0 0 12 8" orient="auto" markerUnits="userSpaceOnUse" stroke-dasharray="0,0"><path id="SvgjsPath1061" d="M0,0 L12,4 L0,8 L0,0" fill="#323232" stroke="#323232" stroke-width="1"></path></marker><marker id="SvgjsMarker1064" markerWidth="12" markerHeight="8" refX="9" refY="4" viewBox="0 0 12 8" orient="auto" markerUnits="userSpaceOnUse" stroke-dasharray="0,0"><path id="SvgjsPath1065" d="M0,0 L12,4 L0,8 L0,0" fill="#323232" stroke="#323232" stroke-width="1"></path></marker><marker id="SvgjsMarker1068" markerWidth="12" markerHeight="8" refX="9" refY="4" viewBox="0 0 12 8" orient="auto" markerUnits="userSpaceOnUse" stroke-dasharray="0,0"><path id="SvgjsPath1069" d="M0,0 L12,4 L0,8 L0,0" fill="#323232" stroke="#323232" stroke-width="1"></path></marker><marker id="SvgjsMarker1078" markerWidth="12" markerHeight="8" refX="9" refY="4" viewBox="0 0 12 8" orient="auto" markerUnits="userSpaceOnUse" stroke-dasharray="0,0"><path id="SvgjsPath1079" d="M0,0 L12,4 L0,8 L0,0" fill="#323232" stroke="#323232" stroke-width="1"></path></marker><marker id="SvgjsMarker1088" markerWidth="12" markerHeight="8" refX="9" refY="4" viewBox="0 0 12 8" orient="auto" markerUnits="userSpaceOnUse" stroke-dasharray="0,0"><path id="SvgjsPath1089" d="M0,0 L12,4 L0,8 L0,0" fill="#323232" stroke="#323232" stroke-width="1"></path></marker><marker id="SvgjsMarker1092" markerWidth="12" markerHeight="8" refX="9" refY="4" viewBox="0 0 12 8" orient="auto" markerUnits="userSpaceOnUse" stroke-dasharray="0,0"><path id="SvgjsPath1093" d="M0,0 L12,4 L0,8 L0,0" fill="#323232" stroke="#323232" stroke-width="1"></path></marker><marker id="SvgjsMarker1116" markerWidth="12" markerHeight="8" refX="9" refY="4" viewBox="0 0 12 8" orient="auto" markerUnits="userSpaceOnUse" stroke-dasharray="0,0"><path id="SvgjsPath1117" d="M0,0 L12,4 L0,8 L0,0" fill="#323232" stroke="#323232" stroke-width="1"></path></marker><marker id="SvgjsMarker1120" markerWidth="12" markerHeight="8" refX="9" refY="4" viewBox="0 0 12 8" orient="auto" markerUnits="userSpaceOnUse" stroke-dasharray="0,0"><path id="SvgjsPath1121" d="M0,0 L12,4 L0,8 L0,0" fill="#323232" stroke="#323232" stroke-width="1"></path></marker><marker id="SvgjsMarker1124" markerWidth="12" markerHeight="8" refX="9" refY="4" viewBox="0 0 12 8" orient="auto" markerUnits="userSpaceOnUse" stroke-dasharray="0,0"><path id="SvgjsPath1125" d="M0,0 L12,4 L0,8 L0,0" fill="#323232" stroke="#323232" stroke-width="1"></path></marker><marker id="SvgjsMarker1140" markerWidth="12" markerHeight="8" refX="9" refY="4" viewBox="0 0 12 8" orient="auto" markerUnits="userSpaceOnUse" stroke-dasharray="0,0"><path id="SvgjsPath1141" d="M0,0 L12,4 L0,8 L0,0" fill="#323232" stroke="#323232" stroke-width="1"></path></marker><marker id="SvgjsMarker1144" markerWidth="12" markerHeight="8" refX="9" refY="4" viewBox="0 0 12 8" orient="auto" markerUnits="userSpaceOnUse" stroke-dasharray="0,0"><path id="SvgjsPath1145" d="M0,0 L12,4 L0,8 L0,0" fill="#323232" stroke="#323232" stroke-width="1"></path></marker><marker id="SvgjsMarker1190" markerWidth="12" markerHeight="8" refX="9" refY="4" viewBox="0 0 12 8" orient="auto" markerUnits="userSpaceOnUse" stroke-dasharray="0,0"><path id="SvgjsPath1191" d="M0,0 L12,4 L0,8 L0,0" fill="#323232" stroke="#323232" stroke-width="1"></path></marker><marker id="SvgjsMarker1194" markerWidth="12" markerHeight="8" refX="9" refY="4" viewBox="0 0 12 8" orient="auto" markerUnits="userSpaceOnUse" stroke-dasharray="0,0"><path id="SvgjsPath1195" d="M0,0 L12,4 L0,8 L0,0" fill="#323232" stroke="#323232" stroke-width="1"></path></marker><marker id="SvgjsMarker1198" markerWidth="12" markerHeight="8" refX="9" refY="4" viewBox="0 0 12 8" orient="auto" markerUnits="userSpaceOnUse" stroke-dasharray="0,0"><path id="SvgjsPath1199" d="M0,0 L12,4 L0,8 L0,0" fill="#323232" stroke="#323232" stroke-width="1"></path></marker></defs><g id="SvgjsG1008" transform="translate(25,25)"><path id="SvgjsPath1009" d="M 0 0L 120 0L 120 45L 0 45Z" stroke="rgba(50,50,50,1)" stroke-width="1" fill-opacity="1" fill="#ffffff"></path><g id="SvgjsG1010"><text id="SvgjsText1011" font-family="微软雅黑" text-anchor="middle" font-size="13px" width="100px" fill="#323232" font-weight="400" align="middle" lineHeight="125%" anchor="middle" family="微软雅黑" size="13px" weight="400" font-style="" opacity="1" y="11.875" transform="rotate(0)"><tspan id="SvgjsTspan1012" dy="16" x="60"><tspan id="SvgjsTspan1013" style="text-decoration:;">CDN 服务器</tspan></tspan></text></g></g><g id="SvgjsG1014" transform="translate(25,158.5)"><path id="SvgjsPath1015" d="M 0 0L 120 0L 120 45L 0 45Z" stroke="rgba(50,50,50,1)" stroke-width="1" fill-opacity="1" fill="#ffffff"></path><g id="SvgjsG1016"><text id="SvgjsText1017" font-family="微软雅黑" text-anchor="middle" font-size="13px" width="100px" fill="#323232" font-weight="400" align="middle" lineHeight="125%" anchor="middle" family="微软雅黑" size="13px" weight="400" font-style="" opacity="1" y="11.875" transform="rotate(0)"><tspan id="SvgjsTspan1018" dy="16" x="60"><tspan id="SvgjsTspan1019" style="text-decoration:;">反向代理服务器</tspan></tspan></text></g></g><g id="SvgjsG1020" transform="translate(25,295)"><path id="SvgjsPath1021" d="M 0 0L 120 0L 120 45L 0 45Z" stroke="rgba(50,50,50,1)" stroke-width="1" fill-opacity="1" fill="#ffffff"></path><g id="SvgjsG1022"><text id="SvgjsText1023" font-family="微软雅黑" text-anchor="middle" font-size="13px" width="100px" fill="#323232" font-weight="400" align="middle" lineHeight="125%" anchor="middle" family="微软雅黑" size="13px" weight="400" font-style="" opacity="1" y="3.375" transform="rotate(0)"><tspan id="SvgjsTspan1024" dy="16" x="60"><tspan id="SvgjsTspan1025" style="text-decoration:;">负载均衡调度</tspan></tspan><tspan id="SvgjsTspan1026" dy="16" x="60"><tspan id="SvgjsTspan1027" style="text-decoration:;">服务器</tspan></tspan></text></g></g><g id="SvgjsG1028"><path id="SvgjsPath1029" d="M85 70.5L85 114.25L85 114.25L85 156.7" stroke="#323232" stroke-width="1" fill="none" marker-end="url(#SvgjsMarker1030)"></path></g><g id="SvgjsG1032"><path id="SvgjsPath1033" d="M85 204L85 249.25L85 249.25L85 293.2" stroke="#323232" stroke-width="1" fill="none" marker-end="url(#SvgjsMarker1034)"></path></g><g id="SvgjsG1036" transform="translate(178,25)"><path id="SvgjsPath1037" d="M 0 0L 120 0L 120 45L 0 45Z" stroke="rgba(50,50,50,1)" stroke-width="1" fill-opacity="1" fill="#ffffff"></path><g id="SvgjsG1038"><text id="SvgjsText1039" font-family="微软雅黑" text-anchor="middle" font-size="13px" width="100px" fill="#323232" font-weight="400" align="middle" lineHeight="125%" anchor="middle" family="微软雅黑" size="13px" weight="400" font-style="" opacity="1" y="11.875" transform="rotate(0)"><tspan id="SvgjsTspan1040" dy="16" x="60"><tspan id="SvgjsTspan1041" style="text-decoration:;">应用服务器 A </tspan></tspan></text></g></g><g id="SvgjsG1042" transform="translate(178,295)"><path id="SvgjsPath1043" d="M 0 0L 120 0L 120 45L 0 45Z" stroke="rgba(50,50,50,1)" stroke-width="1" fill-opacity="1" fill="#ffffff"></path><g id="SvgjsG1044"><text id="SvgjsText1045" font-family="微软雅黑" text-anchor="middle" font-size="13px" width="100px" fill="#323232" font-weight="400" align="middle" lineHeight="125%" anchor="middle" family="微软雅黑" size="13px" weight="400" font-style="" opacity="1" y="11.875" transform="rotate(0)"><tspan id="SvgjsTspan1046" dy="16" x="60"><tspan id="SvgjsTspan1047" style="text-decoration:;">应用服务器 B</tspan></tspan></text></g></g><g id="SvgjsG1048" transform="translate(178,97)"><path id="SvgjsPath1049" d="M 0 0L 120 0L 120 45L 0 45Z" stroke="rgba(50,50,50,1)" stroke-width="1" fill-opacity="1" fill="#ffffff"></path><g id="SvgjsG1050"><text id="SvgjsText1051" font-family="微软雅黑" text-anchor="middle" font-size="13px" width="100px" fill="#323232" font-weight="400" align="middle" lineHeight="125%" anchor="middle" family="微软雅黑" size="13px" weight="400" font-style="" opacity="1" y="11.875" transform="rotate(0)"><tspan id="SvgjsTspan1052" dy="16" x="60"><tspan id="SvgjsTspan1053" style="text-decoration:;">消息队列服务器</tspan></tspan></text></g></g><g id="SvgjsG1054"><path id="SvgjsPath1055" d="M145.5 317.5L161.5 317.5L161.5 47.5L176.2 47.5" stroke="#323232" stroke-width="1" fill="none" marker-end="url(#SvgjsMarker1056)"></path></g><g id="SvgjsG1058"><path id="SvgjsPath1059" d="M145.5 317.5L161.5 317.5L161.5 317.5L176.2 317.5" stroke="#323232" stroke-width="1" fill="none" marker-end="url(#SvgjsMarker1060)"></path></g><g id="SvgjsG1062"><path id="SvgjsPath1063" d="M238 70.5L238 83.5L238 83.5L238 95.19999999999999" stroke="#323232" stroke-width="1" fill="none" marker-end="url(#SvgjsMarker1064)"></path></g><g id="SvgjsG1066"><path id="SvgjsPath1067" d="M238 294.5L238 218.5L238 218.5L238 143.8" stroke="#323232" stroke-width="1" fill="none" marker-end="url(#SvgjsMarker1068)"></path></g><g id="SvgjsG1070" transform="translate(325,70)"><path id="SvgjsPath1071" d="M 0 4Q 0 0 4 0L 296 0Q 300 0 300 4L 300 192Q 300 196 296 196L 4 196Q 0 196 0 192Z" stroke="rgba(50,50,50,1)" stroke-width="1" fill-opacity="1" fill="#ffffff"></path><g id="SvgjsG1072"><text id="SvgjsText1073" font-family="微软雅黑" text-anchor="middle" font-size="13px" width="290px" fill="#323232" font-weight="400" align="middle" lineHeight="125%" anchor="middle" family="微软雅黑" size="13px" weight="400" font-style="" opacity="1" y="4.375" transform="rotate(0)"><tspan id="SvgjsTspan1074" dy="16" x="150"><tspan id="SvgjsTspan1075" style="text-decoration:;">分布式服务 A 服务器</tspan></tspan></text></g></g><g id="SvgjsG1076"><path id="SvgjsPath1077" d="M298.5 317.5L311.5 317.5L311.5 168L323.2 168" stroke="#323232" stroke-width="1" fill="none" marker-end="url(#SvgjsMarker1078)"></path></g><g id="SvgjsG1080" transform="translate(353,99)"><path id="SvgjsPath1081" d="M 0 4Q 0 0 4 0L 296 0Q 300 0 300 4L 300 192Q 300 196 296 196L 4 196Q 0 196 0 192Z" stroke="rgba(50,50,50,1)" stroke-width="1" fill-opacity="1" fill="#ffffff"></path><g id="SvgjsG1082"><text id="SvgjsText1083" font-family="微软雅黑" text-anchor="middle" font-size="13px" width="290px" fill="#323232" font-weight="400" align="middle" lineHeight="125%" anchor="middle" family="微软雅黑" size="13px" weight="400" font-style="" opacity="1" y="4.375" transform="rotate(0)"><tspan id="SvgjsTspan1084" dy="16" x="150"><tspan id="SvgjsTspan1085" style="text-decoration:;">分布式服务 B 服务器</tspan></tspan></text></g></g><g id="SvgjsG1086"><path id="SvgjsPath1087" d="M298.5 47.5L475 47.5L475 68.19999999999999" stroke="#323232" stroke-width="1" fill="none" marker-end="url(#SvgjsMarker1088)"></path></g><g id="SvgjsG1090"><path id="SvgjsPath1091" d="M298.5 47.5L576 47.5L576 97.69999999999999" stroke="#323232" stroke-width="1" fill="none" marker-end="url(#SvgjsMarker1092)"></path></g><g id="SvgjsG1094" transform="translate(369,142)"><path id="SvgjsPath1095" d="M 0 4Q 0 0 4 0L 116 0Q 120 0 120 4L 120 41Q 120 45 116 45L 4 45Q 0 45 0 41Z" stroke="rgba(50,50,50,1)" stroke-width="1" fill-opacity="1" fill="#cce5ff"></path><g id="SvgjsG1096"><text id="SvgjsText1097" font-family="微软雅黑" text-anchor="middle" font-size="13px" width="100px" fill="#323232" font-weight="400" align="middle" lineHeight="125%" anchor="middle" family="微软雅黑" size="13px" weight="400" font-style="" opacity="1" y="11.875" transform="rotate(0)"><tspan id="SvgjsTspan1098" dy="16" x="60"><tspan id="SvgjsTspan1099" style="text-decoration:;">应用程序</tspan></tspan></text></g></g><g id="SvgjsG1100" transform="translate(369,221)"><path id="SvgjsPath1101" d="M 0 4Q 0 0 4 0L 116 0Q 120 0 120 4L 120 41Q 120 45 116 45L 4 45Q 0 45 0 41Z" stroke="rgba(50,50,50,1)" stroke-width="1" fill-opacity="1" fill="#ffe6cc"></path><g id="SvgjsG1102"><text id="SvgjsText1103" font-family="微软雅黑" text-anchor="middle" font-size="13px" width="100px" fill="#323232" font-weight="400" align="middle" lineHeight="125%" anchor="middle" family="微软雅黑" size="13px" weight="400" font-style="" opacity="1" y="11.875" transform="rotate(0)"><tspan id="SvgjsTspan1104" dy="16" x="60"><tspan id="SvgjsTspan1105" style="text-decoration:;">本地缓存</tspan></tspan></text></g></g><g id="SvgjsG1106" transform="translate(517,180)"><path id="SvgjsPath1107" d="M 0 4Q 0 0 4 0L 116 0Q 120 0 120 4L 120 41Q 120 45 116 45L 4 45Q 0 45 0 41Z" stroke="rgba(50,50,50,1)" stroke-width="1" fill-opacity="1" fill="#cce5ff"></path><g id="SvgjsG1108"><text id="SvgjsText1109" font-family="微软雅黑" text-anchor="middle" font-size="13px" width="100px" fill="#323232" font-weight="400" align="middle" lineHeight="125%" anchor="middle" family="微软雅黑" size="13px" weight="400" font-style="" opacity="1" y="3.375" transform="rotate(0)"><tspan id="SvgjsTspan1110" dy="16" x="60"><tspan id="SvgjsTspan1111" style="text-decoration:;">统一数据</tspan></tspan><tspan id="SvgjsTspan1112" dy="16" x="60"><tspan id="SvgjsTspan1113" style="text-decoration:;">访问模块</tspan></tspan></text></g></g><g id="SvgjsG1114"><path id="SvgjsPath1115" d="M489.5 164.5L577 164.5L577 178.2" stroke="#323232" stroke-width="1" fill="none" marker-end="url(#SvgjsMarker1116)"></path></g><g id="SvgjsG1118"><path id="SvgjsPath1119" d="M298.5 317.5L311.5 317.5L311.5 197L351.2 197" stroke="#323232" stroke-width="1" fill="none" marker-end="url(#SvgjsMarker1120)"></path></g><g id="SvgjsG1122"><path id="SvgjsPath1123" d="M429 187.5L429 204L429 204L429 219.2" stroke="#323232" stroke-width="1" fill="none" marker-end="url(#SvgjsMarker1124)"></path></g><g id="SvgjsG1126" transform="translate(369,340)"><path id="SvgjsPath1127" d="M 0 0L 120 0L 120 45L 0 45Z" stroke="rgba(50,50,50,1)" stroke-width="1" fill-opacity="1" fill="#ffffff"></path><g id="SvgjsG1128"><text id="SvgjsText1129" font-family="微软雅黑" text-anchor="middle" font-size="13px" width="100px" fill="#323232" font-weight="400" align="middle" lineHeight="125%" anchor="middle" family="微软雅黑" size="13px" weight="400" font-style="" opacity="1" y="11.875" transform="rotate(0)"><tspan id="SvgjsTspan1130" dy="16" x="60"><tspan id="SvgjsTspan1131" style="text-decoration:;">搜索引擎服务器</tspan></tspan></text></g></g><g id="SvgjsG1132" transform="translate(517,340)"><path id="SvgjsPath1133" d="M 0 0L 120 0L 120 45L 0 45Z" stroke="rgba(50,50,50,1)" stroke-width="1" fill-opacity="1" fill="#ffffff"></path><g id="SvgjsG1134"><text id="SvgjsText1135" font-family="微软雅黑" text-anchor="middle" font-size="13px" width="100px" fill="#323232" font-weight="400" align="middle" lineHeight="125%" anchor="middle" family="微软雅黑" size="13px" weight="400" font-style="" opacity="1" y="11.875" transform="rotate(0)"><tspan id="SvgjsTspan1136" dy="16" x="60"><tspan id="SvgjsTspan1137" style="text-decoration:;">NoSQL 服务器</tspan></tspan></text></g></g><g id="SvgjsG1138"><path id="SvgjsPath1139" d="M576.6051802890986 225.30678558617336L430.421350959245 338.89557188977585" stroke="#323232" stroke-width="1" fill="none" marker-end="url(#SvgjsMarker1140)"></path></g><g id="SvgjsG1142"><path id="SvgjsPath1143" d="M577 225.5L577 282.5L577 282.5L577 338.2" stroke="#323232" stroke-width="1" fill="none" marker-end="url(#SvgjsMarker1144)"></path></g><g id="SvgjsG1146" transform="translate(687,25)"><path id="SvgjsPath1147" d="M 0 4Q 0 0 4 0L 196 0Q 200 0 200 4L 200 96Q 200 100 196 100L 4 100Q 0 100 0 96Z" stroke="rgba(50,50,50,1)" stroke-width="1" fill-opacity="1" fill="#ffffff"></path><g id="SvgjsG1148"><text id="SvgjsText1149" font-family="微软雅黑" text-anchor="middle" font-size="13px" width="190px" fill="#323232" font-weight="400" align="middle" lineHeight="125%" anchor="middle" family="微软雅黑" size="13px" weight="400" font-style="" opacity="1" y="-10.982142857142858" transform="rotate(0)"><tspan id="SvgjsTspan1150" dy="16" x="100"><tspan id="SvgjsTspan1151" style="text-decoration:;"> </tspan></tspan><tspan id="SvgjsTspan1152" dy="16" x="100"><tspan id="SvgjsTspan1153" style="text-decoration:;">分布式缓存服务器</tspan></tspan></text></g></g><g id="SvgjsG1154" transform="translate(727,63)"><path id="SvgjsPath1155" d="M 0 4Q 0 0 4 0L 116 0Q 120 0 120 4L 120 41Q 120 45 116 45L 4 45Q 0 45 0 41Z" stroke="rgba(50,50,50,1)" stroke-width="1" fill-opacity="1" fill="#ffe6cc"></path><g id="SvgjsG1156"><text id="SvgjsText1157" font-family="微软雅黑" text-anchor="middle" font-size="13px" width="100px" fill="#323232" font-weight="400" align="middle" lineHeight="125%" anchor="middle" family="微软雅黑" size="13px" weight="400" font-style="" opacity="1" y="11.875" transform="rotate(0)"><tspan id="SvgjsTspan1158" dy="16" x="60"><tspan id="SvgjsTspan1159" style="text-decoration:;">远程分布式缓存</tspan></tspan></text></g></g><g id="SvgjsG1160" transform="translate(687,152.5)"><path id="SvgjsPath1161" d="M 0 4Q 0 0 4 0L 196 0Q 200 0 200 4L 200 96Q 200 100 196 100L 4 100Q 0 100 0 96Z" stroke="rgba(50,50,50,1)" stroke-width="1" fill-opacity="1" fill="#ffffff"></path><g id="SvgjsG1162"><text id="SvgjsText1163" font-family="微软雅黑" text-anchor="middle" font-size="13px" width="190px" fill="#323232" font-weight="400" align="middle" lineHeight="125%" anchor="middle" family="微软雅黑" size="13px" weight="400" font-style="" opacity="1" y="-10.982142857142858" transform="rotate(0)"><tspan id="SvgjsTspan1164" dy="16" x="100"><tspan id="SvgjsTspan1165" style="text-decoration:;"> </tspan></tspan><tspan id="SvgjsTspan1166" dy="16" x="100"><tspan id="SvgjsTspan1167" style="text-decoration:;">分布式文件服务器</tspan></tspan></text></g></g><g id="SvgjsG1168" transform="translate(727,190.5)"><path id="SvgjsPath1169" d="M 0 4Q 0 0 4 0L 116 0Q 120 0 120 4L 120 41Q 120 45 116 45L 4 45Q 0 45 0 41Z" stroke="rgba(50,50,50,1)" stroke-width="1" fill-opacity="1" fill="#ffe6cc"></path><g id="SvgjsG1170"><text id="SvgjsText1171" font-family="微软雅黑" text-anchor="middle" font-size="13px" width="100px" fill="#323232" font-weight="400" align="middle" lineHeight="125%" anchor="middle" family="微软雅黑" size="13px" weight="400" font-style="" opacity="1" y="11.875" transform="rotate(0)"><tspan id="SvgjsTspan1172" dy="16" x="60"><tspan id="SvgjsTspan1173" style="text-decoration:;">文件</tspan></tspan></text></g></g><g id="SvgjsG1174" transform="translate(687,285)"><path id="SvgjsPath1175" d="M 0 4Q 0 0 4 0L 196 0Q 200 0 200 4L 200 96Q 200 100 196 100L 4 100Q 0 100 0 96Z" stroke="rgba(50,50,50,1)" stroke-width="1" fill-opacity="1" fill="#ffffff"></path><g id="SvgjsG1176"><text id="SvgjsText1177" font-family="微软雅黑" text-anchor="middle" font-size="13px" width="190px" fill="#323232" font-weight="400" align="middle" lineHeight="125%" anchor="middle" family="微软雅黑" size="13px" weight="400" font-style="" opacity="1" y="-10.982142857142858" transform="rotate(0)"><tspan id="SvgjsTspan1178" dy="16" x="100"><tspan id="SvgjsTspan1179" style="text-decoration:;"> </tspan></tspan><tspan id="SvgjsTspan1180" dy="16" x="100"><tspan id="SvgjsTspan1181" style="text-decoration:;">分布式数据库服务器</tspan></tspan></text></g></g><g id="SvgjsG1182" transform="translate(727,323)"><path id="SvgjsPath1183" d="M 0 4Q 0 0 4 0L 116 0Q 120 0 120 4L 120 41Q 120 45 116 45L 4 45Q 0 45 0 41Z" stroke="rgba(50,50,50,1)" stroke-width="1" fill-opacity="1" fill="#ffe6cc"></path><g id="SvgjsG1184"><text id="SvgjsText1185" font-family="微软雅黑" text-anchor="middle" font-size="13px" width="100px" fill="#323232" font-weight="400" align="middle" lineHeight="125%" anchor="middle" family="微软雅黑" size="13px" weight="400" font-style="" opacity="1" y="11.875" transform="rotate(0)"><tspan id="SvgjsTspan1186" dy="16" x="60"><tspan id="SvgjsTspan1187" style="text-decoration:;">数据库</tspan></tspan></text></g></g><g id="SvgjsG1188"><path id="SvgjsPath1189" d="M637.1825437644093 202.03451340075645L686.3428424481268 76.67575175727671" stroke="#323232" stroke-width="1" fill="none" marker-end="url(#SvgjsMarker1190)"></path></g><g id="SvgjsG1192"><path id="SvgjsPath1193" d="M637.5 202.5L685.2 202.5" stroke="#323232" stroke-width="1" fill="none" marker-end="url(#SvgjsMarker1194)"></path></g><g id="SvgjsG1196"><path id="SvgjsPath1197" d="M637.1765286262171 202.96780085947535L686.3644969456184 333.3159169058887" stroke="#323232" stroke-width="1" fill="none" marker-end="url(#SvgjsMarker1198)"></path></g></svg>