<svg id="SvgjsSvg1270" width="513.5" height="470" xmlns="http://www.w3.org/2000/svg" version="1.1" xmlns:xlink="http://www.w3.org/1999/xlink" xmlns:svgjs="http://svgjs.com/svgjs"><defs id="SvgjsDefs1271"><marker id="SvgjsMarker1296" markerWidth="16" markerHeight="12" refX="10" refY="6" viewBox="0 0 16 12" orient="auto" markerUnits="userSpaceOnUse" stroke-dasharray="0,0"><path id="SvgjsPath1297" d="M0,3 L10,6 L0,9 L0,3" fill="#323232" stroke="#323232" stroke-width="1"></path></marker><marker id="SvgjsMarker1300" markerWidth="16" markerHeight="12" refX="10" refY="6" viewBox="0 0 16 12" orient="auto" markerUnits="userSpaceOnUse" stroke-dasharray="0,0"><path id="SvgjsPath1301" d="M0,3 L10,6 L0,9 L0,3" fill="#ff0000" stroke="#ff0000" stroke-width="1"></path></marker><marker id="SvgjsMarker1304" markerWidth="16" markerHeight="12" refX="10" refY="6" viewBox="0 0 16 12" orient="auto" markerUnits="userSpaceOnUse" stroke-dasharray="0,0"><path id="SvgjsPath1305" d="M0,3 L10,6 L0,9 L0,3" fill="#323232" stroke="#323232" stroke-width="1"></path></marker><marker id="SvgjsMarker1308" markerWidth="16" markerHeight="12" refX="10" refY="6" viewBox="0 0 16 12" orient="auto" markerUnits="userSpaceOnUse" stroke-dasharray="0,0"><path id="SvgjsPath1309" d="M0,3 L10,6 L0,9 L0,3" fill="#323232" stroke="#323232" stroke-width="1"></path></marker><pattern id="SvgjsPattern1324" x="0" y="0" width="30" height="65" patternUnits="userSpaceOnUse"><image id="SvgjsImage1325" xlink:href="https://www.processon.com/assets/images/designer/network/server.svg" width="30" height="65" preserveAspectRatio="none" crossOrigin="anonymous" x="0" y="0"></image></pattern><pattern id="SvgjsPattern1330" x="0" y="0" width="80" height="65" patternUnits="userSpaceOnUse"><image id="SvgjsImage1331" xlink:href="https://www.processon.com/assets/images/designer/network/pc.svg" width="80" height="65" preserveAspectRatio="none" crossOrigin="anonymous" x="0" y="0"></image></pattern><pattern id="SvgjsPattern1336" x="0" y="0" width="30" height="65" patternUnits="userSpaceOnUse"><image id="SvgjsImage1337" xlink:href="https://www.processon.com/assets/images/designer/network/server.svg" width="30" height="65" preserveAspectRatio="none" crossOrigin="anonymous" x="0" y="0"></image></pattern><pattern id="SvgjsPattern1344" x="0" y="0" width="30" height="65" patternUnits="userSpaceOnUse"><image id="SvgjsImage1345" xlink:href="https://www.processon.com/assets/images/designer/network/server.svg" width="30" height="65" preserveAspectRatio="none" crossOrigin="anonymous" x="0" y="0"></image></pattern><pattern id="SvgjsPattern1352" x="0" y="0" width="30" height="65" patternUnits="userSpaceOnUse"><image id="SvgjsImage1353" xlink:href="https://www.processon.com/assets/images/designer/network/server.svg" width="30" height="65" preserveAspectRatio="none" crossOrigin="anonymous" x="0" y="0"></image></pattern></defs><g id="SvgjsG1272" transform="translate(368.5,25)"><path id="SvgjsPath1273" d="M 0 0L 120 0L 120 420L 0 420Z" stroke="rgba(50,50,50,1)" stroke-width="2" fill-opacity="1" fill="#ffffff"></path><g id="SvgjsG1274"><text id="SvgjsText1275" font-family="微软雅黑" text-anchor="middle" font-size="13px" width="100px" fill="#323232" font-weight="400" align="middle" anchor="middle" family="微软雅黑" size="13px" weight="400" font-style="" opacity="1" y="200.05" transform="rotate(0)"></text></g></g><g id="SvgjsG1276" transform="translate(368.5,25)"><path id="SvgjsPath1277" d="M 0 0L 120 0L 120 40L 0 40Z" stroke="none" fill="none"></path><g id="SvgjsG1278"><text id="SvgjsText1279" font-family="&quot;Times New Roman&quot;" text-anchor="middle" font-size="13px" width="120px" fill="#323232" font-weight="400" align="middle" anchor="middle" family="&quot;Times New Roman&quot;" size="13px" weight="400" font-style="" opacity="1" y="10.05" transform="rotate(0)"><tspan id="SvgjsTspan1280" dy="16" x="60"><tspan id="SvgjsTspan1281" style="text-decoration:;">Web 服务器集群</tspan></tspan></text></g></g><g id="SvgjsG1282" transform="translate(200.5,267.5)"><path id="SvgjsPath1283" d="M 0 0L 120 0L 120 40L 0 40Z" stroke="none" fill="none"></path><g id="SvgjsG1284"><text id="SvgjsText1285" font-family="&quot;Times New Roman&quot;" text-anchor="middle" font-size="13px" width="120px" fill="#323232" font-weight="400" align="middle" anchor="middle" family="&quot;Times New Roman&quot;" size="13px" weight="400" font-style="" opacity="1" y="10.05" transform="rotate(0)"><tspan id="SvgjsTspan1286" dy="16" x="60"><tspan id="SvgjsTspan1287" style="text-decoration:;">负载均衡服务器</tspan></tspan></text></g></g><g id="SvgjsG1288" transform="translate(25,267.5)"><path id="SvgjsPath1289" d="M 0 0L 120 0L 120 40L 0 40Z" stroke="none" fill="none"></path><g id="SvgjsG1290"><text id="SvgjsText1291" font-family="&quot;Times New Roman&quot;" text-anchor="middle" font-size="13px" width="120px" fill="#323232" font-weight="400" align="middle" anchor="middle" family="&quot;Times New Roman&quot;" size="13px" weight="400" font-style="" opacity="1" y="10.05" transform="rotate(0)"><tspan id="SvgjsTspan1292" dy="16" x="60"><tspan id="SvgjsTspan1293" style="text-decoration:;">用户浏览器</tspan></tspan></text></g></g><g id="SvgjsG1294"><path id="SvgjsPath1295" d="M125 235L185.25 235L185.25 235L245.5 235" stroke="#323232" stroke-width="1" fill="none" marker-end="url(#SvgjsMarker1296)"></path></g><g id="SvgjsG1298"><path id="SvgjsPath1299" d="M275.5 235L413.5 119" stroke-dasharray="8,5" stroke="#ff0000" stroke-width="1" fill="none" marker-end="url(#SvgjsMarker1300)"></path></g><g id="SvgjsG1302"><path id="SvgjsPath1303" d="M275.5 235L413.5 235" stroke="#323232" stroke-width="1" fill="none" marker-end="url(#SvgjsMarker1304)"></path></g><g id="SvgjsG1306"><path id="SvgjsPath1307" d="M275.5 235L413.5 362" stroke="#323232" stroke-width="1" fill="none" marker-end="url(#SvgjsMarker1308)"></path></g><g id="SvgjsG1310" transform="translate(125.5,195)"><path id="SvgjsPath1311" d="M 0 0L 120 0L 120 40L 0 40Z" stroke="none" fill="none"></path><g id="SvgjsG1312"><text id="SvgjsText1313" font-family="&quot;Times New Roman&quot;" text-anchor="middle" font-size="13px" width="120px" fill="#323232" font-weight="400" align="middle" anchor="middle" family="&quot;Times New Roman&quot;" size="13px" weight="400" font-style="" opacity="1" y="10.05" transform="rotate(0)"><tspan id="SvgjsTspan1314" dy="16" x="60"><tspan id="SvgjsTspan1315" style="text-decoration:;">发起请求</tspan></tspan></text></g></g><g id="SvgjsG1316" transform="translate(235.5,138)"><path id="SvgjsPath1317" d="M 0 0L 120 0L 120 40L 0 40Z" stroke="none" fill="none"></path><g id="SvgjsG1318"><text id="SvgjsText1319" font-family="&quot;Times New Roman&quot;" text-anchor="middle" font-size="13px" width="120px" fill="#ff0000" font-weight="400" align="middle" anchor="middle" family="&quot;Times New Roman&quot;" size="13px" weight="400" font-style="" opacity="1" y="10.05" transform="rotate(0)"><tspan id="SvgjsTspan1320" dy="16" x="60"><tspan id="SvgjsTspan1321" style="text-decoration:;">失去响应</tspan></tspan></text></g></g><g id="SvgjsG1322" transform="translate(245.5,202.5)"><path id="SvgjsPath1323" d="M 0 0L 30 0L 30 65L 0 65Z" stroke="none" fill="url(#SvgjsPattern1324)"></path><g id="SvgjsG1326"><text id="SvgjsText1327" font-family="微软雅黑" text-anchor="middle" font-size="13px" width="70px" fill="#323232" font-weight="400" align="middle" anchor="middle" family="微软雅黑" size="13px" weight="400" font-style="" opacity="1" y="70.05" transform="rotate(0)"></text></g></g><g id="SvgjsG1328" transform="translate(45,202.5)"><path id="SvgjsPath1329" d="M 0 0L 80 0L 80 65L 0 65Z" stroke="none" fill="url(#SvgjsPattern1330)"></path><g id="SvgjsG1332"><text id="SvgjsText1333" font-family="微软雅黑" text-anchor="middle" font-size="13px" width="120px" fill="#323232" font-weight="400" align="middle" anchor="middle" family="微软雅黑" size="13px" weight="400" font-style="" opacity="1" y="70.05" transform="rotate(0)"></text></g></g><g id="SvgjsG1334" transform="translate(413.5,86.5)"><path id="SvgjsPath1335" d="M 0 0L 30 0L 30 65L 0 65Z" stroke="none" fill="url(#SvgjsPattern1336)"></path><g id="SvgjsG1338"><text id="SvgjsText1339" font-family="微软雅黑" text-anchor="middle" font-size="13px" width="70px" fill="#323232" font-weight="400" align="middle" anchor="middle" family="微软雅黑" size="13px" weight="400" font-style="" opacity="1" y="70.05" transform="rotate(0)"><tspan id="SvgjsTspan1340" dy="16" x="15"><tspan id="SvgjsTspan1341" style="text-decoration:;">10.0.0.1</tspan></tspan></text></g></g><g id="SvgjsG1342" transform="translate(413.5,202.5)"><path id="SvgjsPath1343" d="M 0 0L 30 0L 30 65L 0 65Z" stroke="none" fill="url(#SvgjsPattern1344)"></path><g id="SvgjsG1346"><text id="SvgjsText1347" font-family="微软雅黑" text-anchor="middle" font-size="13px" width="70px" fill="#323232" font-weight="400" align="middle" anchor="middle" family="微软雅黑" size="13px" weight="400" font-style="" opacity="1" y="70.05" transform="rotate(0)"><tspan id="SvgjsTspan1348" dy="16" x="15"><tspan id="SvgjsTspan1349" style="text-decoration:;">10.0.0.2</tspan></tspan></text></g></g><g id="SvgjsG1350" transform="translate(413.5,329.5)"><path id="SvgjsPath1351" d="M 0 0L 30 0L 30 65L 0 65Z" stroke="none" fill="url(#SvgjsPattern1352)"></path><g id="SvgjsG1354"><text id="SvgjsText1355" font-family="微软雅黑" text-anchor="middle" font-size="13px" width="70px" fill="#323232" font-weight="400" align="middle" anchor="middle" family="微软雅黑" size="13px" weight="400" font-style="" opacity="1" y="70.05" transform="rotate(0)"><tspan id="SvgjsTspan1356" dy="16" x="15"><tspan id="SvgjsTspan1357" style="text-decoration:;">10.0.0.3</tspan></tspan></text></g></g></svg>