<svg id="SvgjsSvg1134" width="541" height="432" xmlns="http://www.w3.org/2000/svg" version="1.1" xmlns:xlink="http://www.w3.org/1999/xlink" xmlns:svgjs="http://svgjs.com/svgjs"><defs id="SvgjsDefs1135"><marker id="SvgjsMarker1144" markerWidth="16" markerHeight="12" refX="10" refY="6" viewBox="0 0 16 12" orient="auto" markerUnits="userSpaceOnUse" stroke-dasharray="0,0"><path id="SvgjsPath1145" d="M0,3 L10,6 L0,9 L0,3" fill="#323232" stroke="#323232" stroke-width="1"></path></marker><pattern id="SvgjsPattern1154" x="0" y="0" width="80" height="65" patternUnits="userSpaceOnUse"><image id="SvgjsImage1155" xlink:href="https://processon.com/assets/images/designer/network/pc.svg" width="80" height="65" preserveAspectRatio="none" crossOrigin="anonymous" x="0" y="0"></image></pattern><pattern id="SvgjsPattern1160" x="0" y="0" width="30" height="65" patternUnits="userSpaceOnUse"><image id="SvgjsImage1161" xlink:href="https://processon.com/assets/images/designer/network/server.svg" width="30" height="65" preserveAspectRatio="none" crossOrigin="anonymous" x="0" y="0"></image></pattern><pattern id="SvgjsPattern1166" x="0" y="0" width="30" height="65" patternUnits="userSpaceOnUse"><image id="SvgjsImage1167" xlink:href="https://processon.com/assets/images/designer/network/server.svg" width="30" height="65" preserveAspectRatio="none" crossOrigin="anonymous" x="0" y="0"></image></pattern><pattern id="SvgjsPattern1172" x="0" y="0" width="30" height="65" patternUnits="userSpaceOnUse"><image id="SvgjsImage1173" xlink:href="https://processon.com/assets/images/designer/network/server.svg" width="30" height="65" preserveAspectRatio="none" crossOrigin="anonymous" x="0" y="0"></image></pattern><marker id="SvgjsMarker1196" markerWidth="16" markerHeight="12" refX="10" refY="6" viewBox="0 0 16 12" orient="auto" markerUnits="userSpaceOnUse" stroke-dasharray="0,0"><path id="SvgjsPath1197" d="M0,3 L10,6 L0,9 L0,3" fill="#323232" stroke="#323232" stroke-width="1"></path></marker><pattern id="SvgjsPattern1200" x="0" y="0" width="80" height="55" patternUnits="userSpaceOnUse"><image id="SvgjsImage1201" xlink:href="https://processon.com/assets/images/designer/network/cloud.svg" width="80" height="55" preserveAspectRatio="none" crossOrigin="anonymous" x="0" y="0"></image></pattern><marker id="SvgjsMarker1206" markerWidth="16" markerHeight="12" refX="10" refY="6" viewBox="0 0 16 12" orient="auto" markerUnits="userSpaceOnUse" stroke-dasharray="0,0"><path id="SvgjsPath1207" d="M0,3 L10,6 L0,9 L0,3" fill="#323232" stroke="#323232" stroke-width="1"></path></marker><pattern id="SvgjsPattern1210" x="0" y="0" width="80" height="65" patternUnits="userSpaceOnUse"><image id="SvgjsImage1211" xlink:href="https://processon.com/assets/images/designer/network/pc.svg" width="80" height="65" preserveAspectRatio="none" crossOrigin="anonymous" x="0" y="0"></image></pattern><marker id="SvgjsMarker1216" markerWidth="16" markerHeight="12" refX="10" refY="6" viewBox="0 0 16 12" orient="auto" markerUnits="userSpaceOnUse" stroke-dasharray="0,0"><path id="SvgjsPath1217" d="M0,3 L10,6 L0,9 L0,3" fill="#323232" stroke="#323232" stroke-width="1"></path></marker><marker id="SvgjsMarker1220" markerWidth="16" markerHeight="12" refX="10" refY="6" viewBox="0 0 16 12" orient="auto" markerUnits="userSpaceOnUse" stroke-dasharray="0,0"><path id="SvgjsPath1221" d="M0,3 L10,6 L0,9 L0,3" fill="#323232" stroke="#323232" stroke-width="1"></path></marker><pattern id="SvgjsPattern1230" x="0" y="0" width="75" height="16" patternUnits="userSpaceOnUse"><image id="SvgjsImage1231" xlink:href="https://processon.com/assets/images/designer/network/ethernet.svg" width="75" height="16" preserveAspectRatio="none" crossOrigin="anonymous" x="0" y="0"></image></pattern><marker id="SvgjsMarker1242" markerWidth="16" markerHeight="12" refX="10" refY="6" viewBox="0 0 16 12" orient="auto" markerUnits="userSpaceOnUse" stroke-dasharray="0,0"><path id="SvgjsPath1243" d="M0,3 L10,6 L0,9 L0,3" fill="#323232" stroke="#323232" stroke-width="1"></path></marker></defs><g id="SvgjsG1136" transform="translate(221.5,229)"><path id="SvgjsPath1137" d="M 0 0L 120 0L 120 25L 0 25Z" stroke="none" fill="none"></path><g id="SvgjsG1138"><text id="SvgjsText1139" font-family="&quot;Times New Roman&quot;" text-anchor="middle" font-size="13px" width="120px" fill="#323232" font-weight="400" align="middle" anchor="middle" family="&quot;Times New Roman&quot;" size="13px" weight="400" font-style="" opacity="1" y="2.55" transform="rotate(0)"><tspan id="SvgjsTspan1140" dy="16" x="60"><tspan id="SvgjsTspan1141" style="text-decoration:;">负载均衡设备</tspan></tspan></text></g></g><g id="SvgjsG1142"><path id="SvgjsPath1143" d="M319 211.5L441 211.5" stroke="#323232" stroke-width="1" fill="none" marker-end="url(#SvgjsMarker1144)"></path></g><g id="SvgjsG1146" transform="translate(97,146)"><path id="SvgjsPath1147" d="M 0 0L 60 0L 60 25L 0 25Z" stroke="none" fill="none"></path><g id="SvgjsG1148"><text id="SvgjsText1149" font-family="&quot;Times New Roman&quot;" text-anchor="middle" font-size="13px" width="60px" fill="#323232" font-weight="400" align="middle" anchor="middle" family="&quot;Times New Roman&quot;" size="13px" weight="400" font-style="" opacity="1" y="2.55" transform="rotate(0)"><tspan id="SvgjsTspan1150" dy="16" x="30"><tspan id="SvgjsTspan1151" style="text-decoration:;">发起请求</tspan></tspan></text></g></g><g id="SvgjsG1152" transform="translate(45,62)"><path id="SvgjsPath1153" d="M 0 0L 80 0L 80 65L 0 65Z" stroke="none" fill="url(#SvgjsPattern1154)"></path><g id="SvgjsG1156"><text id="SvgjsText1157" font-family="微软雅黑" text-anchor="middle" font-size="13px" width="120px" fill="#323232" font-weight="400" align="middle" anchor="middle" family="微软雅黑" size="13px" weight="400" font-style="" opacity="1" y="70.05" transform="rotate(0)"></text></g></g><g id="SvgjsG1158" transform="translate(441,62)"><path id="SvgjsPath1159" d="M 0 0L 30 0L 30 65L 0 65Z" stroke="none" fill="url(#SvgjsPattern1160)"></path><g id="SvgjsG1162"><text id="SvgjsText1163" font-family="微软雅黑" text-anchor="middle" font-size="13px" width="70px" fill="#323232" font-weight="400" align="middle" anchor="middle" family="微软雅黑" size="13px" weight="400" font-style="" opacity="1" y="70.05" transform="rotate(0)"></text></g></g><g id="SvgjsG1164" transform="translate(441,179)"><path id="SvgjsPath1165" d="M 0 0L 30 0L 30 65L 0 65Z" stroke="none" fill="url(#SvgjsPattern1166)"></path><g id="SvgjsG1168"><text id="SvgjsText1169" font-family="微软雅黑" text-anchor="middle" font-size="13px" width="70px" fill="#323232" font-weight="400" align="middle" anchor="middle" family="微软雅黑" size="13px" weight="400" font-style="" opacity="1" y="70.05" transform="rotate(0)"></text></g></g><g id="SvgjsG1170" transform="translate(441,306)"><path id="SvgjsPath1171" d="M 0 0L 30 0L 30 65L 0 65Z" stroke="none" fill="url(#SvgjsPattern1172)"></path><g id="SvgjsG1174"><text id="SvgjsText1175" font-family="微软雅黑" text-anchor="middle" font-size="13px" width="70px" fill="#323232" font-weight="400" align="middle" anchor="middle" family="微软雅黑" size="13px" weight="400" font-style="" opacity="1" y="70.05" transform="rotate(0)"></text></g></g><g id="SvgjsG1176" transform="translate(396,135)"><path id="SvgjsPath1177" d="M 0 0L 120 0L 120 25L 0 25Z" stroke="none" fill="none"></path><g id="SvgjsG1178"><text id="SvgjsText1179" font-family="&quot;Times New Roman&quot;" text-anchor="middle" font-size="13px" width="120px" fill="#323232" font-weight="400" align="middle" anchor="middle" family="&quot;Times New Roman&quot;" size="13px" weight="400" font-style="" opacity="1" y="2.55" transform="rotate(0)"><tspan id="SvgjsTspan1180" dy="16" x="60"><tspan id="SvgjsTspan1181" style="text-decoration:;">应用服务器 1</tspan></tspan></text></g></g><g id="SvgjsG1182" transform="translate(396,254)"><path id="SvgjsPath1183" d="M 0 0L 120 0L 120 25L 0 25Z" stroke="none" fill="none"></path><g id="SvgjsG1184"><text id="SvgjsText1185" font-family="&quot;Times New Roman&quot;" text-anchor="middle" font-size="13px" width="120px" fill="#323232" font-weight="400" align="middle" anchor="middle" family="&quot;Times New Roman&quot;" size="13px" weight="400" font-style="" opacity="1" y="2.55" transform="rotate(0)"><tspan id="SvgjsTspan1186" dy="16" x="60"><tspan id="SvgjsTspan1187" style="text-decoration:;">应用服务器 2</tspan></tspan></text></g></g><g id="SvgjsG1188" transform="translate(396,382)"><path id="SvgjsPath1189" d="M 0 0L 120 0L 120 25L 0 25Z" stroke="none" fill="none"></path><g id="SvgjsG1190"><text id="SvgjsText1191" font-family="&quot;Times New Roman&quot;" text-anchor="middle" font-size="13px" width="120px" fill="#323232" font-weight="400" align="middle" anchor="middle" family="&quot;Times New Roman&quot;" size="13px" weight="400" font-style="" opacity="1" y="2.55" transform="rotate(0)"><tspan id="SvgjsTspan1192" dy="16" x="60"><tspan id="SvgjsTspan1193" style="text-decoration:;">应用服务器 3</tspan></tspan></text></g></g><g id="SvgjsG1194"><path id="SvgjsPath1195" d="M319 211.5L380 211.5L380 94.5L441 94.5" stroke="#323232" stroke-width="1" fill="none" marker-end="url(#SvgjsMarker1196)"></path></g><g id="SvgjsG1198" transform="translate(45,184)"><path id="SvgjsPath1199" d="M 0 0L 80 0L 80 55L 0 55Z" stroke="none" fill="url(#SvgjsPattern1200)"></path><g id="SvgjsG1202"><text id="SvgjsText1203" font-family="微软雅黑" text-anchor="middle" font-size="13px" width="120px" fill="#323232" font-weight="400" align="middle" anchor="middle" family="微软雅黑" size="13px" weight="400" font-style="" opacity="1" y="60.05" transform="rotate(0)"></text></g></g><g id="SvgjsG1204"><path id="SvgjsPath1205" d="M125 211.5L244 211.5" stroke="#323232" stroke-width="1" fill="none" marker-end="url(#SvgjsMarker1206)"></path></g><g id="SvgjsG1208" transform="translate(45,306)"><path id="SvgjsPath1209" d="M 0 0L 80 0L 80 65L 0 65Z" stroke="none" fill="url(#SvgjsPattern1210)"></path><g id="SvgjsG1212"><text id="SvgjsText1213" font-family="微软雅黑" text-anchor="middle" font-size="13px" width="120px" fill="#323232" font-weight="400" align="middle" anchor="middle" family="微软雅黑" size="13px" weight="400" font-style="" opacity="1" y="70.05" transform="rotate(0)"></text></g></g><g id="SvgjsG1214"><path id="SvgjsPath1215" d="M85 127L85 184" stroke="#323232" stroke-width="1" fill="none" marker-end="url(#SvgjsMarker1216)"></path></g><g id="SvgjsG1218"><path id="SvgjsPath1219" d="M85 306L85 239" stroke="#323232" stroke-width="1" fill="none" marker-end="url(#SvgjsMarker1220)"></path></g><g id="SvgjsG1222" transform="translate(97,263)"><path id="SvgjsPath1223" d="M 0 0L 60 0L 60 25L 0 25Z" stroke="none" fill="none"></path><g id="SvgjsG1224"><text id="SvgjsText1225" font-family="&quot;Times New Roman&quot;" text-anchor="middle" font-size="13px" width="60px" fill="#323232" font-weight="400" align="middle" anchor="middle" family="&quot;Times New Roman&quot;" size="13px" weight="400" font-style="" opacity="1" y="2.55" transform="rotate(0)"><tspan id="SvgjsTspan1226" dy="16" x="30"><tspan id="SvgjsTspan1227" style="text-decoration:;">发起请求</tspan></tspan></text></g></g><g id="SvgjsG1228" transform="translate(244,203.5)"><path id="SvgjsPath1229" d="M 0 0L 75 0L 75 16L 0 16Z" stroke="none" fill="url(#SvgjsPattern1230)"></path><g id="SvgjsG1232"><text id="SvgjsText1233" font-family="微软雅黑" text-anchor="middle" font-size="13px" width="115px" fill="#323232" font-weight="400" align="middle" anchor="middle" family="微软雅黑" size="13px" weight="400" font-style="" opacity="1" y="21.05" transform="rotate(0)"></text></g></g><g id="SvgjsG1234" transform="translate(25,382)"><path id="SvgjsPath1235" d="M 0 0L 120 0L 120 25L 0 25Z" stroke="none" fill="none"></path><g id="SvgjsG1236"><text id="SvgjsText1237" font-family="&quot;Times New Roman&quot;" text-anchor="middle" font-size="13px" width="120px" fill="#323232" font-weight="400" align="middle" anchor="middle" family="&quot;Times New Roman&quot;" size="13px" weight="400" font-style="" opacity="1" y="2.55" transform="rotate(0)"><tspan id="SvgjsTspan1238" dy="16" x="60"><tspan id="SvgjsTspan1239" style="text-decoration:;">Cookie:456@kofes.cn</tspan></tspan></text></g></g><g id="SvgjsG1240"><path id="SvgjsPath1241" d="M319 211.5L380 211.5L380 338.5L441 338.5" stroke="#323232" stroke-width="1" fill="none" marker-end="url(#SvgjsMarker1242)"></path></g><g id="SvgjsG1244" transform="translate(25,25)"><path id="SvgjsPath1245" d="M 0 0L 120 0L 120 25L 0 25Z" stroke="none" fill="none"></path><g id="SvgjsG1246"><text id="SvgjsText1247" font-family="&quot;Times New Roman&quot;" text-anchor="middle" font-size="13px" width="120px" fill="#323232" font-weight="400" align="middle" anchor="middle" family="&quot;Times New Roman&quot;" size="13px" weight="400" font-style="" opacity="1" y="2.55" transform="rotate(0)"><tspan id="SvgjsTspan1248" dy="16" x="60"><tspan id="SvgjsTspan1249" style="text-decoration:;">Cookie:123@kofes.cn</tspan></tspan></text></g></g><g id="SvgjsG1250" transform="translate(232,53)"><path id="SvgjsPath1251" d="M 0 0L 200 0L 200 35L 0 35Z" stroke="none" fill="none"></path><g id="SvgjsG1252"><text id="SvgjsText1253" font-family="&quot;Times New Roman&quot;" text-anchor="middle" font-size="13px" width="200px" fill="#323232" font-weight="400" align="middle" anchor="middle" family="&quot;Times New Roman&quot;" size="13px" weight="400" font-style="" opacity="1" y="7.55" transform="rotate(0)"><tspan id="SvgjsTspan1254" dy="16" x="100"><tspan id="SvgjsTspan1255" style="text-decoration:;">Cookie:123@kofes.cn</tspan></tspan></text></g></g><g id="SvgjsG1256" transform="translate(232,347)"><path id="SvgjsPath1257" d="M 0 0L 200 0L 200 35L 0 35Z" stroke="none" fill="none"></path><g id="SvgjsG1258"><text id="SvgjsText1259" font-family="&quot;Times New Roman&quot;" text-anchor="middle" font-size="13px" width="200px" fill="#323232" font-weight="400" align="middle" anchor="middle" family="&quot;Times New Roman&quot;" size="13px" weight="400" font-style="" opacity="1" y="7.55" transform="rotate(0)"><tspan id="SvgjsTspan1260" dy="16" x="100"><tspan id="SvgjsTspan1261" style="text-decoration:;">Cookie:456@kofes.cn</tspan></tspan></text></g></g></svg>