<svg id="SvgjsSvg1006" width="541" height="432" xmlns="http://www.w3.org/2000/svg" version="1.1" xmlns:xlink="http://www.w3.org/1999/xlink" xmlns:svgjs="http://svgjs.com/svgjs"><defs id="SvgjsDefs1007"><marker id="SvgjsMarker1016" markerWidth="16" markerHeight="12" refX="10" refY="6" viewBox="0 0 16 12" orient="auto" markerUnits="userSpaceOnUse" stroke-dasharray="0,0"><path id="SvgjsPath1017" d="M0,3 L10,6 L0,9 L0,3" fill="#323232" stroke="#323232" stroke-width="1"></path></marker><pattern id="SvgjsPattern1026" x="0" y="0" width="80" height="65" patternUnits="userSpaceOnUse"><image id="SvgjsImage1027" xlink:href="https://processon.com/assets/images/designer/network/pc.svg" width="80" height="65" preserveAspectRatio="none" crossOrigin="anonymous" x="0" y="0"></image></pattern><pattern id="SvgjsPattern1032" x="0" y="0" width="30" height="65" patternUnits="userSpaceOnUse"><image id="SvgjsImage1033" xlink:href="https://processon.com/assets/images/designer/network/server.svg" width="30" height="65" preserveAspectRatio="none" crossOrigin="anonymous" x="0" y="0"></image></pattern><pattern id="SvgjsPattern1038" x="0" y="0" width="30" height="65" patternUnits="userSpaceOnUse"><image id="SvgjsImage1039" xlink:href="https://processon.com/assets/images/designer/network/server.svg" width="30" height="65" preserveAspectRatio="none" crossOrigin="anonymous" x="0" y="0"></image></pattern><pattern id="SvgjsPattern1044" x="0" y="0" width="30" height="65" patternUnits="userSpaceOnUse"><image id="SvgjsImage1045" xlink:href="https://processon.com/assets/images/designer/network/server.svg" width="30" height="65" preserveAspectRatio="none" crossOrigin="anonymous" x="0" y="0"></image></pattern><marker id="SvgjsMarker1068" markerWidth="16" markerHeight="12" refX="10" refY="6" viewBox="0 0 16 12" orient="auto" markerUnits="userSpaceOnUse" stroke-dasharray="0,0"><path id="SvgjsPath1069" d="M0,3 L10,6 L0,9 L0,3" fill="#323232" stroke="#323232" stroke-width="1"></path></marker><pattern id="SvgjsPattern1072" x="0" y="0" width="80" height="55" patternUnits="userSpaceOnUse"><image id="SvgjsImage1073" xlink:href="https://processon.com/assets/images/designer/network/cloud.svg" width="80" height="55" preserveAspectRatio="none" crossOrigin="anonymous" x="0" y="0"></image></pattern><marker id="SvgjsMarker1078" markerWidth="16" markerHeight="12" refX="10" refY="6" viewBox="0 0 16 12" orient="auto" markerUnits="userSpaceOnUse" stroke-dasharray="0,0"><path id="SvgjsPath1079" d="M0,3 L10,6 L0,9 L0,3" fill="#323232" stroke="#323232" stroke-width="1"></path></marker><pattern id="SvgjsPattern1082" x="0" y="0" width="80" height="65" patternUnits="userSpaceOnUse"><image id="SvgjsImage1083" xlink:href="https://processon.com/assets/images/designer/network/pc.svg" width="80" height="65" preserveAspectRatio="none" crossOrigin="anonymous" x="0" y="0"></image></pattern><marker id="SvgjsMarker1088" markerWidth="16" markerHeight="12" refX="10" refY="6" viewBox="0 0 16 12" orient="auto" markerUnits="userSpaceOnUse" stroke-dasharray="0,0"><path id="SvgjsPath1089" d="M0,3 L10,6 L0,9 L0,3" fill="#323232" stroke="#323232" stroke-width="1"></path></marker><marker id="SvgjsMarker1092" markerWidth="16" markerHeight="12" refX="10" refY="6" viewBox="0 0 16 12" orient="auto" markerUnits="userSpaceOnUse" stroke-dasharray="0,0"><path id="SvgjsPath1093" d="M0,3 L10,6 L0,9 L0,3" fill="#323232" stroke="#323232" stroke-width="1"></path></marker><pattern id="SvgjsPattern1102" x="0" y="0" width="75" height="16" patternUnits="userSpaceOnUse"><image id="SvgjsImage1103" xlink:href="https://processon.com/assets/images/designer/network/ethernet.svg" width="75" height="16" preserveAspectRatio="none" crossOrigin="anonymous" x="0" y="0"></image></pattern><marker id="SvgjsMarker1114" markerWidth="16" markerHeight="12" refX="10" refY="6" viewBox="0 0 16 12" orient="auto" markerUnits="userSpaceOnUse" stroke-dasharray="0,0"><path id="SvgjsPath1115" d="M0,3 L10,6 L0,9 L0,3" fill="#323232" stroke="#323232" stroke-width="1"></path></marker></defs><g id="SvgjsG1008" transform="translate(221.5,229)"><path id="SvgjsPath1009" d="M 0 0L 120 0L 120 25L 0 25Z" stroke="none" fill="none"></path><g id="SvgjsG1010"><text id="SvgjsText1011" font-family="&quot;Times New Roman&quot;" text-anchor="middle" font-size="13px" width="120px" fill="#323232" font-weight="400" align="middle" anchor="middle" family="&quot;Times New Roman&quot;" size="13px" weight="400" font-style="" opacity="1" y="2.55" transform="rotate(0)"><tspan id="SvgjsTspan1012" dy="16" x="60"><tspan id="SvgjsTspan1013" style="text-decoration:;">负载均衡设备</tspan></tspan></text></g></g><g id="SvgjsG1014"><path id="SvgjsPath1015" d="M319 211.5L441 211.5" stroke="#323232" stroke-width="1" fill="none" marker-end="url(#SvgjsMarker1016)"></path></g><g id="SvgjsG1018" transform="translate(97,146)"><path id="SvgjsPath1019" d="M 0 0L 60 0L 60 25L 0 25Z" stroke="none" fill="none"></path><g id="SvgjsG1020"><text id="SvgjsText1021" font-family="&quot;Times New Roman&quot;" text-anchor="middle" font-size="13px" width="60px" fill="#323232" font-weight="400" align="middle" anchor="middle" family="&quot;Times New Roman&quot;" size="13px" weight="400" font-style="" opacity="1" y="2.55" transform="rotate(0)"><tspan id="SvgjsTspan1022" dy="16" x="30"><tspan id="SvgjsTspan1023" style="text-decoration:;">发起请求</tspan></tspan></text></g></g><g id="SvgjsG1024" transform="translate(45,62)"><path id="SvgjsPath1025" d="M 0 0L 80 0L 80 65L 0 65Z" stroke="none" fill="url(#SvgjsPattern1026)"></path><g id="SvgjsG1028"><text id="SvgjsText1029" font-family="微软雅黑" text-anchor="middle" font-size="13px" width="120px" fill="#323232" font-weight="400" align="middle" anchor="middle" family="微软雅黑" size="13px" weight="400" font-style="" opacity="1" y="70.05" transform="rotate(0)"></text></g></g><g id="SvgjsG1030" transform="translate(441,62)"><path id="SvgjsPath1031" d="M 0 0L 30 0L 30 65L 0 65Z" stroke="none" fill="url(#SvgjsPattern1032)"></path><g id="SvgjsG1034"><text id="SvgjsText1035" font-family="微软雅黑" text-anchor="middle" font-size="13px" width="70px" fill="#323232" font-weight="400" align="middle" anchor="middle" family="微软雅黑" size="13px" weight="400" font-style="" opacity="1" y="70.05" transform="rotate(0)"></text></g></g><g id="SvgjsG1036" transform="translate(441,179)"><path id="SvgjsPath1037" d="M 0 0L 30 0L 30 65L 0 65Z" stroke="none" fill="url(#SvgjsPattern1038)"></path><g id="SvgjsG1040"><text id="SvgjsText1041" font-family="微软雅黑" text-anchor="middle" font-size="13px" width="70px" fill="#323232" font-weight="400" align="middle" anchor="middle" family="微软雅黑" size="13px" weight="400" font-style="" opacity="1" y="70.05" transform="rotate(0)"></text></g></g><g id="SvgjsG1042" transform="translate(441,306)"><path id="SvgjsPath1043" d="M 0 0L 30 0L 30 65L 0 65Z" stroke="none" fill="url(#SvgjsPattern1044)"></path><g id="SvgjsG1046"><text id="SvgjsText1047" font-family="微软雅黑" text-anchor="middle" font-size="13px" width="70px" fill="#323232" font-weight="400" align="middle" anchor="middle" family="微软雅黑" size="13px" weight="400" font-style="" opacity="1" y="70.05" transform="rotate(0)"></text></g></g><g id="SvgjsG1048" transform="translate(396,135)"><path id="SvgjsPath1049" d="M 0 0L 120 0L 120 25L 0 25Z" stroke="none" fill="none"></path><g id="SvgjsG1050"><text id="SvgjsText1051" font-family="&quot;Times New Roman&quot;" text-anchor="middle" font-size="13px" width="120px" fill="#323232" font-weight="400" align="middle" anchor="middle" family="&quot;Times New Roman&quot;" size="13px" weight="400" font-style="" opacity="1" y="2.55" transform="rotate(0)"><tspan id="SvgjsTspan1052" dy="16" x="60"><tspan id="SvgjsTspan1053" style="text-decoration:;">应用服务器 1</tspan></tspan></text></g></g><g id="SvgjsG1054" transform="translate(396,254)"><path id="SvgjsPath1055" d="M 0 0L 120 0L 120 25L 0 25Z" stroke="none" fill="none"></path><g id="SvgjsG1056"><text id="SvgjsText1057" font-family="&quot;Times New Roman&quot;" text-anchor="middle" font-size="13px" width="120px" fill="#323232" font-weight="400" align="middle" anchor="middle" family="&quot;Times New Roman&quot;" size="13px" weight="400" font-style="" opacity="1" y="2.55" transform="rotate(0)"><tspan id="SvgjsTspan1058" dy="16" x="60"><tspan id="SvgjsTspan1059" style="text-decoration:;">应用服务器 2</tspan></tspan></text></g></g><g id="SvgjsG1060" transform="translate(396,382)"><path id="SvgjsPath1061" d="M 0 0L 120 0L 120 25L 0 25Z" stroke="none" fill="none"></path><g id="SvgjsG1062"><text id="SvgjsText1063" font-family="&quot;Times New Roman&quot;" text-anchor="middle" font-size="13px" width="120px" fill="#323232" font-weight="400" align="middle" anchor="middle" family="&quot;Times New Roman&quot;" size="13px" weight="400" font-style="" opacity="1" y="2.55" transform="rotate(0)"><tspan id="SvgjsTspan1064" dy="16" x="60"><tspan id="SvgjsTspan1065" style="text-decoration:;">应用服务器 3</tspan></tspan></text></g></g><g id="SvgjsG1066"><path id="SvgjsPath1067" d="M319 211.5L380 211.5L380 94.5L441 94.5" stroke="#323232" stroke-width="1" fill="none" marker-end="url(#SvgjsMarker1068)"></path></g><g id="SvgjsG1070" transform="translate(45,184)"><path id="SvgjsPath1071" d="M 0 0L 80 0L 80 55L 0 55Z" stroke="none" fill="url(#SvgjsPattern1072)"></path><g id="SvgjsG1074"><text id="SvgjsText1075" font-family="微软雅黑" text-anchor="middle" font-size="13px" width="120px" fill="#323232" font-weight="400" align="middle" anchor="middle" family="微软雅黑" size="13px" weight="400" font-style="" opacity="1" y="60.05" transform="rotate(0)"></text></g></g><g id="SvgjsG1076"><path id="SvgjsPath1077" d="M125 211.5L244 211.5" stroke="#323232" stroke-width="1" fill="none" marker-end="url(#SvgjsMarker1078)"></path></g><g id="SvgjsG1080" transform="translate(45,306)"><path id="SvgjsPath1081" d="M 0 0L 80 0L 80 65L 0 65Z" stroke="none" fill="url(#SvgjsPattern1082)"></path><g id="SvgjsG1084"><text id="SvgjsText1085" font-family="微软雅黑" text-anchor="middle" font-size="13px" width="120px" fill="#323232" font-weight="400" align="middle" anchor="middle" family="微软雅黑" size="13px" weight="400" font-style="" opacity="1" y="70.05" transform="rotate(0)"></text></g></g><g id="SvgjsG1086"><path id="SvgjsPath1087" d="M85 127L85 184" stroke="#323232" stroke-width="1" fill="none" marker-end="url(#SvgjsMarker1088)"></path></g><g id="SvgjsG1090"><path id="SvgjsPath1091" d="M85 306L85 239" stroke="#323232" stroke-width="1" fill="none" marker-end="url(#SvgjsMarker1092)"></path></g><g id="SvgjsG1094" transform="translate(97,263)"><path id="SvgjsPath1095" d="M 0 0L 60 0L 60 25L 0 25Z" stroke="none" fill="none"></path><g id="SvgjsG1096"><text id="SvgjsText1097" font-family="&quot;Times New Roman&quot;" text-anchor="middle" font-size="13px" width="60px" fill="#323232" font-weight="400" align="middle" anchor="middle" family="&quot;Times New Roman&quot;" size="13px" weight="400" font-style="" opacity="1" y="2.55" transform="rotate(0)"><tspan id="SvgjsTspan1098" dy="16" x="30"><tspan id="SvgjsTspan1099" style="text-decoration:;">发起请求</tspan></tspan></text></g></g><g id="SvgjsG1100" transform="translate(244,203.5)"><path id="SvgjsPath1101" d="M 0 0L 75 0L 75 16L 0 16Z" stroke="none" fill="url(#SvgjsPattern1102)"></path><g id="SvgjsG1104"><text id="SvgjsText1105" font-family="微软雅黑" text-anchor="middle" font-size="13px" width="115px" fill="#323232" font-weight="400" align="middle" anchor="middle" family="微软雅黑" size="13px" weight="400" font-style="" opacity="1" y="21.05" transform="rotate(0)"></text></g></g><g id="SvgjsG1106" transform="translate(25,382)"><path id="SvgjsPath1107" d="M 0 0L 120 0L 120 25L 0 25Z" stroke="none" fill="none"></path><g id="SvgjsG1108"><text id="SvgjsText1109" font-family="&quot;Times New Roman&quot;" text-anchor="middle" font-size="13px" width="120px" fill="#323232" font-weight="400" align="middle" anchor="middle" family="&quot;Times New Roman&quot;" size="13px" weight="400" font-style="" opacity="1" y="2.55" transform="rotate(0)"><tspan id="SvgjsTspan1110" dy="16" x="60"><tspan id="SvgjsTspan1111" style="text-decoration:;">119.167.195.241</tspan></tspan></text></g></g><g id="SvgjsG1112"><path id="SvgjsPath1113" d="M319 211.5L380 211.5L380 338.5L441 338.5" stroke="#323232" stroke-width="1" fill="none" marker-end="url(#SvgjsMarker1114)"></path></g><g id="SvgjsG1116" transform="translate(25,25)"><path id="SvgjsPath1117" d="M 0 0L 120 0L 120 25L 0 25Z" stroke="none" fill="none"></path><g id="SvgjsG1118"><text id="SvgjsText1119" font-family="&quot;Times New Roman&quot;" text-anchor="middle" font-size="13px" width="120px" fill="#323232" font-weight="400" align="middle" anchor="middle" family="&quot;Times New Roman&quot;" size="13px" weight="400" font-style="" opacity="1" y="2.55" transform="rotate(0)"><tspan id="SvgjsTspan1120" dy="16" x="60"><tspan id="SvgjsTspan1121" style="text-decoration:;">180.149.134.17</tspan></tspan></text></g></g><g id="SvgjsG1122" transform="translate(232,53)"><path id="SvgjsPath1123" d="M 0 0L 200 0L 200 35L 0 35Z" stroke="none" fill="none"></path><g id="SvgjsG1124"><text id="SvgjsText1125" font-family="&quot;Times New Roman&quot;" text-anchor="middle" font-size="13px" width="200px" fill="#323232" font-weight="400" align="middle" anchor="middle" family="&quot;Times New Roman&quot;" size="13px" weight="400" font-style="" opacity="1" y="7.55" transform="rotate(0)"><tspan id="SvgjsTspan1126" dy="16" x="100"><tspan id="SvgjsTspan1127" style="text-decoration:;"> 所有来自 180.149.134.17 的请求</tspan></tspan></text></g></g><g id="SvgjsG1128" transform="translate(232,347)"><path id="SvgjsPath1129" d="M 0 0L 200 0L 200 35L 0 35Z" stroke="none" fill="none"></path><g id="SvgjsG1130"><text id="SvgjsText1131" font-family="&quot;Times New Roman&quot;" text-anchor="middle" font-size="13px" width="200px" fill="#323232" font-weight="400" align="middle" anchor="middle" family="&quot;Times New Roman&quot;" size="13px" weight="400" font-style="" opacity="1" y="7.55" transform="rotate(0)"><tspan id="SvgjsTspan1132" dy="16" x="100"><tspan id="SvgjsTspan1133" style="text-decoration:;"> 所有来自 119.167.195.241 的请求</tspan></tspan></text></g></g></svg>