<svg id="SvgjsSvg1006" width="644" height="395" xmlns="http://www.w3.org/2000/svg" version="1.1" xmlns:xlink="http://www.w3.org/1999/xlink" xmlns:svgjs="http://svgjs.com/svgjs"><defs id="SvgjsDefs1007"><marker id="SvgjsMarker1016" markerWidth="16" markerHeight="12" refX="10" refY="6" viewBox="0 0 16 12" orient="auto" markerUnits="userSpaceOnUse" stroke-dasharray="0,0"><path id="SvgjsPath1017" d="M0,3 L10,6 L0,9 L0,3" fill="#323232" stroke="#323232" stroke-width="1"></path></marker><marker id="SvgjsMarker1020" markerWidth="16" markerHeight="12" refX="10" refY="6" viewBox="0 0 16 12" orient="auto" markerUnits="userSpaceOnUse" stroke-dasharray="0,0"><path id="SvgjsPath1021" d="M0,3 L10,6 L0,9 L0,3" fill="#323232" stroke="#323232" stroke-width="1"></path></marker><pattern id="SvgjsPattern1030" x="0" y="0" width="80" height="65" patternUnits="userSpaceOnUse"><image id="SvgjsImage1031" xlink:href="https://processon.com/assets/images/designer/network/pc.svg" width="80" height="65" preserveAspectRatio="none" crossOrigin="anonymous" x="0" y="0"></image></pattern><pattern id="SvgjsPattern1036" x="0" y="0" width="30" height="65" patternUnits="userSpaceOnUse"><image id="SvgjsImage1037" xlink:href="https://processon.com/assets/images/designer/network/server.svg" width="30" height="65" preserveAspectRatio="none" crossOrigin="anonymous" x="0" y="0"></image></pattern><pattern id="SvgjsPattern1042" x="0" y="0" width="30" height="65" patternUnits="userSpaceOnUse"><image id="SvgjsImage1043" xlink:href="https://processon.com/assets/images/designer/network/server.svg" width="30" height="65" preserveAspectRatio="none" crossOrigin="anonymous" x="0" y="0"></image></pattern><pattern id="SvgjsPattern1048" x="0" y="0" width="30" height="65" patternUnits="userSpaceOnUse"><image id="SvgjsImage1049" xlink:href="https://processon.com/assets/images/designer/network/server.svg" width="30" height="65" preserveAspectRatio="none" crossOrigin="anonymous" x="0" y="0"></image></pattern><marker id="SvgjsMarker1072" markerWidth="16" markerHeight="12" refX="10" refY="6" viewBox="0 0 16 12" orient="auto" markerUnits="userSpaceOnUse" stroke-dasharray="0,0"><path id="SvgjsPath1073" d="M0,3 L10,6 L0,9 L0,3" fill="#323232" stroke="#323232" stroke-width="1"></path></marker><pattern id="SvgjsPattern1076" x="0" y="0" width="80" height="55" patternUnits="userSpaceOnUse"><image id="SvgjsImage1077" xlink:href="https://processon.com/assets/images/designer/network/cloud.svg" width="80" height="55" preserveAspectRatio="none" crossOrigin="anonymous" x="0" y="0"></image></pattern><marker id="SvgjsMarker1082" markerWidth="16" markerHeight="12" refX="10" refY="6" viewBox="0 0 16 12" orient="auto" markerUnits="userSpaceOnUse" stroke-dasharray="0,0"><path id="SvgjsPath1083" d="M0,3 L10,6 L0,9 L0,3" fill="#323232" stroke="#323232" stroke-width="1"></path></marker><pattern id="SvgjsPattern1086" x="0" y="0" width="80" height="65" patternUnits="userSpaceOnUse"><image id="SvgjsImage1087" xlink:href="https://processon.com/assets/images/designer/network/pc.svg" width="80" height="65" preserveAspectRatio="none" crossOrigin="anonymous" x="0" y="0"></image></pattern><marker id="SvgjsMarker1092" markerWidth="16" markerHeight="12" refX="10" refY="6" viewBox="0 0 16 12" orient="auto" markerUnits="userSpaceOnUse" stroke-dasharray="0,0"><path id="SvgjsPath1093" d="M0,3 L10,6 L0,9 L0,3" fill="#323232" stroke="#323232" stroke-width="1"></path></marker><marker id="SvgjsMarker1096" markerWidth="16" markerHeight="12" refX="10" refY="6" viewBox="0 0 16 12" orient="auto" markerUnits="userSpaceOnUse" stroke-dasharray="0,0"><path id="SvgjsPath1097" d="M0,3 L10,6 L0,9 L0,3" fill="#323232" stroke="#323232" stroke-width="1"></path></marker><pattern id="SvgjsPattern1106" x="0" y="0" width="75" height="16" patternUnits="userSpaceOnUse"><image id="SvgjsImage1107" xlink:href="https://processon.com/assets/images/designer/network/ethernet.svg" width="75" height="16" preserveAspectRatio="none" crossOrigin="anonymous" x="0" y="0"></image></pattern><marker id="SvgjsMarker1118" markerWidth="16" markerHeight="12" refX="10" refY="6" viewBox="0 0 16 12" orient="auto" markerUnits="userSpaceOnUse" stroke-dasharray="0,0"><path id="SvgjsPath1119" d="M0,3 L10,6 L0,9 L0,3" fill="#323232" stroke="#323232" stroke-width="1"></path></marker><marker id="SvgjsMarker1122" markerWidth="16" markerHeight="12" refX="10" refY="6" viewBox="0 0 16 12" orient="auto" markerUnits="userSpaceOnUse" stroke-dasharray="0,0"><path id="SvgjsPath1123" d="M0,3 L10,6 L0,9 L0,3" fill="#323232" stroke="#323232" stroke-width="1"></path></marker></defs><g id="SvgjsG1008" transform="translate(221.5,192)"><path id="SvgjsPath1009" d="M 0 0L 120 0L 120 25L 0 25Z" stroke="none" fill="none"></path><g id="SvgjsG1010"><text id="SvgjsText1011" font-family="&quot;Times New Roman&quot;" text-anchor="middle" font-size="13px" width="120px" fill="#323232" font-weight="400" align="middle" anchor="middle" family="&quot;Times New Roman&quot;" size="13px" weight="400" font-style="" opacity="1" y="2.55" transform="rotate(0)"><tspan id="SvgjsTspan1012" dy="16" x="60"><tspan id="SvgjsTspan1013" style="text-decoration:;">负载均衡设备</tspan></tspan></text></g></g><g id="SvgjsG1014"><path id="SvgjsPath1015" d="M319 174.5L441 174.5" stroke="#323232" stroke-width="1" fill="none" marker-end="url(#SvgjsMarker1016)"></path></g><g id="SvgjsG1018"><path id="SvgjsPath1019" d="M319 174.5L441 301.5" stroke="#323232" stroke-width="1" fill="none" marker-end="url(#SvgjsMarker1020)"></path></g><g id="SvgjsG1022" transform="translate(97,109)"><path id="SvgjsPath1023" d="M 0 0L 60 0L 60 25L 0 25Z" stroke="none" fill="none"></path><g id="SvgjsG1024"><text id="SvgjsText1025" font-family="&quot;Times New Roman&quot;" text-anchor="middle" font-size="13px" width="60px" fill="#323232" font-weight="400" align="middle" anchor="middle" family="&quot;Times New Roman&quot;" size="13px" weight="400" font-style="" opacity="1" y="2.55" transform="rotate(0)"><tspan id="SvgjsTspan1026" dy="16" x="30"><tspan id="SvgjsTspan1027" style="text-decoration:;">发起请求</tspan></tspan></text></g></g><g id="SvgjsG1028" transform="translate(45,25)"><path id="SvgjsPath1029" d="M 0 0L 80 0L 80 65L 0 65Z" stroke="none" fill="url(#SvgjsPattern1030)"></path><g id="SvgjsG1032"><text id="SvgjsText1033" font-family="微软雅黑" text-anchor="middle" font-size="13px" width="120px" fill="#323232" font-weight="400" align="middle" anchor="middle" family="微软雅黑" size="13px" weight="400" font-style="" opacity="1" y="70.05" transform="rotate(0)"></text></g></g><g id="SvgjsG1034" transform="translate(441,25)"><path id="SvgjsPath1035" d="M 0 0L 30 0L 30 65L 0 65Z" stroke="none" fill="url(#SvgjsPattern1036)"></path><g id="SvgjsG1038"><text id="SvgjsText1039" font-family="微软雅黑" text-anchor="middle" font-size="13px" width="70px" fill="#323232" font-weight="400" align="middle" anchor="middle" family="微软雅黑" size="13px" weight="400" font-style="" opacity="1" y="70.05" transform="rotate(0)"></text></g></g><g id="SvgjsG1040" transform="translate(441,142)"><path id="SvgjsPath1041" d="M 0 0L 30 0L 30 65L 0 65Z" stroke="none" fill="url(#SvgjsPattern1042)"></path><g id="SvgjsG1044"><text id="SvgjsText1045" font-family="微软雅黑" text-anchor="middle" font-size="13px" width="70px" fill="#323232" font-weight="400" align="middle" anchor="middle" family="微软雅黑" size="13px" weight="400" font-style="" opacity="1" y="70.05" transform="rotate(0)"></text></g></g><g id="SvgjsG1046" transform="translate(441,269)"><path id="SvgjsPath1047" d="M 0 0L 30 0L 30 65L 0 65Z" stroke="none" fill="url(#SvgjsPattern1048)"></path><g id="SvgjsG1050"><text id="SvgjsText1051" font-family="微软雅黑" text-anchor="middle" font-size="13px" width="70px" fill="#323232" font-weight="400" align="middle" anchor="middle" family="微软雅黑" size="13px" weight="400" font-style="" opacity="1" y="70.05" transform="rotate(0)"></text></g></g><g id="SvgjsG1052" transform="translate(396,98)"><path id="SvgjsPath1053" d="M 0 0L 120 0L 120 25L 0 25Z" stroke="none" fill="none"></path><g id="SvgjsG1054"><text id="SvgjsText1055" font-family="&quot;Times New Roman&quot;" text-anchor="middle" font-size="13px" width="120px" fill="#323232" font-weight="400" align="middle" anchor="middle" family="&quot;Times New Roman&quot;" size="13px" weight="400" font-style="" opacity="1" y="2.55" transform="rotate(0)"><tspan id="SvgjsTspan1056" dy="16" x="60"><tspan id="SvgjsTspan1057" style="text-decoration:;">应用服务器 1</tspan></tspan></text></g></g><g id="SvgjsG1058" transform="translate(396,217)"><path id="SvgjsPath1059" d="M 0 0L 120 0L 120 25L 0 25Z" stroke="none" fill="none"></path><g id="SvgjsG1060"><text id="SvgjsText1061" font-family="&quot;Times New Roman&quot;" text-anchor="middle" font-size="13px" width="120px" fill="#323232" font-weight="400" align="middle" anchor="middle" family="&quot;Times New Roman&quot;" size="13px" weight="400" font-style="" opacity="1" y="2.55" transform="rotate(0)"><tspan id="SvgjsTspan1062" dy="16" x="60"><tspan id="SvgjsTspan1063" style="text-decoration:;">应用服务器 2</tspan></tspan></text></g></g><g id="SvgjsG1064" transform="translate(396,345)"><path id="SvgjsPath1065" d="M 0 0L 120 0L 120 25L 0 25Z" stroke="none" fill="none"></path><g id="SvgjsG1066"><text id="SvgjsText1067" font-family="&quot;Times New Roman&quot;" text-anchor="middle" font-size="13px" width="120px" fill="#323232" font-weight="400" align="middle" anchor="middle" family="&quot;Times New Roman&quot;" size="13px" weight="400" font-style="" opacity="1" y="2.55" transform="rotate(0)"><tspan id="SvgjsTspan1068" dy="16" x="60"><tspan id="SvgjsTspan1069" style="text-decoration:;">应用服务器 3</tspan></tspan></text></g></g><g id="SvgjsG1070"><path id="SvgjsPath1071" d="M319 174.5L441 57.5" stroke="#323232" stroke-width="1" fill="none" marker-end="url(#SvgjsMarker1072)"></path></g><g id="SvgjsG1074" transform="translate(45,147)"><path id="SvgjsPath1075" d="M 0 0L 80 0L 80 55L 0 55Z" stroke="none" fill="url(#SvgjsPattern1076)"></path><g id="SvgjsG1078"><text id="SvgjsText1079" font-family="微软雅黑" text-anchor="middle" font-size="13px" width="120px" fill="#323232" font-weight="400" align="middle" anchor="middle" family="微软雅黑" size="13px" weight="400" font-style="" opacity="1" y="60.05" transform="rotate(0)"></text></g></g><g id="SvgjsG1080"><path id="SvgjsPath1081" d="M125 174.5L244 174.5" stroke="#323232" stroke-width="1" fill="none" marker-end="url(#SvgjsMarker1082)"></path></g><g id="SvgjsG1084" transform="translate(45,269)"><path id="SvgjsPath1085" d="M 0 0L 80 0L 80 65L 0 65Z" stroke="none" fill="url(#SvgjsPattern1086)"></path><g id="SvgjsG1088"><text id="SvgjsText1089" font-family="微软雅黑" text-anchor="middle" font-size="13px" width="120px" fill="#323232" font-weight="400" align="middle" anchor="middle" family="微软雅黑" size="13px" weight="400" font-style="" opacity="1" y="70.05" transform="rotate(0)"></text></g></g><g id="SvgjsG1090"><path id="SvgjsPath1091" d="M85 90L85 147" stroke="#323232" stroke-width="1" fill="none" marker-end="url(#SvgjsMarker1092)"></path></g><g id="SvgjsG1094"><path id="SvgjsPath1095" d="M85 269L85 202" stroke="#323232" stroke-width="1" fill="none" marker-end="url(#SvgjsMarker1096)"></path></g><g id="SvgjsG1098" transform="translate(97,226)"><path id="SvgjsPath1099" d="M 0 0L 60 0L 60 25L 0 25Z" stroke="none" fill="none"></path><g id="SvgjsG1100"><text id="SvgjsText1101" font-family="&quot;Times New Roman&quot;" text-anchor="middle" font-size="13px" width="60px" fill="#323232" font-weight="400" align="middle" anchor="middle" family="&quot;Times New Roman&quot;" size="13px" weight="400" font-style="" opacity="1" y="2.55" transform="rotate(0)"><tspan id="SvgjsTspan1102" dy="16" x="30"><tspan id="SvgjsTspan1103" style="text-decoration:;">发起请求</tspan></tspan></text></g></g><g id="SvgjsG1104" transform="translate(244,166.5)"><path id="SvgjsPath1105" d="M 0 0L 75 0L 75 16L 0 16Z" stroke="none" fill="url(#SvgjsPattern1106)"></path><g id="SvgjsG1108"><text id="SvgjsText1109" font-family="微软雅黑" text-anchor="middle" font-size="13px" width="115px" fill="#323232" font-weight="400" align="middle" anchor="middle" family="微软雅黑" size="13px" weight="400" font-style="" opacity="1" y="21.05" transform="rotate(0)"></text></g></g><g id="SvgjsG1110" transform="translate(25,345)"><path id="SvgjsPath1111" d="M 0 0L 120 0L 120 25L 0 25Z" stroke="none" fill="none"></path><g id="SvgjsG1112"><text id="SvgjsText1113" font-family="&quot;Times New Roman&quot;" text-anchor="middle" font-size="13px" width="120px" fill="#323232" font-weight="400" align="middle" anchor="middle" family="&quot;Times New Roman&quot;" size="13px" weight="400" font-style="" opacity="1" y="2.55" transform="rotate(0)"><tspan id="SvgjsTspan1114" dy="16" x="60"><tspan id="SvgjsTspan1115" style="text-decoration:;">用户终端</tspan></tspan></text></g></g><g id="SvgjsG1116"><path id="SvgjsPath1117" d="M471 57.5L531 57.5L531 301.5L471 301.5" stroke="#323232" stroke-width="1" fill="none" marker-end="url(#SvgjsMarker1118)"></path></g><g id="SvgjsG1120"><path id="SvgjsPath1121" d="M471 57.5L531 57.5L531 174.5L471 174.5" stroke="#323232" stroke-width="1" fill="none" marker-end="url(#SvgjsMarker1122)"></path></g><g id="SvgjsG1124" transform="translate(501,25)"><path id="SvgjsPath1125" d="M 0 0L 80 0L 80 25L 0 25Z" stroke="none" fill="none"></path><g id="SvgjsG1126"><text id="SvgjsText1127" font-family="&quot;Times New Roman&quot;" text-anchor="middle" font-size="13px" width="80px" fill="#323232" font-weight="400" align="middle" anchor="middle" family="&quot;Times New Roman&quot;" size="13px" weight="400" font-style="" opacity="1" y="2.55" transform="rotate(0)"><tspan id="SvgjsTspan1128" dy="16" x="40"><tspan id="SvgjsTspan1129" style="text-decoration:;">Session 复制</tspan></tspan></text></g></g><g id="SvgjsG1130" transform="translate(501,309)"><path id="SvgjsPath1131" d="M 0 0L 80 0L 80 25L 0 25Z" stroke="none" fill="none"></path><g id="SvgjsG1132"><text id="SvgjsText1133" font-family="&quot;Times New Roman&quot;" text-anchor="middle" font-size="13px" width="80px" fill="#323232" font-weight="400" align="middle" anchor="middle" family="&quot;Times New Roman&quot;" size="13px" weight="400" font-style="" opacity="1" y="2.55" transform="rotate(0)"><tspan id="SvgjsTspan1134" dy="16" x="40"><tspan id="SvgjsTspan1135" style="text-decoration:;">Session 复制</tspan></tspan></text></g></g><g id="SvgjsG1136" transform="translate(539,162)"><path id="SvgjsPath1137" d="M 0 0L 80 0L 80 25L 0 25Z" stroke="none" fill="none"></path><g id="SvgjsG1138"><text id="SvgjsText1139" font-family="&quot;Times New Roman&quot;" text-anchor="middle" font-size="13px" width="80px" fill="#323232" font-weight="400" align="middle" anchor="middle" family="&quot;Times New Roman&quot;" size="13px" weight="400" font-style="" opacity="1" y="2.55" transform="rotate(0)"><tspan id="SvgjsTspan1140" dy="16" x="40"><tspan id="SvgjsTspan1141" style="text-decoration:;">Session 复制</tspan></tspan></text></g></g></svg>