<svg id="SvgjsSvg1006" width="682" height="261.8515625" xmlns="http://www.w3.org/2000/svg" version="1.1" xmlns:xlink="http://www.w3.org/1999/xlink" xmlns:svgjs="http://svgjs.com/svgjs"><defs id="SvgjsDefs1007"><marker id="SvgjsMarker1100" markerWidth="16" markerHeight="12" refX="0" refY="6" viewBox="0 0 16 12" orient="auto" markerUnits="userSpaceOnUse" stroke-dasharray="0,0"><path id="SvgjsPath1101" d="M10,3 L0,6 L10,9" fill="#323232" stroke="#323232" stroke-width="1"></path></marker><marker id="SvgjsMarker1102" markerWidth="16" markerHeight="12" refX="10" refY="6" viewBox="0 0 16 12" orient="auto" markerUnits="userSpaceOnUse" stroke-dasharray="0,0"><path id="SvgjsPath1103" d="M0,3 L10,6 L0,9 L0,3" fill="#323232" stroke="#323232" stroke-width="1"></path></marker><marker id="SvgjsMarker1106" markerWidth="16" markerHeight="12" refX="0" refY="6" viewBox="0 0 16 12" orient="auto" markerUnits="userSpaceOnUse" stroke-dasharray="0,0"><path id="SvgjsPath1107" d="M10,3 L0,6 L10,9" fill="#323232" stroke="#323232" stroke-width="1"></path></marker><marker id="SvgjsMarker1108" markerWidth="16" markerHeight="12" refX="10" refY="6" viewBox="0 0 16 12" orient="auto" markerUnits="userSpaceOnUse" stroke-dasharray="0,0"><path id="SvgjsPath1109" d="M0,3 L10,6 L0,9 L0,3" fill="#323232" stroke="#323232" stroke-width="1"></path></marker></defs><g id="SvgjsG1008" transform="translate(25,25)"><path id="SvgjsPath1009" d="M 0 17.77777777777778L 160 17.77777777777778L 160 160L 0 160L 0 17.77777777777778Z" stroke="rgba(50,50,50,1)" stroke-width="1" fill-opacity="1" fill="#ffffff"></path><path id="SvgjsPath1010" d="M 0 17.77777777777778L 20 0L 180 0L 180 142.22222222222223L 160 160L 160 17.77777777777778L 0 17.77777777777778ZM 160 17.77777777777778L 180 0" stroke="rgba(50,50,50,1)" stroke-width="2" fill-opacity="1" fill="#e6e6e6"></path><path id="SvgjsPath1011" d="M 0 0L 180 0L 180 160L 0 160Z" stroke="none" fill="none"></path><g id="SvgjsG1012"><text id="SvgjsText1013" font-family="&quot;Times New Roman&quot;" text-anchor="middle" font-size="13px" width="140px" fill="#323232" font-weight="400" align="middle" anchor="middle" family="&quot;Times New Roman&quot;" size="13px" weight="400" font-style="" opacity="1" y="78.93888888888888" transform="rotate(0)"></text></g></g><g id="SvgjsG1014" transform="translate(42,83)"><path id="SvgjsPath1015" d="M 12 0L 120 0L 120 35L 12 35L 12 28L 0 28L 0 21L 12 21L 12 14L 0 14L 0 7L 12 7L 12 0Z" stroke="rgba(50,50,50,1)" stroke-width="1" fill-opacity="1" fill="#ffffff"></path><path id="SvgjsPath1016" d="M 12 28L 24 28L 24 21L 12 21M 12 14L 24 14L 24 7L 12 7" stroke="rgba(50,50,50,1)" stroke-width="1" fill="none"></path><path id="SvgjsPath1017" d="M 12 0L 120 0L 120 35L 12 35L 12 28L 0 28L 0 21L 12 21L 12 14L 0 14L 0 7L 12 7L 12 0Z" stroke="none" fill="none"></path><g id="SvgjsG1018"><text id="SvgjsText1019" font-family="&quot;Times New Roman&quot;" text-anchor="middle" font-size="13px" width="95px" fill="#323232" font-weight="400" align="middle" anchor="middle" family="&quot;Times New Roman&quot;" size="13px" weight="400" font-style="" opacity="1" y="7.55" transform="rotate(0)"><tspan id="SvgjsTspan1020" dy="16" x="67.5"><tspan id="SvgjsTspan1021" style="text-decoration:;">Applicaiton</tspan></tspan></text></g></g><g id="SvgjsG1022" transform="translate(42,136)"><path id="SvgjsPath1023" d="M 12 0L 120 0L 120 35L 12 35L 12 28L 0 28L 0 21L 12 21L 12 14L 0 14L 0 7L 12 7L 12 0Z" stroke="rgba(50,50,50,1)" stroke-width="1" fill-opacity="1" fill="#ffffff"></path><path id="SvgjsPath1024" d="M 12 28L 24 28L 24 21L 12 21M 12 14L 24 14L 24 7L 12 7" stroke="rgba(50,50,50,1)" stroke-width="1" fill="none"></path><path id="SvgjsPath1025" d="M 12 0L 120 0L 120 35L 12 35L 12 28L 0 28L 0 21L 12 21L 12 14L 0 14L 0 7L 12 7L 12 0Z" stroke="none" fill="none"></path><g id="SvgjsG1026"><text id="SvgjsText1027" font-family="&quot;Times New Roman&quot;" text-anchor="middle" font-size="13px" width="95px" fill="#323232" font-weight="400" align="middle" anchor="middle" family="&quot;Times New Roman&quot;" size="13px" weight="400" font-style="" opacity="1" y="7.55" transform="rotate(0)"><tspan id="SvgjsTspan1028" dy="16" x="67.5"><tspan id="SvgjsTspan1029" style="text-decoration:;">JBoss Cache</tspan></tspan></text></g></g><g id="SvgjsG1030" transform="translate(25,43)"><path id="SvgjsPath1031" d="M 0 0L 160 0L 160 35L 0 35Z" stroke="none" fill="none"></path><g id="SvgjsG1032"><text id="SvgjsText1033" font-family="&quot;Times New Roman&quot;" text-anchor="middle" font-size="13px" width="160px" fill="#323232" font-weight="400" align="middle" anchor="middle" family="&quot;Times New Roman&quot;" size="13px" weight="400" font-style="" opacity="1" y="7.55" transform="rotate(0)"><tspan id="SvgjsTspan1034" dy="16" x="80"><tspan id="SvgjsTspan1035" style="text-decoration:;">Application Server 1</tspan></tspan></text></g></g><g id="SvgjsG1036" transform="translate(251,25)"><path id="SvgjsPath1037" d="M 0 17.77777777777778L 160 17.77777777777778L 160 160L 0 160L 0 17.77777777777778Z" stroke="rgba(50,50,50,1)" stroke-width="1" fill-opacity="1" fill="#ffffff"></path><path id="SvgjsPath1038" d="M 0 17.77777777777778L 20 0L 180 0L 180 142.22222222222223L 160 160L 160 17.77777777777778L 0 17.77777777777778ZM 160 17.77777777777778L 180 0" stroke="rgba(50,50,50,1)" stroke-width="2" fill-opacity="1" fill="#e6e6e6"></path><path id="SvgjsPath1039" d="M 0 0L 180 0L 180 160L 0 160Z" stroke="none" fill="none"></path><g id="SvgjsG1040"><text id="SvgjsText1041" font-family="&quot;Times New Roman&quot;" text-anchor="middle" font-size="13px" width="140px" fill="#323232" font-weight="400" align="middle" anchor="middle" family="&quot;Times New Roman&quot;" size="13px" weight="400" font-style="" opacity="1" y="78.93888888888888" transform="rotate(0)"></text></g></g><g id="SvgjsG1042" transform="translate(268,83)"><path id="SvgjsPath1043" d="M 12 0L 120 0L 120 35L 12 35L 12 28L 0 28L 0 21L 12 21L 12 14L 0 14L 0 7L 12 7L 12 0Z" stroke="rgba(50,50,50,1)" stroke-width="1" fill-opacity="1" fill="#ffffff"></path><path id="SvgjsPath1044" d="M 12 28L 24 28L 24 21L 12 21M 12 14L 24 14L 24 7L 12 7" stroke="rgba(50,50,50,1)" stroke-width="1" fill="none"></path><path id="SvgjsPath1045" d="M 12 0L 120 0L 120 35L 12 35L 12 28L 0 28L 0 21L 12 21L 12 14L 0 14L 0 7L 12 7L 12 0Z" stroke="none" fill="none"></path><g id="SvgjsG1046"><text id="SvgjsText1047" font-family="&quot;Times New Roman&quot;" text-anchor="middle" font-size="13px" width="95px" fill="#323232" font-weight="400" align="middle" anchor="middle" family="&quot;Times New Roman&quot;" size="13px" weight="400" font-style="" opacity="1" y="7.55" transform="rotate(0)"><tspan id="SvgjsTspan1048" dy="16" x="67.5"><tspan id="SvgjsTspan1049" style="text-decoration:;">Applicaiton</tspan></tspan></text></g></g><g id="SvgjsG1050" transform="translate(268,136)"><path id="SvgjsPath1051" d="M 12 0L 120 0L 120 35L 12 35L 12 28L 0 28L 0 21L 12 21L 12 14L 0 14L 0 7L 12 7L 12 0Z" stroke="rgba(50,50,50,1)" stroke-width="1" fill-opacity="1" fill="#ffffff"></path><path id="SvgjsPath1052" d="M 12 28L 24 28L 24 21L 12 21M 12 14L 24 14L 24 7L 12 7" stroke="rgba(50,50,50,1)" stroke-width="1" fill="none"></path><path id="SvgjsPath1053" d="M 12 0L 120 0L 120 35L 12 35L 12 28L 0 28L 0 21L 12 21L 12 14L 0 14L 0 7L 12 7L 12 0Z" stroke="none" fill="none"></path><g id="SvgjsG1054"><text id="SvgjsText1055" font-family="&quot;Times New Roman&quot;" text-anchor="middle" font-size="13px" width="95px" fill="#323232" font-weight="400" align="middle" anchor="middle" family="&quot;Times New Roman&quot;" size="13px" weight="400" font-style="" opacity="1" y="7.55" transform="rotate(0)"><tspan id="SvgjsTspan1056" dy="16" x="67.5"><tspan id="SvgjsTspan1057" style="text-decoration:;">JBoss Cache</tspan></tspan></text></g></g><g id="SvgjsG1058" transform="translate(251,43)"><path id="SvgjsPath1059" d="M 0 0L 160 0L 160 35L 0 35Z" stroke="none" fill="none"></path><g id="SvgjsG1060"><text id="SvgjsText1061" font-family="&quot;Times New Roman&quot;" text-anchor="middle" font-size="13px" width="160px" fill="#323232" font-weight="400" align="middle" anchor="middle" family="&quot;Times New Roman&quot;" size="13px" weight="400" font-style="" opacity="1" y="7.55" transform="rotate(0)"><tspan id="SvgjsTspan1062" dy="16" x="80"><tspan id="SvgjsTspan1063" style="text-decoration:;">Application Server 2</tspan></tspan></text></g></g><g id="SvgjsG1064" transform="translate(477,25)"><path id="SvgjsPath1065" d="M 0 17.77777777777778L 160 17.77777777777778L 160 160L 0 160L 0 17.77777777777778Z" stroke="rgba(50,50,50,1)" stroke-width="1" fill-opacity="1" fill="#ffffff"></path><path id="SvgjsPath1066" d="M 0 17.77777777777778L 20 0L 180 0L 180 142.22222222222223L 160 160L 160 17.77777777777778L 0 17.77777777777778ZM 160 17.77777777777778L 180 0" stroke="rgba(50,50,50,1)" stroke-width="2" fill-opacity="1" fill="#e6e6e6"></path><path id="SvgjsPath1067" d="M 0 0L 180 0L 180 160L 0 160Z" stroke="none" fill="none"></path><g id="SvgjsG1068"><text id="SvgjsText1069" font-family="&quot;Times New Roman&quot;" text-anchor="middle" font-size="13px" width="140px" fill="#323232" font-weight="400" align="middle" anchor="middle" family="&quot;Times New Roman&quot;" size="13px" weight="400" font-style="" opacity="1" y="78.93888888888888" transform="rotate(0)"></text></g></g><g id="SvgjsG1070" transform="translate(494,83)"><path id="SvgjsPath1071" d="M 12 0L 120 0L 120 35L 12 35L 12 28L 0 28L 0 21L 12 21L 12 14L 0 14L 0 7L 12 7L 12 0Z" stroke="rgba(50,50,50,1)" stroke-width="1" fill-opacity="1" fill="#ffffff"></path><path id="SvgjsPath1072" d="M 12 28L 24 28L 24 21L 12 21M 12 14L 24 14L 24 7L 12 7" stroke="rgba(50,50,50,1)" stroke-width="1" fill="none"></path><path id="SvgjsPath1073" d="M 12 0L 120 0L 120 35L 12 35L 12 28L 0 28L 0 21L 12 21L 12 14L 0 14L 0 7L 12 7L 12 0Z" stroke="none" fill="none"></path><g id="SvgjsG1074"><text id="SvgjsText1075" font-family="&quot;Times New Roman&quot;" text-anchor="middle" font-size="13px" width="95px" fill="#323232" font-weight="400" align="middle" anchor="middle" family="&quot;Times New Roman&quot;" size="13px" weight="400" font-style="" opacity="1" y="7.55" transform="rotate(0)"><tspan id="SvgjsTspan1076" dy="16" x="67.5"><tspan id="SvgjsTspan1077" style="text-decoration:;">Applicaiton</tspan></tspan></text></g></g><g id="SvgjsG1078" transform="translate(494,136)"><path id="SvgjsPath1079" d="M 12 0L 120 0L 120 35L 12 35L 12 28L 0 28L 0 21L 12 21L 12 14L 0 14L 0 7L 12 7L 12 0Z" stroke="rgba(50,50,50,1)" stroke-width="1" fill-opacity="1" fill="#ffffff"></path><path id="SvgjsPath1080" d="M 12 28L 24 28L 24 21L 12 21M 12 14L 24 14L 24 7L 12 7" stroke="rgba(50,50,50,1)" stroke-width="1" fill="none"></path><path id="SvgjsPath1081" d="M 12 0L 120 0L 120 35L 12 35L 12 28L 0 28L 0 21L 12 21L 12 14L 0 14L 0 7L 12 7L 12 0Z" stroke="none" fill="none"></path><g id="SvgjsG1082"><text id="SvgjsText1083" font-family="&quot;Times New Roman&quot;" text-anchor="middle" font-size="13px" width="95px" fill="#323232" font-weight="400" align="middle" anchor="middle" family="&quot;Times New Roman&quot;" size="13px" weight="400" font-style="" opacity="1" y="7.55" transform="rotate(0)"><tspan id="SvgjsTspan1084" dy="16" x="67.5"><tspan id="SvgjsTspan1085" style="text-decoration:;">JBoss Cache</tspan></tspan></text></g></g><g id="SvgjsG1086" transform="translate(477,43)"><path id="SvgjsPath1087" d="M 0 0L 160 0L 160 35L 0 35Z" stroke="none" fill="none"></path><g id="SvgjsG1088"><text id="SvgjsText1089" font-family="&quot;Times New Roman&quot;" text-anchor="middle" font-size="13px" width="160px" fill="#323232" font-weight="400" align="middle" anchor="middle" family="&quot;Times New Roman&quot;" size="13px" weight="400" font-style="" opacity="1" y="7.55" transform="rotate(0)"><tspan id="SvgjsTspan1090" dy="16" x="80"><tspan id="SvgjsTspan1091" style="text-decoration:;">Application Server 3</tspan></tspan></text></g></g><g id="SvgjsG1092" transform="translate(248.85714285714283,201.8571428571429)"><path id="SvgjsPath1093" d="M 0 0L 160 0L 160 35L 0 35Z" stroke="none" fill="none"></path><g id="SvgjsG1094"><text id="SvgjsText1095" font-family="微软雅黑" text-anchor="middle" font-size="13px" width="160px" fill="#323232" font-weight="400" align="middle" anchor="middle" family="微软雅黑" size="13px" weight="400" font-style="" opacity="1" y="7.55" transform="rotate(0)"><tspan id="SvgjsTspan1096" dy="16" x="80"><tspan id="SvgjsTspan1097" style="text-decoration:;">更新同步</tspan></tspan></text></g></g><g id="SvgjsG1098"><path id="SvgjsPath1099" d="M328 171L328 201L102 201L102 171" stroke="#323232" stroke-width="1" fill="none" marker-start="url(#SvgjsMarker1100)" marker-end="url(#SvgjsMarker1102)"></path></g><g id="SvgjsG1104"><path id="SvgjsPath1105" d="M328 171L328 201L554 201L554 171" stroke="#323232" stroke-width="1" fill="none" marker-start="url(#SvgjsMarker1106)" marker-end="url(#SvgjsMarker1108)"></path></g></svg>