<svg id="SvgjsSvg1497" width="512" height="362" xmlns="http://www.w3.org/2000/svg" version="1.1" xmlns:xlink="http://www.w3.org/1999/xlink" xmlns:svgjs="http://svgjs.com/svgjs"><defs id="SvgjsDefs1498"><marker id="SvgjsMarker1611" markerWidth="16" markerHeight="12" refX="10" refY="6" viewBox="0 0 16 12" orient="auto" markerUnits="userSpaceOnUse" stroke-dasharray="0,0"><path id="SvgjsPath1612" d="M0,3 L10,6 L0,9 L0,3" fill="#323232" stroke="#323232" stroke-width="1"></path></marker><marker id="SvgjsMarker1615" markerWidth="16" markerHeight="12" refX="10" refY="6" viewBox="0 0 16 12" orient="auto" markerUnits="userSpaceOnUse" stroke-dasharray="0,0"><path id="SvgjsPath1616" d="M0,3 L10,6 L0,9 L0,3" fill="#323232" stroke="#323232" stroke-width="1"></path></marker><marker id="SvgjsMarker1619" markerWidth="16" markerHeight="12" refX="10" refY="6" viewBox="0 0 16 12" orient="auto" markerUnits="userSpaceOnUse" stroke-dasharray="0,0"><path id="SvgjsPath1620" d="M0,3 L10,6 L0,9 L0,3" fill="#323232" stroke="#323232" stroke-width="1"></path></marker><marker id="SvgjsMarker1623" markerWidth="16" markerHeight="12" refX="10" refY="6" viewBox="0 0 16 12" orient="auto" markerUnits="userSpaceOnUse" stroke-dasharray="0,0"><path id="SvgjsPath1624" d="M0,3 L10,6 L0,9 L0,3" fill="#323232" stroke="#323232" stroke-width="1"></path></marker><marker id="SvgjsMarker1627" markerWidth="16" markerHeight="12" refX="10" refY="6" viewBox="0 0 16 12" orient="auto" markerUnits="userSpaceOnUse" stroke-dasharray="0,0"><path id="SvgjsPath1628" d="M0,3 L10,6 L0,9 L0,3" fill="#323232" stroke="#323232" stroke-width="1"></path></marker><marker id="SvgjsMarker1631" markerWidth="16" markerHeight="12" refX="10" refY="6" viewBox="0 0 16 12" orient="auto" markerUnits="userSpaceOnUse" stroke-dasharray="0,0"><path id="SvgjsPath1632" d="M0,3 L10,6 L0,9 L0,3" fill="#323232" stroke="#323232" stroke-width="1"></path></marker></defs><g id="SvgjsG1499" transform="translate(35,25)"><path id="SvgjsPath1500" d="M 0 17.77777777777778L 160 17.77777777777778L 160 160L 0 160L 0 17.77777777777778Z" stroke="rgba(50,50,50,1)" stroke-width="1" fill-opacity="1" fill="#ffffff"></path><path id="SvgjsPath1501" d="M 0 17.77777777777778L 20 0L 180 0L 180 142.22222222222223L 160 160L 160 17.77777777777778L 0 17.77777777777778ZM 160 17.77777777777778L 180 0" stroke="rgba(50,50,50,1)" stroke-width="2" fill-opacity="1" fill="#e6e6e6"></path><path id="SvgjsPath1502" d="M 0 0L 180 0L 180 160L 0 160Z" stroke="none" fill="none"></path><g id="SvgjsG1503"><text id="SvgjsText1504" font-family="&quot;Times New Roman&quot;" text-anchor="middle" font-size="13px" width="140px" fill="#323232" font-weight="400" align="middle" anchor="middle" family="&quot;Times New Roman&quot;" size="13px" weight="400" font-style="" opacity="1" y="78.93888888888888" transform="rotate(0)"></text></g></g><g id="SvgjsG1505" transform="translate(52,83)"><path id="SvgjsPath1506" d="M 12 0L 120 0L 120 35L 12 35L 12 28L 0 28L 0 21L 12 21L 12 14L 0 14L 0 7L 12 7L 12 0Z" stroke="rgba(50,50,50,1)" stroke-width="1" fill-opacity="1" fill="#ffffff"></path><path id="SvgjsPath1507" d="M 12 28L 24 28L 24 21L 12 21M 12 14L 24 14L 24 7L 12 7" stroke="rgba(50,50,50,1)" stroke-width="1" fill="none"></path><path id="SvgjsPath1508" d="M 12 0L 120 0L 120 35L 12 35L 12 28L 0 28L 0 21L 12 21L 12 14L 0 14L 0 7L 12 7L 12 0Z" stroke="none" fill="none"></path><g id="SvgjsG1509"><text id="SvgjsText1510" font-family="&quot;Times New Roman&quot;" text-anchor="middle" font-size="13px" width="95px" fill="#323232" font-weight="400" align="middle" anchor="middle" family="&quot;Times New Roman&quot;" size="13px" weight="400" font-style="" opacity="1" y="7.55" transform="rotate(0)"><tspan id="SvgjsTspan1511" dy="16" x="67.5"><tspan id="SvgjsTspan1512" style="text-decoration:;">Applicaiton</tspan></tspan></text></g></g><g id="SvgjsG1513" transform="translate(52,136)"><path id="SvgjsPath1514" d="M 12 0L 120 0L 120 35L 12 35L 12 28L 0 28L 0 21L 12 21L 12 14L 0 14L 0 7L 12 7L 12 0Z" stroke="rgba(50,50,50,1)" stroke-width="1" fill-opacity="1" fill="#ffffff"></path><path id="SvgjsPath1515" d="M 12 28L 24 28L 24 21L 12 21M 12 14L 24 14L 24 7L 12 7" stroke="rgba(50,50,50,1)" stroke-width="1" fill="none"></path><path id="SvgjsPath1516" d="M 12 0L 120 0L 120 35L 12 35L 12 28L 0 28L 0 21L 12 21L 12 14L 0 14L 0 7L 12 7L 12 0Z" stroke="none" fill="none"></path><g id="SvgjsG1517"><text id="SvgjsText1518" font-family="&quot;Times New Roman&quot;" text-anchor="middle" font-size="13px" width="95px" fill="#323232" font-weight="400" align="middle" anchor="middle" family="&quot;Times New Roman&quot;" size="13px" weight="400" font-style="" opacity="1" y="-0.44999999999999996" transform="rotate(0)"><tspan id="SvgjsTspan1519" dy="16" x="67.5"><tspan id="SvgjsTspan1520" style="text-decoration:;">Memcached</tspan></tspan><tspan id="SvgjsTspan1521" dy="16" x="67.5"><tspan id="SvgjsTspan1522" style="text-decoration:;">Client</tspan></tspan></text></g></g><g id="SvgjsG1523" transform="translate(35,43)"><path id="SvgjsPath1524" d="M 0 0L 160 0L 160 35L 0 35Z" stroke="none" fill="none"></path><g id="SvgjsG1525"><text id="SvgjsText1526" font-family="&quot;Times New Roman&quot;" text-anchor="middle" font-size="13px" width="160px" fill="#323232" font-weight="400" align="middle" anchor="middle" family="&quot;Times New Roman&quot;" size="13px" weight="400" font-style="" opacity="1" y="7.55" transform="rotate(0)"><tspan id="SvgjsTspan1527" dy="16" x="80"><tspan id="SvgjsTspan1528" style="text-decoration:;">Application Server 1</tspan></tspan></text></g></g><g id="SvgjsG1529" transform="translate(261,25)"><path id="SvgjsPath1530" d="M 0 17.77777777777778L 160 17.77777777777778L 160 160L 0 160L 0 17.77777777777778Z" stroke="rgba(50,50,50,1)" stroke-width="1" fill-opacity="1" fill="#ffffff"></path><path id="SvgjsPath1531" d="M 0 17.77777777777778L 20 0L 180 0L 180 142.22222222222223L 160 160L 160 17.77777777777778L 0 17.77777777777778ZM 160 17.77777777777778L 180 0" stroke="rgba(50,50,50,1)" stroke-width="2" fill-opacity="1" fill="#e6e6e6"></path><path id="SvgjsPath1532" d="M 0 0L 180 0L 180 160L 0 160Z" stroke="none" fill="none"></path><g id="SvgjsG1533"><text id="SvgjsText1534" font-family="&quot;Times New Roman&quot;" text-anchor="middle" font-size="13px" width="140px" fill="#323232" font-weight="400" align="middle" anchor="middle" family="&quot;Times New Roman&quot;" size="13px" weight="400" font-style="" opacity="1" y="78.93888888888888" transform="rotate(0)"></text></g></g><g id="SvgjsG1535" transform="translate(278,83)"><path id="SvgjsPath1536" d="M 12 0L 120 0L 120 35L 12 35L 12 28L 0 28L 0 21L 12 21L 12 14L 0 14L 0 7L 12 7L 12 0Z" stroke="rgba(50,50,50,1)" stroke-width="1" fill-opacity="1" fill="#ffffff"></path><path id="SvgjsPath1537" d="M 12 28L 24 28L 24 21L 12 21M 12 14L 24 14L 24 7L 12 7" stroke="rgba(50,50,50,1)" stroke-width="1" fill="none"></path><path id="SvgjsPath1538" d="M 12 0L 120 0L 120 35L 12 35L 12 28L 0 28L 0 21L 12 21L 12 14L 0 14L 0 7L 12 7L 12 0Z" stroke="none" fill="none"></path><g id="SvgjsG1539"><text id="SvgjsText1540" font-family="&quot;Times New Roman&quot;" text-anchor="middle" font-size="13px" width="95px" fill="#323232" font-weight="400" align="middle" anchor="middle" family="&quot;Times New Roman&quot;" size="13px" weight="400" font-style="" opacity="1" y="7.55" transform="rotate(0)"><tspan id="SvgjsTspan1541" dy="16" x="67.5"><tspan id="SvgjsTspan1542" style="text-decoration:;">Applicaiton</tspan></tspan></text></g></g><g id="SvgjsG1543" transform="translate(278,136)"><path id="SvgjsPath1544" d="M 12 0L 120 0L 120 35L 12 35L 12 28L 0 28L 0 21L 12 21L 12 14L 0 14L 0 7L 12 7L 12 0Z" stroke="rgba(50,50,50,1)" stroke-width="1" fill-opacity="1" fill="#ffffff"></path><path id="SvgjsPath1545" d="M 12 28L 24 28L 24 21L 12 21M 12 14L 24 14L 24 7L 12 7" stroke="rgba(50,50,50,1)" stroke-width="1" fill="none"></path><path id="SvgjsPath1546" d="M 12 0L 120 0L 120 35L 12 35L 12 28L 0 28L 0 21L 12 21L 12 14L 0 14L 0 7L 12 7L 12 0Z" stroke="none" fill="none"></path><g id="SvgjsG1547"><text id="SvgjsText1548" font-family="&quot;Times New Roman&quot;" text-anchor="middle" font-size="13px" width="95px" fill="#323232" font-weight="400" align="middle" anchor="middle" family="&quot;Times New Roman&quot;" size="13px" weight="400" font-style="" opacity="1" y="-0.44999999999999996" transform="rotate(0)"><tspan id="SvgjsTspan1549" dy="16" x="67.5"><tspan id="SvgjsTspan1550" style="text-decoration:;">Memcached</tspan></tspan><tspan id="SvgjsTspan1551" dy="16" x="67.5"><tspan id="SvgjsTspan1552" style="text-decoration:;">Client</tspan></tspan></text></g></g><g id="SvgjsG1553" transform="translate(261,43)"><path id="SvgjsPath1554" d="M 0 0L 160 0L 160 35L 0 35Z" stroke="none" fill="none"></path><g id="SvgjsG1555"><text id="SvgjsText1556" font-family="&quot;Times New Roman&quot;" text-anchor="middle" font-size="13px" width="160px" fill="#323232" font-weight="400" align="middle" anchor="middle" family="&quot;Times New Roman&quot;" size="13px" weight="400" font-style="" opacity="1" y="7.55" transform="rotate(0)"><tspan id="SvgjsTspan1557" dy="16" x="80"><tspan id="SvgjsTspan1558" style="text-decoration:;">Application Server 2</tspan></tspan></text></g></g><g id="SvgjsG1559" transform="translate(25,237)"><path id="SvgjsPath1560" d="M 0 11.11111111111111L 160 11.11111111111111L 160 100L 0 100L 0 11.11111111111111Z" stroke="rgba(50,50,50,1)" stroke-width="1" fill-opacity="1" fill="#ffffff"></path><path id="SvgjsPath1561" d="M 0 11.11111111111111L 20 0L 180 0L 180 88.88888888888889L 160 100L 160 11.11111111111111L 0 11.11111111111111ZM 160 11.11111111111111L 180 0" stroke="rgba(50,50,50,1)" stroke-width="2" fill-opacity="1" fill="#e6e6e6"></path><path id="SvgjsPath1562" d="M 0 0L 180 0L 180 100L 0 100Z" stroke="none" fill="none"></path><g id="SvgjsG1563"><text id="SvgjsText1564" font-family="&quot;Times New Roman&quot;" text-anchor="middle" font-size="13px" width="140px" fill="#323232" font-weight="400" align="middle" anchor="middle" family="&quot;Times New Roman&quot;" size="13px" weight="400" font-style="" opacity="1" y="45.605555555555554" transform="rotate(0)"></text></g></g><g id="SvgjsG1565" transform="translate(40,287)"><path id="SvgjsPath1566" d="M 12 0L 120 0L 120 35L 12 35L 12 28L 0 28L 0 21L 12 21L 12 14L 0 14L 0 7L 12 7L 12 0Z" stroke="rgba(50,50,50,1)" stroke-width="1" fill-opacity="1" fill="#ffffff"></path><path id="SvgjsPath1567" d="M 12 28L 24 28L 24 21L 12 21M 12 14L 24 14L 24 7L 12 7" stroke="rgba(50,50,50,1)" stroke-width="1" fill="none"></path><path id="SvgjsPath1568" d="M 12 0L 120 0L 120 35L 12 35L 12 28L 0 28L 0 21L 12 21L 12 14L 0 14L 0 7L 12 7L 12 0Z" stroke="none" fill="none"></path><g id="SvgjsG1569"><text id="SvgjsText1570" font-family="&quot;Times New Roman&quot;" text-anchor="middle" font-size="13px" width="95px" fill="#323232" font-weight="400" align="middle" anchor="middle" family="&quot;Times New Roman&quot;" size="13px" weight="400" font-style="" opacity="1" y="-0.44999999999999996" transform="rotate(0)"><tspan id="SvgjsTspan1571" dy="16" x="67.5"><tspan id="SvgjsTspan1572" style="text-decoration:;">Memcached</tspan></tspan><tspan id="SvgjsTspan1573" dy="16" x="67.5"><tspan id="SvgjsTspan1574" style="text-decoration:;">Process</tspan></tspan></text></g></g><g id="SvgjsG1575" transform="translate(25,252)"><path id="SvgjsPath1576" d="M 0 0L 160 0L 160 35L 0 35Z" stroke="none" fill="none"></path><g id="SvgjsG1577"><text id="SvgjsText1578" font-family="&quot;Times New Roman&quot;" text-anchor="middle" font-size="13px" width="160px" fill="#323232" font-weight="400" align="middle" anchor="middle" family="&quot;Times New Roman&quot;" size="13px" weight="400" font-style="" opacity="1" y="7.55" transform="rotate(0)"><tspan id="SvgjsTspan1579" dy="16" x="80"><tspan id="SvgjsTspan1580" style="text-decoration:;">Memcached Server 1</tspan></tspan></text></g></g><g id="SvgjsG1581" transform="translate(367,185)"><path id="SvgjsPath1582" d="M 0 0L 120 0L 120 52L 0 52Z" stroke="none" fill="none"></path><g id="SvgjsG1583"><text id="SvgjsText1584" font-family="&quot;Times New Roman&quot;" text-anchor="middle" font-size="13px" width="120px" fill="#66cc00" font-weight="400" align="middle" anchor="middle" family="&quot;Times New Roman&quot;" size="13px" weight="400" font-style="" opacity="1" y="16.05" transform="rotate(0)"><tspan id="SvgjsTspan1585" dy="16" x="60"><tspan id="SvgjsTspan1586" style="text-decoration:;">Memcached Protocol</tspan></tspan></text></g></g><g id="SvgjsG1587" transform="translate(261,237)"><path id="SvgjsPath1588" d="M 0 11.11111111111111L 160 11.11111111111111L 160 100L 0 100L 0 11.11111111111111Z" stroke="rgba(50,50,50,1)" stroke-width="1" fill-opacity="1" fill="#ffffff"></path><path id="SvgjsPath1589" d="M 0 11.11111111111111L 20 0L 180 0L 180 88.88888888888889L 160 100L 160 11.11111111111111L 0 11.11111111111111ZM 160 11.11111111111111L 180 0" stroke="rgba(50,50,50,1)" stroke-width="2" fill-opacity="1" fill="#e6e6e6"></path><path id="SvgjsPath1590" d="M 0 0L 180 0L 180 100L 0 100Z" stroke="none" fill="none"></path><g id="SvgjsG1591"><text id="SvgjsText1592" font-family="&quot;Times New Roman&quot;" text-anchor="middle" font-size="13px" width="140px" fill="#323232" font-weight="400" align="middle" anchor="middle" family="&quot;Times New Roman&quot;" size="13px" weight="400" font-style="" opacity="1" y="45.605555555555554" transform="rotate(0)"></text></g></g><g id="SvgjsG1593" transform="translate(276,287)"><path id="SvgjsPath1594" d="M 12 0L 120 0L 120 35L 12 35L 12 28L 0 28L 0 21L 12 21L 12 14L 0 14L 0 7L 12 7L 12 0Z" stroke="rgba(50,50,50,1)" stroke-width="1" fill-opacity="1" fill="#ffffff"></path><path id="SvgjsPath1595" d="M 12 28L 24 28L 24 21L 12 21M 12 14L 24 14L 24 7L 12 7" stroke="rgba(50,50,50,1)" stroke-width="1" fill="none"></path><path id="SvgjsPath1596" d="M 12 0L 120 0L 120 35L 12 35L 12 28L 0 28L 0 21L 12 21L 12 14L 0 14L 0 7L 12 7L 12 0Z" stroke="none" fill="none"></path><g id="SvgjsG1597"><text id="SvgjsText1598" font-family="&quot;Times New Roman&quot;" text-anchor="middle" font-size="13px" width="95px" fill="#323232" font-weight="400" align="middle" anchor="middle" family="&quot;Times New Roman&quot;" size="13px" weight="400" font-style="" opacity="1" y="-0.44999999999999996" transform="rotate(0)"><tspan id="SvgjsTspan1599" dy="16" x="67.5"><tspan id="SvgjsTspan1600" style="text-decoration:;">Memcached</tspan></tspan><tspan id="SvgjsTspan1601" dy="16" x="67.5"><tspan id="SvgjsTspan1602" style="text-decoration:;">Process</tspan></tspan></text></g></g><g id="SvgjsG1603" transform="translate(261,252)"><path id="SvgjsPath1604" d="M 0 0L 160 0L 160 35L 0 35Z" stroke="none" fill="none"></path><g id="SvgjsG1605"><text id="SvgjsText1606" font-family="&quot;Times New Roman&quot;" text-anchor="middle" font-size="13px" width="160px" fill="#323232" font-weight="400" align="middle" anchor="middle" family="&quot;Times New Roman&quot;" size="13px" weight="400" font-style="" opacity="1" y="7.55" transform="rotate(0)"><tspan id="SvgjsTspan1607" dy="16" x="80"><tspan id="SvgjsTspan1608" style="text-decoration:;">Memcached Server 2</tspan></tspan></text></g></g><g id="SvgjsG1609"><path id="SvgjsPath1610" d="M112 171L105 287" stroke="#323232" stroke-width="1" fill="none" marker-end="url(#SvgjsMarker1611)"></path></g><g id="SvgjsG1613"><path id="SvgjsPath1614" d="M112 171L341 287" stroke="#323232" stroke-width="1" fill="none" marker-end="url(#SvgjsMarker1615)"></path></g><g id="SvgjsG1617"><path id="SvgjsPath1618" d="M338 171L105 287" stroke="#323232" stroke-width="1" fill="none" marker-end="url(#SvgjsMarker1619)"></path></g><g id="SvgjsG1621"><path id="SvgjsPath1622" d="M338 171L341 287" stroke="#323232" stroke-width="1" fill="none" marker-end="url(#SvgjsMarker1623)"></path></g><g id="SvgjsG1625"><path id="SvgjsPath1626" d="M338 118L338 136" stroke="#323232" stroke-width="1" fill="none" marker-end="url(#SvgjsMarker1627)"></path></g><g id="SvgjsG1629"><path id="SvgjsPath1630" d="M112 118L112 136" stroke="#323232" stroke-width="1" fill="none" marker-end="url(#SvgjsMarker1631)"></path></g></svg>