<svg id="SvgjsSvg1633" width="502" height="170" xmlns="http://www.w3.org/2000/svg" version="1.1" xmlns:xlink="http://www.w3.org/1999/xlink" xmlns:svgjs="http://svgjs.com/svgjs"><defs id="SvgjsDefs1634"></defs><g id="SvgjsG1635" transform="translate(25,55)"><path id="SvgjsPath1636" d="M0 0L120 0L120 29.997 L0 29.997Z" stroke="rgba(102, 102, 102,1)" stroke-width="1" fill-opacity="1" fill="#ffffff"></path><path id="SvgjsPath1637" d="M0 29.997L120 29.997L120 59.994 L0 59.994Z" stroke="rgba(102, 102, 102,1)" stroke-width="1" fill-opacity="1" fill="#ffffff"></path><path id="SvgjsPath1638" d="M0 60.00299999999999L120 60.00299999999999L120 90 L0 90Z" stroke="rgba(102, 102, 102,1)" stroke-width="1" fill-opacity="1" fill="#ffffff"></path><g id="SvgjsG1639"><text id="SvgjsText1640" font-family="&quot;Times New Roman&quot;" text-anchor="middle" font-size="13px" width="120px" fill="#323232" font-weight="400" align="middle" anchor="middle" family="&quot;Times New Roman&quot;" size="13px" weight="400" font-style="" opacity="1" y="5.0485" transform="rotate(0)"><tspan id="SvgjsTspan1641" dy="16" x="60"><tspan id="SvgjsTspan1642" style="text-decoration:;">Slab_class[0]</tspan></tspan></text></g><g id="SvgjsG1643"><text id="SvgjsText1644" font-family="&quot;Times New Roman&quot;" text-anchor="middle" font-size="13px" width="120px" fill="#323232" font-weight="400" align="middle" anchor="middle" family="&quot;Times New Roman&quot;" size="13px" weight="400" font-style="" opacity="1" y="35.0455" transform="rotate(0)"><tspan id="SvgjsTspan1645" dy="16" x="60"><tspan id="SvgjsTspan1646" style="text-decoration:;">Slab_class[1]</tspan></tspan></text></g><g id="SvgjsG1647"><text id="SvgjsText1648" font-family="&quot;Times New Roman&quot;" text-anchor="middle" font-size="13px" width="120px" fill="#323232" font-weight="400" align="middle" anchor="middle" family="&quot;Times New Roman&quot;" size="13px" weight="400" font-style="" opacity="1" y="65.05149999999999" transform="rotate(0)"><tspan id="SvgjsTspan1649" dy="16" x="60"><tspan id="SvgjsTspan1650" style="text-decoration:;">Slab_class[2]</tspan></tspan></text></g></g><g id="SvgjsG1651" transform="translate(191,25)"><path id="SvgjsPath1652" d="M0 0L120 0L120 29.997 L0 29.997Z" stroke="rgba(102, 102, 102,1)" stroke-width="1" fill-opacity="1" fill="#ffffff"></path><path id="SvgjsPath1653" d="M0 29.997L120 29.997L120 59.994 L0 59.994Z" stroke="rgba(102, 102, 102,1)" stroke-width="1" fill-opacity="1" fill="#ffffff"></path><path id="SvgjsPath1654" d="M0 60.00299999999999L120 60.00299999999999L120 90 L0 90Z" stroke="rgba(102, 102, 102,1)" stroke-width="1" fill-opacity="1" fill="#ffffff"></path><g id="SvgjsG1655"><text id="SvgjsText1656" font-family="&quot;Times New Roman&quot;" text-anchor="middle" font-size="13px" width="120px" fill="#323232" font-weight="400" align="middle" anchor="middle" family="&quot;Times New Roman&quot;" size="13px" weight="400" font-style="" opacity="1" y="5.0485" transform="rotate(0)"><tspan id="SvgjsTspan1657" dy="16" x="60"><tspan id="SvgjsTspan1658" style="text-decoration:;">Slab[0]</tspan></tspan></text></g><g id="SvgjsG1659"><text id="SvgjsText1660" font-family="&quot;Times New Roman&quot;" text-anchor="middle" font-size="13px" width="120px" fill="#323232" font-weight="400" align="middle" anchor="middle" family="&quot;Times New Roman&quot;" size="13px" weight="400" font-style="" opacity="1" y="35.0455" transform="rotate(0)"><tspan id="SvgjsTspan1661" dy="16" x="60"><tspan id="SvgjsTspan1662" style="text-decoration:;">Slab[1]</tspan></tspan></text></g><g id="SvgjsG1663"><text id="SvgjsText1664" font-family="&quot;Times New Roman&quot;" text-anchor="middle" font-size="13px" width="120px" fill="#323232" font-weight="400" align="middle" anchor="middle" family="&quot;Times New Roman&quot;" size="13px" weight="400" font-style="" opacity="1" y="65.05149999999999" transform="rotate(0)"><tspan id="SvgjsTspan1665" dy="16" x="60"><tspan id="SvgjsTspan1666" style="text-decoration:;">Slab[2]</tspan></tspan></text></g></g><g id="SvgjsG1667" transform="translate(357,55)"><path id="SvgjsPath1668" d="M0 0L120 0L120 29.997 L0 29.997Z" stroke="rgba(102, 102, 102,1)" stroke-width="1" fill-opacity="1" fill="#ffffff"></path><path id="SvgjsPath1669" d="M0 29.997L120 29.997L120 59.994 L0 59.994Z" stroke="rgba(102, 102, 102,1)" stroke-width="1" fill-opacity="1" fill="#ffffff"></path><path id="SvgjsPath1670" d="M0 60.00299999999999L120 60.00299999999999L120 90 L0 90Z" stroke="rgba(102, 102, 102,1)" stroke-width="1" fill-opacity="1" fill="#ffffff"></path><g id="SvgjsG1671"><text id="SvgjsText1672" font-family="&quot;Times New Roman&quot;" text-anchor="middle" font-size="13px" width="120px" fill="#323232" font-weight="400" align="middle" anchor="middle" family="&quot;Times New Roman&quot;" size="13px" weight="400" font-style="" opacity="1" y="5.0485" transform="rotate(0)"><tspan id="SvgjsTspan1673" dy="16" x="60"><tspan id="SvgjsTspan1674" style="text-decoration:;">Chunk[0]</tspan></tspan></text></g><g id="SvgjsG1675"><text id="SvgjsText1676" font-family="&quot;Times New Roman&quot;" text-anchor="middle" font-size="13px" width="120px" fill="#323232" font-weight="400" align="middle" anchor="middle" family="&quot;Times New Roman&quot;" size="13px" weight="400" font-style="" opacity="1" y="35.0455" transform="rotate(0)"><tspan id="SvgjsTspan1677" dy="16" x="60"><tspan id="SvgjsTspan1678" style="text-decoration:;">Chunk[1]</tspan></tspan></text></g><g id="SvgjsG1679"><text id="SvgjsText1680" font-family="&quot;Times New Roman&quot;" text-anchor="middle" font-size="13px" width="120px" fill="#323232" font-weight="400" align="middle" anchor="middle" family="&quot;Times New Roman&quot;" size="13px" weight="400" font-style="" opacity="1" y="65.05149999999999" transform="rotate(0)"><tspan id="SvgjsTspan1681" dy="16" x="60"><tspan id="SvgjsTspan1682" style="text-decoration:;">Chunk[2]</tspan></tspan></text></g></g><g id="SvgjsG1683" transform="translate(157,25)"><path id="SvgjsPath1684" d="M 25 0Q 22.5 0 22.5 9L 22.5 36Q 22.5 45 3 45Q 22.5 45 22.5 54L 22.5 81Q 22.5 90 25 90" stroke="rgba(50,50,50,1)" stroke-width="1" fill="none"></path><path id="SvgjsPath1685" d="M 0 0L 25 0L 25 90L 0 90Z" stroke="none" fill="none"></path><g id="SvgjsG1686"><text id="SvgjsText1687" font-family="微软雅黑" text-anchor="end" font-size="13px" width="0" fill="#323232" font-weight="400" align="middle" anchor="end" family="微软雅黑" size="13px" weight="400" font-style="" opacity="1" y="35.05" transform="rotate(0)"></text></g></g><g id="SvgjsG1688" transform="translate(322,55)"><path id="SvgjsPath1689" d="M 25 0Q 22.5 0 22.5 9L 22.5 36Q 22.5 45 3 45Q 22.5 45 22.5 54L 22.5 81Q 22.5 90 25 90" stroke="rgba(50,50,50,1)" stroke-width="1" fill="none"></path><path id="SvgjsPath1690" d="M 0 0L 25 0L 25 90L 0 90Z" stroke="none" fill="none"></path><g id="SvgjsG1691"><text id="SvgjsText1692" font-family="微软雅黑" text-anchor="end" font-size="13px" width="0" fill="#323232" font-weight="400" align="middle" anchor="end" family="微软雅黑" size="13px" weight="400" font-style="" opacity="1" y="35.05" transform="rotate(0)"></text></g></g></svg>