<svg id="SvgjsSvg1044" width="680" height="355" xmlns="http://www.w3.org/2000/svg" version="1.1" xmlns:xlink="http://www.w3.org/1999/xlink" xmlns:svgjs="http://svgjs.com/svgjs"><defs id="SvgjsDefs1045"><marker id="SvgjsMarker1072" markerWidth="12" markerHeight="8" refX="9" refY="4" viewBox="0 0 12 8" orient="auto" markerUnits="userSpaceOnUse" stroke-dasharray="0,0"><path id="SvgjsPath1073" d="M0,0 L12,4 L0,8 L0,0" fill="#323232" stroke="#323232" stroke-width="1"></path></marker><marker id="SvgjsMarker1076" markerWidth="12" markerHeight="8" refX="9" refY="4" viewBox="0 0 12 8" orient="auto" markerUnits="userSpaceOnUse" stroke-dasharray="0,0"><path id="SvgjsPath1077" d="M0,0 L12,4 L0,8 L0,0" fill="#323232" stroke="#323232" stroke-width="1"></path></marker><marker id="SvgjsMarker1080" markerWidth="12" markerHeight="8" refX="9" refY="4" viewBox="0 0 12 8" orient="auto" markerUnits="userSpaceOnUse" stroke-dasharray="0,0"><path id="SvgjsPath1081" d="M0,0 L12,4 L0,8 L0,0" fill="#323232" stroke="#323232" stroke-width="1"></path></marker><marker id="SvgjsMarker1100" markerWidth="12" markerHeight="8" refX="9" refY="4" viewBox="0 0 12 8" orient="auto" markerUnits="userSpaceOnUse" stroke-dasharray="0,0"><path id="SvgjsPath1101" d="M0,0 L12,4 L0,8 L0,0" fill="#323232" stroke="#323232" stroke-width="1"></path></marker><marker id="SvgjsMarker1120" markerWidth="12" markerHeight="8" refX="9" refY="4" viewBox="0 0 12 8" orient="auto" markerUnits="userSpaceOnUse" stroke-dasharray="0,0"><path id="SvgjsPath1121" d="M0,0 L12,4 L0,8 L0,0" fill="#323232" stroke="#323232" stroke-width="1"></path></marker></defs><g id="SvgjsG1046" transform="translate(250,25)"><path id="SvgjsPath1047" d="M 0 0L 180 0L 180 35L 0 35Z" stroke="rgba(50,50,50,1)" stroke-width="1" fill-opacity="1" fill="#cce5ff"></path><g id="SvgjsG1048"><text id="SvgjsText1049" font-family="&quot;Times New Roman&quot;" text-anchor="middle" font-size="13px" width="160px" fill="#323232" font-weight="400" align="middle" lineHeight="125%" anchor="middle" family="&quot;Times New Roman&quot;" size="13px" weight="400" font-style="" opacity="1" y="7.375" transform="rotate(0)"><tspan id="SvgjsTspan1050" dy="16" x="90"><tspan id="SvgjsTspan1051" style="text-decoration:;">单一服务器处理所有服务</tspan></tspan></text></g></g><g id="SvgjsG1052" transform="translate(25,124.5)"><path id="SvgjsPath1053" d="M 0 0L 180 0L 180 35L 0 35Z" stroke="rgba(50,50,50,1)" stroke-width="1" fill-opacity="1" fill="#ffe6cc"></path><g id="SvgjsG1054"><text id="SvgjsText1055" font-family="&quot;Times New Roman&quot;" text-anchor="middle" font-size="12px" width="160px" fill="#323232" font-weight="400" align="middle" lineHeight="125%" anchor="middle" family="&quot;Times New Roman&quot;" size="12px" weight="400" font-style="" opacity="1" y="8.5" transform="rotate(0)"><tspan id="SvgjsTspan1056" dy="15" x="90"><tspan id="SvgjsTspan1057" style="text-decoration:;">数据库从应用服务器分离</tspan></tspan></text></g></g><g id="SvgjsG1058" transform="translate(250,124.5)"><path id="SvgjsPath1059" d="M 0 0L 180 0L 180 35L 0 35Z" stroke="rgba(50,50,50,1)" stroke-width="1" fill-opacity="1" fill="#ffe6cc"></path><g id="SvgjsG1060"><text id="SvgjsText1061" font-family="&quot;Times New Roman&quot;" text-anchor="middle" font-size="12px" width="160px" fill="#323232" font-weight="400" align="middle" lineHeight="125%" anchor="middle" family="&quot;Times New Roman&quot;" size="12px" weight="400" font-style="" opacity="1" y="8.5" transform="rotate(0)"><tspan id="SvgjsTspan1062" dy="15" x="90"><tspan id="SvgjsTspan1063" style="text-decoration:;">缓存从应用服务器分离</tspan></tspan></text></g></g><g id="SvgjsG1064" transform="translate(475,124.5)"><path id="SvgjsPath1065" d="M 0 0L 180 0L 180 35L 0 35Z" stroke="rgba(50,50,50,1)" stroke-width="1" fill-opacity="1" fill="#ffe6cc"></path><g id="SvgjsG1066"><text id="SvgjsText1067" font-family="&quot;Times New Roman&quot;" text-anchor="middle" font-size="12px" width="160px" fill="#323232" font-weight="400" align="middle" lineHeight="125%" anchor="middle" family="&quot;Times New Roman&quot;" size="12px" weight="400" font-style="" opacity="1" y="8.5" transform="rotate(0)"><tspan id="SvgjsTspan1068" dy="15" x="90"><tspan id="SvgjsTspan1069" style="text-decoration:;">静态资源从应用服务器分离</tspan></tspan></text></g></g><g id="SvgjsG1070"><path id="SvgjsPath1071" d="M340 60.5L340 92.25L115 92.25L115 122.69999999999999" stroke="#323232" stroke-width="1" fill="none" marker-end="url(#SvgjsMarker1072)"></path></g><g id="SvgjsG1074"><path id="SvgjsPath1075" d="M340 60.5L340 92.25L340 92.25L340 122.69999999999999" stroke="#323232" stroke-width="1" fill="none" marker-end="url(#SvgjsMarker1076)"></path></g><g id="SvgjsG1078"><path id="SvgjsPath1079" d="M340 60.5L340 92.25L565 92.25L565 122.69999999999999" stroke="#323232" stroke-width="1" fill="none" marker-end="url(#SvgjsMarker1080)"></path></g><g id="SvgjsG1082" transform="translate(25,224)"><path id="SvgjsPath1083" d="M 0 4Q 0 0 4 0L 176 0Q 180 0 180 4L 180 102Q 180 106 176 106L 4 106Q 0 106 0 102Z" stroke="rgba(50,50,50,1)" stroke-width="1" fill-opacity="1" fill="#ffffff"></path><g id="SvgjsG1084"><text id="SvgjsText1085" font-family="微软雅黑" text-anchor="middle" font-size="13px" width="160px" fill="#323232" font-weight="400" align="middle" lineHeight="125%" anchor="middle" family="微软雅黑" size="13px" weight="400" font-style="" opacity="1" y="42.875" transform="rotate(0)"></text></g></g><g id="SvgjsG1086" transform="translate(75,271.5)"><path id="SvgjsPath1087" d="M 0 0L 80 0L 80 35L 0 35Z" stroke="rgba(50,50,50,1)" stroke-width="1" fill-opacity="1" fill="#cce5ff"></path><g id="SvgjsG1088"><text id="SvgjsText1089" font-family="&quot;Times New Roman&quot;" text-anchor="middle" font-size="12px" width="60px" fill="#323232" font-weight="400" align="middle" lineHeight="125%" anchor="middle" family="&quot;Times New Roman&quot;" size="12px" weight="400" font-style="" opacity="1" y="8.5" transform="rotate(0)"><tspan id="SvgjsTspan1090" dy="15" x="40"><tspan id="SvgjsTspan1091" style="text-decoration:;">数据服务器</tspan></tspan></text></g></g><g id="SvgjsG1092" transform="translate(25,225)"><path id="SvgjsPath1093" d="M 0 0L 180 0L 180 35L 0 35Z" stroke="none" fill="none"></path><g id="SvgjsG1094"><text id="SvgjsText1095" font-family="微软雅黑" text-anchor="middle" font-size="13px" width="180px" fill="#323232" font-weight="400" align="middle" lineHeight="125%" anchor="middle" family="微软雅黑" size="13px" weight="400" font-style="" opacity="1" y="7.375" transform="rotate(0)"><tspan id="SvgjsTspan1096" dy="16" x="90"><tspan id="SvgjsTspan1097" style="text-decoration:;">数据服务器集群</tspan></tspan></text></g></g><g id="SvgjsG1098"><path id="SvgjsPath1099" d="M115 160L115 192.25L115 192.25L115 222.7" stroke="#323232" stroke-width="1" fill="none" marker-end="url(#SvgjsMarker1100)"></path></g><g id="SvgjsG1102" transform="translate(250,224)"><path id="SvgjsPath1103" d="M 0 4Q 0 0 4 0L 176 0Q 180 0 180 4L 180 102Q 180 106 176 106L 4 106Q 0 106 0 102Z" stroke="rgba(50,50,50,1)" stroke-width="1" fill-opacity="1" fill="#ffffff"></path><g id="SvgjsG1104"><text id="SvgjsText1105" font-family="微软雅黑" text-anchor="middle" font-size="13px" width="160px" fill="#323232" font-weight="400" align="middle" lineHeight="125%" anchor="middle" family="微软雅黑" size="13px" weight="400" font-style="" opacity="1" y="42.875" transform="rotate(0)"></text></g></g><g id="SvgjsG1106" transform="translate(300,271.5)"><path id="SvgjsPath1107" d="M 0 0L 80 0L 80 35L 0 35Z" stroke="rgba(50,50,50,1)" stroke-width="1" fill-opacity="1" fill="#cce5ff"></path><g id="SvgjsG1108"><text id="SvgjsText1109" font-family="&quot;Times New Roman&quot;" text-anchor="middle" font-size="12px" width="60px" fill="#323232" font-weight="400" align="middle" lineHeight="125%" anchor="middle" family="&quot;Times New Roman&quot;" size="12px" weight="400" font-style="" opacity="1" y="8.5" transform="rotate(0)"><tspan id="SvgjsTspan1110" dy="15" x="40"><tspan id="SvgjsTspan1111" style="text-decoration:;">缓存服务器</tspan></tspan></text></g></g><g id="SvgjsG1112" transform="translate(250,225)"><path id="SvgjsPath1113" d="M 0 0L 180 0L 180 35L 0 35Z" stroke="none" fill="none"></path><g id="SvgjsG1114"><text id="SvgjsText1115" font-family="微软雅黑" text-anchor="middle" font-size="13px" width="180px" fill="#323232" font-weight="400" align="middle" lineHeight="125%" anchor="middle" family="微软雅黑" size="13px" weight="400" font-style="" opacity="1" y="7.375" transform="rotate(0)"><tspan id="SvgjsTspan1116" dy="16" x="90"><tspan id="SvgjsTspan1117" style="text-decoration:;">缓存集群</tspan></tspan></text></g></g><g id="SvgjsG1118"><path id="SvgjsPath1119" d="M340 160L340 192.25L340 192.25L340 222.7" stroke="#323232" stroke-width="1" fill="none" marker-end="url(#SvgjsMarker1120)"></path></g><g id="SvgjsG1122" transform="translate(340,61)"><path id="SvgjsPath1123" d="M 0 0L 90 0L 90 30L 0 30Z" stroke="none" fill="none"></path><g id="SvgjsG1124"><text id="SvgjsText1125" font-family="微软雅黑" text-anchor="middle" font-size="13px" width="90px" fill="#688f4e" font-weight="400" align="middle" lineHeight="125%" anchor="middle" family="微软雅黑" size="13px" weight="400" font-style="" opacity="1" y="4.875" transform="rotate(0)"><tspan id="SvgjsTspan1126" dy="16" x="45"><tspan id="SvgjsTspan1127" style="text-decoration:;">物理分离</tspan></tspan></text></g></g><g id="SvgjsG1128" transform="translate(340,176.75)"><path id="SvgjsPath1129" d="M 0 0L 90 0L 90 30L 0 30Z" stroke="none" fill="none"></path><g id="SvgjsG1130"><text id="SvgjsText1131" font-family="微软雅黑" text-anchor="middle" font-size="13px" width="90px" fill="#688f4e" font-weight="400" align="middle" lineHeight="125%" anchor="middle" family="微软雅黑" size="13px" weight="400" font-style="" opacity="1" y="4.875" transform="rotate(0)"><tspan id="SvgjsTspan1132" dy="16" x="45"><tspan id="SvgjsTspan1133" style="text-decoration:;">集群化</tspan></tspan></text></g></g><g id="SvgjsG1134" transform="translate(380,271.5)"><path id="SvgjsPath1135" d="M 0 0L 50 0L 50 35L 0 35Z" stroke="none" fill="none"></path><g id="SvgjsG1136"><text id="SvgjsText1137" font-family="微软雅黑" text-anchor="middle" font-size="13px" width="50px" fill="#323232" font-weight="400" align="middle" lineHeight="125%" anchor="middle" family="微软雅黑" size="13px" weight="400" font-style="" opacity="1" y="7.375" transform="rotate(0)"><tspan id="SvgjsTspan1138" dy="16" x="25"><tspan id="SvgjsTspan1139" style="text-decoration:;">···</tspan></tspan></text></g></g><g id="SvgjsG1140" transform="translate(250,271.5)"><path id="SvgjsPath1141" d="M 0 0L 50 0L 50 35L 0 35Z" stroke="none" fill="none"></path><g id="SvgjsG1142"><text id="SvgjsText1143" font-family="微软雅黑" text-anchor="middle" font-size="13px" width="50px" fill="#323232" font-weight="400" align="middle" lineHeight="125%" anchor="middle" family="微软雅黑" size="13px" weight="400" font-style="" opacity="1" y="7.375" transform="rotate(0)"><tspan id="SvgjsTspan1144" dy="16" x="25"><tspan id="SvgjsTspan1145" style="text-decoration:;">···</tspan></tspan></text></g></g><g id="SvgjsG1146" transform="translate(155,271.5)"><path id="SvgjsPath1147" d="M 0 0L 50 0L 50 35L 0 35Z" stroke="none" fill="none"></path><g id="SvgjsG1148"><text id="SvgjsText1149" font-family="微软雅黑" text-anchor="middle" font-size="13px" width="50px" fill="#323232" font-weight="400" align="middle" lineHeight="125%" anchor="middle" family="微软雅黑" size="13px" weight="400" font-style="" opacity="1" y="7.375" transform="rotate(0)"><tspan id="SvgjsTspan1150" dy="16" x="25"><tspan id="SvgjsTspan1151" style="text-decoration:;">···</tspan></tspan></text></g></g><g id="SvgjsG1152" transform="translate(25,271.5)"><path id="SvgjsPath1153" d="M 0 0L 50 0L 50 35L 0 35Z" stroke="none" fill="none"></path><g id="SvgjsG1154"><text id="SvgjsText1155" font-family="微软雅黑" text-anchor="middle" font-size="13px" width="50px" fill="#323232" font-weight="400" align="middle" lineHeight="125%" anchor="middle" family="微软雅黑" size="13px" weight="400" font-style="" opacity="1" y="7.375" transform="rotate(0)"><tspan id="SvgjsTspan1156" dy="16" x="25"><tspan id="SvgjsTspan1157" style="text-decoration:;">···</tspan></tspan></text></g></g></svg>