<svg id="SvgjsSvg1350" width="821.5" height="358" xmlns="http://www.w3.org/2000/svg" version="1.1" xmlns:xlink="http://www.w3.org/1999/xlink" xmlns:svgjs="http://svgjs.com/svgjs"><defs id="SvgjsDefs1351"><marker id="SvgjsMarker1412" markerWidth="12" markerHeight="8" refX="9" refY="4" viewBox="0 0 12 8" orient="auto" markerUnits="userSpaceOnUse" stroke-dasharray="0,0"><path id="SvgjsPath1413" d="M0,0 L12,4 L0,8 L0,0" fill="#323232" stroke="#323232" stroke-width="1"></path></marker><marker id="SvgjsMarker1416" markerWidth="12" markerHeight="8" refX="9" refY="4" viewBox="0 0 12 8" orient="auto" markerUnits="userSpaceOnUse" stroke-dasharray="0,0"><path id="SvgjsPath1417" d="M0,0 L12,4 L0,8 L0,0" fill="#323232" stroke="#323232" stroke-width="1"></path></marker><marker id="SvgjsMarker1420" markerWidth="12" markerHeight="8" refX="9" refY="4" viewBox="0 0 12 8" orient="auto" markerUnits="userSpaceOnUse" stroke-dasharray="0,0"><path id="SvgjsPath1421" d="M0,0 L12,4 L0,8 L0,0" fill="#323232" stroke="#323232" stroke-width="1"></path></marker><marker id="SvgjsMarker1424" markerWidth="12" markerHeight="8" refX="9" refY="4" viewBox="0 0 12 8" orient="auto" markerUnits="userSpaceOnUse" stroke-dasharray="0,0"><path id="SvgjsPath1425" d="M0,0 L12,4 L0,8 L0,0" fill="#323232" stroke="#323232" stroke-width="1"></path></marker><marker id="SvgjsMarker1492" markerWidth="12" markerHeight="8" refX="9" refY="4" viewBox="0 0 12 8" orient="auto" markerUnits="userSpaceOnUse" stroke-dasharray="0,0"><path id="SvgjsPath1493" d="M0,0 L12,4 L0,8 L0,0" fill="#323232" stroke="#323232" stroke-width="1"></path></marker><marker id="SvgjsMarker1496" markerWidth="12" markerHeight="8" refX="9" refY="4" viewBox="0 0 12 8" orient="auto" markerUnits="userSpaceOnUse" stroke-dasharray="0,0"><path id="SvgjsPath1497" d="M0,0 L12,4 L0,8 L0,0" fill="#323232" stroke="#323232" stroke-width="1"></path></marker><marker id="SvgjsMarker1500" markerWidth="12" markerHeight="8" refX="9" refY="4" viewBox="0 0 12 8" orient="auto" markerUnits="userSpaceOnUse" stroke-dasharray="0,0"><path id="SvgjsPath1501" d="M0,0 L12,4 L0,8 L0,0" fill="#323232" stroke="#323232" stroke-width="1"></path></marker><marker id="SvgjsMarker1504" markerWidth="12" markerHeight="8" refX="9" refY="4" viewBox="0 0 12 8" orient="auto" markerUnits="userSpaceOnUse" stroke-dasharray="0,0"><path id="SvgjsPath1505" d="M0,0 L12,4 L0,8 L0,0" fill="#323232" stroke="#323232" stroke-width="1"></path></marker><marker id="SvgjsMarker1508" markerWidth="12" markerHeight="8" refX="9" refY="4" viewBox="0 0 12 8" orient="auto" markerUnits="userSpaceOnUse" stroke-dasharray="0,0"><path id="SvgjsPath1509" d="M0,0 L12,4 L0,8 L0,0" fill="#323232" stroke="#323232" stroke-width="1"></path></marker><marker id="SvgjsMarker1512" markerWidth="12" markerHeight="8" refX="9" refY="4" viewBox="0 0 12 8" orient="auto" markerUnits="userSpaceOnUse" stroke-dasharray="0,0"><path id="SvgjsPath1513" d="M0,0 L12,4 L0,8 L0,0" fill="#323232" stroke="#323232" stroke-width="1"></path></marker><marker id="SvgjsMarker1516" markerWidth="12" markerHeight="8" refX="9" refY="4" viewBox="0 0 12 8" orient="auto" markerUnits="userSpaceOnUse" stroke-dasharray="0,0"><path id="SvgjsPath1517" d="M0,0 L12,4 L0,8 L0,0" fill="#323232" stroke="#323232" stroke-width="1"></path></marker><marker id="SvgjsMarker1520" markerWidth="12" markerHeight="8" refX="9" refY="4" viewBox="0 0 12 8" orient="auto" markerUnits="userSpaceOnUse" stroke-dasharray="0,0"><path id="SvgjsPath1521" d="M0,0 L12,4 L0,8 L0,0" fill="#323232" stroke="#323232" stroke-width="1"></path></marker></defs><g id="SvgjsG1352" transform="translate(66,26)"><path id="SvgjsPath1353" d="M 0 150C 0 -50 300 -50 300 150C 300 350 0 350 0 150Z" stroke="rgba(50,50,50,1)" stroke-width="1" fill="none"></path><g id="SvgjsG1354"><text id="SvgjsText1355" font-family="微软雅黑" text-anchor="middle" font-size="13px" width="280px" fill="#323232" font-weight="400" align="middle" lineHeight="125%" anchor="middle" family="微软雅黑" size="13px" weight="400" font-style="" opacity="1" y="139.875" transform="rotate(0)"></text></g></g><g id="SvgjsG1356" transform="translate(52.5,82.5)"><path id="SvgjsPath1357" d="M 0 30C 0 -10 60 -10 60 30C 60 70 0 70 0 30Z" stroke="rgba(50,50,50,1)" stroke-width="1" fill-opacity="1" fill="#cce5ff"></path><g id="SvgjsG1358"><text id="SvgjsText1359" font-family="&quot;Times New Roman&quot;" text-anchor="middle" font-size="12px" width="40px" fill="#323232" font-weight="400" align="middle" lineHeight="125%" anchor="middle" family="&quot;Times New Roman&quot;" size="12px" weight="400" font-style="" opacity="1" y="21" transform="rotate(0)"><tspan id="SvgjsTspan1360" dy="15" x="30"><tspan id="SvgjsTspan1361" style="text-decoration:;">Node1</tspan></tspan></text></g></g><g id="SvgjsG1362" transform="translate(317.5,82.5)"><path id="SvgjsPath1363" d="M 0 30C 0 -10 60 -10 60 30C 60 70 0 70 0 30Z" stroke="rgba(50,50,50,1)" stroke-width="1" fill-opacity="1" fill="#cce5ff"></path><g id="SvgjsG1364"><text id="SvgjsText1365" font-family="&quot;Times New Roman&quot;" text-anchor="middle" font-size="12px" width="40px" fill="#323232" font-weight="400" align="middle" lineHeight="125%" anchor="middle" family="&quot;Times New Roman&quot;" size="12px" weight="400" font-style="" opacity="1" y="21" transform="rotate(0)"><tspan id="SvgjsTspan1366" dy="15" x="30"><tspan id="SvgjsTspan1367" style="text-decoration:;">Node0</tspan></tspan></text></g></g><g id="SvgjsG1368" transform="translate(317.5,218.5)"><path id="SvgjsPath1369" d="M 0 30C 0 -10 60 -10 60 30C 60 70 0 70 0 30Z" stroke="rgba(50,50,50,1)" stroke-width="1" fill-opacity="1" fill="#cce5ff"></path><g id="SvgjsG1370"><text id="SvgjsText1371" font-family="&quot;Times New Roman&quot;" text-anchor="middle" font-size="12px" width="40px" fill="#323232" font-weight="400" align="middle" lineHeight="125%" anchor="middle" family="&quot;Times New Roman&quot;" size="12px" weight="400" font-style="" opacity="1" y="21" transform="rotate(0)"><tspan id="SvgjsTspan1372" dy="15" x="30"><tspan id="SvgjsTspan1373" style="text-decoration:;">Node2</tspan></tspan></text></g></g><g id="SvgjsG1374" transform="translate(128,25)"><path id="SvgjsPath1375" d="M 0 22.5C 0 -7.5 45 -7.5 45 22.5C 45 52.5 0 52.5 0 22.5Z" stroke="rgba(50,50,50,1)" stroke-width="1" fill-opacity="1" fill="#f5f5f5"></path><g id="SvgjsG1376"><text id="SvgjsText1377" font-family="&quot;Times New Roman&quot;" text-anchor="middle" font-size="12px" width="25px" fill="#323232" font-weight="400" align="middle" lineHeight="125%" anchor="middle" family="&quot;Times New Roman&quot;" size="12px" weight="400" font-style="" opacity="1" y="13.5" transform="rotate(0)"><tspan id="SvgjsTspan1378" dy="15" x="22.5"><tspan id="SvgjsTspan1379" style="text-decoration:;">key6</tspan></tspan></text></g></g><g id="SvgjsG1380" transform="translate(263,25)"><path id="SvgjsPath1381" d="M 0 22.5C 0 -7.5 45 -7.5 45 22.5C 45 52.5 0 52.5 0 22.5Z" stroke="rgba(50,50,50,1)" stroke-width="1" fill-opacity="1" fill="#f5f5f5"></path><g id="SvgjsG1382"><text id="SvgjsText1383" font-family="&quot;Times New Roman&quot;" text-anchor="middle" font-size="12px" width="25px" fill="#323232" font-weight="400" align="middle" lineHeight="125%" anchor="middle" family="&quot;Times New Roman&quot;" size="12px" weight="400" font-style="" opacity="1" y="13.5" transform="rotate(0)"><tspan id="SvgjsTspan1384" dy="15" x="22.5"><tspan id="SvgjsTspan1385" style="text-decoration:;">key1</tspan></tspan></text></g></g><g id="SvgjsG1386" transform="translate(45,158)"><path id="SvgjsPath1387" d="M 0 22.5C 0 -7.5 45 -7.5 45 22.5C 45 52.5 0 52.5 0 22.5Z" stroke="rgba(50,50,50,1)" stroke-width="1" fill-opacity="1" fill="#f5f5f5"></path><g id="SvgjsG1388"><text id="SvgjsText1389" font-family="&quot;Times New Roman&quot;" text-anchor="middle" font-size="12px" width="25px" fill="#323232" font-weight="400" align="middle" lineHeight="125%" anchor="middle" family="&quot;Times New Roman&quot;" size="12px" weight="400" font-style="" opacity="1" y="13.5" transform="rotate(0)"><tspan id="SvgjsTspan1390" dy="15" x="22.5"><tspan id="SvgjsTspan1391" style="text-decoration:;">key4</tspan></tspan></text></g></g><g id="SvgjsG1392" transform="translate(343,158)"><path id="SvgjsPath1393" d="M 0 22.5C 0 -7.5 45 -7.5 45 22.5C 45 52.5 0 52.5 0 22.5Z" stroke="rgba(50,50,50,1)" stroke-width="1" fill-opacity="1" fill="#f5f5f5"></path><g id="SvgjsG1394"><text id="SvgjsText1395" font-family="&quot;Times New Roman&quot;" text-anchor="middle" font-size="12px" width="25px" fill="#323232" font-weight="400" align="middle" lineHeight="125%" anchor="middle" family="&quot;Times New Roman&quot;" size="12px" weight="400" font-style="" opacity="1" y="13.5" transform="rotate(0)"><tspan id="SvgjsTspan1396" dy="15" x="22.5"><tspan id="SvgjsTspan1397" style="text-decoration:;">key5</tspan></tspan></text></g></g><g id="SvgjsG1398" transform="translate(128,285)"><path id="SvgjsPath1399" d="M 0 22.5C 0 -7.5 45 -7.5 45 22.5C 45 52.5 0 52.5 0 22.5Z" stroke="rgba(50,50,50,1)" stroke-width="1" fill-opacity="1" fill="#f5f5f5"></path><g id="SvgjsG1400"><text id="SvgjsText1401" font-family="&quot;Times New Roman&quot;" text-anchor="middle" font-size="12px" width="25px" fill="#323232" font-weight="400" align="middle" lineHeight="125%" anchor="middle" family="&quot;Times New Roman&quot;" size="12px" weight="400" font-style="" opacity="1" y="13.5" transform="rotate(0)"><tspan id="SvgjsTspan1402" dy="15" x="22.5"><tspan id="SvgjsTspan1403" style="text-decoration:;">key0</tspan></tspan></text></g></g><g id="SvgjsG1404" transform="translate(263,285)"><path id="SvgjsPath1405" d="M 0 22.5C 0 -7.5 45 -7.5 45 22.5C 45 52.5 0 52.5 0 22.5Z" stroke="rgba(50,50,50,1)" stroke-width="1" fill-opacity="1" fill="#f5f5f5"></path><g id="SvgjsG1406"><text id="SvgjsText1407" font-family="&quot;Times New Roman&quot;" text-anchor="middle" font-size="12px" width="25px" fill="#323232" font-weight="400" align="middle" lineHeight="125%" anchor="middle" family="&quot;Times New Roman&quot;" size="12px" weight="400" font-style="" opacity="1" y="13.5" transform="rotate(0)"><tspan id="SvgjsTspan1408" dy="15" x="22.5"><tspan id="SvgjsTspan1409" style="text-decoration:;">key3</tspan></tspan></text></g></g><g id="SvgjsG1410"><path id="SvgjsPath1411" d="M342.50780629049666 180.58800768333137C 323 180.5 292 203.5 316.82329047862294 246.83204789526866" stroke-dasharray="8,5" stroke="#323232" stroke-width="1" fill="none" marker-end="url(#SvgjsMarker1412)"></path></g><g id="SvgjsG1414"><path id="SvgjsPath1415" d="M308.49002956956707 47.599353011780735C 329.0298564789725 49.33987403748729 349.3398740374873 61.47014352102752 347.2348340338824 80.71963851692615" stroke-dasharray="8,5" stroke="#323232" stroke-width="1" fill="none" marker-end="url(#SvgjsMarker1416)"></path></g><g id="SvgjsG1418"><path id="SvgjsPath1419" d="M150.59285804943335 70.49130172262616C 156.50757902895486 138.6669425139263 248.8330574860737 118.50757902895486 315.7084662160453 112.67437517297168" stroke-dasharray="8,5" stroke="#323232" stroke-width="1" fill="none" marker-end="url(#SvgjsMarker1420)"></path></g><g id="SvgjsG1422"><path id="SvgjsPath1423" d="M44.681588608593984 180.11449489520515C 29 166.5 25 136.5 51.30093470858452 113.84247622955593" stroke-dasharray="8,5" stroke="#323232" stroke-width="1" fill="none" marker-end="url(#SvgjsMarker1424)"></path></g><g id="SvgjsG1426" transform="translate(474.5,29)"><path id="SvgjsPath1427" d="M 0 150C 0 -50 300 -50 300 150C 300 350 0 350 0 150Z" stroke="rgba(50,50,50,1)" stroke-width="1" fill="none"></path><g id="SvgjsG1428"><text id="SvgjsText1429" font-family="微软雅黑" text-anchor="middle" font-size="13px" width="280px" fill="#323232" font-weight="400" align="middle" lineHeight="125%" anchor="middle" family="微软雅黑" size="13px" weight="400" font-style="" opacity="1" y="139.875" transform="rotate(0)"></text></g></g><g id="SvgjsG1430" transform="translate(461,85.5)"><path id="SvgjsPath1431" d="M 0 30C 0 -10 60 -10 60 30C 60 70 0 70 0 30Z" stroke="rgba(50,50,50,1)" stroke-width="1" fill-opacity="1" fill="#cce5ff"></path><g id="SvgjsG1432"><text id="SvgjsText1433" font-family="&quot;Times New Roman&quot;" text-anchor="middle" font-size="12px" width="40px" fill="#323232" font-weight="400" align="middle" lineHeight="125%" anchor="middle" family="&quot;Times New Roman&quot;" size="12px" weight="400" font-style="" opacity="1" y="21" transform="rotate(0)"><tspan id="SvgjsTspan1434" dy="15" x="30"><tspan id="SvgjsTspan1435" style="text-decoration:;">Node1</tspan></tspan></text></g></g><g id="SvgjsG1436" transform="translate(726,85.5)"><path id="SvgjsPath1437" d="M 0 30C 0 -10 60 -10 60 30C 60 70 0 70 0 30Z" stroke="rgba(50,50,50,1)" stroke-width="1" fill-opacity="1" fill="#cce5ff"></path><g id="SvgjsG1438"><text id="SvgjsText1439" font-family="&quot;Times New Roman&quot;" text-anchor="middle" font-size="12px" width="40px" fill="#323232" font-weight="400" align="middle" lineHeight="125%" anchor="middle" family="&quot;Times New Roman&quot;" size="12px" weight="400" font-style="" opacity="1" y="21" transform="rotate(0)"><tspan id="SvgjsTspan1440" dy="15" x="30"><tspan id="SvgjsTspan1441" style="text-decoration:;">Node0</tspan></tspan></text></g></g><g id="SvgjsG1442" transform="translate(461,221.5)"><path id="SvgjsPath1443" d="M 0 30C 0 -10 60 -10 60 30C 60 70 0 70 0 30Z" stroke="rgba(50,50,50,1)" stroke-width="1" fill-opacity="1" fill="#ffe6cc"></path><g id="SvgjsG1444"><text id="SvgjsText1445" font-family="&quot;Times New Roman&quot;" text-anchor="middle" font-size="12px" width="40px" fill="#323232" font-weight="400" align="middle" lineHeight="125%" anchor="middle" family="&quot;Times New Roman&quot;" size="12px" weight="400" font-style="" opacity="1" y="21" transform="rotate(0)"><tspan id="SvgjsTspan1446" dy="15" x="30"><tspan id="SvgjsTspan1447" style="text-decoration:;">Node3</tspan></tspan></text></g></g><g id="SvgjsG1448" transform="translate(726,221.5)"><path id="SvgjsPath1449" d="M 0 30C 0 -10 60 -10 60 30C 60 70 0 70 0 30Z" stroke="rgba(50,50,50,1)" stroke-width="1" fill-opacity="1" fill="#cce5ff"></path><g id="SvgjsG1450"><text id="SvgjsText1451" font-family="&quot;Times New Roman&quot;" text-anchor="middle" font-size="12px" width="40px" fill="#323232" font-weight="400" align="middle" lineHeight="125%" anchor="middle" family="&quot;Times New Roman&quot;" size="12px" weight="400" font-style="" opacity="1" y="21" transform="rotate(0)"><tspan id="SvgjsTspan1452" dy="15" x="30"><tspan id="SvgjsTspan1453" style="text-decoration:;">Node2</tspan></tspan></text></g></g><g id="SvgjsG1454" transform="translate(536.5,28)"><path id="SvgjsPath1455" d="M 0 22.5C 0 -7.5 45 -7.5 45 22.5C 45 52.5 0 52.5 0 22.5Z" stroke="rgba(50,50,50,1)" stroke-width="1" fill-opacity="1" fill="#f5f5f5"></path><g id="SvgjsG1456"><text id="SvgjsText1457" font-family="&quot;Times New Roman&quot;" text-anchor="middle" font-size="12px" width="25px" fill="#323232" font-weight="400" align="middle" lineHeight="125%" anchor="middle" family="&quot;Times New Roman&quot;" size="12px" weight="400" font-style="" opacity="1" y="13.5" transform="rotate(0)"><tspan id="SvgjsTspan1458" dy="15" x="22.5"><tspan id="SvgjsTspan1459" style="text-decoration:;">key6</tspan></tspan></text></g></g><g id="SvgjsG1460" transform="translate(671.5,28)"><path id="SvgjsPath1461" d="M 0 22.5C 0 -7.5 45 -7.5 45 22.5C 45 52.5 0 52.5 0 22.5Z" stroke="rgba(50,50,50,1)" stroke-width="1" fill-opacity="1" fill="#f5f5f5"></path><g id="SvgjsG1462"><text id="SvgjsText1463" font-family="&quot;Times New Roman&quot;" text-anchor="middle" font-size="12px" width="25px" fill="#323232" font-weight="400" align="middle" lineHeight="125%" anchor="middle" family="&quot;Times New Roman&quot;" size="12px" weight="400" font-style="" opacity="1" y="13.5" transform="rotate(0)"><tspan id="SvgjsTspan1464" dy="15" x="22.5"><tspan id="SvgjsTspan1465" style="text-decoration:;">key1</tspan></tspan></text></g></g><g id="SvgjsG1466" transform="translate(453.5,161)"><path id="SvgjsPath1467" d="M 0 22.5C 0 -7.5 45 -7.5 45 22.5C 45 52.5 0 52.5 0 22.5Z" stroke="rgba(50,50,50,1)" stroke-width="1" fill-opacity="1" fill="#f5f5f5"></path><g id="SvgjsG1468"><text id="SvgjsText1469" font-family="&quot;Times New Roman&quot;" text-anchor="middle" font-size="12px" width="25px" fill="#323232" font-weight="400" align="middle" lineHeight="125%" anchor="middle" family="&quot;Times New Roman&quot;" size="12px" weight="400" font-style="" opacity="1" y="13.5" transform="rotate(0)"><tspan id="SvgjsTspan1470" dy="15" x="22.5"><tspan id="SvgjsTspan1471" style="text-decoration:;">key4</tspan></tspan></text></g></g><g id="SvgjsG1472" transform="translate(751.5,161)"><path id="SvgjsPath1473" d="M 0 22.5C 0 -7.5 45 -7.5 45 22.5C 45 52.5 0 52.5 0 22.5Z" stroke="rgba(50,50,50,1)" stroke-width="1" fill-opacity="1" fill="#f5f5f5"></path><g id="SvgjsG1474"><text id="SvgjsText1475" font-family="&quot;Times New Roman&quot;" text-anchor="middle" font-size="12px" width="25px" fill="#323232" font-weight="400" align="middle" lineHeight="125%" anchor="middle" family="&quot;Times New Roman&quot;" size="12px" weight="400" font-style="" opacity="1" y="13.5" transform="rotate(0)"><tspan id="SvgjsTspan1476" dy="15" x="22.5"><tspan id="SvgjsTspan1477" style="text-decoration:;">key5</tspan></tspan></text></g></g><g id="SvgjsG1478" transform="translate(536.5,288)"><path id="SvgjsPath1479" d="M 0 22.5C 0 -7.5 45 -7.5 45 22.5C 45 52.5 0 52.5 0 22.5Z" stroke="rgba(50,50,50,1)" stroke-width="1" fill-opacity="1" fill="#ffe6cc"></path><g id="SvgjsG1480"><text id="SvgjsText1481" font-family="&quot;Times New Roman&quot;" text-anchor="middle" font-size="12px" width="25px" fill="#323232" font-weight="400" align="middle" lineHeight="125%" anchor="middle" family="&quot;Times New Roman&quot;" size="12px" weight="400" font-style="" opacity="1" y="13.5" transform="rotate(0)"><tspan id="SvgjsTspan1482" dy="15" x="22.5"><tspan id="SvgjsTspan1483" style="text-decoration:;">key0</tspan></tspan></text></g></g><g id="SvgjsG1484" transform="translate(671.5,288)"><path id="SvgjsPath1485" d="M 0 22.5C 0 -7.5 45 -7.5 45 22.5C 45 52.5 0 52.5 0 22.5Z" stroke="rgba(50,50,50,1)" stroke-width="1" fill-opacity="1" fill="#ffe6cc"></path><g id="SvgjsG1486"><text id="SvgjsText1487" font-family="&quot;Times New Roman&quot;" text-anchor="middle" font-size="12px" width="25px" fill="#323232" font-weight="400" align="middle" lineHeight="125%" anchor="middle" family="&quot;Times New Roman&quot;" size="12px" weight="400" font-style="" opacity="1" y="13.5" transform="rotate(0)"><tspan id="SvgjsTspan1488" dy="15" x="22.5"><tspan id="SvgjsTspan1489" style="text-decoration:;">key3</tspan></tspan></text></g></g><g id="SvgjsG1490"><path id="SvgjsPath1491" d="M536.0001347122634 310.51160577942096C 515.2454849177631 314.2477444708734 492.881030122953 303.0002726884229 491.54495334246974 283.21552495013367" stroke-dasharray="8,5" stroke="#323232" stroke-width="1" fill="none" marker-end="url(#SvgjsMarker1492)"></path></g><g id="SvgjsG1494"><path id="SvgjsPath1495" d="M693.9240596679613 287.5058005807674C 692.5 251.5 624.5 176.5 522.5130802483752 250.52501889147703" stroke-dasharray="8,5" stroke="#323232" stroke-width="1" fill="none" marker-end="url(#SvgjsMarker1496)"></path></g><g id="SvgjsG1498"><path id="SvgjsPath1499" d="M751.0078062904967 183.58800768333137C 731.5 183.5 700.5 206.5 725.3232904786229 249.83204789526866" stroke-dasharray="8,5" stroke="#323232" stroke-width="1" fill="none" marker-end="url(#SvgjsMarker1500)"></path></g><g id="SvgjsG1502"><path id="SvgjsPath1503" d="M716.9841778932256 50.624786889181806C 737.2894759376834 54.165745522603004 757.8398740374873 64.47014352102752 755.7264427045955 83.72090854475354" stroke-dasharray="8,5" stroke="#323232" stroke-width="1" fill="none" marker-end="url(#SvgjsMarker1504)"></path></g><g id="SvgjsG1506"><path id="SvgjsPath1507" d="M559.0928580494334 73.49130172262616C 565.0075790289549 141.6669425139263 657.3330574860737 121.50757902895486 724.2084662160453 115.67437517297168" stroke-dasharray="8,5" stroke="#323232" stroke-width="1" fill="none" marker-end="url(#SvgjsMarker1508)"></path></g><g id="SvgjsG1510"><path id="SvgjsPath1511" d="M453.15402732301516 183.13902506073143C 437 177 433.73919078818767 117.88501176457666 459.39506903331676 116.31498257170387" stroke-dasharray="8,5" stroke="#323232" stroke-width="1" fill="none" marker-end="url(#SvgjsMarker1512)"></path></g><g id="SvgjsG1514"><path id="SvgjsPath1515" d="M150.6691600648149 284.52948446096667C 179 216 149 155 113.64345260064135 113.89014968621606" stroke-dasharray="8,5" stroke="#323232" stroke-width="1" fill="none" marker-end="url(#SvgjsMarker1516)"></path></g><g id="SvgjsG1518"><path id="SvgjsPath1519" d="M285.5210026220952 284.5004413048849C 294.01705610890576 187.6496032096543 209.8503967903457 121.01705610890573 114.28771333147341 112.7099548629404" stroke-dasharray="8,5" stroke="#323232" stroke-width="1" fill="none" marker-end="url(#SvgjsMarker1520)"></path></g></svg>