<svg id="SvgjsSvg1006" width="707.3515625" height="396.2890625" xmlns="http://www.w3.org/2000/svg" version="1.1" xmlns:xlink="http://www.w3.org/1999/xlink" xmlns:svgjs="http://svgjs.com/svgjs"><defs id="SvgjsDefs1007"><marker id="SvgjsMarker1136" markerWidth="12" markerHeight="8" refX="9" refY="4" viewBox="0 0 12 8" orient="auto" markerUnits="userSpaceOnUse" stroke-dasharray="0,0"><path id="SvgjsPath1137" d="M0,0 L12,4 L0,8 L0,0" fill="#323232" stroke="#323232" stroke-width="1"></path></marker><marker id="SvgjsMarker1140" markerWidth="12" markerHeight="8" refX="9" refY="4" viewBox="0 0 12 8" orient="auto" markerUnits="userSpaceOnUse" stroke-dasharray="0,0"><path id="SvgjsPath1141" d="M0,0 L12,4 L0,8 L0,0" fill="#323232" stroke="#323232" stroke-width="1"></path></marker><marker id="SvgjsMarker1144" markerWidth="12" markerHeight="8" refX="9" refY="4" viewBox="0 0 12 8" orient="auto" markerUnits="userSpaceOnUse" stroke-dasharray="0,0"><path id="SvgjsPath1145" d="M0,0 L12,4 L0,8 L0,0" fill="#323232" stroke="#323232" stroke-width="1"></path></marker><marker id="SvgjsMarker1148" markerWidth="12" markerHeight="8" refX="9" refY="4" viewBox="0 0 12 8" orient="auto" markerUnits="userSpaceOnUse" stroke-dasharray="0,0"><path id="SvgjsPath1149" d="M0,0 L12,4 L0,8 L0,0" fill="#323232" stroke="#323232" stroke-width="1"></path></marker><marker id="SvgjsMarker1152" markerWidth="12" markerHeight="8" refX="9" refY="4" viewBox="0 0 12 8" orient="auto" markerUnits="userSpaceOnUse" stroke-dasharray="0,0"><path id="SvgjsPath1153" d="M0,0 L12,4 L0,8 L0,0" fill="#323232" stroke="#323232" stroke-width="1"></path></marker></defs><g id="SvgjsG1008" transform="translate(25,183.06696428571422)"><path id="SvgjsPath1009" d="M 0 0L 120 0L 120 35L 0 35Z" stroke="rgba(50,50,50,1)" stroke-width="1" fill-opacity="1" fill="#cce5ff"></path><g id="SvgjsG1010"><text id="SvgjsText1011" font-family="&quot;Times New Roman&quot;" text-anchor="middle" font-size="13px" width="100px" fill="#323232" font-weight="400" align="middle" lineHeight="125%" anchor="middle" family="&quot;Times New Roman&quot;" size="13px" weight="400" font-style="" opacity="1" y="7.375" transform="rotate(0)"><tspan id="SvgjsTspan1012" dy="16" x="60"><tspan id="SvgjsTspan1013" style="text-decoration:;">Zookeeper</tspan></tspan></text></g></g><g id="SvgjsG1014" transform="translate(25,25.004464285714306)"><path id="SvgjsPath1015" d="M 0 0L 120 0L 120 35L 0 35Z" stroke="rgba(50,50,50,1)" stroke-width="1" fill-opacity="1" fill="#cce5ff"></path><g id="SvgjsG1016"><text id="SvgjsText1017" font-family="&quot;Times New Roman&quot;" text-anchor="middle" font-size="13px" width="100px" fill="#323232" font-weight="400" align="middle" lineHeight="125%" anchor="middle" family="&quot;Times New Roman&quot;" size="13px" weight="400" font-style="" opacity="1" y="7.375" transform="rotate(0)"><tspan id="SvgjsTspan1018" dy="16" x="60"><tspan id="SvgjsTspan1019" style="text-decoration:;">应用程序</tspan></tspan></text></g></g><g id="SvgjsG1020" transform="translate(24.999999999999943,336.1294642857141)"><path id="SvgjsPath1021" d="M 0 0L 120 0L 120 35L 0 35Z" stroke="rgba(50,50,50,1)" stroke-width="1" fill-opacity="1" fill="#cce5ff"></path><g id="SvgjsG1022"><text id="SvgjsText1023" font-family="&quot;Times New Roman&quot;" text-anchor="middle" font-size="13px" width="100px" fill="#323232" font-weight="400" align="middle" lineHeight="125%" anchor="middle" family="&quot;Times New Roman&quot;" size="13px" weight="400" font-style="" opacity="1" y="7.375" transform="rotate(0)"><tspan id="SvgjsTspan1024" dy="16" x="60"><tspan id="SvgjsTspan1025" style="text-decoration:;">HMaster</tspan></tspan></text></g></g><g id="SvgjsG1026" transform="translate(202.35714285714283,25.004464285714306)"><path id="SvgjsPath1027" d="M 0 4Q 0 0 4 0L 476 0Q 480 0 480 4L 480 160.8392857142857Q 480 164.8392857142857 476 164.8392857142857L 4 164.8392857142857Q 0 164.8392857142857 0 160.8392857142857Z" stroke="rgba(50,50,50,1)" stroke-width="1" fill-opacity="1" fill="#ffffff"></path><g id="SvgjsG1028"><text id="SvgjsText1029" font-family="&quot;Times New Roman&quot;" text-anchor="middle" font-size="13px" width="460px" fill="#323232" font-weight="400" align="middle" lineHeight="125%" anchor="middle" family="&quot;Times New Roman&quot;" size="13px" weight="400" font-style="" opacity="1" y="72.29464285714285" transform="rotate(0)"></text></g></g><g id="SvgjsG1030" transform="translate(234.35714285714283,65.00446428571428)"><path id="SvgjsPath1031" d="M 0 4Q 0 0 4 0L 196 0Q 200 0 200 4L 200 87Q 200 91 196 91L 4 91Q 0 91 0 87Z" stroke="rgba(50,50,50,1)" stroke-width="1" fill-opacity="1" fill="#ffffff"></path><g id="SvgjsG1032"><text id="SvgjsText1033" font-family="&quot;Times New Roman&quot;" text-anchor="middle" font-size="13px" width="180px" fill="#323232" font-weight="400" align="middle" lineHeight="125%" anchor="middle" family="&quot;Times New Roman&quot;" size="13px" weight="400" font-style="" opacity="1" y="35.375" transform="rotate(0)"></text></g></g><g id="SvgjsG1034" transform="translate(263.35714285714283,102.00446428571428)"><path id="SvgjsPath1035" d="M 0 0L 60 0L 60 30L 0 30Z" stroke="rgba(50,50,50,1)" stroke-width="1" fill-opacity="1" fill="#ffe6cc"></path><g id="SvgjsG1036"><text id="SvgjsText1037" font-family="&quot;Times New Roman&quot;" text-anchor="middle" font-size="13px" width="40px" fill="#323232" font-weight="400" align="middle" lineHeight="125%" anchor="middle" family="&quot;Times New Roman&quot;" size="13px" weight="400" font-style="" opacity="1" y="4.875" transform="rotate(0)"><tspan id="SvgjsTspan1038" dy="16" x="30"><tspan id="SvgjsTspan1039" style="text-decoration:;">HFile</tspan></tspan></text></g></g><g id="SvgjsG1040" transform="translate(343.3571428571429,102.00446428571428)"><path id="SvgjsPath1041" d="M 0 0L 60 0L 60 30L 0 30Z" stroke="rgba(50,50,50,1)" stroke-width="1" fill-opacity="1" fill="#ffe6cc"></path><g id="SvgjsG1042"><text id="SvgjsText1043" font-family="&quot;Times New Roman&quot;" text-anchor="middle" font-size="13px" width="40px" fill="#323232" font-weight="400" align="middle" lineHeight="125%" anchor="middle" family="&quot;Times New Roman&quot;" size="13px" weight="400" font-style="" opacity="1" y="4.875" transform="rotate(0)"><tspan id="SvgjsTspan1044" dy="16" x="30"><tspan id="SvgjsTspan1045" style="text-decoration:;">HFile</tspan></tspan></text></g></g><g id="SvgjsG1046" transform="translate(234.35714285714283,65.00446428571428)"><path id="SvgjsPath1047" d="M 0 0L 200 0L 200 35L 0 35Z" stroke="none" fill="none"></path><g id="SvgjsG1048"><text id="SvgjsText1049" font-family="&quot;Times New Roman&quot;" text-anchor="middle" font-size="13px" width="200px" fill="#323232" font-weight="400" align="middle" lineHeight="125%" anchor="middle" family="&quot;Times New Roman&quot;" size="13px" weight="400" font-style="" opacity="1" y="7.375" transform="rotate(0)"><tspan id="SvgjsTspan1050" dy="16" x="100"><tspan id="SvgjsTspan1051" style="text-decoration:;">HRegion</tspan></tspan></text></g></g><g id="SvgjsG1052" transform="translate(202.35714285714283,25.004464285714306)"><path id="SvgjsPath1053" d="M 0 0L 480 0L 480 35L 0 35Z" stroke="none" fill="none"></path><g id="SvgjsG1054"><text id="SvgjsText1055" font-family="&quot;Times New Roman&quot;" text-anchor="middle" font-size="13px" width="480px" fill="#323232" font-weight="400" align="middle" lineHeight="125%" anchor="middle" family="&quot;Times New Roman&quot;" size="13px" weight="400" font-style="" opacity="1" y="7.375" transform="rotate(0)"><tspan id="SvgjsTspan1056" dy="16" x="240"><tspan id="SvgjsTspan1057" style="text-decoration:;">HRegionServer</tspan></tspan></text></g></g><g id="SvgjsG1058" transform="translate(449.357142857143,65.00446428571428)"><path id="SvgjsPath1059" d="M 0 4Q 0 0 4 0L 196 0Q 200 0 200 4L 200 87Q 200 91 196 91L 4 91Q 0 91 0 87Z" stroke="rgba(50,50,50,1)" stroke-width="1" fill-opacity="1" fill="#ffffff"></path><g id="SvgjsG1060"><text id="SvgjsText1061" font-family="&quot;Times New Roman&quot;" text-anchor="middle" font-size="13px" width="180px" fill="#323232" font-weight="400" align="middle" lineHeight="125%" anchor="middle" family="&quot;Times New Roman&quot;" size="13px" weight="400" font-style="" opacity="1" y="35.375" transform="rotate(0)"></text></g></g><g id="SvgjsG1062" transform="translate(478.357142857143,102.00446428571428)"><path id="SvgjsPath1063" d="M 0 0L 60 0L 60 30L 0 30Z" stroke="rgba(50,50,50,1)" stroke-width="1" fill-opacity="1" fill="#ffe6cc"></path><g id="SvgjsG1064"><text id="SvgjsText1065" font-family="&quot;Times New Roman&quot;" text-anchor="middle" font-size="13px" width="40px" fill="#323232" font-weight="400" align="middle" lineHeight="125%" anchor="middle" family="&quot;Times New Roman&quot;" size="13px" weight="400" font-style="" opacity="1" y="4.875" transform="rotate(0)"><tspan id="SvgjsTspan1066" dy="16" x="30"><tspan id="SvgjsTspan1067" style="text-decoration:;">HFile</tspan></tspan></text></g></g><g id="SvgjsG1068" transform="translate(558.357142857143,102.00446428571428)"><path id="SvgjsPath1069" d="M 0 0L 60 0L 60 30L 0 30Z" stroke="rgba(50,50,50,1)" stroke-width="1" fill-opacity="1" fill="#ffe6cc"></path><g id="SvgjsG1070"><text id="SvgjsText1071" font-family="&quot;Times New Roman&quot;" text-anchor="middle" font-size="13px" width="40px" fill="#323232" font-weight="400" align="middle" lineHeight="125%" anchor="middle" family="&quot;Times New Roman&quot;" size="13px" weight="400" font-style="" opacity="1" y="4.875" transform="rotate(0)"><tspan id="SvgjsTspan1072" dy="16" x="30"><tspan id="SvgjsTspan1073" style="text-decoration:;">HFile</tspan></tspan></text></g></g><g id="SvgjsG1074" transform="translate(449.357142857143,65.00446428571428)"><path id="SvgjsPath1075" d="M 0 0L 200 0L 200 35L 0 35Z" stroke="none" fill="none"></path><g id="SvgjsG1076"><text id="SvgjsText1077" font-family="&quot;Times New Roman&quot;" text-anchor="middle" font-size="13px" width="200px" fill="#323232" font-weight="400" align="middle" lineHeight="125%" anchor="middle" family="&quot;Times New Roman&quot;" size="13px" weight="400" font-style="" opacity="1" y="7.375" transform="rotate(0)"><tspan id="SvgjsTspan1078" dy="16" x="100"><tspan id="SvgjsTspan1079" style="text-decoration:;">HRegion</tspan></tspan></text></g></g><g id="SvgjsG1080" transform="translate(202.35714285714283,206.29017857142856)"><path id="SvgjsPath1081" d="M 0 4Q 0 0 4 0L 476 0Q 480 0 480 4L 480 160.8392857142857Q 480 164.8392857142857 476 164.8392857142857L 4 164.8392857142857Q 0 164.8392857142857 0 160.8392857142857Z" stroke="rgba(50,50,50,1)" stroke-width="1" fill-opacity="1" fill="#ffffff"></path><g id="SvgjsG1082"><text id="SvgjsText1083" font-family="&quot;Times New Roman&quot;" text-anchor="middle" font-size="13px" width="460px" fill="#323232" font-weight="400" align="middle" lineHeight="125%" anchor="middle" family="&quot;Times New Roman&quot;" size="13px" weight="400" font-style="" opacity="1" y="72.29464285714285" transform="rotate(0)"></text></g></g><g id="SvgjsG1084" transform="translate(234.35714285714283,246.29017857142856)"><path id="SvgjsPath1085" d="M 0 4Q 0 0 4 0L 196 0Q 200 0 200 4L 200 87Q 200 91 196 91L 4 91Q 0 91 0 87Z" stroke="rgba(50,50,50,1)" stroke-width="1" fill-opacity="1" fill="#ffffff"></path><g id="SvgjsG1086"><text id="SvgjsText1087" font-family="&quot;Times New Roman&quot;" text-anchor="middle" font-size="13px" width="180px" fill="#323232" font-weight="400" align="middle" lineHeight="125%" anchor="middle" family="&quot;Times New Roman&quot;" size="13px" weight="400" font-style="" opacity="1" y="35.375" transform="rotate(0)"></text></g></g><g id="SvgjsG1088" transform="translate(263.35714285714283,283.29017857142856)"><path id="SvgjsPath1089" d="M 0 0L 60 0L 60 30L 0 30Z" stroke="rgba(50,50,50,1)" stroke-width="1" fill-opacity="1" fill="#ffe6cc"></path><g id="SvgjsG1090"><text id="SvgjsText1091" font-family="&quot;Times New Roman&quot;" text-anchor="middle" font-size="13px" width="40px" fill="#323232" font-weight="400" align="middle" lineHeight="125%" anchor="middle" family="&quot;Times New Roman&quot;" size="13px" weight="400" font-style="" opacity="1" y="4.875" transform="rotate(0)"><tspan id="SvgjsTspan1092" dy="16" x="30"><tspan id="SvgjsTspan1093" style="text-decoration:;">HFile</tspan></tspan></text></g></g><g id="SvgjsG1094" transform="translate(343.3571428571429,283.29017857142856)"><path id="SvgjsPath1095" d="M 0 0L 60 0L 60 30L 0 30Z" stroke="rgba(50,50,50,1)" stroke-width="1" fill-opacity="1" fill="#ffe6cc"></path><g id="SvgjsG1096"><text id="SvgjsText1097" font-family="&quot;Times New Roman&quot;" text-anchor="middle" font-size="13px" width="40px" fill="#323232" font-weight="400" align="middle" lineHeight="125%" anchor="middle" family="&quot;Times New Roman&quot;" size="13px" weight="400" font-style="" opacity="1" y="4.875" transform="rotate(0)"><tspan id="SvgjsTspan1098" dy="16" x="30"><tspan id="SvgjsTspan1099" style="text-decoration:;">HFile</tspan></tspan></text></g></g><g id="SvgjsG1100" transform="translate(234.35714285714283,246.29017857142856)"><path id="SvgjsPath1101" d="M 0 0L 200 0L 200 35L 0 35Z" stroke="none" fill="none"></path><g id="SvgjsG1102"><text id="SvgjsText1103" font-family="&quot;Times New Roman&quot;" text-anchor="middle" font-size="13px" width="200px" fill="#323232" font-weight="400" align="middle" lineHeight="125%" anchor="middle" family="&quot;Times New Roman&quot;" size="13px" weight="400" font-style="" opacity="1" y="7.375" transform="rotate(0)"><tspan id="SvgjsTspan1104" dy="16" x="100"><tspan id="SvgjsTspan1105" style="text-decoration:;">HRegion</tspan></tspan></text></g></g><g id="SvgjsG1106" transform="translate(202.35714285714283,206.29017857142856)"><path id="SvgjsPath1107" d="M 0 0L 480 0L 480 35L 0 35Z" stroke="none" fill="none"></path><g id="SvgjsG1108"><text id="SvgjsText1109" font-family="&quot;Times New Roman&quot;" text-anchor="middle" font-size="13px" width="480px" fill="#323232" font-weight="400" align="middle" lineHeight="125%" anchor="middle" family="&quot;Times New Roman&quot;" size="13px" weight="400" font-style="" opacity="1" y="7.375" transform="rotate(0)"><tspan id="SvgjsTspan1110" dy="16" x="240"><tspan id="SvgjsTspan1111" style="text-decoration:;">HRegionServer</tspan></tspan></text></g></g><g id="SvgjsG1112" transform="translate(449.3571428571431,246.29017857142856)"><path id="SvgjsPath1113" d="M 0 4Q 0 0 4 0L 196 0Q 200 0 200 4L 200 87Q 200 91 196 91L 4 91Q 0 91 0 87Z" stroke="rgba(50,50,50,1)" stroke-width="1" fill-opacity="1" fill="#ffffff"></path><g id="SvgjsG1114"><text id="SvgjsText1115" font-family="&quot;Times New Roman&quot;" text-anchor="middle" font-size="13px" width="180px" fill="#323232" font-weight="400" align="middle" lineHeight="125%" anchor="middle" family="&quot;Times New Roman&quot;" size="13px" weight="400" font-style="" opacity="1" y="35.375" transform="rotate(0)"></text></g></g><g id="SvgjsG1116" transform="translate(478.3571428571431,283.29017857142856)"><path id="SvgjsPath1117" d="M 0 0L 60 0L 60 30L 0 30Z" stroke="rgba(50,50,50,1)" stroke-width="1" fill-opacity="1" fill="#ffe6cc"></path><g id="SvgjsG1118"><text id="SvgjsText1119" font-family="&quot;Times New Roman&quot;" text-anchor="middle" font-size="13px" width="40px" fill="#323232" font-weight="400" align="middle" lineHeight="125%" anchor="middle" family="&quot;Times New Roman&quot;" size="13px" weight="400" font-style="" opacity="1" y="4.875" transform="rotate(0)"><tspan id="SvgjsTspan1120" dy="16" x="30"><tspan id="SvgjsTspan1121" style="text-decoration:;">HFile</tspan></tspan></text></g></g><g id="SvgjsG1122" transform="translate(558.3571428571431,283.29017857142856)"><path id="SvgjsPath1123" d="M 0 0L 60 0L 60 30L 0 30Z" stroke="rgba(50,50,50,1)" stroke-width="1" fill-opacity="1" fill="#ffe6cc"></path><g id="SvgjsG1124"><text id="SvgjsText1125" font-family="&quot;Times New Roman&quot;" text-anchor="middle" font-size="13px" width="40px" fill="#323232" font-weight="400" align="middle" lineHeight="125%" anchor="middle" family="&quot;Times New Roman&quot;" size="13px" weight="400" font-style="" opacity="1" y="4.875" transform="rotate(0)"><tspan id="SvgjsTspan1126" dy="16" x="30"><tspan id="SvgjsTspan1127" style="text-decoration:;">HFile</tspan></tspan></text></g></g><g id="SvgjsG1128" transform="translate(449.3571428571431,246.29017857142856)"><path id="SvgjsPath1129" d="M 0 0L 200 0L 200 35L 0 35Z" stroke="none" fill="none"></path><g id="SvgjsG1130"><text id="SvgjsText1131" font-family="&quot;Times New Roman&quot;" text-anchor="middle" font-size="13px" width="200px" fill="#323232" font-weight="400" align="middle" lineHeight="125%" anchor="middle" family="&quot;Times New Roman&quot;" size="13px" weight="400" font-style="" opacity="1" y="7.375" transform="rotate(0)"><tspan id="SvgjsTspan1132" dy="16" x="100"><tspan id="SvgjsTspan1133" style="text-decoration:;">HRegion</tspan></tspan></text></g></g><g id="SvgjsG1134"><path id="SvgjsPath1135" d="M85 60.504464285714306L85 121.53571428571428L85 121.53571428571428L85 181.2669642857142" stroke="#323232" stroke-width="1" fill="none" marker-end="url(#SvgjsMarker1136)"></path></g><g id="SvgjsG1138"><path id="SvgjsPath1139" d="M84.99999999999994 335.6294642857141L84.99999999999994 277.09821428571416L84.99999999999994 277.09821428571416L84.99999999999994 219.86696428571423" stroke="#323232" stroke-width="1" fill="none" marker-end="url(#SvgjsMarker1140)"></path></g><g id="SvgjsG1142"><path id="SvgjsPath1143" d="M145.3310544824502 353.2547604965024L201.1653467203219 290.0587550697334" stroke="#323232" stroke-width="1" fill="none" marker-end="url(#SvgjsMarker1144)"></path></g><g id="SvgjsG1146"><path id="SvgjsPath1147" d="M145.11344453290155 353.14250398142354L201.948742538697 109.1771642383031" stroke="#323232" stroke-width="1" fill="none" marker-end="url(#SvgjsMarker1148)"></path></g><g id="SvgjsG1150"><path id="SvgjsPath1151" d="M145.33105448245027 42.879168074925985L201.1653467203219 106.07517350169513" stroke-dasharray="8,5" stroke="#323232" stroke-width="1" fill="none" marker-end="url(#SvgjsMarker1152)"></path></g></svg>