<svg id="SvgjsSvg1006" width="626.0390625" height="316.5" xmlns="http://www.w3.org/2000/svg" version="1.1" xmlns:xlink="http://www.w3.org/1999/xlink" xmlns:svgjs="http://svgjs.com/svgjs"><defs id="SvgjsDefs1007"><marker id="SvgjsMarker1076" markerWidth="12" markerHeight="8" refX="9" refY="4" viewBox="0 0 12 8" orient="auto" markerUnits="userSpaceOnUse" stroke-dasharray="0,0"><path id="SvgjsPath1077" d="M0,0 L12,4 L0,8 L0,0" fill="#323232" stroke="#323232" stroke-width="1"></path></marker><marker id="SvgjsMarker1080" markerWidth="12" markerHeight="8" refX="9" refY="4" viewBox="0 0 12 8" orient="auto" markerUnits="userSpaceOnUse" stroke-dasharray="0,0"><path id="SvgjsPath1081" d="M0,0 L12,4 L0,8 L0,0" fill="#323232" stroke="#323232" stroke-width="1"></path></marker><marker id="SvgjsMarker1090" markerWidth="12" markerHeight="8" refX="9" refY="4" viewBox="0 0 12 8" orient="auto" markerUnits="userSpaceOnUse" stroke-dasharray="0,0"><path id="SvgjsPath1091" d="M0,0 L12,4 L0,8 L0,0" fill="#323232" stroke="#323232" stroke-width="1"></path></marker><marker id="SvgjsMarker1094" markerWidth="12" markerHeight="8" refX="9" refY="4" viewBox="0 0 12 8" orient="auto" markerUnits="userSpaceOnUse" stroke-dasharray="0,0"><path id="SvgjsPath1095" d="M0,0 L12,4 L0,8 L0,0" fill="#323232" stroke="#323232" stroke-width="1"></path></marker><marker id="SvgjsMarker1098" markerWidth="12" markerHeight="8" refX="9" refY="4" viewBox="0 0 12 8" orient="auto" markerUnits="userSpaceOnUse" stroke-dasharray="0,0"><path id="SvgjsPath1099" d="M0,0 L12,4 L0,8 L0,0" fill="#323232" stroke="#323232" stroke-width="1"></path></marker><marker id="SvgjsMarker1102" markerWidth="12" markerHeight="8" refX="9" refY="4" viewBox="0 0 12 8" orient="auto" markerUnits="userSpaceOnUse" stroke-dasharray="0,0"><path id="SvgjsPath1103" d="M0,0 L12,4 L0,8 L0,0" fill="#323232" stroke="#323232" stroke-width="1"></path></marker><marker id="SvgjsMarker1175" markerWidth="12" markerHeight="8" refX="9" refY="4" viewBox="0 0 12 8" orient="auto" markerUnits="userSpaceOnUse" stroke-dasharray="0,0"><path id="SvgjsPath1176" d="M0,0 L12,4 L0,8 L0,0" fill="#323232" stroke="#323232" stroke-width="1"></path></marker><marker id="SvgjsMarker1179" markerWidth="12" markerHeight="8" refX="9" refY="4" viewBox="0 0 12 8" orient="auto" markerUnits="userSpaceOnUse" stroke-dasharray="0,0"><path id="SvgjsPath1180" d="M0,0 L12,4 L0,8 L0,0" fill="#323232" stroke="#323232" stroke-width="1"></path></marker><marker id="SvgjsMarker1183" markerWidth="12" markerHeight="8" refX="9" refY="4" viewBox="0 0 12 8" orient="auto" markerUnits="userSpaceOnUse" stroke-dasharray="0,0"><path id="SvgjsPath1184" d="M0,0 L12,4 L0,8 L0,0" fill="#323232" stroke="#323232" stroke-width="1"></path></marker></defs><g id="SvgjsG1008" transform="translate(334.16927083333314,70.50520833333326)"><path id="SvgjsPath1009" d="M 0 4Q 0 0 4 0L 56 0Q 60 0 60 4L 60 41Q 60 45 56 45L 4 45Q 0 45 0 41L 0 4ZM 10 0L 10 45M 50 0L 50 45" stroke="rgba(50,50,50,1)" stroke-width="1" fill-opacity="1" fill="#ffffff"></path><g id="SvgjsG1010"><text id="SvgjsText1011" font-family="微软雅黑" text-anchor="middle" font-size="12px" width="40px" fill="#323232" font-weight="400" align="middle" lineHeight="125%" anchor="middle" family="微软雅黑" size="12px" weight="400" font-style="" opacity="1" y="12.5" transform="rotate(0)"></text></g></g><g id="SvgjsG1012" transform="translate(235.33593749999977,70.50520833333326)"><path id="SvgjsPath1013" d="M 0 4Q 0 0 4 0L 56 0Q 60 0 60 4L 60 41Q 60 45 56 45L 4 45Q 0 45 0 41L 0 4ZM 10 0L 10 45M 50 0L 50 45" stroke="rgba(50,50,50,1)" stroke-width="1" fill-opacity="1" fill="#ffffff"></path><g id="SvgjsG1014"><text id="SvgjsText1015" font-family="微软雅黑" text-anchor="middle" font-size="12px" width="40px" fill="#323232" font-weight="400" align="middle" lineHeight="125%" anchor="middle" family="微软雅黑" size="12px" weight="400" font-style="" opacity="1" y="12.5" transform="rotate(0)"></text></g></g><g id="SvgjsG1016" transform="translate(246.33593749999966,71.00520833333314)"><path id="SvgjsPath1017" d="M 0 0L 39 0L 39 44L 0 44Z" stroke="none" fill="none"></path><g id="SvgjsG1018"><text id="SvgjsText1019" font-family="&quot;Times New Roman&quot;" text-anchor="middle" font-size="12px" width="39px" fill="#000000" font-weight="400" align="middle" lineHeight="100%" anchor="middle" family="&quot;Times New Roman&quot;" size="12px" weight="400" font-style="" opacity="1" y="15" transform="rotate(0)"><tspan id="SvgjsTspan1020" dy="12" x="19.5"><tspan id="SvgjsTspan1021" style="text-decoration:;">Alice</tspan></tspan></text></g></g><g id="SvgjsG1022" transform="translate(285.33593749999966,70.50520833333326)"><path id="SvgjsPath1023" d="M 0 0L 60 0L 60 45L 0 45L 0 0ZM 10 0L 10 45M 50 0L 50 45" stroke="rgba(50,50,50,1)" stroke-width="1" fill-opacity="1" fill="#ffffff"></path><g id="SvgjsG1024"><text id="SvgjsText1025" font-family="微软雅黑" text-anchor="middle" font-size="12px" width="40px" fill="#323232" font-weight="400" align="middle" lineHeight="125%" anchor="middle" family="微软雅黑" size="12px" weight="400" font-style="" opacity="1" y="12.5" transform="rotate(0)"></text></g></g><g id="SvgjsG1026" transform="translate(296.00260416666663,71.00520833333337)"><path id="SvgjsPath1027" d="M 0 0L 39 0L 39 44L 0 44Z" stroke="none" fill="none"></path><g id="SvgjsG1028"><text id="SvgjsText1029" font-family="&quot;Times New Roman&quot;" text-anchor="middle" font-size="12px" width="39px" fill="#000000" font-weight="400" align="middle" lineHeight="100%" anchor="middle" family="&quot;Times New Roman&quot;" size="12px" weight="400" font-style="" opacity="1" y="15" transform="rotate(0)"><tspan id="SvgjsTspan1030" dy="12" x="19.5"><tspan id="SvgjsTspan1031" style="text-decoration:;">Woo</tspan></tspan></text></g></g><g id="SvgjsG1032" transform="translate(345.66927083333405,71.00520833333314)"><path id="SvgjsPath1033" d="M 0 0L 39 0L 39 44L 0 44Z" stroke="none" fill="none"></path><g id="SvgjsG1034"><text id="SvgjsText1035" font-family="&quot;Times New Roman&quot;" text-anchor="middle" font-size="12px" width="39px" fill="#000000" font-weight="400" align="middle" lineHeight="100%" anchor="middle" family="&quot;Times New Roman&quot;" size="12px" weight="400" font-style="" opacity="1" y="15" transform="rotate(0)"><tspan id="SvgjsTspan1036" dy="12" x="19.5"><tspan id="SvgjsTspan1037" style="text-decoration:;">Zark</tspan></tspan></text></g></g><g id="SvgjsG1038" transform="translate(235.33593749999977,25.005208333333258)"><path id="SvgjsPath1039" d="M 0 0L 160.3333333333337 0L 160.3333333333337 45L 0 45Z" stroke="none" fill="none"></path><g id="SvgjsG1040"><text id="SvgjsText1041" font-family="&quot;Times New Roman&quot;" text-anchor="middle" font-size="13px" width="161px" fill="#212121" font-weight="700" align="middle" lineHeight="125%" anchor="middle" family="&quot;Times New Roman&quot;" size="13px" weight="700" font-style="" opacity="1" y="11.375" transform="rotate(0)"><tspan id="SvgjsTspan1042" dy="16" x="80.5"><tspan id="SvgjsTspan1043" style="text-decoration:;">Secondary Index</tspan></tspan></text></g></g><g id="SvgjsG1044" transform="translate(334.16927083333314,160.50520833333326)"><path id="SvgjsPath1045" d="M 0 4Q 0 0 4 0L 56 0Q 60 0 60 4L 60 41Q 60 45 56 45L 4 45Q 0 45 0 41L 0 4ZM 10 0L 10 45M 50 0L 50 45" stroke="rgba(50,50,50,1)" stroke-width="1" fill-opacity="1" fill="#ffffff"></path><g id="SvgjsG1046"><text id="SvgjsText1047" font-family="微软雅黑" text-anchor="middle" font-size="12px" width="40px" fill="#323232" font-weight="400" align="middle" lineHeight="125%" anchor="middle" family="微软雅黑" size="12px" weight="400" font-style="" opacity="1" y="12.5" transform="rotate(0)"></text></g></g><g id="SvgjsG1048" transform="translate(235.33593749999977,160.50520833333326)"><path id="SvgjsPath1049" d="M 0 4Q 0 0 4 0L 56 0Q 60 0 60 4L 60 41Q 60 45 56 45L 4 45Q 0 45 0 41L 0 4ZM 10 0L 10 45M 50 0L 50 45" stroke="rgba(50,50,50,1)" stroke-width="1" fill-opacity="1" fill="#ffffff"></path><g id="SvgjsG1050"><text id="SvgjsText1051" font-family="微软雅黑" text-anchor="middle" font-size="12px" width="40px" fill="#323232" font-weight="400" align="middle" lineHeight="125%" anchor="middle" family="微软雅黑" size="12px" weight="400" font-style="" opacity="1" y="12.5" transform="rotate(0)"></text></g></g><g id="SvgjsG1052" transform="translate(246.33593749999966,161.00520833333314)"><path id="SvgjsPath1053" d="M 0 0L 39 0L 39 44L 0 44Z" stroke="none" fill="none"></path><g id="SvgjsG1054"><text id="SvgjsText1055" font-family="&quot;Times New Roman&quot;" text-anchor="middle" font-size="12px" width="39px" fill="#000000" font-weight="400" align="middle" lineHeight="100%" anchor="middle" family="&quot;Times New Roman&quot;" size="12px" weight="400" font-style="" opacity="1" y="15" transform="rotate(0)"><tspan id="SvgjsTspan1056" dy="12" x="19.5"><tspan id="SvgjsTspan1057" style="text-decoration:;">Alice</tspan></tspan></text></g></g><g id="SvgjsG1058" transform="translate(285.33593749999966,160.50520833333326)"><path id="SvgjsPath1059" d="M 0 0L 60 0L 60 45L 0 45L 0 0ZM 10 0L 10 45M 50 0L 50 45" stroke="rgba(50,50,50,1)" stroke-width="1" fill-opacity="1" fill="#ffffff"></path><g id="SvgjsG1060"><text id="SvgjsText1061" font-family="微软雅黑" text-anchor="middle" font-size="12px" width="40px" fill="#323232" font-weight="400" align="middle" lineHeight="125%" anchor="middle" family="微软雅黑" size="12px" weight="400" font-style="" opacity="1" y="12.5" transform="rotate(0)"></text></g></g><g id="SvgjsG1062" transform="translate(296.0026041666665,161.00520833333337)"><path id="SvgjsPath1063" d="M 0 0L 39 0L 39 44L 0 44Z" stroke="none" fill="none"></path><g id="SvgjsG1064"><text id="SvgjsText1065" font-family="&quot;Times New Roman&quot;" text-anchor="middle" font-size="12px" width="39px" fill="#000000" font-weight="400" align="middle" lineHeight="100%" anchor="middle" family="&quot;Times New Roman&quot;" size="12px" weight="400" font-style="" opacity="1" y="15" transform="rotate(0)"><tspan id="SvgjsTspan1066" dy="12" x="19.5"><tspan id="SvgjsTspan1067" style="text-decoration:;">Eric</tspan></tspan></text></g></g><g id="SvgjsG1068" transform="translate(345.66927083333394,161.00520833333314)"><path id="SvgjsPath1069" d="M 0 0L 39 0L 39 44L 0 44Z" stroke="none" fill="none"></path><g id="SvgjsG1070"><text id="SvgjsText1071" font-family="&quot;Times New Roman&quot;" text-anchor="middle" font-size="12px" width="39px" fill="#000000" font-weight="400" align="middle" lineHeight="100%" anchor="middle" family="&quot;Times New Roman&quot;" size="12px" weight="400" font-style="" opacity="1" y="15" transform="rotate(0)"><tspan id="SvgjsTspan1072" dy="12" x="19.5"><tspan id="SvgjsTspan1073" style="text-decoration:;">Rose</tspan></tspan></text></g></g><g id="SvgjsG1074"><path id="SvgjsPath1075" d="M237.62149221532388 115.43030690342982L106.70685588411675 159.9259621994969" stroke="#323232" stroke-width="1" fill="none" marker-end="url(#SvgjsMarker1076)"></path></g><g id="SvgjsG1078"><path id="SvgjsPath1079" d="M390.3381087503716 115.49015112260588L519.3391740396614 159.9190643586872" stroke="#323232" stroke-width="1" fill="none" marker-end="url(#SvgjsMarker1080)"></path></g><g id="SvgjsG1082" transform="translate(441.0410657051284,160.50520833333326)"><path id="SvgjsPath1083" d="M 0 4Q 0 0 4 0L 156 0Q 160 0 160 4L 160 41Q 160 45 156 45L 4 45Q 0 45 0 41Z" stroke="rgba(50,50,50,1)" stroke-width="1" fill-opacity="1" fill="#ffffff"></path><g id="SvgjsG1084"><text id="SvgjsText1085" font-family="微软雅黑" text-anchor="middle" font-size="13px" width="140px" fill="#323232" font-weight="400" align="middle" lineHeight="125%" anchor="middle" family="微软雅黑" size="13px" weight="400" font-style="" opacity="1" y="11.375" transform="rotate(0)"><tspan id="SvgjsTspan1086" dy="16" x="80"><tspan id="SvgjsTspan1087" style="text-decoration:;">···</tspan></tspan></text></g></g><g id="SvgjsG1088"><path id="SvgjsPath1089" d="M290.82780954753093 115.14722673001538L266.217829707836 158.93604736843588" stroke="#323232" stroke-width="1" fill="none" marker-end="url(#SvgjsMarker1090)"></path></g><g id="SvgjsG1092"><path id="SvgjsPath1093" d="M291.21063336038856 205.73925262117922C 291.3359375 255.06052933420642 175.33593749999972 200.6998873324602 175.78703240260086 248.76264889708807" stroke="#323232" stroke-width="1" fill="none" marker-end="url(#SvgjsMarker1094)"></path></g><g id="SvgjsG1096"><path id="SvgjsPath1097" d="M339.9908454398633 205.4673072316146L339.9908454398633 248.70520833333325" stroke="#323232" stroke-width="1" fill="none" marker-end="url(#SvgjsMarker1098)"></path></g><g id="SvgjsG1100"><path id="SvgjsPath1101" d="M385.7755408168331 205.39662077290484C 389.9376989422666 254.37689820235016 501.0410657051284 200.8638215350099 500.6050483804096 248.75881522393757" stroke="#323232" stroke-width="1" fill="none" marker-end="url(#SvgjsMarker1102)"></path></g><g id="SvgjsG1104" transform="translate(25.002604166665492,160.50520833333326)"><path id="SvgjsPath1105" d="M 0 4Q 0 0 4 0L 156 0Q 160 0 160 4L 160 41Q 160 45 156 45L 4 45Q 0 45 0 41Z" stroke="rgba(50,50,50,1)" stroke-width="1" fill-opacity="1" fill="#ffffff"></path><g id="SvgjsG1106"><text id="SvgjsText1107" font-family="微软雅黑" text-anchor="middle" font-size="13px" width="140px" fill="#323232" font-weight="400" align="middle" lineHeight="125%" anchor="middle" family="微软雅黑" size="13px" weight="400" font-style="" opacity="1" y="11.375" transform="rotate(0)"><tspan id="SvgjsTspan1108" dy="16" x="80"><tspan id="SvgjsTspan1109" style="text-decoration:;">···</tspan></tspan></text></g></g><g id="SvgjsG1110" transform="translate(115.33593749999972,250.50520833333331)"><path id="SvgjsPath1111" d="M0 0L60 0L60 19.967563599999988 L0 19.967563599999988Z" stroke="rgba(33,33,33,1)" stroke-width="1" fill-opacity="1" fill="#bbdefb"></path><path id="SvgjsPath1112" d="M60 0L120 0L120 19.967563599999988 L60 19.967563599999988Z" stroke="rgba(33,33,33,1)" stroke-width="1" fill-opacity="1" fill="#bbdefb"></path><path id="SvgjsPath1113" d="M0 19.967563599999988L60 19.967563599999988L60 40.891999999999975 L0 40.891999999999975Z" stroke="rgba(33,33,33,1)" stroke-width="1" fill-opacity="1" fill="#ffffff"></path><path id="SvgjsPath1114" d="M60 19.967563599999988L120 19.967563599999988L120 40.891999999999975 L60 40.891999999999975Z" stroke="rgba(33,33,33,1)" stroke-width="1" fill-opacity="1" fill="#ffffff"></path><g id="SvgjsG1115"><text id="SvgjsText1116" font-family="&quot;Times New Roman&quot;" text-anchor="middle" font-size="12px" width="60px" fill="#212121" font-weight="400" align="middle" lineHeight="125%" anchor="middle" family="&quot;Times New Roman&quot;" size="12px" weight="400" font-style="" opacity="1" y="-0.016218200000006178" transform="rotate(0)"><tspan id="SvgjsTspan1117" dy="15" x="30"><tspan id="SvgjsTspan1118" style="text-decoration:;">Alice</tspan></tspan></text></g><g id="SvgjsG1119"><text id="SvgjsText1120" font-family="&quot;Times New Roman&quot;" text-anchor="middle" font-size="12px" width="60px" fill="#212121" font-weight="400" align="middle" lineHeight="125%" anchor="middle" family="&quot;Times New Roman&quot;" size="12px" weight="400" font-style="" opacity="1" y="-0.016218200000006178" transform="rotate(0)"><tspan id="SvgjsTspan1121" dy="15" x="90"><tspan id="SvgjsTspan1122" style="text-decoration:;">Bob</tspan></tspan></text></g><g id="SvgjsG1123"><text id="SvgjsText1124" font-family="&quot;Times New Roman&quot;" text-anchor="middle" font-size="12px" width="60px" fill="#212121" font-weight="400" align="middle" lineHeight="125%" anchor="middle" family="&quot;Times New Roman&quot;" size="12px" weight="400" font-style="" opacity="1" y="20.42978179999998" transform="rotate(0)"><tspan id="SvgjsTspan1125" dy="15" x="30"><tspan id="SvgjsTspan1126" style="text-decoration:;">18</tspan></tspan></text></g><g id="SvgjsG1127"><text id="SvgjsText1128" font-family="&quot;Times New Roman&quot;" text-anchor="middle" font-size="12px" width="60px" fill="#212121" font-weight="400" align="middle" lineHeight="125%" anchor="middle" family="&quot;Times New Roman&quot;" size="12px" weight="400" font-style="" opacity="1" y="20.42978179999998" transform="rotate(0)"><tspan id="SvgjsTspan1129" dy="15" x="90"><tspan id="SvgjsTspan1130" style="text-decoration:;">15</tspan></tspan></text></g></g><g id="SvgjsG1131" transform="translate(280.16927083333303,250.50520833333326)"><path id="SvgjsPath1132" d="M0 0L60 0L60 19.967563599999988 L0 19.967563599999988Z" stroke="rgba(33,33,33,1)" stroke-width="1" fill-opacity="1" fill="#bbdefb"></path><path id="SvgjsPath1133" d="M60 0L120 0L120 19.967563599999988 L60 19.967563599999988Z" stroke="rgba(33,33,33,1)" stroke-width="1" fill-opacity="1" fill="#bbdefb"></path><path id="SvgjsPath1134" d="M0 19.967563599999988L60 19.967563599999988L60 40.891999999999975 L0 40.891999999999975Z" stroke="rgba(33,33,33,1)" stroke-width="1" fill-opacity="1" fill="#ffffff"></path><path id="SvgjsPath1135" d="M60 19.967563599999988L120 19.967563599999988L120 40.891999999999975 L60 40.891999999999975Z" stroke="rgba(33,33,33,1)" stroke-width="1" fill-opacity="1" fill="#ffffff"></path><g id="SvgjsG1136"><text id="SvgjsText1137" font-family="&quot;Times New Roman&quot;" text-anchor="middle" font-size="12px" width="60px" fill="#212121" font-weight="400" align="middle" lineHeight="125%" anchor="middle" family="&quot;Times New Roman&quot;" size="12px" weight="400" font-style="" opacity="1" y="-0.016218200000006178" transform="rotate(0)"><tspan id="SvgjsTspan1138" dy="15" x="30"><tspan id="SvgjsTspan1139" style="text-decoration:;">Eric</tspan></tspan></text></g><g id="SvgjsG1140"><text id="SvgjsText1141" font-family="&quot;Times New Roman&quot;" text-anchor="middle" font-size="12px" width="60px" fill="#212121" font-weight="400" align="middle" lineHeight="125%" anchor="middle" family="&quot;Times New Roman&quot;" size="12px" weight="400" font-style="" opacity="1" y="-0.016218200000006178" transform="rotate(0)"><tspan id="SvgjsTspan1142" dy="15" x="90"><tspan id="SvgjsTspan1143" style="text-decoration:;">Jack</tspan></tspan></text></g><g id="SvgjsG1144"><text id="SvgjsText1145" font-family="&quot;Times New Roman&quot;" text-anchor="middle" font-size="12px" width="60px" fill="#212121" font-weight="400" align="middle" lineHeight="125%" anchor="middle" family="&quot;Times New Roman&quot;" size="12px" weight="400" font-style="" opacity="1" y="20.42978179999998" transform="rotate(0)"><tspan id="SvgjsTspan1146" dy="15" x="30"><tspan id="SvgjsTspan1147" style="text-decoration:;">30</tspan></tspan></text></g><g id="SvgjsG1148"><text id="SvgjsText1149" font-family="&quot;Times New Roman&quot;" text-anchor="middle" font-size="12px" width="60px" fill="#212121" font-weight="400" align="middle" lineHeight="125%" anchor="middle" family="&quot;Times New Roman&quot;" size="12px" weight="400" font-style="" opacity="1" y="20.42978179999998" transform="rotate(0)"><tspan id="SvgjsTspan1150" dy="15" x="90"><tspan id="SvgjsTspan1151" style="text-decoration:;">20</tspan></tspan></text></g></g><g id="SvgjsG1152" transform="translate(441.0410657051284,250.50520833333331)"><path id="SvgjsPath1153" d="M0 0L60 0L60 19.967563599999988 L0 19.967563599999988Z" stroke="rgba(33,33,33,1)" stroke-width="1" fill-opacity="1" fill="#bbdefb"></path><path id="SvgjsPath1154" d="M60 0L120 0L120 19.967563599999988 L60 19.967563599999988Z" stroke="rgba(33,33,33,1)" stroke-width="1" fill-opacity="1" fill="#bbdefb"></path><path id="SvgjsPath1155" d="M0 19.967563599999988L60 19.967563599999988L60 40.891999999999975 L0 40.891999999999975Z" stroke="rgba(33,33,33,1)" stroke-width="1" fill-opacity="1" fill="#ffffff"></path><path id="SvgjsPath1156" d="M60 19.967563599999988L120 19.967563599999988L120 40.891999999999975 L60 40.891999999999975Z" stroke="rgba(33,33,33,1)" stroke-width="1" fill-opacity="1" fill="#ffffff"></path><g id="SvgjsG1157"><text id="SvgjsText1158" font-family="&quot;Times New Roman&quot;" text-anchor="middle" font-size="12px" width="60px" fill="#212121" font-weight="400" align="middle" lineHeight="125%" anchor="middle" family="&quot;Times New Roman&quot;" size="12px" weight="400" font-style="" opacity="1" y="-0.016218200000006178" transform="rotate(0)"><tspan id="SvgjsTspan1159" dy="15" x="30"><tspan id="SvgjsTspan1160" style="text-decoration:;">Rose</tspan></tspan></text></g><g id="SvgjsG1161"><text id="SvgjsText1162" font-family="&quot;Times New Roman&quot;" text-anchor="middle" font-size="12px" width="60px" fill="#212121" font-weight="400" align="middle" lineHeight="125%" anchor="middle" family="&quot;Times New Roman&quot;" size="12px" weight="400" font-style="" opacity="1" y="-0.016218200000006178" transform="rotate(0)"><tspan id="SvgjsTspan1163" dy="15" x="90"><tspan id="SvgjsTspan1164" style="text-decoration:;">Tom</tspan></tspan></text></g><g id="SvgjsG1165"><text id="SvgjsText1166" font-family="&quot;Times New Roman&quot;" text-anchor="middle" font-size="12px" width="60px" fill="#212121" font-weight="400" align="middle" lineHeight="125%" anchor="middle" family="&quot;Times New Roman&quot;" size="12px" weight="400" font-style="" opacity="1" y="20.42978179999998" transform="rotate(0)"><tspan id="SvgjsTspan1167" dy="15" x="30"><tspan id="SvgjsTspan1168" style="text-decoration:;">50</tspan></tspan></text></g><g id="SvgjsG1169"><text id="SvgjsText1170" font-family="&quot;Times New Roman&quot;" text-anchor="middle" font-size="12px" width="60px" fill="#212121" font-weight="400" align="middle" lineHeight="125%" anchor="middle" family="&quot;Times New Roman&quot;" size="12px" weight="400" font-style="" opacity="1" y="20.42978179999998" transform="rotate(0)"><tspan id="SvgjsTspan1171" dy="15" x="90"><tspan id="SvgjsTspan1172" style="text-decoration:;">20</tspan></tspan></text></g></g><g id="SvgjsG1173"><path id="SvgjsPath1174" d="M235.83593749999972 270.9512083333333L257.7526041666664 270.9512083333333L257.7526041666664 270.9512083333333L278.3692708333331 270.9512083333333" stroke="#323232" stroke-width="1" fill="none" marker-end="url(#SvgjsMarker1175)"></path></g><g id="SvgjsG1177"><path id="SvgjsPath1178" d="M400.66927083333303 270.9512083333332L420.6051682692307 270.9512083333332L420.6051682692307 270.9512083333332L439.24106570512845 270.9512083333332" stroke="#323232" stroke-width="1" fill="none" marker-end="url(#SvgjsMarker1179)"></path></g><g id="SvgjsG1181"><path id="SvgjsPath1182" d="M561.5410657051284 270.9512083333333L579.6885016025642 270.9512083333333L579.6885016025642 270.9512083333333L598.3359375 270.9512083333333" stroke="#323232" stroke-width="1" fill="none" marker-end="url(#SvgjsMarker1183)"></path></g></svg>