<svg id="SvgjsSvg1006" width="617.625" height="335.5" xmlns="http://www.w3.org/2000/svg" version="1.1" xmlns:xlink="http://www.w3.org/1999/xlink" xmlns:svgjs="http://svgjs.com/svgjs"><defs id="SvgjsDefs1007"><marker id="SvgjsMarker1106" markerWidth="12" markerHeight="8" refX="9" refY="4" viewBox="0 0 12 8" orient="auto" markerUnits="userSpaceOnUse" stroke-dasharray="0,0"><path id="SvgjsPath1107" d="M0,0 L12,4 L0,8 L0,0" fill="#323232" stroke="#323232" stroke-width="1"></path></marker><marker id="SvgjsMarker1110" markerWidth="12" markerHeight="8" refX="9" refY="4" viewBox="0 0 12 8" orient="auto" markerUnits="userSpaceOnUse" stroke-dasharray="0,0"><path id="SvgjsPath1111" d="M0,0 L12,4 L0,8 L0,0" fill="#323232" stroke="#323232" stroke-width="1"></path></marker><marker id="SvgjsMarker1120" markerWidth="12" markerHeight="8" refX="9" refY="4" viewBox="0 0 12 8" orient="auto" markerUnits="userSpaceOnUse" stroke-dasharray="0,0"><path id="SvgjsPath1121" d="M0,0 L12,4 L0,8 L0,0" fill="#323232" stroke="#323232" stroke-width="1"></path></marker><marker id="SvgjsMarker1186" markerWidth="12" markerHeight="8" refX="9" refY="4" viewBox="0 0 12 8" orient="auto" markerUnits="userSpaceOnUse" stroke-dasharray="0,0"><path id="SvgjsPath1187" d="M0,0 L12,4 L0,8 L0,0" fill="#323232" stroke="#323232" stroke-width="1"></path></marker><marker id="SvgjsMarker1190" markerWidth="12" markerHeight="8" refX="9" refY="4" viewBox="0 0 12 8" orient="auto" markerUnits="userSpaceOnUse" stroke-dasharray="0,0"><path id="SvgjsPath1191" d="M0,0 L12,4 L0,8 L0,0" fill="#323232" stroke="#323232" stroke-width="1"></path></marker><marker id="SvgjsMarker1225" markerWidth="12" markerHeight="8" refX="9" refY="4" viewBox="0 0 12 8" orient="auto" markerUnits="userSpaceOnUse" stroke-dasharray="0,0"><path id="SvgjsPath1226" d="M0,0 L12,4 L0,8 L0,0" fill="#323232" stroke="#323232" stroke-width="1"></path></marker><marker id="SvgjsMarker1229" markerWidth="12" markerHeight="8" refX="9" refY="4" viewBox="0 0 12 8" orient="auto" markerUnits="userSpaceOnUse" stroke-dasharray="0,0"><path id="SvgjsPath1230" d="M0,0 L12,4 L0,8 L0,0" fill="#323232" stroke="#323232" stroke-width="1"></path></marker><marker id="SvgjsMarker1233" markerWidth="12" markerHeight="8" refX="9" refY="4" viewBox="0 0 12 8" orient="auto" markerUnits="userSpaceOnUse" stroke-dasharray="0,0"><path id="SvgjsPath1234" d="M0,0 L12,4 L0,8 L0,0" fill="#323232" stroke="#323232" stroke-width="1"></path></marker><marker id="SvgjsMarker1237" markerWidth="12" markerHeight="8" refX="9" refY="4" viewBox="0 0 12 8" orient="auto" markerUnits="userSpaceOnUse" stroke-dasharray="0,0"><path id="SvgjsPath1238" d="M0,0 L12,4 L0,8 L0,0" fill="#323232" stroke="#323232" stroke-width="1"></path></marker></defs><g id="SvgjsG1008" transform="translate(325.75520833333314,70.50520833333326)"><path id="SvgjsPath1009" d="M 0 4Q 0 0 4 0L 56 0Q 60 0 60 4L 60 41Q 60 45 56 45L 4 45Q 0 45 0 41L 0 4ZM 10 0L 10 45M 50 0L 50 45" stroke="rgba(50,50,50,1)" stroke-width="1" fill-opacity="1" fill="#ffffff"></path><g id="SvgjsG1010"><text id="SvgjsText1011" font-family="微软雅黑" text-anchor="middle" font-size="12px" width="40px" fill="#323232" font-weight="400" align="middle" lineHeight="125%" anchor="middle" family="微软雅黑" size="12px" weight="400" font-style="" opacity="1" y="12.5" transform="rotate(0)"></text></g></g><g id="SvgjsG1012" transform="translate(226.92187499999977,70.50520833333326)"><path id="SvgjsPath1013" d="M 0 4Q 0 0 4 0L 56 0Q 60 0 60 4L 60 41Q 60 45 56 45L 4 45Q 0 45 0 41L 0 4ZM 10 0L 10 45M 50 0L 50 45" stroke="rgba(50,50,50,1)" stroke-width="1" fill-opacity="1" fill="#ffffff"></path><g id="SvgjsG1014"><text id="SvgjsText1015" font-family="微软雅黑" text-anchor="middle" font-size="12px" width="40px" fill="#323232" font-weight="400" align="middle" lineHeight="125%" anchor="middle" family="微软雅黑" size="12px" weight="400" font-style="" opacity="1" y="12.5" transform="rotate(0)"></text></g></g><g id="SvgjsG1016" transform="translate(237.92187499999966,71.00520833333314)"><path id="SvgjsPath1017" d="M 0 0L 39 0L 39 44L 0 44Z" stroke="none" fill="none"></path><g id="SvgjsG1018"><text id="SvgjsText1019" font-family="&quot;Times New Roman&quot;" text-anchor="middle" font-size="12px" width="39px" fill="#000000" font-weight="400" align="middle" lineHeight="100%" anchor="middle" family="&quot;Times New Roman&quot;" size="12px" weight="400" font-style="" opacity="1" y="15" transform="rotate(0)"><tspan id="SvgjsTspan1020" dy="12" x="19.5"><tspan id="SvgjsTspan1021" style="text-decoration:;">15</tspan></tspan></text></g></g><g id="SvgjsG1022" transform="translate(276.92187499999966,70.50520833333326)"><path id="SvgjsPath1023" d="M 0 0L 60 0L 60 45L 0 45L 0 0ZM 10 0L 10 45M 50 0L 50 45" stroke="rgba(50,50,50,1)" stroke-width="1" fill-opacity="1" fill="#ffffff"></path><g id="SvgjsG1024"><text id="SvgjsText1025" font-family="微软雅黑" text-anchor="middle" font-size="12px" width="40px" fill="#323232" font-weight="400" align="middle" lineHeight="125%" anchor="middle" family="微软雅黑" size="12px" weight="400" font-style="" opacity="1" y="12.5" transform="rotate(0)"></text></g></g><g id="SvgjsG1026" transform="translate(287.58854166666663,71.00520833333337)"><path id="SvgjsPath1027" d="M 0 0L 39 0L 39 44L 0 44Z" stroke="none" fill="none"></path><g id="SvgjsG1028"><text id="SvgjsText1029" font-family="&quot;Times New Roman&quot;" text-anchor="middle" font-size="12px" width="39px" fill="#000000" font-weight="400" align="middle" lineHeight="100%" anchor="middle" family="&quot;Times New Roman&quot;" size="12px" weight="400" font-style="" opacity="1" y="15" transform="rotate(0)"><tspan id="SvgjsTspan1030" dy="12" x="19.5"><tspan id="SvgjsTspan1031" style="text-decoration:;">56</tspan></tspan></text></g></g><g id="SvgjsG1032" transform="translate(337.25520833333405,71.00520833333314)"><path id="SvgjsPath1033" d="M 0 0L 39 0L 39 44L 0 44Z" stroke="none" fill="none"></path><g id="SvgjsG1034"><text id="SvgjsText1035" font-family="&quot;Times New Roman&quot;" text-anchor="middle" font-size="12px" width="39px" fill="#000000" font-weight="400" align="middle" lineHeight="100%" anchor="middle" family="&quot;Times New Roman&quot;" size="12px" weight="400" font-style="" opacity="1" y="15" transform="rotate(0)"><tspan id="SvgjsTspan1036" dy="12" x="19.5"><tspan id="SvgjsTspan1037" style="text-decoration:;">77</tspan></tspan></text></g></g><g id="SvgjsG1038" transform="translate(226.92187499999977,25.005208333333258)"><path id="SvgjsPath1039" d="M 0 0L 160.3333333333337 0L 160.3333333333337 45L 0 45Z" stroke="none" fill="none"></path><g id="SvgjsG1040"><text id="SvgjsText1041" font-family="&quot;Times New Roman&quot;" text-anchor="middle" font-size="13px" width="161px" fill="#212121" font-weight="700" align="middle" lineHeight="125%" anchor="middle" family="&quot;Times New Roman&quot;" size="13px" weight="700" font-style="" opacity="1" y="11.375" transform="rotate(0)"><tspan id="SvgjsTspan1042" dy="16" x="80.5"><tspan id="SvgjsTspan1043" style="text-decoration:;">Primary Index</tspan></tspan></text></g></g><g id="SvgjsG1044" transform="translate(325.75520833333314,160.50520833333326)"><path id="SvgjsPath1045" d="M 0 4Q 0 0 4 0L 56 0Q 60 0 60 4L 60 41Q 60 45 56 45L 4 45Q 0 45 0 41L 0 4ZM 10 0L 10 45M 50 0L 50 45" stroke="rgba(50,50,50,1)" stroke-width="1" fill-opacity="1" fill="#ffffff"></path><g id="SvgjsG1046"><text id="SvgjsText1047" font-family="微软雅黑" text-anchor="middle" font-size="12px" width="40px" fill="#323232" font-weight="400" align="middle" lineHeight="125%" anchor="middle" family="微软雅黑" size="12px" weight="400" font-style="" opacity="1" y="12.5" transform="rotate(0)"></text></g></g><g id="SvgjsG1048" transform="translate(226.92187499999977,160.50520833333326)"><path id="SvgjsPath1049" d="M 0 4Q 0 0 4 0L 56 0Q 60 0 60 4L 60 41Q 60 45 56 45L 4 45Q 0 45 0 41L 0 4ZM 10 0L 10 45M 50 0L 50 45" stroke="rgba(50,50,50,1)" stroke-width="1" fill-opacity="1" fill="#ffffff"></path><g id="SvgjsG1050"><text id="SvgjsText1051" font-family="微软雅黑" text-anchor="middle" font-size="12px" width="40px" fill="#323232" font-weight="400" align="middle" lineHeight="125%" anchor="middle" family="微软雅黑" size="12px" weight="400" font-style="" opacity="1" y="12.5" transform="rotate(0)"></text></g></g><g id="SvgjsG1052" transform="translate(237.92187499999966,161.00520833333314)"><path id="SvgjsPath1053" d="M 0 0L 39 0L 39 44L 0 44Z" stroke="none" fill="none"></path><g id="SvgjsG1054"><text id="SvgjsText1055" font-family="&quot;Times New Roman&quot;" text-anchor="middle" font-size="12px" width="39px" fill="#000000" font-weight="400" align="middle" lineHeight="100%" anchor="middle" family="&quot;Times New Roman&quot;" size="12px" weight="400" font-style="" opacity="1" y="15" transform="rotate(0)"><tspan id="SvgjsTspan1056" dy="12" x="19.5"><tspan id="SvgjsTspan1057" style="text-decoration:;">15</tspan></tspan></text></g></g><g id="SvgjsG1058" transform="translate(276.92187499999966,160.50520833333326)"><path id="SvgjsPath1059" d="M 0 0L 60 0L 60 45L 0 45L 0 0ZM 10 0L 10 45M 50 0L 50 45" stroke="rgba(50,50,50,1)" stroke-width="1" fill-opacity="1" fill="#ffffff"></path><g id="SvgjsG1060"><text id="SvgjsText1061" font-family="微软雅黑" text-anchor="middle" font-size="12px" width="40px" fill="#323232" font-weight="400" align="middle" lineHeight="125%" anchor="middle" family="微软雅黑" size="12px" weight="400" font-style="" opacity="1" y="12.5" transform="rotate(0)"></text></g></g><g id="SvgjsG1062" transform="translate(287.58854166666663,161.00520833333337)"><path id="SvgjsPath1063" d="M 0 0L 39 0L 39 44L 0 44Z" stroke="none" fill="none"></path><g id="SvgjsG1064"><text id="SvgjsText1065" font-family="&quot;Times New Roman&quot;" text-anchor="middle" font-size="12px" width="39px" fill="#000000" font-weight="400" align="middle" lineHeight="100%" anchor="middle" family="&quot;Times New Roman&quot;" size="12px" weight="400" font-style="" opacity="1" y="15" transform="rotate(0)"><tspan id="SvgjsTspan1066" dy="12" x="19.5"><tspan id="SvgjsTspan1067" style="text-decoration:;">20</tspan></tspan></text></g></g><g id="SvgjsG1068" transform="translate(337.25520833333405,161.00520833333314)"><path id="SvgjsPath1069" d="M 0 0L 39 0L 39 44L 0 44Z" stroke="none" fill="none"></path><g id="SvgjsG1070"><text id="SvgjsText1071" font-family="&quot;Times New Roman&quot;" text-anchor="middle" font-size="12px" width="39px" fill="#000000" font-weight="400" align="middle" lineHeight="100%" anchor="middle" family="&quot;Times New Roman&quot;" size="12px" weight="400" font-style="" opacity="1" y="15" transform="rotate(0)"><tspan id="SvgjsTspan1072" dy="12" x="19.5"><tspan id="SvgjsTspan1073" style="text-decoration:;">49</tspan></tspan></text></g></g><g id="SvgjsG1074" transform="translate(123.8385416666668,160.50520833333326)"><path id="SvgjsPath1075" d="M 0 4Q 0 0 4 0L 56 0Q 60 0 60 4L 60 41Q 60 45 56 45L 4 45Q 0 45 0 41L 0 4ZM 10 0L 10 45M 50 0L 50 45" stroke="rgba(50,50,50,1)" stroke-width="1" fill-opacity="1" fill="#ffffff"></path><g id="SvgjsG1076"><text id="SvgjsText1077" font-family="微软雅黑" text-anchor="middle" font-size="12px" width="40px" fill="#323232" font-weight="400" align="middle" lineHeight="125%" anchor="middle" family="微软雅黑" size="12px" weight="400" font-style="" opacity="1" y="12.5" transform="rotate(0)"></text></g></g><g id="SvgjsG1078" transform="translate(25.005208333333428,160.50520833333326)"><path id="SvgjsPath1079" d="M 0 4Q 0 0 4 0L 56 0Q 60 0 60 4L 60 41Q 60 45 56 45L 4 45Q 0 45 0 41L 0 4ZM 10 0L 10 45M 50 0L 50 45" stroke="rgba(50,50,50,1)" stroke-width="1" fill-opacity="1" fill="#ffffff"></path><g id="SvgjsG1080"><text id="SvgjsText1081" font-family="微软雅黑" text-anchor="middle" font-size="12px" width="40px" fill="#323232" font-weight="400" align="middle" lineHeight="125%" anchor="middle" family="微软雅黑" size="12px" weight="400" font-style="" opacity="1" y="12.5" transform="rotate(0)"></text></g></g><g id="SvgjsG1082" transform="translate(36.005208333333314,161.00520833333314)"><path id="SvgjsPath1083" d="M 0 0L 39 0L 39 44L 0 44Z" stroke="none" fill="none"></path><g id="SvgjsG1084"><text id="SvgjsText1085" font-family="&quot;Times New Roman&quot;" text-anchor="middle" font-size="12px" width="39px" fill="#000000" font-weight="400" align="middle" lineHeight="100%" anchor="middle" family="&quot;Times New Roman&quot;" size="12px" weight="400" font-style="" opacity="1" y="15" transform="rotate(0)"><tspan id="SvgjsTspan1086" dy="12" x="19.5"><tspan id="SvgjsTspan1087" style="text-decoration:;">3</tspan></tspan></text></g></g><g id="SvgjsG1088" transform="translate(75.00520833333331,160.50520833333326)"><path id="SvgjsPath1089" d="M 0 0L 60 0L 60 45L 0 45L 0 0ZM 10 0L 10 45M 50 0L 50 45" stroke="rgba(50,50,50,1)" stroke-width="1" fill-opacity="1" fill="#ffffff"></path><g id="SvgjsG1090"><text id="SvgjsText1091" font-family="微软雅黑" text-anchor="middle" font-size="12px" width="40px" fill="#323232" font-weight="400" align="middle" lineHeight="125%" anchor="middle" family="微软雅黑" size="12px" weight="400" font-style="" opacity="1" y="12.5" transform="rotate(0)"></text></g></g><g id="SvgjsG1092" transform="translate(85.67187500000028,161.00520833333337)"><path id="SvgjsPath1093" d="M 0 0L 39 0L 39 44L 0 44Z" stroke="none" fill="none"></path><g id="SvgjsG1094"><text id="SvgjsText1095" font-family="&quot;Times New Roman&quot;" text-anchor="middle" font-size="12px" width="39px" fill="#000000" font-weight="400" align="middle" lineHeight="100%" anchor="middle" family="&quot;Times New Roman&quot;" size="12px" weight="400" font-style="" opacity="1" y="15" transform="rotate(0)"><tspan id="SvgjsTspan1096" dy="12" x="19.5"><tspan id="SvgjsTspan1097" style="text-decoration:;">8</tspan></tspan></text></g></g><g id="SvgjsG1098" transform="translate(135.3385416666677,161.00520833333314)"><path id="SvgjsPath1099" d="M 0 0L 39 0L 39 44L 0 44Z" stroke="none" fill="none"></path><g id="SvgjsG1100"><text id="SvgjsText1101" font-family="&quot;Times New Roman&quot;" text-anchor="middle" font-size="12px" width="39px" fill="#000000" font-weight="400" align="middle" lineHeight="100%" anchor="middle" family="&quot;Times New Roman&quot;" size="12px" weight="400" font-style="" opacity="1" y="15" transform="rotate(0)"><tspan id="SvgjsTspan1102" dy="12" x="19.5"><tspan id="SvgjsTspan1103" style="text-decoration:;">12</tspan></tspan></text></g></g><g id="SvgjsG1104"><path id="SvgjsPath1105" d="M229.19680056402535 115.3947552287064L56.74772499545952 160.05394822850127" stroke="#323232" stroke-width="1" fill="none" marker-end="url(#SvgjsMarker1106)"></path></g><g id="SvgjsG1108"><path id="SvgjsPath1109" d="M381.88819369388034 115.5704848413063L462.6270032051283 160.50520833333326" stroke="#323232" stroke-width="1" fill="none" marker-end="url(#SvgjsMarker1110)"></path></g><g id="SvgjsG1112" transform="translate(432.6270032051284,160.50520833333326)"><path id="SvgjsPath1113" d="M 0 4Q 0 0 4 0L 156 0Q 160 0 160 4L 160 41Q 160 45 156 45L 4 45Q 0 45 0 41Z" stroke="rgba(50,50,50,1)" stroke-width="1" fill-opacity="1" fill="#ffffff"></path><g id="SvgjsG1114"><text id="SvgjsText1115" font-family="微软雅黑" text-anchor="middle" font-size="13px" width="140px" fill="#323232" font-weight="400" align="middle" lineHeight="125%" anchor="middle" family="微软雅黑" size="13px" weight="400" font-style="" opacity="1" y="11.375" transform="rotate(0)"><tspan id="SvgjsTspan1116" dy="16" x="80"><tspan id="SvgjsTspan1117" style="text-decoration:;">···</tspan></tspan></text></g></g><g id="SvgjsG1118"><path id="SvgjsPath1119" d="M282.41374704753093 115.14722673001538L257.803767207836 158.93604736843588" stroke="#323232" stroke-width="1" fill="none" marker-end="url(#SvgjsMarker1120)"></path></g><g id="SvgjsG1122" transform="translate(106.92187499999972,250.5052083333332)"><path id="SvgjsPath1123" d="M0 0L60 0L60 19.997999999999998 L0 19.997999999999998Z" stroke="rgba(33,33,33,1)" stroke-width="1" fill-opacity="1" fill="#bbdefb"></path><path id="SvgjsPath1124" d="M60 0L120 0L120 19.997999999999998 L60 19.997999999999998Z" stroke="rgba(33,33,33,1)" stroke-width="1" fill-opacity="1" fill="#bbdefb"></path><path id="SvgjsPath1125" d="M0 19.997999999999998L60 19.997999999999998L60 39.995999999999995 L0 39.995999999999995Z" stroke="rgba(33,33,33,1)" stroke-width="1" fill-opacity="1" fill="#ffffff"></path><path id="SvgjsPath1126" d="M60 19.997999999999998L120 19.997999999999998L120 39.995999999999995 L60 39.995999999999995Z" stroke="rgba(33,33,33,1)" stroke-width="1" fill-opacity="1" fill="#ffffff"></path><path id="SvgjsPath1127" d="M0 40.001999999999995L60 40.001999999999995L60 60 L0 60Z" stroke="rgba(33,33,33,1)" stroke-width="1" fill-opacity="1" fill="#ffffff"></path><path id="SvgjsPath1128" d="M60 40.001999999999995L120 40.001999999999995L120 60 L60 60Z" stroke="rgba(33,33,33,1)" stroke-width="1" fill-opacity="1" fill="#ffffff"></path><g id="SvgjsG1129"><text id="SvgjsText1130" font-family="&quot;Times New Roman&quot;" text-anchor="middle" font-size="12px" width="60px" fill="#212121" font-weight="400" align="middle" lineHeight="125%" anchor="middle" family="&quot;Times New Roman&quot;" size="12px" weight="400" font-style="" opacity="1" y="-0.0010000000000012221" transform="rotate(0)"><tspan id="SvgjsTspan1131" dy="15" x="30"><tspan id="SvgjsTspan1132" style="text-decoration:;">15</tspan></tspan></text></g><g id="SvgjsG1133"><text id="SvgjsText1134" font-family="&quot;Times New Roman&quot;" text-anchor="middle" font-size="12px" width="60px" fill="#212121" font-weight="400" align="middle" lineHeight="125%" anchor="middle" family="&quot;Times New Roman&quot;" size="12px" weight="400" font-style="" opacity="1" y="-0.0010000000000012221" transform="rotate(0)"><tspan id="SvgjsTspan1135" dy="15" x="90"><tspan id="SvgjsTspan1136" style="text-decoration:;">18</tspan></tspan></text></g><g id="SvgjsG1137"><text id="SvgjsText1138" font-family="&quot;Times New Roman&quot;" text-anchor="middle" font-size="12px" width="60px" fill="#212121" font-weight="400" align="middle" lineHeight="125%" anchor="middle" family="&quot;Times New Roman&quot;" size="12px" weight="400" font-style="" opacity="1" y="19.996999999999996" transform="rotate(0)"><tspan id="SvgjsTspan1139" dy="15" x="30"><tspan id="SvgjsTspan1140" style="text-decoration:;">34</tspan></tspan></text></g><g id="SvgjsG1141"><text id="SvgjsText1142" font-family="&quot;Times New Roman&quot;" text-anchor="middle" font-size="12px" width="60px" fill="#212121" font-weight="400" align="middle" lineHeight="125%" anchor="middle" family="&quot;Times New Roman&quot;" size="12px" weight="400" font-style="" opacity="1" y="19.996999999999996" transform="rotate(0)"><tspan id="SvgjsTspan1143" dy="15" x="90"><tspan id="SvgjsTspan1144" style="text-decoration:;">77</tspan></tspan></text></g><g id="SvgjsG1145"><text id="SvgjsText1146" font-family="&quot;Times New Roman&quot;" text-anchor="middle" font-size="12px" width="60px" fill="#212121" font-weight="400" align="middle" lineHeight="125%" anchor="middle" family="&quot;Times New Roman&quot;" size="12px" weight="400" font-style="" opacity="1" y="40.001" transform="rotate(0)"><tspan id="SvgjsTspan1147" dy="15" x="30"><tspan id="SvgjsTspan1148" style="text-decoration:;">Bob</tspan></tspan></text></g><g id="SvgjsG1149"><text id="SvgjsText1150" font-family="&quot;Times New Roman&quot;" text-anchor="middle" font-size="13px" width="60px" fill="#212121" font-weight="400" align="middle" lineHeight="125%" anchor="middle" family="&quot;Times New Roman&quot;" size="13px" weight="400" font-style="" opacity="1" y="38.876" transform="rotate(0)"><tspan id="SvgjsTspan1151" dy="16" x="90"><tspan id="SvgjsTspan1152" style="text-decoration:;">Alice</tspan></tspan></text></g></g><g id="SvgjsG1153" transform="translate(271.5885416666664,250.5052083333332)"><path id="SvgjsPath1154" d="M0 0L60 0L60 19.997999999999998 L0 19.997999999999998Z" stroke="rgba(33,33,33,1)" stroke-width="1" fill-opacity="1" fill="#bbdefb"></path><path id="SvgjsPath1155" d="M60 0L120 0L120 19.997999999999998 L60 19.997999999999998Z" stroke="rgba(33,33,33,1)" stroke-width="1" fill-opacity="1" fill="#bbdefb"></path><path id="SvgjsPath1156" d="M0 19.997999999999998L60 19.997999999999998L60 39.995999999999995 L0 39.995999999999995Z" stroke="rgba(33,33,33,1)" stroke-width="1" fill-opacity="1" fill="#ffffff"></path><path id="SvgjsPath1157" d="M60 19.997999999999998L120 19.997999999999998L120 39.995999999999995 L60 39.995999999999995Z" stroke="rgba(33,33,33,1)" stroke-width="1" fill-opacity="1" fill="#ffffff"></path><path id="SvgjsPath1158" d="M0 40.001999999999995L60 40.001999999999995L60 60 L0 60Z" stroke="rgba(33,33,33,1)" stroke-width="1" fill-opacity="1" fill="#ffffff"></path><path id="SvgjsPath1159" d="M60 40.001999999999995L120 40.001999999999995L120 60 L60 60Z" stroke="rgba(33,33,33,1)" stroke-width="1" fill-opacity="1" fill="#ffffff"></path><g id="SvgjsG1160"><text id="SvgjsText1161" font-family="&quot;Times New Roman&quot;" text-anchor="middle" font-size="12px" width="60px" fill="#212121" font-weight="400" align="middle" lineHeight="125%" anchor="middle" family="&quot;Times New Roman&quot;" size="12px" weight="400" font-style="" opacity="1" y="-0.0010000000000012221" transform="rotate(0)"><tspan id="SvgjsTspan1162" dy="15" x="30"><tspan id="SvgjsTspan1163" style="text-decoration:;">20</tspan></tspan></text></g><g id="SvgjsG1164"><text id="SvgjsText1165" font-family="&quot;Times New Roman&quot;" text-anchor="middle" font-size="12px" width="60px" fill="#212121" font-weight="400" align="middle" lineHeight="125%" anchor="middle" family="&quot;Times New Roman&quot;" size="12px" weight="400" font-style="" opacity="1" y="-0.0010000000000012221" transform="rotate(0)"><tspan id="SvgjsTspan1166" dy="15" x="90"><tspan id="SvgjsTspan1167" style="text-decoration:;">30</tspan></tspan></text></g><g id="SvgjsG1168"><text id="SvgjsText1169" font-family="&quot;Times New Roman&quot;" text-anchor="middle" font-size="12px" width="60px" fill="#212121" font-weight="400" align="middle" lineHeight="125%" anchor="middle" family="&quot;Times New Roman&quot;" size="12px" weight="400" font-style="" opacity="1" y="19.996999999999996" transform="rotate(0)"><tspan id="SvgjsTspan1170" dy="15" x="30"><tspan id="SvgjsTspan1171" style="text-decoration:;">5</tspan></tspan></text></g><g id="SvgjsG1172"><text id="SvgjsText1173" font-family="&quot;Times New Roman&quot;" text-anchor="middle" font-size="12px" width="60px" fill="#212121" font-weight="400" align="middle" lineHeight="125%" anchor="middle" family="&quot;Times New Roman&quot;" size="12px" weight="400" font-style="" opacity="1" y="19.996999999999996" transform="rotate(0)"><tspan id="SvgjsTspan1174" dy="15" x="90"><tspan id="SvgjsTspan1175" style="text-decoration:;">91</tspan></tspan></text></g><g id="SvgjsG1176"><text id="SvgjsText1177" font-family="&quot;Times New Roman&quot;" text-anchor="middle" font-size="12px" width="60px" fill="#212121" font-weight="400" align="middle" lineHeight="125%" anchor="middle" family="&quot;Times New Roman&quot;" size="12px" weight="400" font-style="" opacity="1" y="40.001" transform="rotate(0)"><tspan id="SvgjsTspan1178" dy="15" x="30"><tspan id="SvgjsTspan1179" style="text-decoration:;">Jack</tspan></tspan></text></g><g id="SvgjsG1180"><text id="SvgjsText1181" font-family="&quot;Times New Roman&quot;" text-anchor="middle" font-size="13px" width="60px" fill="#212121" font-weight="400" align="middle" lineHeight="125%" anchor="middle" family="&quot;Times New Roman&quot;" size="13px" weight="400" font-style="" opacity="1" y="38.876" transform="rotate(0)"><tspan id="SvgjsTspan1182" dy="16" x="90"><tspan id="SvgjsTspan1183" style="text-decoration:;">Eric</tspan></tspan></text></g></g><g id="SvgjsG1184"><path id="SvgjsPath1185" d="M282.79657086038856 205.73925262117922C 282.921875 255.06052933420642 166.92187499999972 200.6998873324601 167.37296990260086 248.76264889708796" stroke="#323232" stroke-width="1" fill="none" marker-end="url(#SvgjsMarker1186)"></path></g><g id="SvgjsG1188"><path id="SvgjsPath1189" d="M331.5769120490902 205.46730721494538L331.5880768734496 248.70520839334228" stroke="#323232" stroke-width="1" fill="none" marker-end="url(#SvgjsMarker1190)"></path></g><g id="SvgjsG1192" transform="translate(432.6270032051284,250.5052083333332)"><path id="SvgjsPath1193" d="M0 0L60 0L60 19.997999999999998 L0 19.997999999999998Z" stroke="rgba(33,33,33,1)" stroke-width="1" fill-opacity="1" fill="#bbdefb"></path><path id="SvgjsPath1194" d="M60 0L120 0L120 19.997999999999998 L60 19.997999999999998Z" stroke="rgba(33,33,33,1)" stroke-width="1" fill-opacity="1" fill="#bbdefb"></path><path id="SvgjsPath1195" d="M0 19.997999999999998L60 19.997999999999998L60 39.995999999999995 L0 39.995999999999995Z" stroke="rgba(33,33,33,1)" stroke-width="1" fill-opacity="1" fill="#ffffff"></path><path id="SvgjsPath1196" d="M60 19.997999999999998L120 19.997999999999998L120 39.995999999999995 L60 39.995999999999995Z" stroke="rgba(33,33,33,1)" stroke-width="1" fill-opacity="1" fill="#ffffff"></path><path id="SvgjsPath1197" d="M0 40.001999999999995L60 40.001999999999995L60 60 L0 60Z" stroke="rgba(33,33,33,1)" stroke-width="1" fill-opacity="1" fill="#ffffff"></path><path id="SvgjsPath1198" d="M60 40.001999999999995L120 40.001999999999995L120 60 L60 60Z" stroke="rgba(33,33,33,1)" stroke-width="1" fill-opacity="1" fill="#ffffff"></path><g id="SvgjsG1199"><text id="SvgjsText1200" font-family="&quot;Times New Roman&quot;" text-anchor="middle" font-size="12px" width="60px" fill="#212121" font-weight="400" align="middle" lineHeight="125%" anchor="middle" family="&quot;Times New Roman&quot;" size="12px" weight="400" font-style="" opacity="1" y="-0.0010000000000012221" transform="rotate(0)"><tspan id="SvgjsTspan1201" dy="15" x="30"><tspan id="SvgjsTspan1202" style="text-decoration:;">49</tspan></tspan></text></g><g id="SvgjsG1203"><text id="SvgjsText1204" font-family="&quot;Times New Roman&quot;" text-anchor="middle" font-size="12px" width="60px" fill="#212121" font-weight="400" align="middle" lineHeight="125%" anchor="middle" family="&quot;Times New Roman&quot;" size="12px" weight="400" font-style="" opacity="1" y="-0.0010000000000012221" transform="rotate(0)"><tspan id="SvgjsTspan1205" dy="15" x="90"><tspan id="SvgjsTspan1206" style="text-decoration:;">50</tspan></tspan></text></g><g id="SvgjsG1207"><text id="SvgjsText1208" font-family="&quot;Times New Roman&quot;" text-anchor="middle" font-size="12px" width="60px" fill="#212121" font-weight="400" align="middle" lineHeight="125%" anchor="middle" family="&quot;Times New Roman&quot;" size="12px" weight="400" font-style="" opacity="1" y="19.996999999999996" transform="rotate(0)"><tspan id="SvgjsTspan1209" dy="15" x="30"><tspan id="SvgjsTspan1210" style="text-decoration:;">22</tspan></tspan></text></g><g id="SvgjsG1211"><text id="SvgjsText1212" font-family="&quot;Times New Roman&quot;" text-anchor="middle" font-size="12px" width="60px" fill="#212121" font-weight="400" align="middle" lineHeight="125%" anchor="middle" family="&quot;Times New Roman&quot;" size="12px" weight="400" font-style="" opacity="1" y="19.996999999999996" transform="rotate(0)"><tspan id="SvgjsTspan1213" dy="15" x="90"><tspan id="SvgjsTspan1214" style="text-decoration:;">89</tspan></tspan></text></g><g id="SvgjsG1215"><text id="SvgjsText1216" font-family="&quot;Times New Roman&quot;" text-anchor="middle" font-size="12px" width="60px" fill="#212121" font-weight="400" align="middle" lineHeight="125%" anchor="middle" family="&quot;Times New Roman&quot;" size="12px" weight="400" font-style="" opacity="1" y="40.001" transform="rotate(0)"><tspan id="SvgjsTspan1217" dy="15" x="30"><tspan id="SvgjsTspan1218" style="text-decoration:;">Tom</tspan></tspan></text></g><g id="SvgjsG1219"><text id="SvgjsText1220" font-family="&quot;Times New Roman&quot;" text-anchor="middle" font-size="13px" width="60px" fill="#212121" font-weight="400" align="middle" lineHeight="125%" anchor="middle" family="&quot;Times New Roman&quot;" size="13px" weight="400" font-style="" opacity="1" y="38.876" transform="rotate(0)"><tspan id="SvgjsTspan1221" dy="16" x="90"><tspan id="SvgjsTspan1222" style="text-decoration:;">Rose</tspan></tspan></text></g></g><g id="SvgjsG1223"><path id="SvgjsPath1224" d="M377.3614783168331 205.39662077290484C 381.5236364422666 254.37689820235016 492.6270032051284 200.86382153500983 492.1909858804096 248.75881522393746" stroke="#323232" stroke-width="1" fill="none" marker-end="url(#SvgjsMarker1225)"></path></g><g id="SvgjsG1227"><path id="SvgjsPath1228" d="M227.42187499999972 280.5052083333332C 244.7885416666664 280.5052083333332 253.72187499999973 280.5052083333332 269.78854166666645 280.5052083333332" stroke="#323232" stroke-width="1" fill="none" marker-end="url(#SvgjsMarker1229)"></path></g><g id="SvgjsG1231"><path id="SvgjsPath1232" d="M392.0885416666664 280.5052083333332C 408.0039262820512 280.5052083333332 416.2116185897436 280.50520833333326 430.82700320512845 280.50520833333326" stroke="#323232" stroke-width="1" fill="none" marker-end="url(#SvgjsMarker1233)"></path></g><g id="SvgjsG1235"><path id="SvgjsPath1236" d="M553.1270032051284 280.5052083333332C 567.244951923077 280.5052083333332 574.5539262820514 280.50520833333314 589.171875 280.50520833333314" stroke="#323232" stroke-width="1" fill="none" marker-end="url(#SvgjsMarker1237)"></path></g></svg>