<svg id="SvgjsSvg1006" width="530" height="648.5" xmlns="http://www.w3.org/2000/svg" version="1.1" xmlns:xlink="http://www.w3.org/1999/xlink" xmlns:svgjs="http://svgjs.com/svgjs"><defs id="SvgjsDefs1007"></defs><g id="SvgjsG1008" transform="translate(25,25)"><path id="SvgjsPath1009" d="M 0 4Q 0 0 4 0L 221 0Q 225 0 225 4L 225 255.5Q 225 259.5 221 259.5L 4 259.5Q 0 259.5 0 255.5Z" stroke="rgba(50,50,50,1)" stroke-width="1" fill="none"></path><g id="SvgjsG1010"><text id="SvgjsText1011" font-family="微软雅黑" text-anchor="middle" font-size="13px" width="205px" fill="#323232" font-weight="400" align="middle" lineHeight="125%" anchor="middle" family="微软雅黑" size="13px" weight="400" font-style="" opacity="1" y="119.125" transform="rotate(0)"></text></g></g><g id="SvgjsG1012" transform="translate(147.5,214.5)"><path id="SvgjsPath1013" d="M 0 4Q 0 0 4 0L 76 0Q 80 0 80 4L 80 36Q 80 40 76 40L 4 40Q 0 40 0 36Z" stroke="rgba(50,50,50,1)" stroke-width="1" fill-opacity="1" fill="#ffe6cc"></path><g id="SvgjsG1014"><text id="SvgjsText1015" font-family="微软雅黑" text-anchor="middle" font-size="13px" width="60px" fill="#323232" font-weight="400" align="middle" lineHeight="125%" anchor="middle" family="微软雅黑" size="13px" weight="400" font-style="" opacity="1" y="9.375" transform="rotate(0)"><tspan id="SvgjsTspan1016" dy="16" x="40"><tspan id="SvgjsTspan1017" style="text-decoration:;">刺激感</tspan></tspan></text></g></g><g id="SvgjsG1018" transform="translate(47.5,214.5)"><path id="SvgjsPath1019" d="M 0 4Q 0 0 4 0L 76 0Q 80 0 80 4L 80 36Q 80 40 76 40L 4 40Q 0 40 0 36Z" stroke="rgba(50,50,50,1)" stroke-width="1" fill-opacity="1" fill="#ffe6cc"></path><g id="SvgjsG1020"><text id="SvgjsText1021" font-family="微软雅黑" text-anchor="middle" font-size="13px" width="60px" fill="#323232" font-weight="400" align="middle" lineHeight="125%" anchor="middle" family="微软雅黑" size="13px" weight="400" font-style="" opacity="1" y="9.375" transform="rotate(0)"><tspan id="SvgjsTspan1022" dy="16" x="40"><tspan id="SvgjsTspan1023" style="text-decoration:;">心动感</tspan></tspan></text></g></g><g id="SvgjsG1024" transform="translate(25,35)"><path id="SvgjsPath1025" d="M 0 0L 225 0L 225 40L 0 40Z" stroke="none" fill="none"></path><g id="SvgjsG1026"><text id="SvgjsText1027" font-family="微软雅黑" text-anchor="middle" font-size="15px" width="225px" fill="#323232" font-weight="400" align="middle" lineHeight="125%" anchor="middle" family="微软雅黑" size="15px" weight="400" font-style="" opacity="1" y="7.625" transform="rotate(0)"><tspan id="SvgjsTspan1028" dy="18" x="112.5"><tspan id="SvgjsTspan1029" style="text-decoration:;">性 🥰</tspan></tspan></text></g></g><g id="SvgjsG1030" transform="translate(25,85)"><path id="SvgjsPath1031" d="M 0 0L 225 0L 225 120L 0 120Z" stroke="none" fill="none"></path><g id="SvgjsG1032"><text id="SvgjsText1033" font-family="微软雅黑" text-anchor="middle" font-size="13px" width="225px" fill="#323232" font-weight="400" align="middle" lineHeight="150%" anchor="middle" family="微软雅黑" size="13px" weight="400" font-style="" opacity="1" y="-2.75" transform="rotate(0)"><tspan id="SvgjsTspan1034" dy="19" x="112.5"><tspan id="SvgjsTspan1035" style="text-decoration:;">肉体 / 健康美</tspan></tspan><tspan id="SvgjsTspan1036" dy="19" x="112.5"><tspan id="SvgjsTspan1037" style="text-decoration:;">性器官 / 性行为</tspan></tspan><tspan id="SvgjsTspan1038" dy="19" x="112.5"><tspan id="SvgjsTspan1039" style="text-decoration:;">恋爱</tspan></tspan><tspan id="SvgjsTspan1040" dy="19" x="112.5"><tspan id="SvgjsTspan1041" style="text-decoration:;">婚姻</tspan></tspan><tspan id="SvgjsTspan1042" dy="19" x="112.5"><tspan id="SvgjsTspan1043" style="text-decoration:;">繁殖</tspan></tspan><tspan id="SvgjsTspan1044" dy="19" x="112.5"><tspan id="SvgjsTspan1045" style="text-decoration:;">妊娠 / 婴儿</tspan></tspan></text></g></g><g id="SvgjsG1046" transform="translate(280,25)"><path id="SvgjsPath1047" d="M 0 4Q 0 0 4 0L 221 0Q 225 0 225 4L 225 255.5Q 225 259.5 221 259.5L 4 259.5Q 0 259.5 0 255.5Z" stroke="rgba(50,50,50,1)" stroke-width="1" fill="none"></path><g id="SvgjsG1048"><text id="SvgjsText1049" font-family="微软雅黑" text-anchor="middle" font-size="13px" width="205px" fill="#323232" font-weight="400" align="middle" lineHeight="125%" anchor="middle" family="微软雅黑" size="13px" weight="400" font-style="" opacity="1" y="119.125" transform="rotate(0)"></text></g></g><g id="SvgjsG1050" transform="translate(402.5,214.5)"><path id="SvgjsPath1051" d="M 0 4Q 0 0 4 0L 76 0Q 80 0 80 4L 80 36Q 80 40 76 40L 4 40Q 0 40 0 36Z" stroke="rgba(50,50,50,1)" stroke-width="1" fill-opacity="1" fill="#ffe6cc"></path><g id="SvgjsG1052"><text id="SvgjsText1053" font-family="微软雅黑" text-anchor="middle" font-size="13px" width="60px" fill="#323232" font-weight="400" align="middle" lineHeight="125%" anchor="middle" family="微软雅黑" size="13px" weight="400" font-style="" opacity="1" y="9.375" transform="rotate(0)"><tspan id="SvgjsTspan1054" dy="16" x="40"><tspan id="SvgjsTspan1055" style="text-decoration:;">饥饿感</tspan></tspan></text></g></g><g id="SvgjsG1056" transform="translate(302.5,214.5)"><path id="SvgjsPath1057" d="M 0 4Q 0 0 4 0L 76 0Q 80 0 80 4L 80 36Q 80 40 76 40L 4 40Q 0 40 0 36Z" stroke="rgba(50,50,50,1)" stroke-width="1" fill-opacity="1" fill="#ffe6cc"></path><g id="SvgjsG1058"><text id="SvgjsText1059" font-family="微软雅黑" text-anchor="middle" font-size="13px" width="60px" fill="#323232" font-weight="400" align="middle" lineHeight="125%" anchor="middle" family="微软雅黑" size="13px" weight="400" font-style="" opacity="1" y="9.375" transform="rotate(0)"><tspan id="SvgjsTspan1060" dy="16" x="40"><tspan id="SvgjsTspan1061" style="text-decoration:;">美味感</tspan></tspan></text></g></g><g id="SvgjsG1062" transform="translate(280,35)"><path id="SvgjsPath1063" d="M 0 0L 225 0L 225 40L 0 40Z" stroke="none" fill="none"></path><g id="SvgjsG1064"><text id="SvgjsText1065" font-family="微软雅黑" text-anchor="middle" font-size="15px" width="225px" fill="#323232" font-weight="400" align="middle" lineHeight="125%" anchor="middle" family="微软雅黑" size="15px" weight="400" font-style="" opacity="1" y="7.625" transform="rotate(0)"><tspan id="SvgjsTspan1066" dy="18" x="112.5"><tspan id="SvgjsTspan1067" style="text-decoration:;">食 😋</tspan></tspan></text></g></g><g id="SvgjsG1068" transform="translate(280,85)"><path id="SvgjsPath1069" d="M 0 0L 225 0L 225 120L 0 120Z" stroke="none" fill="none"></path><g id="SvgjsG1070"><text id="SvgjsText1071" font-family="微软雅黑" text-anchor="middle" font-size="13px" width="225px" fill="#323232" font-weight="400" align="middle" lineHeight="150%" anchor="middle" family="微软雅黑" size="13px" weight="400" font-style="" opacity="1" y="-2.75" transform="rotate(0)"><tspan id="SvgjsTspan1072" dy="19" x="112.5"><tspan id="SvgjsTspan1073" style="text-decoration:;font-size: inherit;">香味 / 口感</tspan></tspan><tspan id="SvgjsTspan1074" dy="19" x="112.5"><tspan id="SvgjsTspan1075" style="text-decoration:;font-size: inherit;">丰收 / </tspan><tspan id="SvgjsTspan1076" style="text-decoration:;">狩猎</tspan></tspan><tspan id="SvgjsTspan1077" dy="19" x="112.5"><tspan id="SvgjsTspan1078" style="text-decoration:;font-size: inherit;">饥饿 / 嘴馋</tspan></tspan><tspan id="SvgjsTspan1079" dy="19" x="112.5"><tspan id="SvgjsTspan1080" style="text-decoration:;">火锅 / 烧烤</tspan></tspan><tspan id="SvgjsTspan1081" dy="19" x="112.5"><tspan id="SvgjsTspan1082" style="text-decoration:;">美酒 / 奶茶</tspan></tspan><tspan id="SvgjsTspan1083" dy="19" x="112.5"><tspan id="SvgjsTspan1084" style="text-decoration:;">烹饪料理 / 食材加工</tspan></tspan></text></g></g><g id="SvgjsG1085" transform="translate(25,314)"><path id="SvgjsPath1086" d="M 0 4Q 0 0 4 0L 221 0Q 225 0 225 4L 225 255.5Q 225 259.5 221 259.5L 4 259.5Q 0 259.5 0 255.5Z" stroke="rgba(50,50,50,1)" stroke-width="1" fill="none"></path><g id="SvgjsG1087"><text id="SvgjsText1088" font-family="微软雅黑" text-anchor="middle" font-size="13px" width="205px" fill="#323232" font-weight="400" align="middle" lineHeight="125%" anchor="middle" family="微软雅黑" size="13px" weight="400" font-style="" opacity="1" y="119.125" transform="rotate(0)"></text></g></g><g id="SvgjsG1089" transform="translate(147.5,503.5)"><path id="SvgjsPath1090" d="M 0 4Q 0 0 4 0L 76 0Q 80 0 80 4L 80 36Q 80 40 76 40L 4 40Q 0 40 0 36Z" stroke="rgba(50,50,50,1)" stroke-width="1" fill-opacity="1" fill="#ffe6cc"></path><g id="SvgjsG1091"><text id="SvgjsText1092" font-family="微软雅黑" text-anchor="middle" font-size="13px" width="60px" fill="#323232" font-weight="400" align="middle" lineHeight="125%" anchor="middle" family="微软雅黑" size="13px" weight="400" font-style="" opacity="1" y="9.375" transform="rotate(0)"><tspan id="SvgjsTspan1093" dy="16" x="40"><tspan id="SvgjsTspan1094" style="text-decoration:;">不想损失</tspan></tspan></text></g></g><g id="SvgjsG1095" transform="translate(47.5,503.5)"><path id="SvgjsPath1096" d="M 0 4Q 0 0 4 0L 76 0Q 80 0 80 4L 80 36Q 80 40 76 40L 4 40Q 0 40 0 36Z" stroke="rgba(50,50,50,1)" stroke-width="1" fill-opacity="1" fill="#ffe6cc"></path><g id="SvgjsG1097"><text id="SvgjsText1098" font-family="微软雅黑" text-anchor="middle" font-size="13px" width="60px" fill="#323232" font-weight="400" align="middle" lineHeight="125%" anchor="middle" family="微软雅黑" size="13px" weight="400" font-style="" opacity="1" y="9.375" transform="rotate(0)"><tspan id="SvgjsTspan1099" dy="16" x="40"><tspan id="SvgjsTspan1100" style="text-decoration:;">渴望金钱</tspan></tspan></text></g></g><g id="SvgjsG1101" transform="translate(25,324)"><path id="SvgjsPath1102" d="M 0 0L 225 0L 225 40L 0 40Z" stroke="none" fill="none"></path><g id="SvgjsG1103"><text id="SvgjsText1104" font-family="微软雅黑" text-anchor="middle" font-size="15px" width="225px" fill="#323232" font-weight="400" align="middle" lineHeight="125%" anchor="middle" family="微软雅黑" size="15px" weight="400" font-style="" opacity="1" y="7.625" transform="rotate(0)"><tspan id="SvgjsTspan1105" dy="18" x="112.5"><tspan id="SvgjsTspan1106" style="text-decoration:;">得失 🤑</tspan></tspan></text></g></g><g id="SvgjsG1107" transform="translate(25,374)"><path id="SvgjsPath1108" d="M 0 0L 225 0L 225 120L 0 120Z" stroke="none" fill="none"></path><g id="SvgjsG1109"><text id="SvgjsText1110" font-family="微软雅黑" text-anchor="middle" font-size="13px" width="225px" fill="#323232" font-weight="400" align="middle" lineHeight="150%" anchor="middle" family="微软雅黑" size="13px" weight="400" font-style="" opacity="1" y="-2.75" transform="rotate(0)"><tspan id="SvgjsTspan1111" dy="19" x="112.5"><tspan id="SvgjsTspan1112" style="text-decoration:;">奖励 / 惩罚</tspan></tspan><tspan id="SvgjsTspan1113" dy="19" x="112.5"><tspan id="SvgjsTspan1114" style="text-decoration:;">竞争 / 胜负</tspan></tspan><tspan id="SvgjsTspan1115" dy="19" x="112.5"><tspan id="SvgjsTspan1116" style="text-decoration:;">赠予 / 交换</tspan></tspan><tspan id="SvgjsTspan1117" dy="19" x="112.5"><tspan id="SvgjsTspan1118" style="text-decoration:;">羡慕 / 嫉妒</tspan></tspan><tspan id="SvgjsTspan1119" dy="19" x="112.5"><tspan id="SvgjsTspan1120" style="text-decoration:;">富有 / 贫穷</tspan></tspan><tspan id="SvgjsTspan1121" dy="19" x="112.5"><tspan id="SvgjsTspan1122" style="text-decoration:;">资产 / 负债</tspan></tspan></text></g></g><g id="SvgjsG1123" transform="translate(280,314)"><path id="SvgjsPath1124" d="M 0 4Q 0 0 4 0L 221 0Q 225 0 225 4L 225 255.5Q 225 259.5 221 259.5L 4 259.5Q 0 259.5 0 255.5Z" stroke="rgba(50,50,50,1)" stroke-width="1" fill="none"></path><g id="SvgjsG1125"><text id="SvgjsText1126" font-family="微软雅黑" text-anchor="middle" font-size="13px" width="205px" fill="#323232" font-weight="400" align="middle" lineHeight="125%" anchor="middle" family="微软雅黑" size="13px" weight="400" font-style="" opacity="1" y="119.125" transform="rotate(0)"></text></g></g><g id="SvgjsG1127" transform="translate(402.5,503.5)"><path id="SvgjsPath1128" d="M 0 4Q 0 0 4 0L 76 0Q 80 0 80 4L 80 36Q 80 40 76 40L 4 40Q 0 40 0 36Z" stroke="rgba(50,50,50,1)" stroke-width="1" fill-opacity="1" fill="#ffe6cc"></path><g id="SvgjsG1129"><text id="SvgjsText1130" font-family="微软雅黑" text-anchor="middle" font-size="13px" width="60px" fill="#323232" font-weight="400" align="middle" lineHeight="125%" anchor="middle" family="微软雅黑" size="13px" weight="400" font-style="" opacity="1" y="9.375" transform="rotate(0)"><tspan id="SvgjsTspan1131" dy="16" x="40"><tspan id="SvgjsTspan1132" style="text-decoration:;">归属感</tspan></tspan></text></g></g><g id="SvgjsG1133" transform="translate(302.5,503.5)"><path id="SvgjsPath1134" d="M 0 4Q 0 0 4 0L 76 0Q 80 0 80 4L 80 36Q 80 40 76 40L 4 40Q 0 40 0 36Z" stroke="rgba(50,50,50,1)" stroke-width="1" fill-opacity="1" fill="#ffe6cc"></path><g id="SvgjsG1135"><text id="SvgjsText1136" font-family="微软雅黑" text-anchor="middle" font-size="13px" width="60px" fill="#323232" font-weight="400" align="middle" lineHeight="125%" anchor="middle" family="微软雅黑" size="13px" weight="400" font-style="" opacity="1" y="9.375" transform="rotate(0)"><tspan id="SvgjsTspan1137" dy="16" x="40"><tspan id="SvgjsTspan1138" style="text-decoration:;">认可感</tspan></tspan></text></g></g><g id="SvgjsG1139" transform="translate(280,324)"><path id="SvgjsPath1140" d="M 0 0L 225 0L 225 40L 0 40Z" stroke="none" fill="none"></path><g id="SvgjsG1141"><text id="SvgjsText1142" font-family="微软雅黑" text-anchor="middle" font-size="15px" width="225px" fill="#323232" font-weight="400" align="middle" lineHeight="125%" anchor="middle" family="微软雅黑" size="15px" weight="400" font-style="" opacity="1" y="7.625" transform="rotate(0)"><tspan id="SvgjsTspan1143" dy="18" x="112.5"><tspan id="SvgjsTspan1144" style="text-decoration:;">认可 🤗</tspan></tspan></text></g></g><g id="SvgjsG1145" transform="translate(280,374)"><path id="SvgjsPath1146" d="M 0 0L 225 0L 225 120L 0 120Z" stroke="none" fill="none"></path><g id="SvgjsG1147"><text id="SvgjsText1148" font-family="微软雅黑" text-anchor="middle" font-size="13px" width="225px" fill="#323232" font-weight="400" align="middle" lineHeight="150%" anchor="middle" family="微软雅黑" size="13px" weight="400" font-style="" opacity="1" y="-2.75" transform="rotate(0)"><tspan id="SvgjsTspan1149" dy="19" x="112.5"><tspan id="SvgjsTspan1150" style="text-decoration:;">伙伴 / 友情</tspan></tspan><tspan id="SvgjsTspan1151" dy="19" x="112.5"><tspan id="SvgjsTspan1152" style="text-decoration:;">家人 / 亲戚</tspan></tspan><tspan id="SvgjsTspan1153" dy="19" x="112.5"><tspan id="SvgjsTspan1154" style="text-decoration:;">职业 / 职责 / 头衔</tspan></tspan><tspan id="SvgjsTspan1155" dy="19" x="112.5"><tspan id="SvgjsTspan1156" style="text-decoration:;">怀旧 / 流行 / 小众</tspan></tspan><tspan id="SvgjsTspan1157" dy="19" x="112.5"><tspan id="SvgjsTspan1158" style="text-decoration:;">国家 / 阶级 / 上下级关系</tspan></tspan><tspan id="SvgjsTspan1159" dy="19" x="112.5"><tspan id="SvgjsTspan1160" style="text-decoration:;">自我认可感 / 六边形战士</tspan></tspan></text></g></g><g id="SvgjsG1161" transform="translate(205.5,583.5)"><path id="SvgjsPath1162" d="M 0 0L 120 0L 120 40L 0 40Z" stroke="none" fill="none"></path><g id="SvgjsG1163"><text id="SvgjsText1164" font-family="&quot;Times New Roman&quot;" text-anchor="middle" font-size="13px" width="120px" fill="#e0e0e0" font-weight="400" align="middle" lineHeight="125%" anchor="middle" family="&quot;Times New Roman&quot;" size="13px" weight="400" font-style="" opacity="1" y="9.375" transform="rotate(0)"><tspan id="SvgjsTspan1165" dy="16" x="60"><tspan id="SvgjsTspan1166" style="text-decoration:;">www.kofes.cn</tspan></tspan></text></g></g></svg>