<svg id="SvgjsSvg1006" width="530" height="648.5" xmlns="http://www.w3.org/2000/svg" version="1.1" xmlns:xlink="http://www.w3.org/1999/xlink" xmlns:svgjs="http://svgjs.com/svgjs"><defs id="SvgjsDefs1007"></defs><g id="SvgjsG1008" transform="translate(25,25)"><path id="SvgjsPath1009" d="M 0 4Q 0 0 4 0L 221 0Q 225 0 225 4L 225 255.5Q 225 259.5 221 259.5L 4 259.5Q 0 259.5 0 255.5Z" stroke="rgba(50,50,50,1)" stroke-width="1" fill="none"></path><g id="SvgjsG1010"><text id="SvgjsText1011" font-family="微软雅黑" text-anchor="middle" font-size="13px" width="205px" fill="#323232" font-weight="400" align="middle" lineHeight="125%" anchor="middle" family="微软雅黑" size="13px" weight="400" font-style="" opacity="1" y="119.125" transform="rotate(0)"></text></g></g><g id="SvgjsG1012" transform="translate(147.5,214.5)"><path id="SvgjsPath1013" d="M 0 4Q 0 0 4 0L 76 0Q 80 0 80 4L 80 36Q 80 40 76 40L 4 40Q 0 40 0 36Z" stroke="rgba(50,50,50,1)" stroke-width="1" fill-opacity="1" fill="#cce5ff"></path><g id="SvgjsG1014"><text id="SvgjsText1015" font-family="微软雅黑" text-anchor="middle" font-size="13px" width="60px" fill="#323232" font-weight="400" align="middle" lineHeight="125%" anchor="middle" family="微软雅黑" size="13px" weight="400" font-style="" opacity="1" y="9.375" transform="rotate(0)"><tspan id="SvgjsTspan1016" dy="16" x="40"><tspan id="SvgjsTspan1017" style="text-decoration:;">罪恶感</tspan></tspan></text></g></g><g id="SvgjsG1018" transform="translate(47.5,214.5)"><path id="SvgjsPath1019" d="M 0 4Q 0 0 4 0L 76 0Q 80 0 80 4L 80 36Q 80 40 76 40L 4 40Q 0 40 0 36Z" stroke="rgba(50,50,50,1)" stroke-width="1" fill-opacity="1" fill="#cce5ff"></path><g id="SvgjsG1020"><text id="SvgjsText1021" font-family="微软雅黑" text-anchor="middle" font-size="13px" width="60px" fill="#323232" font-weight="400" align="middle" lineHeight="125%" anchor="middle" family="微软雅黑" size="13px" weight="400" font-style="" opacity="1" y="9.375" transform="rotate(0)"><tspan id="SvgjsTspan1022" dy="16" x="40"><tspan id="SvgjsTspan1023" style="text-decoration:;">肮脏感</tspan></tspan></text></g></g><g id="SvgjsG1024" transform="translate(25,35)"><path id="SvgjsPath1025" d="M 0 0L 225 0L 225 40L 0 40Z" stroke="none" fill="none"></path><g id="SvgjsG1026"><text id="SvgjsText1027" font-family="微软雅黑" text-anchor="middle" font-size="15px" width="225px" fill="#323232" font-weight="400" align="middle" lineHeight="125%" anchor="middle" family="微软雅黑" size="15px" weight="400" font-style="" opacity="1" y="7.625" transform="rotate(0)"><tspan id="SvgjsTspan1028" dy="18" x="112.5"><tspan id="SvgjsTspan1029" style="text-decoration:;">肮脏 🤮</tspan></tspan></text></g></g><g id="SvgjsG1030" transform="translate(25,85)"><path id="SvgjsPath1031" d="M 0 0L 225 0L 225 120L 0 120Z" stroke="none" fill="none"></path><g id="SvgjsG1032"><text id="SvgjsText1033" font-family="微软雅黑" text-anchor="middle" font-size="13px" width="225px" fill="#323232" font-weight="400" align="middle" lineHeight="150%" anchor="middle" family="微软雅黑" size="13px" weight="400" font-style="" opacity="1" y="-2.75" transform="rotate(0)"><tspan id="SvgjsTspan1034" dy="19" x="112.5"><tspan id="SvgjsTspan1035" style="text-decoration:;">丑陋 / 污染</tspan></tspan><tspan id="SvgjsTspan1036" dy="19" x="112.5"><tspan id="SvgjsTspan1037" style="text-decoration:;">犯罪 / 作恶</tspan></tspan><tspan id="SvgjsTspan1038" dy="19" x="112.5"><tspan id="SvgjsTspan1039" style="text-decoration:;">不道德行为</tspan></tspan><tspan id="SvgjsTspan1040" dy="19" x="112.5"><tspan id="SvgjsTspan1041" style="text-decoration:;">恶意 / 中邪 / 诅咒</tspan></tspan><tspan id="SvgjsTspan1042" dy="19" x="112.5"><tspan id="SvgjsTspan1043" style="text-decoration:;">细菌繁殖 / 怪异生物</tspan></tspan><tspan id="SvgjsTspan1044" dy="19" x="112.5"><tspan id="SvgjsTspan1045" style="text-decoration:;">污染物 / 排泄物 / 腐蚀物</tspan></tspan></text></g></g><g id="SvgjsG1046" transform="translate(280,25)"><path id="SvgjsPath1047" d="M 0 4Q 0 0 4 0L 221 0Q 225 0 225 4L 225 255.5Q 225 259.5 221 259.5L 4 259.5Q 0 259.5 0 255.5Z" stroke="rgba(50,50,50,1)" stroke-width="1" fill="none"></path><g id="SvgjsG1048"><text id="SvgjsText1049" font-family="微软雅黑" text-anchor="middle" font-size="13px" width="205px" fill="#323232" font-weight="400" align="middle" lineHeight="125%" anchor="middle" family="微软雅黑" size="13px" weight="400" font-style="" opacity="1" y="119.125" transform="rotate(0)"></text></g></g><g id="SvgjsG1050" transform="translate(402.5,214.5)"><path id="SvgjsPath1051" d="M 0 4Q 0 0 4 0L 76 0Q 80 0 80 4L 80 36Q 80 40 76 40L 4 40Q 0 40 0 36Z" stroke="rgba(50,50,50,1)" stroke-width="1" fill-opacity="1" fill="#cce5ff"></path><g id="SvgjsG1052"><text id="SvgjsText1053" font-family="微软雅黑" text-anchor="middle" font-size="13px" width="60px" fill="#323232" font-weight="400" align="middle" lineHeight="125%" anchor="middle" family="微软雅黑" size="13px" weight="400" font-style="" opacity="1" y="9.375" transform="rotate(0)"><tspan id="SvgjsTspan1054" dy="16" x="40"><tspan id="SvgjsTspan1055" style="text-decoration:;">片面感</tspan></tspan></text></g></g><g id="SvgjsG1056" transform="translate(302.5,214.5)"><path id="SvgjsPath1057" d="M 0 4Q 0 0 4 0L 76 0Q 80 0 80 4L 80 36Q 80 40 76 40L 4 40Q 0 40 0 36Z" stroke="rgba(50,50,50,1)" stroke-width="1" fill-opacity="1" fill="#cce5ff"></path><g id="SvgjsG1058"><text id="SvgjsText1059" font-family="微软雅黑" text-anchor="middle" font-size="13px" width="60px" fill="#323232" font-weight="400" align="middle" lineHeight="125%" anchor="middle" family="微软雅黑" size="13px" weight="400" font-style="" opacity="1" y="9.375" transform="rotate(0)"><tspan id="SvgjsTspan1060" dy="16" x="40"><tspan id="SvgjsTspan1061" style="text-decoration:;">疼痛感</tspan></tspan></text></g></g><g id="SvgjsG1062" transform="translate(280,35)"><path id="SvgjsPath1063" d="M 0 0L 225 0L 225 40L 0 40Z" stroke="none" fill="none"></path><g id="SvgjsG1064"><text id="SvgjsText1065" font-family="微软雅黑" text-anchor="middle" font-size="15px" width="225px" fill="#323232" font-weight="400" align="middle" lineHeight="125%" anchor="middle" family="微软雅黑" size="15px" weight="400" font-style="" opacity="1" y="7.625" transform="rotate(0)"><tspan id="SvgjsTspan1066" dy="18" x="112.5"><tspan id="SvgjsTspan1067" style="text-decoration:;">暴力 🤬</tspan></tspan></text></g></g><g id="SvgjsG1068" transform="translate(280,85)"><path id="SvgjsPath1069" d="M 0 0L 225 0L 225 120L 0 120Z" stroke="none" fill="none"></path><g id="SvgjsG1070"><text id="SvgjsText1071" font-family="微软雅黑" text-anchor="middle" font-size="13px" width="225px" fill="#323232" font-weight="400" align="middle" lineHeight="150%" anchor="middle" family="微软雅黑" size="13px" weight="400" font-style="" opacity="1" y="-2.75" transform="rotate(0)"><tspan id="SvgjsTspan1072" dy="19" x="112.5"><tspan id="SvgjsTspan1073" style="text-decoration:;">吵架 / 打架</tspan></tspan><tspan id="SvgjsTspan1074" dy="19" x="112.5"><tspan id="SvgjsTspan1075" style="text-decoration:;">杀戮 / 灭绝</tspan></tspan><tspan id="SvgjsTspan1076" dy="19" x="112.5"><tspan id="SvgjsTspan1077" style="text-decoration:;">掠夺 / 榨取</tspan></tspan><tspan id="SvgjsTspan1078" dy="19" x="112.5"><tspan id="SvgjsTspan1079" style="text-decoration:;">藐视 / 歧视</tspan></tspan><tspan id="SvgjsTspan1080" dy="19" x="112.5"><tspan id="SvgjsTspan1081" style="text-decoration:;">剥夺 / 囚禁</tspan></tspan><tspan id="SvgjsTspan1082" dy="19" x="112.5"><tspan id="SvgjsTspan1083" style="text-decoration:;">杀伤性武器</tspan></tspan></text></g></g><g id="SvgjsG1084" transform="translate(25,314)"><path id="SvgjsPath1085" d="M 0 4Q 0 0 4 0L 221 0Q 225 0 225 4L 225 255.5Q 225 259.5 221 259.5L 4 259.5Q 0 259.5 0 255.5Z" stroke="rgba(50,50,50,1)" stroke-width="1" fill="none"></path><g id="SvgjsG1086"><text id="SvgjsText1087" font-family="微软雅黑" text-anchor="middle" font-size="13px" width="205px" fill="#323232" font-weight="400" align="middle" lineHeight="125%" anchor="middle" family="微软雅黑" size="13px" weight="400" font-style="" opacity="1" y="119.125" transform="rotate(0)"></text></g></g><g id="SvgjsG1088" transform="translate(147.5,503.5)"><path id="SvgjsPath1089" d="M 0 4Q 0 0 4 0L 76 0Q 80 0 80 4L 80 36Q 80 40 76 40L 4 40Q 0 40 0 36Z" stroke="rgba(50,50,50,1)" stroke-width="1" fill-opacity="1" fill="#cce5ff"></path><g id="SvgjsG1090"><text id="SvgjsText1091" font-family="微软雅黑" text-anchor="middle" font-size="13px" width="60px" fill="#323232" font-weight="400" align="middle" lineHeight="125%" anchor="middle" family="微软雅黑" size="13px" weight="400" font-style="" opacity="1" y="9.375" transform="rotate(0)"><tspan id="SvgjsTspan1092" dy="16" x="40"><tspan id="SvgjsTspan1093" style="text-decoration:;">眩晕感</tspan></tspan></text></g></g><g id="SvgjsG1094" transform="translate(47.5,503.5)"><path id="SvgjsPath1095" d="M 0 4Q 0 0 4 0L 76 0Q 80 0 80 4L 80 36Q 80 40 76 40L 4 40Q 0 40 0 36Z" stroke="rgba(50,50,50,1)" stroke-width="1" fill-opacity="1" fill="#cce5ff"></path><g id="SvgjsG1096"><text id="SvgjsText1097" font-family="微软雅黑" text-anchor="middle" font-size="13px" width="60px" fill="#323232" font-weight="400" align="middle" lineHeight="125%" anchor="middle" family="微软雅黑" size="13px" weight="400" font-style="" opacity="1" y="9.375" transform="rotate(0)"><tspan id="SvgjsTspan1098" dy="16" x="40"><tspan id="SvgjsTspan1099" style="text-decoration:;">错误感</tspan></tspan></text></g></g><g id="SvgjsG1100" transform="translate(25,324)"><path id="SvgjsPath1101" d="M 0 0L 225 0L 225 40L 0 40Z" stroke="none" fill="none"></path><g id="SvgjsG1102"><text id="SvgjsText1103" font-family="微软雅黑" text-anchor="middle" font-size="15px" width="225px" fill="#323232" font-weight="400" align="middle" lineHeight="125%" anchor="middle" family="微软雅黑" size="15px" weight="400" font-style="" opacity="1" y="7.625" transform="rotate(0)"><tspan id="SvgjsTspan1104" dy="18" x="112.5"><tspan id="SvgjsTspan1105" style="text-decoration:;">混乱 😵‍💫</tspan></tspan></text></g></g><g id="SvgjsG1106" transform="translate(25,374)"><path id="SvgjsPath1107" d="M 0 0L 225 0L 225 120L 0 120Z" stroke="none" fill="none"></path><g id="SvgjsG1108"><text id="SvgjsText1109" font-family="微软雅黑" text-anchor="middle" font-size="13px" width="225px" fill="#323232" font-weight="400" align="middle" lineHeight="150%" anchor="middle" family="微软雅黑" size="13px" weight="400" font-style="" opacity="1" y="-2.75" transform="rotate(0)"><tspan id="SvgjsTspan1110" dy="19" x="112.5"><tspan id="SvgjsTspan1111" style="text-decoration:;">失误 / 错误</tspan></tspan><tspan id="SvgjsTspan1112" dy="19" x="112.5"><tspan id="SvgjsTspan1113" style="text-decoration:;">矛盾 / 紊乱</tspan></tspan><tspan id="SvgjsTspan1114" dy="19" x="112.5"><tspan id="SvgjsTspan1115" style="text-decoration:;">记忆丧失 / 奇异世界</tspan></tspan><tspan id="SvgjsTspan1116" dy="19" x="112.5"><tspan id="SvgjsTspan1117" style="text-decoration:;">信息过多 / 信息过少</tspan></tspan><tspan id="SvgjsTspan1118" dy="19" x="112.5"><tspan id="SvgjsTspan1119" style="text-decoration:;">动作过快 / 大小异常</tspan></tspan><tspan id="SvgjsTspan1120" dy="19" x="112.5"><tspan id="SvgjsTspan1121" style="text-decoration:;">天崩地裂 / 法则失效</tspan></tspan></text></g></g><g id="SvgjsG1122" transform="translate(280,314)"><path id="SvgjsPath1123" d="M 0 4Q 0 0 4 0L 221 0Q 225 0 225 4L 225 255.5Q 225 259.5 221 259.5L 4 259.5Q 0 259.5 0 255.5Z" stroke="rgba(50,50,50,1)" stroke-width="1" fill="none"></path><g id="SvgjsG1124"><text id="SvgjsText1125" font-family="微软雅黑" text-anchor="middle" font-size="13px" width="205px" fill="#323232" font-weight="400" align="middle" lineHeight="125%" anchor="middle" family="微软雅黑" size="13px" weight="400" font-style="" opacity="1" y="119.125" transform="rotate(0)"></text></g></g><g id="SvgjsG1126" transform="translate(402.5,503.5)"><path id="SvgjsPath1127" d="M 0 4Q 0 0 4 0L 76 0Q 80 0 80 4L 80 36Q 80 40 76 40L 4 40Q 0 40 0 36Z" stroke="rgba(50,50,50,1)" stroke-width="1" fill-opacity="1" fill="#cce5ff"></path><g id="SvgjsG1128"><text id="SvgjsText1129" font-family="微软雅黑" text-anchor="middle" font-size="13px" width="60px" fill="#323232" font-weight="400" align="middle" lineHeight="125%" anchor="middle" family="微软雅黑" size="13px" weight="400" font-style="" opacity="1" y="9.375" transform="rotate(0)"><tspan id="SvgjsTspan1130" dy="16" x="40"><tspan id="SvgjsTspan1131" style="text-decoration:;">神秘感</tspan></tspan></text></g></g><g id="SvgjsG1132" transform="translate(302.5,503.5)"><path id="SvgjsPath1133" d="M 0 4Q 0 0 4 0L 76 0Q 80 0 80 4L 80 36Q 80 40 76 40L 4 40Q 0 40 0 36Z" stroke="rgba(50,50,50,1)" stroke-width="1" fill-opacity="1" fill="#cce5ff"></path><g id="SvgjsG1134"><text id="SvgjsText1135" font-family="微软雅黑" text-anchor="middle" font-size="13px" width="60px" fill="#323232" font-weight="400" align="middle" lineHeight="125%" anchor="middle" family="微软雅黑" size="13px" weight="400" font-style="" opacity="1" y="9.375" transform="rotate(0)"><tspan id="SvgjsTspan1136" dy="16" x="40"><tspan id="SvgjsTspan1137" style="text-decoration:;">濒死感</tspan></tspan></text></g></g><g id="SvgjsG1138" transform="translate(280,324)"><path id="SvgjsPath1139" d="M 0 0L 225 0L 225 40L 0 40Z" stroke="none" fill="none"></path><g id="SvgjsG1140"><text id="SvgjsText1141" font-family="微软雅黑" text-anchor="middle" font-size="15px" width="225px" fill="#323232" font-weight="400" align="middle" lineHeight="125%" anchor="middle" family="微软雅黑" size="15px" weight="400" font-style="" opacity="1" y="7.625" transform="rotate(0)"><tspan id="SvgjsTspan1142" dy="18" x="112.5"><tspan id="SvgjsTspan1143" style="text-decoration:;">死亡 😵</tspan></tspan></text></g></g><g id="SvgjsG1144" transform="translate(280,374)"><path id="SvgjsPath1145" d="M 0 0L 225 0L 225 120L 0 120Z" stroke="none" fill="none"></path><g id="SvgjsG1146"><text id="SvgjsText1147" font-family="微软雅黑" text-anchor="middle" font-size="13px" width="225px" fill="#323232" font-weight="400" align="middle" lineHeight="150%" anchor="middle" family="微软雅黑" size="13px" weight="400" font-style="" opacity="1" y="-12.75" transform="rotate(0)"><tspan id="SvgjsTspan1148" dy="19" x="112.5"><tspan id="SvgjsTspan1149" style="text-decoration:;">流血 / 受伤</tspan></tspan><tspan id="SvgjsTspan1150" dy="19" x="112.5"><tspan id="SvgjsTspan1151" style="text-decoration:;">疾病 / 灾害</tspan></tspan><tspan id="SvgjsTspan1152" dy="19" x="112.5"><tspan id="SvgjsTspan1153" style="text-decoration:;">幽灵 / 异类</tspan></tspan><tspan id="SvgjsTspan1154" dy="19" x="112.5"><tspan id="SvgjsTspan1155" style="text-decoration:;">尸体 / 僵尸</tspan></tspan><tspan id="SvgjsTspan1156" dy="19" x="112.5"><tspan id="SvgjsTspan1157" style="text-decoration:;">祭奠 / 坟墓</tspan></tspan><tspan id="SvgjsTspan1158" dy="19" x="112.5"><tspan id="SvgjsTspan1159" style="text-decoration:;">穷途末路 / 接近死亡</tspan></tspan><tspan id="SvgjsTspan1160" dy="19" x="112.5"><tspan id="SvgjsTspan1161" style="text-decoration:;"> </tspan></tspan></text></g></g><g id="SvgjsG1162" transform="translate(206,583.5)"><path id="SvgjsPath1163" d="M 0 0L 120 0L 120 40L 0 40Z" stroke="none" fill="none"></path><g id="SvgjsG1164"><text id="SvgjsText1165" font-family="&quot;Times New Roman&quot;" text-anchor="middle" font-size="13px" width="120px" fill="#e0e0e0" font-weight="400" align="middle" lineHeight="125%" anchor="middle" family="&quot;Times New Roman&quot;" size="13px" weight="400" font-style="" opacity="1" y="9.375" transform="rotate(0)"><tspan id="SvgjsTspan1166" dy="16" x="60"><tspan id="SvgjsTspan1167" style="text-decoration:;">www.kofes.cn</tspan></tspan></text></g></g></svg>