<svg id="SvgjsSvg1006" width="708" height="441" xmlns="http://www.w3.org/2000/svg" version="1.1" xmlns:xlink="http://www.w3.org/1999/xlink" xmlns:svgjs="http://svgjs.com/svgjs"><defs id="SvgjsDefs1007"><marker id="SvgjsMarker1068" markerWidth="12" markerHeight="8" refX="9" refY="4" viewBox="0 0 12 8" orient="auto" markerUnits="userSpaceOnUse" stroke-dasharray="0,0"><path id="SvgjsPath1069" d="M0,0 L12,4 L0,8 L0,0" fill="#323232" stroke="#323232" stroke-width="1"></path></marker><marker id="SvgjsMarker1072" markerWidth="12" markerHeight="8" refX="9" refY="4" viewBox="0 0 12 8" orient="auto" markerUnits="userSpaceOnUse" stroke-dasharray="0,0"><path id="SvgjsPath1073" d="M0,0 L12,4 L0,8 L0,0" fill="#323232" stroke="#323232" stroke-width="1"></path></marker><marker id="SvgjsMarker1076" markerWidth="12" markerHeight="8" refX="9" refY="4" viewBox="0 0 12 8" orient="auto" markerUnits="userSpaceOnUse" stroke-dasharray="0,0"><path id="SvgjsPath1077" d="M0,0 L12,4 L0,8 L0,0" fill="#323232" stroke="#323232" stroke-width="1"></path></marker><marker id="SvgjsMarker1080" markerWidth="12" markerHeight="8" refX="9" refY="4" viewBox="0 0 12 8" orient="auto" markerUnits="userSpaceOnUse" stroke-dasharray="0,0"><path id="SvgjsPath1081" d="M0,0 L12,4 L0,8 L0,0" fill="#323232" stroke="#323232" stroke-width="1"></path></marker><marker id="SvgjsMarker1084" markerWidth="12" markerHeight="8" refX="9" refY="4" viewBox="0 0 12 8" orient="auto" markerUnits="userSpaceOnUse" stroke-dasharray="0,0"><path id="SvgjsPath1085" d="M0,0 L12,4 L0,8 L0,0" fill="#323232" stroke="#323232" stroke-width="1"></path></marker><marker id="SvgjsMarker1088" markerWidth="12" markerHeight="8" refX="9" refY="4" viewBox="0 0 12 8" orient="auto" markerUnits="userSpaceOnUse" stroke-dasharray="0,0"><path id="SvgjsPath1089" d="M0,0 L12,4 L0,8 L0,0" fill="#323232" stroke="#323232" stroke-width="1"></path></marker><marker id="SvgjsMarker1092" markerWidth="12" markerHeight="8" refX="9" refY="4" viewBox="0 0 12 8" orient="auto" markerUnits="userSpaceOnUse" stroke-dasharray="0,0"><path id="SvgjsPath1093" d="M0,0 L12,4 L0,8 L0,0" fill="#323232" stroke="#323232" stroke-width="1"></path></marker><marker id="SvgjsMarker1096" markerWidth="12" markerHeight="8" refX="9" refY="4" viewBox="0 0 12 8" orient="auto" markerUnits="userSpaceOnUse" stroke-dasharray="0,0"><path id="SvgjsPath1097" d="M0,0 L12,4 L0,8 L0,0" fill="#323232" stroke="#323232" stroke-width="1"></path></marker></defs><g id="SvgjsG1008"><path id="SvgjsPath1009" d="M356 25L356 408" stroke-dasharray="8,5" stroke="#323232" stroke-width="1" fill="none"></path></g><g id="SvgjsG1010"><path id="SvgjsPath1011" d="M25 216L683 216" stroke-dasharray="8,5" stroke="#323232" stroke-width="1" fill="none"></path></g><g id="SvgjsG1012" transform="translate(57,196)"><path id="SvgjsPath1013" d="M 0 4Q 0 0 4 0L 116 0Q 120 0 120 4L 120 36Q 120 40 116 40L 4 40Q 0 40 0 36Z" stroke="rgba(50,50,50,1)" stroke-width="1" fill-opacity="1" fill="#ffffff"></path><g id="SvgjsG1014"><text id="SvgjsText1015" font-family="微软雅黑" text-anchor="middle" font-size="13px" width="100px" fill="#323232" font-weight="400" align="middle" lineHeight="125%" anchor="middle" family="微软雅黑" size="13px" weight="400" font-style="" opacity="1" y="9.375" transform="rotate(0)"><tspan id="SvgjsTspan1016" dy="16" x="60"><tspan id="SvgjsTspan1017" style="text-decoration:;">开始</tspan></tspan></text></g></g><g id="SvgjsG1018" transform="translate(177,126)"><path id="SvgjsPath1019" d="M 0 4Q 0 0 4 0L 116 0Q 120 0 120 4L 120 36Q 120 40 116 40L 4 40Q 0 40 0 36Z" stroke="rgba(50,50,50,1)" stroke-width="1" fill-opacity="1" fill="#ffffff"></path><g id="SvgjsG1020"><text id="SvgjsText1021" font-family="微软雅黑" text-anchor="middle" font-size="13px" width="100px" fill="#323232" font-weight="400" align="middle" lineHeight="125%" anchor="middle" family="微软雅黑" size="13px" weight="400" font-style="" opacity="1" y="9.375" transform="rotate(0)"><tspan id="SvgjsTspan1022" dy="16" x="60"><tspan id="SvgjsTspan1023" style="text-decoration:;">冒险召唤</tspan></tspan></text></g></g><g id="SvgjsG1024" transform="translate(417,126)"><path id="SvgjsPath1025" d="M 0 4Q 0 0 4 0L 116 0Q 120 0 120 4L 120 36Q 120 40 116 40L 4 40Q 0 40 0 36Z" stroke="rgba(50,50,50,1)" stroke-width="1" fill-opacity="1" fill="#ffffff"></path><g id="SvgjsG1026"><text id="SvgjsText1027" font-family="微软雅黑" text-anchor="middle" font-size="13px" width="100px" fill="#323232" font-weight="400" align="middle" lineHeight="125%" anchor="middle" family="微软雅黑" size="13px" weight="400" font-style="" opacity="1" y="9.375" transform="rotate(0)"><tspan id="SvgjsTspan1028" dy="16" x="60"><tspan id="SvgjsTspan1029" style="text-decoration:;">遇到敌人、伙伴</tspan></tspan></text></g></g><g id="SvgjsG1030" transform="translate(57,56)"><path id="SvgjsPath1031" d="M 0 0L 60 0L 60 40L 0 40Z" stroke="none" fill="none"></path><g id="SvgjsG1032"><text id="SvgjsText1033" font-family="微软雅黑" text-anchor="middle" font-size="13px" width="60px" fill="#4caf50" font-weight="400" align="middle" lineHeight="125%" anchor="middle" family="微软雅黑" size="13px" weight="400" font-style="" opacity="1" y="9.375" transform="rotate(0)"><tspan id="SvgjsTspan1034" dy="16" x="30"><tspan id="SvgjsTspan1035" style="text-decoration:;">缘起</tspan></tspan></text></g></g><g id="SvgjsG1036" transform="translate(297,56)"><path id="SvgjsPath1037" d="M 0 4Q 0 0 4 0L 116 0Q 120 0 120 4L 120 36Q 120 40 116 40L 4 40Q 0 40 0 36Z" stroke="rgba(50,50,50,1)" stroke-width="1" fill-opacity="1" fill="#ffffff"></path><g id="SvgjsG1038"><text id="SvgjsText1039" font-family="微软雅黑" text-anchor="middle" font-size="13px" width="100px" fill="#323232" font-weight="400" align="middle" lineHeight="125%" anchor="middle" family="微软雅黑" size="13px" weight="400" font-style="" opacity="1" y="9.375" transform="rotate(0)"><tspan id="SvgjsTspan1040" dy="16" x="60"><tspan id="SvgjsTspan1041" style="text-decoration:;">遇到导师</tspan></tspan></text></g></g><g id="SvgjsG1042" transform="translate(537,196)"><path id="SvgjsPath1043" d="M 0 4Q 0 0 4 0L 116 0Q 120 0 120 4L 120 36Q 120 40 116 40L 4 40Q 0 40 0 36Z" stroke="rgba(50,50,50,1)" stroke-width="1" fill-opacity="1" fill="#ffffff"></path><g id="SvgjsG1044"><text id="SvgjsText1045" font-family="微软雅黑" text-anchor="middle" font-size="13px" width="100px" fill="#323232" font-weight="400" align="middle" lineHeight="125%" anchor="middle" family="微软雅黑" size="13px" weight="400" font-style="" opacity="1" y="9.375" transform="rotate(0)"><tspan id="SvgjsTspan1046" dy="16" x="60"><tspan id="SvgjsTspan1047" style="text-decoration:;">历尽磨难</tspan></tspan></text></g></g><g id="SvgjsG1048" transform="translate(417,266)"><path id="SvgjsPath1049" d="M 0 4Q 0 0 4 0L 116 0Q 120 0 120 4L 120 36Q 120 40 116 40L 4 40Q 0 40 0 36Z" stroke="rgba(50,50,50,1)" stroke-width="1" fill-opacity="1" fill="#ffffff"></path><g id="SvgjsG1050"><text id="SvgjsText1051" font-family="微软雅黑" text-anchor="middle" font-size="13px" width="100px" fill="#323232" font-weight="400" align="middle" lineHeight="125%" anchor="middle" family="微软雅黑" size="13px" weight="400" font-style="" opacity="1" y="9.375" transform="rotate(0)"><tspan id="SvgjsTspan1052" dy="16" x="60"><tspan id="SvgjsTspan1053" style="text-decoration:;">掌握要义</tspan></tspan></text></g></g><g id="SvgjsG1054" transform="translate(297,336)"><path id="SvgjsPath1055" d="M 0 4Q 0 0 4 0L 116 0Q 120 0 120 4L 120 36Q 120 40 116 40L 4 40Q 0 40 0 36Z" stroke="rgba(50,50,50,1)" stroke-width="1" fill-opacity="1" fill="#ffffff"></path><g id="SvgjsG1056"><text id="SvgjsText1057" font-family="微软雅黑" text-anchor="middle" font-size="13px" width="100px" fill="#323232" font-weight="400" align="middle" lineHeight="125%" anchor="middle" family="微软雅黑" size="13px" weight="400" font-style="" opacity="1" y="9.375" transform="rotate(0)"><tspan id="SvgjsTspan1058" dy="16" x="60"><tspan id="SvgjsTspan1059" style="text-decoration:;">达成目的</tspan></tspan></text></g></g><g id="SvgjsG1060" transform="translate(177,266)"><path id="SvgjsPath1061" d="M 0 4Q 0 0 4 0L 116 0Q 120 0 120 4L 120 36Q 120 40 116 40L 4 40Q 0 40 0 36Z" stroke="rgba(50,50,50,1)" stroke-width="1" fill-opacity="1" fill="#ffffff"></path><g id="SvgjsG1062"><text id="SvgjsText1063" font-family="微软雅黑" text-anchor="middle" font-size="13px" width="100px" fill="#323232" font-weight="400" align="middle" lineHeight="125%" anchor="middle" family="微软雅黑" size="13px" weight="400" font-style="" opacity="1" y="9.375" transform="rotate(0)"><tspan id="SvgjsTspan1064" dy="16" x="60"><tspan id="SvgjsTspan1065" style="text-decoration:;">回家之路</tspan></tspan></text></g></g><g id="SvgjsG1066"><path id="SvgjsPath1067" d="M117 195.5L117 146L175.2 146" stroke="#323232" stroke-width="1" fill="none" marker-end="url(#SvgjsMarker1068)"></path></g><g id="SvgjsG1070"><path id="SvgjsPath1071" d="M237 125.5L237 76L295.20000000000005 76" stroke="#323232" stroke-width="1" fill="none" marker-end="url(#SvgjsMarker1072)"></path></g><g id="SvgjsG1074"><path id="SvgjsPath1075" d="M417.5 76L477 76L477 124.19999999999999" stroke="#323232" stroke-width="1" fill="none" marker-end="url(#SvgjsMarker1076)"></path></g><g id="SvgjsG1078"><path id="SvgjsPath1079" d="M537.5 146L597 146L597 194.2" stroke="#323232" stroke-width="1" fill="none" marker-end="url(#SvgjsMarker1080)"></path></g><g id="SvgjsG1082"><path id="SvgjsPath1083" d="M597 236.5L597 286L538.8 286" stroke="#323232" stroke-width="1" fill="none" marker-end="url(#SvgjsMarker1084)"></path></g><g id="SvgjsG1086"><path id="SvgjsPath1087" d="M477 306.5L477 356L418.79999999999995 356" stroke="#323232" stroke-width="1" fill="none" marker-end="url(#SvgjsMarker1088)"></path></g><g id="SvgjsG1090"><path id="SvgjsPath1091" d="M296.5 356L237 356L237 307.8" stroke="#323232" stroke-width="1" fill="none" marker-end="url(#SvgjsMarker1092)"></path></g><g id="SvgjsG1094"><path id="SvgjsPath1095" d="M176.5 286L117 286L117 237.8" stroke="#323232" stroke-width="1" fill="none" marker-end="url(#SvgjsMarker1096)"></path></g><g id="SvgjsG1098" transform="translate(597,56)"><path id="SvgjsPath1099" d="M 0 0L 60 0L 60 40L 0 40Z" stroke="none" fill="none"></path><g id="SvgjsG1100"><text id="SvgjsText1101" font-family="微软雅黑" text-anchor="middle" font-size="13px" width="60px" fill="#4caf50" font-weight="400" align="middle" lineHeight="125%" anchor="middle" family="微软雅黑" size="13px" weight="400" font-style="" opacity="1" y="9.375" transform="rotate(0)"><tspan id="SvgjsTspan1102" dy="16" x="30"><tspan id="SvgjsTspan1103" style="text-decoration:;">危机</tspan></tspan></text></g></g><g id="SvgjsG1104" transform="translate(597,336)"><path id="SvgjsPath1105" d="M 0 0L 60 0L 60 40L 0 40Z" stroke="none" fill="none"></path><g id="SvgjsG1106"><text id="SvgjsText1107" font-family="微软雅黑" text-anchor="middle" font-size="13px" width="60px" fill="#4caf50" font-weight="400" align="middle" lineHeight="125%" anchor="middle" family="微软雅黑" size="13px" weight="400" font-style="" opacity="1" y="9.375" transform="rotate(0)"><tspan id="SvgjsTspan1108" dy="16" x="30"><tspan id="SvgjsTspan1109" style="text-decoration:;">高潮</tspan></tspan></text></g></g><g id="SvgjsG1110" transform="translate(57,336)"><path id="SvgjsPath1111" d="M 0 0L 60 0L 60 40L 0 40Z" stroke="none" fill="none"></path><g id="SvgjsG1112"><text id="SvgjsText1113" font-family="微软雅黑" text-anchor="middle" font-size="13px" width="60px" fill="#4caf50" font-weight="400" align="middle" lineHeight="125%" anchor="middle" family="微软雅黑" size="13px" weight="400" font-style="" opacity="1" y="9.375" transform="rotate(0)"><tspan id="SvgjsTspan1114" dy="16" x="30"><tspan id="SvgjsTspan1115" style="text-decoration:;">结尾</tspan></tspan></text></g></g><g id="SvgjsG1116" transform="translate(537,376)"><path id="SvgjsPath1117" d="M 0 0L 120 0L 120 40L 0 40Z" stroke="none" fill="none"></path><g id="SvgjsG1118"><text id="SvgjsText1119" font-family="&quot;Times New Roman&quot;" text-anchor="middle" font-size="13px" width="120px" fill="#e0e0e0" font-weight="400" align="middle" lineHeight="125%" anchor="middle" family="&quot;Times New Roman&quot;" size="13px" weight="400" font-style="" opacity="1" y="9.375" transform="rotate(0)"><tspan id="SvgjsTspan1120" dy="16" x="60"><tspan id="SvgjsTspan1121" style="text-decoration:;">www.kofes.cn</tspan></tspan></text></g></g></svg>