<svg id="SvgjsSvg1006" width="530" height="359.75" xmlns="http://www.w3.org/2000/svg" version="1.1" xmlns:xlink="http://www.w3.org/1999/xlink" xmlns:svgjs="http://svgjs.com/svgjs"><defs id="SvgjsDefs1007"></defs><g id="SvgjsG1008" transform="translate(25,25)"><path id="SvgjsPath1009" d="M 0 4Q 0 0 4 0L 221 0Q 225 0 225 4L 225 255.5Q 225 259.5 221 259.5L 4 259.5Q 0 259.5 0 255.5Z" stroke="rgba(50,50,50,1)" stroke-width="1" fill="none"></path><g id="SvgjsG1010"><text id="SvgjsText1011" font-family="微软雅黑" text-anchor="middle" font-size="13px" width="205px" fill="#323232" font-weight="400" align="middle" lineHeight="125%" anchor="middle" family="微软雅黑" size="13px" weight="400" font-style="" opacity="1" y="119.125" transform="rotate(0)"></text></g></g><g id="SvgjsG1012" transform="translate(147.5,214.5)"><path id="SvgjsPath1013" d="M 0 4Q 0 0 4 0L 76 0Q 80 0 80 4L 80 36Q 80 40 76 40L 4 40Q 0 40 0 36Z" stroke="rgba(50,50,50,1)" stroke-width="1" fill-opacity="1" fill="#c8e6c9"></path><g id="SvgjsG1014"><text id="SvgjsText1015" font-family="微软雅黑" text-anchor="middle" font-size="13px" width="60px" fill="#323232" font-weight="400" align="middle" lineHeight="125%" anchor="middle" family="微软雅黑" size="13px" weight="400" font-style="" opacity="1" y="9.375" transform="rotate(0)"><tspan id="SvgjsTspan1016" dy="16" x="40"><tspan id="SvgjsTspan1017" style="text-decoration:;">祈祷感</tspan></tspan></text></g></g><g id="SvgjsG1018" transform="translate(47.5,214.5)"><path id="SvgjsPath1019" d="M 0 4Q 0 0 4 0L 76 0Q 80 0 80 4L 80 36Q 80 40 76 40L 4 40Q 0 40 0 36Z" stroke="rgba(50,50,50,1)" stroke-width="1" fill-opacity="1" fill="#c8e6c9"></path><g id="SvgjsG1020"><text id="SvgjsText1021" font-family="微软雅黑" text-anchor="middle" font-size="13px" width="60px" fill="#323232" font-weight="400" align="middle" lineHeight="125%" anchor="middle" family="微软雅黑" size="13px" weight="400" font-style="" opacity="1" y="9.375" transform="rotate(0)"><tspan id="SvgjsTspan1022" dy="16" x="40"><tspan id="SvgjsTspan1023" style="text-decoration:;">赌博感</tspan></tspan></text></g></g><g id="SvgjsG1024" transform="translate(25,35)"><path id="SvgjsPath1025" d="M 0 0L 225 0L 225 40L 0 40Z" stroke="none" fill="none"></path><g id="SvgjsG1026"><text id="SvgjsText1027" font-family="微软雅黑" text-anchor="middle" font-size="15px" width="225px" fill="#323232" font-weight="400" align="middle" lineHeight="125%" anchor="middle" family="微软雅黑" size="15px" weight="400" font-style="" opacity="1" y="7.625" transform="rotate(0)"><tspan id="SvgjsTspan1028" dy="18" x="112.5"><tspan id="SvgjsTspan1029" style="text-decoration:;">侥幸和偶然 🥳</tspan></tspan></text></g></g><g id="SvgjsG1030" transform="translate(25,85)"><path id="SvgjsPath1031" d="M 0 0L 225 0L 225 120L 0 120Z" stroke="none" fill="none"></path><g id="SvgjsG1032"><text id="SvgjsText1033" font-family="微软雅黑" text-anchor="middle" font-size="13px" width="225px" fill="#323232" font-weight="400" align="middle" lineHeight="150%" anchor="middle" family="微软雅黑" size="13px" weight="400" font-style="" opacity="1" y="-2.75" transform="rotate(0)"><tspan id="SvgjsTspan1034" dy="19" x="112.5"><tspan id="SvgjsTspan1035" style="text-decoration:;">赌博</tspan></tspan><tspan id="SvgjsTspan1036" dy="19" x="112.5"><tspan id="SvgjsTspan1037" style="text-decoration:;">抽签</tspan></tspan><tspan id="SvgjsTspan1038" dy="19" x="112.5"><tspan id="SvgjsTspan1039" style="text-decoration:;">祈祷</tspan></tspan><tspan id="SvgjsTspan1040" dy="19" x="112.5"><tspan id="SvgjsTspan1041" style="text-decoration:;">偶然</tspan></tspan><tspan id="SvgjsTspan1042" dy="19" x="112.5"><tspan id="SvgjsTspan1043" style="text-decoration:;">幸运 / 锦鲤</tspan></tspan><tspan id="SvgjsTspan1044" dy="19" x="112.5"><tspan id="SvgjsTspan1045" style="text-decoration:;">主意 / 想法</tspan></tspan></text></g></g><g id="SvgjsG1046" transform="translate(280,25)"><path id="SvgjsPath1047" d="M 0 4Q 0 0 4 0L 221 0Q 225 0 225 4L 225 255.5Q 225 259.5 221 259.5L 4 259.5Q 0 259.5 0 255.5Z" stroke="rgba(50,50,50,1)" stroke-width="1" fill="none"></path><g id="SvgjsG1048"><text id="SvgjsText1049" font-family="微软雅黑" text-anchor="middle" font-size="13px" width="205px" fill="#323232" font-weight="400" align="middle" lineHeight="125%" anchor="middle" family="微软雅黑" size="13px" weight="400" font-style="" opacity="1" y="119.125" transform="rotate(0)"></text></g></g><g id="SvgjsG1050" transform="translate(402.5,214.5)"><path id="SvgjsPath1051" d="M 0 4Q 0 0 4 0L 76 0Q 80 0 80 4L 80 36Q 80 40 76 40L 4 40Q 0 40 0 36Z" stroke="rgba(50,50,50,1)" stroke-width="1" fill-opacity="1" fill="#f5f5f5"></path><g id="SvgjsG1052"><text id="SvgjsText1053" font-family="微软雅黑" text-anchor="middle" font-size="13px" width="60px" fill="#323232" font-weight="400" align="middle" lineHeight="125%" anchor="middle" family="微软雅黑" size="13px" weight="400" font-style="" opacity="1" y="9.375" transform="rotate(0)"><tspan id="SvgjsTspan1054" dy="16" x="40"><tspan id="SvgjsTspan1055" style="text-decoration:;">羞愧感</tspan></tspan></text></g></g><g id="SvgjsG1056" transform="translate(302.5,214.5)"><path id="SvgjsPath1057" d="M 0 4Q 0 0 4 0L 76 0Q 80 0 80 4L 80 36Q 80 40 76 40L 4 40Q 0 40 0 36Z" stroke="rgba(50,50,50,1)" stroke-width="1" fill-opacity="1" fill="#f5f5f5"></path><g id="SvgjsG1058"><text id="SvgjsText1059" font-family="微软雅黑" text-anchor="middle" font-size="13px" width="60px" fill="#323232" font-weight="400" align="middle" lineHeight="125%" anchor="middle" family="微软雅黑" size="13px" weight="400" font-style="" opacity="1" y="9.375" transform="rotate(0)"><tspan id="SvgjsTspan1060" dy="16" x="40"><tspan id="SvgjsTspan1061" style="text-decoration:;">秘密感</tspan></tspan></text></g></g><g id="SvgjsG1062" transform="translate(280,35)"><path id="SvgjsPath1063" d="M 0 0L 225 0L 225 40L 0 40Z" stroke="none" fill="none"></path><g id="SvgjsG1064"><text id="SvgjsText1065" font-family="微软雅黑" text-anchor="middle" font-size="15px" width="225px" fill="#323232" font-weight="400" align="middle" lineHeight="125%" anchor="middle" family="微软雅黑" size="15px" weight="400" font-style="" opacity="1" y="7.625" transform="rotate(0)"><tspan id="SvgjsTspan1066" dy="18" x="112.5"><tspan id="SvgjsTspan1067" style="text-decoration:;">个人隐私 😳</tspan></tspan></text></g></g><g id="SvgjsG1068" transform="translate(280,85)"><path id="SvgjsPath1069" d="M 0 0L 225 0L 225 120L 0 120Z" stroke="none" fill="none"></path><g id="SvgjsG1070"><text id="SvgjsText1071" font-family="微软雅黑" text-anchor="middle" font-size="13px" width="225px" fill="#323232" font-weight="400" align="middle" lineHeight="150%" anchor="middle" family="微软雅黑" size="13px" weight="400" font-style="" opacity="1" y="-2.75" transform="rotate(0)"><tspan id="SvgjsTspan1072" dy="19" x="112.5"><tspan id="SvgjsTspan1073" style="text-decoration:;">用户的过去</tspan></tspan><tspan id="SvgjsTspan1074" dy="19" x="112.5"><tspan id="SvgjsTspan1075" style="text-decoration:;">用户的秘密</tspan></tspan><tspan id="SvgjsTspan1076" dy="19" x="112.5"><tspan id="SvgjsTspan1077" style="text-decoration:;">用户的财产</tspan></tspan><tspan id="SvgjsTspan1078" dy="19" x="112.5"><tspan id="SvgjsTspan1079" style="text-decoration:;">用户的性格</tspan></tspan><tspan id="SvgjsTspan1080" dy="19" x="112.5"><tspan id="SvgjsTspan1081" style="text-decoration:;">用户的品味</tspan></tspan><tspan id="SvgjsTspan1082" dy="19" x="112.5"><tspan id="SvgjsTspan1083" style="text-decoration:;">用户的个人信息</tspan></tspan></text></g></g><g id="SvgjsG1084" transform="translate(205,294.75)"><path id="SvgjsPath1085" d="M 0 0L 120 0L 120 40L 0 40Z" stroke="none" fill="none"></path><g id="SvgjsG1086"><text id="SvgjsText1087" font-family="&quot;Times New Roman&quot;" text-anchor="middle" font-size="13px" width="120px" fill="#e0e0e0" font-weight="400" align="middle" lineHeight="125%" anchor="middle" family="&quot;Times New Roman&quot;" size="13px" weight="400" font-style="" opacity="1" y="9.375" transform="rotate(0)"><tspan id="SvgjsTspan1088" dy="16" x="60"><tspan id="SvgjsTspan1089" style="text-decoration:;">www.kofes.cn</tspan></tspan></text></g></g></svg>