<svg id="SvgjsSvg1054" width="410" height="273" xmlns="http://www.w3.org/2000/svg" version="1.1" xmlns:xlink="http://www.w3.org/1999/xlink" xmlns:svgjs="http://svgjs.com/svgjs"><defs id="SvgjsDefs1055"><marker id="SvgjsMarker1084" markerWidth="12" markerHeight="8" refX="9" refY="4" viewBox="0 0 12 8" orient="auto" markerUnits="userSpaceOnUse" stroke-dasharray="0,0"><path id="SvgjsPath1085" d="M0,0 L12,4 L0,8 L0,0" fill="#323232" stroke="#323232" stroke-width="1"></path></marker><marker id="SvgjsMarker1100" markerWidth="12" markerHeight="8" refX="9" refY="4" viewBox="0 0 12 8" orient="auto" markerUnits="userSpaceOnUse" stroke-dasharray="0,0"><path id="SvgjsPath1101" d="M0,0 L12,4 L0,8 L0,0" fill="#323232" stroke="#323232" stroke-width="1"></path></marker></defs><g id="SvgjsG1056" transform="translate(25,108)"><path id="SvgjsPath1057" d="M 0 4Q 0 0 4 0L 116 0Q 120 0 120 4L 120 36Q 120 40 116 40L 4 40Q 0 40 0 36Z" stroke="rgba(50,50,50,1)" stroke-width="1" fill-opacity="1" fill="#ffffff"></path><g id="SvgjsG1058"><text id="SvgjsText1059" font-family="微软雅黑" text-anchor="middle" font-size="13px" width="100px" fill="#323232" font-weight="400" align="middle" lineHeight="125%" anchor="middle" family="微软雅黑" size="13px" weight="400" font-style="" opacity="1" y="9.375" transform="rotate(0)"><tspan id="SvgjsTspan1060" dy="16" x="60"><tspan id="SvgjsTspan1061" style="text-decoration:;">主人公</tspan></tspan></text></g></g><g id="SvgjsG1062" transform="translate(265,108)"><path id="SvgjsPath1063" d="M 0 4Q 0 0 4 0L 116 0Q 120 0 120 4L 120 36Q 120 40 116 40L 4 40Q 0 40 0 36Z" stroke="rgba(50,50,50,1)" stroke-width="1" fill-opacity="1" fill="#ffffff"></path><g id="SvgjsG1064"><text id="SvgjsText1065" font-family="微软雅黑" text-anchor="middle" font-size="13px" width="100px" fill="#323232" font-weight="400" align="middle" lineHeight="125%" anchor="middle" family="微软雅黑" size="13px" weight="400" font-style="" opacity="1" y="9.375" transform="rotate(0)"><tspan id="SvgjsTspan1066" dy="16" x="60"><tspan id="SvgjsTspan1067" style="text-decoration:;">玩家</tspan></tspan></text></g></g><g id="SvgjsG1068"><path id="SvgjsPath1069" d="M203 50L203 128L203 128L203 206" stroke-dasharray="8,5" stroke="#323232" stroke-width="1" fill="none"></path></g><g id="SvgjsG1070" transform="translate(55,208)"><path id="SvgjsPath1071" d="M 0 0L 60 0L 60 40L 0 40Z" stroke="none" fill="none"></path><g id="SvgjsG1072"><text id="SvgjsText1073" font-family="微软雅黑" text-anchor="middle" font-size="13px" width="60px" fill="#4caf50" font-weight="400" align="middle" lineHeight="125%" anchor="middle" family="微软雅黑" size="13px" weight="400" font-style="" opacity="1" y="9.375" transform="rotate(0)"><tspan id="SvgjsTspan1074" dy="16" x="30"><tspan id="SvgjsTspan1075" style="text-decoration:;">虚拟游戏</tspan></tspan></text></g></g><g id="SvgjsG1076" transform="translate(295,208)"><path id="SvgjsPath1077" d="M 0 0L 60 0L 60 40L 0 40Z" stroke="none" fill="none"></path><g id="SvgjsG1078"><text id="SvgjsText1079" font-family="微软雅黑" text-anchor="middle" font-size="13px" width="60px" fill="#4caf50" font-weight="400" align="middle" lineHeight="125%" anchor="middle" family="微软雅黑" size="13px" weight="400" font-style="" opacity="1" y="9.375" transform="rotate(0)"><tspan id="SvgjsTspan1080" dy="16" x="30"><tspan id="SvgjsTspan1081" style="text-decoration:;">现实世界</tspan></tspan></text></g></g><g id="SvgjsG1082"><path id="SvgjsPath1083" d="M85 66L85 86.5L85 86.5L85 106.19999999999999" stroke="#323232" stroke-width="1" fill="none" marker-end="url(#SvgjsMarker1084)"></path></g><g id="SvgjsG1086" transform="translate(55,25)"><path id="SvgjsPath1087" d="M 0 0L 60 0L 60 40L 0 40Z" stroke="none" fill="none"></path><g id="SvgjsG1088"><text id="SvgjsText1089" font-family="微软雅黑" text-anchor="middle" font-size="13px" width="60px" fill="#dd1144" font-weight="400" align="middle" lineHeight="125%" anchor="middle" family="微软雅黑" size="13px" weight="400" font-style="" opacity="1" y="9.375" transform="rotate(0)"><tspan id="SvgjsTspan1090" dy="16" x="30"><tspan id="SvgjsTspan1091" style="text-decoration:;">打击</tspan></tspan></text></g></g><g id="SvgjsG1092" transform="translate(265,25)"><path id="SvgjsPath1093" d="M 0 30C 0 -10 120 -10 120 30Q 117.6 58.8 60 60Q 40 60 20 54L 0 60L 14.040000000000001 51.42Q 0 42 0 30" stroke="rgba(50,50,50,1)" stroke-width="1" fill-opacity="1" fill="#ffffff"></path><g id="SvgjsG1094"><text id="SvgjsText1095" font-family="微软雅黑" text-anchor="middle" font-size="13px" width="100px" fill="#323232" font-weight="400" align="middle" lineHeight="125%" anchor="middle" family="微软雅黑" size="13px" weight="400" font-style="" opacity="1" y="19.375" transform="rotate(0)"><tspan id="SvgjsTspan1096" dy="16" x="60"><tspan id="SvgjsTspan1097" style="text-decoration:;">好像挺痛苦的</tspan></tspan></text></g></g><g id="SvgjsG1098"><path id="SvgjsPath1099" d="M264.5 128L205 128L205 128L146.79999999999995 128" stroke-dasharray="8,5" stroke="#323232" stroke-width="1" fill="none" marker-end="url(#SvgjsMarker1100)"></path></g><g id="SvgjsG1102" transform="translate(205,88)"><path id="SvgjsPath1103" d="M 0 0L 60 0L 60 40L 0 40Z" stroke="none" fill="none"></path><g id="SvgjsG1104"><text id="SvgjsText1105" font-family="微软雅黑" text-anchor="middle" font-size="13px" width="60px" fill="#4caf50" font-weight="400" align="middle" lineHeight="125%" anchor="middle" family="微软雅黑" size="13px" weight="400" font-style="" opacity="1" y="9.375" transform="rotate(0)"><tspan id="SvgjsTspan1106" dy="16" x="30"><tspan id="SvgjsTspan1107" style="text-decoration:;">客观</tspan></tspan></text></g></g></svg>