<svg id="SvgjsSvg1006" width="500" height="125" xmlns="http://www.w3.org/2000/svg" version="1.1" xmlns:xlink="http://www.w3.org/1999/xlink" xmlns:svgjs="http://svgjs.com/svgjs"><defs id="SvgjsDefs1007"><marker id="SvgjsMarker1026" markerWidth="12" markerHeight="8" refX="9" refY="4" viewBox="0 0 12 8" orient="auto" markerUnits="userSpaceOnUse" stroke-dasharray="0,0"><path id="SvgjsPath1027" d="M0,0 L12,4 L0,8 L0,0" fill="#323232" stroke="#323232" stroke-width="1"></path></marker></defs><g id="SvgjsG1008" transform="translate(25,25)"><path id="SvgjsPath1009" d="M 0 4Q 0 0 4 0L 146 0Q 150 0 150 4L 150 71Q 150 75 146 75L 4 75Q 0 75 0 71Z" stroke="rgba(50,50,50,1)" stroke-width="1" fill-opacity="1" fill="#ffffff"></path><g id="SvgjsG1010"><text id="SvgjsText1011" font-family="微软雅黑" text-anchor="middle" font-size="15px" width="130px" fill="#323232" font-weight="400" align="middle" lineHeight="125%" anchor="middle" family="微软雅黑" size="15px" weight="400" font-style="" opacity="1" y="15.625" transform="rotate(0)"><tspan id="SvgjsTspan1012" dy="18" x="75"><tspan id="SvgjsTspan1013" style="text-decoration:;">能指</tspan></tspan><tspan id="SvgjsTspan1014" dy="18" x="75"><tspan id="SvgjsTspan1015" style="text-decoration:;"> </tspan></tspan></text></g></g><g id="SvgjsG1016" transform="translate(325,25)"><path id="SvgjsPath1017" d="M 0 4Q 0 0 4 0L 146 0Q 150 0 150 4L 150 71Q 150 75 146 75L 4 75Q 0 75 0 71Z" stroke="rgba(50,50,50,1)" stroke-width="1" fill-opacity="1" fill="#ffffff"></path><g id="SvgjsG1018"><text id="SvgjsText1019" font-family="微软雅黑" text-anchor="middle" font-size="15px" width="130px" fill="#323232" font-weight="400" align="middle" lineHeight="125%" anchor="middle" family="微软雅黑" size="15px" weight="400" font-style="" opacity="1" y="15.625" transform="rotate(0)"><tspan id="SvgjsTspan1020" dy="18" x="75"><tspan id="SvgjsTspan1021" style="text-decoration:;">示能</tspan></tspan><tspan id="SvgjsTspan1022" dy="18" x="75"><tspan id="SvgjsTspan1023" style="text-decoration:;"> </tspan></tspan></text></g></g><g id="SvgjsG1024"><path id="SvgjsPath1025" d="M175.5 62.5L250 62.5L250 62.5L323.20000000000005 62.5" stroke="#323232" stroke-width="1" fill="none" marker-end="url(#SvgjsMarker1026)"></path></g><g id="SvgjsG1028" transform="translate(25,60)"><path id="SvgjsPath1029" d="M 0 0L 150 0L 150 40L 0 40Z" stroke="none" fill="none"></path><g id="SvgjsG1030"><text id="SvgjsText1031" font-family="微软雅黑" text-anchor="middle" font-size="13px" width="150px" fill="#4caf50" font-weight="400" align="middle" lineHeight="125%" anchor="middle" family="微软雅黑" size="13px" weight="400" font-style="" opacity="1" y="9.375" transform="rotate(0)"><tspan id="SvgjsTspan1032" dy="16" x="75"><tspan id="SvgjsTspan1033" style="text-decoration:;">传达示能的信息</tspan></tspan></text></g></g><g id="SvgjsG1034" transform="translate(325,60)"><path id="SvgjsPath1035" d="M 0 0L 150 0L 150 40L 0 40Z" stroke="none" fill="none"></path><g id="SvgjsG1036"><text id="SvgjsText1037" font-family="微软雅黑" text-anchor="middle" font-size="13px" width="150px" fill="#4caf50" font-weight="400" align="middle" lineHeight="125%" anchor="middle" family="微软雅黑" size="13px" weight="400" font-style="" opacity="1" y="9.375" transform="rotate(0)"><tspan id="SvgjsTspan1038" dy="16" x="75"><tspan id="SvgjsTspan1039" style="text-decoration:;">要做什么的念头</tspan></tspan></text></g></g></svg>