<svg id="SvgjsSvg1006" width="382" height="312" xmlns="http://www.w3.org/2000/svg" version="1.1" xmlns:xlink="http://www.w3.org/1999/xlink" xmlns:svgjs="http://svgjs.com/svgjs"><defs id="SvgjsDefs1007"><marker id="SvgjsMarker1012" markerWidth="12" markerHeight="8" refX="9" refY="4" viewBox="0 0 12 8" orient="auto" markerUnits="userSpaceOnUse" stroke-dasharray="0,0"><path id="SvgjsPath1013" d="M0,0 L12,4 L0,8 L0,0" fill="#323232" stroke="#323232" stroke-width="1"></path></marker><marker id="SvgjsMarker1016" markerWidth="12" markerHeight="8" refX="9" refY="4" viewBox="0 0 12 8" orient="auto" markerUnits="userSpaceOnUse" stroke-dasharray="0,0"><path id="SvgjsPath1017" d="M0,0 L12,4 L0,8 L0,0" fill="#323232" stroke="#323232" stroke-width="1"></path></marker><marker id="SvgjsMarker1034" markerWidth="16" markerHeight="16" refX="13" refY="8" viewBox="0 0 16 16" orient="auto" markerUnits="userSpaceOnUse" stroke-dasharray="0,0"><circle id="SvgjsCircle1035" r="4" cx="8" cy="8" fill="#ffffff" stroke="#f44336" stroke-width="1"></circle></marker></defs><g id="SvgjsG1008"><path id="SvgjsPath1009" d="M55 150L174.5 150L174.5 150L294 150" stroke="#688f4e" stroke-width="1" fill="none"></path></g><g id="SvgjsG1010"><path id="SvgjsPath1011" d="M55 240L176 240L176 240L294.70000000000005 240" stroke="#323232" stroke-width="1" fill="none" marker-end="url(#SvgjsMarker1012)"></path></g><g id="SvgjsG1014"><path id="SvgjsPath1015" d="M55 240L55 150L55 150L55 62.30000000000001" stroke="#323232" stroke-width="1" fill="none" marker-end="url(#SvgjsMarker1016)"></path></g><g id="SvgjsG1018" transform="translate(25,25)"><path id="SvgjsPath1019" d="M 0 0L 60 0L 60 35L 0 35Z" stroke="none" fill="none"></path><g id="SvgjsG1020"><text id="SvgjsText1021" font-family="微软雅黑" text-anchor="middle" font-size="13px" width="60px" fill="#323232" font-weight="400" align="middle" lineHeight="125%" anchor="middle" family="微软雅黑" size="13px" weight="400" font-style="" opacity="1" y="6.875" transform="rotate(0)"><tspan id="SvgjsTspan1022" dy="16" x="30"><tspan id="SvgjsTspan1023" style="text-decoration:;">快慢</tspan></tspan></text></g></g><g id="SvgjsG1024" transform="translate(297,222)"><path id="SvgjsPath1025" d="M 0 0L 60 0L 60 35L 0 35Z" stroke="none" fill="none"></path><g id="SvgjsG1026"><text id="SvgjsText1027" font-family="微软雅黑" text-anchor="middle" font-size="13px" width="60px" fill="#323232" font-weight="400" align="middle" lineHeight="125%" anchor="middle" family="微软雅黑" size="13px" weight="400" font-style="" opacity="1" y="6.875" transform="rotate(0)"><tspan id="SvgjsTspan1028" dy="16" x="30"><tspan id="SvgjsTspan1029" style="text-decoration:;">时间</tspan></tspan></text></g></g><g id="SvgjsG1030"><path id="SvgjsPath1031" d="M55 148C 87 101 129 191 174 148" stroke="#f44336" stroke-width="1" fill="none"></path></g><g id="SvgjsG1032"><path id="SvgjsPath1033" d="M174 148C 221 99 247 190 293 148" stroke="#f44336" stroke-width="1" fill="none" marker-end="url(#SvgjsMarker1034)"></path></g><g id="SvgjsG1036" transform="translate(56,257)"><path id="SvgjsPath1037" d="M 0 0L 240 0L 240 30L 0 30Z" stroke="none" fill="none"></path><g id="SvgjsG1038"><text id="SvgjsText1039" font-family="微软雅黑" text-anchor="middle" font-size="13px" width="240px" fill="#688f4e" font-weight="400" align="middle" lineHeight="125%" anchor="middle" family="微软雅黑" size="13px" weight="400" font-style="" opacity="1" y="4.375" transform="rotate(0)"><tspan id="SvgjsTspan1040" dy="16" x="120"><tspan id="SvgjsTspan1041" style="text-decoration:;">在时间上感受快慢，相同时间不同历程</tspan></tspan></text></g></g></svg>