<svg id="SvgjsSvg1006" width="381" height="236" xmlns="http://www.w3.org/2000/svg" version="1.1" xmlns:xlink="http://www.w3.org/1999/xlink" xmlns:svgjs="http://svgjs.com/svgjs"><defs id="SvgjsDefs1007"><marker id="SvgjsMarker1044" markerWidth="12" markerHeight="8" refX="9" refY="4" viewBox="0 0 12 8" orient="auto" markerUnits="userSpaceOnUse" stroke-dasharray="0,0"><path id="SvgjsPath1045" d="M0,0 L12,4 L0,8 L0,0" fill="#323232" stroke="#323232" stroke-width="1"></path></marker><marker id="SvgjsMarker1048" markerWidth="12" markerHeight="8" refX="9" refY="4" viewBox="0 0 12 8" orient="auto" markerUnits="userSpaceOnUse" stroke-dasharray="0,0"><path id="SvgjsPath1049" d="M0,0 L12,4 L0,8 L0,0" fill="#323232" stroke="#323232" stroke-width="1"></path></marker></defs><g id="SvgjsG1008" transform="translate(25,27)"><path id="SvgjsPath1009" d="M 0 4Q 0 0 4 0L 146 0Q 150 0 150 4L 150 71Q 150 75 146 75L 4 75Q 0 75 0 71Z" stroke="rgba(50,50,50,1)" stroke-width="1" fill-opacity="1" fill="#ffffff"></path><g id="SvgjsG1010"><text id="SvgjsText1011" font-family="微软雅黑" text-anchor="middle" font-size="15px" width="130px" fill="#323232" font-weight="400" align="middle" lineHeight="125%" anchor="middle" family="微软雅黑" size="15px" weight="400" font-style="" opacity="1" y="15.625" transform="rotate(0)"><tspan id="SvgjsTspan1012" dy="18" x="75"><tspan id="SvgjsTspan1013" style="text-decoration:;">反转</tspan></tspan><tspan id="SvgjsTspan1014" dy="18" x="75"><tspan id="SvgjsTspan1015" style="text-decoration:;"> </tspan></tspan></text></g></g><g id="SvgjsG1016" transform="translate(25,62)"><path id="SvgjsPath1017" d="M 0 0L 150 0L 150 40L 0 40Z" stroke="none" fill="none"></path><g id="SvgjsG1018"><text id="SvgjsText1019" font-family="微软雅黑" text-anchor="middle" font-size="13px" width="150px" fill="#dd1144" font-weight="400" align="middle" lineHeight="125%" anchor="middle" family="微软雅黑" size="13px" weight="400" font-style="" opacity="1" y="9.375" transform="rotate(0)"><tspan id="SvgjsTspan1020" dy="16" x="75"><tspan id="SvgjsTspan1021" style="text-decoration:;">对前提坚信的背叛</tspan></tspan></text></g></g><g id="SvgjsG1022" transform="translate(25,132)"><path id="SvgjsPath1023" d="M 0 4Q 0 0 4 0L 146 0Q 150 0 150 4L 150 71Q 150 75 146 75L 4 75Q 0 75 0 71Z" stroke="rgba(50,50,50,1)" stroke-width="1" fill-opacity="1" fill="#ffffff"></path><g id="SvgjsG1024"><text id="SvgjsText1025" font-family="微软雅黑" text-anchor="middle" font-size="15px" width="130px" fill="#323232" font-weight="400" align="middle" lineHeight="125%" anchor="middle" family="微软雅黑" size="15px" weight="400" font-style="" opacity="1" y="15.625" transform="rotate(0)"><tspan id="SvgjsTspan1026" dy="18" x="75"><tspan id="SvgjsTspan1027" style="text-decoration:;">禁忌</tspan></tspan><tspan id="SvgjsTspan1028" dy="18" x="75"><tspan id="SvgjsTspan1029" style="text-decoration:;"> </tspan></tspan></text></g></g><g id="SvgjsG1030" transform="translate(25,167)"><path id="SvgjsPath1031" d="M 0 0L 150 0L 150 40L 0 40Z" stroke="none" fill="none"></path><g id="SvgjsG1032"><text id="SvgjsText1033" font-family="微软雅黑" text-anchor="middle" font-size="13px" width="150px" fill="#dd1144" font-weight="400" align="middle" lineHeight="125%" anchor="middle" family="微软雅黑" size="13px" weight="400" font-style="" opacity="1" y="9.375" transform="rotate(0)"><tspan id="SvgjsTspan1034" dy="16" x="75"><tspan id="SvgjsTspan1035" style="text-decoration:;">对日常坚信的背叛</tspan></tspan></text></g></g><g id="SvgjsG1036" transform="translate(236,96)"><path id="SvgjsPath1037" d="M 0 4Q 0 0 4 0L 116 0Q 120 0 120 4L 120 36Q 120 40 116 40L 4 40Q 0 40 0 36Z" stroke="rgba(50,50,50,1)" stroke-width="1" fill-opacity="1" fill="#ffffff"></path><g id="SvgjsG1038"><text id="SvgjsText1039" font-family="微软雅黑" text-anchor="middle" font-size="13px" width="100px" fill="#323232" font-weight="400" align="middle" lineHeight="125%" anchor="middle" family="微软雅黑" size="13px" weight="400" font-style="" opacity="1" y="9.375" transform="rotate(0)"><tspan id="SvgjsTspan1040" dy="16" x="60"><tspan id="SvgjsTspan1041" style="text-decoration:;">玩家</tspan></tspan></text></g></g><g id="SvgjsG1042"><path id="SvgjsPath1043" d="M175.5 64.5L296 64.5L296 94.19999999999999" stroke="#323232" stroke-width="1" fill="none" marker-end="url(#SvgjsMarker1044)"></path></g><g id="SvgjsG1046"><path id="SvgjsPath1047" d="M175.5 169.5L296 169.5L296 137.8" stroke="#323232" stroke-width="1" fill="none" marker-end="url(#SvgjsMarker1048)"></path></g><g id="SvgjsG1050" transform="translate(205,25)"><path id="SvgjsPath1051" d="M 0 0L 60 0L 60 40L 0 40Z" stroke="none" fill="none"></path><g id="SvgjsG1052"><text id="SvgjsText1053" font-family="微软雅黑" text-anchor="middle" font-size="13px" width="60px" fill="#4caf50" font-weight="400" align="middle" lineHeight="125%" anchor="middle" family="微软雅黑" size="13px" weight="400" font-style="" opacity="1" y="9.375" transform="rotate(0)"><tspan id="SvgjsTspan1054" dy="16" x="30"><tspan id="SvgjsTspan1055" style="text-decoration:;">惊喜刺激</tspan></tspan></text></g></g><g id="SvgjsG1056" transform="translate(205,171)"><path id="SvgjsPath1057" d="M 0 0L 60 0L 60 40L 0 40Z" stroke="none" fill="none"></path><g id="SvgjsG1058"><text id="SvgjsText1059" font-family="微软雅黑" text-anchor="middle" font-size="13px" width="60px" fill="#4caf50" font-weight="400" align="middle" lineHeight="125%" anchor="middle" family="微软雅黑" size="13px" weight="400" font-style="" opacity="1" y="9.375" transform="rotate(0)"><tspan id="SvgjsTspan1060" dy="16" x="30"><tspan id="SvgjsTspan1061" style="text-decoration:;">惊喜刺激</tspan></tspan></text></g></g></svg>