<svg id="SvgjsSvg1062" width="382" height="312" xmlns="http://www.w3.org/2000/svg" version="1.1" xmlns:xlink="http://www.w3.org/1999/xlink" xmlns:svgjs="http://svgjs.com/svgjs"><defs id="SvgjsDefs1063"><marker id="SvgjsMarker1068" markerWidth="12" markerHeight="8" refX="9" refY="4" viewBox="0 0 12 8" orient="auto" markerUnits="userSpaceOnUse" stroke-dasharray="0,0"><path id="SvgjsPath1069" d="M0,0 L12,4 L0,8 L0,0" fill="#323232" stroke="#323232" stroke-width="1"></path></marker><marker id="SvgjsMarker1072" markerWidth="12" markerHeight="8" refX="9" refY="4" viewBox="0 0 12 8" orient="auto" markerUnits="userSpaceOnUse" stroke-dasharray="0,0"><path id="SvgjsPath1073" d="M0,0 L12,4 L0,8 L0,0" fill="#323232" stroke="#323232" stroke-width="1"></path></marker><marker id="SvgjsMarker1090" markerWidth="16" markerHeight="16" refX="13" refY="8" viewBox="0 0 16 16" orient="auto" markerUnits="userSpaceOnUse" stroke-dasharray="0,0"><circle id="SvgjsCircle1091" r="4" cx="8" cy="8" fill="#ffffff" stroke="#f44336" stroke-width="1"></circle></marker><marker id="SvgjsMarker1100" markerWidth="16" markerHeight="16" refX="3" refY="8" viewBox="0 0 16 16" orient="auto" markerUnits="userSpaceOnUse" stroke-dasharray="0,0"><circle id="SvgjsCircle1101" r="4" cx="8" cy="8" fill="#ffffff" stroke="#323232" stroke-width="1"></circle></marker><marker id="SvgjsMarker1102" markerWidth="12" markerHeight="8" refX="9" refY="4" viewBox="0 0 12 8" orient="auto" markerUnits="userSpaceOnUse" stroke-dasharray="0,0"><path id="SvgjsPath1103" d="M0,0 L12,4 L0,8 L0,0" fill="#323232" stroke="#323232" stroke-width="1"></path></marker></defs><g id="SvgjsG1064"><path id="SvgjsPath1065" d="M55 150L174.5 150L174.5 150L294 150" stroke="#688f4e" stroke-width="1" fill="none"></path></g><g id="SvgjsG1066"><path id="SvgjsPath1067" d="M55 240L176 240L176 240L294.70000000000005 240" stroke="#323232" stroke-width="1" fill="none" marker-end="url(#SvgjsMarker1068)"></path></g><g id="SvgjsG1070"><path id="SvgjsPath1071" d="M55 240L55 150L55 150L55 62.30000000000001" stroke="#323232" stroke-width="1" fill="none" marker-end="url(#SvgjsMarker1072)"></path></g><g id="SvgjsG1074" transform="translate(25,25)"><path id="SvgjsPath1075" d="M 0 0L 60 0L 60 35L 0 35Z" stroke="none" fill="none"></path><g id="SvgjsG1076"><text id="SvgjsText1077" font-family="微软雅黑" text-anchor="middle" font-size="13px" width="60px" fill="#323232" font-weight="400" align="middle" lineHeight="125%" anchor="middle" family="微软雅黑" size="13px" weight="400" font-style="" opacity="1" y="6.875" transform="rotate(0)"><tspan id="SvgjsTspan1078" dy="16" x="30"><tspan id="SvgjsTspan1079" style="text-decoration:;">快慢</tspan></tspan></text></g></g><g id="SvgjsG1080" transform="translate(297,222)"><path id="SvgjsPath1081" d="M 0 0L 60 0L 60 35L 0 35Z" stroke="none" fill="none"></path><g id="SvgjsG1082"><text id="SvgjsText1083" font-family="微软雅黑" text-anchor="middle" font-size="13px" width="60px" fill="#323232" font-weight="400" align="middle" lineHeight="125%" anchor="middle" family="微软雅黑" size="13px" weight="400" font-style="" opacity="1" y="6.875" transform="rotate(0)"><tspan id="SvgjsTspan1084" dy="16" x="30"><tspan id="SvgjsTspan1085" style="text-decoration:;">时间</tspan></tspan></text></g></g><g id="SvgjsG1086"><path id="SvgjsPath1087" d="M55 148C 116 89 114 209 174 148" stroke="#f44336" stroke-width="1" fill="none"></path></g><g id="SvgjsG1088"><path id="SvgjsPath1089" d="M174 148C 236 89 236 209 293 148" stroke="#f44336" stroke-width="1" fill="none" marker-end="url(#SvgjsMarker1090)"></path></g><g id="SvgjsG1092" transform="translate(85,257)"><path id="SvgjsPath1093" d="M 0 0L 60 0L 60 30L 0 30Z" stroke="none" fill="none"></path><g id="SvgjsG1094"><text id="SvgjsText1095" font-family="微软雅黑" text-anchor="middle" font-size="13px" width="60px" fill="#000000" font-weight="400" align="middle" lineHeight="125%" anchor="middle" family="微软雅黑" size="13px" weight="400" font-style="" opacity="1" y="4.375" transform="rotate(0)"><tspan id="SvgjsTspan1096" dy="16" x="30"><tspan id="SvgjsTspan1097" style="text-decoration:;">埋下伏笔</tspan></tspan></text></g></g><g id="SvgjsG1098"><path id="SvgjsPath1099" d="M238 150C 190 119 160 120 117 150" stroke-dasharray="8,5" stroke="#323232" stroke-width="1" fill="none" marker-start="url(#SvgjsMarker1100)" marker-end="url(#SvgjsMarker1102)"></path><rect id="SvgjsRect1104" width="0" height="16" x="175.625" y="119.125" fill="#ffffff"></rect><text id="SvgjsText1105" font-family="微软雅黑" text-anchor="middle" font-size="13px" width="0px" fill="#323232" font-weight="400" align="top" lineHeight="16px" anchor="middle" family="微软雅黑" size="13px" weight="400" font-style="" opacity="1" y="116.5" transform="rotate(0)"><tspan id="SvgjsTspan1106" dy="16" x="175.625"><tspan id="SvgjsTspan1107" style="text-decoration:;">  </tspan></tspan></text></g><g id="SvgjsG1108" transform="translate(205,257)"><path id="SvgjsPath1109" d="M 0 0L 60 0L 60 30L 0 30Z" stroke="none" fill="none"></path><g id="SvgjsG1110"><text id="SvgjsText1111" font-family="微软雅黑" text-anchor="middle" font-size="13px" width="60px" fill="#688f4e" font-weight="400" align="middle" lineHeight="125%" anchor="middle" family="微软雅黑" size="13px" weight="400" font-style="" opacity="1" y="4.375" transform="rotate(0)"><tspan id="SvgjsTspan1112" dy="16" x="30"><tspan id="SvgjsTspan1113" style="text-decoration:;">真实含义</tspan></tspan></text></g></g><g id="SvgjsG1114"><path id="SvgjsPath1115" d="M115 256L115 206L115 206L115 155" stroke-dasharray="8,5" stroke="#323232" stroke-width="1" fill="none"></path></g><g id="SvgjsG1116"><path id="SvgjsPath1117" d="M235 256L235 206L235 206L235 155" stroke-dasharray="8,5" stroke="#323232" stroke-width="1" fill="none"></path></g></svg>