<svg id="SvgjsSvg1006" width="507.171875" height="428" xmlns="http://www.w3.org/2000/svg" version="1.1" xmlns:xlink="http://www.w3.org/1999/xlink" xmlns:svgjs="http://svgjs.com/svgjs"><defs id="SvgjsDefs1007"><marker id="SvgjsMarker1100" markerWidth="12" markerHeight="8" refX="9" refY="4" viewBox="0 0 12 8" orient="auto" markerUnits="userSpaceOnUse" stroke-dasharray="0,0"><path id="SvgjsPath1101" d="M0,0 L12,4 L0,8 L0,0" fill="#323232" stroke="#323232" stroke-width="1"></path></marker><marker id="SvgjsMarker1114" markerWidth="16" markerHeight="16" refX="3" refY="8" viewBox="0 0 16 16" orient="auto" markerUnits="userSpaceOnUse" stroke-dasharray="0,0"><circle id="SvgjsCircle1115" r="4" cx="8" cy="8" fill="#ffffff" stroke="#323232" stroke-width="1"></circle></marker><marker id="SvgjsMarker1118" markerWidth="16" markerHeight="16" refX="13" refY="8" viewBox="0 0 16 16" orient="auto" markerUnits="userSpaceOnUse" stroke-dasharray="0,0"><circle id="SvgjsCircle1119" r="4" cx="8" cy="8" fill="#ffffff" stroke="#323232" stroke-width="1"></circle></marker><marker id="SvgjsMarker1124" markerWidth="16" markerHeight="16" refX="3" refY="8" viewBox="0 0 16 16" orient="auto" markerUnits="userSpaceOnUse" stroke-dasharray="0,0"><circle id="SvgjsCircle1125" r="4" cx="8" cy="8" fill="#ffffff" stroke="#323232" stroke-width="1"></circle></marker><marker id="SvgjsMarker1132" markerWidth="12" markerHeight="8" refX="9" refY="4" viewBox="0 0 12 8" orient="auto" markerUnits="userSpaceOnUse" stroke-dasharray="0,0"><path id="SvgjsPath1133" d="M0,0 L12,4 L0,8 L0,0" fill="#323232" stroke="#323232" stroke-width="1"></path></marker><marker id="SvgjsMarker1144" markerWidth="16" markerHeight="16" refX="3" refY="8" viewBox="0 0 16 16" orient="auto" markerUnits="userSpaceOnUse" stroke-dasharray="0,0"><circle id="SvgjsCircle1145" r="4" cx="8" cy="8" fill="#ffffff" stroke="#323232" stroke-width="1"></circle></marker><marker id="SvgjsMarker1146" markerWidth="12" markerHeight="8" refX="9" refY="4" viewBox="0 0 12 8" orient="auto" markerUnits="userSpaceOnUse" stroke-dasharray="0,0"><path id="SvgjsPath1147" d="M0,0 L12,4 L0,8 L0,0" fill="#323232" stroke="#323232" stroke-width="1"></path></marker><marker id="SvgjsMarker1154" markerWidth="16" markerHeight="16" refX="3" refY="8" viewBox="0 0 16 16" orient="auto" markerUnits="userSpaceOnUse" stroke-dasharray="0,0"><circle id="SvgjsCircle1155" r="4" cx="8" cy="8" fill="#ffffff" stroke="#323232" stroke-width="1"></circle></marker><marker id="SvgjsMarker1156" markerWidth="12" markerHeight="8" refX="9" refY="4" viewBox="0 0 12 8" orient="auto" markerUnits="userSpaceOnUse" stroke-dasharray="0,0"><path id="SvgjsPath1157" d="M0,0 L12,4 L0,8 L0,0" fill="#323232" stroke="#323232" stroke-width="1"></path></marker><marker id="SvgjsMarker1164" markerWidth="16" markerHeight="16" refX="3" refY="8" viewBox="0 0 16 16" orient="auto" markerUnits="userSpaceOnUse" stroke-dasharray="0,0"><circle id="SvgjsCircle1165" r="4" cx="8" cy="8" fill="#ffffff" stroke="#323232" stroke-width="1"></circle></marker><marker id="SvgjsMarker1168" markerWidth="16" markerHeight="16" refX="13" refY="8" viewBox="0 0 16 16" orient="auto" markerUnits="userSpaceOnUse" stroke-dasharray="0,0"><circle id="SvgjsCircle1169" r="4" cx="8" cy="8" fill="#ffffff" stroke="#323232" stroke-width="1"></circle></marker><marker id="SvgjsMarker1182" markerWidth="12" markerHeight="8" refX="9" refY="4" viewBox="0 0 12 8" orient="auto" markerUnits="userSpaceOnUse" stroke-dasharray="0,0"><path id="SvgjsPath1183" d="M0,0 L12,4 L0,8 L0,0" fill="#323232" stroke="#323232" stroke-width="1"></path></marker><marker id="SvgjsMarker1204" markerWidth="12" markerHeight="8" refX="9" refY="4" viewBox="0 0 12 8" orient="auto" markerUnits="userSpaceOnUse" stroke-dasharray="0,0"><path id="SvgjsPath1205" d="M0,0 L12,4 L0,8 L0,0" fill="#323232" stroke="#323232" stroke-width="1"></path></marker><marker id="SvgjsMarker1208" markerWidth="16" markerHeight="16" refX="3" refY="8" viewBox="0 0 16 16" orient="auto" markerUnits="userSpaceOnUse" stroke-dasharray="0,0"><circle id="SvgjsCircle1209" r="4" cx="8" cy="8" fill="#ffffff" stroke="#323232" stroke-width="1"></circle></marker><marker id="SvgjsMarker1246" markerWidth="16" markerHeight="16" refX="13" refY="8" viewBox="0 0 16 16" orient="auto" markerUnits="userSpaceOnUse" stroke-dasharray="0,0"><circle id="SvgjsCircle1247" r="4" cx="8" cy="8" fill="#ffffff" stroke="#323232" stroke-width="1"></circle></marker><marker id="SvgjsMarker1252" markerWidth="16" markerHeight="16" refX="3" refY="8" viewBox="0 0 16 16" orient="auto" markerUnits="userSpaceOnUse" stroke-dasharray="0,0"><circle id="SvgjsCircle1253" r="4" cx="8" cy="8" fill="#ffffff" stroke="#323232" stroke-width="1"></circle></marker><marker id="SvgjsMarker1260" markerWidth="12" markerHeight="8" refX="9" refY="4" viewBox="0 0 12 8" orient="auto" markerUnits="userSpaceOnUse" stroke-dasharray="0,0"><path id="SvgjsPath1261" d="M0,0 L12,4 L0,8 L0,0" fill="#323232" stroke="#323232" stroke-width="1"></path></marker><marker id="SvgjsMarker1274" markerWidth="12" markerHeight="8" refX="9" refY="4" viewBox="0 0 12 8" orient="auto" markerUnits="userSpaceOnUse" stroke-dasharray="0,0"><path id="SvgjsPath1275" d="M0,0 L12,4 L0,8 L0,0" fill="#323232" stroke="#323232" stroke-width="1"></path></marker><marker id="SvgjsMarker1278" markerWidth="16" markerHeight="16" refX="3" refY="8" viewBox="0 0 16 16" orient="auto" markerUnits="userSpaceOnUse" stroke-dasharray="0,0"><circle id="SvgjsCircle1279" r="4" cx="8" cy="8" fill="#ffffff" stroke="#323232" stroke-width="1"></circle></marker><marker id="SvgjsMarker1290" markerWidth="16" markerHeight="16" refX="3" refY="8" viewBox="0 0 16 16" orient="auto" markerUnits="userSpaceOnUse" stroke-dasharray="0,0"><circle id="SvgjsCircle1291" r="4" cx="8" cy="8" fill="#ffffff" stroke="#323232" stroke-width="1"></circle></marker><marker id="SvgjsMarker1292" markerWidth="12" markerHeight="8" refX="9" refY="4" viewBox="0 0 12 8" orient="auto" markerUnits="userSpaceOnUse" stroke-dasharray="0,0"><path id="SvgjsPath1293" d="M0,0 L12,4 L0,8 L0,0" fill="#323232" stroke="#323232" stroke-width="1"></path></marker></defs><g id="SvgjsG1008" transform="translate(55.171875,78)"><path id="SvgjsPath1009" d="M 0 4Q 0 0 4 0L 146 0Q 150 0 150 4L 150 26Q 150 30 146 30L 4 30Q 0 30 0 26Z" stroke="rgba(104,143,78,1)" stroke-width="1" fill-opacity="1" fill="#b2d182"></path><g id="SvgjsG1010"><text id="SvgjsText1011" font-family="微软雅黑" text-anchor="middle" font-size="13px" width="130px" fill="#688f4e" font-weight="400" align="middle" lineHeight="125%" anchor="middle" family="微软雅黑" size="13px" weight="400" font-style="" opacity="1" y="4.375" transform="rotate(0)"><tspan id="SvgjsTspan1012" dy="16" x="75"><tspan id="SvgjsTspan1013" style="text-decoration:;">支出</tspan></tspan></text></g></g><g id="SvgjsG1014" transform="translate(55.171875,118)"><path id="SvgjsPath1015" d="M 0 4Q 0 0 4 0L 66 0Q 70 0 70 4L 70 26Q 70 30 66 30L 4 30Q 0 30 0 26Z" stroke="rgba(209,71,108,1)" stroke-width="1" fill-opacity="1" fill="#ff9b96"></path><g id="SvgjsG1016"><text id="SvgjsText1017" font-family="微软雅黑" text-anchor="middle" font-size="13px" width="50px" fill="#d1476c" font-weight="400" align="middle" lineHeight="125%" anchor="middle" family="微软雅黑" size="13px" weight="400" font-style="" opacity="1" y="4.375" transform="rotate(0)"><tspan id="SvgjsTspan1018" dy="16" x="35"><tspan id="SvgjsTspan1019" style="text-decoration:;">资产</tspan></tspan></text></g></g><g id="SvgjsG1020" transform="translate(135.171875,118)"><path id="SvgjsPath1021" d="M 0 4Q 0 0 4 0L 66 0Q 70 0 70 4L 70 26Q 70 30 66 30L 4 30Q 0 30 0 26Z" stroke="rgba(104,143,78,1)" stroke-width="1" fill-opacity="1" fill="#b2d182"></path><g id="SvgjsG1022"><text id="SvgjsText1023" font-family="微软雅黑" text-anchor="middle" font-size="13px" width="50px" fill="#688f4e" font-weight="400" align="middle" lineHeight="125%" anchor="middle" family="微软雅黑" size="13px" weight="400" font-style="" opacity="1" y="4.375" transform="rotate(0)"><tspan id="SvgjsTspan1024" dy="16" x="35"><tspan id="SvgjsTspan1025" style="text-decoration:;">负债</tspan></tspan></text></g></g><g id="SvgjsG1026" transform="translate(55.171875,38)"><path id="SvgjsPath1027" d="M 0 4Q 0 0 4 0L 146 0Q 150 0 150 4L 150 26Q 150 30 146 30L 4 30Q 0 30 0 26Z" stroke="rgba(209,71,108,1)" stroke-width="1" fill-opacity="1" fill="#ff9b96"></path><g id="SvgjsG1028"><text id="SvgjsText1029" font-family="微软雅黑" text-anchor="middle" font-size="13px" width="130px" fill="#d1476c" font-weight="400" align="middle" lineHeight="125%" anchor="middle" family="微软雅黑" size="13px" weight="400" font-style="" opacity="1" y="4.375" transform="rotate(0)"><tspan id="SvgjsTspan1030" dy="16" x="75"><tspan id="SvgjsTspan1031" style="text-decoration:;">收入</tspan></tspan></text></g></g><g id="SvgjsG1032" transform="translate(55.171875,163)"><path id="SvgjsPath1033" d="M 0 0L 150 0L 150 30L 0 30Z" stroke="none" fill="none"></path><g id="SvgjsG1034"><text id="SvgjsText1035" font-family="微软雅黑" text-anchor="middle" font-size="13px" width="150px" fill="#323232" font-weight="400" align="middle" lineHeight="125%" anchor="middle" family="微软雅黑" size="13px" weight="400" font-style="" opacity="1" y="4.375" transform="rotate(0)"><tspan id="SvgjsTspan1036" dy="16" x="75"><tspan id="SvgjsTspan1037" style="text-decoration:;">无产无债者</tspan></tspan></text></g></g><g id="SvgjsG1038" transform="translate(265.171875,78)"><path id="SvgjsPath1039" d="M 0 4Q 0 0 4 0L 146 0Q 150 0 150 4L 150 26Q 150 30 146 30L 4 30Q 0 30 0 26Z" stroke="rgba(104,143,78,1)" stroke-width="1" fill-opacity="1" fill="#b2d182"></path><g id="SvgjsG1040"><text id="SvgjsText1041" font-family="微软雅黑" text-anchor="middle" font-size="13px" width="130px" fill="#688f4e" font-weight="400" align="middle" lineHeight="125%" anchor="middle" family="微软雅黑" size="13px" weight="400" font-style="" opacity="1" y="4.375" transform="rotate(0)"><tspan id="SvgjsTspan1042" dy="16" x="75"><tspan id="SvgjsTspan1043" style="text-decoration:;">支出</tspan></tspan></text></g></g><g id="SvgjsG1044" transform="translate(265.171875,118)"><path id="SvgjsPath1045" d="M 0 4Q 0 0 4 0L 66 0Q 70 0 70 4L 70 26Q 70 30 66 30L 4 30Q 0 30 0 26Z" stroke="rgba(209,71,108,1)" stroke-width="1" fill-opacity="1" fill="#ff9b96"></path><g id="SvgjsG1046"><text id="SvgjsText1047" font-family="微软雅黑" text-anchor="middle" font-size="13px" width="50px" fill="#d1476c" font-weight="400" align="middle" lineHeight="125%" anchor="middle" family="微软雅黑" size="13px" weight="400" font-style="" opacity="1" y="4.375" transform="rotate(0)"><tspan id="SvgjsTspan1048" dy="16" x="35"><tspan id="SvgjsTspan1049" style="text-decoration:;">资产</tspan></tspan></text></g></g><g id="SvgjsG1050" transform="translate(345.171875,118)"><path id="SvgjsPath1051" d="M 0 4Q 0 0 4 0L 66 0Q 70 0 70 4L 70 26Q 70 30 66 30L 4 30Q 0 30 0 26Z" stroke="rgba(104,143,78,1)" stroke-width="1" fill-opacity="1" fill="#b2d182"></path><g id="SvgjsG1052"><text id="SvgjsText1053" font-family="微软雅黑" text-anchor="middle" font-size="13px" width="50px" fill="#688f4e" font-weight="400" align="middle" lineHeight="125%" anchor="middle" family="微软雅黑" size="13px" weight="400" font-style="" opacity="1" y="4.375" transform="rotate(0)"><tspan id="SvgjsTspan1054" dy="16" x="35"><tspan id="SvgjsTspan1055" style="text-decoration:;">负债</tspan></tspan></text></g></g><g id="SvgjsG1056" transform="translate(265.171875,38)"><path id="SvgjsPath1057" d="M 0 4Q 0 0 4 0L 146 0Q 150 0 150 4L 150 26Q 150 30 146 30L 4 30Q 0 30 0 26Z" stroke="rgba(209,71,108,1)" stroke-width="1" fill-opacity="1" fill="#ff9b96"></path><g id="SvgjsG1058"><text id="SvgjsText1059" font-family="微软雅黑" text-anchor="middle" font-size="13px" width="130px" fill="#d1476c" font-weight="400" align="middle" lineHeight="125%" anchor="middle" family="微软雅黑" size="13px" weight="400" font-style="" opacity="1" y="4.375" transform="rotate(0)"><tspan id="SvgjsTspan1060" dy="16" x="75"><tspan id="SvgjsTspan1061" style="text-decoration:;">收入</tspan></tspan></text></g></g><g id="SvgjsG1062" transform="translate(265.171875,161)"><path id="SvgjsPath1063" d="M 0 0L 150 0L 150 30L 0 30Z" stroke="none" fill="none"></path><g id="SvgjsG1064"><text id="SvgjsText1065" font-family="微软雅黑" text-anchor="middle" font-size="13px" width="150px" fill="#323232" font-weight="400" align="middle" lineHeight="125%" anchor="middle" family="微软雅黑" size="13px" weight="400" font-style="" opacity="1" y="4.375" transform="rotate(0)"><tspan id="SvgjsTspan1066" dy="16" x="75"><tspan id="SvgjsTspan1067" style="text-decoration:;">无产有债者</tspan></tspan></text></g></g><g id="SvgjsG1068" transform="translate(265.171875,288)"><path id="SvgjsPath1069" d="M 0 4Q 0 0 4 0L 146 0Q 150 0 150 4L 150 26Q 150 30 146 30L 4 30Q 0 30 0 26Z" stroke="rgba(104,143,78,1)" stroke-width="1" fill-opacity="1" fill="#b2d182"></path><g id="SvgjsG1070"><text id="SvgjsText1071" font-family="微软雅黑" text-anchor="middle" font-size="13px" width="130px" fill="#688f4e" font-weight="400" align="middle" lineHeight="125%" anchor="middle" family="微软雅黑" size="13px" weight="400" font-style="" opacity="1" y="4.375" transform="rotate(0)"><tspan id="SvgjsTspan1072" dy="16" x="75"><tspan id="SvgjsTspan1073" style="text-decoration:;">支出</tspan></tspan></text></g></g><g id="SvgjsG1074" transform="translate(265.171875,328)"><path id="SvgjsPath1075" d="M 0 4Q 0 0 4 0L 66 0Q 70 0 70 4L 70 26Q 70 30 66 30L 4 30Q 0 30 0 26Z" stroke="rgba(209,71,108,1)" stroke-width="1" fill-opacity="1" fill="#ff9b96"></path><g id="SvgjsG1076"><text id="SvgjsText1077" font-family="微软雅黑" text-anchor="middle" font-size="13px" width="50px" fill="#d1476c" font-weight="400" align="middle" lineHeight="125%" anchor="middle" family="微软雅黑" size="13px" weight="400" font-style="" opacity="1" y="4.375" transform="rotate(0)"><tspan id="SvgjsTspan1078" dy="16" x="35"><tspan id="SvgjsTspan1079" style="text-decoration:;">资产</tspan></tspan></text></g></g><g id="SvgjsG1080" transform="translate(345.171875,328)"><path id="SvgjsPath1081" d="M 0 4Q 0 0 4 0L 66 0Q 70 0 70 4L 70 26Q 70 30 66 30L 4 30Q 0 30 0 26Z" stroke="rgba(104,143,78,1)" stroke-width="1" fill-opacity="1" fill="#b2d182"></path><g id="SvgjsG1082"><text id="SvgjsText1083" font-family="微软雅黑" text-anchor="middle" font-size="13px" width="50px" fill="#688f4e" font-weight="400" align="middle" lineHeight="125%" anchor="middle" family="微软雅黑" size="13px" weight="400" font-style="" opacity="1" y="4.375" transform="rotate(0)"><tspan id="SvgjsTspan1084" dy="16" x="35"><tspan id="SvgjsTspan1085" style="text-decoration:;">负债</tspan></tspan></text></g></g><g id="SvgjsG1086" transform="translate(265.171875,248)"><path id="SvgjsPath1087" d="M 0 4Q 0 0 4 0L 146 0Q 150 0 150 4L 150 26Q 150 30 146 30L 4 30Q 0 30 0 26Z" stroke="rgba(209,71,108,1)" stroke-width="1" fill-opacity="1" fill="#ff9b96"></path><g id="SvgjsG1088"><text id="SvgjsText1089" font-family="微软雅黑" text-anchor="middle" font-size="13px" width="130px" fill="#d1476c" font-weight="400" align="middle" lineHeight="125%" anchor="middle" family="微软雅黑" size="13px" weight="400" font-style="" opacity="1" y="4.375" transform="rotate(0)"><tspan id="SvgjsTspan1090" dy="16" x="75"><tspan id="SvgjsTspan1091" style="text-decoration:;">收入</tspan></tspan></text></g></g><g id="SvgjsG1092" transform="translate(265.171875,373)"><path id="SvgjsPath1093" d="M 0 0L 150 0L 150 30L 0 30Z" stroke="none" fill="none"></path><g id="SvgjsG1094"><text id="SvgjsText1095" font-family="微软雅黑" text-anchor="middle" font-size="13px" width="150px" fill="#323232" font-weight="400" align="middle" lineHeight="125%" anchor="middle" family="微软雅黑" size="13px" weight="400" font-style="" opacity="1" y="4.375" transform="rotate(0)"><tspan id="SvgjsTspan1096" dy="16" x="75"><tspan id="SvgjsTspan1097" style="text-decoration:;">高产低债者</tspan></tspan></text></g></g><g id="SvgjsG1098"><path id="SvgjsPath1099" d="M75.171875 93.49999999999994L25.005208333333343 93.49999999999994" stroke="#323232" stroke-width="1" fill="none" marker-end="url(#SvgjsMarker1100)"></path></g><g id="SvgjsG1102"><path id="SvgjsPath1103" d="M75.171875 51L75.171875 93.49999999999994" stroke="#323232" stroke-width="1" fill="none"></path></g><g id="SvgjsG1104" transform="translate(55.171875,78.49999999999994)"><path id="SvgjsPath1105" d="M 0 4Q 0 0 4 0L 16 0Q 20 0 20 4L 20 26Q 20 30 16 30L 4 30Q 0 30 0 26Z" stroke="none" fill="none"></path><g id="SvgjsG1106"><text id="SvgjsText1107" font-family="微软雅黑" text-anchor="middle" font-size="13px" width="0px" fill="#323232" font-weight="400" align="middle" lineHeight="125%" anchor="middle" family="微软雅黑" size="13px" weight="400" font-style="" opacity="1" y="4.375" transform="rotate(0)"></text></g></g><g id="SvgjsG1108" transform="translate(55.171875,36)"><path id="SvgjsPath1109" d="M 0 4Q 0 0 4 0L 16 0Q 20 0 20 4L 20 26Q 20 30 16 30L 4 30Q 0 30 0 26Z" stroke="none" fill="none"></path><g id="SvgjsG1110"><text id="SvgjsText1111" font-family="微软雅黑" text-anchor="middle" font-size="13px" width="0px" fill="#323232" font-weight="400" align="middle" lineHeight="125%" anchor="middle" family="微软雅黑" size="13px" weight="400" font-style="" opacity="1" y="4.375" transform="rotate(0)"></text></g></g><g id="SvgjsG1112"><path id="SvgjsPath1113" d="M25.171875 51L75.171875 51" stroke="#323232" stroke-width="1" fill="none" marker-start="url(#SvgjsMarker1114)"></path></g><g id="SvgjsG1116"><path id="SvgjsPath1117" d="M415.671875 131L445.171875 131L445.171875 25L400.171875 25L400.171875 57.5" stroke-dasharray="3,3" stroke="#323232" stroke-width="1" fill="none" marker-end="url(#SvgjsMarker1118)"></path></g><g id="SvgjsG1120"><path id="SvgjsPath1121" d="M285.171875 53L285.1718749999999 94.33333333333326" stroke="#323232" stroke-width="1" fill="none"></path></g><g id="SvgjsG1122"><path id="SvgjsPath1123" d="M400.171875 131L414.671875 131" stroke="#323232" stroke-width="1" fill="none" marker-start="url(#SvgjsMarker1124)"></path></g><g id="SvgjsG1126" transform="translate(265.1718749999999,79.33333333333326)"><path id="SvgjsPath1127" d="M 0 4Q 0 0 4 0L 16 0Q 20 0 20 4L 20 26Q 20 30 16 30L 4 30Q 0 30 0 26Z" stroke="none" fill="none"></path><g id="SvgjsG1128"><text id="SvgjsText1129" font-family="微软雅黑" text-anchor="middle" font-size="13px" width="0px" fill="#323232" font-weight="400" align="middle" lineHeight="125%" anchor="middle" family="微软雅黑" size="13px" weight="400" font-style="" opacity="1" y="4.375" transform="rotate(0)"></text></g></g><g id="SvgjsG1130"><path id="SvgjsPath1131" d="M285.1718749999999 94.33333333333326L235.83854166666669 94.33333333333326" stroke="#323232" stroke-width="1" fill="none" marker-end="url(#SvgjsMarker1132)"></path></g><g id="SvgjsG1134" transform="translate(265.171875,258.00000000000006)"><path id="SvgjsPath1135" d="M 0 4Q 0 0 4 0L 26 0Q 30 0 30 4L 30 16Q 30 20 26 20L 4 20Q 0 20 0 16Z" stroke="none" fill="none"></path><g id="SvgjsG1136"><text id="SvgjsText1137" font-family="微软雅黑" text-anchor="middle" font-size="13px" width="10px" fill="#323232" font-weight="400" align="middle" lineHeight="125%" anchor="middle" family="微软雅黑" size="13px" weight="400" font-style="" opacity="1" y="-0.625" transform="rotate(0)"></text></g></g><g id="SvgjsG1138" transform="translate(305.171875,258.00000000000006)"><path id="SvgjsPath1139" d="M 0 4Q 0 0 4 0L 26 0Q 30 0 30 4L 30 16Q 30 20 26 20L 4 20Q 0 20 0 16Z" stroke="none" fill="none"></path><g id="SvgjsG1140"><text id="SvgjsText1141" font-family="微软雅黑" text-anchor="middle" font-size="13px" width="10px" fill="#323232" font-weight="400" align="middle" lineHeight="125%" anchor="middle" family="微软雅黑" size="13px" weight="400" font-style="" opacity="1" y="-0.625" transform="rotate(0)"></text></g></g><g id="SvgjsG1142"><path id="SvgjsPath1143" d="M280.171875 347.5L280.171875 259.30000000000007" stroke="#323232" stroke-width="1" fill="none" marker-start="url(#SvgjsMarker1144)" marker-end="url(#SvgjsMarker1146)"></path></g><g id="SvgjsG1148" transform="translate(265.171875,328)"><path id="SvgjsPath1149" d="M 0 4Q 0 0 4 0L 26 0Q 30 0 30 4L 30 16Q 30 20 26 20L 4 20Q 0 20 0 16Z" stroke="none" fill="none"></path><g id="SvgjsG1150"><text id="SvgjsText1151" font-family="微软雅黑" text-anchor="middle" font-size="13px" width="10px" fill="#323232" font-weight="400" align="middle" lineHeight="125%" anchor="middle" family="微软雅黑" size="13px" weight="400" font-style="" opacity="1" y="-0.625" transform="rotate(0)"></text></g></g><g id="SvgjsG1152"><path id="SvgjsPath1153" d="M300.17187499999994 258.5L300.171875 326.20000000000005" stroke="#323232" stroke-width="1" fill="none" marker-start="url(#SvgjsMarker1154)" marker-end="url(#SvgjsMarker1156)"></path></g><g id="SvgjsG1158" transform="translate(285.171875,258)"><path id="SvgjsPath1159" d="M 0 4Q 0 0 4 0L 26 0Q 30 0 30 4L 30 16Q 30 20 26 20L 4 20Q 0 20 0 16Z" stroke="none" fill="none"></path><g id="SvgjsG1160"><text id="SvgjsText1161" font-family="微软雅黑" text-anchor="middle" font-size="13px" width="10px" fill="#323232" font-weight="400" align="middle" lineHeight="125%" anchor="middle" family="微软雅黑" size="13px" weight="400" font-style="" opacity="1" y="-0.625" transform="rotate(0)"></text></g></g><g id="SvgjsG1162"><path id="SvgjsPath1163" d="M399.171875 343L414.671875 343" stroke="#323232" stroke-width="1" fill="none" marker-start="url(#SvgjsMarker1164)"></path></g><g id="SvgjsG1166"><path id="SvgjsPath1167" d="M415.671875 343L443.27793560606085 343L443.27793560606085 235.12121212121195L400.171875 235.12121212121195L400.171875 267.5" stroke-dasharray="3,3" stroke="#323232" stroke-width="1" fill="none" marker-end="url(#SvgjsMarker1168)"></path></g><g id="SvgjsG1170" transform="translate(385.171875,248)"><path id="SvgjsPath1171" d="M 0 4Q 0 0 4 0L 26 0Q 30 0 30 4L 30 16Q 30 20 26 20L 4 20Q 0 20 0 16Z" stroke="none" fill="none"></path><g id="SvgjsG1172"><text id="SvgjsText1173" font-family="微软雅黑" text-anchor="middle" font-size="13px" width="10px" fill="#323232" font-weight="400" align="middle" lineHeight="125%" anchor="middle" family="微软雅黑" size="13px" weight="400" font-style="" opacity="1" y="-0.625" transform="rotate(0)"></text></g></g><g id="SvgjsG1174"><path id="SvgjsPath1175" d="M400.171875 268L400.171875 278L400.1718749999999 278L400.1718749999999 303.0000000000001L415.171875 303.0000000000001" stroke="#323232" stroke-width="1" fill="none"></path></g><g id="SvgjsG1176" transform="translate(385.171875,288.00000000000006)"><path id="SvgjsPath1177" d="M 0 4Q 0 0 4 0L 26 0Q 30 0 30 4L 30 26Q 30 30 26 30L 4 30Q 0 30 0 26Z" stroke="none" fill="none"></path><g id="SvgjsG1178"><text id="SvgjsText1179" font-family="微软雅黑" text-anchor="middle" font-size="13px" width="10px" fill="#323232" font-weight="400" align="middle" lineHeight="125%" anchor="middle" family="微软雅黑" size="13px" weight="400" font-style="" opacity="1" y="4.375" transform="rotate(0)"></text></g></g><g id="SvgjsG1180"><path id="SvgjsPath1181" d="M415.171875 303L421.33854166666674 303L421.33854166666674 303L427.50520833333337 303" stroke="#323232" stroke-width="1" fill="none" marker-end="url(#SvgjsMarker1182)"></path></g><g id="SvgjsG1184" transform="translate(362.171875,183)"><path id="SvgjsPath1185" d="M 0 0L 120 0L 120 45L 0 45Z" stroke="none" fill="none"></path><g id="SvgjsG1186"><text id="SvgjsText1187" font-family="微软雅黑" text-anchor="middle" font-size="13px" width="120px" fill="#323232" font-weight="400" align="middle" lineHeight="125%" anchor="middle" family="微软雅黑" size="13px" weight="400" font-style="" opacity="1" y="3.375" transform="rotate(0)"><tspan id="SvgjsTspan1188" dy="16" x="60"><tspan id="SvgjsTspan1189" style="text-decoration:;">延迟支付</tspan></tspan><tspan id="SvgjsTspan1190" dy="16" x="60"><tspan id="SvgjsTspan1191" style="text-decoration:;font-size: inherit;">信用卡 / 花呗</tspan></tspan></text></g></g><g id="SvgjsG1192" transform="translate(385.171875,38)"><path id="SvgjsPath1193" d="M 0 4Q 0 0 4 0L 26 0Q 30 0 30 4L 30 16Q 30 20 26 20L 4 20Q 0 20 0 16Z" stroke="none" fill="none"></path><g id="SvgjsG1194"><text id="SvgjsText1195" font-family="微软雅黑" text-anchor="middle" font-size="13px" width="10px" fill="#323232" font-weight="400" align="middle" lineHeight="125%" anchor="middle" family="微软雅黑" size="13px" weight="400" font-style="" opacity="1" y="-0.625" transform="rotate(0)"></text></g></g><g id="SvgjsG1196"><path id="SvgjsPath1197" d="M400.171875 58L400.171875 68L400.171875 68L400.171875 93L415.171875 93" stroke="#323232" stroke-width="1" fill="none"></path></g><g id="SvgjsG1198" transform="translate(385.171875,78)"><path id="SvgjsPath1199" d="M 0 4Q 0 0 4 0L 26 0Q 30 0 30 4L 30 26Q 30 30 26 30L 4 30Q 0 30 0 26Z" stroke="none" fill="none"></path><g id="SvgjsG1200"><text id="SvgjsText1201" font-family="微软雅黑" text-anchor="middle" font-size="13px" width="10px" fill="#323232" font-weight="400" align="middle" lineHeight="125%" anchor="middle" family="微软雅黑" size="13px" weight="400" font-style="" opacity="1" y="4.375" transform="rotate(0)"></text></g></g><g id="SvgjsG1202"><path id="SvgjsPath1203" d="M415.171875 93L421.171875 93L421.171875 93L427.171875 93" stroke="#323232" stroke-width="1" fill="none" marker-end="url(#SvgjsMarker1204)"></path></g><g id="SvgjsG1206"><path id="SvgjsPath1207" d="M235.00520833333337 53L285.17187500000017 53" stroke="#323232" stroke-width="1" fill="none" marker-start="url(#SvgjsMarker1208)"></path></g><g id="SvgjsG1210" transform="translate(265.17187500000017,38)"><path id="SvgjsPath1211" d="M 0 4Q 0 0 4 0L 16 0Q 20 0 20 4L 20 26Q 20 30 16 30L 4 30Q 0 30 0 26Z" stroke="none" fill="none"></path><g id="SvgjsG1212"><text id="SvgjsText1213" font-family="微软雅黑" text-anchor="middle" font-size="13px" width="0px" fill="#323232" font-weight="400" align="middle" lineHeight="125%" anchor="middle" family="微软雅黑" size="13px" weight="400" font-style="" opacity="1" y="4.375" transform="rotate(0)"></text></g></g><g id="SvgjsG1214" transform="translate(52.33854166666708,286.3333333333335)"><path id="SvgjsPath1215" d="M 0 4Q 0 0 4 0L 146 0Q 150 0 150 4L 150 26Q 150 30 146 30L 4 30Q 0 30 0 26Z" stroke="rgba(104,143,78,1)" stroke-width="1" fill-opacity="1" fill="#b2d182"></path><g id="SvgjsG1216"><text id="SvgjsText1217" font-family="微软雅黑" text-anchor="middle" font-size="13px" width="130px" fill="#688f4e" font-weight="400" align="middle" lineHeight="125%" anchor="middle" family="微软雅黑" size="13px" weight="400" font-style="" opacity="1" y="4.375" transform="rotate(0)"><tspan id="SvgjsTspan1218" dy="16" x="75"><tspan id="SvgjsTspan1219" style="text-decoration:;">支出</tspan></tspan></text></g></g><g id="SvgjsG1220" transform="translate(52.33854166666708,326.3333333333336)"><path id="SvgjsPath1221" d="M 0 4Q 0 0 4 0L 66 0Q 70 0 70 4L 70 26Q 70 30 66 30L 4 30Q 0 30 0 26Z" stroke="rgba(209,71,108,1)" stroke-width="1" fill-opacity="1" fill="#ff9b96"></path><g id="SvgjsG1222"><text id="SvgjsText1223" font-family="微软雅黑" text-anchor="middle" font-size="13px" width="50px" fill="#d1476c" font-weight="400" align="middle" lineHeight="125%" anchor="middle" family="微软雅黑" size="13px" weight="400" font-style="" opacity="1" y="4.375" transform="rotate(0)"><tspan id="SvgjsTspan1224" dy="16" x="35"><tspan id="SvgjsTspan1225" style="text-decoration:;">资产</tspan></tspan></text></g></g><g id="SvgjsG1226" transform="translate(132.33854166666686,326.3333333333336)"><path id="SvgjsPath1227" d="M 0 4Q 0 0 4 0L 66 0Q 70 0 70 4L 70 26Q 70 30 66 30L 4 30Q 0 30 0 26Z" stroke="rgba(104,143,78,1)" stroke-width="1" fill-opacity="1" fill="#b2d182"></path><g id="SvgjsG1228"><text id="SvgjsText1229" font-family="微软雅黑" text-anchor="middle" font-size="13px" width="50px" fill="#688f4e" font-weight="400" align="middle" lineHeight="125%" anchor="middle" family="微软雅黑" size="13px" weight="400" font-style="" opacity="1" y="4.375" transform="rotate(0)"><tspan id="SvgjsTspan1230" dy="16" x="35"><tspan id="SvgjsTspan1231" style="text-decoration:;">负债</tspan></tspan></text></g></g><g id="SvgjsG1232" transform="translate(52.33854166666708,246.33333333333348)"><path id="SvgjsPath1233" d="M 0 4Q 0 0 4 0L 146 0Q 150 0 150 4L 150 26Q 150 30 146 30L 4 30Q 0 30 0 26Z" stroke="rgba(209,71,108,1)" stroke-width="1" fill-opacity="1" fill="#ff9b96"></path><g id="SvgjsG1234"><text id="SvgjsText1235" font-family="微软雅黑" text-anchor="middle" font-size="13px" width="130px" fill="#d1476c" font-weight="400" align="middle" lineHeight="125%" anchor="middle" family="微软雅黑" size="13px" weight="400" font-style="" opacity="1" y="4.375" transform="rotate(0)"><tspan id="SvgjsTspan1236" dy="16" x="75"><tspan id="SvgjsTspan1237" style="text-decoration:;">收入</tspan></tspan></text></g></g><g id="SvgjsG1238" transform="translate(52.33854166666708,369.33333333333337)"><path id="SvgjsPath1239" d="M 0 0L 150 0L 150 30L 0 30Z" stroke="none" fill="none"></path><g id="SvgjsG1240"><text id="SvgjsText1241" font-family="微软雅黑" text-anchor="middle" font-size="13px" width="150px" fill="#323232" font-weight="400" align="middle" lineHeight="125%" anchor="middle" family="微软雅黑" size="13px" weight="400" font-style="" opacity="1" y="4.375" transform="rotate(0)"><tspan id="SvgjsTspan1242" dy="16" x="75"><tspan id="SvgjsTspan1243" style="text-decoration:;">有产有债者</tspan></tspan></text></g></g><g id="SvgjsG1244"><path id="SvgjsPath1245" d="M202.83854166666686 339.3333333333336L232.33854166666686 339.3333333333336L232.33854166666686 233.33333333333348L187.33854166666686 233.33333333333348L187.33854166666686 265.8333333333335" stroke-dasharray="3,3" stroke="#323232" stroke-width="1" fill="none" marker-end="url(#SvgjsMarker1246)"></path></g><g id="SvgjsG1248"><path id="SvgjsPath1249" d="M72.33854166666686 261.3333333333335L72.33854166666686 301.8333333333336" stroke="#323232" stroke-width="1" fill="none"></path></g><g id="SvgjsG1250"><path id="SvgjsPath1251" d="M187.33854166666686 339.3333333333336L201.83854166666686 339.3333333333336" stroke="#323232" stroke-width="1" fill="none" marker-start="url(#SvgjsMarker1252)"></path></g><g id="SvgjsG1254" transform="translate(52.338541666666856,286.8333333333335)"><path id="SvgjsPath1255" d="M 0 4Q 0 0 4 0L 16 0Q 20 0 20 4L 20 26Q 20 30 16 30L 4 30Q 0 30 0 26Z" stroke="none" fill="none"></path><g id="SvgjsG1256"><text id="SvgjsText1257" font-family="微软雅黑" text-anchor="middle" font-size="13px" width="0px" fill="#323232" font-weight="400" align="middle" lineHeight="125%" anchor="middle" family="微软雅黑" size="13px" weight="400" font-style="" opacity="1" y="4.375" transform="rotate(0)"></text></g></g><g id="SvgjsG1258"><path id="SvgjsPath1259" d="M72.33854166666686 301.8333333333336L29.67187499999997 301.8333333333336" stroke="#323232" stroke-width="1" fill="none" marker-end="url(#SvgjsMarker1260)"></path></g><g id="SvgjsG1262" transform="translate(172.33854166666686,246.33333333333348)"><path id="SvgjsPath1263" d="M 0 4Q 0 0 4 0L 26 0Q 30 0 30 4L 30 16Q 30 20 26 20L 4 20Q 0 20 0 16Z" stroke="none" fill="none"></path><g id="SvgjsG1264"><text id="SvgjsText1265" font-family="微软雅黑" text-anchor="middle" font-size="13px" width="10px" fill="#323232" font-weight="400" align="middle" lineHeight="125%" anchor="middle" family="微软雅黑" size="13px" weight="400" font-style="" opacity="1" y="-0.625" transform="rotate(0)"></text></g></g><g id="SvgjsG1266"><path id="SvgjsPath1267" d="M187.33854166666686 266.3333333333335L187.33854166666686 276.33333333333337L187.33854166666686 276.33333333333337L187.33854166666686 301.3333333333336L202.33854166666686 301.3333333333336" stroke="#323232" stroke-width="1" fill="none"></path></g><g id="SvgjsG1268" transform="translate(172.33854166666686,286.3333333333335)"><path id="SvgjsPath1269" d="M 0 4Q 0 0 4 0L 26 0Q 30 0 30 4L 30 26Q 30 30 26 30L 4 30Q 0 30 0 26Z" stroke="none" fill="none"></path><g id="SvgjsG1270"><text id="SvgjsText1271" font-family="微软雅黑" text-anchor="middle" font-size="13px" width="10px" fill="#323232" font-weight="400" align="middle" lineHeight="125%" anchor="middle" family="微软雅黑" size="13px" weight="400" font-style="" opacity="1" y="4.375" transform="rotate(0)"></text></g></g><g id="SvgjsG1272"><path id="SvgjsPath1273" d="M202.33854166666686 301.3333333333336L208.33854166666686 301.3333333333336L208.33854166666686 301.3333333333336L214.33854166666686 301.3333333333336" stroke="#323232" stroke-width="1" fill="none" marker-end="url(#SvgjsMarker1274)"></path></g><g id="SvgjsG1276"><path id="SvgjsPath1277" d="M28.00520833333323 261.3333333333335L72.33854166666708 261.3333333333335" stroke="#323232" stroke-width="1" fill="none" marker-start="url(#SvgjsMarker1278)"></path></g><g id="SvgjsG1280" transform="translate(52.33854166666708,246.33333333333348)"><path id="SvgjsPath1281" d="M 0 4Q 0 0 4 0L 16 0Q 20 0 20 4L 20 26Q 20 30 16 30L 4 30Q 0 30 0 26Z" stroke="none" fill="none"></path><g id="SvgjsG1282"><text id="SvgjsText1283" font-family="微软雅黑" text-anchor="middle" font-size="13px" width="0px" fill="#323232" font-weight="400" align="middle" lineHeight="125%" anchor="middle" family="微软雅黑" size="13px" weight="400" font-style="" opacity="1" y="4.375" transform="rotate(0)"></text></g></g><g id="SvgjsG1284" transform="translate(72.33854166666708,256.3333333333335)"><path id="SvgjsPath1285" d="M 0 4Q 0 0 4 0L 26 0Q 30 0 30 4L 30 16Q 30 20 26 20L 4 20Q 0 20 0 16Z" stroke="none" fill="none"></path><g id="SvgjsG1286"><text id="SvgjsText1287" font-family="微软雅黑" text-anchor="middle" font-size="13px" width="10px" fill="#323232" font-weight="400" align="middle" lineHeight="125%" anchor="middle" family="微软雅黑" size="13px" weight="400" font-style="" opacity="1" y="-0.625" transform="rotate(0)"></text></g></g><g id="SvgjsG1288"><path id="SvgjsPath1289" d="M87.33854166666708 256.8333333333335L87.33854166666708 324.53333333333364" stroke="#323232" stroke-width="1" fill="none" marker-start="url(#SvgjsMarker1290)" marker-end="url(#SvgjsMarker1292)"></path></g></svg>