<svg id="SvgjsSvg1006" width="570" height="350" xmlns="http://www.w3.org/2000/svg" version="1.1" xmlns:xlink="http://www.w3.org/1999/xlink" xmlns:svgjs="http://svgjs.com/svgjs"><defs id="SvgjsDefs1007"><marker id="SvgjsMarker1058" markerWidth="12" markerHeight="8" refX="3" refY="4" viewBox="0 0 12 8" orient="auto" markerUnits="userSpaceOnUse" stroke-dasharray="0,0"><path id="SvgjsPath1059" d="M12,0 L0,4 L12,8 L12,0" fill="#323232" stroke="#323232" stroke-width="1"></path></marker><marker id="SvgjsMarker1060" markerWidth="12" markerHeight="8" refX="9" refY="4" viewBox="0 0 12 8" orient="auto" markerUnits="userSpaceOnUse" stroke-dasharray="0,0"><path id="SvgjsPath1061" d="M0,0 L12,4 L0,8 L0,0" fill="#323232" stroke="#323232" stroke-width="1"></path></marker><marker id="SvgjsMarker1080" markerWidth="12" markerHeight="8" refX="3" refY="4" viewBox="0 0 12 8" orient="auto" markerUnits="userSpaceOnUse" stroke-dasharray="0,0"><path id="SvgjsPath1081" d="M12,0 L0,4 L12,8 L12,0" fill="#323232" stroke="#323232" stroke-width="1"></path></marker><marker id="SvgjsMarker1082" markerWidth="12" markerHeight="8" refX="9" refY="4" viewBox="0 0 12 8" orient="auto" markerUnits="userSpaceOnUse" stroke-dasharray="0,0"><path id="SvgjsPath1083" d="M0,0 L12,4 L0,8 L0,0" fill="#323232" stroke="#323232" stroke-width="1"></path></marker><marker id="SvgjsMarker1092" markerWidth="12" markerHeight="8" refX="3" refY="4" viewBox="0 0 12 8" orient="auto" markerUnits="userSpaceOnUse" stroke-dasharray="0,0"><path id="SvgjsPath1093" d="M12,0 L0,4 L12,8 L12,0" fill="#323232" stroke="#323232" stroke-width="1"></path></marker><marker id="SvgjsMarker1094" markerWidth="12" markerHeight="8" refX="9" refY="4" viewBox="0 0 12 8" orient="auto" markerUnits="userSpaceOnUse" stroke-dasharray="0,0"><path id="SvgjsPath1095" d="M0,0 L12,4 L0,8 L0,0" fill="#323232" stroke="#323232" stroke-width="1"></path></marker></defs><g id="SvgjsG1008" transform="translate(25,220.00164473684254)"><path id="SvgjsPath1009" d="M 0 4Q 0 0 4 0L 516 0Q 520 0 520 4L 520 66Q 520 70 516 70L 4 70Q 0 70 0 66Z" stroke="rgba(50,50,50,1)" stroke-width="1" fill="none"></path><g id="SvgjsG1010"><text id="SvgjsText1011" font-family="微软雅黑" text-anchor="middle" font-size="13px" width="500px" fill="#323232" font-weight="400" align="middle" lineHeight="125%" anchor="middle" family="微软雅黑" size="13px" weight="400" font-style="" opacity="1" y="24.375" transform="rotate(0)"></text></g></g><g id="SvgjsG1012" transform="translate(245,25.001644736842593)"><path id="SvgjsPath1013" d="M 0 4Q 0 0 4 0L 76 0Q 80 0 80 4L 80 26Q 80 30 76 30L 4 30Q 0 30 0 26Z" stroke="rgba(97,97,97,1)" stroke-width="1" fill-opacity="1" fill="#81a0aa"></path><g id="SvgjsG1014"><text id="SvgjsText1015" font-family="微软雅黑" text-anchor="middle" font-size="13px" width="60px" fill="#f6f3ee" font-weight="400" align="middle" lineHeight="125%" anchor="middle" family="微软雅黑" size="13px" weight="400" font-style="" opacity="1" y="4.375" transform="rotate(0)"><tspan id="SvgjsTspan1016" dy="16" x="40"><tspan id="SvgjsTspan1017" style="text-decoration:;">公司</tspan></tspan></text></g></g><g id="SvgjsG1018" transform="translate(45,100.0016447368426)"><path id="SvgjsPath1019" d="M 0 4Q 0 0 4 0L 76 0Q 80 0 80 4L 80 26Q 80 30 76 30L 4 30Q 0 30 0 26Z" stroke="rgba(97,97,97,1)" stroke-width="1" fill-opacity="1" fill="#81a0aa"></path><g id="SvgjsG1020"><text id="SvgjsText1021" font-family="微软雅黑" text-anchor="middle" font-size="13px" width="60px" fill="#f6f3ee" font-weight="400" align="middle" lineHeight="125%" anchor="middle" family="微软雅黑" size="13px" weight="400" font-style="" opacity="1" y="4.375" transform="rotate(0)"><tspan id="SvgjsTspan1022" dy="16" x="40"><tspan id="SvgjsTspan1023" style="text-decoration:;">人</tspan></tspan></text></g></g><g id="SvgjsG1024" transform="translate(445,100.0016447368426)"><path id="SvgjsPath1025" d="M 0 4Q 0 0 4 0L 76 0Q 80 0 80 4L 80 26Q 80 30 76 30L 4 30Q 0 30 0 26Z" stroke="rgba(97,97,97,1)" stroke-width="1" fill-opacity="1" fill="#81a0aa"></path><g id="SvgjsG1026"><text id="SvgjsText1027" font-family="微软雅黑" text-anchor="middle" font-size="13px" width="60px" fill="#f6f3ee" font-weight="400" align="middle" lineHeight="125%" anchor="middle" family="微软雅黑" size="13px" weight="400" font-style="" opacity="1" y="4.375" transform="rotate(0)"><tspan id="SvgjsTspan1028" dy="16" x="40"><tspan id="SvgjsTspan1029" style="text-decoration:;">钱</tspan></tspan></text></g></g><g id="SvgjsG1030"><path id="SvgjsPath1031" d="M285 55.50164473684259L285 77.5016447368426L85 77.5016447368426L85 99.5016447368426" stroke="#323232" stroke-width="1" fill="none"></path></g><g id="SvgjsG1032"><path id="SvgjsPath1033" d="M285 55.50164473684259L285 77.5016447368426L485 77.5016447368426L485 99.5016447368426" stroke="#323232" stroke-width="1" fill="none"></path></g><g id="SvgjsG1034" transform="translate(45,160.00164473684254)"><path id="SvgjsPath1035" d="M 0 4Q 0 0 4 0L 76 0Q 80 0 80 4L 80 26Q 80 30 76 30L 4 30Q 0 30 0 26Z" stroke="rgba(97,97,97,1)" stroke-width="1" fill-opacity="1" fill="#f6f3ee"></path><g id="SvgjsG1036"><text id="SvgjsText1037" font-family="微软雅黑" text-anchor="middle" font-size="12px" width="60px" fill="#3d4b58" font-weight="400" align="middle" lineHeight="125%" anchor="middle" family="微软雅黑" size="12px" weight="400" font-style="" opacity="1" y="5" transform="rotate(0)"><tspan id="SvgjsTspan1038" dy="15" x="40"><tspan id="SvgjsTspan1039" style="text-decoration:;">人力资源</tspan></tspan></text></g></g><g id="SvgjsG1040" transform="translate(445,160.00164473684254)"><path id="SvgjsPath1041" d="M 0 4Q 0 0 4 0L 76 0Q 80 0 80 4L 80 26Q 80 30 76 30L 4 30Q 0 30 0 26Z" stroke="rgba(97,97,97,1)" stroke-width="1" fill-opacity="1" fill="#f6f3ee"></path><g id="SvgjsG1042"><text id="SvgjsText1043" font-family="微软雅黑" text-anchor="middle" font-size="12px" width="60px" fill="#3d4b58" font-weight="400" align="middle" lineHeight="125%" anchor="middle" family="微软雅黑" size="12px" weight="400" font-style="" opacity="1" y="5" transform="rotate(0)"><tspan id="SvgjsTspan1044" dy="15" x="40"><tspan id="SvgjsTspan1045" style="text-decoration:;">业务管理</tspan></tspan></text></g></g><g id="SvgjsG1046" transform="translate(245,160.00164473684254)"><path id="SvgjsPath1047" d="M 0 4Q 0 0 4 0L 76 0Q 80 0 80 4L 80 26Q 80 30 76 30L 4 30Q 0 30 0 26Z" stroke="rgba(97,97,97,1)" stroke-width="1" fill-opacity="1" fill="#f6f3ee"></path><g id="SvgjsG1048"><text id="SvgjsText1049" font-family="微软雅黑" text-anchor="middle" font-size="12px" width="60px" fill="#3d4b58" font-weight="400" align="middle" lineHeight="125%" anchor="middle" family="微软雅黑" size="12px" weight="400" font-style="" opacity="1" y="5" transform="rotate(0)"><tspan id="SvgjsTspan1050" dy="15" x="40"><tspan id="SvgjsTspan1051" style="text-decoration:;">财务管理</tspan></tspan></text></g></g><g id="SvgjsG1052"><path id="SvgjsPath1053" d="M85 130.5016447368426L85 145.00164473684254L85 145.00164473684254L85 159.50164473684254" stroke="#323232" stroke-width="1" fill="none"></path></g><g id="SvgjsG1054"><path id="SvgjsPath1055" d="M485 130.5016447368426L485 145.00164473684254L485 145.00164473684254L485 159.50164473684254" stroke="#323232" stroke-width="1" fill="none"></path></g><g id="SvgjsG1056"><path id="SvgjsPath1057" d="M485 191.8016447368425L485 215.00164473684254L485 215.00164473684254L485 238.20164473684258" stroke-dasharray="3,3" stroke="#323232" stroke-width="1" fill="none" marker-start="url(#SvgjsMarker1058)" marker-end="url(#SvgjsMarker1060)"></path></g><g id="SvgjsG1062" transform="translate(245,100.0016447368426)"><path id="SvgjsPath1063" d="M 0 4Q 0 0 4 0L 76 0Q 80 0 80 4L 80 26Q 80 30 76 30L 4 30Q 0 30 0 26Z" stroke="rgba(97,97,97,1)" stroke-width="1" fill-opacity="1" fill="#81a0aa"></path><g id="SvgjsG1064"><text id="SvgjsText1065" font-family="微软雅黑" text-anchor="middle" font-size="13px" width="60px" fill="#f6f3ee" font-weight="400" align="middle" lineHeight="125%" anchor="middle" family="微软雅黑" size="13px" weight="400" font-style="" opacity="1" y="4.375" transform="rotate(0)"><tspan id="SvgjsTspan1066" dy="16" x="40"><tspan id="SvgjsTspan1067" style="text-decoration:;">事</tspan></tspan></text></g></g><g id="SvgjsG1068"><path id="SvgjsPath1069" d="M285 55.50164473684259L285 77.5016447368426L285 77.5016447368426L285 99.5016447368426" stroke="#323232" stroke-width="1" fill="none"></path></g><g id="SvgjsG1070"><path id="SvgjsPath1071" d="M285 130.5016447368426L285 145.00164473684254L285 145.00164473684254L285 159.50164473684254" stroke="#323232" stroke-width="1" fill="none"></path></g><g id="SvgjsG1072" transform="translate(245,240.00164473684254)"><path id="SvgjsPath1073" d="M 0 4Q 0 0 4 0L 76 0Q 80 0 80 4L 80 26Q 80 30 76 30L 4 30Q 0 30 0 26Z" stroke="rgba(97,97,97,1)" stroke-width="1" fill-opacity="1" fill="#f6f3ee"></path><g id="SvgjsG1074"><text id="SvgjsText1075" font-family="微软雅黑" text-anchor="middle" font-size="12px" width="60px" fill="#3d4b58" font-weight="400" align="middle" lineHeight="125%" anchor="middle" family="微软雅黑" size="12px" weight="400" font-style="" opacity="1" y="5" transform="rotate(0)"><tspan id="SvgjsTspan1076" dy="15" x="40"><tspan id="SvgjsTspan1077" style="text-decoration:;"> 综合财力</tspan></tspan></text></g></g><g id="SvgjsG1078"><path id="SvgjsPath1079" d="M285 191.8016447368425L285 215.00164473684254L285 215.00164473684254L285 238.20164473684258" stroke-dasharray="3,3" stroke="#323232" stroke-width="1" fill="none" marker-start="url(#SvgjsMarker1080)" marker-end="url(#SvgjsMarker1082)"></path></g><g id="SvgjsG1084" transform="translate(45,240.00164473684254)"><path id="SvgjsPath1085" d="M 0 4Q 0 0 4 0L 76 0Q 80 0 80 4L 80 26Q 80 30 76 30L 4 30Q 0 30 0 26Z" stroke="rgba(97,97,97,1)" stroke-width="1" fill-opacity="1" fill="#f6f3ee"></path><g id="SvgjsG1086"><text id="SvgjsText1087" font-family="微软雅黑" text-anchor="middle" font-size="12px" width="60px" fill="#3d4b58" font-weight="400" align="middle" lineHeight="125%" anchor="middle" family="微软雅黑" size="12px" weight="400" font-style="" opacity="1" y="5" transform="rotate(0)"><tspan id="SvgjsTspan1088" dy="15" x="40"><tspan id="SvgjsTspan1089" style="text-decoration:;">个人能力</tspan></tspan></text></g></g><g id="SvgjsG1090"><path id="SvgjsPath1091" d="M85 191.8016447368425L85 215.00164473684254L85 215.00164473684254L85 238.20164473684258" stroke-dasharray="3,3" stroke="#323232" stroke-width="1" fill="none" marker-start="url(#SvgjsMarker1092)" marker-end="url(#SvgjsMarker1094)"></path></g><g id="SvgjsG1096" transform="translate(445,240.00164473684254)"><path id="SvgjsPath1097" d="M 0 4Q 0 0 4 0L 76 0Q 80 0 80 4L 80 26Q 80 30 76 30L 4 30Q 0 30 0 26Z" stroke="rgba(97,97,97,1)" stroke-width="1" fill-opacity="1" fill="#f6f3ee"></path><g id="SvgjsG1098"><text id="SvgjsText1099" font-family="微软雅黑" text-anchor="middle" font-size="12px" width="60px" fill="#3d4b58" font-weight="400" align="middle" lineHeight="125%" anchor="middle" family="微软雅黑" size="12px" weight="400" font-style="" opacity="1" y="5" transform="rotate(0)"><tspan id="SvgjsTspan1100" dy="15" x="40"><tspan id="SvgjsTspan1101" style="text-decoration:;">职业发展</tspan></tspan></text></g></g><g id="SvgjsG1102" transform="translate(245,295.00164473684254)"><path id="SvgjsPath1103" d="M 0 0L 80 0L 80 30L 0 30Z" stroke="none" fill="none"></path><g id="SvgjsG1104"><text id="SvgjsText1105" font-family="微软雅黑" text-anchor="middle" font-size="13px" width="80px" fill="#323232" font-weight="400" align="middle" lineHeight="125%" anchor="middle" family="微软雅黑" size="13px" weight="400" font-style="" opacity="1" y="4.375" transform="rotate(0)"><tspan id="SvgjsTspan1106" dy="16" x="40"><tspan id="SvgjsTspan1107" style="text-decoration:;">个人</tspan></tspan></text></g></g></svg>