<svg id="SvgjsSvg1006" width="440" height="189" xmlns="http://www.w3.org/2000/svg" version="1.1" xmlns:xlink="http://www.w3.org/1999/xlink" xmlns:svgjs="http://svgjs.com/svgjs"><defs id="SvgjsDefs1007"></defs><g id="SvgjsG1008" transform="translate(25,25)"><path id="SvgjsPath1009" d="M 0 4Q 0 0 4 0L 266 0Q 270 0 270 4L 270 135Q 270 139 266 139L 4 139Q 0 139 0 135Z" stroke-dasharray="10,6" stroke="rgba(97,97,97,1)" stroke-width="1" fill="none"></path><g id="SvgjsG1010"><text id="SvgjsText1011" font-family="微软雅黑" text-anchor="middle" font-size="12px" width="250px" fill="#3d4b58" font-weight="400" align="middle" lineHeight="125%" anchor="middle" family="微软雅黑" size="12px" weight="400" font-style="" opacity="1" y="59.5" transform="rotate(0)"></text></g></g><g id="SvgjsG1012" transform="translate(175,102.4078947368426)"><path id="SvgjsPath1013" d="M 0 4Q 0 0 4 0L 86 0Q 90 0 90 4L 90 26Q 90 30 86 30L 4 30Q 0 30 0 26Z" stroke="rgba(97,97,97,1)" stroke-width="1" fill-opacity="1" fill="#81a0aa"></path><g id="SvgjsG1014"><text id="SvgjsText1015" font-family="微软雅黑" text-anchor="middle" font-size="13px" width="70px" fill="#f6f3ee" font-weight="400" align="middle" lineHeight="125%" anchor="middle" family="微软雅黑" size="13px" weight="400" font-style="" opacity="1" y="4.375" transform="rotate(0)"><tspan id="SvgjsTspan1016" dy="16" x="45"><tspan id="SvgjsTspan1017" style="text-decoration:;">负债</tspan></tspan></text></g></g><g id="SvgjsG1018" transform="translate(55,102.4078947368426)"><path id="SvgjsPath1019" d="M 0 4Q 0 0 4 0L 86 0Q 90 0 90 4L 90 26Q 90 30 86 30L 4 30Q 0 30 0 26Z" stroke="rgba(97,97,97,1)" stroke-width="1" fill-opacity="1" fill="#81a0aa"></path><g id="SvgjsG1020"><text id="SvgjsText1021" font-family="微软雅黑" text-anchor="middle" font-size="13px" width="70px" fill="#f6f3ee" font-weight="400" align="middle" lineHeight="125%" anchor="middle" family="微软雅黑" size="13px" weight="400" font-style="" opacity="1" y="4.375" transform="rotate(0)"><tspan id="SvgjsTspan1022" dy="16" x="45"><tspan id="SvgjsTspan1023" style="text-decoration:;">资产</tspan></tspan></text></g></g><g id="SvgjsG1024" transform="translate(145,102.4078947368426)"><path id="SvgjsPath1025" d="M 0 0L 30 0L 30 30L 0 30Z" stroke="none" fill="none"></path><g id="SvgjsG1026"><text id="SvgjsText1027" font-family="微软雅黑" text-anchor="middle" font-size="13px" width="30px" fill="#323232" font-weight="400" align="middle" lineHeight="125%" anchor="middle" family="微软雅黑" size="13px" weight="400" font-style="" opacity="1" y="4.375" transform="rotate(0)"><tspan id="SvgjsTspan1028" dy="16" x="15"><tspan id="SvgjsTspan1029" style="text-decoration:;">=</tspan></tspan></text></g></g><g id="SvgjsG1030" transform="translate(295,102.4078947368426)"><path id="SvgjsPath1031" d="M 0 0L 30 0L 30 30L 0 30Z" stroke="none" fill="none"></path><g id="SvgjsG1032"><text id="SvgjsText1033" font-family="微软雅黑" text-anchor="middle" font-size="13px" width="30px" fill="#323232" font-weight="400" align="middle" lineHeight="125%" anchor="middle" family="微软雅黑" size="13px" weight="400" font-style="" opacity="1" y="4.375" transform="rotate(0)"><tspan id="SvgjsTspan1034" dy="16" x="15"><tspan id="SvgjsTspan1035" style="text-decoration:;">+</tspan></tspan></text></g></g><g id="SvgjsG1036" transform="translate(325,102.4078947368426)"><path id="SvgjsPath1037" d="M 0 4Q 0 0 4 0L 86 0Q 90 0 90 4L 90 26Q 90 30 86 30L 4 30Q 0 30 0 26Z" stroke="rgba(97,97,97,1)" stroke-width="1" fill-opacity="1" fill="#81a0aa"></path><g id="SvgjsG1038"><text id="SvgjsText1039" font-family="微软雅黑" text-anchor="middle" font-size="13px" width="70px" fill="#f6f3ee" font-weight="400" align="middle" lineHeight="125%" anchor="middle" family="微软雅黑" size="13px" weight="400" font-style="" opacity="1" y="4.375" transform="rotate(0)"><tspan id="SvgjsTspan1040" dy="16" x="45"><tspan id="SvgjsTspan1041" style="text-decoration:;">所有者权益</tspan></tspan></text></g></g><g id="SvgjsG1042" transform="translate(115,60.40789473684259)"><path id="SvgjsPath1043" d="M 0 0L 90 0L 90 30L 0 30Z" stroke="none" fill="none"></path><g id="SvgjsG1044"><text id="SvgjsText1045" font-family="微软雅黑" text-anchor="middle" font-size="13px" width="90px" fill="#323232" font-weight="400" align="middle" lineHeight="125%" anchor="middle" family="微软雅黑" size="13px" weight="400" font-style="" opacity="1" y="4.375" transform="rotate(0)"><tspan id="SvgjsTspan1046" dy="16" x="45"><tspan id="SvgjsTspan1047" style="text-decoration:;">主动自变量</tspan></tspan></text></g></g><g id="SvgjsG1048" transform="translate(325,60.40789473684259)"><path id="SvgjsPath1049" d="M 0 0L 90 0L 90 30L 0 30Z" stroke="none" fill="none"></path><g id="SvgjsG1050"><text id="SvgjsText1051" font-family="微软雅黑" text-anchor="middle" font-size="13px" width="90px" fill="#323232" font-weight="400" align="middle" lineHeight="125%" anchor="middle" family="微软雅黑" size="13px" weight="400" font-style="" opacity="1" y="4.375" transform="rotate(0)"><tspan id="SvgjsTspan1052" dy="16" x="45"><tspan id="SvgjsTspan1053" style="text-decoration:;">被动因变量</tspan></tspan></text></g></g></svg>