<svg id="SvgjsSvg1006" width="500" height="272.09375" xmlns="http://www.w3.org/2000/svg" version="1.1" xmlns:xlink="http://www.w3.org/1999/xlink" xmlns:svgjs="http://svgjs.com/svgjs"><defs id="SvgjsDefs1007"><marker id="SvgjsMarker1028" markerWidth="12" markerHeight="8" refX="9" refY="4" viewBox="0 0 12 8" orient="auto" markerUnits="userSpaceOnUse" stroke-dasharray="0,0"><path id="SvgjsPath1029" d="M0,0 L12,4 L0,8 L0,0" fill="#323232" stroke="#323232" stroke-width="1"></path></marker><marker id="SvgjsMarker1032" markerWidth="12" markerHeight="8" refX="9" refY="4" viewBox="0 0 12 8" orient="auto" markerUnits="userSpaceOnUse" stroke-dasharray="0,0"><path id="SvgjsPath1033" d="M0,0 L12,4 L0,8 L0,0" fill="#323232" stroke="#323232" stroke-width="1"></path></marker><marker id="SvgjsMarker1048" markerWidth="12" markerHeight="8" refX="9" refY="4" viewBox="0 0 12 8" orient="auto" markerUnits="userSpaceOnUse" stroke-dasharray="0,0"><path id="SvgjsPath1049" d="M0,0 L12,4 L0,8 L0,0" fill="#323232" stroke="#323232" stroke-width="1"></path></marker><marker id="SvgjsMarker1058" markerWidth="12" markerHeight="8" refX="9" refY="4" viewBox="0 0 12 8" orient="auto" markerUnits="userSpaceOnUse" stroke-dasharray="0,0"><path id="SvgjsPath1059" d="M0,0 L12,4 L0,8 L0,0" fill="#323232" stroke="#323232" stroke-width="1"></path></marker></defs><g id="SvgjsG1008" transform="translate(175,100.0016447368426)"><path id="SvgjsPath1009" d="M 0 4Q 0 0 4 0L 146 0Q 150 0 150 4L 150 26Q 150 30 146 30L 4 30Q 0 30 0 26Z" stroke="rgba(97,97,97,1)" stroke-width="1" fill-opacity="1" fill="#81a0aa"></path><g id="SvgjsG1010"><text id="SvgjsText1011" font-family="微软雅黑" text-anchor="middle" font-size="13px" width="130px" fill="#f6f3ee" font-weight="400" align="middle" lineHeight="125%" anchor="middle" family="微软雅黑" size="13px" weight="400" font-style="" opacity="1" y="4.375" transform="rotate(0)"><tspan id="SvgjsTspan1012" dy="16" x="75"><tspan id="SvgjsTspan1013" style="text-decoration:;">金融合约</tspan></tspan></text></g></g><g id="SvgjsG1014" transform="translate(25,25.001644736842593)"><path id="SvgjsPath1015" d="M 0 4Q 0 0 4 0L 116 0Q 120 0 120 4L 120 26Q 120 30 116 30L 4 30Q 0 30 0 26Z" stroke="rgba(97,97,97,1)" stroke-width="1" fill-opacity="1" fill="#f6f3ee"></path><g id="SvgjsG1016"><text id="SvgjsText1017" font-family="微软雅黑" text-anchor="middle" font-size="13px" width="100px" fill="#3d4b58" font-weight="400" align="middle" lineHeight="125%" anchor="middle" family="微软雅黑" size="13px" weight="400" font-style="" opacity="1" y="4.375" transform="rotate(0)"><tspan id="SvgjsTspan1018" dy="16" x="60"><tspan id="SvgjsTspan1019" style="text-decoration:;">使用者</tspan></tspan></text></g></g><g id="SvgjsG1020" transform="translate(355,25.001644736842593)"><path id="SvgjsPath1021" d="M 0 4Q 0 0 4 0L 116 0Q 120 0 120 4L 120 26Q 120 30 116 30L 4 30Q 0 30 0 26Z" stroke="rgba(97,97,97,1)" stroke-width="1" fill-opacity="1" fill="#f6f3ee"></path><g id="SvgjsG1022"><text id="SvgjsText1023" font-family="微软雅黑" text-anchor="middle" font-size="13px" width="100px" fill="#3d4b58" font-weight="400" align="middle" lineHeight="125%" anchor="middle" family="微软雅黑" size="13px" weight="400" font-style="" opacity="1" y="4.375" transform="rotate(0)"><tspan id="SvgjsTspan1024" dy="16" x="60"><tspan id="SvgjsTspan1025" style="text-decoration:;">生产者</tspan></tspan></text></g></g><g id="SvgjsG1026"><path id="SvgjsPath1027" d="M85 55.50164473684259L85 77.5016447368426L250 77.5016447368426L250 98.20164473684258" stroke="#323232" stroke-width="1" fill="none" marker-end="url(#SvgjsMarker1028)"></path></g><g id="SvgjsG1030"><path id="SvgjsPath1031" d="M415 55.50164473684259L415 77.5016447368426L250 77.5016447368426L250 98.20164473684258" stroke="#323232" stroke-width="1" fill="none" marker-end="url(#SvgjsMarker1032)"></path></g><g id="SvgjsG1034" transform="translate(175,217.09375)"><path id="SvgjsPath1035" d="M 0 0L 150 0L 150 30L 0 30Z" stroke="none" fill="none"></path><g id="SvgjsG1036"><text id="SvgjsText1037" font-family="微软雅黑" text-anchor="middle" font-size="13px" width="150px" fill="#323232" font-weight="400" align="middle" lineHeight="125%" anchor="middle" family="微软雅黑" size="13px" weight="400" font-style="" opacity="1" y="4.375" transform="rotate(0)"><tspan id="SvgjsTspan1038" dy="16" x="75"><tspan id="SvgjsTspan1039" style="text-decoration:;">银行、证券、基金、保险</tspan></tspan></text></g></g><g id="SvgjsG1040" transform="translate(190,25.001644736842593)"><path id="SvgjsPath1041" d="M 0 4Q 0 0 4 0L 116 0Q 120 0 120 4L 120 26Q 120 30 116 30L 4 30Q 0 30 0 26Z" stroke="rgba(97,97,97,1)" stroke-width="1" fill-opacity="1" fill="#f6f3ee"></path><g id="SvgjsG1042"><text id="SvgjsText1043" font-family="微软雅黑" text-anchor="middle" font-size="13px" width="100px" fill="#3d4b58" font-weight="400" align="middle" lineHeight="125%" anchor="middle" family="微软雅黑" size="13px" weight="400" font-style="" opacity="1" y="4.375" transform="rotate(0)"><tspan id="SvgjsTspan1044" dy="16" x="60"><tspan id="SvgjsTspan1045" style="text-decoration:;">销售者</tspan></tspan></text></g></g><g id="SvgjsG1046"><path id="SvgjsPath1047" d="M250 55.50164473684259L250 77.5016447368426L250 77.5016447368426L250 98.20164473684258" stroke="#323232" stroke-width="1" fill="none" marker-end="url(#SvgjsMarker1048)"></path></g><g id="SvgjsG1050" transform="translate(190,175.0016447368426)"><path id="SvgjsPath1051" d="M 0 4Q 0 0 4 0L 116 0Q 120 0 120 4L 120 26Q 120 30 116 30L 4 30Q 0 30 0 26Z" stroke="rgba(97,97,97,1)" stroke-width="1" fill-opacity="1" fill="#f6f3ee"></path><g id="SvgjsG1052"><text id="SvgjsText1053" font-family="微软雅黑" text-anchor="middle" font-size="13px" width="100px" fill="#3d4b58" font-weight="400" align="middle" lineHeight="125%" anchor="middle" family="微软雅黑" size="13px" weight="400" font-style="" opacity="1" y="4.375" transform="rotate(0)"><tspan id="SvgjsTspan1054" dy="16" x="60"><tspan id="SvgjsTspan1055" style="text-decoration:;">金融机构</tspan></tspan></text></g></g><g id="SvgjsG1056"><path id="SvgjsPath1057" d="M250 174.5016447368426L250 152.5016447368426L250 152.5016447368426L250 131.8016447368426" stroke="#323232" stroke-width="1" fill="none" marker-end="url(#SvgjsMarker1058)"></path></g></svg>