<svg id="SvgjsSvg1006" width="612" height="305" xmlns="http://www.w3.org/2000/svg" version="1.1" xmlns:xlink="http://www.w3.org/1999/xlink" xmlns:svgjs="http://svgjs.com/svgjs"><defs id="SvgjsDefs1007"><marker id="SvgjsMarker1028" markerWidth="12" markerHeight="8" refX="9" refY="4" viewBox="0 0 12 8" orient="auto" markerUnits="userSpaceOnUse" stroke-dasharray="0,0"><path id="SvgjsPath1029" d="M0,0 L12,4 L0,8 L0,0" fill="#323232" stroke="#323232" stroke-width="1"></path></marker><marker id="SvgjsMarker1032" markerWidth="12" markerHeight="8" refX="9" refY="4" viewBox="0 0 12 8" orient="auto" markerUnits="userSpaceOnUse" stroke-dasharray="0,0"><path id="SvgjsPath1033" d="M0,0 L12,4 L0,8 L0,0" fill="#323232" stroke="#323232" stroke-width="1"></path></marker><marker id="SvgjsMarker1048" markerWidth="12" markerHeight="8" refX="9" refY="4" viewBox="0 0 12 8" orient="auto" markerUnits="userSpaceOnUse" stroke-dasharray="0,0"><path id="SvgjsPath1049" d="M0,0 L12,4 L0,8 L0,0" fill="#323232" stroke="#323232" stroke-width="1"></path></marker><marker id="SvgjsMarker1052" markerWidth="12" markerHeight="8" refX="9" refY="4" viewBox="0 0 12 8" orient="auto" markerUnits="userSpaceOnUse" stroke-dasharray="0,0"><path id="SvgjsPath1053" d="M0,0 L12,4 L0,8 L0,0" fill="#323232" stroke="#323232" stroke-width="1"></path></marker></defs><g id="SvgjsG1008" transform="translate(250,100.0016447368426)"><path id="SvgjsPath1009" d="M 0 4Q 0 0 4 0L 146 0Q 150 0 150 4L 150 26Q 150 30 146 30L 4 30Q 0 30 0 26Z" stroke="rgba(97,97,97,1)" stroke-width="1" fill-opacity="1" fill="#81a0aa"></path><g id="SvgjsG1010"><text id="SvgjsText1011" font-family="微软雅黑" text-anchor="middle" font-size="13px" width="130px" fill="#f6f3ee" font-weight="400" align="middle" lineHeight="125%" anchor="middle" family="微软雅黑" size="13px" weight="400" font-style="" opacity="1" y="4.375" transform="rotate(0)"><tspan id="SvgjsTspan1012" dy="16" x="75"><tspan id="SvgjsTspan1013" style="text-decoration:;">市场调控</tspan></tspan></text></g></g><g id="SvgjsG1014" transform="translate(100,175.0016447368426)"><path id="SvgjsPath1015" d="M 0 4Q 0 0 4 0L 146 0Q 150 0 150 4L 150 26Q 150 30 146 30L 4 30Q 0 30 0 26Z" stroke="rgba(97,97,97,1)" stroke-width="1" fill-opacity="1" fill="#81a0aa"></path><g id="SvgjsG1016"><text id="SvgjsText1017" font-family="微软雅黑" text-anchor="middle" font-size="13px" width="130px" fill="#f6f3ee" font-weight="400" align="middle" lineHeight="125%" anchor="middle" family="微软雅黑" size="13px" weight="400" font-style="" opacity="1" y="4.375" transform="rotate(0)"><tspan id="SvgjsTspan1018" dy="16" x="75"><tspan id="SvgjsTspan1019" style="text-decoration:;">政府</tspan></tspan></text></g></g><g id="SvgjsG1020" transform="translate(400,175.0016447368426)"><path id="SvgjsPath1021" d="M 0 4Q 0 0 4 0L 146 0Q 150 0 150 4L 150 26Q 150 30 146 30L 4 30Q 0 30 0 26Z" stroke="rgba(97,97,97,1)" stroke-width="1" fill-opacity="1" fill="#81a0aa"></path><g id="SvgjsG1022"><text id="SvgjsText1023" font-family="微软雅黑" text-anchor="middle" font-size="13px" width="130px" fill="#f6f3ee" font-weight="400" align="middle" lineHeight="125%" anchor="middle" family="微软雅黑" size="13px" weight="400" font-style="" opacity="1" y="4.375" transform="rotate(0)"><tspan id="SvgjsTspan1024" dy="16" x="75"><tspan id="SvgjsTspan1025" style="text-decoration:;">中央银行</tspan></tspan></text></g></g><g id="SvgjsG1026"><path id="SvgjsPath1027" d="M400.5 115.0016447368426L475 115.0016447368426L475 173.20164473684258" stroke="#323232" stroke-width="1" fill="none" marker-end="url(#SvgjsMarker1028)"></path></g><g id="SvgjsG1030"><path id="SvgjsPath1031" d="M249.5 115.0016447368426L175 115.0016447368426L175 173.20164473684258" stroke="#323232" stroke-width="1" fill="none" marker-end="url(#SvgjsMarker1032)"></path></g><g id="SvgjsG1034" transform="translate(100,25.001644736842593)"><path id="SvgjsPath1035" d="M 0 4Q 0 0 4 0L 146 0Q 150 0 150 4L 150 26Q 150 30 146 30L 4 30Q 0 30 0 26Z" stroke="rgba(97,97,97,1)" stroke-width="1" fill-opacity="1" fill="#f6f3ee"></path><g id="SvgjsG1036"><text id="SvgjsText1037" font-family="微软雅黑" text-anchor="middle" font-size="13px" width="130px" fill="#3d4b58" font-weight="400" align="middle" lineHeight="125%" anchor="middle" family="微软雅黑" size="13px" weight="400" font-style="" opacity="1" y="4.375" transform="rotate(0)"><tspan id="SvgjsTspan1038" dy="16" x="75"><tspan id="SvgjsTspan1039" style="text-decoration:;">市场运作过冷/过热</tspan></tspan></text></g></g><g id="SvgjsG1040" transform="translate(400,25.001644736842593)"><path id="SvgjsPath1041" d="M 0 4Q 0 0 4 0L 146 0Q 150 0 150 4L 150 26Q 150 30 146 30L 4 30Q 0 30 0 26Z" stroke="rgba(97,97,97,1)" stroke-width="1" fill-opacity="1" fill="#f6f3ee"></path><g id="SvgjsG1042"><text id="SvgjsText1043" font-family="微软雅黑" text-anchor="middle" font-size="13px" width="130px" fill="#3d4b58" font-weight="400" align="middle" lineHeight="125%" anchor="middle" family="微软雅黑" size="13px" weight="400" font-style="" opacity="1" y="4.375" transform="rotate(0)"><tspan id="SvgjsTspan1044" dy="16" x="75"><tspan id="SvgjsTspan1045" style="text-decoration:;">大量资金分配失衡</tspan></tspan></text></g></g><g id="SvgjsG1046"><path id="SvgjsPath1047" d="M175 55.50164473684259L175 77.5016447368426L325 77.5016447368426L325 98.20164473684258" stroke="#323232" stroke-width="1" fill="none" marker-end="url(#SvgjsMarker1048)"></path></g><g id="SvgjsG1050"><path id="SvgjsPath1051" d="M475 55.50164473684259L475 77.5016447368426L325 77.5016447368426L325 98.20164473684258" stroke="#323232" stroke-width="1" fill="none" marker-end="url(#SvgjsMarker1052)"></path></g><g id="SvgjsG1054" transform="translate(25,250.0016447368426)"><path id="SvgjsPath1055" d="M 0 4Q 0 0 4 0L 86 0Q 90 0 90 4L 90 26Q 90 30 86 30L 4 30Q 0 30 0 26Z" stroke="rgba(97,97,97,1)" stroke-width="1" fill-opacity="1" fill="#f6f3ee"></path><g id="SvgjsG1056"><text id="SvgjsText1057" font-family="微软雅黑" text-anchor="middle" font-size="13px" width="70px" fill="#3d4b58" font-weight="400" align="middle" lineHeight="125%" anchor="middle" family="微软雅黑" size="13px" weight="400" font-style="" opacity="1" y="4.375" transform="rotate(0)"><tspan id="SvgjsTspan1058" dy="16" x="45"><tspan id="SvgjsTspan1059" style="text-decoration:;">国债</tspan></tspan></text></g></g><g id="SvgjsG1060" transform="translate(130,250.0016447368426)"><path id="SvgjsPath1061" d="M 0 4Q 0 0 4 0L 86 0Q 90 0 90 4L 90 26Q 90 30 86 30L 4 30Q 0 30 0 26Z" stroke="rgba(97,97,97,1)" stroke-width="1" fill-opacity="1" fill="#f6f3ee"></path><g id="SvgjsG1062"><text id="SvgjsText1063" font-family="微软雅黑" text-anchor="middle" font-size="13px" width="70px" fill="#3d4b58" font-weight="400" align="middle" lineHeight="125%" anchor="middle" family="微软雅黑" size="13px" weight="400" font-style="" opacity="1" y="4.375" transform="rotate(0)"><tspan id="SvgjsTspan1064" dy="16" x="45"><tspan id="SvgjsTspan1065" style="text-decoration:;">税收</tspan></tspan></text></g></g><g id="SvgjsG1066" transform="translate(235,250.0016447368426)"><path id="SvgjsPath1067" d="M 0 4Q 0 0 4 0L 86 0Q 90 0 90 4L 90 26Q 90 30 86 30L 4 30Q 0 30 0 26Z" stroke="rgba(97,97,97,1)" stroke-width="1" fill-opacity="1" fill="#f6f3ee"></path><g id="SvgjsG1068"><text id="SvgjsText1069" font-family="微软雅黑" text-anchor="middle" font-size="13px" width="70px" fill="#3d4b58" font-weight="400" align="middle" lineHeight="125%" anchor="middle" family="微软雅黑" size="13px" weight="400" font-style="" opacity="1" y="4.375" transform="rotate(0)"><tspan id="SvgjsTspan1070" dy="16" x="45"><tspan id="SvgjsTspan1071" style="text-decoration:;">财政</tspan><tspan id="SvgjsTspan1072" style="text-decoration:;font-size: inherit;">支出</tspan></tspan></text></g></g><g id="SvgjsG1073" transform="translate(250,131.09375)"><path id="SvgjsPath1074" d="M 0 0L 150 0L 150 30L 0 30Z" stroke="none" fill="none"></path><g id="SvgjsG1075"><text id="SvgjsText1076" font-family="微软雅黑" text-anchor="middle" font-size="13px" width="150px" fill="#323232" font-weight="400" align="middle" lineHeight="125%" anchor="middle" family="微软雅黑" size="13px" weight="400" font-style="" opacity="1" y="4.375" transform="rotate(0)"><tspan id="SvgjsTspan1077" dy="16" x="75"><tspan id="SvgjsTspan1078" style="text-decoration:;">国家力量参与</tspan></tspan></text></g></g><g id="SvgjsG1079"><path id="SvgjsPath1080" d="M175 205.5016447368426L175 227.5016447368426L175 227.5016447368426L175 249.5016447368426" stroke="#323232" stroke-width="1" fill="none"></path></g><g id="SvgjsG1081"><path id="SvgjsPath1082" d="M175 205.5016447368426L175 227.5016447368426L280 227.5016447368426L280 249.5016447368426" stroke="#323232" stroke-width="1" fill="none"></path></g><g id="SvgjsG1083"><path id="SvgjsPath1084" d="M175 205.5016447368426L175 227.5016447368426L70 227.5016447368426L70 249.5016447368426" stroke="#323232" stroke-width="1" fill="none"></path></g><g id="SvgjsG1085" transform="translate(497,250.0016447368426)"><path id="SvgjsPath1086" d="M 0 4Q 0 0 4 0L 86 0Q 90 0 90 4L 90 26Q 90 30 86 30L 4 30Q 0 30 0 26Z" stroke="rgba(97,97,97,1)" stroke-width="1" fill-opacity="1" fill="#f6f3ee"></path><g id="SvgjsG1087"><text id="SvgjsText1088" font-family="微软雅黑" text-anchor="middle" font-size="13px" width="70px" fill="#3d4b58" font-weight="400" align="middle" lineHeight="125%" anchor="middle" family="微软雅黑" size="13px" weight="400" font-style="" opacity="1" y="4.375" transform="rotate(0)"><tspan id="SvgjsTspan1089" dy="16" x="45"><tspan id="SvgjsTspan1090" style="text-decoration:;">发行货币</tspan></tspan></text></g></g><g id="SvgjsG1091" transform="translate(362,250.0016447368426)"><path id="SvgjsPath1092" d="M 0 4Q 0 0 4 0L 86 0Q 90 0 90 4L 90 26Q 90 30 86 30L 4 30Q 0 30 0 26Z" stroke="rgba(97,97,97,1)" stroke-width="1" fill-opacity="1" fill="#f6f3ee"></path><g id="SvgjsG1093"><text id="SvgjsText1094" font-family="微软雅黑" text-anchor="middle" font-size="13px" width="70px" fill="#3d4b58" font-weight="400" align="middle" lineHeight="125%" anchor="middle" family="微软雅黑" size="13px" weight="400" font-style="" opacity="1" y="4.375" transform="rotate(0)"><tspan id="SvgjsTspan1095" dy="16" x="45"><tspan id="SvgjsTspan1096" style="text-decoration:;">利率</tspan></tspan></text></g></g><g id="SvgjsG1097"><path id="SvgjsPath1098" d="M475 205.5016447368426L475 227.5016447368426L407 227.5016447368426L407 249.5016447368426" stroke="#323232" stroke-width="1" fill="none"></path></g><g id="SvgjsG1099"><path id="SvgjsPath1100" d="M475 205.5016447368426L475 227.5016447368426L542 227.5016447368426L542 249.5016447368426" stroke="#323232" stroke-width="1" fill="none"></path></g><g id="SvgjsG1101" transform="translate(250,48.09375)"><path id="SvgjsPath1102" d="M 0 0L 150 0L 150 30L 0 30Z" stroke="none" fill="none"></path><g id="SvgjsG1103"><text id="SvgjsText1104" font-family="微软雅黑" text-anchor="middle" font-size="13px" width="150px" fill="#323232" font-weight="400" align="middle" lineHeight="125%" anchor="middle" family="微软雅黑" size="13px" weight="400" font-style="" opacity="1" y="4.375" transform="rotate(0)"><tspan id="SvgjsTspan1105" dy="16" x="75"><tspan id="SvgjsTspan1106" style="text-decoration:;">需要宏观调控</tspan></tspan></text></g></g><g id="SvgjsG1107" transform="translate(265,175.0016447368426)"><path id="SvgjsPath1108" d="M 0 0L 120 0L 120 30L 0 30Z" stroke="none" fill="none"></path><g id="SvgjsG1109"><text id="SvgjsText1110" font-family="&quot;Times New Roman&quot;" text-anchor="middle" font-size="13px" width="120px" fill="#e0e0e0" font-weight="400" align="middle" lineHeight="125%" anchor="middle" family="&quot;Times New Roman&quot;" size="13px" weight="400" font-style="" opacity="1" y="4.375" transform="rotate(0)"><tspan id="SvgjsTspan1111" dy="16" x="60"><tspan id="SvgjsTspan1112" style="text-decoration:;">www.kofes.cn</tspan></tspan></text></g></g></svg>