<svg id="SvgjsSvg1006" width="590" height="200" xmlns="http://www.w3.org/2000/svg" version="1.1" xmlns:xlink="http://www.w3.org/1999/xlink" xmlns:svgjs="http://svgjs.com/svgjs"><defs id="SvgjsDefs1007"></defs><g id="SvgjsG1008" transform="translate(220,85.0016447368426)"><path id="SvgjsPath1009" d="M 0 4Q 0 0 4 0L 146 0Q 150 0 150 4L 150 26Q 150 30 146 30L 4 30Q 0 30 0 26Z" stroke="rgba(97,97,97,1)" stroke-width="1" fill-opacity="1" fill="#81a0aa"></path><g id="SvgjsG1010"><text id="SvgjsText1011" font-family="微软雅黑" text-anchor="middle" font-size="13px" width="130px" fill="#f6f3ee" font-weight="400" align="middle" lineHeight="125%" anchor="middle" family="微软雅黑" size="13px" weight="400" font-style="" opacity="1" y="4.875" transform="rotate(0)"><tspan id="SvgjsTspan1012" dy="16" x="75"><tspan id="SvgjsTspan1013" style="text-decoration:;">意识的功能</tspan></tspan></text></g></g><g id="SvgjsG1014" transform="translate(25,145.0016447368426)"><path id="SvgjsPath1015" d="M 0 4Q 0 0 4 0L 146 0Q 150 0 150 4L 150 26Q 150 30 146 30L 4 30Q 0 30 0 26Z" stroke="rgba(97,97,97,1)" stroke-width="1" fill-opacity="1" fill="#f6f3ee"></path><g id="SvgjsG1016"><text id="SvgjsText1017" font-family="微软雅黑" text-anchor="middle" font-size="13px" width="130px" fill="#3d4b58" font-weight="400" align="middle" lineHeight="125%" anchor="middle" family="微软雅黑" size="13px" weight="400" font-style="" opacity="1" y="4.875" transform="rotate(0)"><tspan id="SvgjsTspan1018" dy="16" x="75"><tspan id="SvgjsTspan1019" style="text-decoration:;">自我监视</tspan></tspan></text></g></g><g id="SvgjsG1020" transform="translate(25,25.001644736842593)"><path id="SvgjsPath1021" d="M 0 4Q 0 0 4 0L 146 0Q 150 0 150 4L 150 26Q 150 30 146 30L 4 30Q 0 30 0 26Z" stroke="rgba(97,97,97,1)" stroke-width="1" fill-opacity="1" fill="#f6f3ee"></path><g id="SvgjsG1022"><text id="SvgjsText1023" font-family="微软雅黑" text-anchor="middle" font-size="13px" width="130px" fill="#3d4b58" font-weight="400" align="middle" lineHeight="125%" anchor="middle" family="微软雅黑" size="13px" weight="400" font-style="" opacity="1" y="4.875" transform="rotate(0)"><tspan id="SvgjsTspan1024" dy="16" x="75"><tspan id="SvgjsTspan1025" style="text-decoration:;">情景设定</tspan></tspan></text></g></g><g id="SvgjsG1026" transform="translate(220,25.001644736842593)"><path id="SvgjsPath1027" d="M 0 4Q 0 0 4 0L 146 0Q 150 0 150 4L 150 26Q 150 30 146 30L 4 30Q 0 30 0 26Z" stroke="rgba(97,97,97,1)" stroke-width="1" fill-opacity="1" fill="#f6f3ee"></path><g id="SvgjsG1028"><text id="SvgjsText1029" font-family="微软雅黑" text-anchor="middle" font-size="13px" width="130px" fill="#3d4b58" font-weight="400" align="middle" lineHeight="125%" anchor="middle" family="微软雅黑" size="13px" weight="400" font-style="" opacity="1" y="4.875" transform="rotate(0)"><tspan id="SvgjsTspan1030" dy="16" x="75"><tspan id="SvgjsTspan1031" style="text-decoration:;">适应和学习</tspan></tspan></text></g></g><g id="SvgjsG1032" transform="translate(415,25.001644736842593)"><path id="SvgjsPath1033" d="M 0 4Q 0 0 4 0L 146 0Q 150 0 150 4L 150 26Q 150 30 146 30L 4 30Q 0 30 0 26Z" stroke="rgba(97,97,97,1)" stroke-width="1" fill-opacity="1" fill="#f6f3ee"></path><g id="SvgjsG1034"><text id="SvgjsText1035" font-family="微软雅黑" text-anchor="middle" font-size="13px" width="130px" fill="#3d4b58" font-weight="400" align="middle" lineHeight="125%" anchor="middle" family="微软雅黑" size="13px" weight="400" font-style="" opacity="1" y="4.875" transform="rotate(0)"><tspan id="SvgjsTspan1036" dy="16" x="75"><tspan id="SvgjsTspan1037" style="text-decoration:;">优先次序区分和提取</tspan></tspan></text></g></g><g id="SvgjsG1038" transform="translate(415,85.0016447368426)"><path id="SvgjsPath1039" d="M 0 4Q 0 0 4 0L 146 0Q 150 0 150 4L 150 26Q 150 30 146 30L 4 30Q 0 30 0 26Z" stroke="rgba(97,97,97,1)" stroke-width="1" fill-opacity="1" fill="#f6f3ee"></path><g id="SvgjsG1040"><text id="SvgjsText1041" font-family="微软雅黑" text-anchor="middle" font-size="13px" width="130px" fill="#3d4b58" font-weight="400" align="middle" lineHeight="125%" anchor="middle" family="微软雅黑" size="13px" weight="400" font-style="" opacity="1" y="4.875" transform="rotate(0)"><tspan id="SvgjsTspan1042" dy="16" x="75"><tspan id="SvgjsTspan1043" style="text-decoration:;">召集和控制</tspan></tspan></text></g></g><g id="SvgjsG1044" transform="translate(415,145.0016447368426)"><path id="SvgjsPath1045" d="M 0 4Q 0 0 4 0L 146 0Q 150 0 150 4L 150 26Q 150 30 146 30L 4 30Q 0 30 0 26Z" stroke="rgba(97,97,97,1)" stroke-width="1" fill-opacity="1" fill="#f6f3ee"></path><g id="SvgjsG1046"><text id="SvgjsText1047" font-family="微软雅黑" text-anchor="middle" font-size="13px" width="130px" fill="#3d4b58" font-weight="400" align="middle" lineHeight="125%" anchor="middle" family="微软雅黑" size="13px" weight="400" font-style="" opacity="1" y="4.875" transform="rotate(0)"><tspan id="SvgjsTspan1048" dy="16" x="75"><tspan id="SvgjsTspan1049" style="text-decoration:;">决定和执行</tspan></tspan></text></g></g><g id="SvgjsG1050" transform="translate(25,85.0016447368426)"><path id="SvgjsPath1051" d="M 0 4Q 0 0 4 0L 146 0Q 150 0 150 4L 150 26Q 150 30 146 30L 4 30Q 0 30 0 26Z" stroke="rgba(97,97,97,1)" stroke-width="1" fill-opacity="1" fill="#f6f3ee"></path><g id="SvgjsG1052"><text id="SvgjsText1053" font-family="微软雅黑" text-anchor="middle" font-size="13px" width="130px" fill="#3d4b58" font-weight="400" align="middle" lineHeight="125%" anchor="middle" family="微软雅黑" size="13px" weight="400" font-style="" opacity="1" y="4.875" transform="rotate(0)"><tspan id="SvgjsTspan1054" dy="16" x="75"><tspan id="SvgjsTspan1055" style="text-decoration:;">组织和灵活性</tspan></tspan></text></g></g><g id="SvgjsG1056" transform="translate(220,145.0016447368426)"><path id="SvgjsPath1057" d="M 0 4Q 0 0 4 0L 146 0Q 150 0 150 4L 150 26Q 150 30 146 30L 4 30Q 0 30 0 26Z" stroke="rgba(97,97,97,1)" stroke-width="1" fill-opacity="1" fill="#f6f3ee"></path><g id="SvgjsG1058"><text id="SvgjsText1059" font-family="微软雅黑" text-anchor="middle" font-size="13px" width="130px" fill="#3d4b58" font-weight="400" align="middle" lineHeight="125%" anchor="middle" family="微软雅黑" size="13px" weight="400" font-style="" opacity="1" y="4.875" transform="rotate(0)"><tspan id="SvgjsTspan1060" dy="16" x="75"><tspan id="SvgjsTspan1061" style="text-decoration:;">错误侦测与编辑</tspan></tspan></text></g></g><g id="SvgjsG1062"><path id="SvgjsPath1063" d="M295 84.5016447368426L295 70.0016447368426L295 70.0016447368426L295 55.50164473684259" stroke="#323232" stroke-width="1" fill="none"></path></g><g id="SvgjsG1064"><path id="SvgjsPath1065" d="M370.5 100.0016447368426L392.5 100.0016447368426L392.5 40.00164473684259L414.5 40.00164473684259" stroke="#323232" stroke-width="1" fill="none"></path></g><g id="SvgjsG1066"><path id="SvgjsPath1067" d="M370.5 100.0016447368426L392.5 100.0016447368426L392.5 100.0016447368426L414.5 100.0016447368426" stroke="#323232" stroke-width="1" fill="none"></path></g><g id="SvgjsG1068"><path id="SvgjsPath1069" d="M370.5 100.0016447368426L392.5 100.0016447368426L392.5 160.0016447368426L414.5 160.0016447368426" stroke="#323232" stroke-width="1" fill="none"></path></g><g id="SvgjsG1070"><path id="SvgjsPath1071" d="M295 115.5016447368426L295 130.0016447368426L295 130.0016447368426L295 144.5016447368426" stroke="#323232" stroke-width="1" fill="none"></path></g><g id="SvgjsG1072"><path id="SvgjsPath1073" d="M219.5 100.0016447368426L197.5 100.0016447368426L197.5 40.00164473684259L175.5 40.00164473684259" stroke="#323232" stroke-width="1" fill="none"></path></g><g id="SvgjsG1074"><path id="SvgjsPath1075" d="M219.5 100.0016447368426L197.5 100.0016447368426L197.5 100.0016447368426L175.5 100.0016447368426" stroke="#323232" stroke-width="1" fill="none"></path></g><g id="SvgjsG1076"><path id="SvgjsPath1077" d="M219.5 100.0016447368426L197.5 100.0016447368426L197.5 160.0016447368426L175.5 160.0016447368426" stroke="#323232" stroke-width="1" fill="none"></path></g></svg>