<svg id="SvgjsSvg1006" width="351" height="200" xmlns="http://www.w3.org/2000/svg" version="1.1" xmlns:xlink="http://www.w3.org/1999/xlink" xmlns:svgjs="http://svgjs.com/svgjs"><defs id="SvgjsDefs1007"><marker id="SvgjsMarker1022" markerWidth="12" markerHeight="8" refX="9" refY="4" viewBox="0 0 12 8" orient="auto" markerUnits="userSpaceOnUse" stroke-dasharray="0,0"><path id="SvgjsPath1023" d="M0,0 L12,4 L0,8 L0,0" fill="#323232" stroke="#323232" stroke-width="1"></path></marker><marker id="SvgjsMarker1032" markerWidth="12" markerHeight="8" refX="9" refY="4" viewBox="0 0 12 8" orient="auto" markerUnits="userSpaceOnUse" stroke-dasharray="0,0"><path id="SvgjsPath1033" d="M0,0 L12,4 L0,8 L0,0" fill="#323232" stroke="#323232" stroke-width="1"></path></marker><marker id="SvgjsMarker1042" markerWidth="12" markerHeight="8" refX="9" refY="4" viewBox="0 0 12 8" orient="auto" markerUnits="userSpaceOnUse" stroke-dasharray="0,0"><path id="SvgjsPath1043" d="M0,0 L12,4 L0,8 L0,0" fill="#323232" stroke="#323232" stroke-width="1"></path></marker></defs><g id="SvgjsG1008" transform="translate(25.00246710526301,145.0016447368423)"><path id="SvgjsPath1009" d="M 0 4Q 0 0 4 0L 116 0Q 120 0 120 4L 120 26Q 120 30 116 30L 4 30Q 0 30 0 26Z" stroke="rgba(97,97,97,1)" stroke-width="1" fill-opacity="1" fill="#81a0aa"></path><g id="SvgjsG1010"><text id="SvgjsText1011" font-family="微软雅黑" text-anchor="middle" font-size="13px" width="100px" fill="#f6f3ee" font-weight="400" align="middle" lineHeight="125%" anchor="middle" family="微软雅黑" size="13px" weight="400" font-style="" opacity="1" y="4.875" transform="rotate(0)"><tspan id="SvgjsTspan1012" dy="16" x="60"><tspan id="SvgjsTspan1013" style="text-decoration:;">我</tspan></tspan></text></g></g><g id="SvgjsG1014" transform="translate(25.00246710526301,25.00164473684231)"><path id="SvgjsPath1015" d="M 0 4Q 0 0 4 0L 116 0Q 120 0 120 4L 120 26Q 120 30 116 30L 4 30Q 0 30 0 26Z" stroke="rgba(97,97,97,1)" stroke-width="1" fill-opacity="1" fill="#f6f3ee"></path><g id="SvgjsG1016"><text id="SvgjsText1017" font-family="微软雅黑" text-anchor="middle" font-size="13px" width="100px" fill="#3d4b58" font-weight="400" align="middle" lineHeight="125%" anchor="middle" family="微软雅黑" size="13px" weight="400" font-style="" opacity="1" y="4.875" transform="rotate(0)"><tspan id="SvgjsTspan1018" dy="16" x="60"><tspan id="SvgjsTspan1019" style="text-decoration:;">事物</tspan></tspan></text></g></g><g id="SvgjsG1020"><path id="SvgjsPath1021" d="M85.00246710526301 144.5016447368423L85.00246710526301 100.00164473684231L85.00246710526301 100.00164473684231L85.00246710526301 56.80164473684232" stroke="#323232" stroke-width="1" fill="none" marker-end="url(#SvgjsMarker1022)"></path></g><g id="SvgjsG1024" transform="translate(206.002467105263,84.00164473684231)"><path id="SvgjsPath1025" d="M 0 4Q 0 0 4 0L 116 0Q 120 0 120 4L 120 26Q 120 30 116 30L 4 30Q 0 30 0 26Z" stroke="rgba(97,97,97,1)" stroke-width="1" fill-opacity="1" fill="#81a0aa"></path><g id="SvgjsG1026"><text id="SvgjsText1027" font-family="微软雅黑" text-anchor="middle" font-size="13px" width="100px" fill="#f6f3ee" font-weight="400" align="middle" lineHeight="125%" anchor="middle" family="微软雅黑" size="13px" weight="400" font-style="" opacity="1" y="4.875" transform="rotate(0)"><tspan id="SvgjsTspan1028" dy="16" x="60"><tspan id="SvgjsTspan1029" style="text-decoration:;">观察我的我</tspan></tspan></text></g></g><g id="SvgjsG1030"><path id="SvgjsPath1031" d="M266.002467105263 114.50164473684231L266.002467105263 160.0016447368423L146.80246710526302 160.0016447368423" stroke="#323232" stroke-width="1" fill="none" marker-end="url(#SvgjsMarker1032)"></path></g><g id="SvgjsG1034" transform="translate(86.00246710526301,84.00164473684231)"><path id="SvgjsPath1035" d="M 0 0L 60 0L 60 30L 0 30Z" stroke="none" fill="none"></path><g id="SvgjsG1036"><text id="SvgjsText1037" font-family="微软雅黑" text-anchor="middle" font-size="13px" width="60px" fill="#323232" font-weight="400" align="middle" lineHeight="125%" anchor="middle" family="微软雅黑" size="13px" weight="400" font-style="" opacity="1" y="4.875" transform="rotate(0)"><tspan id="SvgjsTspan1038" dy="16" x="30"><tspan id="SvgjsTspan1039" style="text-decoration:;">认识</tspan></tspan></text></g></g><g id="SvgjsG1040"><path id="SvgjsPath1041" d="M205.502467105263 99.00164473684231L176.002467105263 99.00164473684231L176.002467105263 99.00164473684231L148.30246710526302 99.00164473684231" stroke="#323232" stroke-width="1" fill="none" marker-end="url(#SvgjsMarker1042)"></path></g></svg>