<svg id="SvgjsSvg1006" width="710.5703125" height="346.7109375" xmlns="http://www.w3.org/2000/svg" version="1.1" xmlns:xlink="http://www.w3.org/1999/xlink" xmlns:svgjs="http://svgjs.com/svgjs"><defs id="SvgjsDefs1007"><marker id="SvgjsMarker1058" markerWidth="12" markerHeight="8" refX="9" refY="4" viewBox="0 0 12 8" orient="auto" markerUnits="userSpaceOnUse" stroke-dasharray="0,0"><path id="SvgjsPath1059" d="M0,0 L12,4 L0,8 L0,0" fill="#323232" stroke="#323232" stroke-width="1"></path></marker><marker id="SvgjsMarker1074" markerWidth="12" markerHeight="8" refX="9" refY="4" viewBox="0 0 12 8" orient="auto" markerUnits="userSpaceOnUse" stroke-dasharray="0,0"><path id="SvgjsPath1075" d="M0,0 L12,4 L0,8 L0,0" fill="#323232" stroke="#323232" stroke-width="1"></path></marker><marker id="SvgjsMarker1084" markerWidth="12" markerHeight="8" refX="9" refY="4" viewBox="0 0 12 8" orient="auto" markerUnits="userSpaceOnUse" stroke-dasharray="0,0"><path id="SvgjsPath1085" d="M0,0 L12,4 L0,8 L0,0" fill="#323232" stroke="#323232" stroke-width="1"></path></marker><marker id="SvgjsMarker1088" markerWidth="12" markerHeight="8" refX="9" refY="4" viewBox="0 0 12 8" orient="auto" markerUnits="userSpaceOnUse" stroke-dasharray="0,0"><path id="SvgjsPath1089" d="M0,0 L12,4 L0,8 L0,0" fill="#323232" stroke="#323232" stroke-width="1"></path></marker><marker id="SvgjsMarker1092" markerWidth="12" markerHeight="8" refX="9" refY="4" viewBox="0 0 12 8" orient="auto" markerUnits="userSpaceOnUse" stroke-dasharray="0,0"><path id="SvgjsPath1093" d="M0,0 L12,4 L0,8 L0,0" fill="#323232" stroke="#323232" stroke-width="1"></path></marker><marker id="SvgjsMarker1102" markerWidth="12" markerHeight="8" refX="9" refY="4" viewBox="0 0 12 8" orient="auto" markerUnits="userSpaceOnUse" stroke-dasharray="0,0"><path id="SvgjsPath1103" d="M0,0 L12,4 L0,8 L0,0" fill="#81a0aa" stroke="#81a0aa" stroke-width="1"></path></marker><marker id="SvgjsMarker1106" markerWidth="12" markerHeight="8" refX="9" refY="4" viewBox="0 0 12 8" orient="auto" markerUnits="userSpaceOnUse" stroke-dasharray="0,0"><path id="SvgjsPath1107" d="M0,0 L12,4 L0,8 L0,0" fill="#81a0aa" stroke="#81a0aa" stroke-width="1"></path></marker><marker id="SvgjsMarker1110" markerWidth="12" markerHeight="8" refX="9" refY="4" viewBox="0 0 12 8" orient="auto" markerUnits="userSpaceOnUse" stroke-dasharray="0,0"><path id="SvgjsPath1111" d="M0,0 L12,4 L0,8 L0,0" fill="#81a0aa" stroke="#81a0aa" stroke-width="1"></path></marker><marker id="SvgjsMarker1114" markerWidth="12" markerHeight="8" refX="9" refY="4" viewBox="0 0 12 8" orient="auto" markerUnits="userSpaceOnUse" stroke-dasharray="0,0"><path id="SvgjsPath1115" d="M0,0 L12,4 L0,8 L0,0" fill="#212121" stroke="#212121" stroke-width="1"></path></marker><marker id="SvgjsMarker1118" markerWidth="12" markerHeight="8" refX="9" refY="4" viewBox="0 0 12 8" orient="auto" markerUnits="userSpaceOnUse" stroke-dasharray="0,0"><path id="SvgjsPath1119" d="M0,0 L12,4 L0,8 L0,0" fill="#f87566" stroke="#f87566" stroke-width="1"></path></marker></defs><g id="SvgjsG1008" transform="translate(294.8861019736844,85.11883223684225)"><path id="SvgjsPath1009" d="M 0 4Q 0 0 4 0L 176 0Q 180 0 180 4L 180 166Q 180 170 176 170L 4 170Q 0 170 0 166Z" stroke="rgba(97,97,97,1)" stroke-width="1" fill-opacity="1" fill="#f6f3ee"></path><g id="SvgjsG1010"><text id="SvgjsText1011" font-family="微软雅黑" text-anchor="middle" font-size="13px" width="160px" fill="#3d4b58" font-weight="400" align="middle" lineHeight="125%" anchor="middle" family="微软雅黑" size="13px" weight="400" font-style="" opacity="1" y="74.375" transform="rotate(0)"></text></g></g><g id="SvgjsG1012" transform="translate(325.93873355263156,111.71093749999994)"><path id="SvgjsPath1013" d="M 0 4Q 0 0 4 0L 116 0Q 120 0 120 4L 120 26Q 120 30 116 30L 4 30Q 0 30 0 26Z" stroke="rgba(97,97,97,1)" stroke-width="1" fill-opacity="1" fill="#81a0aa"></path><g id="SvgjsG1014"><text id="SvgjsText1015" font-family="微软雅黑" text-anchor="middle" font-size="13px" width="100px" fill="#f6f3ee" font-weight="400" align="middle" lineHeight="125%" anchor="middle" family="微软雅黑" size="13px" weight="400" font-style="" opacity="1" y="4.375" transform="rotate(0)"><tspan id="SvgjsTspan1016" dy="16" x="60"><tspan id="SvgjsTspan1017" style="text-decoration:;">复述缓冲器</tspan></tspan></text></g></g><g id="SvgjsG1018" transform="translate(505.5703125,85.11883223684225)"><path id="SvgjsPath1019" d="M 0 4Q 0 0 4 0L 176 0Q 180 0 180 4L 180 166Q 180 170 176 170L 4 170Q 0 170 0 166Z" stroke="rgba(97,97,97,1)" stroke-width="1" fill-opacity="1" fill="#f6f3ee"></path><g id="SvgjsG1020"><text id="SvgjsText1021" font-family="微软雅黑" text-anchor="middle" font-size="12px" width="160px" fill="#3d4b58" font-weight="400" align="middle" lineHeight="125%" anchor="middle" family="微软雅黑" size="12px" weight="400" font-style="" opacity="1" y="75" transform="rotate(0)"></text></g></g><g id="SvgjsG1022" transform="translate(325.93873355263156,156.7109375)"><path id="SvgjsPath1023" d="M 0 4Q 0 0 4 0L 116 0Q 120 0 120 4L 120 26Q 120 30 116 30L 4 30Q 0 30 0 26Z" stroke="rgba(97,97,97,1)" stroke-width="1" fill-opacity="1" fill="#81a0aa"></path><g id="SvgjsG1024"><text id="SvgjsText1025" font-family="微软雅黑" text-anchor="middle" font-size="13px" width="100px" fill="#f6f3ee" font-weight="400" align="middle" lineHeight="125%" anchor="middle" family="微软雅黑" size="13px" weight="400" font-style="" opacity="1" y="4.375" transform="rotate(0)"><tspan id="SvgjsTspan1026" dy="16" x="60"><tspan id="SvgjsTspan1027" style="text-decoration:;">短时记忆存储器</tspan></tspan></text></g></g><g id="SvgjsG1028" transform="translate(325.93873355263156,201.71093750000023)"><path id="SvgjsPath1029" d="M 0 4Q 0 0 4 0L 116 0Q 120 0 120 4L 120 26Q 120 30 116 30L 4 30Q 0 30 0 26Z" stroke="rgba(97,97,97,1)" stroke-width="1" fill-opacity="1" fill="#81a0aa"></path><g id="SvgjsG1030"><text id="SvgjsText1031" font-family="微软雅黑" text-anchor="middle" font-size="12px" width="100px" fill="#f6f3ee" font-weight="400" align="middle" lineHeight="125%" anchor="middle" family="微软雅黑" size="12px" weight="400" font-style="" opacity="1" y="-2.5" transform="rotate(0)"><tspan id="SvgjsTspan1032" dy="15" x="60"><tspan id="SvgjsTspan1033" style="text-decoration:;">快速消退的</tspan></tspan><tspan id="SvgjsTspan1034" dy="15" x="60"><tspan id="SvgjsTspan1035" style="text-decoration:;font-size: inherit;">记忆存储库</tspan></tspan></text></g></g><g id="SvgjsG1036" transform="translate(324.8861019736844,25.00639204545439)"><path id="SvgjsPath1037" d="M 0 4Q 0 0 4 0L 116 0Q 120 0 120 4L 120 26Q 120 30 116 30L 4 30Q 0 30 0 26Z" stroke="rgba(97,97,97,1)" stroke-width="1" fill-opacity="1" fill="#81a0aa"></path><g id="SvgjsG1038"><text id="SvgjsText1039" font-family="微软雅黑" text-anchor="middle" font-size="13px" width="100px" fill="#f6f3ee" font-weight="400" align="middle" lineHeight="125%" anchor="middle" family="微软雅黑" size="13px" weight="400" font-style="" opacity="1" y="4.375" transform="rotate(0)"><tspan id="SvgjsTspan1040" dy="16" x="60"><tspan id="SvgjsTspan1041" style="text-decoration:;">反应生成器</tspan></tspan></text></g></g><g id="SvgjsG1042" transform="translate(535.5703125,111.7109375)"><path id="SvgjsPath1043" d="M 0 4Q 0 0 4 0L 116 0Q 120 0 120 4L 120 26Q 120 30 116 30L 4 30Q 0 30 0 26Z" stroke="rgba(97,97,97,1)" stroke-width="1" fill-opacity="1" fill="#81a0aa"></path><g id="SvgjsG1044"><text id="SvgjsText1045" font-family="微软雅黑" text-anchor="middle" font-size="13px" width="100px" fill="#f6f3ee" font-weight="400" align="middle" lineHeight="125%" anchor="middle" family="微软雅黑" size="13px" weight="400" font-style="" opacity="1" y="4.375" transform="rotate(0)"><tspan id="SvgjsTspan1046" dy="16" x="60"><tspan id="SvgjsTspan1047" style="text-decoration:;">长时记忆存储器</tspan></tspan></text></g></g><g id="SvgjsG1048" transform="translate(535.5703125,201.71093750000023)"><path id="SvgjsPath1049" d="M 0 4Q 0 0 4 0L 116 0Q 120 0 120 4L 120 26Q 120 30 116 30L 4 30Q 0 30 0 26Z" stroke="rgba(97,97,97,1)" stroke-width="1" fill-opacity="1" fill="#81a0aa"></path><g id="SvgjsG1050"><text id="SvgjsText1051" font-family="微软雅黑" text-anchor="middle" font-size="12px" width="100px" fill="#f6f3ee" font-weight="400" align="middle" lineHeight="125%" anchor="middle" family="微软雅黑" size="12px" weight="400" font-style="" opacity="1" y="-2.5" transform="rotate(0)"><tspan id="SvgjsTspan1052" dy="15" x="60"><tspan id="SvgjsTspan1053" style="text-decoration:;">不会消退且</tspan></tspan><tspan id="SvgjsTspan1054" dy="15" x="60"><tspan id="SvgjsTspan1055" style="text-decoration:;">自动通达的记忆</tspan></tspan></text></g></g><g id="SvgjsG1056"><path id="SvgjsPath1057" d="M116.00093450956899 170.1188322368426L130.19949910287062 170.1188322368426L130.19949910287062 170.11883223684242L143.59806369617218 170.11883223684242" stroke="#323232" stroke-width="1" fill="none" marker-end="url(#SvgjsMarker1058)"></path></g><g id="SvgjsG1060" transform="translate(25.000934509569106,155.1188322368426)"><path id="SvgjsPath1061" d="M 0 0L 90 0L 90 30L 0 30Z" stroke="none" fill="none"></path><g id="SvgjsG1062"><text id="SvgjsText1063" font-family="微软雅黑" text-anchor="middle" font-size="13px" width="90px" fill="#323232" font-weight="400" align="middle" lineHeight="125%" anchor="middle" family="微软雅黑" size="13px" weight="400" font-style="" opacity="1" y="4.375" transform="rotate(0)"><tspan id="SvgjsTspan1064" dy="16" x="45"><tspan id="SvgjsTspan1065" style="text-decoration:;">刺激输入</tspan></tspan></text></g></g><g id="SvgjsG1066" transform="translate(176.307154605263,25.006392045454277)"><path id="SvgjsPath1067" d="M 0 0L 90 0L 90 30L 0 30Z" stroke="none" fill="none"></path><g id="SvgjsG1068"><text id="SvgjsText1069" font-family="微软雅黑" text-anchor="middle" font-size="13px" width="90px" fill="#323232" font-weight="400" align="middle" lineHeight="125%" anchor="middle" family="微软雅黑" size="13px" weight="400" font-style="" opacity="1" y="4.375" transform="rotate(0)"><tspan id="SvgjsTspan1070" dy="16" x="45"><tspan id="SvgjsTspan1071" style="text-decoration:;">反应输出</tspan></tspan></text></g></g><g id="SvgjsG1072"><path id="SvgjsPath1073" d="M324.3861019736844 40.00639204545439L295.5966282894737 40.00639204545439L295.5966282894737 40.00639204545439L268.607154605263 40.00639204545439" stroke="#323232" stroke-width="1" fill="none" marker-end="url(#SvgjsMarker1074)"></path></g><g id="SvgjsG1076" transform="translate(145.3980636961722,155.11883223684242)"><path id="SvgjsPath1077" d="M 0 4Q 0 0 4 0L 116 0Q 120 0 120 4L 120 26Q 120 30 116 30L 4 30Q 0 30 0 26Z" stroke="rgba(97,97,97,1)" stroke-width="1" fill-opacity="1" fill="#81a0aa"></path><g id="SvgjsG1078"><text id="SvgjsText1079" font-family="微软雅黑" text-anchor="middle" font-size="13px" width="100px" fill="#f6f3ee" font-weight="400" align="middle" lineHeight="125%" anchor="middle" family="微软雅黑" size="13px" weight="400" font-style="" opacity="1" y="4.375" transform="rotate(0)"><tspan id="SvgjsTspan1080" dy="16" x="60"><tspan id="SvgjsTspan1081" style="text-decoration:;">感觉登记器</tspan></tspan></text></g></g><g id="SvgjsG1082"><path id="SvgjsPath1083" d="M265.8980636961722 170.11883223684242L295.6683986244019 170.11883223684242L295.6683986244019 170.11883223684242L324.13873355263155 170.11883223684242" stroke="#323232" stroke-width="1" fill="none" marker-end="url(#SvgjsMarker1084)"></path></g><g id="SvgjsG1086"><path id="SvgjsPath1087" d="M446.43873355263156 126.16548295454544L490.75452302631584 126.16548295454544L490.75452302631584 126.16548295454544L533.7703125 126.16548295454544" stroke="#323232" stroke-width="1" fill="none" marker-end="url(#SvgjsMarker1088)"></path></g><g id="SvgjsG1090"><path id="SvgjsPath1091" d="M595.5703125 84.61883223684225L595.5703125 40.00639204545439L446.68610197368434 40.00639204545439" stroke="#323232" stroke-width="1" fill="none" marker-end="url(#SvgjsMarker1092)"></path></g><g id="SvgjsG1094" transform="translate(325.9387335526318,291.71093750000017)"><path id="SvgjsPath1095" d="M 0 4Q 0 0 4 0L 116 0Q 120 0 120 4L 120 26Q 120 30 116 30L 4 30Q 0 30 0 26Z" stroke="rgba(97,97,97,1)" stroke-width="1" fill-opacity="1" fill="#81a0aa"></path><g id="SvgjsG1096"><text id="SvgjsText1097" font-family="微软雅黑" text-anchor="middle" font-size="13px" width="100px" fill="#f6f3ee" font-weight="400" align="middle" lineHeight="125%" anchor="middle" family="微软雅黑" size="13px" weight="400" font-style="" opacity="1" y="4.375" transform="rotate(0)"><tspan id="SvgjsTspan1098" dy="16" x="60"><tspan id="SvgjsTspan1099" style="text-decoration:;">控制处理器</tspan></tspan></text></g></g><g id="SvgjsG1100"><path id="SvgjsPath1101" d="M446.4387335526318 306.71093750000017L595.5703125 306.71093750000017L595.5703125 256.91883223684226" stroke-dasharray="8,5" stroke="#81a0aa" stroke-width="1" fill="none" marker-end="url(#SvgjsMarker1102)"></path></g><g id="SvgjsG1104"><path id="SvgjsPath1105" d="M325.4387335526318 306.71093750000017L205.3980636961722 306.71093750000017L205.3980636961722 186.91883223684243" stroke-dasharray="8,5" stroke="#81a0aa" stroke-width="1" fill="none" marker-end="url(#SvgjsMarker1106)"></path></g><g id="SvgjsG1108"><path id="SvgjsPath1109" d="M385.9387335526318 291.21093750000017L385.9387335526318 273.4148848684212L385.9387335526318 273.4148848684212L385.9387335526318 256.91883223684226" stroke-dasharray="8,5" stroke="#81a0aa" stroke-width="1" fill="none" marker-end="url(#SvgjsMarker1110)"></path></g><g id="SvgjsG1112"><path id="SvgjsPath1113" d="M385.93873355263156 156.2109375L385.93873355263156 149.2109375L385.93873355263156 149.2109375L385.93873355263156 143.51093749999995" stroke="#212121" stroke-width="1" fill="none" marker-end="url(#SvgjsMarker1114)"></path></g><g id="SvgjsG1116"><path id="SvgjsPath1117" d="M385.93873355263156 187.2109375L385.93873355263156 194.2109375000001L385.9387335526317 194.2109375000001L385.9387335526317 199.91093750000022" stroke="#f87566" stroke-width="1" fill="none" marker-end="url(#SvgjsMarker1118)"></path></g><g id="SvgjsG1120" transform="translate(56.30715460526301,291.71093750000017)"><path id="SvgjsPath1121" d="M 0 0L 120 0L 120 30L 0 30Z" stroke="none" fill="none"></path><g id="SvgjsG1122"><text id="SvgjsText1123" font-family="&quot;Times New Roman&quot;" text-anchor="middle" font-size="13px" width="120px" fill="#e0e0e0" font-weight="400" align="middle" lineHeight="125%" anchor="middle" family="&quot;Times New Roman&quot;" size="13px" weight="400" font-style="" opacity="1" y="4.375" transform="rotate(0)"><tspan id="SvgjsTspan1124" dy="16" x="60"><tspan id="SvgjsTspan1125" style="text-decoration:;">www.kofes.cn</tspan></tspan></text></g></g></svg>