<svg id="SvgjsSvg1038" width="290.09375" height="290.6953125" xmlns="http://www.w3.org/2000/svg" version="1.1" xmlns:xlink="http://www.w3.org/1999/xlink" xmlns:svgjs="http://svgjs.com/svgjs"><defs id="SvgjsDefs1039"><marker id="SvgjsMarker1046" markerWidth="14" markerHeight="10" refX="10" refY="5" viewBox="0 0 14 10" orient="auto" markerUnits="userSpaceOnUse" stroke-dasharray="0,0"><path id="SvgjsPath1047" d="M0,0 L14,5 L0,10 L0,0" fill="#f87566" stroke="#f87566" stroke-width="1"></path></marker><marker id="SvgjsMarker1050" markerWidth="14" markerHeight="10" refX="10" refY="5" viewBox="0 0 14 10" orient="auto" markerUnits="userSpaceOnUse" stroke-dasharray="0,0"><path id="SvgjsPath1051" d="M0,0 L14,5 L0,10 L0,0" fill="#81a0aa" stroke="#81a0aa" stroke-width="1"></path></marker></defs><g id="SvgjsG1040" transform="translate(25.004405545112604,25.203125)"><path id="SvgjsPath1041" d="M 0 120C 0 -40 240 -40 240 120C 240 280 0 280 0 120Z" stroke-dasharray="10,6" stroke="rgba(158,158,158,0.85)" stroke-width="1" fill="none"></path><g id="SvgjsG1042"><text id="SvgjsText1043" font-family="微软雅黑" text-anchor="middle" font-size="12px" width="220px" fill="#f6f3ee" font-weight="400" align="middle" lineHeight="125%" anchor="middle" family="微软雅黑" size="12px" weight="400" font-style="" opacity="0.85" y="111" transform="rotate(0)"></text></g></g><g id="SvgjsG1044"><path id="SvgjsPath1045" d="M25.039300160626567 145.70190587955346C 26.1171875 235.703125 99.1171875 264.703125 141.90890753805064 265.0361157539226" stroke="#f87566" stroke-width="2" fill="none" marker-end="url(#SvgjsMarker1046)"></path></g><g id="SvgjsG1048"><path id="SvgjsPath1049" d="M264.97453935993315 144.70401778608417C 264.7171875 60.603125000000006 197.9171875 25.003124999999997 148.10143945455525 25.338701413002184" stroke="#81a0aa" stroke-width="2" fill="none" marker-end="url(#SvgjsMarker1050)"></path></g><g id="SvgjsG1052" transform="translate(130.7544055451126,59.203125)"><path id="SvgjsPath1053" d="M 0 60C 0 -20 120 -20 120 60C 120 140 0 140 0 60Z" stroke="none" fill-opacity="1" fill="#7fa7b8"></path><g id="SvgjsG1054"><text id="SvgjsText1055" font-family="微软雅黑" text-anchor="middle" font-size="12px" width="100px" fill="#f6f3ee" font-weight="400" align="middle" lineHeight="125%" anchor="middle" family="微软雅黑" size="12px" weight="400" font-style="" opacity="1" y="51" transform="rotate(0)"><tspan id="SvgjsTspan1056" dy="15" x="60"><tspan id="SvgjsTspan1057" style="text-decoration:;">喜欢</tspan></tspan></text></g></g><g id="SvgjsG1058" transform="translate(83.3794055451126,133.078125)"><path id="SvgjsPath1059" d="M 0 60C 0 -20 120 -20 120 60C 120 140 0 140 0 60Z" stroke="none" fill-opacity="0.85" fill="#b2d182"></path><g id="SvgjsG1060"><text id="SvgjsText1061" font-family="微软雅黑" text-anchor="middle" font-size="12px" width="100px" fill="#f6f3ee" font-weight="400" align="middle" lineHeight="125%" anchor="middle" family="微软雅黑" size="12px" weight="400" font-style="" opacity="0.85" y="51" transform="rotate(0)"><tspan id="SvgjsTspan1062" dy="15" x="60"><tspan id="SvgjsTspan1063" style="text-decoration:;">赚钱</tspan></tspan></text></g></g><g id="SvgjsG1064" transform="translate(39.379405545112604,58.078125)"><path id="SvgjsPath1065" d="M 0 60C 0 -20 120 -20 120 60C 120 140 0 140 0 60Z" stroke="none" fill-opacity="0.85" fill="#f87566"></path><g id="SvgjsG1066"><text id="SvgjsText1067" font-family="微软雅黑" text-anchor="middle" font-size="12px" width="100px" fill="#f6f3ee" font-weight="400" align="middle" lineHeight="125%" anchor="middle" family="微软雅黑" size="12px" weight="400" font-style="" opacity="0.85" y="51" transform="rotate(0)"><tspan id="SvgjsTspan1068" dy="15" x="60"><tspan id="SvgjsTspan1069" style="text-decoration:;">擅长</tspan></tspan></text></g></g></svg>