<svg id="SvgjsSvg1006" width="290" height="200.5" xmlns="http://www.w3.org/2000/svg" version="1.1" xmlns:xlink="http://www.w3.org/1999/xlink" xmlns:svgjs="http://svgjs.com/svgjs"><defs id="SvgjsDefs1007"><marker id="SvgjsMarker1022" markerWidth="12" markerHeight="8" refX="9" refY="4" viewBox="0 0 12 8" orient="auto" markerUnits="userSpaceOnUse" stroke-dasharray="0,0"><path id="SvgjsPath1023" d="M0,0 L12,4 L0,8 L0,0" fill="#323232" stroke="#323232" stroke-width="1"></path></marker><marker id="SvgjsMarker1038" markerWidth="12" markerHeight="8" refX="9" refY="4" viewBox="0 0 12 8" orient="auto" markerUnits="userSpaceOnUse" stroke-dasharray="0,0"><path id="SvgjsPath1039" d="M0,0 L12,4 L0,8 L0,0" fill="#323232" stroke="#323232" stroke-width="1"></path></marker><marker id="SvgjsMarker1042" markerWidth="12" markerHeight="8" refX="9" refY="4" viewBox="0 0 12 8" orient="auto" markerUnits="userSpaceOnUse" stroke-dasharray="0,0"><path id="SvgjsPath1043" d="M0,0 L12,4 L0,8 L0,0" fill="#323232" stroke="#323232" stroke-width="1"></path></marker><marker id="SvgjsMarker1046" markerWidth="12" markerHeight="8" refX="9" refY="4" viewBox="0 0 12 8" orient="auto" markerUnits="userSpaceOnUse" stroke-dasharray="0,0"><path id="SvgjsPath1047" d="M0,0 L12,4 L0,8 L0,0" fill="#323232" stroke="#323232" stroke-width="1"></path></marker></defs><g id="SvgjsG1008" transform="translate(25.004405545112604,25.0028782894737)"><path id="SvgjsPath1009" d="M 0 4Q 0 0 4 0L 86 0Q 90 0 90 4L 90 26Q 90 30 86 30L 4 30Q 0 30 0 26Z" stroke="rgba(97,97,97,1)" stroke-width="1" fill-opacity="1" fill="#81a0aa"></path><g id="SvgjsG1010"><text id="SvgjsText1011" font-family="微软雅黑" text-anchor="middle" font-size="13px" width="70px" fill="#f6f3ee" font-weight="400" align="middle" lineHeight="125%" anchor="middle" family="微软雅黑" size="13px" weight="400" font-style="" opacity="1" y="4.875" transform="rotate(0)"><tspan id="SvgjsTspan1012" dy="16" x="45"><tspan id="SvgjsTspan1013" style="text-decoration:;">路径短</tspan></tspan></text></g></g><g id="SvgjsG1014" transform="translate(175.0044055451126,25.0028782894737)"><path id="SvgjsPath1015" d="M 0 4Q 0 0 4 0L 86 0Q 90 0 90 4L 90 26Q 90 30 86 30L 4 30Q 0 30 0 26Z" stroke="rgba(97,97,97,1)" stroke-width="1" fill-opacity="1" fill="#81a0aa"></path><g id="SvgjsG1016"><text id="SvgjsText1017" font-family="微软雅黑" text-anchor="middle" font-size="13px" width="70px" fill="#f6f3ee" font-weight="400" align="middle" lineHeight="125%" anchor="middle" family="微软雅黑" size="13px" weight="400" font-style="" opacity="1" y="4.875" transform="rotate(0)"><tspan id="SvgjsTspan1018" dy="16" x="45"><tspan id="SvgjsTspan1019" style="text-decoration:;">往返多</tspan></tspan></text></g></g><g id="SvgjsG1020"><path id="SvgjsPath1021" d="M115.5044055451126 40.0028782894737L145.0044055451126 40.0028782894737L145.0044055451126 40.0028782894737L173.2044055451126 40.0028782894737" stroke="#323232" stroke-width="1" fill="none" marker-end="url(#SvgjsMarker1022)"></path></g><g id="SvgjsG1024" transform="translate(175.0044055451126,115.0028782894737)"><path id="SvgjsPath1025" d="M 0 4Q 0 0 4 0L 86 0Q 90 0 90 4L 90 26Q 90 30 86 30L 4 30Q 0 30 0 26Z" stroke="rgba(97,97,97,1)" stroke-width="1" fill-opacity="1" fill="#81a0aa"></path><g id="SvgjsG1026"><text id="SvgjsText1027" font-family="微软雅黑" text-anchor="middle" font-size="13px" width="70px" fill="#f6f3ee" font-weight="400" align="middle" lineHeight="125%" anchor="middle" family="微软雅黑" size="13px" weight="400" font-style="" opacity="1" y="4.875" transform="rotate(0)"><tspan id="SvgjsTspan1028" dy="16" x="45"><tspan id="SvgjsTspan1029" style="text-decoration:;">信息素多</tspan></tspan></text></g></g><g id="SvgjsG1030" transform="translate(25.004405545112604,115.0028782894737)"><path id="SvgjsPath1031" d="M 0 4Q 0 0 4 0L 86 0Q 90 0 90 4L 90 26Q 90 30 86 30L 4 30Q 0 30 0 26Z" stroke="rgba(97,97,97,1)" stroke-width="1" fill-opacity="1" fill="#81a0aa"></path><g id="SvgjsG1032"><text id="SvgjsText1033" font-family="微软雅黑" text-anchor="middle" font-size="13px" width="70px" fill="#f6f3ee" font-weight="400" align="middle" lineHeight="125%" anchor="middle" family="微软雅黑" size="13px" weight="400" font-style="" opacity="1" y="4.875" transform="rotate(0)"><tspan id="SvgjsTspan1034" dy="16" x="45"><tspan id="SvgjsTspan1035" style="text-decoration:;">蚂蚁多</tspan></tspan></text></g></g><g id="SvgjsG1036"><path id="SvgjsPath1037" d="M220.0044055451126 55.5028782894737L220.0044055451126 85.0028782894737L220.0044055451126 85.0028782894737L220.0044055451126 113.20287828947369" stroke="#323232" stroke-width="1" fill="none" marker-end="url(#SvgjsMarker1038)"></path></g><g id="SvgjsG1040"><path id="SvgjsPath1041" d="M174.5044055451126 130.0028782894737L145.0044055451126 130.0028782894737L145.0044055451126 130.0028782894737L116.80440554511262 130.0028782894737" stroke="#323232" stroke-width="1" fill="none" marker-end="url(#SvgjsMarker1042)"></path></g><g id="SvgjsG1044"><path id="SvgjsPath1045" d="M70.0044055451126 145.5028782894737L70.0044055451126 175.0028782894737L220.0044055451126 175.0028782894737L220.0044055451126 146.8028782894737" stroke="#323232" stroke-width="1" fill="none" marker-end="url(#SvgjsMarker1046)"></path></g></svg>