<svg id="SvgjsSvg1006" width="381.0546875" height="350" xmlns="http://www.w3.org/2000/svg" version="1.1" xmlns:xlink="http://www.w3.org/1999/xlink" xmlns:svgjs="http://svgjs.com/svgjs"><defs id="SvgjsDefs1007"><marker id="SvgjsMarker1064" markerWidth="12" markerHeight="8" refX="9" refY="4" viewBox="0 0 12 8" orient="auto" markerUnits="userSpaceOnUse" stroke-dasharray="0,0"><path id="SvgjsPath1065" d="M0,0 L12,4 L0,8 L0,0" fill="#279de1" stroke="#279de1" stroke-width="1"></path></marker><marker id="SvgjsMarker1074" markerWidth="12" markerHeight="8" refX="9" refY="4" viewBox="0 0 12 8" orient="auto" markerUnits="userSpaceOnUse" stroke-dasharray="0,0"><path id="SvgjsPath1075" d="M0,0 L12,4 L0,8 L0,0" fill="#f1485c" stroke="#f1485c" stroke-width="1"></path></marker><marker id="SvgjsMarker1078" markerWidth="12" markerHeight="8" refX="9" refY="4" viewBox="0 0 12 8" orient="auto" markerUnits="userSpaceOnUse" stroke-dasharray="0,0"><path id="SvgjsPath1079" d="M0,0 L12,4 L0,8 L0,0" fill="#f1485c" stroke="#f1485c" stroke-width="1"></path></marker><marker id="SvgjsMarker1082" markerWidth="12" markerHeight="8" refX="9" refY="4" viewBox="0 0 12 8" orient="auto" markerUnits="userSpaceOnUse" stroke-dasharray="0,0"><path id="SvgjsPath1083" d="M0,0 L12,4 L0,8 L0,0" fill="#f1485c" stroke="#f1485c" stroke-width="1"></path></marker><marker id="SvgjsMarker1086" markerWidth="12" markerHeight="8" refX="9" refY="4" viewBox="0 0 12 8" orient="auto" markerUnits="userSpaceOnUse" stroke-dasharray="0,0"><path id="SvgjsPath1087" d="M0,0 L12,4 L0,8 L0,0" fill="#f1485c" stroke="#f1485c" stroke-width="1"></path></marker><marker id="SvgjsMarker1090" markerWidth="12" markerHeight="8" refX="9" refY="4" viewBox="0 0 12 8" orient="auto" markerUnits="userSpaceOnUse" stroke-dasharray="0,0"><path id="SvgjsPath1091" d="M0,0 L12,4 L0,8 L0,0" fill="#f1485c" stroke="#f1485c" stroke-width="1"></path></marker><marker id="SvgjsMarker1100" markerWidth="12" markerHeight="8" refX="9" refY="4" viewBox="0 0 12 8" orient="auto" markerUnits="userSpaceOnUse" stroke-dasharray="0,0"><path id="SvgjsPath1101" d="M0,0 L12,4 L0,8 L0,0" fill="#279de1" stroke="#279de1" stroke-width="1"></path></marker></defs><g id="SvgjsG1008" transform="translate(176.0590930451126,25.0028782894737)"><path id="SvgjsPath1009" d="M 0 20C 0 -6.666666666666667 40 -6.666666666666667 40 20C 40 46.666666666666664 0 46.666666666666664 0 20Z" stroke="rgba(97,97,97,1)" stroke-width="1" fill-opacity="1" fill="#81a0aa"></path><g id="SvgjsG1010"><text id="SvgjsText1011" font-family="微软雅黑" text-anchor="middle" font-size="12px" width="20px" fill="#f6f3ee" font-weight="400" align="middle" lineHeight="125%" anchor="middle" family="微软雅黑" size="12px" weight="400" font-style="" opacity="1" y="10" transform="rotate(0)"><tspan id="SvgjsTspan1012" dy="15" x="20"><tspan id="SvgjsTspan1013" style="text-decoration:;">x.x</tspan></tspan></text></g></g><g id="SvgjsG1014" transform="translate(176.0590930451126,105.0028782894737)"><path id="SvgjsPath1015" d="M 0 20C 0 -6.666666666666667 40 -6.666666666666667 40 20C 40 46.666666666666664 0 46.666666666666664 0 20Z" stroke="rgba(97,97,97,1)" stroke-width="1" fill-opacity="1" fill="#81a0aa"></path><g id="SvgjsG1016"><text id="SvgjsText1017" font-family="微软雅黑" text-anchor="middle" font-size="12px" width="20px" fill="#f6f3ee" font-weight="400" align="middle" lineHeight="125%" anchor="middle" family="微软雅黑" size="12px" weight="400" font-style="" opacity="1" y="10" transform="rotate(0)"><tspan id="SvgjsTspan1018" dy="15" x="20"><tspan id="SvgjsTspan1019" style="text-decoration:;">4.0</tspan></tspan></text></g></g><g id="SvgjsG1020" transform="translate(96.0590930451126,105.0028782894737)"><path id="SvgjsPath1021" d="M 0 20C 0 -6.666666666666667 40 -6.666666666666667 40 20C 40 46.666666666666664 0 46.666666666666664 0 20Z" stroke="rgba(97,97,97,1)" stroke-width="1" fill-opacity="1" fill="#81a0aa"></path><g id="SvgjsG1022"><text id="SvgjsText1023" font-family="微软雅黑" text-anchor="middle" font-size="12px" width="20px" fill="#f6f3ee" font-weight="400" align="middle" lineHeight="125%" anchor="middle" family="微软雅黑" size="12px" weight="400" font-style="" opacity="1" y="10" transform="rotate(0)"><tspan id="SvgjsTspan1024" dy="15" x="20"><tspan id="SvgjsTspan1025" style="text-decoration:;">3.0</tspan></tspan></text></g></g><g id="SvgjsG1026" transform="translate(256.0590930451126,105.0028782894737)"><path id="SvgjsPath1027" d="M 0 20C 0 -6.666666666666667 40 -6.666666666666667 40 20C 40 46.666666666666664 0 46.666666666666664 0 20Z" stroke="rgba(97,97,97,1)" stroke-width="1" fill-opacity="1" fill="#81a0aa"></path><g id="SvgjsG1028"><text id="SvgjsText1029" font-family="微软雅黑" text-anchor="middle" font-size="12px" width="20px" fill="#f6f3ee" font-weight="400" align="middle" lineHeight="125%" anchor="middle" family="微软雅黑" size="12px" weight="400" font-style="" opacity="1" y="10" transform="rotate(0)"><tspan id="SvgjsTspan1030" dy="15" x="20"><tspan id="SvgjsTspan1031" style="text-decoration:;">5.0</tspan></tspan></text></g></g><g id="SvgjsG1032" transform="translate(64.0590930451126,185.0028782894737)"><path id="SvgjsPath1033" d="M 0 20C 0 -6.666666666666667 40 -6.666666666666667 40 20C 40 46.666666666666664 0 46.666666666666664 0 20Z" stroke="rgba(97,97,97,1)" stroke-width="1" fill-opacity="1" fill="#81a0aa"></path><g id="SvgjsG1034"><text id="SvgjsText1035" font-family="微软雅黑" text-anchor="middle" font-size="12px" width="20px" fill="#f6f3ee" font-weight="400" align="middle" lineHeight="125%" anchor="middle" family="微软雅黑" size="12px" weight="400" font-style="" opacity="1" y="10" transform="rotate(0)"><tspan id="SvgjsTspan1036" dy="15" x="20"><tspan id="SvgjsTspan1037" style="text-decoration:;">2.1</tspan></tspan></text></g></g><g id="SvgjsG1038" transform="translate(124.0590930451126,185.0028782894737)"><path id="SvgjsPath1039" d="M 0 20C 0 -6.666666666666667 40 -6.666666666666667 40 20C 40 46.666666666666664 0 46.666666666666664 0 20Z" stroke="rgba(97,97,97,1)" stroke-width="1" fill-opacity="1" fill="#81a0aa"></path><g id="SvgjsG1040"><text id="SvgjsText1041" font-family="微软雅黑" text-anchor="middle" font-size="12px" width="20px" fill="#f6f3ee" font-weight="400" align="middle" lineHeight="125%" anchor="middle" family="微软雅黑" size="12px" weight="400" font-style="" opacity="1" y="10" transform="rotate(0)"><tspan id="SvgjsTspan1042" dy="15" x="20"><tspan id="SvgjsTspan1043" style="text-decoration:;">2.0</tspan></tspan></text></g></g><g id="SvgjsG1044" transform="translate(256.0590930451126,185.0028782894737)"><path id="SvgjsPath1045" d="M 0 20C 0 -6.666666666666667 40 -6.666666666666667 40 20C 40 46.666666666666664 0 46.666666666666664 0 20Z" stroke="rgba(97,97,97,1)" stroke-width="1" fill-opacity="1" fill="#81a0aa"></path><g id="SvgjsG1046"><text id="SvgjsText1047" font-family="微软雅黑" text-anchor="middle" font-size="12px" width="20px" fill="#f6f3ee" font-weight="400" align="middle" lineHeight="125%" anchor="middle" family="微软雅黑" size="12px" weight="400" font-style="" opacity="1" y="10" transform="rotate(0)"><tspan id="SvgjsTspan1048" dy="15" x="20"><tspan id="SvgjsTspan1049" style="text-decoration:;">1.1</tspan></tspan></text></g></g><g id="SvgjsG1050" transform="translate(196.0590930451126,185.0028782894737)"><path id="SvgjsPath1051" d="M 0 20C 0 -6.666666666666667 40 -6.666666666666667 40 20C 40 46.666666666666664 0 46.666666666666664 0 20Z" stroke="rgba(97,97,97,1)" stroke-width="1" fill-opacity="1" fill="#81a0aa"></path><g id="SvgjsG1052"><text id="SvgjsText1053" font-family="微软雅黑" text-anchor="middle" font-size="12px" width="20px" fill="#f6f3ee" font-weight="400" align="middle" lineHeight="125%" anchor="middle" family="微软雅黑" size="12px" weight="400" font-style="" opacity="1" y="10" transform="rotate(0)"><tspan id="SvgjsTspan1054" dy="15" x="20"><tspan id="SvgjsTspan1055" style="text-decoration:;">1.2</tspan></tspan></text></g></g><g id="SvgjsG1056" transform="translate(316.0590930451126,185.0028782894737)"><path id="SvgjsPath1057" d="M 0 20C 0 -6.666666666666667 40 -6.666666666666667 40 20C 40 46.666666666666664 0 46.666666666666664 0 20Z" stroke="rgba(97,97,97,1)" stroke-width="1" fill-opacity="1" fill="#81a0aa"></path><g id="SvgjsG1058"><text id="SvgjsText1059" font-family="微软雅黑" text-anchor="middle" font-size="12px" width="20px" fill="#f6f3ee" font-weight="400" align="middle" lineHeight="125%" anchor="middle" family="微软雅黑" size="12px" weight="400" font-style="" opacity="1" y="10" transform="rotate(0)"><tspan id="SvgjsTspan1060" dy="15" x="20"><tspan id="SvgjsTspan1061" style="text-decoration:;">1.0</tspan></tspan></text></g></g><g id="SvgjsG1062"><path id="SvgjsPath1063" d="M84.3714405688898 184.61244388475217L114.93464195951464 146.40844214647115" stroke="#279de1" stroke-width="1" fill="none" marker-end="url(#SvgjsMarker1064)"></path></g><g id="SvgjsG1066"><path id="SvgjsPath1067" d="M196.0590930451126 65.5028782894737L196.0590930451126 104.5028782894737" stroke="#323232" stroke-width="1" fill="none"></path></g><g id="SvgjsG1068"><path id="SvgjsPath1069" d="M196.50630664061254 65.22648508722367L275.6118794496126 104.77927149172373" stroke="#323232" stroke-width="1" fill="none"></path></g><g id="SvgjsG1070"><path id="SvgjsPath1071" d="M195.61187944961267 65.22648508722367L116.50630664061254 104.77927149172373" stroke="#323232" stroke-width="1" fill="none"></path></g><g id="SvgjsG1072"><path id="SvgjsPath1073" d="M315.5590930451126 205.0028782894737L297.85909304511256 205.0028782894737" stroke="#f1485c" stroke-width="1" fill="none" marker-end="url(#SvgjsMarker1074)"></path></g><g id="SvgjsG1076"><path id="SvgjsPath1077" d="M255.5590930451126 205.0028782894737L237.85909304511262 205.0028782894737" stroke="#f1485c" stroke-width="1" fill="none" marker-end="url(#SvgjsMarker1078)"></path></g><g id="SvgjsG1080"><path id="SvgjsPath1081" d="M195.5590930451126 205.0028782894737L165.85909304511262 205.0028782894737" stroke="#f1485c" stroke-width="1" fill="none" marker-end="url(#SvgjsMarker1082)"></path></g><g id="SvgjsG1084"><path id="SvgjsPath1085" d="M123.5590930451126 205.0028782894737L105.85909304511262 205.0028782894737" stroke="#f1485c" stroke-width="1" fill="none" marker-end="url(#SvgjsMarker1086)"></path></g><g id="SvgjsG1088"><path id="SvgjsPath1089" d="M156.8485667293233 280.2660361842105L113.69067199248121 280.2660361842105" stroke="#f1485c" stroke-width="1" fill="none" marker-end="url(#SvgjsMarker1090)"></path></g><g id="SvgjsG1092" transform="translate(158.4275140977441,265.0028782894736)"><path id="SvgjsPath1093" d="M 0 0L 120 0L 120 30L 0 30Z" stroke="none" fill="none"></path><g id="SvgjsG1094"><text id="SvgjsText1095" font-family="微软雅黑" text-anchor="middle" font-size="13px" width="120px" fill="#323232" font-weight="400" align="middle" lineHeight="125%" anchor="middle" family="微软雅黑" size="13px" weight="400" font-style="" opacity="1" y="4.375" transform="rotate(0)"><tspan id="SvgjsTspan1096" dy="16" x="60"><tspan id="SvgjsTspan1097" style="text-decoration:;">现实生活真实路径</tspan></tspan></text></g></g><g id="SvgjsG1098"><path id="SvgjsPath1099" d="M156.84856672932324 310.2660361842107L113.69067199248116 310.2660361842107" stroke="#279de1" stroke-width="1" fill="none" marker-end="url(#SvgjsMarker1100)"></path></g><g id="SvgjsG1102" transform="translate(158.42751409774405,295.00287828947376)"><path id="SvgjsPath1103" d="M 0 0L 120 0L 120 30L 0 30Z" stroke="none" fill="none"></path><g id="SvgjsG1104"><text id="SvgjsText1105" font-family="微软雅黑" text-anchor="middle" font-size="13px" width="120px" fill="#323232" font-weight="400" align="middle" lineHeight="125%" anchor="middle" family="微软雅黑" size="13px" weight="400" font-style="" opacity="1" y="4.375" transform="rotate(0)"><tspan id="SvgjsTspan1106" dy="16" x="60"><tspan id="SvgjsTspan1107" style="text-decoration:;">产品市场契合路径</tspan></tspan></text></g></g><g id="SvgjsG1108" transform="translate(25.005208333333428,225.00287828947353)"><path id="SvgjsPath1109" d="M 0 0L 120 0L 120 40L 0 40Z" stroke="none" fill="none"></path><g id="SvgjsG1110"><text id="SvgjsText1111" font-family="微软雅黑" text-anchor="middle" font-size="13px" width="120px" fill="#279de1" font-weight="400" align="middle" lineHeight="125%" anchor="middle" family="微软雅黑" size="13px" weight="400" font-style="" opacity="1" y="9.375" transform="rotate(0)"><tspan id="SvgjsTspan1112" dy="16" x="60"><tspan id="SvgjsTspan1113" style="text-decoration:;">产品市场契合拐点</tspan></tspan></text></g></g></svg>