<svg id="SvgjsSvg1006" width="290" height="170" xmlns="http://www.w3.org/2000/svg" version="1.1" xmlns:xlink="http://www.w3.org/1999/xlink" xmlns:svgjs="http://svgjs.com/svgjs"><defs id="SvgjsDefs1007"></defs><g id="SvgjsG1008" transform="translate(25.001137571257146,25)"><path id="SvgjsPath1009" d="M 0 60C 0 -20 240 -20 240 60C 240 140 0 140 0 60Z" stroke="none" fill-opacity="0.25" fill="#668888"></path><g id="SvgjsG1010"><text id="SvgjsText1011" font-family="微软雅黑" text-anchor="middle" font-size="12px" width="220px" fill="#f6f3ee" font-weight="400" align="middle" lineHeight="125%" anchor="middle" family="微软雅黑" size="12px" weight="400" font-style="" opacity="0.25" y="51" transform="rotate(0)"></text></g></g><g id="SvgjsG1012" transform="translate(30.334470904590432,40)"><path id="SvgjsPath1013" d="M 0 45C 0 -15 180 -15 180 45C 180 105 0 105 0 45Z" stroke="none" fill-opacity="0.5" fill="#668888"></path><g id="SvgjsG1014"><text id="SvgjsText1015" font-family="微软雅黑" text-anchor="middle" font-size="12px" width="160px" fill="#f6f3ee" font-weight="400" align="middle" lineHeight="125%" anchor="middle" family="微软雅黑" size="12px" weight="400" font-style="" opacity="0.5" y="36" transform="rotate(0)"></text></g></g><g id="SvgjsG1016" transform="translate(35.04035325753131,55)"><path id="SvgjsPath1017" d="M 0 30C 0 -10 120 -10 120 30C 120 70 0 70 0 30Z" stroke="none" fill-opacity="0.75" fill="#668888"></path><g id="SvgjsG1018"><text id="SvgjsText1019" font-family="微软雅黑" text-anchor="middle" font-size="12px" width="100px" fill="#f6f3ee" font-weight="400" align="middle" lineHeight="125%" anchor="middle" family="微软雅黑" size="12px" weight="400" font-style="" opacity="0.75" y="21" transform="rotate(0)"></text></g></g><g id="SvgjsG1020" transform="translate(39.680876133348136,70)"><path id="SvgjsPath1021" d="M 0 15C 0 -5 60 -5 60 15C 60 35 0 35 0 15Z" stroke="none" fill-opacity="1" fill="#668888"></path><g id="SvgjsG1022"><text id="SvgjsText1023" font-family="微软雅黑" text-anchor="middle" font-size="12px" width="40px" fill="#f6f3ee" font-weight="400" align="middle" lineHeight="125%" anchor="middle" family="微软雅黑" size="12px" weight="400" font-style="" opacity="1" y="6" transform="rotate(0)"><tspan id="SvgjsTspan1024" dy="15" x="30"><tspan id="SvgjsTspan1025" style="text-decoration:;">成果区</tspan></tspan></text></g></g><g id="SvgjsG1026" transform="translate(94.32306985294144,70)"><path id="SvgjsPath1027" d="M 0 0L 60 0L 60 30L 0 30Z" stroke="none" fill="none"></path><g id="SvgjsG1028"><text id="SvgjsText1029" font-family="微软雅黑" text-anchor="middle" font-size="12px" width="60px" fill="#f6f3ee" font-weight="400" align="middle" lineHeight="125%" anchor="middle" family="微软雅黑" size="12px" weight="400" font-style="" opacity="1" y="6" transform="rotate(0)"><tspan id="SvgjsTspan1030" dy="15" x="30"><tspan id="SvgjsTspan1031" style="text-decoration:;">能力区</tspan></tspan></text></g></g><g id="SvgjsG1032" transform="translate(149.6564031862746,70)"><path id="SvgjsPath1033" d="M 0 0L 60 0L 60 30L 0 30Z" stroke="none" fill="none"></path><g id="SvgjsG1034"><text id="SvgjsText1035" font-family="微软雅黑" text-anchor="middle" font-size="12px" width="60px" fill="#f6f3ee" font-weight="400" align="middle" lineHeight="125%" anchor="middle" family="微软雅黑" size="12px" weight="400" font-style="" opacity="1" y="6" transform="rotate(0)"><tspan id="SvgjsTspan1036" dy="15" x="30"><tspan id="SvgjsTspan1037" style="text-decoration:;">成长区</tspan></tspan></text></g></g><g id="SvgjsG1038" transform="translate(204.32306985294127,70)"><path id="SvgjsPath1039" d="M 0 0L 60 0L 60 30L 0 30Z" stroke="none" fill="none"></path><g id="SvgjsG1040"><text id="SvgjsText1041" font-family="微软雅黑" text-anchor="middle" font-size="12px" width="60px" fill="#212121" font-weight="400" align="middle" lineHeight="125%" anchor="middle" family="微软雅黑" size="12px" weight="400" font-style="" opacity="1" y="6" transform="rotate(0)"><tspan id="SvgjsTspan1042" dy="15" x="30"><tspan id="SvgjsTspan1043" style="text-decoration:;">死亡区</tspan></tspan></text></g></g></svg>