<svg id="SvgjsSvg1006" width="392.484375" height="300.6953125" xmlns="http://www.w3.org/2000/svg" version="1.1" xmlns:xlink="http://www.w3.org/1999/xlink" xmlns:svgjs="http://svgjs.com/svgjs"><defs id="SvgjsDefs1007"><marker id="SvgjsMarker1014" markerWidth="12" markerHeight="8" refX="9" refY="4" viewBox="0 0 12 8" orient="auto" markerUnits="userSpaceOnUse" stroke-dasharray="0,0"><path id="SvgjsPath1015" d="M0,0 L12,4 L0,8 L0,0" fill="#323232" stroke="#323232" stroke-width="1"></path></marker><marker id="SvgjsMarker1018" markerWidth="12" markerHeight="8" refX="9" refY="4" viewBox="0 0 12 8" orient="auto" markerUnits="userSpaceOnUse" stroke-dasharray="0,0"><path id="SvgjsPath1019" d="M0,0 L12,4 L0,8 L0,0" fill="#323232" stroke="#323232" stroke-width="1"></path></marker></defs><g id="SvgjsG1008"><path id="SvgjsPath1009" d="M65.484375 225.5703125C 126.484375 224.5703125 232.484375 88.5703125 276.4913710565834 89.29950480503706" stroke="#688f4e" stroke-width="2" fill="none"></path></g><g id="SvgjsG1010"><path id="SvgjsPath1011" d="M64.484375 75.5703125C 149.68437500000005 135.5703125 173.27765736625048 225.5703125 276.4851887754518 225.52997779195476" stroke="#d32f2f" stroke-width="2" fill="none"></path></g><g id="SvgjsG1012"><path id="SvgjsPath1013" d="M54.48437499999994 244.37031249999984L172.98437499999994 244.37031249999984L172.98437499999994 244.37031249999984L291.4843749999998 244.37031249999984" stroke="#323232" stroke-width="1" fill="none" marker-end="url(#SvgjsMarker1014)"></path></g><g id="SvgjsG1016"><path id="SvgjsPath1017" d="M54.684374999999875 244.37031249999984L54.684374999999875 150.37031249999984L54.684374999999875 150.37031249999984L54.684374999999875 56.37031250000004" stroke="#323232" stroke-width="1" fill="none" marker-end="url(#SvgjsMarker1018)"></path></g><g id="SvgjsG1020" transform="translate(277.484375,210.5703125)"><path id="SvgjsPath1021" d="M 0 0L 90 0L 90 30L 0 30Z" stroke="none" fill="none"></path><g id="SvgjsG1022"><text id="SvgjsText1023" font-family="微软雅黑" text-anchor="middle" font-size="13px" width="90px" fill="#d32f2f" font-weight="400" align="middle" lineHeight="125%" anchor="middle" family="微软雅黑" size="13px" weight="400" font-style="" opacity="1" y="4.375" transform="rotate(0)"><tspan id="SvgjsTspan1024" dy="16" x="45"><tspan id="SvgjsTspan1025" style="text-decoration:;">付费软件</tspan></tspan></text></g></g><g id="SvgjsG1026" transform="translate(277.484375,245.6953125)"><path id="SvgjsPath1027" d="M 0 0L 60 0L 60 30L 0 30Z" stroke="none" fill="none"></path><g id="SvgjsG1028"><text id="SvgjsText1029" font-family="微软雅黑" text-anchor="middle" font-size="13px" width="60px" fill="#323232" font-weight="400" align="middle" lineHeight="125%" anchor="middle" family="微软雅黑" size="13px" weight="400" font-style="" opacity="1" y="4.375" transform="rotate(0)"><tspan id="SvgjsTspan1030" dy="16" x="30"><tspan id="SvgjsTspan1031" style="text-decoration:;">规模</tspan></tspan></text></g></g><g id="SvgjsG1032" transform="translate(25.006114130434867,25.007510567632806)"><path id="SvgjsPath1033" d="M 0 0L 60 0L 60 30L 0 30Z" stroke="none" fill="none"></path><g id="SvgjsG1034"><text id="SvgjsText1035" font-family="微软雅黑" text-anchor="middle" font-size="13px" width="60px" fill="#323232" font-weight="400" align="middle" lineHeight="125%" anchor="middle" family="微软雅黑" size="13px" weight="400" font-style="" opacity="1" y="4.375" transform="rotate(0)"><tspan id="SvgjsTspan1036" dy="16" x="30"><tspan id="SvgjsTspan1037" style="text-decoration:;">边际成本</tspan></tspan></text></g></g><g id="SvgjsG1038"><path id="SvgjsPath1039" d="M64.484375 104.5703125C 149.684375 140.97031249999998 184.83449642479627 195.5703125 276.4848485553638 195.53954097951646" stroke="#64b5f6" stroke-width="2" fill="none"></path></g><g id="SvgjsG1040" transform="translate(277.484375,180.5703125)"><path id="SvgjsPath1041" d="M 0 0L 90 0L 90 30L 0 30Z" stroke="none" fill="none"></path><g id="SvgjsG1042"><text id="SvgjsText1043" font-family="微软雅黑" text-anchor="middle" font-size="13px" width="90px" fill="#64b5f6" font-weight="400" align="middle" lineHeight="125%" anchor="middle" family="微软雅黑" size="13px" weight="400" font-style="" opacity="1" y="4.375" transform="rotate(0)"><tspan id="SvgjsTspan1044" dy="16" x="45"><tspan id="SvgjsTspan1045" style="text-decoration:;">共享单车</tspan></tspan></text></g></g><g id="SvgjsG1046" transform="translate(277.484375,74.18142361111109)"><path id="SvgjsPath1047" d="M 0 0L 90 0L 90 30L 0 30Z" stroke="none" fill="none"></path><g id="SvgjsG1048"><text id="SvgjsText1049" font-family="微软雅黑" text-anchor="middle" font-size="13px" width="90px" fill="#688f4e" font-weight="400" align="middle" lineHeight="125%" anchor="middle" family="微软雅黑" size="13px" weight="400" font-style="" opacity="1" y="4.375" transform="rotate(0)"><tspan id="SvgjsTspan1050" dy="16" x="45"><tspan id="SvgjsTspan1051" style="text-decoration:;">发型师</tspan></tspan></text></g></g></svg>