<svg id="SvgjsSvg1006" width="397" height="293.125" xmlns="http://www.w3.org/2000/svg" version="1.1" xmlns:xlink="http://www.w3.org/1999/xlink" xmlns:svgjs="http://svgjs.com/svgjs"><defs id="SvgjsDefs1007"><marker id="SvgjsMarker1014" markerWidth="12" markerHeight="8" refX="9" refY="4" viewBox="0 0 12 8" orient="auto" markerUnits="userSpaceOnUse" stroke-dasharray="0,0"><path id="SvgjsPath1015" d="M0,0 L12,4 L0,8 L0,0" fill="#323232" stroke="#323232" stroke-width="1"></path></marker><marker id="SvgjsMarker1018" markerWidth="12" markerHeight="8" refX="9" refY="4" viewBox="0 0 12 8" orient="auto" markerUnits="userSpaceOnUse" stroke-dasharray="0,0"><path id="SvgjsPath1019" d="M0,0 L12,4 L0,8 L0,0" fill="#323232" stroke="#323232" stroke-width="1"></path></marker><marker id="SvgjsMarker1022" markerWidth="16" markerHeight="16" refX="13" refY="8" viewBox="0 0 16 16" orient="auto" markerUnits="userSpaceOnUse" stroke-dasharray="0,0"><circle id="SvgjsCircle1023" r="4" cx="8" cy="8" fill="#ffffff" stroke="#212121" stroke-width="1"></circle></marker><marker id="SvgjsMarker1038" markerWidth="16" markerHeight="16" refX="3" refY="8" viewBox="0 0 16 16" orient="auto" markerUnits="userSpaceOnUse" stroke-dasharray="0,0"><circle id="SvgjsCircle1039" r="4" cx="8" cy="8" fill="#ffffff" stroke="#d32f2f" stroke-width="1"></circle></marker><marker id="SvgjsMarker1040" markerWidth="16" markerHeight="16" refX="13" refY="8" viewBox="0 0 16 16" orient="auto" markerUnits="userSpaceOnUse" stroke-dasharray="0,0"><circle id="SvgjsCircle1041" r="4" cx="8" cy="8" fill="#ffffff" stroke="#d32f2f" stroke-width="1"></circle></marker><marker id="SvgjsMarker1044" markerWidth="16" markerHeight="16" refX="3" refY="8" viewBox="0 0 16 16" orient="auto" markerUnits="userSpaceOnUse" stroke-dasharray="0,0"><circle id="SvgjsCircle1045" r="4" cx="8" cy="8" fill="#ffffff" stroke="#688f4e" stroke-width="1"></circle></marker><marker id="SvgjsMarker1046" markerWidth="16" markerHeight="16" refX="13" refY="8" viewBox="0 0 16 16" orient="auto" markerUnits="userSpaceOnUse" stroke-dasharray="0,0"><circle id="SvgjsCircle1047" r="4" cx="8" cy="8" fill="#ffffff" stroke="#688f4e" stroke-width="1"></circle></marker></defs><g id="SvgjsG1008"><path id="SvgjsPath1009" d="M100 218C 183.2 158.39999999999998 224.8 128.60000000000002 308 69" stroke="#323232" stroke-width="2" fill="none"></path></g><g id="SvgjsG1010"><path id="SvgjsPath1011" d="M99 68C 182.2 128.39999999999998 223.8 158.60000000000002 307 219" stroke="#323232" stroke-width="2" fill="none"></path></g><g id="SvgjsG1012"><path id="SvgjsPath1013" d="M88.99999999999994 236.79999999999984L207.49999999999994 236.79999999999984L207.49999999999994 236.79999999999984L325.9999999999998 236.79999999999984" stroke="#323232" stroke-width="1" fill="none" marker-end="url(#SvgjsMarker1014)"></path></g><g id="SvgjsG1016"><path id="SvgjsPath1017" d="M89.19999999999987 236.79999999999984L89.19999999999987 142.79999999999984L89.19999999999987 142.79999999999984L89.19999999999987 48.80000000000004" stroke="#323232" stroke-width="1" fill="none" marker-end="url(#SvgjsMarker1018)"></path></g><g id="SvgjsG1020"><path id="SvgjsPath1021" d="M203.8461538461538 236L203.8461538461538 187.5769230769231L203.8461538461538 187.5769230769231L203.8461538461538 139.15384615384613" stroke-dasharray="8,5" stroke="#212121" stroke-width="1" fill="none" marker-end="url(#SvgjsMarker1022)"></path></g><g id="SvgjsG1024" transform="translate(312,55)"><path id="SvgjsPath1025" d="M 0 0L 60 0L 60 30L 0 30Z" stroke="none" fill="none"></path><g id="SvgjsG1026"><text id="SvgjsText1027" font-family="微软雅黑" text-anchor="middle" font-size="13px" width="60px" fill="#323232" font-weight="400" align="middle" lineHeight="125%" anchor="middle" family="微软雅黑" size="13px" weight="400" font-style="" opacity="1" y="4.375" transform="rotate(0)"><tspan id="SvgjsTspan1028" dy="16" x="30"><tspan id="SvgjsTspan1029" style="text-decoration:;">供给</tspan></tspan></text></g></g><g id="SvgjsG1030" transform="translate(312,203)"><path id="SvgjsPath1031" d="M 0 0L 60 0L 60 30L 0 30Z" stroke="none" fill="none"></path><g id="SvgjsG1032"><text id="SvgjsText1033" font-family="微软雅黑" text-anchor="middle" font-size="13px" width="60px" fill="#323232" font-weight="400" align="middle" lineHeight="125%" anchor="middle" family="微软雅黑" size="13px" weight="400" font-style="" opacity="1" y="4.375" transform="rotate(0)"><tspan id="SvgjsTspan1034" dy="16" x="30"><tspan id="SvgjsTspan1035" style="text-decoration:;">需求</tspan></tspan></text></g></g><g id="SvgjsG1036"><path id="SvgjsPath1037" d="M136.66666666666669 98L203.47222222222223 98L203.47222222222223 98L270.27777777777777 98" stroke-dasharray="8,5" stroke="#d32f2f" stroke-width="1" fill="none" marker-start="url(#SvgjsMarker1038)" marker-end="url(#SvgjsMarker1040)"></path></g><g id="SvgjsG1042"><path id="SvgjsPath1043" d="M134.44444444444446 189.875L202.77777777777777 189.875L202.77777777777777 189.875L271.1111111111111 189.875" stroke-dasharray="8,5" stroke="#688f4e" stroke-width="1" fill="none" marker-start="url(#SvgjsMarker1044)" marker-end="url(#SvgjsMarker1046)"></path></g><g id="SvgjsG1048" transform="translate(176.11111111111126,25.00000000000003)"><path id="SvgjsPath1049" d="M 0 0L 60 0L 60 30L 0 30Z" stroke="none" fill="none"></path><g id="SvgjsG1050"><text id="SvgjsText1051" font-family="微软雅黑" text-anchor="middle" font-size="13px" width="60px" fill="#d32f2f" font-weight="400" align="middle" lineHeight="125%" anchor="middle" family="微软雅黑" size="13px" weight="400" font-style="" opacity="1" y="4.375" transform="rotate(0)"><tspan id="SvgjsTspan1052" dy="16" x="30"><tspan id="SvgjsTspan1053" style="text-decoration:;">过剩</tspan></tspan></text></g></g><g id="SvgjsG1054" transform="matrix(-1.8369701987210297e-16,-1,1,-1.8369701987210297e-16,143.61111450195312,86.61111068725587)"><path id="SvgjsPath1055" d="M 0 125Q 2 125 2 116L 2 71.5Q 2 62.5 22 62.5Q 2 62.5 2 53.5L 2 9Q 2 0 0 0" stroke="rgba(211,47,47,1)" stroke-width="1" fill="none"></path><path id="SvgjsPath1056" d="M 0 0L 20 0L 20 125L 0 125Z" stroke="none" fill="none"></path><g id="SvgjsG1057"><text id="SvgjsText1058" font-family="微软雅黑" text-anchor="start" font-size="13px" width="0" fill="#323232" font-weight="400" align="middle" lineHeight="125%" anchor="start" family="微软雅黑" size="13px" weight="400" font-style="" opacity="1" y="51.875" transform="rotate(0)"></text></g></g><g id="SvgjsG1059" transform="translate(202.98611111111126,190.625)"><path id="SvgjsPath1060" d="M 0 0L 60 0L 60 30L 0 30Z" stroke="none" fill="none"></path><g id="SvgjsG1061"><text id="SvgjsText1062" font-family="微软雅黑" text-anchor="middle" font-size="13px" width="60px" fill="#688f4e" font-weight="400" align="middle" lineHeight="125%" anchor="middle" family="微软雅黑" size="13px" weight="400" font-style="" opacity="1" y="4.375" transform="rotate(0)"><tspan id="SvgjsTspan1063" dy="16" x="30"><tspan id="SvgjsTspan1064" style="text-decoration:;">短缺</tspan></tspan></text></g></g><g id="SvgjsG1065" transform="translate(172.98611111111126,238.125)"><path id="SvgjsPath1066" d="M 0 0L 60 0L 60 30L 0 30Z" stroke="none" fill="none"></path><g id="SvgjsG1067"><text id="SvgjsText1068" font-family="微软雅黑" text-anchor="middle" font-size="13px" width="60px" fill="#000000" font-weight="400" align="middle" lineHeight="125%" anchor="middle" family="微软雅黑" size="13px" weight="400" font-style="" opacity="1" y="4.375" transform="rotate(0)"><tspan id="SvgjsTspan1069" dy="16" x="30"><tspan id="SvgjsTspan1070" style="text-decoration:;">均衡点</tspan></tspan></text></g></g><g id="SvgjsG1071" transform="translate(312,238.125)"><path id="SvgjsPath1072" d="M 0 0L 60 0L 60 30L 0 30Z" stroke="none" fill="none"></path><g id="SvgjsG1073"><text id="SvgjsText1074" font-family="微软雅黑" text-anchor="middle" font-size="13px" width="60px" fill="#323232" font-weight="400" align="middle" lineHeight="125%" anchor="middle" family="微软雅黑" size="13px" weight="400" font-style="" opacity="1" y="4.375" transform="rotate(0)"><tspan id="SvgjsTspan1075" dy="16" x="30"><tspan id="SvgjsTspan1076" style="text-decoration:;">数量</tspan></tspan></text></g></g><g id="SvgjsG1077" transform="translate(25,36.611111111111086)"><path id="SvgjsPath1078" d="M 0 0L 60 0L 60 30L 0 30Z" stroke="none" fill="none"></path><g id="SvgjsG1079"><text id="SvgjsText1080" font-family="微软雅黑" text-anchor="middle" font-size="13px" width="60px" fill="#323232" font-weight="400" align="middle" lineHeight="125%" anchor="middle" family="微软雅黑" size="13px" weight="400" font-style="" opacity="1" y="4.375" transform="rotate(0)"><tspan id="SvgjsTspan1081" dy="16" x="30"><tspan id="SvgjsTspan1082" style="text-decoration:;">价格</tspan></tspan></text></g></g></svg>