<svg id="SvgjsSvg1006" width="660" height="353.46875" xmlns="http://www.w3.org/2000/svg" version="1.1" xmlns:xlink="http://www.w3.org/1999/xlink" xmlns:svgjs="http://svgjs.com/svgjs"><defs id="SvgjsDefs1007"><marker id="SvgjsMarker1044" markerWidth="12" markerHeight="8" refX="9" refY="4" viewBox="0 0 12 8" orient="auto" markerUnits="userSpaceOnUse" stroke-dasharray="0,0"><path id="SvgjsPath1045" d="M0,0 L12,4 L0,8 L0,0" fill="#616161" stroke="#616161" stroke-width="1"></path></marker><marker id="SvgjsMarker1048" markerWidth="12" markerHeight="8" refX="9" refY="4" viewBox="0 0 12 8" orient="auto" markerUnits="userSpaceOnUse" stroke-dasharray="0,0"><path id="SvgjsPath1049" d="M0,0 L12,4 L0,8 L0,0" fill="#616161" stroke="#616161" stroke-width="1"></path></marker><marker id="SvgjsMarker1080" markerWidth="12" markerHeight="8" refX="9" refY="4" viewBox="0 0 12 8" orient="auto" markerUnits="userSpaceOnUse" stroke-dasharray="0,0"><path id="SvgjsPath1081" d="M0,0 L12,4 L0,8 L0,0" fill="#616161" stroke="#616161" stroke-width="1"></path></marker><marker id="SvgjsMarker1084" markerWidth="12" markerHeight="8" refX="9" refY="4" viewBox="0 0 12 8" orient="auto" markerUnits="userSpaceOnUse" stroke-dasharray="0,0"><path id="SvgjsPath1085" d="M0,0 L12,4 L0,8 L0,0" fill="#616161" stroke="#616161" stroke-width="1"></path></marker><marker id="SvgjsMarker1094" markerWidth="12" markerHeight="8" refX="9" refY="4" viewBox="0 0 12 8" orient="auto" markerUnits="userSpaceOnUse" stroke-dasharray="0,0"><path id="SvgjsPath1095" d="M0,0 L12,4 L0,8 L0,0" fill="#616161" stroke="#616161" stroke-width="1"></path></marker><marker id="SvgjsMarker1098" markerWidth="12" markerHeight="8" refX="9" refY="4" viewBox="0 0 12 8" orient="auto" markerUnits="userSpaceOnUse" stroke-dasharray="0,0"><path id="SvgjsPath1099" d="M0,0 L12,4 L0,8 L0,0" fill="#323232" stroke="#323232" stroke-width="1"></path></marker><marker id="SvgjsMarker1120" markerWidth="12" markerHeight="8" refX="9" refY="4" viewBox="0 0 12 8" orient="auto" markerUnits="userSpaceOnUse" stroke-dasharray="0,0"><path id="SvgjsPath1121" d="M0,0 L12,4 L0,8 L0,0" fill="#616161" stroke="#616161" stroke-width="1"></path></marker></defs><g id="SvgjsG1008" transform="translate(395,67.5)"><path id="SvgjsPath1009" d="M 0 0L 60 0L 60 25L 0 25Z" stroke="none" fill="none"></path><g id="SvgjsG1010"><text id="SvgjsText1011" font-family="微软雅黑" text-anchor="middle" font-size="13px" width="60px" fill="#616161" font-weight="400" align="middle" lineHeight="125%" anchor="middle" family="微软雅黑" size="13px" weight="400" font-style="" opacity="1" y="1.875" transform="rotate(0)"><tspan id="SvgjsTspan1012" dy="16" x="30"><tspan id="SvgjsTspan1013" style="text-decoration:;">熵减</tspan></tspan></text></g></g><g id="SvgjsG1014" transform="translate(175,25)"><path id="SvgjsPath1015" d="M 0 4Q 0 0 4 0L 216 0Q 220 0 220 4L 220 106Q 220 110 216 110L 4 110Q 0 110 0 106Z" stroke="rgba(97,97,97,1)" stroke-width="1" fill-opacity="1" fill="#f6f3ee"></path><g id="SvgjsG1016"><text id="SvgjsText1017" font-family="微软雅黑" text-anchor="middle" font-size="16px" width="200px" fill="#3d4b58" font-weight="400" align="middle" lineHeight="125%" anchor="middle" family="微软雅黑" size="16px" weight="400" font-style="" opacity="1" y="41" transform="rotate(0)"></text></g></g><g id="SvgjsG1018" transform="translate(195,70.33333333333331)"><path id="SvgjsPath1019" d="M 0 4Q 0 0 4 0L 176 0Q 180 0 180 4L 180 41Q 180 45 176 45L 4 45Q 0 45 0 41Z" stroke="rgba(97,97,97,1)" stroke-width="1" fill-opacity="1" fill="#81a0aa"></path><g id="SvgjsG1020"><text id="SvgjsText1021" font-family="微软雅黑" text-anchor="middle" font-size="13px" width="160px" fill="#f6f3ee" font-weight="400" align="middle" lineHeight="125%" anchor="middle" family="微软雅黑" size="13px" weight="400" font-style="" opacity="1" y="11.875" transform="rotate(0)"><tspan id="SvgjsTspan1022" dy="16" x="90"><tspan id="SvgjsTspan1023" style="text-decoration:;">感知 + 选择</tspan></tspan></text></g></g><g id="SvgjsG1024" transform="translate(195,25)"><path id="SvgjsPath1025" d="M 0 0L 180 0L 180 45L 0 45Z" stroke="none" fill="none"></path><g id="SvgjsG1026"><text id="SvgjsText1027" font-family="微软雅黑" text-anchor="middle" font-size="15px" width="180px" fill="#616161" font-weight="700" align="middle" lineHeight="125%" anchor="middle" family="微软雅黑" size="15px" weight="700" font-style="" opacity="1" y="10.125" transform="rotate(0)"><tspan id="SvgjsTspan1028" dy="18" x="90"><tspan id="SvgjsTspan1029" style="text-decoration:;">封闭系统</tspan></tspan></text></g></g><g id="SvgjsG1030" transform="translate(25,53.333333333333314)"><path id="SvgjsPath1031" d="M 0 4Q 0 0 4 0L 86 0Q 90 0 90 4L 90 26Q 90 30 86 30L 4 30Q 0 30 0 26Z" stroke="rgba(97,97,97,1)" stroke-width="1" fill-opacity="1" fill="#81a0aa"></path><g id="SvgjsG1032"><text id="SvgjsText1033" font-family="微软雅黑" text-anchor="middle" font-size="13px" width="70px" fill="#f6f3ee" font-weight="400" align="middle" lineHeight="125%" anchor="middle" family="微软雅黑" size="13px" weight="400" font-style="" opacity="1" y="4.375" transform="rotate(0)"><tspan id="SvgjsTspan1034" dy="16" x="45"><tspan id="SvgjsTspan1035" style="text-decoration:;">信息</tspan></tspan></text></g></g><g id="SvgjsG1036" transform="translate(25,105.00000000000006)"><path id="SvgjsPath1037" d="M 0 4Q 0 0 4 0L 86 0Q 90 0 90 4L 90 26Q 90 30 86 30L 4 30Q 0 30 0 26Z" stroke="rgba(97,97,97,1)" stroke-width="1" fill-opacity="1" fill="#81a0aa"></path><g id="SvgjsG1038"><text id="SvgjsText1039" font-family="微软雅黑" text-anchor="middle" font-size="13px" width="70px" fill="#f6f3ee" font-weight="400" align="middle" lineHeight="125%" anchor="middle" family="微软雅黑" size="13px" weight="400" font-style="" opacity="1" y="4.375" transform="rotate(0)"><tspan id="SvgjsTspan1040" dy="16" x="45"><tspan id="SvgjsTspan1041" style="text-decoration:;">能量</tspan></tspan></text></g></g><g id="SvgjsG1042"><path id="SvgjsPath1043" d="M115.5 68.33333333333331L155 68.33333333333331L155 92.83333333333331L193.2 92.83333333333331" stroke="#616161" stroke-width="1" fill="none" marker-end="url(#SvgjsMarker1044)"></path></g><g id="SvgjsG1046"><path id="SvgjsPath1047" d="M115.5 120L155 120L155 92.83333333333331L193.2 92.83333333333331" stroke="#616161" stroke-width="1" fill="none" marker-end="url(#SvgjsMarker1048)"></path></g><g id="SvgjsG1050" transform="translate(175,171.47368421052624)"><path id="SvgjsPath1051" d="M 0 4Q 0 0 4 0L 216 0Q 220 0 220 4L 220 106Q 220 110 216 110L 4 110Q 0 110 0 106Z" stroke="rgba(97,97,97,1)" stroke-width="1" fill-opacity="1" fill="#f6f3ee"></path><g id="SvgjsG1052"><text id="SvgjsText1053" font-family="微软雅黑" text-anchor="middle" font-size="16px" width="200px" fill="#3d4b58" font-weight="400" align="middle" lineHeight="125%" anchor="middle" family="微软雅黑" size="16px" weight="400" font-style="" opacity="1" y="41" transform="rotate(0)"></text></g></g><g id="SvgjsG1054" transform="translate(195,216.8070175438595)"><path id="SvgjsPath1055" d="M 0 4Q 0 0 4 0L 176 0Q 180 0 180 4L 180 41Q 180 45 176 45L 4 45Q 0 45 0 41Z" stroke="rgba(97,97,97,1)" stroke-width="1" fill-opacity="1" fill="#81a0aa"></path><g id="SvgjsG1056"><text id="SvgjsText1057" font-family="微软雅黑" text-anchor="middle" font-size="13px" width="160px" fill="#f6f3ee" font-weight="400" align="middle" lineHeight="125%" anchor="middle" family="微软雅黑" size="13px" weight="400" font-style="" opacity="1" y="11.875" transform="rotate(0)"><tspan id="SvgjsTspan1058" dy="16" x="90"><tspan id="SvgjsTspan1059" style="text-decoration:;">感知 + 选择</tspan></tspan></text></g></g><g id="SvgjsG1060" transform="translate(195,171.47368421052624)"><path id="SvgjsPath1061" d="M 0 0L 180 0L 180 45L 0 45Z" stroke="none" fill="none"></path><g id="SvgjsG1062"><text id="SvgjsText1063" font-family="微软雅黑" text-anchor="middle" font-size="15px" width="180px" fill="#616161" font-weight="700" align="middle" lineHeight="125%" anchor="middle" family="微软雅黑" size="15px" weight="700" font-style="" opacity="1" y="10.125" transform="rotate(0)"><tspan id="SvgjsTspan1064" dy="18" x="90"><tspan id="SvgjsTspan1065" style="text-decoration:;">耗散结构</tspan></tspan></text></g></g><g id="SvgjsG1066" transform="translate(25,171.47368421052624)"><path id="SvgjsPath1067" d="M 0 4Q 0 0 4 0L 86 0Q 90 0 90 4L 90 26Q 90 30 86 30L 4 30Q 0 30 0 26Z" stroke="rgba(97,97,97,1)" stroke-width="1" fill-opacity="1" fill="#81a0aa"></path><g id="SvgjsG1068"><text id="SvgjsText1069" font-family="微软雅黑" text-anchor="middle" font-size="13px" width="70px" fill="#f6f3ee" font-weight="400" align="middle" lineHeight="125%" anchor="middle" family="微软雅黑" size="13px" weight="400" font-style="" opacity="1" y="4.375" transform="rotate(0)"><tspan id="SvgjsTspan1070" dy="16" x="45"><tspan id="SvgjsTspan1071" style="text-decoration:;">信息</tspan></tspan></text></g></g><g id="SvgjsG1072" transform="translate(25,251.47368421052624)"><path id="SvgjsPath1073" d="M 0 4Q 0 0 4 0L 86 0Q 90 0 90 4L 90 26Q 90 30 86 30L 4 30Q 0 30 0 26Z" stroke="rgba(97,97,97,1)" stroke-width="1" fill-opacity="1" fill="#81a0aa"></path><g id="SvgjsG1074"><text id="SvgjsText1075" font-family="微软雅黑" text-anchor="middle" font-size="13px" width="70px" fill="#f6f3ee" font-weight="400" align="middle" lineHeight="125%" anchor="middle" family="微软雅黑" size="13px" weight="400" font-style="" opacity="1" y="4.375" transform="rotate(0)"><tspan id="SvgjsTspan1076" dy="16" x="45"><tspan id="SvgjsTspan1077" style="text-decoration:;">物质</tspan></tspan></text></g></g><g id="SvgjsG1078"><path id="SvgjsPath1079" d="M115.5 186.47368421052624L155 186.47368421052624L155 239.3070175438595L193.2 239.3070175438595" stroke="#616161" stroke-width="1" fill="none" marker-end="url(#SvgjsMarker1080)"></path></g><g id="SvgjsG1082"><path id="SvgjsPath1083" d="M115.5 266.47368421052624L155 266.47368421052624L155 239.3070175438595L193.2 239.3070175438595" stroke="#616161" stroke-width="1" fill="none" marker-end="url(#SvgjsMarker1084)"></path></g><g id="SvgjsG1086" transform="translate(25,211.47368421052624)"><path id="SvgjsPath1087" d="M 0 4Q 0 0 4 0L 86 0Q 90 0 90 4L 90 26Q 90 30 86 30L 4 30Q 0 30 0 26Z" stroke="rgba(97,97,97,1)" stroke-width="1" fill-opacity="1" fill="#81a0aa"></path><g id="SvgjsG1088"><text id="SvgjsText1089" font-family="微软雅黑" text-anchor="middle" font-size="13px" width="70px" fill="#f6f3ee" font-weight="400" align="middle" lineHeight="125%" anchor="middle" family="微软雅黑" size="13px" weight="400" font-style="" opacity="1" y="4.375" transform="rotate(0)"><tspan id="SvgjsTspan1090" dy="16" x="45"><tspan id="SvgjsTspan1091" style="text-decoration:;">能量</tspan></tspan></text></g></g><g id="SvgjsG1092"><path id="SvgjsPath1093" d="M115.5 226.47368421052624L155 226.47368421052624L155 239.3070175438595L193.2 239.3070175438595" stroke="#616161" stroke-width="1" fill="none" marker-end="url(#SvgjsMarker1094)"></path></g><g id="SvgjsG1096"><path id="SvgjsPath1097" d="M375.5 92.83333333333331L415 92.83333333333331L415 92.83333333333326L453.20000000000005 92.83333333333326" stroke="#323232" stroke-width="1" fill="none" marker-end="url(#SvgjsMarker1098)"></path></g><g id="SvgjsG1100" transform="translate(115,43.5)"><path id="SvgjsPath1101" d="M 0 0L 60 0L 60 25L 0 25Z" stroke="none" fill="none"></path><g id="SvgjsG1102"><text id="SvgjsText1103" font-family="微软雅黑" text-anchor="middle" font-size="13px" width="60px" fill="#616161" font-weight="400" align="middle" lineHeight="125%" anchor="middle" family="微软雅黑" size="13px" weight="400" font-style="" opacity="1" y="1.875" transform="rotate(0)"><tspan id="SvgjsTspan1104" dy="16" x="30"><tspan id="SvgjsTspan1105" style="text-decoration:;">输入</tspan></tspan></text></g></g><g id="SvgjsG1106" transform="translate(115,160.73684210526312)"><path id="SvgjsPath1107" d="M 0 0L 60 0L 60 25L 0 25Z" stroke="none" fill="none"></path><g id="SvgjsG1108"><text id="SvgjsText1109" font-family="微软雅黑" text-anchor="middle" font-size="13px" width="60px" fill="#616161" font-weight="400" align="middle" lineHeight="125%" anchor="middle" family="微软雅黑" size="13px" weight="400" font-style="" opacity="1" y="1.875" transform="rotate(0)"><tspan id="SvgjsTspan1110" dy="16" x="30"><tspan id="SvgjsTspan1111" style="text-decoration:;">输入</tspan></tspan></text></g></g><g id="SvgjsG1112" transform="translate(195,283.47368421052624)"><path id="SvgjsPath1113" d="M 0 0L 180 0L 180 45L 0 45Z" stroke="none" fill="none"></path><g id="SvgjsG1114"><text id="SvgjsText1115" font-family="微软雅黑" text-anchor="middle" font-size="15px" width="180px" fill="#616161" font-weight="700" align="middle" lineHeight="125%" anchor="middle" family="微软雅黑" size="15px" weight="700" font-style="" opacity="1" y="10.125" transform="rotate(0)"><tspan id="SvgjsTspan1116" dy="18" x="90"><tspan id="SvgjsTspan1117" style="text-decoration:;">动态平衡体</tspan></tspan></text></g></g><g id="SvgjsG1118"><path id="SvgjsPath1119" d="M375.5 239.3070175438595L415 239.3070175438595L415 239.3070175438595L453.20000000000005 239.3070175438595" stroke="#616161" stroke-width="1" fill="none" marker-end="url(#SvgjsMarker1120)"></path></g><g id="SvgjsG1122" transform="translate(395,213.97368421052624)"><path id="SvgjsPath1123" d="M 0 0L 60 0L 60 25L 0 25Z" stroke="none" fill="none"></path><g id="SvgjsG1124"><text id="SvgjsText1125" font-family="微软雅黑" text-anchor="middle" font-size="13px" width="60px" fill="#616161" font-weight="400" align="middle" lineHeight="125%" anchor="middle" family="微软雅黑" size="13px" weight="400" font-style="" opacity="1" y="1.875" transform="rotate(0)"><tspan id="SvgjsTspan1126" dy="16" x="30"><tspan id="SvgjsTspan1127" style="text-decoration:;">熵减</tspan></tspan></text></g></g><g id="SvgjsG1128" transform="translate(455,70.33333333333326)"><path id="SvgjsPath1129" d="M 0 4Q 0 0 4 0L 176 0Q 180 0 180 4L 180 41Q 180 45 176 45L 4 45Q 0 45 0 41Z" stroke="rgba(97,97,97,1)" stroke-width="1" fill-opacity="1" fill="#f6f3ee"></path><g id="SvgjsG1130"><text id="SvgjsText1131" font-family="微软雅黑" text-anchor="middle" font-size="13px" width="160px" fill="#3d4b58" font-weight="400" align="middle" lineHeight="125%" anchor="middle" family="微软雅黑" size="13px" weight="400" font-style="" opacity="1" y="11.875" transform="rotate(0)"><tspan id="SvgjsTspan1132" dy="16" x="90"><tspan id="SvgjsTspan1133" style="text-decoration:;">负信息、负能量</tspan></tspan></text></g></g><g id="SvgjsG1134" transform="translate(455,216.8070175438595)"><path id="SvgjsPath1135" d="M 0 4Q 0 0 4 0L 176 0Q 180 0 180 4L 180 41Q 180 45 176 45L 4 45Q 0 45 0 41Z" stroke="rgba(97,97,97,1)" stroke-width="1" fill-opacity="1" fill="#f6f3ee"></path><g id="SvgjsG1136"><text id="SvgjsText1137" font-family="微软雅黑" text-anchor="middle" font-size="13px" width="160px" fill="#3d4b58" font-weight="400" align="middle" lineHeight="125%" anchor="middle" family="微软雅黑" size="13px" weight="400" font-style="" opacity="1" y="11.875" transform="rotate(0)"><tspan id="SvgjsTspan1138" dy="16" x="90"><tspan id="SvgjsTspan1139" style="text-decoration:;">负信息、负能量、排泄物</tspan></tspan></text></g></g><g id="SvgjsG1140" transform="translate(485,290.97368421052624)"><path id="SvgjsPath1141" d="M 0 0L 120 0L 120 30L 0 30Z" stroke="none" fill="none"></path><g id="SvgjsG1142"><text id="SvgjsText1143" font-family="&quot;Times New Roman&quot;" text-anchor="middle" font-size="13px" width="120px" fill="#e0e0e0" font-weight="400" align="middle" lineHeight="125%" anchor="middle" family="&quot;Times New Roman&quot;" size="13px" weight="400" font-style="" opacity="1" y="4.375" transform="rotate(0)"><tspan id="SvgjsTspan1144" dy="16" x="60"><tspan id="SvgjsTspan1145" style="text-decoration:;">www.kofes.cn</tspan></tspan></text></g></g></svg>