<svg id="SvgjsSvg1006" width="690" height="241.46875" xmlns="http://www.w3.org/2000/svg" version="1.1" xmlns:xlink="http://www.w3.org/1999/xlink" xmlns:svgjs="http://svgjs.com/svgjs"><defs id="SvgjsDefs1007"><marker id="SvgjsMarker1050" markerWidth="12" markerHeight="8" refX="9" refY="4" viewBox="0 0 12 8" orient="auto" markerUnits="userSpaceOnUse" stroke-dasharray="0,0"><path id="SvgjsPath1051" d="M0,0 L12,4 L0,8 L0,0" fill="#616161" stroke="#616161" stroke-width="1"></path></marker><marker id="SvgjsMarker1054" markerWidth="12" markerHeight="8" refX="9" refY="4" viewBox="0 0 12 8" orient="auto" markerUnits="userSpaceOnUse" stroke-dasharray="0,0"><path id="SvgjsPath1055" d="M0,0 L12,4 L0,8 L0,0" fill="#616161" stroke="#616161" stroke-width="1"></path></marker><marker id="SvgjsMarker1058" markerWidth="12" markerHeight="8" refX="9" refY="4" viewBox="0 0 12 8" orient="auto" markerUnits="userSpaceOnUse" stroke-dasharray="0,0"><path id="SvgjsPath1059" d="M0,0 L12,4 L0,8 L0,0" fill="#616161" stroke="#616161" stroke-width="1"></path></marker></defs><g id="SvgjsG1008" transform="translate(235,25)"><path id="SvgjsPath1009" d="M 0 4Q 0 0 4 0L 216 0Q 220 0 220 4L 220 106Q 220 110 216 110L 4 110Q 0 110 0 106Z" stroke="rgba(97,97,97,1)" stroke-width="1" fill-opacity="1" fill="#f6f3ee"></path><g id="SvgjsG1010"><text id="SvgjsText1011" font-family="微软雅黑" text-anchor="middle" font-size="16px" width="200px" fill="#3d4b58" font-weight="400" align="middle" lineHeight="125%" anchor="middle" family="微软雅黑" size="16px" weight="400" font-style="" opacity="1" y="41" transform="rotate(0)"></text></g></g><g id="SvgjsG1012" transform="translate(255,70.33333333333331)"><path id="SvgjsPath1013" d="M 0 4Q 0 0 4 0L 176 0Q 180 0 180 4L 180 41Q 180 45 176 45L 4 45Q 0 45 0 41Z" stroke="rgba(97,97,97,1)" stroke-width="1" fill-opacity="1" fill="#81a0aa"></path><g id="SvgjsG1014"><text id="SvgjsText1015" font-family="微软雅黑" text-anchor="middle" font-size="12px" width="160px" fill="#f6f3ee" font-weight="400" align="middle" lineHeight="125%" anchor="middle" family="微软雅黑" size="12px" weight="400" font-style="" opacity="1" y="5" transform="rotate(0)"><tspan id="SvgjsTspan1016" dy="15" x="90"><tspan id="SvgjsTspan1017" style="text-decoration:;">能量 + 信息 +物质</tspan></tspan><tspan id="SvgjsTspan1018" dy="15" x="90"><tspan id="SvgjsTspan1019" style="text-decoration:;">（求知、娱乐、食物、环境）</tspan></tspan></text></g></g><g id="SvgjsG1020" transform="translate(255,25)"><path id="SvgjsPath1021" d="M 0 0L 180 0L 180 45L 0 45Z" stroke="none" fill="none"></path><g id="SvgjsG1022"><text id="SvgjsText1023" font-family="微软雅黑" text-anchor="middle" font-size="15px" width="180px" fill="#616161" font-weight="700" align="middle" lineHeight="125%" anchor="middle" family="微软雅黑" size="15px" weight="700" font-style="" opacity="1" y="10.125" transform="rotate(0)"><tspan id="SvgjsTspan1024" dy="18" x="90"><tspan id="SvgjsTspan1025" style="text-decoration:;">人</tspan></tspan></text></g></g><g id="SvgjsG1026" transform="translate(255,171.47368421052624)"><path id="SvgjsPath1027" d="M 0 4Q 0 0 4 0L 176 0Q 180 0 180 4L 180 41Q 180 45 176 45L 4 45Q 0 45 0 41Z" stroke="rgba(97,97,97,1)" stroke-width="1" fill-opacity="1" fill="#f6f3ee"></path><g id="SvgjsG1028"><text id="SvgjsText1029" font-family="微软雅黑" text-anchor="middle" font-size="12px" width="160px" fill="#3d4b58" font-weight="400" align="middle" lineHeight="125%" anchor="middle" family="微软雅黑" size="12px" weight="400" font-style="" opacity="1" y="12.5" transform="rotate(0)"><tspan id="SvgjsTspan1030" dy="15" x="90"><tspan id="SvgjsTspan1031" style="text-decoration:;">负能量、负信息、排泄物</tspan></tspan></text></g></g><g id="SvgjsG1032" transform="translate(25,70.33333333333331)"><path id="SvgjsPath1033" d="M 0 4Q 0 0 4 0L 176 0Q 180 0 180 4L 180 41Q 180 45 176 45L 4 45Q 0 45 0 41Z" stroke="rgba(97,97,97,1)" stroke-width="1" fill-opacity="1" fill="#81a0aa"></path><g id="SvgjsG1034"><text id="SvgjsText1035" font-family="微软雅黑" text-anchor="middle" font-size="12px" width="160px" fill="#f6f3ee" font-weight="400" align="middle" lineHeight="125%" anchor="middle" family="微软雅黑" size="12px" weight="400" font-style="" opacity="1" y="5" transform="rotate(0)"><tspan id="SvgjsTspan1036" dy="15" x="90"><tspan id="SvgjsTspan1037" style="text-decoration:;">成果</tspan></tspan><tspan id="SvgjsTspan1038" dy="15" x="90"><tspan id="SvgjsTspan1039" style="text-decoration:;">（睡眠、运动、思考）</tspan></tspan></text></g></g><g id="SvgjsG1040" transform="translate(485,70.33333333333331)"><path id="SvgjsPath1041" d="M 0 4Q 0 0 4 0L 176 0Q 180 0 180 4L 180 41Q 180 45 176 45L 4 45Q 0 45 0 41Z" stroke="rgba(97,97,97,1)" stroke-width="1" fill-opacity="1" fill="#81a0aa"></path><g id="SvgjsG1042"><text id="SvgjsText1043" font-family="微软雅黑" text-anchor="middle" font-size="12px" width="160px" fill="#f6f3ee" font-weight="400" align="middle" lineHeight="125%" anchor="middle" family="微软雅黑" size="12px" weight="400" font-style="" opacity="1" y="5" transform="rotate(0)"><tspan id="SvgjsTspan1044" dy="15" x="90"><tspan id="SvgjsTspan1045" style="text-decoration:;">成果</tspan></tspan><tspan id="SvgjsTspan1046" dy="15" x="90"><tspan id="SvgjsTspan1047" style="text-decoration:;">（活动）</tspan></tspan></text></g></g><g id="SvgjsG1048"><path id="SvgjsPath1049" d="M205.5 92.83333333333331L230 92.83333333333331L230 92.83333333333331L253.2 92.83333333333331" stroke="#616161" stroke-width="1" fill="none" marker-end="url(#SvgjsMarker1050)"></path></g><g id="SvgjsG1052"><path id="SvgjsPath1053" d="M484.5 92.83333333333331L460 92.83333333333331L460 92.83333333333331L436.79999999999995 92.83333333333331" stroke="#616161" stroke-width="1" fill="none" marker-end="url(#SvgjsMarker1054)"></path></g><g id="SvgjsG1056"><path id="SvgjsPath1057" d="M345 135.5L345 153.23684210526312L345 153.23684210526312L345 169.67368421052623" stroke="#616161" stroke-width="1" fill="none" marker-end="url(#SvgjsMarker1058)"></path></g><g id="SvgjsG1060" transform="translate(345.5,136.25)"><path id="SvgjsPath1061" d="M 0 0L 60 0L 60 35L 0 35Z" stroke="none" fill="none"></path><g id="SvgjsG1062"><text id="SvgjsText1063" font-family="微软雅黑" text-anchor="middle" font-size="13px" width="60px" fill="#323232" font-weight="400" align="middle" lineHeight="125%" anchor="middle" family="微软雅黑" size="13px" weight="400" font-style="" opacity="1" y="6.875" transform="rotate(0)"><tspan id="SvgjsTspan1064" dy="16" x="30"><tspan id="SvgjsTspan1065" style="text-decoration:;">熵减</tspan></tspan></text></g></g><g id="SvgjsG1066" transform="translate(515,178.97368421052624)"><path id="SvgjsPath1067" d="M 0 0L 120 0L 120 30L 0 30Z" stroke="none" fill="none"></path><g id="SvgjsG1068"><text id="SvgjsText1069" font-family="&quot;Times New Roman&quot;" text-anchor="middle" font-size="13px" width="120px" fill="#e0e0e0" font-weight="400" align="middle" lineHeight="125%" anchor="middle" family="&quot;Times New Roman&quot;" size="13px" weight="400" font-style="" opacity="1" y="4.375" transform="rotate(0)"><tspan id="SvgjsTspan1070" dy="16" x="60"><tspan id="SvgjsTspan1071" style="text-decoration:;">www.kofes.cn</tspan></tspan></text></g></g></svg>