<svg id="SvgjsSvg1122" width="650" height="248.1953125" xmlns="http://www.w3.org/2000/svg" version="1.1" xmlns:xlink="http://www.w3.org/1999/xlink" xmlns:svgjs="http://svgjs.com/svgjs"><defs id="SvgjsDefs1123"></defs><g id="SvgjsG1124" transform="translate(260.0044055451126,25.0028782894737)"><path id="SvgjsPath1125" d="M 0 4Q 0 0 4 0L 86 0Q 90 0 90 4L 90 26Q 90 30 86 30L 4 30Q 0 30 0 26Z" stroke="rgba(97,97,97,1)" stroke-width="1" fill-opacity="1" fill="#81a0aa"></path><g id="SvgjsG1126"><text id="SvgjsText1127" font-family="&quot;Times New Roman&quot;" text-anchor="middle" font-size="13px" width="70px" fill="#f6f3ee" font-weight="400" align="middle" lineHeight="125%" anchor="middle" family="&quot;Times New Roman&quot;" size="13px" weight="400" font-style="" opacity="1" y="4.875" transform="rotate(0)"><tspan id="SvgjsTspan1128" dy="16" x="45"><tspan id="SvgjsTspan1129" style="text-decoration:;">Object</tspan></tspan></text></g></g><g id="SvgjsG1130" transform="translate(80.0044055451126,85.19586074561403)"><path id="SvgjsPath1131" d="M 0 4Q 0 0 4 0L 86 0Q 90 0 90 4L 90 26Q 90 30 86 30L 4 30Q 0 30 0 26Z" stroke="rgba(97,97,97,1)" stroke-width="1" fill-opacity="1" fill="#81a0aa"></path><g id="SvgjsG1132"><text id="SvgjsText1133" font-family="&quot;Times New Roman&quot;" text-anchor="middle" font-size="13px" width="70px" fill="#f6f3ee" font-weight="400" align="middle" lineHeight="125%" anchor="middle" family="&quot;Times New Roman&quot;" size="13px" weight="400" font-style="" opacity="1" y="4.875" transform="rotate(0)"><tspan id="SvgjsTspan1134" dy="16" x="45"><tspan id="SvgjsTspan1135" style="text-decoration:;">Key Result</tspan></tspan></text></g></g><g id="SvgjsG1136" transform="translate(260.0044055451126,85.19586074561403)"><path id="SvgjsPath1137" d="M 0 4Q 0 0 4 0L 86 0Q 90 0 90 4L 90 26Q 90 30 86 30L 4 30Q 0 30 0 26Z" stroke="rgba(97,97,97,1)" stroke-width="1" fill-opacity="1" fill="#81a0aa"></path><g id="SvgjsG1138"><text id="SvgjsText1139" font-family="&quot;Times New Roman&quot;" text-anchor="middle" font-size="13px" width="70px" fill="#f6f3ee" font-weight="400" align="middle" lineHeight="125%" anchor="middle" family="&quot;Times New Roman&quot;" size="13px" weight="400" font-style="" opacity="1" y="4.875" transform="rotate(0)"><tspan id="SvgjsTspan1140" dy="16" x="45"><tspan id="SvgjsTspan1141" style="text-decoration:;">Key Result</tspan></tspan></text></g></g><g id="SvgjsG1142" transform="translate(440.0044055451126,85.19586074561403)"><path id="SvgjsPath1143" d="M 0 4Q 0 0 4 0L 86 0Q 90 0 90 4L 90 26Q 90 30 86 30L 4 30Q 0 30 0 26Z" stroke="rgba(97,97,97,1)" stroke-width="1" fill-opacity="1" fill="#81a0aa"></path><g id="SvgjsG1144"><text id="SvgjsText1145" font-family="&quot;Times New Roman&quot;" text-anchor="middle" font-size="13px" width="70px" fill="#f6f3ee" font-weight="400" align="middle" lineHeight="125%" anchor="middle" family="&quot;Times New Roman&quot;" size="13px" weight="400" font-style="" opacity="1" y="4.875" transform="rotate(0)"><tspan id="SvgjsTspan1146" dy="16" x="45"><tspan id="SvgjsTspan1147" style="text-decoration:;">Key Result</tspan></tspan></text></g></g><g id="SvgjsG1148" transform="translate(385.0044055451126,139.19586074561403)"><path id="SvgjsPath1149" d="M 0 4Q 0 0 4 0L 86 0Q 90 0 90 4L 90 26Q 90 30 86 30L 4 30Q 0 30 0 26Z" stroke="rgba(97,97,97,1)" stroke-width="1" fill-opacity="1" fill="#f6f3ee"></path><g id="SvgjsG1150"><text id="SvgjsText1151" font-family="&quot;Times New Roman&quot;" text-anchor="middle" font-size="13px" width="70px" fill="#3d4b58" font-weight="400" align="middle" lineHeight="125%" anchor="middle" family="&quot;Times New Roman&quot;" size="13px" weight="400" font-style="" opacity="1" y="4.875" transform="rotate(0)"><tspan id="SvgjsTspan1152" dy="16" x="45"><tspan id="SvgjsTspan1153" style="text-decoration:;">Action</tspan></tspan></text></g></g><g id="SvgjsG1154" transform="translate(495.0044055451126,139.19586074561403)"><path id="SvgjsPath1155" d="M 0 4Q 0 0 4 0L 86 0Q 90 0 90 4L 90 26Q 90 30 86 30L 4 30Q 0 30 0 26Z" stroke="rgba(97,97,97,1)" stroke-width="1" fill-opacity="1" fill="#f6f3ee"></path><g id="SvgjsG1156"><text id="SvgjsText1157" font-family="&quot;Times New Roman&quot;" text-anchor="middle" font-size="13px" width="70px" fill="#3d4b58" font-weight="400" align="middle" lineHeight="125%" anchor="middle" family="&quot;Times New Roman&quot;" size="13px" weight="400" font-style="" opacity="1" y="4.875" transform="rotate(0)"><tspan id="SvgjsTspan1158" dy="16" x="45"><tspan id="SvgjsTspan1159" style="text-decoration:;">Action</tspan></tspan></text></g></g><g id="SvgjsG1160" transform="translate(170.0044055451126,85.19586074561403)"><path id="SvgjsPath1161" d="M 0 0L 90 0L 90 30L 0 30Z" stroke="none" fill="none"></path><g id="SvgjsG1162"><text id="SvgjsText1163" font-family="&quot;Times New Roman&quot;" text-anchor="middle" font-size="13px" width="90px" fill="#323232" font-weight="400" align="middle" lineHeight="125%" anchor="middle" family="&quot;Times New Roman&quot;" size="13px" weight="400" font-style="" opacity="1" y="4.875" transform="rotate(0)"><tspan id="SvgjsTspan1164" dy="16" x="45"><tspan id="SvgjsTspan1165" style="text-decoration:;">···</tspan></tspan></text></g></g><g id="SvgjsG1166" transform="translate(350.0044055451126,85.19586074561403)"><path id="SvgjsPath1167" d="M 0 0L 90 0L 90 30L 0 30Z" stroke="none" fill="none"></path><g id="SvgjsG1168"><text id="SvgjsText1169" font-family="&quot;Times New Roman&quot;" text-anchor="middle" font-size="13px" width="90px" fill="#323232" font-weight="400" align="middle" lineHeight="125%" anchor="middle" family="&quot;Times New Roman&quot;" size="13px" weight="400" font-style="" opacity="1" y="4.875" transform="rotate(0)"><tspan id="SvgjsTspan1170" dy="16" x="45"><tspan id="SvgjsTspan1171" style="text-decoration:;">···</tspan></tspan></text></g></g><g id="SvgjsG1172"><path id="SvgjsPath1173" d="M305.0044055451126 55.5028782894737L305.0044055451126 70.09936951754386L305.0044055451126 70.09936951754386L305.0044055451126 84.69586074561403" stroke="#323232" stroke-width="1" fill="none"></path></g><g id="SvgjsG1174"><path id="SvgjsPath1175" d="M304.5112945827608 55.085592126336024L125.49751650746441 85.1131469087517" stroke="#323232" stroke-width="1" fill="none"></path></g><g id="SvgjsG1176"><path id="SvgjsPath1177" d="M305.4975165074644 55.085592126336024L484.5112945827608 85.1131469087517" stroke="#323232" stroke-width="1" fill="none"></path></g><g id="SvgjsG1178"><path id="SvgjsPath1179" d="M484.5461358559278 115.39583297362194L430.4626752342974 138.99588851760612" stroke="#323232" stroke-width="1" fill="none"></path></g><g id="SvgjsG1180"><path id="SvgjsPath1181" d="M485.4626752342974 115.39583297362194L539.5461358559278 138.99588851760612" stroke="#323232" stroke-width="1" fill="none"></path></g><g id="SvgjsG1182" transform="translate(205.0044055451126,193.19586074561403)"><path id="SvgjsPath1183" d="M 0 4Q 0 0 4 0L 86 0Q 90 0 90 4L 90 26Q 90 30 86 30L 4 30Q 0 30 0 26Z" stroke="rgba(97,97,97,1)" stroke-width="1" fill-opacity="1" fill="#f6f3ee"></path><g id="SvgjsG1184"><text id="SvgjsText1185" font-family="&quot;Times New Roman&quot;" text-anchor="middle" font-size="13px" width="70px" fill="#3d4b58" font-weight="400" align="middle" lineHeight="125%" anchor="middle" family="&quot;Times New Roman&quot;" size="13px" weight="400" font-style="" opacity="1" y="4.875" transform="rotate(0)"><tspan id="SvgjsTspan1186" dy="16" x="45"><tspan id="SvgjsTspan1187" style="text-decoration:;">Action</tspan></tspan></text></g></g><g id="SvgjsG1188" transform="translate(315.0044055451126,193.19586074561403)"><path id="SvgjsPath1189" d="M 0 4Q 0 0 4 0L 86 0Q 90 0 90 4L 90 26Q 90 30 86 30L 4 30Q 0 30 0 26Z" stroke="rgba(97,97,97,1)" stroke-width="1" fill-opacity="1" fill="#f6f3ee"></path><g id="SvgjsG1190"><text id="SvgjsText1191" font-family="&quot;Times New Roman&quot;" text-anchor="middle" font-size="13px" width="70px" fill="#3d4b58" font-weight="400" align="middle" lineHeight="125%" anchor="middle" family="&quot;Times New Roman&quot;" size="13px" weight="400" font-style="" opacity="1" y="4.875" transform="rotate(0)"><tspan id="SvgjsTspan1192" dy="16" x="45"><tspan id="SvgjsTspan1193" style="text-decoration:;">Action</tspan></tspan></text></g></g><g id="SvgjsG1194" transform="translate(25.004405545112604,139.19586074561403)"><path id="SvgjsPath1195" d="M 0 4Q 0 0 4 0L 86 0Q 90 0 90 4L 90 26Q 90 30 86 30L 4 30Q 0 30 0 26Z" stroke="rgba(97,97,97,1)" stroke-width="1" fill-opacity="1" fill="#f6f3ee"></path><g id="SvgjsG1196"><text id="SvgjsText1197" font-family="&quot;Times New Roman&quot;" text-anchor="middle" font-size="13px" width="70px" fill="#3d4b58" font-weight="400" align="middle" lineHeight="125%" anchor="middle" family="&quot;Times New Roman&quot;" size="13px" weight="400" font-style="" opacity="1" y="4.875" transform="rotate(0)"><tspan id="SvgjsTspan1198" dy="16" x="45"><tspan id="SvgjsTspan1199" style="text-decoration:;">Action</tspan></tspan></text></g></g><g id="SvgjsG1200" transform="translate(135.0044055451126,139.19586074561403)"><path id="SvgjsPath1201" d="M 0 4Q 0 0 4 0L 86 0Q 90 0 90 4L 90 26Q 90 30 86 30L 4 30Q 0 30 0 26Z" stroke="rgba(97,97,97,1)" stroke-width="1" fill-opacity="1" fill="#f6f3ee"></path><g id="SvgjsG1202"><text id="SvgjsText1203" font-family="&quot;Times New Roman&quot;" text-anchor="middle" font-size="13px" width="70px" fill="#3d4b58" font-weight="400" align="middle" lineHeight="125%" anchor="middle" family="&quot;Times New Roman&quot;" size="13px" weight="400" font-style="" opacity="1" y="4.875" transform="rotate(0)"><tspan id="SvgjsTspan1204" dy="16" x="45"><tspan id="SvgjsTspan1205" style="text-decoration:;">Action</tspan></tspan></text></g></g><g id="SvgjsG1206"><path id="SvgjsPath1207" d="M124.54613585592779 115.39583297362194L70.46267523429742 138.99588851760612" stroke="#323232" stroke-width="1" fill="none"></path></g><g id="SvgjsG1208"><path id="SvgjsPath1209" d="M125.46267523429742 115.39583297362194L179.5461358559278 138.99588851760612" stroke="#323232" stroke-width="1" fill="none"></path></g><g id="SvgjsG1210"><path id="SvgjsPath1211" d="M304.71626966457785 115.60448981255425L250.29254142564736 192.7872316786738" stroke="#323232" stroke-width="1" fill="none"></path></g><g id="SvgjsG1212"><path id="SvgjsPath1213" d="M305.29254142564736 115.60448981255425L359.71626966457785 192.7872316786738" stroke="#323232" stroke-width="1" fill="none"></path></g><g id="SvgjsG1214" transform="translate(555.0044055451126,25.0028782894737)"><path id="SvgjsPath1215" d="M 0 0L 70 0L 70 30L 0 30Z" stroke="none" fill="none"></path><g id="SvgjsG1216"><text id="SvgjsText1217" font-family="&quot;Times New Roman&quot;" text-anchor="middle" font-size="13px" width="70px" fill="#688f4e" font-weight="400" align="middle" lineHeight="125%" anchor="middle" family="&quot;Times New Roman&quot;" size="13px" weight="400" font-style="" opacity="1" y="4.875" transform="rotate(0)"><tspan id="SvgjsTspan1218" dy="16" x="35"><tspan id="SvgjsTspan1219" style="text-decoration:;">大目标</tspan></tspan></text></g></g><g id="SvgjsG1220"><path id="SvgjsPath1221" d="M350.5044055451126 40.0028782894737L554.0044055451126 40.0028782894737" stroke-dasharray="8,5" stroke="#688f4e" stroke-width="1" fill="none"></path></g><g id="SvgjsG1222" transform="translate(555.0044055451126,85.19586074561403)"><path id="SvgjsPath1223" d="M 0 0L 70 0L 70 30L 0 30Z" stroke="none" fill="none"></path><g id="SvgjsG1224"><text id="SvgjsText1225" font-family="&quot;Times New Roman&quot;" text-anchor="middle" font-size="13px" width="70px" fill="#688f4e" font-weight="400" align="middle" lineHeight="125%" anchor="middle" family="&quot;Times New Roman&quot;" size="13px" weight="400" font-style="" opacity="1" y="4.875" transform="rotate(0)"><tspan id="SvgjsTspan1226" dy="16" x="35"><tspan id="SvgjsTspan1227" style="text-decoration:;">关键结果</tspan></tspan></text></g></g><g id="SvgjsG1228"><path id="SvgjsPath1229" d="M530.5044055451126 100.19586074561403L554.0044055451126 100.19586074561403" stroke-dasharray="8,5" stroke="#688f4e" stroke-width="1" fill="none"></path></g><g id="SvgjsG1230" transform="translate(555.0044055451126,193.19586074561403)"><path id="SvgjsPath1231" d="M 0 0L 70 0L 70 30L 0 30Z" stroke="none" fill="none"></path><g id="SvgjsG1232"><text id="SvgjsText1233" font-family="&quot;Times New Roman&quot;" text-anchor="middle" font-size="13px" width="70px" fill="#688f4e" font-weight="400" align="middle" lineHeight="125%" anchor="middle" family="&quot;Times New Roman&quot;" size="13px" weight="400" font-style="" opacity="1" y="4.875" transform="rotate(0)"><tspan id="SvgjsTspan1234" dy="16" x="35"><tspan id="SvgjsTspan1235" style="text-decoration:;">具体行动</tspan></tspan></text></g></g><g id="SvgjsG1236"><path id="SvgjsPath1237" d="M405.5044055451126 208.19586074561403L554.0044055451126 208.19586074561403" stroke-dasharray="8,5" stroke="#688f4e" stroke-width="1" fill="none"></path></g></svg>