<svg id="SvgjsSvg1006" width="412" height="225.1953125" xmlns="http://www.w3.org/2000/svg" version="1.1" xmlns:xlink="http://www.w3.org/1999/xlink" xmlns:svgjs="http://svgjs.com/svgjs"><defs id="SvgjsDefs1007"><marker id="SvgjsMarker1028" markerWidth="12" markerHeight="8" refX="9" refY="4" viewBox="0 0 12 8" orient="auto" markerUnits="userSpaceOnUse" stroke-dasharray="0,0"><path id="SvgjsPath1029" d="M0,0 L12,4 L0,8 L0,0" fill="#323232" stroke="#323232" stroke-width="1"></path></marker><marker id="SvgjsMarker1042" markerWidth="12" markerHeight="8" refX="9" refY="4" viewBox="0 0 12 8" orient="auto" markerUnits="userSpaceOnUse" stroke-dasharray="0,0"><path id="SvgjsPath1043" d="M0,0 L12,4 L0,8 L0,0" fill="#323232" stroke="#323232" stroke-width="1"></path></marker></defs><g id="SvgjsG1008" transform="translate(177.0044055451126,25.0028782894737)"><path id="SvgjsPath1009" d="M 0 4Q 0 0 4 0L 206 0Q 210 0 210 4L 210 26Q 210 30 206 30L 4 30Q 0 30 0 26Z" stroke="rgba(97,97,97,1)" stroke-width="1" fill-opacity="1" fill="#f6f3ee"></path><g id="SvgjsG1010"><text id="SvgjsText1011" font-family="微软雅黑" text-anchor="middle" font-size="13px" width="190px" fill="#3d4b58" font-weight="400" align="middle" lineHeight="125%" anchor="middle" family="微软雅黑" size="13px" weight="400" font-style="" opacity="1" y="4.875" transform="rotate(0)"><tspan id="SvgjsTspan1012" dy="16" x="105"><tspan id="SvgjsTspan1013" style="text-decoration:;">设立大目标，建立全局观</tspan></tspan></text></g></g><g id="SvgjsG1014" transform="translate(25.004405545112604,25.0028782894737)"><path id="SvgjsPath1015" d="M 0 4Q 0 0 4 0L 86 0Q 90 0 90 4L 90 26Q 90 30 86 30L 4 30Q 0 30 0 26Z" stroke="rgba(97,97,97,1)" stroke-width="1" fill-opacity="1" fill="#81a0aa"></path><g id="SvgjsG1016"><text id="SvgjsText1017" font-family="微软雅黑" text-anchor="middle" font-size="13px" width="70px" fill="#f6f3ee" font-weight="400" align="middle" lineHeight="125%" anchor="middle" family="微软雅黑" size="13px" weight="400" font-style="" opacity="1" y="4.875" transform="rotate(0)"><tspan id="SvgjsTspan1018" dy="16" x="45"><tspan id="SvgjsTspan1019" style="text-decoration:;">知</tspan></tspan></text></g></g><g id="SvgjsG1020" transform="translate(25.004405545112604,170.19586074561403)"><path id="SvgjsPath1021" d="M 0 4Q 0 0 4 0L 86 0Q 90 0 90 4L 90 26Q 90 30 86 30L 4 30Q 0 30 0 26Z" stroke="rgba(97,97,97,1)" stroke-width="1" fill-opacity="1" fill="#81a0aa"></path><g id="SvgjsG1022"><text id="SvgjsText1023" font-family="微软雅黑" text-anchor="middle" font-size="13px" width="70px" fill="#f6f3ee" font-weight="400" align="middle" lineHeight="125%" anchor="middle" family="微软雅黑" size="13px" weight="400" font-style="" opacity="1" y="4.875" transform="rotate(0)"><tspan id="SvgjsTspan1024" dy="16" x="45"><tspan id="SvgjsTspan1025" style="text-decoration:;">行</tspan></tspan></text></g></g><g id="SvgjsG1026"><path id="SvgjsPath1027" d="M70.0044055451126 55.5028782894737L70.0044055451126 112.59936951754389L70.0044055451126 112.59936951754389L70.0044055451126 168.39586074561402" stroke="#323232" stroke-width="1" fill="none" marker-end="url(#SvgjsMarker1028)"></path></g><g id="SvgjsG1030" transform="translate(177.0044055451126,110.19586074561403)"><path id="SvgjsPath1031" d="M 0 4Q 0 0 4 0L 206 0Q 210 0 210 4L 210 86Q 210 90 206 90L 4 90Q 0 90 0 86Z" stroke="rgba(97,97,97,1)" stroke-width="1" fill-opacity="1" fill="#f6f3ee"></path><g id="SvgjsG1032"><text id="SvgjsText1033" font-family="微软雅黑" text-anchor="middle" font-size="13px" width="190px" fill="#3d4b58" font-weight="400" align="middle" lineHeight="150%" anchor="middle" family="微软雅黑" size="13px" weight="400" font-style="" opacity="1" y="12.25" transform="rotate(0)"><tspan id="SvgjsTspan1034" dy="19" x="105"><tspan id="SvgjsTspan1035" style="text-decoration:;">1) Calender：一月内做什么</tspan></tspan><tspan id="SvgjsTspan1036" dy="19" x="105"><tspan id="SvgjsTspan1037" style="text-decoration:;">2) Todo List：一周内做什么</tspan></tspan><tspan id="SvgjsTspan1038" dy="19" x="105"><tspan id="SvgjsTspan1039" style="text-decoration:;">3) Schedule：一天内做什么</tspan></tspan></text></g></g><g id="SvgjsG1040"><path id="SvgjsPath1041" d="M282.0044055451126 55.5028782894737L282.0044055451126 82.59936951754389L282.0044055451126 82.59936951754389L282.0044055451126 108.39586074561402" stroke="#323232" stroke-width="1" fill="none" marker-end="url(#SvgjsMarker1042)"></path></g></svg>