<svg id="SvgjsSvg1006" width="470" height="180.90625" xmlns="http://www.w3.org/2000/svg" version="1.1" xmlns:xlink="http://www.w3.org/1999/xlink" xmlns:svgjs="http://svgjs.com/svgjs"><defs id="SvgjsDefs1007"><marker id="SvgjsMarker1022" markerWidth="12" markerHeight="8" refX="9" refY="4" viewBox="0 0 12 8" orient="auto" markerUnits="userSpaceOnUse" stroke-dasharray="0,0"><path id="SvgjsPath1023" d="M0,0 L12,4 L0,8 L0,0" fill="#323232" stroke="#323232" stroke-width="1"></path></marker><marker id="SvgjsMarker1026" markerWidth="12" markerHeight="8" refX="9" refY="4" viewBox="0 0 12 8" orient="auto" markerUnits="userSpaceOnUse" stroke-dasharray="0,0"><path id="SvgjsPath1027" d="M0,0 L12,4 L0,8 L0,0" fill="#323232" stroke="#323232" stroke-width="1"></path></marker></defs><g id="SvgjsG1008" transform="translate(25.00246710526301,95.40789473684231)"><path id="SvgjsPath1009" d="M 0 4Q 0 0 4 0L 116 0Q 120 0 120 4L 120 26Q 120 30 116 30L 4 30Q 0 30 0 26Z" stroke="rgba(97,97,97,1)" stroke-width="1" fill-opacity="1" fill="#f6f3ee"></path><g id="SvgjsG1010"><text id="SvgjsText1011" font-family="微软雅黑" text-anchor="middle" font-size="13px" width="100px" fill="#3d4b58" font-weight="400" align="middle" lineHeight="125%" anchor="middle" family="微软雅黑" size="13px" weight="400" font-style="" opacity="1" y="4.375" transform="rotate(0)"><tspan id="SvgjsTspan1012" dy="16" x="60"><tspan id="SvgjsTspan1013" style="text-decoration:;">静态文明</tspan></tspan></text></g></g><g id="SvgjsG1014" transform="translate(325.002467105263,95.40789473684231)"><path id="SvgjsPath1015" d="M 0 4Q 0 0 4 0L 116 0Q 120 0 120 4L 120 26Q 120 30 116 30L 4 30Q 0 30 0 26Z" stroke="rgba(97,97,97,1)" stroke-width="1" fill-opacity="1" fill="#f6f3ee"></path><g id="SvgjsG1016"><text id="SvgjsText1017" font-family="微软雅黑" text-anchor="middle" font-size="13px" width="100px" fill="#3d4b58" font-weight="400" align="middle" lineHeight="125%" anchor="middle" family="微软雅黑" size="13px" weight="400" font-style="" opacity="1" y="4.375" transform="rotate(0)"><tspan id="SvgjsTspan1018" dy="16" x="60"><tspan id="SvgjsTspan1019" style="text-decoration:;">动态文明</tspan></tspan></text></g></g><g id="SvgjsG1020"><path id="SvgjsPath1021" d="M85.00246710526301 94.90789473684231L85.00246710526301 65.40789473684231L385.002467105263 65.40789473684231L385.002467105263 93.6078947368423" stroke="#323232" stroke-width="1" fill="none" marker-end="url(#SvgjsMarker1022)"></path></g><g id="SvgjsG1024"><path id="SvgjsPath1025" d="M385.002467105263 125.90789473684231L385.002467105263 155.4078947368423L85.00246710526301 155.4078947368423L85.00246710526301 127.20789473684232" stroke="#323232" stroke-width="1" fill="none" marker-end="url(#SvgjsMarker1026)"></path></g><g id="SvgjsG1028" transform="translate(175.265625,25)"><path id="SvgjsPath1029" d="M 0 0L 120 0L 120 40L 0 40Z" stroke="none" fill="none"></path><g id="SvgjsG1030"><text id="SvgjsText1031" font-family="微软雅黑" text-anchor="middle" font-size="13px" width="120px" fill="#323232" font-weight="400" align="middle" lineHeight="125%" anchor="middle" family="微软雅黑" size="13px" weight="400" font-style="" opacity="1" y="9.375" transform="rotate(0)"><tspan id="SvgjsTspan1032" dy="16" x="60"><tspan id="SvgjsTspan1033" style="text-decoration:;">适度压力模型</tspan></tspan></text></g></g><g id="SvgjsG1034" transform="translate(175.002467105263,90.40789473684231)"><path id="SvgjsPath1035" d="M 0 0L 120 0L 120 40L 0 40Z" stroke="none" fill="none"></path><g id="SvgjsG1036"><text id="SvgjsText1037" font-family="微软雅黑" text-anchor="middle" font-size="13px" width="120px" fill="#d32f2f" font-weight="400" align="middle" lineHeight="125%" anchor="middle" family="微软雅黑" size="13px" weight="400" font-style="" opacity="1" y="9.375" transform="rotate(0)"><tspan id="SvgjsTspan1038" dy="16" x="60"><tspan id="SvgjsTspan1039" style="text-decoration:;">文明对峙</tspan></tspan></text></g></g></svg>