<svg id="SvgjsSvg1006" width="270" height="245.5546875" xmlns="http://www.w3.org/2000/svg" version="1.1" xmlns:xlink="http://www.w3.org/1999/xlink" xmlns:svgjs="http://svgjs.com/svgjs"><defs id="SvgjsDefs1007"></defs><g id="SvgjsG1008" transform="translate(25,195.5583993212678)"><path id="SvgjsPath1009" d="M 0 0L 220 0L 220 25L 0 25Z" stroke="none" fill="none"></path><g id="SvgjsG1010"><text id="SvgjsText1011" font-family="&quot;Times New Roman&quot;" text-anchor="middle" font-size="13px" width="220px" fill="#616161" font-weight="400" align="middle" lineHeight="125%" anchor="middle" family="&quot;Times New Roman&quot;" size="13px" weight="400" font-style="" opacity="1" y="1.875" transform="rotate(0)"><tspan id="SvgjsTspan1012" dy="16" x="110"><tspan id="SvgjsTspan1013" style="text-decoration:;">I(X;Y) = H(X, Y)</tspan></tspan></text></g></g><g id="SvgjsG1014" transform="translate(25,66.03125)"><path id="SvgjsPath1015" d="M 0 4Q 0 0 4 0L 216 0Q 220 0 220 4L 220 106Q 220 110 216 110L 4 110Q 0 110 0 106Z" stroke="rgba(97,97,97,1)" stroke-width="1" fill-opacity="1" fill="#ffffff"></path><g id="SvgjsG1016"><text id="SvgjsText1017" font-family="微软雅黑" text-anchor="middle" font-size="16px" width="200px" fill="#3d4b58" font-weight="400" align="middle" lineHeight="125%" anchor="middle" family="微软雅黑" size="16px" weight="400" font-style="" opacity="1" y="41" transform="rotate(0)"></text></g></g><g id="SvgjsG1018" transform="translate(61.5,82.78125)"><path id="SvgjsPath1019" d="M 0 40C 0 -13.333333333333334 80 -13.333333333333334 80 40C 80 93.33333333333333 0 93.33333333333333 0 40Z" stroke="rgba(97,97,97,1)" stroke-width="1" fill-opacity="1" fill="#f6f3ee"></path><g id="SvgjsG1020"><text id="SvgjsText1021" font-family="&quot;Times New Roman&quot;" text-anchor="middle" font-size="15px" width="60px" fill="#3d4b58" font-weight="400" align="middle" lineHeight="125%" anchor="middle" family="&quot;Times New Roman&quot;" size="15px" weight="400" font-style="" opacity="1" y="27.625" transform="rotate(0)"><tspan id="SvgjsTspan1022" dy="18" x="40"><tspan id="SvgjsTspan1023" style="text-decoration:;">X</tspan></tspan></text></g></g><g id="SvgjsG1024" transform="translate(128.5,82.78125)"><path id="SvgjsPath1025" d="M 0 40C 0 -13.333333333333334 80 -13.333333333333334 80 40C 80 93.33333333333333 0 93.33333333333333 0 40Z" stroke="rgba(97,97,97,0.9)" stroke-width="1" fill-opacity="0.9" fill="#81a0aa"></path><g id="SvgjsG1026"><text id="SvgjsText1027" font-family="&quot;Times New Roman&quot;" text-anchor="middle" font-size="15px" width="60px" fill="#f6f3ee" font-weight="400" align="middle" lineHeight="125%" anchor="middle" family="&quot;Times New Roman&quot;" size="15px" weight="400" font-style="" opacity="0.9" y="27.625" transform="rotate(0)"><tspan id="SvgjsTspan1028" dy="18" x="40"><tspan id="SvgjsTspan1029" style="text-decoration:;">Y</tspan></tspan></text></g></g><g id="SvgjsG1030"><path id="SvgjsPath1031" d="M135.6764705882353 194.5583993212678L135.6764705882353 161.40511877828095L135.6764705882353 161.40511877828095L135.6764705882353 127.25183823529412" stroke-dasharray="8,5" stroke="#688f4e" stroke-width="1" fill="none"></path></g><g id="SvgjsG1032" transform="translate(25.000000000000057,67.55839932126779)"><path id="SvgjsPath1033" d="M 0 0L 60 0L 60 25L 0 25Z" stroke="none" fill="none"></path><g id="SvgjsG1034"><text id="SvgjsText1035" font-family="&quot;Times New Roman&quot;" text-anchor="middle" font-size="13px" width="60px" fill="#616161" font-weight="400" align="middle" lineHeight="125%" anchor="middle" family="&quot;Times New Roman&quot;" size="13px" weight="400" font-style="" opacity="1" y="1.875" transform="rotate(0)"><tspan id="SvgjsTspan1036" dy="16" x="30"><tspan id="SvgjsTspan1037" style="text-decoration:;">H(X)</tspan></tspan></text></g></g><g id="SvgjsG1038" transform="translate(185,67.55839932126781)"><path id="SvgjsPath1039" d="M 0 0L 60 0L 60 25L 0 25Z" stroke="none" fill="none"></path><g id="SvgjsG1040"><text id="SvgjsText1041" font-family="&quot;Times New Roman&quot;" text-anchor="middle" font-size="13px" width="60px" fill="#616161" font-weight="400" align="middle" lineHeight="125%" anchor="middle" family="&quot;Times New Roman&quot;" size="13px" weight="400" font-style="" opacity="1" y="1.875" transform="rotate(0)"><tspan id="SvgjsTspan1042" dy="16" x="30"><tspan id="SvgjsTspan1043" style="text-decoration:;">H(Y)</tspan></tspan></text></g></g><g id="SvgjsG1044" transform="translate(25.000000000000057,25.004100678732257)"><path id="SvgjsPath1045" d="M 0 0L 220 0L 220 25L 0 25Z" stroke="none" fill="none"></path><g id="SvgjsG1046"><text id="SvgjsText1047" font-family="&quot;Times New Roman&quot;" text-anchor="middle" font-size="13px" width="220px" fill="#616161" font-weight="400" align="middle" lineHeight="125%" anchor="middle" family="&quot;Times New Roman&quot;" size="13px" weight="400" font-style="" opacity="1" y="1.875" transform="rotate(0)"><tspan id="SvgjsTspan1048" dy="16" x="110"><tspan id="SvgjsTspan1049" style="text-decoration:;">X= 信春哥, Y = 不挂科</tspan></tspan></text></g></g></svg>