<svg id="SvgjsSvg1006" width="462" height="308.890625" xmlns="http://www.w3.org/2000/svg" version="1.1" xmlns:xlink="http://www.w3.org/1999/xlink" xmlns:svgjs="http://svgjs.com/svgjs"><defs id="SvgjsDefs1007"><marker id="SvgjsMarker1018" markerWidth="12" markerHeight="8" refX="9" refY="4" viewBox="0 0 12 8" orient="auto" markerUnits="userSpaceOnUse" stroke-dasharray="0,0"><path id="SvgjsPath1019" d="M0,0 L12,4 L0,8 L0,0" fill="#616161" stroke="#616161" stroke-width="1"></path></marker><marker id="SvgjsMarker1030" markerWidth="12" markerHeight="8" refX="9" refY="4" viewBox="0 0 12 8" orient="auto" markerUnits="userSpaceOnUse" stroke-dasharray="0,0"><path id="SvgjsPath1031" d="M0,0 L12,4 L0,8 L0,0" fill="#616161" stroke="#616161" stroke-width="1"></path></marker><marker id="SvgjsMarker1042" markerWidth="12" markerHeight="8" refX="9" refY="4" viewBox="0 0 12 8" orient="auto" markerUnits="userSpaceOnUse" stroke-dasharray="0,0"><path id="SvgjsPath1043" d="M0,0 L12,4 L0,8 L0,0" fill="#616161" stroke="#616161" stroke-width="1"></path></marker><marker id="SvgjsMarker1054" markerWidth="12" markerHeight="8" refX="9" refY="4" viewBox="0 0 12 8" orient="auto" markerUnits="userSpaceOnUse" stroke-dasharray="0,0"><path id="SvgjsPath1055" d="M0,0 L12,4 L0,8 L0,0" fill="#616161" stroke="#616161" stroke-width="1"></path></marker><marker id="SvgjsMarker1066" markerWidth="12" markerHeight="8" refX="9" refY="4" viewBox="0 0 12 8" orient="auto" markerUnits="userSpaceOnUse" stroke-dasharray="0,0"><path id="SvgjsPath1067" d="M0,0 L12,4 L0,8 L0,0" fill="#616161" stroke="#616161" stroke-width="1"></path></marker><marker id="SvgjsMarker1078" markerWidth="12" markerHeight="8" refX="9" refY="4" viewBox="0 0 12 8" orient="auto" markerUnits="userSpaceOnUse" stroke-dasharray="0,0"><path id="SvgjsPath1079" d="M0,0 L12,4 L0,8 L0,0" fill="#616161" stroke="#616161" stroke-width="1"></path></marker><marker id="SvgjsMarker1090" markerWidth="12" markerHeight="8" refX="9" refY="4" viewBox="0 0 12 8" orient="auto" markerUnits="userSpaceOnUse" stroke-dasharray="0,0"><path id="SvgjsPath1091" d="M0,0 L12,4 L0,8 L0,0" fill="#616161" stroke="#616161" stroke-width="1"></path></marker><marker id="SvgjsMarker1102" markerWidth="12" markerHeight="8" refX="9" refY="4" viewBox="0 0 12 8" orient="auto" markerUnits="userSpaceOnUse" stroke-dasharray="0,0"><path id="SvgjsPath1103" d="M0,0 L12,4 L0,8 L0,0" fill="#616161" stroke="#616161" stroke-width="1"></path></marker></defs><g id="SvgjsG1008" transform="translate(25.003806089743648,25.003063725491103)"><path id="SvgjsPath1009" d="M 0 45C 0 -15 90 -15 90 45C 90 105 0 105 0 45Z" stroke="rgba(97,97,97,1)" stroke-width="1" fill-opacity="1" fill="#ffffff"></path><g id="SvgjsG1010"><text id="SvgjsText1011" font-family="微软雅黑" text-anchor="middle" font-size="13px" width="70px" fill="#f6f3ee" font-weight="400" align="middle" lineHeight="125%" anchor="middle" family="微软雅黑" size="13px" weight="400" font-style="" opacity="1" y="34.375" transform="rotate(0)"></text></g></g><g id="SvgjsG1012" transform="translate(60.00380608974302,60.43087121212065)"><path id="SvgjsPath1013" d="M 0 10C 0 -3.3333333333333335 20 -3.3333333333333335 20 10C 20 23.333333333333332 0 23.333333333333332 0 10Z" stroke="rgba(97,97,97,1)" stroke-width="1" fill-opacity="1" fill="#81a0aa"></path><g id="SvgjsG1014"><text id="SvgjsText1015" font-family="微软雅黑" text-anchor="middle" font-size="13px" width="0px" fill="#f6f3ee" font-weight="400" align="middle" lineHeight="125%" anchor="middle" family="微软雅黑" size="13px" weight="400" font-style="" opacity="1" y="-0.625" transform="rotate(0)"></text></g></g><g id="SvgjsG1016"><path id="SvgjsPath1017" d="M70.00380608974302 59.93087121212065L70.00380608974302 46.48390151515122L70.00380608974302 46.48390151515122L70.00380608974302 32.53693181818181" stroke="#616161" stroke-width="1" fill="none" marker-end="url(#SvgjsMarker1018)"></path></g><g id="SvgjsG1020" transform="translate(132.33713942307674,25.003063725491103)"><path id="SvgjsPath1021" d="M 0 45C 0 -15 90 -15 90 45C 90 105 0 105 0 45Z" stroke="rgba(97,97,97,1)" stroke-width="1" fill-opacity="1" fill="#ffffff"></path><g id="SvgjsG1022"><text id="SvgjsText1023" font-family="微软雅黑" text-anchor="middle" font-size="13px" width="70px" fill="#f6f3ee" font-weight="400" align="middle" lineHeight="125%" anchor="middle" family="微软雅黑" size="13px" weight="400" font-style="" opacity="1" y="34.375" transform="rotate(0)"></text></g></g><g id="SvgjsG1024" transform="translate(167.3371394230769,60.43087121212062)"><path id="SvgjsPath1025" d="M 0 10C 0 -3.3333333333333335 20 -3.3333333333333335 20 10C 20 23.333333333333332 0 23.333333333333332 0 10Z" stroke="rgba(97,97,97,1)" stroke-width="1" fill-opacity="1" fill="#81a0aa"></path><g id="SvgjsG1026"><text id="SvgjsText1027" font-family="微软雅黑" text-anchor="middle" font-size="13px" width="0px" fill="#f6f3ee" font-weight="400" align="middle" lineHeight="125%" anchor="middle" family="微软雅黑" size="13px" weight="400" font-style="" opacity="1" y="-0.625" transform="rotate(0)"></text></g></g><g id="SvgjsG1028"><path id="SvgjsPath1029" d="M184.2905779592918 62.7611158303761L204.64016972610682 41.62784090909088" stroke="#616161" stroke-width="1" fill="none" marker-end="url(#SvgjsMarker1030)"></path></g><g id="SvgjsG1032" transform="translate(239.67047275640982,25.003063725491103)"><path id="SvgjsPath1033" d="M 0 45C 0 -15 90 -15 90 45C 90 105 0 105 0 45Z" stroke="rgba(97,97,97,1)" stroke-width="1" fill-opacity="1" fill="#ffffff"></path><g id="SvgjsG1034"><text id="SvgjsText1035" font-family="微软雅黑" text-anchor="middle" font-size="13px" width="70px" fill="#f6f3ee" font-weight="400" align="middle" lineHeight="125%" anchor="middle" family="微软雅黑" size="13px" weight="400" font-style="" opacity="1" y="34.375" transform="rotate(0)"></text></g></g><g id="SvgjsG1036" transform="translate(274.67047275641005,60.430871212120564)"><path id="SvgjsPath1037" d="M 0 10C 0 -3.3333333333333335 20 -3.3333333333333335 20 10C 20 23.333333333333332 0 23.333333333333332 0 10Z" stroke="rgba(97,97,97,1)" stroke-width="1" fill-opacity="1" fill="#81a0aa"></path><g id="SvgjsG1038"><text id="SvgjsText1039" font-family="微软雅黑" text-anchor="middle" font-size="13px" width="0px" fill="#f6f3ee" font-weight="400" align="middle" lineHeight="125%" anchor="middle" family="微软雅黑" size="13px" weight="400" font-style="" opacity="1" y="-0.625" transform="rotate(0)"></text></g></g><g id="SvgjsG1040"><path id="SvgjsPath1041" d="M295.17047275641005 70.43087121212056L321.0038060897432 70.43087121212056" stroke="#616161" stroke-width="1" fill="none" marker-end="url(#SvgjsMarker1042)"></path></g><g id="SvgjsG1044" transform="translate(347.00380608974297,25.003063725491103)"><path id="SvgjsPath1045" d="M 0 45C 0 -15 90 -15 90 45C 90 105 0 105 0 45Z" stroke="rgba(97,97,97,1)" stroke-width="1" fill-opacity="1" fill="#ffffff"></path><g id="SvgjsG1046"><text id="SvgjsText1047" font-family="微软雅黑" text-anchor="middle" font-size="13px" width="70px" fill="#f6f3ee" font-weight="400" align="middle" lineHeight="125%" anchor="middle" family="微软雅黑" size="13px" weight="400" font-style="" opacity="1" y="34.375" transform="rotate(0)"></text></g></g><g id="SvgjsG1048" transform="translate(382.0038060897432,60.430871212120564)"><path id="SvgjsPath1049" d="M 0 10C 0 -3.3333333333333335 20 -3.3333333333333335 20 10C 20 23.333333333333332 0 23.333333333333332 0 10Z" stroke="rgba(97,97,97,1)" stroke-width="1" fill-opacity="1" fill="#81a0aa"></path><g id="SvgjsG1050"><text id="SvgjsText1051" font-family="微软雅黑" text-anchor="middle" font-size="13px" width="0px" fill="#f6f3ee" font-weight="400" align="middle" lineHeight="125%" anchor="middle" family="微软雅黑" size="13px" weight="400" font-style="" opacity="1" y="-0.625" transform="rotate(0)"></text></g></g><g id="SvgjsG1052"><path id="SvgjsPath1053" d="M399.0737539575797 78.10025816226658L416.6288060897432 96.34375" stroke="#616161" stroke-width="1" fill="none" marker-end="url(#SvgjsMarker1054)"></path></g><g id="SvgjsG1056" transform="translate(25.003806089743648,139.61844834087577)"><path id="SvgjsPath1057" d="M 0 45C 0 -15 90 -15 90 45C 90 105 0 105 0 45Z" stroke-dasharray="10,6" stroke="rgba(224,224,224,1)" stroke-width="1" fill="none"></path><g id="SvgjsG1058"><text id="SvgjsText1059" font-family="微软雅黑" text-anchor="middle" font-size="13px" width="70px" fill="#f6f3ee" font-weight="400" align="middle" lineHeight="125%" anchor="middle" family="微软雅黑" size="13px" weight="400" font-style="" opacity="1" y="34.375" transform="rotate(0)"></text></g></g><g id="SvgjsG1060" transform="translate(60.00380608974302,175.04625582750532)"><path id="SvgjsPath1061" d="M 0 10C 0 -3.3333333333333335 20 -3.3333333333333335 20 10C 20 23.333333333333332 0 23.333333333333332 0 10Z" stroke-dasharray="10,6" stroke="rgba(224,224,224,1)" stroke-width="1" fill="none"></path><g id="SvgjsG1062"><text id="SvgjsText1063" font-family="微软雅黑" text-anchor="middle" font-size="13px" width="0px" fill="#f6f3ee" font-weight="400" align="middle" lineHeight="125%" anchor="middle" family="微软雅黑" size="13px" weight="400" font-style="" opacity="1" y="-0.625" transform="rotate(0)"></text></g></g><g id="SvgjsG1064"><path id="SvgjsPath1065" d="M70.00380608974302 174.54625582750532L70.00380608974302 161.09928613053592L70.00380608974302 161.09928613053592L70.00380608974302 147.1523164335665" stroke="#616161" stroke-width="1" fill="none" marker-end="url(#SvgjsMarker1066)"></path></g><g id="SvgjsG1068" transform="translate(132.3371394230768,139.61844834087577)"><path id="SvgjsPath1069" d="M 0 45C 0 -15 90 -15 90 45C 90 105 0 105 0 45Z" stroke-dasharray="10,6" stroke="rgba(224,224,224,1)" stroke-width="1" fill="none"></path><g id="SvgjsG1070"><text id="SvgjsText1071" font-family="微软雅黑" text-anchor="middle" font-size="13px" width="70px" fill="#f6f3ee" font-weight="400" align="middle" lineHeight="125%" anchor="middle" family="微软雅黑" size="13px" weight="400" font-style="" opacity="1" y="34.375" transform="rotate(0)"></text></g></g><g id="SvgjsG1072" transform="translate(167.33713942307747,175.04625582750526)"><path id="SvgjsPath1073" d="M 0 10C 0 -3.3333333333333335 20 -3.3333333333333335 20 10C 20 23.333333333333332 0 23.333333333333332 0 10Z" stroke-dasharray="10,6" stroke="rgba(224,224,224,1)" stroke-width="1" fill="none"></path><g id="SvgjsG1074"><text id="SvgjsText1075" font-family="微软雅黑" text-anchor="middle" font-size="13px" width="0px" fill="#f6f3ee" font-weight="400" align="middle" lineHeight="125%" anchor="middle" family="微软雅黑" size="13px" weight="400" font-style="" opacity="1" y="-0.625" transform="rotate(0)"></text></g></g><g id="SvgjsG1076"><path id="SvgjsPath1077" d="M184.29057795929236 177.37650044576077L204.6401697261074 156.24322552447558" stroke="#616161" stroke-width="1" fill="none" marker-end="url(#SvgjsMarker1078)"></path></g><g id="SvgjsG1080" transform="translate(239.6704727564104,139.61844834087577)"><path id="SvgjsPath1081" d="M 0 45C 0 -15 90 -15 90 45C 90 105 0 105 0 45Z" stroke-dasharray="10,6" stroke="rgba(224,224,224,1)" stroke-width="1" fill="none"></path><g id="SvgjsG1082"><text id="SvgjsText1083" font-family="微软雅黑" text-anchor="middle" font-size="13px" width="70px" fill="#f6f3ee" font-weight="400" align="middle" lineHeight="125%" anchor="middle" family="微软雅黑" size="13px" weight="400" font-style="" opacity="1" y="34.375" transform="rotate(0)"></text></g></g><g id="SvgjsG1084" transform="translate(274.6704727564106,175.0462558275052)"><path id="SvgjsPath1085" d="M 0 10C 0 -3.3333333333333335 20 -3.3333333333333335 20 10C 20 23.333333333333332 0 23.333333333333332 0 10Z" stroke-dasharray="10,6" stroke="rgba(224,224,224,1)" stroke-width="1" fill="none"></path><g id="SvgjsG1086"><text id="SvgjsText1087" font-family="微软雅黑" text-anchor="middle" font-size="13px" width="0px" fill="#f6f3ee" font-weight="400" align="middle" lineHeight="125%" anchor="middle" family="微软雅黑" size="13px" weight="400" font-style="" opacity="1" y="-0.625" transform="rotate(0)"></text></g></g><g id="SvgjsG1088"><path id="SvgjsPath1089" d="M295.1704727564106 185.0462558275052L321.00380608974376 185.0462558275052" stroke="#616161" stroke-width="1" fill="none" marker-end="url(#SvgjsMarker1090)"></path></g><g id="SvgjsG1092" transform="translate(347.00380608974353,139.61844834087577)"><path id="SvgjsPath1093" d="M 0 45C 0 -15 90 -15 90 45C 90 105 0 105 0 45Z" stroke-dasharray="10,6" stroke="rgba(224,224,224,1)" stroke-width="1" fill="none"></path><g id="SvgjsG1094"><text id="SvgjsText1095" font-family="微软雅黑" text-anchor="middle" font-size="13px" width="70px" fill="#f6f3ee" font-weight="400" align="middle" lineHeight="125%" anchor="middle" family="微软雅黑" size="13px" weight="400" font-style="" opacity="1" y="34.375" transform="rotate(0)"></text></g></g><g id="SvgjsG1096" transform="translate(382.00380608974376,175.0462558275052)"><path id="SvgjsPath1097" d="M 0 10C 0 -3.3333333333333335 20 -3.3333333333333335 20 10C 20 23.333333333333332 0 23.333333333333332 0 10Z" stroke-dasharray="10,6" stroke="rgba(224,224,224,1)" stroke-width="1" fill="none"></path><g id="SvgjsG1098"><text id="SvgjsText1099" font-family="微软雅黑" text-anchor="middle" font-size="13px" width="0px" fill="#f6f3ee" font-weight="400" align="middle" lineHeight="125%" anchor="middle" family="微软雅黑" size="13px" weight="400" font-style="" opacity="1" y="-0.625" transform="rotate(0)"></text></g></g><g id="SvgjsG1100"><path id="SvgjsPath1101" d="M399.07375395758027 192.71564277765123L416.62880608974376 210.95913461538464" stroke="#616161" stroke-width="1" fill="none" marker-end="url(#SvgjsMarker1102)"></path></g><g id="SvgjsG1104" transform="translate(111.4140625,243.89195261438)"><path id="SvgjsPath1105" d="M 0 0L 240 0L 240 40L 0 40Z" stroke="none" fill="none"></path><g id="SvgjsG1106"><text id="SvgjsText1107" font-family="微软雅黑" text-anchor="middle" font-size="13px" width="240px" fill="#323232" font-weight="400" align="middle" lineHeight="125%" anchor="middle" family="微软雅黑" size="13px" weight="400" font-style="" opacity="1" y="9.375" transform="rotate(0)"><tspan id="SvgjsTspan1108" dy="16" x="120"><tspan id="SvgjsTspan1109" style="text-decoration:;">只保留变化部分，比如转盘中的指针部分</tspan></tspan></text></g></g></svg>