<svg id="SvgjsSvg1006" width="500" height="282" xmlns="http://www.w3.org/2000/svg" version="1.1" xmlns:xlink="http://www.w3.org/1999/xlink" xmlns:svgjs="http://svgjs.com/svgjs"><defs id="SvgjsDefs1007"><marker id="SvgjsMarker1010" markerWidth="12" markerHeight="8" refX="9" refY="4" viewBox="0 0 12 8" orient="auto" markerUnits="userSpaceOnUse" stroke-dasharray="0,0"><path id="SvgjsPath1011" d="M0,0 L12,4 L0,8 L0,0" fill="#323232" stroke="#323232" stroke-width="1"></path></marker><marker id="SvgjsMarker1014" markerWidth="12" markerHeight="8" refX="9" refY="4" viewBox="0 0 12 8" orient="auto" markerUnits="userSpaceOnUse" stroke-dasharray="0,0"><path id="SvgjsPath1015" d="M0,0 L12,4 L0,8 L0,0" fill="#323232" stroke="#323232" stroke-width="1"></path></marker><marker id="SvgjsMarker1020" markerWidth="12" markerHeight="8" refX="9" refY="4" viewBox="0 0 12 8" orient="auto" markerUnits="userSpaceOnUse" stroke-dasharray="0,0"><path id="SvgjsPath1021" d="M0,0 L12,4 L0,8 L0,0" fill="#323232" stroke="#323232" stroke-width="1"></path></marker><marker id="SvgjsMarker1024" markerWidth="12" markerHeight="8" refX="9" refY="4" viewBox="0 0 12 8" orient="auto" markerUnits="userSpaceOnUse" stroke-dasharray="0,0"><path id="SvgjsPath1025" d="M0,0 L12,4 L0,8 L0,0" fill="#323232" stroke="#323232" stroke-width="1"></path></marker></defs><g id="SvgjsG1008"><path id="SvgjsPath1009" d="M55.1818181818183 121.63636363636363L144.1818181818183 121.63636363636363L144.1818181818183 121.63636363636363L233.1818181818183 121.63636363636363" stroke="#323232" stroke-width="1" fill="none" marker-end="url(#SvgjsMarker1010)"></path></g><g id="SvgjsG1012"><path id="SvgjsPath1013" d="M55 181.63636363636363L55 120.81818181818176L55 120.81818181818176L55 62.299999999999955" stroke="#323232" stroke-width="1" fill="none" marker-end="url(#SvgjsMarker1014)"></path></g><g id="SvgjsG1016"><path id="SvgjsPath1017" d="M56.09090909090912 121.63636363636397C 114 195 115 90 217.225490196078 76" stroke="#323232" stroke-width="1" fill="none"></path></g><g id="SvgjsG1018"><path id="SvgjsPath1019" d="M295.18181818181824 121.63636363636363L384.18181818181824 121.63636363636363L384.18181818181824 121.63636363636363L473.18181818181824 121.63636363636363" stroke="#323232" stroke-width="1" fill="none" marker-end="url(#SvgjsMarker1020)"></path></g><g id="SvgjsG1022"><path id="SvgjsPath1023" d="M295.18181818181824 181.63636363636363L295.18181818181824 120.81818181818176L295.18181818181824 120.81818181818176L295.18181818181824 62.299999999999955" stroke="#323232" stroke-width="1" fill="none" marker-end="url(#SvgjsMarker1024)"></path></g><g id="SvgjsG1026"><path id="SvgjsPath1027" d="M296.09090909090907 121.63636363636397C 355 45 355 166 459.7254901960787 166" stroke="#323232" stroke-width="1" fill="none"></path></g><g id="SvgjsG1028" transform="translate(56,197)"><path id="SvgjsPath1029" d="M 0 0L 180 0L 180 30L 0 30Z" stroke="none" fill="none"></path><g id="SvgjsG1030"><text id="SvgjsText1031" font-family="微软雅黑" text-anchor="middle" font-size="13px" width="180px" fill="#323232" font-weight="700" align="middle" lineHeight="125%" anchor="middle" family="微软雅黑" size="13px" weight="700" font-style="" opacity="1" y="4.375" transform="rotate(0)"><tspan id="SvgjsTspan1032" dy="16" x="90"><tspan id="SvgjsTspan1033" style="text-decoration:;">J 型曲线</tspan></tspan></text></g></g><g id="SvgjsG1034" transform="translate(56,227)"><path id="SvgjsPath1035" d="M 0 0L 180 0L 180 30L 0 30Z" stroke="none" fill="none"></path><g id="SvgjsG1036"><text id="SvgjsText1037" font-family="微软雅黑" text-anchor="middle" font-size="13px" width="180px" fill="#81a0aa" font-weight="400" align="middle" lineHeight="125%" anchor="middle" family="微软雅黑" size="13px" weight="400" font-style="" opacity="1" y="4.375" transform="rotate(0)"><tspan id="SvgjsTspan1038" dy="16" x="90"><tspan id="SvgjsTspan1039" style="text-decoration:;">天使投资</tspan></tspan></text></g></g><g id="SvgjsG1040" transform="translate(295,197)"><path id="SvgjsPath1041" d="M 0 0L 180 0L 180 30L 0 30Z" stroke="none" fill="none"></path><g id="SvgjsG1042"><text id="SvgjsText1043" font-family="微软雅黑" text-anchor="middle" font-size="13px" width="180px" fill="#323232" font-weight="700" align="middle" lineHeight="125%" anchor="middle" family="微软雅黑" size="13px" weight="700" font-style="" opacity="1" y="4.375" transform="rotate(0)"><tspan id="SvgjsTspan1044" dy="16" x="90"><tspan id="SvgjsTspan1045" style="text-decoration:;">倒 J 型曲线</tspan></tspan></text></g></g><g id="SvgjsG1046" transform="translate(295,227)"><path id="SvgjsPath1047" d="M 0 0L 180 0L 180 30L 0 30Z" stroke="none" fill="none"></path><g id="SvgjsG1048"><text id="SvgjsText1049" font-family="微软雅黑" text-anchor="middle" font-size="13px" width="180px" fill="#81a0aa" font-weight="400" align="middle" lineHeight="125%" anchor="middle" family="微软雅黑" size="13px" weight="400" font-style="" opacity="1" y="4.375" transform="rotate(0)"><tspan id="SvgjsTspan1050" dy="16" x="90"><tspan id="SvgjsTspan1051" style="text-decoration:;">抢劫</tspan></tspan></text></g></g><g id="SvgjsG1052" transform="translate(25,25)"><path id="SvgjsPath1053" d="M 0 0L 60 0L 60 35L 0 35Z" stroke="none" fill="none"></path><g id="SvgjsG1054"><text id="SvgjsText1055" font-family="微软雅黑" text-anchor="middle" font-size="13px" width="60px" fill="#323232" font-weight="400" align="middle" lineHeight="125%" anchor="middle" family="微软雅黑" size="13px" weight="400" font-style="" opacity="1" y="6.875" transform="rotate(0)"><tspan id="SvgjsTspan1056" dy="16" x="30"><tspan id="SvgjsTspan1057" style="text-decoration:;">收益</tspan></tspan></text></g></g><g id="SvgjsG1058" transform="translate(265,25)"><path id="SvgjsPath1059" d="M 0 0L 60 0L 60 35L 0 35Z" stroke="none" fill="none"></path><g id="SvgjsG1060"><text id="SvgjsText1061" font-family="微软雅黑" text-anchor="middle" font-size="13px" width="60px" fill="#323232" font-weight="400" align="middle" lineHeight="125%" anchor="middle" family="微软雅黑" size="13px" weight="400" font-style="" opacity="1" y="6.875" transform="rotate(0)"><tspan id="SvgjsTspan1062" dy="16" x="30"><tspan id="SvgjsTspan1063" style="text-decoration:;">收益</tspan></tspan></text></g></g></svg>