<svg id="SvgjsSvg1006" width="544" height="230" xmlns="http://www.w3.org/2000/svg" version="1.1" xmlns:xlink="http://www.w3.org/1999/xlink" xmlns:svgjs="http://svgjs.com/svgjs"><defs id="SvgjsDefs1007"></defs><g id="SvgjsG1008" transform="translate(25,25)"><path id="SvgjsPath1009" d="M 160 0L 320 180L 0 180Z" stroke="rgba(97,97,97,1)" stroke-width="1" fill-opacity="1" fill="#f6f3ee"></path><g id="SvgjsG1010"><text id="SvgjsText1011" font-family="微软雅黑" text-anchor="middle" font-size="13px" width="300px" fill="#3d4b58" font-weight="400" align="middle" lineHeight="125%" anchor="middle" family="微软雅黑" size="13px" weight="400" font-style="" opacity="1" y="101.875" transform="rotate(0)"></text></g></g><g id="SvgjsG1012"><path id="SvgjsPath1013" d="M79.33333333333331 144L290.9499145324635 144" stroke="#616161" stroke-width="1" fill="none"></path></g><g id="SvgjsG1014" transform="translate(124.99999999999989,160)"><path id="SvgjsPath1015" d="M 0 0L 120 0L 120 30L 0 30Z" stroke="none" fill="none"></path><g id="SvgjsG1016"><text id="SvgjsText1017" font-family="&quot;Times New Roman&quot;" text-anchor="middle" font-size="13px" width="120px" fill="#3d4b58" font-weight="700" align="middle" lineHeight="125%" anchor="middle" family="&quot;Times New Roman&quot;" size="13px" weight="700" font-style="" opacity="1" y="4.375" transform="rotate(0)"><tspan id="SvgjsTspan1018" dy="16" x="60"><tspan id="SvgjsTspan1019" style="text-decoration:;">n</tspan></tspan></text></g></g><g id="SvgjsG1020" transform="translate(124.99999999999989,100.00000000000023)"><path id="SvgjsPath1021" d="M 0 0L 120 0L 120 30L 0 30Z" stroke="none" fill="none"></path><g id="SvgjsG1022"><text id="SvgjsText1023" font-family="&quot;Times New Roman&quot;" text-anchor="middle" font-size="13px" width="120px" fill="#3d4b58" font-weight="700" align="middle" lineHeight="125%" anchor="middle" family="&quot;Times New Roman&quot;" size="13px" weight="700" font-style="" opacity="1" y="4.375" transform="rotate(0)"><tspan id="SvgjsTspan1024" dy="16" x="60"><tspan id="SvgjsTspan1025" style="text-decoration:;">&lt; 7</tspan></tspan></text></g></g><g id="SvgjsG1026"><path id="SvgjsPath1027" d="M129.00484863285317 86.59259259259272L240.23076923076917 86.59259259259272" stroke="#616161" stroke-width="1" fill="none"></path></g><g id="SvgjsG1028" transform="translate(124.99999999999989,55.000000000000284)"><path id="SvgjsPath1029" d="M 0 0L 120 0L 120 30L 0 30Z" stroke="none" fill="none"></path><g id="SvgjsG1030"><text id="SvgjsText1031" font-family="&quot;Times New Roman&quot;" text-anchor="middle" font-size="13px" width="120px" fill="#3d4b58" font-weight="700" align="middle" lineHeight="125%" anchor="middle" family="&quot;Times New Roman&quot;" size="13px" weight="700" font-style="" opacity="1" y="4.375" transform="rotate(0)"><tspan id="SvgjsTspan1032" dy="16" x="60"><tspan id="SvgjsTspan1033" style="text-decoration:;">= 1</tspan></tspan></text></g></g><g id="SvgjsG1034" transform="translate(259,27)"><path id="SvgjsPath1035" d="M 0 60Q 2 60 2 54L 2 36Q 2 30 22 30Q 2 30 2 24L 2 6Q 2 0 0 0" stroke="rgba(97,97,97,1)" stroke-width="1" fill="none"></path><path id="SvgjsPath1036" d="M 0 0L 20 0L 20 60L 0 60Z" stroke="none" fill="none"></path><g id="SvgjsG1037"><text id="SvgjsText1038" font-family="微软雅黑" text-anchor="start" font-size="13px" width="0" fill="#3d4b58" font-weight="400" align="middle" lineHeight="125%" anchor="start" family="微软雅黑" size="13px" weight="400" font-style="" opacity="1" y="19.375" transform="rotate(0)"></text></g></g><g id="SvgjsG1039" transform="translate(279.0000000000001,42)"><path id="SvgjsPath1040" d="M 0 0L 120 0L 120 30L 0 30Z" stroke="none" fill="none"></path><g id="SvgjsG1041"><text id="SvgjsText1042" font-family="微软雅黑" text-anchor="middle" font-size="13px" width="120px" fill="#688f4e" font-weight="400" align="middle" lineHeight="125%" anchor="middle" family="微软雅黑" size="13px" weight="400" font-style="" opacity="1" y="4.375" transform="rotate(0)"><tspan id="SvgjsTspan1043" dy="16" x="60"><tspan id="SvgjsTspan1044" style="text-decoration:;">最关键信息</tspan></tspan></text></g></g><g id="SvgjsG1045" transform="translate(308,87)"><path id="SvgjsPath1046" d="M 0 60Q 2 60 2 54L 2 36Q 2 30 22 30Q 2 30 2 24L 2 6Q 2 0 0 0" stroke="rgba(97,97,97,1)" stroke-width="1" fill="none"></path><path id="SvgjsPath1047" d="M 0 0L 20 0L 20 60L 0 60Z" stroke="none" fill="none"></path><g id="SvgjsG1048"><text id="SvgjsText1049" font-family="微软雅黑" text-anchor="start" font-size="13px" width="0" fill="#3d4b58" font-weight="400" align="middle" lineHeight="125%" anchor="start" family="微软雅黑" size="13px" weight="400" font-style="" opacity="1" y="19.375" transform="rotate(0)"></text></g></g><g id="SvgjsG1050" transform="translate(365,145)"><path id="SvgjsPath1051" d="M 0 60Q 2 60 2 54L 2 36Q 2 30 22 30Q 2 30 2 24L 2 6Q 2 0 0 0" stroke="rgba(97,97,97,1)" stroke-width="1" fill="none"></path><path id="SvgjsPath1052" d="M 0 0L 20 0L 20 60L 0 60Z" stroke="none" fill="none"></path><g id="SvgjsG1053"><text id="SvgjsText1054" font-family="微软雅黑" text-anchor="start" font-size="13px" width="0" fill="#3d4b58" font-weight="400" align="middle" lineHeight="125%" anchor="start" family="微软雅黑" size="13px" weight="400" font-style="" opacity="1" y="19.375" transform="rotate(0)"></text></g></g><g id="SvgjsG1055" transform="translate(329.0000000000001,102)"><path id="SvgjsPath1056" d="M 0 0L 120 0L 120 30L 0 30Z" stroke="none" fill="none"></path><g id="SvgjsG1057"><text id="SvgjsText1058" font-family="微软雅黑" text-anchor="middle" font-size="13px" width="120px" fill="#688f4e" font-weight="400" align="middle" lineHeight="125%" anchor="middle" family="微软雅黑" size="13px" weight="400" font-style="" opacity="1" y="4.375" transform="rotate(0)"><tspan id="SvgjsTspan1059" dy="16" x="60"><tspan id="SvgjsTspan1060" style="text-decoration:;">支撑项目 (论据)</tspan></tspan></text></g></g><g id="SvgjsG1061" transform="translate(399.0000000000001,160)"><path id="SvgjsPath1062" d="M 0 0L 120 0L 120 30L 0 30Z" stroke="none" fill="none"></path><g id="SvgjsG1063"><text id="SvgjsText1064" font-family="微软雅黑" text-anchor="middle" font-size="13px" width="120px" fill="#688f4e" font-weight="400" align="middle" lineHeight="125%" anchor="middle" family="微软雅黑" size="13px" weight="400" font-style="" opacity="1" y="4.375" transform="rotate(0)"><tspan id="SvgjsTspan1065" dy="16" x="60"><tspan id="SvgjsTspan1066" style="text-decoration:;">数据 / 图表 / 例子</tspan></tspan></text></g></g><g id="SvgjsG1067" transform="translate(399.0000000000001,42)"><path id="SvgjsPath1068" d="M 0 0L 120 0L 120 30L 0 30Z" stroke="none" fill="none"></path><g id="SvgjsG1069"><text id="SvgjsText1070" font-family="&quot;Times New Roman&quot;" text-anchor="middle" font-size="13px" width="120px" fill="#e0e0e0" font-weight="400" align="middle" lineHeight="125%" anchor="middle" family="&quot;Times New Roman&quot;" size="13px" weight="400" font-style="" opacity="1" y="4.375" transform="rotate(0)"><tspan id="SvgjsTspan1071" dy="16" x="60"><tspan id="SvgjsTspan1072" style="text-decoration:;">www.kofes.cn</tspan></tspan></text></g></g></svg>