<svg id="SvgjsSvg1006" width="590" height="250" xmlns="http://www.w3.org/2000/svg" version="1.1" xmlns:xlink="http://www.w3.org/1999/xlink" xmlns:svgjs="http://svgjs.com/svgjs"><defs id="SvgjsDefs1007"><marker id="SvgjsMarker1028" markerWidth="12" markerHeight="8" refX="9" refY="4" viewBox="0 0 12 8" orient="auto" markerUnits="userSpaceOnUse" stroke-dasharray="0,0"><path id="SvgjsPath1029" d="M0,0 L12,4 L0,8 L0,0" fill="#323232" stroke="#323232" stroke-width="1"></path></marker><marker id="SvgjsMarker1032" markerWidth="12" markerHeight="8" refX="9" refY="4" viewBox="0 0 12 8" orient="auto" markerUnits="userSpaceOnUse" stroke-dasharray="0,0"><path id="SvgjsPath1033" d="M0,0 L12,4 L0,8 L0,0" fill="#323232" stroke="#323232" stroke-width="1"></path></marker></defs><g id="SvgjsG1008" transform="translate(25,95.99999999999994)"><path id="SvgjsPath1009" d="M 0 29C 0 -9.666666666666666 58 -9.666666666666666 58 29C 58 67.66666666666667 0 67.66666666666667 0 29Z" stroke="rgba(97,97,97,1)" stroke-width="1" fill-opacity="1" fill="#f6f3ee"></path><g id="SvgjsG1010"><text id="SvgjsText1011" font-family="微软雅黑" text-anchor="middle" font-size="13px" width="38px" fill="#3d4b58" font-weight="400" align="middle" lineHeight="125%" anchor="middle" family="微软雅黑" size="13px" weight="400" font-style="" opacity="1" y="18.375" transform="rotate(0)"><tspan id="SvgjsTspan1012" dy="16" x="29"><tspan id="SvgjsTspan1013" style="text-decoration:;">1</tspan></tspan></text></g></g><g id="SvgjsG1014" transform="translate(205,104.99999999999994)"><path id="SvgjsPath1015" d="M 0 20C 0 -6.666666666666667 40 -6.666666666666667 40 20C 40 46.666666666666664 0 46.666666666666664 0 20Z" stroke="rgba(97,97,97,1)" stroke-width="1" fill-opacity="1" fill="#f6f3ee"></path><g id="SvgjsG1016"><text id="SvgjsText1017" font-family="微软雅黑" text-anchor="middle" font-size="13px" width="20px" fill="#3d4b58" font-weight="400" align="middle" lineHeight="125%" anchor="middle" family="微软雅黑" size="13px" weight="400" font-style="" opacity="1" y="9.375" transform="rotate(0)"><tspan id="SvgjsTspan1018" dy="16" x="20"><tspan id="SvgjsTspan1019" style="text-decoration:;">0.7</tspan></tspan></text></g></g><g id="SvgjsG1020" transform="translate(365,24.999999999999943)"><path id="SvgjsPath1021" d="M 0 100C 0 -33.333333333333336 200 -33.333333333333336 200 100C 200 233.33333333333334 0 233.33333333333334 0 100Z" stroke="rgba(97,97,97,1)" stroke-width="1" fill-opacity="1" fill="#f6f3ee"></path><g id="SvgjsG1022"><text id="SvgjsText1023" font-family="微软雅黑" text-anchor="middle" font-size="13px" width="180px" fill="#3d4b58" font-weight="400" align="middle" lineHeight="125%" anchor="middle" family="微软雅黑" size="13px" weight="400" font-style="" opacity="1" y="89.375" transform="rotate(0)"><tspan id="SvgjsTspan1024" dy="16" x="100"><tspan id="SvgjsTspan1025" style="text-decoration:;">70</tspan></tspan></text></g></g><g id="SvgjsG1026"><path id="SvgjsPath1027" d="M245.5 124.99999999999994L305 124.99999999999994L305 124.99999999999994L363.20000000000005 124.99999999999994" stroke="#323232" stroke-width="1" fill="none" marker-end="url(#SvgjsMarker1028)"></path></g><g id="SvgjsG1030"><path id="SvgjsPath1031" d="M83.5 124.99999999999994L144 124.99999999999994L144 124.99999999999994L203.2 124.99999999999994" stroke="#323232" stroke-width="1" fill="none" marker-end="url(#SvgjsMarker1032)"></path></g><g id="SvgjsG1034" transform="translate(84,95.99999999999994)"><path id="SvgjsPath1035" d="M 0 0L 120 0L 120 30L 0 30Z" stroke="none" fill="none"></path><g id="SvgjsG1036"><text id="SvgjsText1037" font-family="微软雅黑" text-anchor="middle" font-size="13px" width="120px" fill="#688f4e" font-weight="400" align="middle" lineHeight="125%" anchor="middle" family="微软雅黑" size="13px" weight="400" font-style="" opacity="1" y="4.375" transform="rotate(0)"><tspan id="SvgjsTspan1038" dy="16" x="60"><tspan id="SvgjsTspan1039" style="text-decoration:;">传输损耗</tspan></tspan></text></g></g><g id="SvgjsG1040" transform="translate(245,95.99999999999994)"><path id="SvgjsPath1041" d="M 0 0L 120 0L 120 30L 0 30Z" stroke="none" fill="none"></path><g id="SvgjsG1042"><text id="SvgjsText1043" font-family="微软雅黑" text-anchor="middle" font-size="13px" width="120px" fill="#688f4e" font-weight="400" align="middle" lineHeight="125%" anchor="middle" family="微软雅黑" size="13px" weight="400" font-style="" opacity="1" y="4.375" transform="rotate(0)"><tspan id="SvgjsTspan1044" dy="16" x="60"><tspan id="SvgjsTspan1045" style="text-decoration:;">潜意识共鸣</tspan></tspan></text></g></g></svg>