<svg id="SvgjsSvg1160" width="584" height="391.1796875" xmlns="http://www.w3.org/2000/svg" version="1.1" xmlns:xlink="http://www.w3.org/1999/xlink" xmlns:svgjs="http://svgjs.com/svgjs"><defs id="SvgjsDefs1161"><marker id="SvgjsMarker1194" markerWidth="12" markerHeight="8" refX="9" refY="4" viewBox="0 0 12 8" orient="auto" markerUnits="userSpaceOnUse" stroke-dasharray="0,0"><path id="SvgjsPath1195" d="M0,0 L12,4 L0,8 L0,0" fill="#323232" stroke="#323232" stroke-width="1"></path></marker><marker id="SvgjsMarker1198" markerWidth="12" markerHeight="8" refX="9" refY="4" viewBox="0 0 12 8" orient="auto" markerUnits="userSpaceOnUse" stroke-dasharray="0,0"><path id="SvgjsPath1199" d="M0,0 L12,4 L0,8 L0,0" fill="#323232" stroke="#323232" stroke-width="1"></path></marker><marker id="SvgjsMarker1202" markerWidth="12" markerHeight="8" refX="9" refY="4" viewBox="0 0 12 8" orient="auto" markerUnits="userSpaceOnUse" stroke-dasharray="0,0"><path id="SvgjsPath1203" d="M0,0 L12,4 L0,8 L0,0" fill="#323232" stroke="#323232" stroke-width="1"></path></marker><marker id="SvgjsMarker1206" markerWidth="12" markerHeight="8" refX="9" refY="4" viewBox="0 0 12 8" orient="auto" markerUnits="userSpaceOnUse" stroke-dasharray="0,0"><path id="SvgjsPath1207" d="M0,0 L12,4 L0,8 L0,0" fill="#323232" stroke="#323232" stroke-width="1"></path></marker><marker id="SvgjsMarker1210" markerWidth="12" markerHeight="8" refX="9" refY="4" viewBox="0 0 12 8" orient="auto" markerUnits="userSpaceOnUse" stroke-dasharray="0,0"><path id="SvgjsPath1211" d="M0,0 L12,4 L0,8 L0,0" fill="#323232" stroke="#323232" stroke-width="1"></path></marker><marker id="SvgjsMarker1214" markerWidth="12" markerHeight="8" refX="9" refY="4" viewBox="0 0 12 8" orient="auto" markerUnits="userSpaceOnUse" stroke-dasharray="0,0"><path id="SvgjsPath1215" d="M0,0 L12,4 L0,8 L0,0" fill="#323232" stroke="#323232" stroke-width="1"></path></marker><marker id="SvgjsMarker1218" markerWidth="12" markerHeight="8" refX="9" refY="4" viewBox="0 0 12 8" orient="auto" markerUnits="userSpaceOnUse" stroke-dasharray="0,0"><path id="SvgjsPath1219" d="M0,0 L12,4 L0,8 L0,0" fill="#323232" stroke="#323232" stroke-width="1"></path></marker><marker id="SvgjsMarker1222" markerWidth="12" markerHeight="8" refX="9" refY="4" viewBox="0 0 12 8" orient="auto" markerUnits="userSpaceOnUse" stroke-dasharray="0,0"><path id="SvgjsPath1223" d="M0,0 L12,4 L0,8 L0,0" fill="#323232" stroke="#323232" stroke-width="1"></path></marker><marker id="SvgjsMarker1256" markerWidth="12" markerHeight="8" refX="9" refY="4" viewBox="0 0 12 8" orient="auto" markerUnits="userSpaceOnUse" stroke-dasharray="0,0"><path id="SvgjsPath1257" d="M0,0 L12,4 L0,8 L0,0" fill="#323232" stroke="#323232" stroke-width="1"></path></marker><marker id="SvgjsMarker1260" markerWidth="12" markerHeight="8" refX="9" refY="4" viewBox="0 0 12 8" orient="auto" markerUnits="userSpaceOnUse" stroke-dasharray="0,0"><path id="SvgjsPath1261" d="M0,0 L12,4 L0,8 L0,0" fill="#323232" stroke="#323232" stroke-width="1"></path></marker><marker id="SvgjsMarker1264" markerWidth="12" markerHeight="8" refX="9" refY="4" viewBox="0 0 12 8" orient="auto" markerUnits="userSpaceOnUse" stroke-dasharray="0,0"><path id="SvgjsPath1265" d="M0,0 L12,4 L0,8 L0,0" fill="#323232" stroke="#323232" stroke-width="1"></path></marker><marker id="SvgjsMarker1268" markerWidth="12" markerHeight="8" refX="9" refY="4" viewBox="0 0 12 8" orient="auto" markerUnits="userSpaceOnUse" stroke-dasharray="0,0"><path id="SvgjsPath1269" d="M0,0 L12,4 L0,8 L0,0" fill="#323232" stroke="#323232" stroke-width="1"></path></marker><marker id="SvgjsMarker1272" markerWidth="12" markerHeight="8" refX="9" refY="4" viewBox="0 0 12 8" orient="auto" markerUnits="userSpaceOnUse" stroke-dasharray="0,0"><path id="SvgjsPath1273" d="M0,0 L12,4 L0,8 L0,0" fill="#323232" stroke="#323232" stroke-width="1"></path></marker><marker id="SvgjsMarker1276" markerWidth="12" markerHeight="8" refX="9" refY="4" viewBox="0 0 12 8" orient="auto" markerUnits="userSpaceOnUse" stroke-dasharray="0,0"><path id="SvgjsPath1277" d="M0,0 L12,4 L0,8 L0,0" fill="#323232" stroke="#323232" stroke-width="1"></path></marker><marker id="SvgjsMarker1280" markerWidth="12" markerHeight="8" refX="9" refY="4" viewBox="0 0 12 8" orient="auto" markerUnits="userSpaceOnUse" stroke-dasharray="0,0"><path id="SvgjsPath1281" d="M0,0 L12,4 L0,8 L0,0" fill="#323232" stroke="#323232" stroke-width="1"></path></marker><marker id="SvgjsMarker1284" markerWidth="12" markerHeight="8" refX="9" refY="4" viewBox="0 0 12 8" orient="auto" markerUnits="userSpaceOnUse" stroke-dasharray="0,0"><path id="SvgjsPath1285" d="M0,0 L12,4 L0,8 L0,0" fill="#323232" stroke="#323232" stroke-width="1"></path></marker><marker id="SvgjsMarker1288" markerWidth="12" markerHeight="8" refX="9" refY="4" viewBox="0 0 12 8" orient="auto" markerUnits="userSpaceOnUse" stroke-dasharray="0,0"><path id="SvgjsPath1289" d="M0,0 L12,4 L0,8 L0,0" fill="#323232" stroke="#323232" stroke-width="1"></path></marker><marker id="SvgjsMarker1292" markerWidth="12" markerHeight="8" refX="9" refY="4" viewBox="0 0 12 8" orient="auto" markerUnits="userSpaceOnUse" stroke-dasharray="0,0"><path id="SvgjsPath1293" d="M0,0 L12,4 L0,8 L0,0" fill="#323232" stroke="#323232" stroke-width="1"></path></marker></defs><g id="SvgjsG1162" transform="translate(439,65.00164473684231)"><path id="SvgjsPath1163" d="M 0 30C 0 -10 60 -10 60 30C 60 70 0 70 0 30Z" stroke="rgba(97,97,97,1)" stroke-width="1" fill-opacity="1" fill="#f6f3ee"></path><g id="SvgjsG1164"><text id="SvgjsText1165" font-family="&quot;Times New Roman&quot;" text-anchor="middle" font-size="13px" width="40px" fill="#3d4b58" font-weight="400" align="middle" lineHeight="125%" anchor="middle" family="&quot;Times New Roman&quot;" size="13px" weight="400" font-style="" opacity="1" y="19.375" transform="rotate(0)"></text></g></g><g id="SvgjsG1166" transform="translate(144,155.59375)"><path id="SvgjsPath1167" d="M 0 40C 0 -13.333333333333334 80 -13.333333333333334 80 40C 80 93.33333333333333 0 93.33333333333333 0 40Z" stroke="rgba(97,97,97,1)" stroke-width="1" fill-opacity="1" fill="#f6f3ee"></path><g id="SvgjsG1168"><text id="SvgjsText1169" font-family="&quot;Times New Roman&quot;" text-anchor="middle" font-size="13px" width="60px" fill="#3d4b58" font-weight="400" align="middle" lineHeight="125%" anchor="middle" family="&quot;Times New Roman&quot;" size="13px" weight="400" font-style="" opacity="1" y="29.375" transform="rotate(0)"></text></g></g><g id="SvgjsG1170" transform="translate(25,276.1858552631577)"><path id="SvgjsPath1171" d="M 0 0L 360 0L 360 90L 0 90Z" stroke="none" fill="none"></path><g id="SvgjsG1172"><text id="SvgjsText1173" font-family="微软雅黑" text-anchor="middle" font-size="13px" width="360px" fill="#dd1144" font-weight="400" align="middle" lineHeight="150%" anchor="middle" family="微软雅黑" size="13px" weight="400" font-style="" opacity="1" y="11.25" transform="rotate(0)"><tspan id="SvgjsTspan1174" dy="19" x="180"><tspan id="SvgjsTspan1175" style="text-decoration:;">马太效应</tspan></tspan><tspan id="SvgjsTspan1176" dy="19" x="180"><tspan id="SvgjsTspan1177" style="text-decoration:;">凡有的，还要加给他，叫他有余</tspan></tspan><tspan id="SvgjsTspan1178" dy="19" x="180"><tspan id="SvgjsTspan1179" style="text-decoration:;">没有的，连他所有的也要夺过来</tspan></tspan></text></g></g><g id="SvgjsG1180" transform="translate(164,75.00164473684231)"><path id="SvgjsPath1181" d="M 0 20C 0 -6.666666666666667 40 -6.666666666666667 40 20C 40 46.666666666666664 0 46.666666666666664 0 20Z" stroke="rgba(97,97,97,1)" stroke-width="1" fill-opacity="1" fill="#f6f3ee"></path><g id="SvgjsG1182"><text id="SvgjsText1183" font-family="&quot;Times New Roman&quot;" text-anchor="middle" font-size="13px" width="20px" fill="#3d4b58" font-weight="400" align="middle" lineHeight="125%" anchor="middle" family="&quot;Times New Roman&quot;" size="13px" weight="400" font-style="" opacity="1" y="9.375" transform="rotate(0)"><tspan id="SvgjsTspan1184" dy="16" x="20"><tspan id="SvgjsTspan1185" style="text-decoration:;">A</tspan></tspan></text></g></g><g id="SvgjsG1186" transform="translate(144,175.59375)"><path id="SvgjsPath1187" d="M 0 20C 0 -6.666666666666667 40 -6.666666666666667 40 20C 40 46.666666666666664 0 46.666666666666664 0 20Z" stroke="rgba(97,97,97,1)" stroke-width="1" fill-opacity="1" fill="#f6f3ee"></path><g id="SvgjsG1188"><text id="SvgjsText1189" font-family="&quot;Times New Roman&quot;" text-anchor="middle" font-size="13px" width="20px" fill="#3d4b58" font-weight="400" align="middle" lineHeight="125%" anchor="middle" family="&quot;Times New Roman&quot;" size="13px" weight="400" font-style="" opacity="1" y="9.375" transform="rotate(0)"><tspan id="SvgjsTspan1190" dy="16" x="20"><tspan id="SvgjsTspan1191" style="text-decoration:;">B</tspan></tspan></text></g></g><g id="SvgjsG1192"><path id="SvgjsPath1193" d="M52.73684210526301 94.00164473684231L82.8684210526315 94.00164473684231L82.8684210526315 94.00164473684231L113 94.00164473684231" stroke="#323232" stroke-width="1" fill="none" marker-end="url(#SvgjsMarker1194)"></path></g><g id="SvgjsG1196"><path id="SvgjsPath1197" d="M52.73684210526301 79.00164473684231L82.8684210526315 79.00164473684231L82.8684210526315 79.00164473684231L113 79.00164473684231" stroke="#323232" stroke-width="1" fill="none" marker-end="url(#SvgjsMarker1198)"></path></g><g id="SvgjsG1200"><path id="SvgjsPath1201" d="M52.73684210526301 109.00164473684231L82.8684210526315 109.00164473684231L82.8684210526315 109.00164473684231L113 109.00164473684231" stroke="#323232" stroke-width="1" fill="none" marker-end="url(#SvgjsMarker1202)"></path></g><g id="SvgjsG1204"><path id="SvgjsPath1205" d="M53.73684210526301 198.59375L83.8684210526315 198.59375L83.8684210526315 198.59375L114 198.59375" stroke="#323232" stroke-width="1" fill="none" marker-end="url(#SvgjsMarker1206)"></path></g><g id="SvgjsG1208"><path id="SvgjsPath1209" d="M53.73684210526301 183.34375L83.8684210526315 183.34375L83.8684210526315 183.34375L114 183.34375" stroke="#323232" stroke-width="1" fill="none" marker-end="url(#SvgjsMarker1210)"></path></g><g id="SvgjsG1212"><path id="SvgjsPath1213" d="M53.73684210526301 213.84375L83.8684210526315 213.84375L83.8684210526315 213.84375L114 213.84375" stroke="#323232" stroke-width="1" fill="none" marker-end="url(#SvgjsMarker1214)"></path></g><g id="SvgjsG1216"><path id="SvgjsPath1217" d="M53.73684210526301 229.09375L83.8684210526315 229.09375L83.8684210526315 229.09375L114 229.09375" stroke="#323232" stroke-width="1" fill="none" marker-end="url(#SvgjsMarker1218)"></path></g><g id="SvgjsG1220"><path id="SvgjsPath1221" d="M53.73684210526301 168.09375L83.8684210526315 168.09375L83.8684210526315 168.09375L114 168.09375" stroke="#323232" stroke-width="1" fill="none" marker-end="url(#SvgjsMarker1222)"></path></g><g id="SvgjsG1224"><path id="SvgjsPath1225" d="M205 193.59375L205 234.88980263157885L205 234.88980263157885L205 275.1858552631577" stroke-dasharray="3,3" stroke="#323232" stroke-width="1" fill="none"></path></g><g id="SvgjsG1226" transform="translate(39.73684210526301,25.00164473684231)"><path id="SvgjsPath1227" d="M 0 0L 90 0L 90 30L 0 30Z" stroke="none" fill="none"></path><g id="SvgjsG1228"><text id="SvgjsText1229" font-family="微软雅黑" text-anchor="middle" font-size="13px" width="90px" fill="#323232" font-weight="400" align="middle" lineHeight="125%" anchor="middle" family="微软雅黑" size="13px" weight="400" font-style="" opacity="1" y="4.375" transform="rotate(0)"><tspan id="SvgjsTspan1230" dy="16" x="45"><tspan id="SvgjsTspan1231" style="text-decoration:;">社会资源</tspan></tspan></text></g></g><g id="SvgjsG1232" transform="translate(429,155.59375)"><path id="SvgjsPath1233" d="M 0 40C 0 -13.333333333333334 80 -13.333333333333334 80 40C 80 93.33333333333333 0 93.33333333333333 0 40Z" stroke="rgba(97,97,97,1)" stroke-width="1" fill-opacity="1" fill="#f6f3ee"></path><g id="SvgjsG1234"><text id="SvgjsText1235" font-family="&quot;Times New Roman&quot;" text-anchor="middle" font-size="13px" width="60px" fill="#3d4b58" font-weight="400" align="middle" lineHeight="125%" anchor="middle" family="&quot;Times New Roman&quot;" size="13px" weight="400" font-style="" opacity="1" y="29.375" transform="rotate(0)"></text></g></g><g id="SvgjsG1236" transform="translate(379,285.59375)"><path id="SvgjsPath1237" d="M 0 0L 180 0L 180 30L 0 30Z" stroke="none" fill="none"></path><g id="SvgjsG1238"><text id="SvgjsText1239" font-family="微软雅黑" text-anchor="middle" font-size="13px" width="180px" fill="#dd1144" font-weight="400" align="middle" lineHeight="150%" anchor="middle" family="微软雅黑" size="13px" weight="400" font-style="" opacity="1" y="0.75" transform="rotate(0)"><tspan id="SvgjsTspan1240" dy="19" x="90"><tspan id="SvgjsTspan1241" style="text-decoration:;">资源吸引力 -&gt; 社会适应度</tspan></tspan></text></g></g><g id="SvgjsG1242" transform="translate(439,75.00164473684231)"><path id="SvgjsPath1243" d="M 0 20C 0 -6.666666666666667 40 -6.666666666666667 40 20C 40 46.666666666666664 0 46.666666666666664 0 20Z" stroke="rgba(97,97,97,1)" stroke-width="1" fill-opacity="1" fill="#f6f3ee"></path><g id="SvgjsG1244"><text id="SvgjsText1245" font-family="&quot;Times New Roman&quot;" text-anchor="middle" font-size="13px" width="20px" fill="#3d4b58" font-weight="400" align="middle" lineHeight="125%" anchor="middle" family="&quot;Times New Roman&quot;" size="13px" weight="400" font-style="" opacity="1" y="9.375" transform="rotate(0)"><tspan id="SvgjsTspan1246" dy="16" x="20"><tspan id="SvgjsTspan1247" style="text-decoration:;">A</tspan></tspan></text></g></g><g id="SvgjsG1248" transform="translate(429,175.59375)"><path id="SvgjsPath1249" d="M 0 20C 0 -6.666666666666667 40 -6.666666666666667 40 20C 40 46.666666666666664 0 46.666666666666664 0 20Z" stroke="rgba(97,97,97,1)" stroke-width="1" fill-opacity="1" fill="#f6f3ee"></path><g id="SvgjsG1250"><text id="SvgjsText1251" font-family="&quot;Times New Roman&quot;" text-anchor="middle" font-size="13px" width="20px" fill="#3d4b58" font-weight="400" align="middle" lineHeight="125%" anchor="middle" family="&quot;Times New Roman&quot;" size="13px" weight="400" font-style="" opacity="1" y="9.375" transform="rotate(0)"><tspan id="SvgjsTspan1252" dy="16" x="20"><tspan id="SvgjsTspan1253" style="text-decoration:;">B</tspan></tspan></text></g></g><g id="SvgjsG1254"><path id="SvgjsPath1255" d="M337.736842105263 94.00164473684231L367.86842105263145 94.00164473684231L367.86842105263145 94.00164473684231L398 94.00164473684231" stroke="#323232" stroke-width="1" fill="none" marker-end="url(#SvgjsMarker1256)"></path></g><g id="SvgjsG1258"><path id="SvgjsPath1259" d="M337.736842105263 86.00164473684231L367.86842105263145 86.00164473684231L367.86842105263145 86.00164473684231L398 86.00164473684231" stroke="#323232" stroke-width="1" fill="none" marker-end="url(#SvgjsMarker1260)"></path></g><g id="SvgjsG1262"><path id="SvgjsPath1263" d="M337.736842105263 102.00164473684231L367.86842105263145 102.00164473684231L367.86842105263145 102.00164473684231L398 102.00164473684231" stroke="#323232" stroke-width="1" fill="none" marker-end="url(#SvgjsMarker1264)"></path></g><g id="SvgjsG1266"><path id="SvgjsPath1267" d="M339.736842105263 200.59375L369.86842105263145 200.59375L369.86842105263145 200.59375L400 200.59375" stroke="#323232" stroke-width="1" fill="none" marker-end="url(#SvgjsMarker1268)"></path></g><g id="SvgjsG1270"><path id="SvgjsPath1271" d="M340 183.59375C 362.79999999999995 172.39375 374.20000000000005 166.79375 397 155.59375" stroke="#323232" stroke-width="1" fill="none" marker-end="url(#SvgjsMarker1272)"></path></g><g id="SvgjsG1274"><path id="SvgjsPath1275" d="M339.736842105263 214.34375L369.86842105263145 214.34375L369.86842105263145 214.34375L400 214.34375" stroke="#323232" stroke-width="1" fill="none" marker-end="url(#SvgjsMarker1276)"></path></g><g id="SvgjsG1278"><path id="SvgjsPath1279" d="M339.736842105263 229.09375L369.86842105263145 229.09375L369.86842105263145 229.09375L400 229.09375" stroke="#323232" stroke-width="1" fill="none" marker-end="url(#SvgjsMarker1280)"></path></g><g id="SvgjsG1282"><path id="SvgjsPath1283" d="M339 169.59375C 362.20000000000005 157.59375 373.79999999999995 151.59375 397 139.59375" stroke="#323232" stroke-width="1" fill="none" marker-end="url(#SvgjsMarker1284)"></path></g><g id="SvgjsG1286"><path id="SvgjsPath1287" d="M337.736842105263 78.00164473684231L367.86842105263145 78.00164473684231L367.86842105263145 78.00164473684231L398 78.00164473684231" stroke="#323232" stroke-width="1" fill="none" marker-end="url(#SvgjsMarker1288)"></path></g><g id="SvgjsG1290"><path id="SvgjsPath1291" d="M337.736842105263 110.00164473684231L367.86842105263145 110.00164473684231L367.86842105263145 110.00164473684231L398 110.00164473684231" stroke="#323232" stroke-width="1" fill="none" marker-end="url(#SvgjsMarker1292)"></path></g><g id="SvgjsG1294" transform="translate(139,25.00164473684231)"><path id="SvgjsPath1295" d="M 0 0L 90 0L 90 30L 0 30Z" stroke="none" fill="none"></path><g id="SvgjsG1296"><text id="SvgjsText1297" font-family="微软雅黑" text-anchor="middle" font-size="13px" width="90px" fill="#323232" font-weight="400" align="middle" lineHeight="125%" anchor="middle" family="微软雅黑" size="13px" weight="400" font-style="" opacity="1" y="4.375" transform="rotate(0)"><tspan id="SvgjsTspan1298" dy="16" x="45"><tspan id="SvgjsTspan1299" style="text-decoration:;">成就度</tspan></tspan></text></g></g><g id="SvgjsG1300"><path id="SvgjsPath1301" d="M378.0108064972594 300.44713412727174C 325.44031366783406 300.59375 310 213.59375 331 175.59375" stroke-dasharray="3,3" stroke="#323232" stroke-width="1" fill="none"></path></g><g id="SvgjsG1302" transform="translate(324.736842105263,25.00164473684231)"><path id="SvgjsPath1303" d="M 0 0L 90 0L 90 30L 0 30Z" stroke="none" fill="none"></path><g id="SvgjsG1304"><text id="SvgjsText1305" font-family="微软雅黑" text-anchor="middle" font-size="13px" width="90px" fill="#323232" font-weight="400" align="middle" lineHeight="125%" anchor="middle" family="微软雅黑" size="13px" weight="400" font-style="" opacity="1" y="4.375" transform="rotate(0)"><tspan id="SvgjsTspan1306" dy="16" x="45"><tspan id="SvgjsTspan1307" style="text-decoration:;">社会资源</tspan></tspan></text></g></g><g id="SvgjsG1308" transform="translate(424,25.00164473684231)"><path id="SvgjsPath1309" d="M 0 0L 90 0L 90 30L 0 30Z" stroke="none" fill="none"></path><g id="SvgjsG1310"><text id="SvgjsText1311" font-family="微软雅黑" text-anchor="middle" font-size="13px" width="90px" fill="#323232" font-weight="400" align="middle" lineHeight="125%" anchor="middle" family="微软雅黑" size="13px" weight="400" font-style="" opacity="1" y="4.375" transform="rotate(0)"><tspan id="SvgjsTspan1312" dy="16" x="45"><tspan id="SvgjsTspan1313" style="text-decoration:;">成就度</tspan></tspan></text></g></g></svg>