<svg id="SvgjsSvg1006" width="670" height="452.859375" xmlns="http://www.w3.org/2000/svg" version="1.1" xmlns:xlink="http://www.w3.org/1999/xlink" xmlns:svgjs="http://svgjs.com/svgjs"><defs id="SvgjsDefs1007"><marker id="SvgjsMarker1076" markerWidth="12" markerHeight="8" refX="9" refY="4" viewBox="0 0 12 8" orient="auto" markerUnits="userSpaceOnUse" stroke-dasharray="0,0"><path id="SvgjsPath1077" d="M0,0 L12,4 L0,8 L0,0" fill="#323232" stroke="#323232" stroke-width="1"></path></marker><marker id="SvgjsMarker1096" markerWidth="12" markerHeight="8" refX="9" refY="4" viewBox="0 0 12 8" orient="auto" markerUnits="userSpaceOnUse" stroke-dasharray="0,0"><path id="SvgjsPath1097" d="M0,0 L12,4 L0,8 L0,0" fill="#323232" stroke="#323232" stroke-width="1"></path></marker><marker id="SvgjsMarker1120" markerWidth="12" markerHeight="8" refX="9" refY="4" viewBox="0 0 12 8" orient="auto" markerUnits="userSpaceOnUse" stroke-dasharray="0,0"><path id="SvgjsPath1121" d="M0,0 L12,4 L0,8 L0,0" fill="#323232" stroke="#323232" stroke-width="1"></path></marker><marker id="SvgjsMarker1124" markerWidth="12" markerHeight="8" refX="9" refY="4" viewBox="0 0 12 8" orient="auto" markerUnits="userSpaceOnUse" stroke-dasharray="0,0"><path id="SvgjsPath1125" d="M0,0 L12,4 L0,8 L0,0" fill="#323232" stroke="#323232" stroke-width="1"></path></marker><marker id="SvgjsMarker1128" markerWidth="12" markerHeight="8" refX="9" refY="4" viewBox="0 0 12 8" orient="auto" markerUnits="userSpaceOnUse" stroke-dasharray="0,0"><path id="SvgjsPath1129" d="M0,0 L12,4 L0,8 L0,0" fill="#323232" stroke="#323232" stroke-width="1"></path></marker><marker id="SvgjsMarker1132" markerWidth="12" markerHeight="8" refX="9" refY="4" viewBox="0 0 12 8" orient="auto" markerUnits="userSpaceOnUse" stroke-dasharray="0,0"><path id="SvgjsPath1133" d="M0,0 L12,4 L0,8 L0,0" fill="#323232" stroke="#323232" stroke-width="1"></path></marker></defs><g id="SvgjsG1008" transform="translate(25,203.43181818181813)"><path id="SvgjsPath1009" d="M 0 4Q 0 0 4 0L 116 0Q 120 0 120 4L 120 86Q 120 90 116 90L 4 90Q 0 90 0 86Z" stroke="rgba(97,97,97,1)" stroke-width="1" fill-opacity="1" fill="#f6f3ee"></path><g id="SvgjsG1010"><text id="SvgjsText1011" font-family="微软雅黑" text-anchor="middle" font-size="16px" width="100px" fill="#3d4b58" font-weight="400" align="middle" lineHeight="125%" anchor="middle" family="微软雅黑" size="16px" weight="400" font-style="" opacity="1" y="31" transform="rotate(0)"></text></g></g><g id="SvgjsG1012" transform="translate(40,249)"><path id="SvgjsPath1013" d="M 0 4Q 0 0 4 0L 86 0Q 90 0 90 4L 90 26Q 90 30 86 30L 4 30Q 0 30 0 26Z" stroke="rgba(97,97,97,1)" stroke-width="1" fill-opacity="1" fill="#81a0aa"></path><g id="SvgjsG1014"><text id="SvgjsText1015" font-family="微软雅黑" text-anchor="middle" font-size="13px" width="70px" fill="#f6f3ee" font-weight="400" align="middle" lineHeight="125%" anchor="middle" family="微软雅黑" size="13px" weight="400" font-style="" opacity="1" y="4.375" transform="rotate(0)"><tspan id="SvgjsTspan1016" dy="16" x="45"><tspan id="SvgjsTspan1017" style="text-decoration:;">讲出来</tspan></tspan></text></g></g><g id="SvgjsG1018" transform="translate(25,203.43181818181807)"><path id="SvgjsPath1019" d="M 0 0L 120 0L 120 45L 0 45Z" stroke="none" fill="none"></path><g id="SvgjsG1020"><text id="SvgjsText1021" font-family="微软雅黑" text-anchor="middle" font-size="13px" width="120px" fill="#616161" font-weight="700" align="middle" lineHeight="125%" anchor="middle" family="微软雅黑" size="13px" weight="700" font-style="" opacity="1" y="11.875" transform="rotate(0)"><tspan id="SvgjsTspan1022" dy="16" x="60"><tspan id="SvgjsTspan1023" style="text-decoration:;">镜像神经元</tspan></tspan></text></g></g><g id="SvgjsG1024" transform="translate(173.88721804511277,203.43181818181813)"><path id="SvgjsPath1025" d="M 0 4Q 0 0 4 0L 216 0Q 220 0 220 4L 220 86Q 220 90 216 90L 4 90Q 0 90 0 86Z" stroke="rgba(97,97,97,1)" stroke-width="1" fill-opacity="1" fill="#f6f3ee"></path><g id="SvgjsG1026"><text id="SvgjsText1027" font-family="微软雅黑" text-anchor="middle" font-size="16px" width="200px" fill="#3d4b58" font-weight="400" align="middle" lineHeight="125%" anchor="middle" family="微软雅黑" size="16px" weight="400" font-style="" opacity="1" y="31" transform="rotate(0)"></text></g></g><g id="SvgjsG1028" transform="translate(188.2205513784461,249)"><path id="SvgjsPath1029" d="M 0 4Q 0 0 4 0L 86 0Q 90 0 90 4L 90 26Q 90 30 86 30L 4 30Q 0 30 0 26Z" stroke="rgba(97,97,97,1)" stroke-width="1" fill-opacity="1" fill="#81a0aa"></path><g id="SvgjsG1030"><text id="SvgjsText1031" font-family="微软雅黑" text-anchor="middle" font-size="13px" width="70px" fill="#f6f3ee" font-weight="400" align="middle" lineHeight="125%" anchor="middle" family="微软雅黑" size="13px" weight="400" font-style="" opacity="1" y="4.375" transform="rotate(0)"><tspan id="SvgjsTspan1032" dy="16" x="45"><tspan id="SvgjsTspan1033" style="text-decoration:;">画出来</tspan></tspan></text></g></g><g id="SvgjsG1034" transform="translate(291.22055137844603,249)"><path id="SvgjsPath1035" d="M 0 4Q 0 0 4 0L 86 0Q 90 0 90 4L 90 26Q 90 30 86 30L 4 30Q 0 30 0 26Z" stroke="rgba(97,97,97,1)" stroke-width="1" fill-opacity="1" fill="#81a0aa"></path><g id="SvgjsG1036"><text id="SvgjsText1037" font-family="微软雅黑" text-anchor="middle" font-size="13px" width="70px" fill="#f6f3ee" font-weight="400" align="middle" lineHeight="125%" anchor="middle" family="微软雅黑" size="13px" weight="400" font-style="" opacity="1" y="4.375" transform="rotate(0)"><tspan id="SvgjsTspan1038" dy="16" x="45"><tspan id="SvgjsTspan1039" style="text-decoration:;">写出来</tspan></tspan></text></g></g><g id="SvgjsG1040" transform="translate(173.83333333333348,203.43181818181813)"><path id="SvgjsPath1041" d="M 0 0L 220 0L 220 45L 0 45Z" stroke="none" fill="none"></path><g id="SvgjsG1042"><text id="SvgjsText1043" font-family="微软雅黑" text-anchor="middle" font-size="13px" width="220px" fill="#616161" font-weight="700" align="middle" lineHeight="125%" anchor="middle" family="微软雅黑" size="13px" weight="700" font-style="" opacity="1" y="11.875" transform="rotate(0)"><tspan id="SvgjsTspan1044" dy="16" x="110"><tspan id="SvgjsTspan1045" style="text-decoration:;">枕叶、颞下回</tspan></tspan></text></g></g><g id="SvgjsG1046" transform="translate(424.60776942355824,203.43181818181813)"><path id="SvgjsPath1047" d="M 0 4Q 0 0 4 0L 216 0Q 220 0 220 4L 220 86Q 220 90 216 90L 4 90Q 0 90 0 86Z" stroke="rgba(97,97,97,1)" stroke-width="1" fill-opacity="1" fill="#f6f3ee"></path><g id="SvgjsG1048"><text id="SvgjsText1049" font-family="微软雅黑" text-anchor="middle" font-size="16px" width="200px" fill="#3d4b58" font-weight="400" align="middle" lineHeight="125%" anchor="middle" family="微软雅黑" size="16px" weight="400" font-style="" opacity="1" y="31" transform="rotate(0)"></text></g></g><g id="SvgjsG1050" transform="translate(489.55388471177935,249)"><path id="SvgjsPath1051" d="M 0 4Q 0 0 4 0L 86 0Q 90 0 90 4L 90 26Q 90 30 86 30L 4 30Q 0 30 0 26Z" stroke="rgba(97,97,97,1)" stroke-width="1" fill-opacity="1" fill="#81a0aa"></path><g id="SvgjsG1052"><text id="SvgjsText1053" font-family="微软雅黑" text-anchor="middle" font-size="13px" width="70px" fill="#f6f3ee" font-weight="400" align="middle" lineHeight="125%" anchor="middle" family="微软雅黑" size="13px" weight="400" font-style="" opacity="1" y="4.375" transform="rotate(0)"><tspan id="SvgjsTspan1054" dy="16" x="45"><tspan id="SvgjsTspan1055" style="text-decoration:;">说出来</tspan></tspan></text></g></g><g id="SvgjsG1056" transform="translate(424.5538847117791,203.43181818181802)"><path id="SvgjsPath1057" d="M 0 0L 220 0L 220 45L 0 45Z" stroke="none" fill="none"></path><g id="SvgjsG1058"><text id="SvgjsText1059" font-family="微软雅黑" text-anchor="middle" font-size="13px" width="220px" fill="#616161" font-weight="700" align="middle" lineHeight="125%" anchor="middle" family="微软雅黑" size="13px" weight="700" font-style="" opacity="1" y="11.875" transform="rotate(0)"><tspan id="SvgjsTspan1060" dy="16" x="110"><tspan id="SvgjsTspan1061" style="text-decoration:;">前额叶、布洛卡区、颞上回</tspan></tspan></text></g></g><g id="SvgjsG1062" transform="translate(238.88721804511283,64.5681818181821)"><path id="SvgjsPath1063" d="M 0 4Q 0 0 4 0L 86 0Q 90 0 90 4L 90 26Q 90 30 86 30L 4 30Q 0 30 0 26Z" stroke="rgba(97,97,97,1)" stroke-width="1" fill-opacity="1" fill="#81a0aa"></path><g id="SvgjsG1064"><text id="SvgjsText1065" font-family="微软雅黑" text-anchor="middle" font-size="13px" width="70px" fill="#f6f3ee" font-weight="400" align="middle" lineHeight="125%" anchor="middle" family="微软雅黑" size="13px" weight="400" font-style="" opacity="1" y="4.375" transform="rotate(0)"><tspan id="SvgjsTspan1066" dy="16" x="45"><tspan id="SvgjsTspan1067" style="text-decoration:;">边说边画</tspan></tspan></text></g></g><g id="SvgjsG1068" transform="translate(473.28115743905187,64.5681818181821)"><path id="SvgjsPath1069" d="M 0 4Q 0 0 4 0L 86 0Q 90 0 90 4L 90 26Q 90 30 86 30L 4 30Q 0 30 0 26Z" stroke="rgba(97,97,97,1)" stroke-width="1" fill-opacity="1" fill="#81a0aa"></path><g id="SvgjsG1070"><text id="SvgjsText1071" font-family="微软雅黑" text-anchor="middle" font-size="13px" width="70px" fill="#f6f3ee" font-weight="400" align="middle" lineHeight="125%" anchor="middle" family="微软雅黑" size="13px" weight="400" font-style="" opacity="1" y="4.375" transform="rotate(0)"><tspan id="SvgjsTspan1072" dy="16" x="45"><tspan id="SvgjsTspan1073" style="text-decoration:;">教会别人</tspan></tspan></text></g></g><g id="SvgjsG1074"><path id="SvgjsPath1075" d="M329.38721804511283 79.5681818181821L401.08418774208235 79.5681818181821L401.08418774208235 79.56818181818244L471.4811574390519 79.56818181818244" stroke="#323232" stroke-width="1" fill="none" marker-end="url(#SvgjsMarker1076)"></path></g><g id="SvgjsG1078" transform="translate(25,337.86363636363615)"><path id="SvgjsPath1079" d="M 0 4Q 0 0 4 0L 116 0Q 120 0 120 4L 120 86Q 120 90 116 90L 4 90Q 0 90 0 86Z" stroke="rgba(97,97,97,1)" stroke-width="1" fill-opacity="1" fill="#f6f3ee"></path><g id="SvgjsG1080"><text id="SvgjsText1081" font-family="微软雅黑" text-anchor="middle" font-size="16px" width="100px" fill="#3d4b58" font-weight="400" align="middle" lineHeight="125%" anchor="middle" family="微软雅黑" size="16px" weight="400" font-style="" opacity="1" y="31" transform="rotate(0)"></text></g></g><g id="SvgjsG1082" transform="translate(40,382.86363636363626)"><path id="SvgjsPath1083" d="M 0 4Q 0 0 4 0L 86 0Q 90 0 90 4L 90 26Q 90 30 86 30L 4 30Q 0 30 0 26Z" stroke="rgba(97,97,97,1)" stroke-width="1" fill-opacity="1" fill="#81a0aa"></path><g id="SvgjsG1084"><text id="SvgjsText1085" font-family="微软雅黑" text-anchor="middle" font-size="13px" width="70px" fill="#f6f3ee" font-weight="400" align="middle" lineHeight="125%" anchor="middle" family="微软雅黑" size="13px" weight="400" font-style="" opacity="1" y="4.375" transform="rotate(0)"><tspan id="SvgjsTspan1086" dy="16" x="45"><tspan id="SvgjsTspan1087" style="text-decoration:;">奖赏</tspan></tspan></text></g></g><g id="SvgjsG1088" transform="translate(25,337.86363636363603)"><path id="SvgjsPath1089" d="M 0 0L 120 0L 120 45L 0 45Z" stroke="none" fill="none"></path><g id="SvgjsG1090"><text id="SvgjsText1091" font-family="微软雅黑" text-anchor="middle" font-size="13px" width="120px" fill="#616161" font-weight="700" align="middle" lineHeight="125%" anchor="middle" family="微软雅黑" size="13px" weight="700" font-style="" opacity="1" y="11.875" transform="rotate(0)"><tspan id="SvgjsTspan1092" dy="16" x="60"><tspan id="SvgjsTspan1093" style="text-decoration:;">下丘脑</tspan></tspan></text></g></g><g id="SvgjsG1094"><path id="SvgjsPath1095" d="M85 279.5L85 308.431818181818L85 308.431818181818L85 335.5636363636361" stroke="#323232" stroke-width="1" fill="none" marker-end="url(#SvgjsMarker1096)"></path></g><g id="SvgjsG1098" transform="translate(100,300.647727272727)"><path id="SvgjsPath1099" d="M 0 0L 120 0L 120 30L 0 30Z" stroke="none" fill="none"></path><g id="SvgjsG1100"><text id="SvgjsText1101" font-family="微软雅黑" text-anchor="middle" font-size="13px" width="120px" fill="#323232" font-weight="400" align="middle" lineHeight="125%" anchor="middle" family="微软雅黑" size="13px" weight="400" font-style="" opacity="1" y="4.375" transform="rotate(0)"><tspan id="SvgjsTspan1102" dy="16" x="60"><tspan id="SvgjsTspan1103" style="text-decoration:;">让对方听得津津有味</tspan></tspan></text></g></g><g id="SvgjsG1104" transform="translate(183.88721804511283,25.000000000000227)"><path id="SvgjsPath1105" d="M 0 0L 200 0L 200 30L 0 30Z" stroke="none" fill="none"></path><g id="SvgjsG1106"><text id="SvgjsText1107" font-family="微软雅黑" text-anchor="middle" font-size="13px" width="200px" fill="#323232" font-weight="400" align="middle" lineHeight="125%" anchor="middle" family="微软雅黑" size="13px" weight="400" font-style="" opacity="1" y="4.375" transform="rotate(0)"><tspan id="SvgjsTspan1108" dy="16" x="100"><tspan id="SvgjsTspan1109" style="text-decoration:;">唤醒脑区域越多，知识掌握越深刻</tspan></tspan></text></g></g><g id="SvgjsG1110" transform="translate(25,139.0000000000001)"><path id="SvgjsPath1111" d="M 0 4Q 0 0 4 0L 615.5538847117791 0Q 619.5538847117791 0 619.5538847117791 4L 619.5538847117791 16Q 619.5538847117791 20 615.5538847117791 20L 4 20Q 0 20 0 16Z" stroke="none" fill-opacity="1" fill="#323232"></path></g><g id="SvgjsG1112" transform="translate(344.55388471177906,101.7840909090911)"><path id="SvgjsPath1113" d="M 0 0L 300 0L 300 30L 0 30Z" stroke="none" fill="none"></path><g id="SvgjsG1114"><text id="SvgjsText1115" font-family="微软雅黑" text-anchor="middle" font-size="13px" width="300px" fill="#688f4d" font-weight="400" align="middle" lineHeight="125%" anchor="middle" family="微软雅黑" size="13px" weight="400" font-style="" opacity="1" y="4.375" transform="rotate(0)"><tspan id="SvgjsTspan1116" dy="16" x="150"><tspan id="SvgjsTspan1117" style="text-decoration:;">Tips：不限于营造体验、同时沟通、亲子教学等</tspan></tspan></text></g></g><g id="SvgjsG1118"><path id="SvgjsPath1119" d="M283.88721804511283 95.0681818181821L283.88721804511283 116.78409090909105L283.88721804511283 116.78409090909105L283.88721804511283 136.7" stroke="#323232" stroke-width="1" fill="none" marker-end="url(#SvgjsMarker1120)"></path></g><g id="SvgjsG1122"><path id="SvgjsPath1123" d="M84 160L84 181.215909090909L84 181.215909090909L84 201.13181818181806" stroke="#323232" stroke-width="1" fill="none" marker-end="url(#SvgjsMarker1124)"></path></g><g id="SvgjsG1126"><path id="SvgjsPath1127" d="M283.8333333333335 156L283.8333333333335 179.71590909090907L283.8333333333335 179.71590909090907L283.8333333333335 201.13181818181812" stroke="#323232" stroke-width="1" fill="none" marker-end="url(#SvgjsMarker1128)"></path></g><g id="SvgjsG1130"><path id="SvgjsPath1131" d="M534.5538847117791 160L534.5538847117791 181.215909090909L534.5538847117791 181.215909090909L534.5538847117791 201.131818181818" stroke="#323232" stroke-width="1" fill="none" marker-end="url(#SvgjsMarker1132)"></path></g><g id="SvgjsG1134" transform="translate(85,166.21590909090912)"><path id="SvgjsPath1135" d="M 0 0L 60 0L 60 30L 0 30Z" stroke="none" fill="none"></path><g id="SvgjsG1136"><text id="SvgjsText1137" font-family="微软雅黑" text-anchor="middle" font-size="13px" width="60px" fill="#688f4e" font-weight="400" align="middle" lineHeight="125%" anchor="middle" family="微软雅黑" size="13px" weight="400" font-style="" opacity="1" y="4.375" transform="rotate(0)"><tspan id="SvgjsTspan1138" dy="16" x="30"><tspan id="SvgjsTspan1139" style="text-decoration:;">激活</tspan></tspan></text></g></g><g id="SvgjsG1140" transform="translate(284.55388471177906,166.21590909090912)"><path id="SvgjsPath1141" d="M 0 0L 60 0L 60 30L 0 30Z" stroke="none" fill="none"></path><g id="SvgjsG1142"><text id="SvgjsText1143" font-family="微软雅黑" text-anchor="middle" font-size="13px" width="60px" fill="#688f4e" font-weight="400" align="middle" lineHeight="125%" anchor="middle" family="微软雅黑" size="13px" weight="400" font-style="" opacity="1" y="4.375" transform="rotate(0)"><tspan id="SvgjsTspan1144" dy="16" x="30"><tspan id="SvgjsTspan1145" style="text-decoration:;">激活</tspan></tspan></text></g></g><g id="SvgjsG1146" transform="translate(535.5538847117791,166.21590909090912)"><path id="SvgjsPath1147" d="M 0 0L 60 0L 60 30L 0 30Z" stroke="none" fill="none"></path><g id="SvgjsG1148"><text id="SvgjsText1149" font-family="微软雅黑" text-anchor="middle" font-size="13px" width="60px" fill="#688f4e" font-weight="400" align="middle" lineHeight="125%" anchor="middle" family="微软雅黑" size="13px" weight="400" font-style="" opacity="1" y="4.375" transform="rotate(0)"><tspan id="SvgjsTspan1150" dy="16" x="30"><tspan id="SvgjsTspan1151" style="text-decoration:;">激活</tspan></tspan></text></g></g><g id="SvgjsG1152" transform="translate(25,300.647727272727)"><path id="SvgjsPath1153" d="M 0 0L 60 0L 60 30L 0 30Z" stroke="none" fill="none"></path><g id="SvgjsG1154"><text id="SvgjsText1155" font-family="微软雅黑" text-anchor="middle" font-size="13px" width="60px" fill="#688f4e" font-weight="400" align="middle" lineHeight="125%" anchor="middle" family="微软雅黑" size="13px" weight="400" font-style="" opacity="1" y="4.375" transform="rotate(0)"><tspan id="SvgjsTspan1156" dy="16" x="30"><tspan id="SvgjsTspan1157" style="text-decoration:;">激活</tspan></tspan></text></g></g><g id="SvgjsG1158" transform="translate(224.55388471177906,101.7840909090911)"><path id="SvgjsPath1159" d="M 0 0L 60 0L 60 30L 0 30Z" stroke="none" fill="none"></path><g id="SvgjsG1160"><text id="SvgjsText1161" font-family="微软雅黑" text-anchor="middle" font-size="13px" width="60px" fill="#688f4e" font-weight="400" align="middle" lineHeight="125%" anchor="middle" family="微软雅黑" size="13px" weight="400" font-style="" opacity="1" y="4.375" transform="rotate(0)"><tspan id="SvgjsTspan1162" dy="16" x="30"><tspan id="SvgjsTspan1163" style="text-decoration:;">同步</tspan></tspan></text></g></g><g id="SvgjsG1164" transform="translate(474.60776942355824,382.86363636363603)"><path id="SvgjsPath1165" d="M 0 0L 120 0L 120 30L 0 30Z" stroke="none" fill="none"></path><g id="SvgjsG1166"><text id="SvgjsText1167" font-family="&quot;Times New Roman&quot;" text-anchor="middle" font-size="13px" width="120px" fill="#e0e0e0" font-weight="400" align="middle" lineHeight="125%" anchor="middle" family="&quot;Times New Roman&quot;" size="13px" weight="400" font-style="" opacity="1" y="4.375" transform="rotate(0)"><tspan id="SvgjsTspan1168" dy="16" x="60"><tspan id="SvgjsTspan1169" style="text-decoration:;">www.kofes.cn</tspan></tspan></text></g></g></svg>