<svg id="SvgjsSvg1006" width="632.9609375" height="250.1796875" xmlns="http://www.w3.org/2000/svg" version="1.1" xmlns:xlink="http://www.w3.org/1999/xlink" xmlns:svgjs="http://svgjs.com/svgjs"><defs id="SvgjsDefs1007"></defs><g id="SvgjsG1008" transform="translate(58.96497916666695,65.18060064935094)"><path id="SvgjsPath1009" d="M0 0L68.568 0L68.568 39.999 L0 39.999Z" stroke="rgba(224,224,224,1)" stroke-width="1" fill-opacity="1" fill="#fafafa"></path><path id="SvgjsPath1010" d="M68.568 0L137.136 0L137.136 39.999 L68.568 39.999Z" stroke="rgba(224,224,224,1)" stroke-width="1" fill-opacity="1" fill="#fafafa"></path><path id="SvgjsPath1011" d="M137.136 0L205.704 0L205.704 39.999 L137.136 39.999Z" stroke="rgba(224,224,224,1)" stroke-width="1" fill-opacity="1" fill="#fafafa"></path><path id="SvgjsPath1012" d="M205.704 0L274.272 0L274.272 39.999 L205.704 39.999Z" stroke="rgba(224,224,224,1)" stroke-width="1" fill-opacity="1" fill="#fafafa"></path><path id="SvgjsPath1013" d="M274.272 0L342.84 0L342.84 39.999 L274.272 39.999Z" stroke="rgba(224,224,224,1)" stroke-width="1" fill-opacity="1" fill="#fafafa"></path><path id="SvgjsPath1014" d="M342.84 0L411.40799999999996 0L411.40799999999996 39.999 L342.84 39.999Z" stroke="rgba(224,224,224,1)" stroke-width="1" fill-opacity="1" fill="#fafafa"></path><path id="SvgjsPath1015" d="M411.408 0L479.976 0L479.976 39.999 L411.408 39.999Z" stroke="rgba(224,224,224,1)" stroke-width="1" fill-opacity="1" fill="#fafafa"></path><path id="SvgjsPath1016" d="M479.976 0L548.544 0L548.544 39.999 L479.976 39.999Z" stroke="rgba(224,224,224,1)" stroke-width="1" fill-opacity="1" fill="#fafafa"></path><path id="SvgjsPath1017" d="M0 39.999L68.568 39.999L68.568 79.998 L0 79.998Z" stroke="rgba(224,224,224,1)" stroke-width="1" fill-opacity="1" fill="#ffffff"></path><path id="SvgjsPath1018" d="M68.568 39.999L137.136 39.999L137.136 79.998 L68.568 79.998Z" stroke="rgba(224,224,224,1)" stroke-width="1" fill-opacity="1" fill="#ffffff"></path><path id="SvgjsPath1019" d="M137.136 39.999L205.704 39.999L205.704 79.998 L137.136 79.998Z" stroke="rgba(224,224,224,1)" stroke-width="1" fill-opacity="1" fill="#ffffff"></path><path id="SvgjsPath1020" d="M205.704 39.999L274.272 39.999L274.272 79.998 L205.704 79.998Z" stroke="rgba(224,224,224,1)" stroke-width="1" fill-opacity="1" fill="#ffffff"></path><path id="SvgjsPath1021" d="M274.272 39.999L342.84 39.999L342.84 79.998 L274.272 79.998Z" stroke="rgba(224,224,224,1)" stroke-width="1" fill-opacity="1" fill="#ffffff"></path><path id="SvgjsPath1022" d="M342.84 39.999L411.40799999999996 39.999L411.40799999999996 79.998 L342.84 79.998Z" stroke="rgba(224,224,224,1)" stroke-width="1" fill-opacity="1" fill="#ffffff"></path><path id="SvgjsPath1023" d="M411.408 39.999L479.976 39.999L479.976 79.998 L411.408 79.998Z" stroke="rgba(224,224,224,1)" stroke-width="1" fill-opacity="1" fill="#ffffff"></path><path id="SvgjsPath1024" d="M479.976 39.999L548.544 39.999L548.544 79.998 L479.976 79.998Z" stroke="rgba(224,224,224,1)" stroke-width="1" fill-opacity="1" fill="#ffffff"></path><path id="SvgjsPath1025" d="M0 79.998L68.568 79.998L68.568 119.99700000000001 L0 119.99700000000001Z" stroke="rgba(224,224,224,1)" stroke-width="1" fill-opacity="1" fill="#fafafa"></path><path id="SvgjsPath1026" d="M68.568 79.998L137.136 79.998L137.136 119.99700000000001 L68.568 119.99700000000001Z" stroke="rgba(224,224,224,1)" stroke-width="1" fill-opacity="1" fill="#fafafa"></path><path id="SvgjsPath1027" d="M137.136 79.998L205.704 79.998L205.704 119.99700000000001 L137.136 119.99700000000001Z" stroke="rgba(224,224,224,1)" stroke-width="1" fill-opacity="1" fill="#fafafa"></path><path id="SvgjsPath1028" d="M205.704 79.998L274.272 79.998L274.272 119.99700000000001 L205.704 119.99700000000001Z" stroke="rgba(224,224,224,1)" stroke-width="1" fill-opacity="1" fill="#fafafa"></path><path id="SvgjsPath1029" d="M274.272 79.998L342.84 79.998L342.84 119.99700000000001 L274.272 119.99700000000001Z" stroke="rgba(224,224,224,1)" stroke-width="1" fill-opacity="1" fill="#fafafa"></path><path id="SvgjsPath1030" d="M342.84 79.998L411.40799999999996 79.998L411.40799999999996 119.99700000000001 L342.84 119.99700000000001Z" stroke="rgba(224,224,224,1)" stroke-width="1" fill-opacity="1" fill="#fafafa"></path><path id="SvgjsPath1031" d="M411.408 79.998L479.976 79.998L479.976 119.99700000000001 L411.408 119.99700000000001Z" stroke="rgba(224,224,224,1)" stroke-width="1" fill-opacity="1" fill="#fafafa"></path><path id="SvgjsPath1032" d="M479.976 79.998L548.544 79.998L548.544 119.99700000000001 L479.976 119.99700000000001Z" stroke="rgba(224,224,224,1)" stroke-width="1" fill-opacity="1" fill="#fafafa"></path><path id="SvgjsPath1033" d="M0 119.99700000000001L68.568 119.99700000000001L68.568 159.996 L0 159.996Z" stroke="rgba(224,224,224,1)" stroke-width="1" fill-opacity="1" fill="#ffffff"></path><path id="SvgjsPath1034" d="M68.568 119.99700000000001L137.136 119.99700000000001L137.136 159.996 L68.568 159.996Z" stroke="rgba(224,224,224,1)" stroke-width="1" fill-opacity="1" fill="#ffffff"></path><path id="SvgjsPath1035" d="M137.136 119.99700000000001L205.704 119.99700000000001L205.704 159.996 L137.136 159.996Z" stroke="rgba(224,224,224,1)" stroke-width="1" fill-opacity="1" fill="#ffffff"></path><path id="SvgjsPath1036" d="M205.704 119.99700000000001L274.272 119.99700000000001L274.272 159.996 L205.704 159.996Z" stroke="rgba(224,224,224,1)" stroke-width="1" fill-opacity="1" fill="#ffffff"></path><path id="SvgjsPath1037" d="M274.272 119.99700000000001L342.84 119.99700000000001L342.84 159.996 L274.272 159.996Z" stroke="rgba(224,224,224,1)" stroke-width="1" fill-opacity="1" fill="#ffffff"></path><path id="SvgjsPath1038" d="M342.84 119.99700000000001L411.40799999999996 119.99700000000001L411.40799999999996 159.996 L342.84 159.996Z" stroke="rgba(224,224,224,1)" stroke-width="1" fill-opacity="1" fill="#ffffff"></path><path id="SvgjsPath1039" d="M411.408 119.99700000000001L479.976 119.99700000000001L479.976 159.996 L411.408 159.996Z" stroke="rgba(224,224,224,1)" stroke-width="1" fill-opacity="1" fill="#ffffff"></path><path id="SvgjsPath1040" d="M479.976 119.99700000000001L548.544 119.99700000000001L548.544 159.996 L479.976 159.996Z" stroke="rgba(224,224,224,1)" stroke-width="1" fill-opacity="1" fill="#ffffff"></path><g id="SvgjsG1041"><text id="SvgjsText1042" font-family="微软雅黑" text-anchor="middle" font-size="13px" width="69px" fill="#323232" font-weight="400" align="middle" lineHeight="125%" anchor="middle" family="微软雅黑" size="13px" weight="400" font-style="" opacity="1" y="9.874500000000001" transform="rotate(0)"></text></g><g id="SvgjsG1043"><text id="SvgjsText1044" font-family="微软雅黑" text-anchor="middle" font-size="13px" width="69px" fill="#323232" font-weight="400" align="middle" lineHeight="125%" anchor="middle" family="微软雅黑" size="13px" weight="400" font-style="" opacity="1" y="9.874500000000001" transform="rotate(0)"><tspan id="SvgjsTspan1045" dy="16" x="103.068"><tspan id="SvgjsTspan1046" style="text-decoration:;">周一</tspan></tspan></text></g><g id="SvgjsG1047"><text id="SvgjsText1048" font-family="微软雅黑" text-anchor="middle" font-size="13px" width="69px" fill="#323232" font-weight="400" align="middle" lineHeight="125%" anchor="middle" family="微软雅黑" size="13px" weight="400" font-style="" opacity="1" y="9.874500000000001" transform="rotate(0)"><tspan id="SvgjsTspan1049" dy="16" x="171.636"><tspan id="SvgjsTspan1050" style="text-decoration:;">周二</tspan></tspan></text></g><g id="SvgjsG1051"><text id="SvgjsText1052" font-family="微软雅黑" text-anchor="middle" font-size="13px" width="69px" fill="#323232" font-weight="400" align="middle" lineHeight="125%" anchor="middle" family="微软雅黑" size="13px" weight="400" font-style="" opacity="1" y="9.874500000000001" transform="rotate(0)"><tspan id="SvgjsTspan1053" dy="16" x="240.204"><tspan id="SvgjsTspan1054" style="text-decoration:;">周三</tspan></tspan></text></g><g id="SvgjsG1055"><text id="SvgjsText1056" font-family="微软雅黑" text-anchor="middle" font-size="13px" width="69px" fill="#323232" font-weight="400" align="middle" lineHeight="125%" anchor="middle" family="微软雅黑" size="13px" weight="400" font-style="" opacity="1" y="9.874500000000001" transform="rotate(0)"><tspan id="SvgjsTspan1057" dy="16" x="308.772"><tspan id="SvgjsTspan1058" style="text-decoration:;">周四</tspan></tspan></text></g><g id="SvgjsG1059"><text id="SvgjsText1060" font-family="微软雅黑" text-anchor="middle" font-size="13px" width="69px" fill="#323232" font-weight="400" align="middle" lineHeight="125%" anchor="middle" family="微软雅黑" size="13px" weight="400" font-style="" opacity="1" y="9.874500000000001" transform="rotate(0)"><tspan id="SvgjsTspan1061" dy="16" x="377.34"><tspan id="SvgjsTspan1062" style="text-decoration:;">周五</tspan></tspan></text></g><g id="SvgjsG1063"><text id="SvgjsText1064" font-family="微软雅黑" text-anchor="middle" font-size="13px" width="69px" fill="#323232" font-weight="400" align="middle" lineHeight="125%" anchor="middle" family="微软雅黑" size="13px" weight="400" font-style="" opacity="1" y="9.874500000000001" transform="rotate(0)"><tspan id="SvgjsTspan1065" dy="16" x="445.908"><tspan id="SvgjsTspan1066" style="text-decoration:;">周六</tspan></tspan></text></g><g id="SvgjsG1067"><text id="SvgjsText1068" font-family="微软雅黑" text-anchor="middle" font-size="13px" width="69px" fill="#323232" font-weight="400" align="middle" lineHeight="125%" anchor="middle" family="微软雅黑" size="13px" weight="400" font-style="" opacity="1" y="9.874500000000001" transform="rotate(0)"><tspan id="SvgjsTspan1069" dy="16" x="514.476"><tspan id="SvgjsTspan1070" style="text-decoration:;">周日</tspan></tspan></text></g><g id="SvgjsG1071"><text id="SvgjsText1072" font-family="微软雅黑" text-anchor="middle" font-size="13px" width="69px" fill="#323232" font-weight="400" align="middle" lineHeight="125%" anchor="middle" family="微软雅黑" size="13px" weight="400" font-style="" opacity="1" y="49.87350000000001" transform="rotate(0)"><tspan id="SvgjsTspan1073" dy="16" x="34.5"><tspan id="SvgjsTspan1074" style="text-decoration:;">早睡</tspan></tspan></text></g><g id="SvgjsG1075"><text id="SvgjsText1076" font-family="微软雅黑" text-anchor="middle" font-size="13px" width="69px" fill="#323232" font-weight="400" align="middle" lineHeight="125%" anchor="middle" family="微软雅黑" size="13px" weight="400" font-style="" opacity="1" y="49.87350000000001" transform="rotate(0)"></text></g><g id="SvgjsG1077"><text id="SvgjsText1078" font-family="微软雅黑" text-anchor="middle" font-size="13px" width="69px" fill="#323232" font-weight="400" align="middle" lineHeight="125%" anchor="middle" family="微软雅黑" size="13px" weight="400" font-style="" opacity="1" y="49.87350000000001" transform="rotate(0)"></text></g><g id="SvgjsG1079"><text id="SvgjsText1080" font-family="微软雅黑" text-anchor="middle" font-size="13px" width="69px" fill="#323232" font-weight="400" align="middle" lineHeight="125%" anchor="middle" family="微软雅黑" size="13px" weight="400" font-style="" opacity="1" y="49.87350000000001" transform="rotate(0)"></text></g><g id="SvgjsG1081"><text id="SvgjsText1082" font-family="微软雅黑" text-anchor="middle" font-size="13px" width="69px" fill="#323232" font-weight="400" align="middle" lineHeight="125%" anchor="middle" family="微软雅黑" size="13px" weight="400" font-style="" opacity="1" y="49.87350000000001" transform="rotate(0)"></text></g><g id="SvgjsG1083"><text id="SvgjsText1084" font-family="微软雅黑" text-anchor="middle" font-size="13px" width="69px" fill="#323232" font-weight="400" align="middle" lineHeight="125%" anchor="middle" family="微软雅黑" size="13px" weight="400" font-style="" opacity="1" y="49.87350000000001" transform="rotate(0)"></text></g><g id="SvgjsG1085"><text id="SvgjsText1086" font-family="微软雅黑" text-anchor="middle" font-size="13px" width="69px" fill="#323232" font-weight="400" align="middle" lineHeight="125%" anchor="middle" family="微软雅黑" size="13px" weight="400" font-style="" opacity="1" y="49.87350000000001" transform="rotate(0)"></text></g><g id="SvgjsG1087"><text id="SvgjsText1088" font-family="微软雅黑" text-anchor="middle" font-size="13px" width="69px" fill="#323232" font-weight="400" align="middle" lineHeight="125%" anchor="middle" family="微软雅黑" size="13px" weight="400" font-style="" opacity="1" y="49.87350000000001" transform="rotate(0)"></text></g><g id="SvgjsG1089"><text id="SvgjsText1090" font-family="微软雅黑" text-anchor="middle" font-size="13px" width="69px" fill="#323232" font-weight="400" align="middle" lineHeight="125%" anchor="middle" family="微软雅黑" size="13px" weight="400" font-style="" opacity="1" y="89.8725" transform="rotate(0)"><tspan id="SvgjsTspan1091" dy="16" x="34.5"><tspan id="SvgjsTspan1092" style="text-decoration:;">锻炼</tspan></tspan></text></g><g id="SvgjsG1093"><text id="SvgjsText1094" font-family="微软雅黑" text-anchor="middle" font-size="13px" width="69px" fill="#323232" font-weight="400" align="middle" lineHeight="125%" anchor="middle" family="微软雅黑" size="13px" weight="400" font-style="" opacity="1" y="89.8725" transform="rotate(0)"></text></g><g id="SvgjsG1095"><text id="SvgjsText1096" font-family="微软雅黑" text-anchor="middle" font-size="13px" width="69px" fill="#323232" font-weight="400" align="middle" lineHeight="125%" anchor="middle" family="微软雅黑" size="13px" weight="400" font-style="" opacity="1" y="89.8725" transform="rotate(0)"></text></g><g id="SvgjsG1097"><text id="SvgjsText1098" font-family="微软雅黑" text-anchor="middle" font-size="13px" width="69px" fill="#323232" font-weight="400" align="middle" lineHeight="125%" anchor="middle" family="微软雅黑" size="13px" weight="400" font-style="" opacity="1" y="89.8725" transform="rotate(0)"></text></g><g id="SvgjsG1099"><text id="SvgjsText1100" font-family="微软雅黑" text-anchor="middle" font-size="13px" width="69px" fill="#323232" font-weight="400" align="middle" lineHeight="125%" anchor="middle" family="微软雅黑" size="13px" weight="400" font-style="" opacity="1" y="89.8725" transform="rotate(0)"></text></g><g id="SvgjsG1101"><text id="SvgjsText1102" font-family="微软雅黑" text-anchor="middle" font-size="13px" width="69px" fill="#323232" font-weight="400" align="middle" lineHeight="125%" anchor="middle" family="微软雅黑" size="13px" weight="400" font-style="" opacity="1" y="89.8725" transform="rotate(0)"></text></g><g id="SvgjsG1103"><text id="SvgjsText1104" font-family="微软雅黑" text-anchor="middle" font-size="13px" width="69px" fill="#323232" font-weight="400" align="middle" lineHeight="125%" anchor="middle" family="微软雅黑" size="13px" weight="400" font-style="" opacity="1" y="89.8725" transform="rotate(0)"></text></g><g id="SvgjsG1105"><text id="SvgjsText1106" font-family="微软雅黑" text-anchor="middle" font-size="13px" width="69px" fill="#323232" font-weight="400" align="middle" lineHeight="125%" anchor="middle" family="微软雅黑" size="13px" weight="400" font-style="" opacity="1" y="89.8725" transform="rotate(0)"></text></g><g id="SvgjsG1107"><text id="SvgjsText1108" font-family="微软雅黑" text-anchor="middle" font-size="13px" width="69px" fill="#323232" font-weight="400" align="middle" lineHeight="125%" anchor="middle" family="微软雅黑" size="13px" weight="400" font-style="" opacity="1" y="129.87150000000003" transform="rotate(0)"><tspan id="SvgjsTspan1109" dy="16" x="34.5"><tspan id="SvgjsTspan1110" style="text-decoration:;">戒糖</tspan></tspan></text></g><g id="SvgjsG1111"><text id="SvgjsText1112" font-family="微软雅黑" text-anchor="middle" font-size="13px" width="69px" fill="#323232" font-weight="400" align="middle" lineHeight="125%" anchor="middle" family="微软雅黑" size="13px" weight="400" font-style="" opacity="1" y="129.87150000000003" transform="rotate(0)"></text></g><g id="SvgjsG1113"><text id="SvgjsText1114" font-family="微软雅黑" text-anchor="middle" font-size="13px" width="69px" fill="#323232" font-weight="400" align="middle" lineHeight="125%" anchor="middle" family="微软雅黑" size="13px" weight="400" font-style="" opacity="1" y="129.87150000000003" transform="rotate(0)"></text></g><g id="SvgjsG1115"><text id="SvgjsText1116" font-family="微软雅黑" text-anchor="middle" font-size="13px" width="69px" fill="#323232" font-weight="400" align="middle" lineHeight="125%" anchor="middle" family="微软雅黑" size="13px" weight="400" font-style="" opacity="1" y="129.87150000000003" transform="rotate(0)"></text></g><g id="SvgjsG1117"><text id="SvgjsText1118" font-family="微软雅黑" text-anchor="middle" font-size="13px" width="69px" fill="#323232" font-weight="400" align="middle" lineHeight="125%" anchor="middle" family="微软雅黑" size="13px" weight="400" font-style="" opacity="1" y="129.87150000000003" transform="rotate(0)"></text></g><g id="SvgjsG1119"><text id="SvgjsText1120" font-family="微软雅黑" text-anchor="middle" font-size="13px" width="69px" fill="#323232" font-weight="400" align="middle" lineHeight="125%" anchor="middle" family="微软雅黑" size="13px" weight="400" font-style="" opacity="1" y="129.87150000000003" transform="rotate(0)"></text></g><g id="SvgjsG1121"><text id="SvgjsText1122" font-family="微软雅黑" text-anchor="middle" font-size="13px" width="69px" fill="#323232" font-weight="400" align="middle" lineHeight="125%" anchor="middle" family="微软雅黑" size="13px" weight="400" font-style="" opacity="1" y="129.87150000000003" transform="rotate(0)"></text></g><g id="SvgjsG1123"><text id="SvgjsText1124" font-family="微软雅黑" text-anchor="middle" font-size="13px" width="69px" fill="#323232" font-weight="400" align="middle" lineHeight="125%" anchor="middle" family="微软雅黑" size="13px" weight="400" font-style="" opacity="1" y="129.87150000000003" transform="rotate(0)"></text></g></g><g id="SvgjsG1125" transform="translate(151.60654438405777,114.00744047619048)"><path id="SvgjsPath1126" d="M 0 10C 0 -3.3333333333333335 20 -3.3333333333333335 20 10C 20 23.333333333333332 0 23.333333333333332 0 10Z" stroke="none" fill-opacity="1" fill="#ff9b96"></path><g id="SvgjsG1127"><text id="SvgjsText1128" font-family="微软雅黑" text-anchor="middle" font-size="13px" width="0px" fill="#323232" font-weight="400" align="middle" lineHeight="125%" anchor="middle" family="微软雅黑" size="13px" weight="400" font-style="" opacity="1" y="-0.125" transform="rotate(0)"></text></g></g><g id="SvgjsG1129" transform="translate(151.60654438405777,155.00744047619054)"><path id="SvgjsPath1130" d="M 0 10C 0 -3.3333333333333335 20 -3.3333333333333335 20 10C 20 23.333333333333332 0 23.333333333333332 0 10Z" stroke="none" fill-opacity="1" fill="#b2d182"></path><g id="SvgjsG1131"><text id="SvgjsText1132" font-family="微软雅黑" text-anchor="middle" font-size="13px" width="0px" fill="#323232" font-weight="400" align="middle" lineHeight="125%" anchor="middle" family="微软雅黑" size="13px" weight="400" font-style="" opacity="1" y="-0.125" transform="rotate(0)"></text></g></g><g id="SvgjsG1133" transform="translate(151.60654438405777,196.0074404761906)"><path id="SvgjsPath1134" d="M 0 10C 0 -3.3333333333333335 20 -3.3333333333333335 20 10C 20 23.333333333333332 0 23.333333333333332 0 10Z" stroke="none" fill-opacity="1" fill="#7fa7b8"></path><g id="SvgjsG1135"><text id="SvgjsText1136" font-family="微软雅黑" text-anchor="middle" font-size="13px" width="0px" fill="#323232" font-weight="400" align="middle" lineHeight="125%" anchor="middle" family="微软雅黑" size="13px" weight="400" font-style="" opacity="1" y="-0.125" transform="rotate(0)"></text></g></g><g id="SvgjsG1137" transform="translate(220.8166893115942,114.00744047619048)"><path id="SvgjsPath1138" d="M 0 10C 0 -3.3333333333333335 20 -3.3333333333333335 20 10C 20 23.333333333333332 0 23.333333333333332 0 10Z" stroke="none" fill-opacity="1" fill="#dddddd"></path><g id="SvgjsG1139"><text id="SvgjsText1140" font-family="微软雅黑" text-anchor="middle" font-size="13px" width="0px" fill="#323232" font-weight="400" align="middle" lineHeight="125%" anchor="middle" family="微软雅黑" size="13px" weight="400" font-style="" opacity="1" y="-0.125" transform="rotate(0)"></text></g></g><g id="SvgjsG1141" transform="translate(290.0268342391305,114.00744047619048)"><path id="SvgjsPath1142" d="M 0 10C 0 -3.3333333333333335 20 -3.3333333333333335 20 10C 20 23.333333333333332 0 23.333333333333332 0 10Z" stroke="none" fill-opacity="0.75" fill="#ff9b96"></path><g id="SvgjsG1143"><text id="SvgjsText1144" font-family="微软雅黑" text-anchor="middle" font-size="13px" width="0px" fill="#323232" font-weight="400" align="middle" lineHeight="125%" anchor="middle" family="微软雅黑" size="13px" weight="400" font-style="" opacity="0.75" y="-0.125" transform="rotate(0)"></text></g></g><g id="SvgjsG1145" transform="translate(359.23697916666674,114.00744047619048)"><path id="SvgjsPath1146" d="M 0 10C 0 -3.3333333333333335 20 -3.3333333333333335 20 10C 20 23.333333333333332 0 23.333333333333332 0 10Z" stroke="none" fill-opacity="1" fill="#dddddd"></path><g id="SvgjsG1147"><text id="SvgjsText1148" font-family="微软雅黑" text-anchor="middle" font-size="13px" width="0px" fill="#323232" font-weight="400" align="middle" lineHeight="125%" anchor="middle" family="微软雅黑" size="13px" weight="400" font-style="" opacity="1" y="-0.125" transform="rotate(0)"></text></g></g><g id="SvgjsG1149" transform="translate(428.447124094203,114.00744047619048)"><path id="SvgjsPath1150" d="M 0 10C 0 -3.3333333333333335 20 -3.3333333333333335 20 10C 20 23.333333333333332 0 23.333333333333332 0 10Z" stroke="none" fill-opacity="1" fill="#ff9b96"></path><g id="SvgjsG1151"><text id="SvgjsText1152" font-family="微软雅黑" text-anchor="middle" font-size="13px" width="0px" fill="#323232" font-weight="400" align="middle" lineHeight="125%" anchor="middle" family="微软雅黑" size="13px" weight="400" font-style="" opacity="1" y="-0.125" transform="rotate(0)"></text></g></g><g id="SvgjsG1153" transform="translate(497.65726902173924,114.00744047619048)"><path id="SvgjsPath1154" d="M 0 10C 0 -3.3333333333333335 20 -3.3333333333333335 20 10C 20 23.333333333333332 0 23.333333333333332 0 10Z" stroke="none" fill-opacity="0.25" fill="#ff9b96"></path><g id="SvgjsG1155"><text id="SvgjsText1156" font-family="微软雅黑" text-anchor="middle" font-size="13px" width="0px" fill="#323232" font-weight="400" align="middle" lineHeight="125%" anchor="middle" family="微软雅黑" size="13px" weight="400" font-style="" opacity="0.25" y="-0.125" transform="rotate(0)"></text></g></g><g id="SvgjsG1157" transform="translate(566.8674139492754,114.00744047619048)"><path id="SvgjsPath1158" d="M 0 10C 0 -3.3333333333333335 20 -3.3333333333333335 20 10C 20 23.333333333333332 0 23.333333333333332 0 10Z" stroke="none" fill-opacity="1" fill="#ff9b96"></path><g id="SvgjsG1159"><text id="SvgjsText1160" font-family="微软雅黑" text-anchor="middle" font-size="13px" width="0px" fill="#323232" font-weight="400" align="middle" lineHeight="125%" anchor="middle" family="微软雅黑" size="13px" weight="400" font-style="" opacity="1" y="-0.125" transform="rotate(0)"></text></g></g><g id="SvgjsG1161" transform="translate(220.8166893115942,155.00744047619054)"><path id="SvgjsPath1162" d="M 0 10C 0 -3.3333333333333335 20 -3.3333333333333335 20 10C 20 23.333333333333332 0 23.333333333333332 0 10Z" stroke="none" fill-opacity="1" fill="#dddddd"></path><g id="SvgjsG1163"><text id="SvgjsText1164" font-family="微软雅黑" text-anchor="middle" font-size="13px" width="0px" fill="#323232" font-weight="400" align="middle" lineHeight="125%" anchor="middle" family="微软雅黑" size="13px" weight="400" font-style="" opacity="1" y="-0.125" transform="rotate(0)"></text></g></g><g id="SvgjsG1165" transform="translate(290.0268342391305,155.00744047619054)"><path id="SvgjsPath1166" d="M 0 10C 0 -3.3333333333333335 20 -3.3333333333333335 20 10C 20 23.333333333333332 0 23.333333333333332 0 10Z" stroke="none" fill-opacity="1" fill="#b2d182"></path><g id="SvgjsG1167"><text id="SvgjsText1168" font-family="微软雅黑" text-anchor="middle" font-size="13px" width="0px" fill="#323232" font-weight="400" align="middle" lineHeight="125%" anchor="middle" family="微软雅黑" size="13px" weight="400" font-style="" opacity="1" y="-0.125" transform="rotate(0)"></text></g></g><g id="SvgjsG1169" transform="translate(359.23697916666697,155.00744047619054)"><path id="SvgjsPath1170" d="M 0 10C 0 -3.3333333333333335 20 -3.3333333333333335 20 10C 20 23.333333333333332 0 23.333333333333332 0 10Z" stroke="none" fill-opacity="1" fill="#dddddd"></path><g id="SvgjsG1171"><text id="SvgjsText1172" font-family="微软雅黑" text-anchor="middle" font-size="13px" width="0px" fill="#323232" font-weight="400" align="middle" lineHeight="125%" anchor="middle" family="微软雅黑" size="13px" weight="400" font-style="" opacity="1" y="-0.125" transform="rotate(0)"></text></g></g><g id="SvgjsG1173" transform="translate(428.44712409420276,155.00744047619054)"><path id="SvgjsPath1174" d="M 0 10C 0 -3.3333333333333335 20 -3.3333333333333335 20 10C 20 23.333333333333332 0 23.333333333333332 0 10Z" stroke="none" fill-opacity="1" fill="#b2d182"></path><g id="SvgjsG1175"><text id="SvgjsText1176" font-family="微软雅黑" text-anchor="middle" font-size="13px" width="0px" fill="#323232" font-weight="400" align="middle" lineHeight="125%" anchor="middle" family="微软雅黑" size="13px" weight="400" font-style="" opacity="1" y="-0.125" transform="rotate(0)"></text></g></g><g id="SvgjsG1177" transform="translate(497.65726902173924,155.00744047619054)"><path id="SvgjsPath1178" d="M 0 10C 0 -3.3333333333333335 20 -3.3333333333333335 20 10C 20 23.333333333333332 0 23.333333333333332 0 10Z" stroke="none" fill-opacity="1" fill="#b2d182"></path><g id="SvgjsG1179"><text id="SvgjsText1180" font-family="微软雅黑" text-anchor="middle" font-size="13px" width="0px" fill="#323232" font-weight="400" align="middle" lineHeight="125%" anchor="middle" family="微软雅黑" size="13px" weight="400" font-style="" opacity="1" y="-0.125" transform="rotate(0)"></text></g></g><g id="SvgjsG1181" transform="translate(566.8674139492755,155.00744047619054)"><path id="SvgjsPath1182" d="M 0 10C 0 -3.3333333333333335 20 -3.3333333333333335 20 10C 20 23.333333333333332 0 23.333333333333332 0 10Z" stroke="none" fill-opacity="1" fill="#b2d182"></path><g id="SvgjsG1183"><text id="SvgjsText1184" font-family="微软雅黑" text-anchor="middle" font-size="13px" width="0px" fill="#323232" font-weight="400" align="middle" lineHeight="125%" anchor="middle" family="微软雅黑" size="13px" weight="400" font-style="" opacity="1" y="-0.125" transform="rotate(0)"></text></g></g><g id="SvgjsG1185" transform="translate(220.81668931159413,196.0074404761906)"><path id="SvgjsPath1186" d="M 0 10C 0 -3.3333333333333335 20 -3.3333333333333335 20 10C 20 23.333333333333332 0 23.333333333333332 0 10Z" stroke="none" fill-opacity="0.5" fill="#7fa7b8"></path><g id="SvgjsG1187"><text id="SvgjsText1188" font-family="微软雅黑" text-anchor="middle" font-size="13px" width="0px" fill="#323232" font-weight="400" align="middle" lineHeight="125%" anchor="middle" family="微软雅黑" size="13px" weight="400" font-style="" opacity="0.5" y="-0.125" transform="rotate(0)"></text></g></g><g id="SvgjsG1189" transform="translate(290.0268342391305,196.0074404761906)"><path id="SvgjsPath1190" d="M 0 10C 0 -3.3333333333333335 20 -3.3333333333333335 20 10C 20 23.333333333333332 0 23.333333333333332 0 10Z" stroke="none" fill-opacity="1" fill="#7fa7b8"></path><g id="SvgjsG1191"><text id="SvgjsText1192" font-family="微软雅黑" text-anchor="middle" font-size="13px" width="0px" fill="#323232" font-weight="400" align="middle" lineHeight="125%" anchor="middle" family="微软雅黑" size="13px" weight="400" font-style="" opacity="1" y="-0.125" transform="rotate(0)"></text></g></g><g id="SvgjsG1193" transform="translate(359.23697916666674,196.0074404761906)"><path id="SvgjsPath1194" d="M 0 10C 0 -3.3333333333333335 20 -3.3333333333333335 20 10C 20 23.333333333333332 0 23.333333333333332 0 10Z" stroke="none" fill-opacity="0.5" fill="#7fa7b8"></path><g id="SvgjsG1195"><text id="SvgjsText1196" font-family="微软雅黑" text-anchor="middle" font-size="13px" width="0px" fill="#323232" font-weight="400" align="middle" lineHeight="125%" anchor="middle" family="微软雅黑" size="13px" weight="400" font-style="" opacity="0.5" y="-0.125" transform="rotate(0)"></text></g></g><g id="SvgjsG1197" transform="translate(428.44712409420254,196.0074404761906)"><path id="SvgjsPath1198" d="M 0 10C 0 -3.3333333333333335 20 -3.3333333333333335 20 10C 20 23.333333333333332 0 23.333333333333332 0 10Z" stroke="none" fill-opacity="1" fill="#7fa7b8"></path><g id="SvgjsG1199"><text id="SvgjsText1200" font-family="微软雅黑" text-anchor="middle" font-size="13px" width="0px" fill="#323232" font-weight="400" align="middle" lineHeight="125%" anchor="middle" family="微软雅黑" size="13px" weight="400" font-style="" opacity="1" y="-0.125" transform="rotate(0)"></text></g></g><g id="SvgjsG1201" transform="translate(497.65726902173947,196.0074404761906)"><path id="SvgjsPath1202" d="M 0 10C 0 -3.3333333333333335 20 -3.3333333333333335 20 10C 20 23.333333333333332 0 23.333333333333332 0 10Z" stroke="none" fill-opacity="1" fill="#dddddd"></path><g id="SvgjsG1203"><text id="SvgjsText1204" font-family="微软雅黑" text-anchor="middle" font-size="13px" width="0px" fill="#323232" font-weight="400" align="middle" lineHeight="125%" anchor="middle" family="微软雅黑" size="13px" weight="400" font-style="" opacity="1" y="-0.125" transform="rotate(0)"></text></g></g><g id="SvgjsG1205" transform="translate(566.8674139492756,196.0074404761906)"><path id="SvgjsPath1206" d="M 0 10C 0 -3.3333333333333335 20 -3.3333333333333335 20 10C 20 23.333333333333332 0 23.333333333333332 0 10Z" stroke="none" fill-opacity="1" fill="#dddddd"></path><g id="SvgjsG1207"><text id="SvgjsText1208" font-family="微软雅黑" text-anchor="middle" font-size="13px" width="0px" fill="#323232" font-weight="400" align="middle" lineHeight="125%" anchor="middle" family="微软雅黑" size="13px" weight="400" font-style="" opacity="1" y="-0.125" transform="rotate(0)"></text></g></g><g id="SvgjsG1209" transform="translate(25.004436347166774,124.0074404761906)"><path id="SvgjsPath1210" d="M 0 0L 20 0L 20 82.00000000000011L 0 82.00000000000011Z" stroke="none" fill="none"></path><g id="SvgjsG1211"><text id="SvgjsText1212" font-family="微软雅黑" text-anchor="middle" font-size="13px" width="20px" fill="#323232" font-weight="400" align="middle" lineHeight="125%" anchor="middle" family="微软雅黑" size="13px" weight="400" font-style="" opacity="1" y="6.875000000000057" transform="rotate(0)"><tspan id="SvgjsTspan1213" dy="16" x="10"><tspan id="SvgjsTspan1214" style="text-decoration:;">刻</tspan></tspan><tspan id="SvgjsTspan1215" dy="16" x="10"><tspan id="SvgjsTspan1216" style="text-decoration:;">意</tspan></tspan><tspan id="SvgjsTspan1217" dy="16" x="10"><tspan id="SvgjsTspan1218" style="text-decoration:;">选</tspan></tspan><tspan id="SvgjsTspan1219" dy="16" x="10"><tspan id="SvgjsTspan1220" style="text-decoration:;">择</tspan></tspan></text></g></g><g id="SvgjsG1221" transform="translate(273.69350090579707,25.007440476190368)"><path id="SvgjsPath1222" d="M 0 0L 120 0L 120 40L 0 40Z" stroke="none" fill="none"></path><g id="SvgjsG1223"><text id="SvgjsText1224" font-family="微软雅黑" text-anchor="middle" font-size="13px" width="120px" fill="#323232" font-weight="400" align="middle" lineHeight="125%" anchor="middle" family="微软雅黑" size="13px" weight="400" font-style="" opacity="1" y="9.875" transform="rotate(0)"><tspan id="SvgjsTspan1225" dy="16" x="60"><tspan id="SvgjsTspan1226" style="text-decoration:;">不断重复</tspan></tspan></text></g></g></svg>