<svg id="SvgjsSvg1006" width="500" height="226" xmlns="http://www.w3.org/2000/svg" version="1.1" xmlns:xlink="http://www.w3.org/1999/xlink" xmlns:svgjs="http://svgjs.com/svgjs"><defs id="SvgjsDefs1007"><marker id="SvgjsMarker1022" markerWidth="12" markerHeight="8" refX="3" refY="4" viewBox="0 0 12 8" orient="auto" markerUnits="userSpaceOnUse" stroke-dasharray="0,0"><path id="SvgjsPath1023" d="M12,0 L0,4 L12,8 L12,0" fill="#323232" stroke="#323232" stroke-width="1"></path></marker><marker id="SvgjsMarker1052" markerWidth="12" markerHeight="8" refX="3" refY="4" viewBox="0 0 12 8" orient="auto" markerUnits="userSpaceOnUse" stroke-dasharray="0,0"><path id="SvgjsPath1053" d="M12,0 L0,4 L12,8 L12,0" fill="#323232" stroke="#323232" stroke-width="1"></path></marker><marker id="SvgjsMarker1056" markerWidth="12" markerHeight="8" refX="3" refY="4" viewBox="0 0 12 8" orient="auto" markerUnits="userSpaceOnUse" stroke-dasharray="0,0"><path id="SvgjsPath1057" d="M12,0 L0,4 L12,8 L12,0" fill="#323232" stroke="#323232" stroke-width="1"></path></marker><marker id="SvgjsMarker1060" markerWidth="12" markerHeight="8" refX="3" refY="4" viewBox="0 0 12 8" orient="auto" markerUnits="userSpaceOnUse" stroke-dasharray="0,0"><path id="SvgjsPath1061" d="M12,0 L0,4 L12,8 L12,0" fill="#323232" stroke="#323232" stroke-width="1"></path></marker></defs><g id="SvgjsG1008" transform="translate(177,25.001644736842593)"><path id="SvgjsPath1009" d="M 0 4Q 0 0 4 0L 116 0Q 120 0 120 4L 120 26Q 120 30 116 30L 4 30Q 0 30 0 26Z" stroke="rgba(97,97,97,1)" stroke-width="1" fill-opacity="1" fill="#81a0aa"></path><g id="SvgjsG1010"><text id="SvgjsText1011" font-family="微软雅黑" text-anchor="middle" font-size="13px" width="100px" fill="#f6f3ee" font-weight="400" align="middle" lineHeight="125%" anchor="middle" family="微软雅黑" size="13px" weight="400" font-style="" opacity="1" y="4.375" transform="rotate(0)"><tspan id="SvgjsTspan1012" dy="16" x="60"><tspan id="SvgjsTspan1013" style="text-decoration:;">健康三要素</tspan></tspan></text></g></g><g id="SvgjsG1014" transform="translate(145,115.59375)"><path id="SvgjsPath1015" d="M 0 4Q 0 0 4 0L 56 0Q 60 0 60 4L 60 26Q 60 30 56 30L 4 30Q 0 30 0 26Z" stroke="rgba(97,97,97,1)" stroke-width="1" fill-opacity="1" fill="#f6f3ee"></path><g id="SvgjsG1016"><text id="SvgjsText1017" font-family="微软雅黑" text-anchor="middle" font-size="13px" width="40px" fill="#3d4b58" font-weight="400" align="middle" lineHeight="125%" anchor="middle" family="微软雅黑" size="13px" weight="400" font-style="" opacity="1" y="4.375" transform="rotate(0)"><tspan id="SvgjsTspan1018" dy="16" x="30"><tspan id="SvgjsTspan1019" style="text-decoration:;">饮食</tspan></tspan></text></g></g><g id="SvgjsG1020"><path id="SvgjsPath1021" d="M176.28732454929894 114.3356579903392L236.64240984741696 55.35111473952617" stroke="#323232" stroke-width="1" fill="none" marker-start="url(#SvgjsMarker1022)"></path></g><g id="SvgjsG1024" transform="translate(25,115.59375)"><path id="SvgjsPath1025" d="M 0 4Q 0 0 4 0L 56 0Q 60 0 60 4L 60 26Q 60 30 56 30L 4 30Q 0 30 0 26Z" stroke="rgba(97,97,97,1)" stroke-width="1" fill-opacity="1" fill="#f6f3ee"></path><g id="SvgjsG1026"><text id="SvgjsText1027" font-family="微软雅黑" text-anchor="middle" font-size="13px" width="40px" fill="#3d4b58" font-weight="400" align="middle" lineHeight="125%" anchor="middle" family="微软雅黑" size="13px" weight="400" font-style="" opacity="1" y="4.375" transform="rotate(0)"><tspan id="SvgjsTspan1028" dy="16" x="30"><tspan id="SvgjsTspan1029" style="text-decoration:;">睡眠</tspan></tspan></text></g></g><g id="SvgjsG1030" transform="translate(265,115.59375)"><path id="SvgjsPath1031" d="M 0 4Q 0 0 4 0L 56 0Q 60 0 60 4L 60 26Q 60 30 56 30L 4 30Q 0 30 0 26Z" stroke="rgba(97,97,97,1)" stroke-width="1" fill-opacity="1" fill="#f6f3ee"></path><g id="SvgjsG1032"><text id="SvgjsText1033" font-family="微软雅黑" text-anchor="middle" font-size="13px" width="40px" fill="#3d4b58" font-weight="400" align="middle" lineHeight="125%" anchor="middle" family="微软雅黑" size="13px" weight="400" font-style="" opacity="1" y="4.375" transform="rotate(0)"><tspan id="SvgjsTspan1034" dy="16" x="30"><tspan id="SvgjsTspan1035" style="text-decoration:;">运动</tspan></tspan></text></g></g><g id="SvgjsG1036" transform="translate(385,115.59375)"><path id="SvgjsPath1037" d="M 0 4Q 0 0 4 0L 56 0Q 60 0 60 4L 60 26Q 60 30 56 30L 4 30Q 0 30 0 26Z" stroke="rgba(97,97,97,1)" stroke-width="1" fill-opacity="1" fill="#f6f3ee"></path><g id="SvgjsG1038"><text id="SvgjsText1039" font-family="微软雅黑" text-anchor="middle" font-size="13px" width="40px" fill="#3d4b58" font-weight="400" align="middle" lineHeight="125%" anchor="middle" family="微软雅黑" size="13px" weight="400" font-style="" opacity="1" y="4.375" transform="rotate(0)"><tspan id="SvgjsTspan1040" dy="16" x="30"><tspan id="SvgjsTspan1041" style="text-decoration:;">情绪</tspan></tspan></text></g></g><g id="SvgjsG1042" transform="translate(355,161.0016447368426)"><path id="SvgjsPath1043" d="M 0 0L 120 0L 120 40L 0 40Z" stroke="none" fill="none"></path><g id="SvgjsG1044"><text id="SvgjsText1045" font-family="微软雅黑" text-anchor="middle" font-size="13px" width="120px" fill="#323232" font-weight="400" align="middle" lineHeight="150%" anchor="middle" family="微软雅黑" size="13px" weight="400" font-style="" opacity="1" y="-3.75" transform="rotate(0)"><tspan id="SvgjsTspan1046" dy="19" x="60"><tspan id="SvgjsTspan1047" style="text-decoration:;">同样重要影响因素</tspan></tspan><tspan id="SvgjsTspan1048" dy="19" x="60"><tspan id="SvgjsTspan1049" style="text-decoration:;">不在本节讨论范围</tspan></tspan></text></g></g><g id="SvgjsG1050"><path id="SvgjsPath1051" d="M293.75532489833506 114.29344853830145L237.3457430837958 55.3628395873144" stroke="#323232" stroke-width="1" fill="none" marker-start="url(#SvgjsMarker1052)"></path></g><g id="SvgjsG1054"><path id="SvgjsPath1055" d="M56.70783971971798 115.02516975785852L236.5256000778561 55.15958369299301" stroke="#323232" stroke-width="1" fill="none" marker-start="url(#SvgjsMarker1056)"></path></g><g id="SvgjsG1058"><path id="SvgjsPath1059" d="M413.29601954076236 115.01370638566016L237.4733279053438 55.16276796304811" stroke-dasharray="8,5" stroke="#323232" stroke-width="1" fill="none" marker-start="url(#SvgjsMarker1060)"></path></g></svg>