<svg id="SvgjsSvg1006" width="506" height="149.59375" xmlns="http://www.w3.org/2000/svg" version="1.1" xmlns:xlink="http://www.w3.org/1999/xlink" xmlns:svgjs="http://svgjs.com/svgjs"><defs id="SvgjsDefs1007"><marker id="SvgjsMarker1058" markerWidth="12" markerHeight="8" refX="9" refY="4" viewBox="0 0 12 8" orient="auto" markerUnits="userSpaceOnUse" stroke-dasharray="0,0"><path id="SvgjsPath1059" d="M0,0 L12,4 L0,8 L0,0" fill="#323232" stroke="#323232" stroke-width="1"></path></marker></defs><g id="SvgjsG1008" transform="translate(25,94.59375)"><path id="SvgjsPath1009" d="M 0 4Q 0 0 4 0L 86 0Q 90 0 90 4L 90 26Q 90 30 86 30L 4 30Q 0 30 0 26Z" stroke="rgba(97,97,97,1)" stroke-width="1" fill-opacity="1" fill="#f6f3ee"></path><g id="SvgjsG1010"><text id="SvgjsText1011" font-family="微软雅黑" text-anchor="middle" font-size="13px" width="70px" fill="#3d4b58" font-weight="400" align="middle" lineHeight="125%" anchor="middle" family="微软雅黑" size="13px" weight="400" font-style="" opacity="1" y="4.375" transform="rotate(0)"><tspan id="SvgjsTspan1012" dy="16" x="45"><tspan id="SvgjsTspan1013" style="text-decoration:;">小剂量</tspan></tspan></text></g></g><g id="SvgjsG1014" transform="translate(193,25.001644736842593)"><path id="SvgjsPath1015" d="M 0 0L 120 0L 120 40L 0 40Z" stroke="none" fill="none"></path><g id="SvgjsG1016"><text id="SvgjsText1017" font-family="微软雅黑" text-anchor="middle" font-size="13px" width="120px" fill="#323232" font-weight="400" align="middle" lineHeight="150%" anchor="middle" family="微软雅黑" size="13px" weight="400" font-style="" opacity="1" y="5.75" transform="rotate(0)"><tspan id="SvgjsTspan1018" dy="19" x="60"><tspan id="SvgjsTspan1019" style="text-decoration:;">过程中释放内啡肽</tspan></tspan></text></g></g><g id="SvgjsG1020" transform="translate(147,94.59375)"><path id="SvgjsPath1021" d="M 0 4Q 0 0 4 0L 86 0Q 90 0 90 4L 90 26Q 90 30 86 30L 4 30Q 0 30 0 26Z" stroke="rgba(97,97,97,1)" stroke-width="1" fill-opacity="1" fill="#f6f3ee"></path><g id="SvgjsG1022"><text id="SvgjsText1023" font-family="微软雅黑" text-anchor="middle" font-size="13px" width="70px" fill="#3d4b58" font-weight="400" align="middle" lineHeight="125%" anchor="middle" family="微软雅黑" size="13px" weight="400" font-style="" opacity="1" y="4.375" transform="rotate(0)"><tspan id="SvgjsTspan1024" dy="16" x="45"><tspan id="SvgjsTspan1025" style="text-decoration:;">痛苦</tspan></tspan></text></g></g><g id="SvgjsG1026" transform="translate(116,94.59375)"><path id="SvgjsPath1027" d="M 0 0L 30 0L 30 30L 0 30Z" stroke="none" fill="none"></path><g id="SvgjsG1028"><text id="SvgjsText1029" font-family="微软雅黑" text-anchor="middle" font-size="13px" width="30px" fill="#323232" font-weight="400" align="middle" lineHeight="150%" anchor="middle" family="微软雅黑" size="13px" weight="400" font-style="" opacity="1" y="0.75" transform="rotate(0)"><tspan id="SvgjsTspan1030" dy="19" x="15"><tspan id="SvgjsTspan1031" style="text-decoration:;">+</tspan></tspan></text></g></g><g id="SvgjsG1032" transform="translate(269,94.59375)"><path id="SvgjsPath1033" d="M 0 4Q 0 0 4 0L 86 0Q 90 0 90 4L 90 26Q 90 30 86 30L 4 30Q 0 30 0 26Z" stroke="rgba(97,97,97,1)" stroke-width="1" fill-opacity="1" fill="#f6f3ee"></path><g id="SvgjsG1034"><text id="SvgjsText1035" font-family="微软雅黑" text-anchor="middle" font-size="13px" width="70px" fill="#3d4b58" font-weight="400" align="middle" lineHeight="125%" anchor="middle" family="微软雅黑" size="13px" weight="400" font-style="" opacity="1" y="4.375" transform="rotate(0)"><tspan id="SvgjsTspan1036" dy="16" x="45"><tspan id="SvgjsTspan1037" style="text-decoration:;">恢复</tspan></tspan></text></g></g><g id="SvgjsG1038" transform="translate(238,94.59375)"><path id="SvgjsPath1039" d="M 0 0L 30 0L 30 30L 0 30Z" stroke="none" fill="none"></path><g id="SvgjsG1040"><text id="SvgjsText1041" font-family="微软雅黑" text-anchor="middle" font-size="13px" width="30px" fill="#323232" font-weight="400" align="middle" lineHeight="150%" anchor="middle" family="微软雅黑" size="13px" weight="400" font-style="" opacity="1" y="0.75" transform="rotate(0)"><tspan id="SvgjsTspan1042" dy="19" x="15"><tspan id="SvgjsTspan1043" style="text-decoration:;">+</tspan></tspan></text></g></g><g id="SvgjsG1044" transform="translate(391,94.59375)"><path id="SvgjsPath1045" d="M 0 4Q 0 0 4 0L 86 0Q 90 0 90 4L 90 26Q 90 30 86 30L 4 30Q 0 30 0 26Z" stroke="rgba(97,97,97,1)" stroke-width="1" fill-opacity="1" fill="#81a0aa"></path><g id="SvgjsG1046"><text id="SvgjsText1047" font-family="微软雅黑" text-anchor="middle" font-size="13px" width="70px" fill="#f6f3ee" font-weight="400" align="middle" lineHeight="125%" anchor="middle" family="微软雅黑" size="13px" weight="400" font-style="" opacity="1" y="4.375" transform="rotate(0)"><tspan id="SvgjsTspan1048" dy="16" x="45"><tspan id="SvgjsTspan1049" style="text-decoration:;">成长</tspan></tspan></text></g></g><g id="SvgjsG1050" transform="translate(360,94.59375)"><path id="SvgjsPath1051" d="M 0 0L 30 0L 30 30L 0 30Z" stroke="none" fill="none"></path><g id="SvgjsG1052"><text id="SvgjsText1053" font-family="微软雅黑" text-anchor="middle" font-size="13px" width="30px" fill="#323232" font-weight="400" align="middle" lineHeight="150%" anchor="middle" family="微软雅黑" size="13px" weight="400" font-style="" opacity="1" y="0.75" transform="rotate(0)"><tspan id="SvgjsTspan1054" dy="19" x="15"><tspan id="SvgjsTspan1055" style="text-decoration:;">=</tspan></tspan></text></g></g><g id="SvgjsG1056"><path id="SvgjsPath1057" d="M192 94.09375L192 64.59375L314 64.59375L314 92.79374999999999" stroke="#323232" stroke-width="1" fill="none" marker-end="url(#SvgjsMarker1058)"></path></g></svg>