<svg id="SvgjsSvg1006" width="270.0078125" height="340.6015625" xmlns="http://www.w3.org/2000/svg" version="1.1" xmlns:xlink="http://www.w3.org/1999/xlink" xmlns:svgjs="http://svgjs.com/svgjs"><defs id="SvgjsDefs1007"><marker id="SvgjsMarker1072" markerWidth="12" markerHeight="8" refX="9" refY="4" viewBox="0 0 12 8" orient="auto" markerUnits="userSpaceOnUse" stroke-dasharray="0,0"><path id="SvgjsPath1073" d="M0,0 L12,4 L0,8 L0,0" fill="#688f4e" stroke="#688f4e" stroke-width="1"></path></marker></defs><g id="SvgjsG1008" transform="translate(25.0078125,154.5271493212678)"><path id="SvgjsPath1009" d="M 0 0L 220 0L 220 25L 0 25Z" stroke="none" fill="none"></path><g id="SvgjsG1010"><text id="SvgjsText1011" font-family="&quot;Times New Roman&quot;" text-anchor="middle" font-size="13px" width="220px" fill="#616161" font-weight="400" align="middle" lineHeight="125%" anchor="middle" family="&quot;Times New Roman&quot;" size="13px" weight="400" font-style="" opacity="1" y="1.875" transform="rotate(0)"><tspan id="SvgjsTspan1012" dy="16" x="110"><tspan id="SvgjsTspan1013" style="text-decoration:;">P(B|A) = P(A|B)·P(B) / P(A)</tspan></tspan></text></g></g><g id="SvgjsG1014" transform="translate(25.0078125,25)"><path id="SvgjsPath1015" d="M 0 4Q 0 0 4 0L 216 0Q 220 0 220 4L 220 106Q 220 110 216 110L 4 110Q 0 110 0 106Z" stroke="rgba(97,97,97,1)" stroke-width="1" fill-opacity="1" fill="#ffffff"></path><g id="SvgjsG1016"><text id="SvgjsText1017" font-family="微软雅黑" text-anchor="middle" font-size="16px" width="200px" fill="#3d4b58" font-weight="400" align="middle" lineHeight="125%" anchor="middle" family="微软雅黑" size="16px" weight="400" font-style="" opacity="1" y="41" transform="rotate(0)"></text></g></g><g id="SvgjsG1018" transform="translate(61.0078125,41.75)"><path id="SvgjsPath1019" d="M 0 40C 0 -13.333333333333334 80 -13.333333333333334 80 40C 80 93.33333333333333 0 93.33333333333333 0 40Z" stroke="rgba(97,97,97,1)" stroke-width="1" fill-opacity="1" fill="#f6f3ee"></path><g id="SvgjsG1020"><text id="SvgjsText1021" font-family="微软雅黑" text-anchor="middle" font-size="16px" width="60px" fill="#3d4b58" font-weight="400" align="middle" lineHeight="125%" anchor="middle" family="微软雅黑" size="16px" weight="400" font-style="" opacity="1" y="26" transform="rotate(0)"><tspan id="SvgjsTspan1022" dy="20" x="40"><tspan id="SvgjsTspan1023" style="text-decoration:;">B</tspan></tspan></text></g></g><g id="SvgjsG1024" transform="translate(128.0078125,41.75)"><path id="SvgjsPath1025" d="M 0 40C 0 -13.333333333333334 80 -13.333333333333334 80 40C 80 93.33333333333333 0 93.33333333333333 0 40Z" stroke="rgba(97,97,97,0.9)" stroke-width="1" fill-opacity="0.9" fill="#81a0aa"></path><g id="SvgjsG1026"><text id="SvgjsText1027" font-family="微软雅黑" text-anchor="middle" font-size="13px" width="60px" fill="#f6f3ee" font-weight="400" align="middle" lineHeight="125%" anchor="middle" family="微软雅黑" size="13px" weight="400" font-style="" opacity="0.9" y="29.375" transform="rotate(0)"><tspan id="SvgjsTspan1028" dy="16" x="40"><tspan id="SvgjsTspan1029" style="text-decoration:;">A</tspan></tspan></text></g></g><g id="SvgjsG1030"><path id="SvgjsPath1031" d="M135.6842830882353 153.5271493212678L135.6842830882353 120.37386877828095L135.6842830882353 120.37386877828095L135.6842830882353 86.22058823529412" stroke-dasharray="8,5" stroke="#688f4e" stroke-width="1" fill="none"></path></g><g id="SvgjsG1032" transform="translate(48.64417613636391,199.0542986425355)"><path id="SvgjsPath1033" d="M 0 0L 60 0L 60 25L 0 25Z" stroke="none" fill="none"></path><g id="SvgjsG1034"><text id="SvgjsText1035" font-family="&quot;Times New Roman&quot;" text-anchor="middle" font-size="13px" width="60px" fill="#616161" font-weight="400" align="middle" lineHeight="125%" anchor="middle" family="&quot;Times New Roman&quot;" size="13px" weight="400" font-style="" opacity="1" y="1.875" transform="rotate(0)"><tspan id="SvgjsTspan1036" dy="16" x="30"><tspan id="SvgjsTspan1037" style="text-decoration:;">后验概率</tspan></tspan></text></g></g><g id="SvgjsG1038"><path id="SvgjsPath1039" d="M80.28053977272725 180.19444444444446L80.28053977272725 198.0542986425355" stroke-dasharray="8,5" stroke="#688f4e" stroke-width="1" fill="none"></path></g><g id="SvgjsG1040" transform="translate(97.49319261695877,234.5265208647579)"><path id="SvgjsPath1041" d="M 0 0L 60 0L 60 25L 0 25Z" stroke="none" fill="none"></path><g id="SvgjsG1042"><text id="SvgjsText1043" font-family="&quot;Times New Roman&quot;" text-anchor="middle" font-size="13px" width="60px" fill="#616161" font-weight="400" align="middle" lineHeight="125%" anchor="middle" family="&quot;Times New Roman&quot;" size="13px" weight="400" font-style="" opacity="1" y="1.875" transform="rotate(0)"><tspan id="SvgjsTspan1044" dy="16" x="30"><tspan id="SvgjsTspan1045" style="text-decoration:;">似然度</tspan></tspan></text></g></g><g id="SvgjsG1046"><path id="SvgjsPath1047" d="M127.49319261695854 234.0265208647579L127.49319261695854 206.86048265460119L127.45225694444446 206.86048265460119L127.45225694444446 180.19444444444446" stroke-dasharray="8,5" stroke="#688f4e" stroke-width="1" fill="none"></path></g><g id="SvgjsG1048" transform="translate(132.6441761363638,199.05429864253546)"><path id="SvgjsPath1049" d="M 0 0L 60 0L 60 25L 0 25Z" stroke="none" fill="none"></path><g id="SvgjsG1050"><text id="SvgjsText1051" font-family="&quot;Times New Roman&quot;" text-anchor="middle" font-size="13px" width="60px" fill="#616161" font-weight="400" align="middle" lineHeight="125%" anchor="middle" family="&quot;Times New Roman&quot;" size="13px" weight="400" font-style="" opacity="1" y="1.875" transform="rotate(0)"><tspan id="SvgjsTspan1052" dy="16" x="30"><tspan id="SvgjsTspan1053" style="text-decoration:;">基础概率</tspan></tspan></text></g></g><g id="SvgjsG1054"><path id="SvgjsPath1055" d="M162.64417613636374 180.03571428571428L162.64417613636374 198.19444444444446" stroke-dasharray="8,5" stroke="#688f4e" stroke-width="1" fill="none"></path></g><g id="SvgjsG1056" transform="translate(167.5013189935056,234.19715578539257)"><path id="SvgjsPath1057" d="M 0 0L 60 0L 60 25L 0 25Z" stroke="none" fill="none"></path><g id="SvgjsG1058"><text id="SvgjsText1059" font-family="&quot;Times New Roman&quot;" text-anchor="middle" font-size="13px" width="60px" fill="#616161" font-weight="400" align="middle" lineHeight="125%" anchor="middle" family="&quot;Times New Roman&quot;" size="13px" weight="400" font-style="" opacity="1" y="1.875" transform="rotate(0)"><tspan id="SvgjsTspan1060" dy="16" x="30"><tspan id="SvgjsTspan1061" style="text-decoration:;">新证据</tspan></tspan></text></g></g><g id="SvgjsG1062"><path id="SvgjsPath1063" d="M197.16654265873046 233.5265208647579L197.16654265873046 207.00333979745824L197.16654265872978 207.00333979745824L197.16654265872978 180.48015873015862" stroke-dasharray="8,5" stroke="#688f4e" stroke-width="1" fill="none"></path></g><g id="SvgjsG1064" transform="translate(157.49319261695894,288.1085972850709)"><path id="SvgjsPath1065" d="M 0 0L 80 0L 80 25L 0 25Z" stroke="none" fill="none"></path><g id="SvgjsG1066"><text id="SvgjsText1067" font-family="&quot;Times New Roman&quot;" text-anchor="middle" font-size="13px" width="80px" fill="#616161" font-weight="400" align="middle" lineHeight="125%" anchor="middle" family="&quot;Times New Roman&quot;" size="13px" weight="400" font-style="" opacity="1" y="1.875" transform="rotate(0)"><tspan id="SvgjsTspan1068" dy="16" x="40"><tspan id="SvgjsTspan1069" style="text-decoration:;">全概率公式</tspan></tspan></text></g></g><g id="SvgjsG1070"><path id="SvgjsPath1071" d="M197.5013189935056 260.19715578539257L197.5013189935056 273.6528765352317L197.50131899350572 273.6528765352317L197.50131899350572 285.8085972850709" stroke="#688f4e" stroke-width="1" fill="none" marker-end="url(#SvgjsMarker1072)"></path></g><g id="SvgjsG1074" transform="translate(25.0078125,285.6085972850709)"><path id="SvgjsPath1075" d="M 0 0L 120 0L 120 30L 0 30Z" stroke="none" fill="none"></path><g id="SvgjsG1076"><text id="SvgjsText1077" font-family="&quot;Times New Roman&quot;" text-anchor="middle" font-size="13px" width="120px" fill="#e0e0e0" font-weight="400" align="middle" lineHeight="125%" anchor="middle" family="&quot;Times New Roman&quot;" size="13px" weight="400" font-style="" opacity="1" y="4.375" transform="rotate(0)"><tspan id="SvgjsTspan1078" dy="16" x="60"><tspan id="SvgjsTspan1079" style="text-decoration:;">www.kofes.cn</tspan></tspan></text></g></g></svg>