<svg id="SvgjsSvg1006" width="390" height="221.25" xmlns="http://www.w3.org/2000/svg" version="1.1" xmlns:xlink="http://www.w3.org/1999/xlink" xmlns:svgjs="http://svgjs.com/svgjs"><defs id="SvgjsDefs1007"><marker id="SvgjsMarker1022" markerWidth="12" markerHeight="8" refX="9" refY="4" viewBox="0 0 12 8" orient="auto" markerUnits="userSpaceOnUse" stroke-dasharray="0,0"><path id="SvgjsPath1023" d="M0,0 L12,4 L0,8 L0,0" fill="#323232" stroke="#323232" stroke-width="1"></path></marker><marker id="SvgjsMarker1026" markerWidth="12" markerHeight="8" refX="9" refY="4" viewBox="0 0 12 8" orient="auto" markerUnits="userSpaceOnUse" stroke-dasharray="0,0"><path id="SvgjsPath1027" d="M0,0 L12,4 L0,8 L0,0" fill="#323232" stroke="#323232" stroke-width="1"></path></marker><marker id="SvgjsMarker1042" markerWidth="12" markerHeight="8" refX="9" refY="4" viewBox="0 0 12 8" orient="auto" markerUnits="userSpaceOnUse" stroke-dasharray="0,0"><path id="SvgjsPath1043" d="M0,0 L12,4 L0,8 L0,0" fill="#323232" stroke="#323232" stroke-width="1"></path></marker><marker id="SvgjsMarker1046" markerWidth="12" markerHeight="8" refX="3" refY="4" viewBox="0 0 12 8" orient="auto" markerUnits="userSpaceOnUse" stroke-dasharray="0,0"><path id="SvgjsPath1047" d="M12,0 L0,4 L12,8 L12,0" fill="#323232" stroke="#323232" stroke-width="1"></path></marker><marker id="SvgjsMarker1048" markerWidth="12" markerHeight="8" refX="9" refY="4" viewBox="0 0 12 8" orient="auto" markerUnits="userSpaceOnUse" stroke-dasharray="0,0"><path id="SvgjsPath1049" d="M0,0 L12,4 L0,8 L0,0" fill="#323232" stroke="#323232" stroke-width="1"></path></marker></defs><g id="SvgjsG1008" transform="translate(315,85.49999999999994)"><path id="SvgjsPath1009" d="M 0 25C 0 -8.333333333333334 50 -8.333333333333334 50 25C 50 58.333333333333336 0 58.333333333333336 0 25Z" stroke="rgba(97,97,97,1)" stroke-width="1" fill-opacity="1" fill="#f6f3ee"></path><g id="SvgjsG1010"><text id="SvgjsText1011" font-family="微软雅黑" text-anchor="middle" font-size="13px" width="30px" fill="#3d4b58" font-weight="400" align="middle" lineHeight="125%" anchor="middle" family="微软雅黑" size="13px" weight="400" font-style="" opacity="1" y="14.875" transform="rotate(0)"><tspan id="SvgjsTspan1012" dy="16" x="25"><tspan id="SvgjsTspan1013" style="text-decoration:;">他人</tspan></tspan></text></g></g><g id="SvgjsG1014" transform="translate(25,85.49999999999994)"><path id="SvgjsPath1015" d="M 0 25C 0 -8.333333333333334 50 -8.333333333333334 50 25C 50 58.333333333333336 0 58.333333333333336 0 25Z" stroke="rgba(97,97,97,1)" stroke-width="1" fill-opacity="1" fill="#81a0aa"></path><g id="SvgjsG1016"><text id="SvgjsText1017" font-family="微软雅黑" text-anchor="middle" font-size="13px" width="30px" fill="#f6f3ee" font-weight="400" align="middle" lineHeight="125%" anchor="middle" family="微软雅黑" size="13px" weight="400" font-style="" opacity="1" y="14.875" transform="rotate(0)"><tspan id="SvgjsTspan1018" dy="16" x="25"><tspan id="SvgjsTspan1019" style="text-decoration:;">自己</tspan></tspan></text></g></g><g id="SvgjsG1020"><path id="SvgjsPath1021" d="M90 105.5L194 105.5L194 105.5L298 105.5" stroke="#323232" stroke-width="1" fill="none" marker-end="url(#SvgjsMarker1022)"></path></g><g id="SvgjsG1024"><path id="SvgjsPath1025" d="M299 119L195 119L195 119L91 119" stroke="#323232" stroke-width="1" fill="none" marker-end="url(#SvgjsMarker1026)"></path></g><g id="SvgjsG1028" transform="translate(135,74.74999999999997)"><path id="SvgjsPath1029" d="M 0 0L 120 0L 120 30L 0 30Z" stroke="none" fill="none"></path><g id="SvgjsG1030"><text id="SvgjsText1031" font-family="微软雅黑" text-anchor="middle" font-size="13px" width="120px" fill="#323232" font-weight="400" align="middle" lineHeight="125%" anchor="middle" family="微软雅黑" size="13px" weight="400" font-style="" opacity="1" y="4.875" transform="rotate(0)"><tspan id="SvgjsTspan1032" dy="16" x="60"><tspan id="SvgjsTspan1033" style="text-decoration:;">喜欢 / 讨厌</tspan></tspan></text></g></g><g id="SvgjsG1034" transform="translate(135,120.49999999999994)"><path id="SvgjsPath1035" d="M 0 0L 120 0L 120 30L 0 30Z" stroke="none" fill="none"></path><g id="SvgjsG1036"><text id="SvgjsText1037" font-family="微软雅黑" text-anchor="middle" font-size="13px" width="120px" fill="#323232" font-weight="400" align="middle" lineHeight="125%" anchor="middle" family="微软雅黑" size="13px" weight="400" font-style="" opacity="1" y="4.875" transform="rotate(0)"><tspan id="SvgjsTspan1038" dy="16" x="60"><tspan id="SvgjsTspan1039" style="text-decoration:;">原则</tspan></tspan></text></g></g><g id="SvgjsG1040"><path id="SvgjsPath1041" d="M50 84.99999999999994L50 55.49999999999994L340 55.49999999999994L340 83.69999999999993" stroke="#323232" stroke-width="1" fill="none" marker-end="url(#SvgjsMarker1042)"></path></g><g id="SvgjsG1044"><path id="SvgjsPath1045" d="M340 137.3L340 165.5L50 165.5L50 137.3" stroke="#323232" stroke-width="1" fill="none" marker-start="url(#SvgjsMarker1046)" marker-end="url(#SvgjsMarker1048)"></path></g><g id="SvgjsG1050" transform="translate(135,166.2499999999999)"><path id="SvgjsPath1051" d="M 0 0L 120 0L 120 30L 0 30Z" stroke="none" fill="none"></path><g id="SvgjsG1052"><text id="SvgjsText1053" font-family="微软雅黑" text-anchor="middle" font-size="13px" width="120px" fill="#688f4e" font-weight="400" align="middle" lineHeight="125%" anchor="middle" family="微软雅黑" size="13px" weight="400" font-style="" opacity="1" y="4.875" transform="rotate(0)"><tspan id="SvgjsTspan1054" dy="16" x="60"><tspan id="SvgjsTspan1055" style="text-decoration:;">同理心</tspan></tspan></text></g></g><g id="SvgjsG1056" transform="translate(135,25)"><path id="SvgjsPath1057" d="M 0 0L 120 0L 120 30L 0 30Z" stroke="none" fill="none"></path><g id="SvgjsG1058"><text id="SvgjsText1059" font-family="微软雅黑" text-anchor="middle" font-size="13px" width="120px" fill="#688f4e" font-weight="400" align="middle" lineHeight="125%" anchor="middle" family="微软雅黑" size="13px" weight="400" font-style="" opacity="1" y="4.875" transform="rotate(0)"><tspan id="SvgjsTspan1060" dy="16" x="60"><tspan id="SvgjsTspan1061" style="text-decoration:;">同理心</tspan></tspan></text></g></g></svg>