<svg id="SvgjsSvg1006" width="490.171875" height="230" xmlns="http://www.w3.org/2000/svg" version="1.1" xmlns:xlink="http://www.w3.org/1999/xlink" xmlns:svgjs="http://svgjs.com/svgjs"><defs id="SvgjsDefs1007"><marker id="SvgjsMarker1066" markerWidth="12" markerHeight="8" refX="9" refY="4" viewBox="0 0 12 8" orient="auto" markerUnits="userSpaceOnUse" stroke-dasharray="0,0"><path id="SvgjsPath1067" d="M0,0 L12,4 L0,8 L0,0" fill="#323232" stroke="#323232" stroke-width="1"></path></marker><marker id="SvgjsMarker1070" markerWidth="12" markerHeight="8" refX="9" refY="4" viewBox="0 0 12 8" orient="auto" markerUnits="userSpaceOnUse" stroke-dasharray="0,0"><path id="SvgjsPath1071" d="M0,0 L12,4 L0,8 L0,0" fill="#323232" stroke="#323232" stroke-width="1"></path></marker><marker id="SvgjsMarker1074" markerWidth="12" markerHeight="8" refX="9" refY="4" viewBox="0 0 12 8" orient="auto" markerUnits="userSpaceOnUse" stroke-dasharray="0,0"><path id="SvgjsPath1075" d="M0,0 L12,4 L0,8 L0,0" fill="#323232" stroke="#323232" stroke-width="1"></path></marker><marker id="SvgjsMarker1078" markerWidth="12" markerHeight="8" refX="9" refY="4" viewBox="0 0 12 8" orient="auto" markerUnits="userSpaceOnUse" stroke-dasharray="0,0"><path id="SvgjsPath1079" d="M0,0 L12,4 L0,8 L0,0" fill="#323232" stroke="#323232" stroke-width="1"></path></marker><marker id="SvgjsMarker1082" markerWidth="12" markerHeight="8" refX="9" refY="4" viewBox="0 0 12 8" orient="auto" markerUnits="userSpaceOnUse" stroke-dasharray="0,0"><path id="SvgjsPath1083" d="M0,0 L12,4 L0,8 L0,0" fill="#323232" stroke="#323232" stroke-width="1"></path></marker><marker id="SvgjsMarker1086" markerWidth="12" markerHeight="8" refX="9" refY="4" viewBox="0 0 12 8" orient="auto" markerUnits="userSpaceOnUse" stroke-dasharray="0,0"><path id="SvgjsPath1087" d="M0,0 L12,4 L0,8 L0,0" fill="#323232" stroke="#323232" stroke-width="1"></path></marker><marker id="SvgjsMarker1090" markerWidth="12" markerHeight="8" refX="9" refY="4" viewBox="0 0 12 8" orient="auto" markerUnits="userSpaceOnUse" stroke-dasharray="0,0"><path id="SvgjsPath1091" d="M0,0 L12,4 L0,8 L0,0" fill="#323232" stroke="#323232" stroke-width="1"></path></marker><marker id="SvgjsMarker1094" markerWidth="14" markerHeight="10" refX="10" refY="5" viewBox="0 0 14 10" orient="auto" markerUnits="userSpaceOnUse" stroke-dasharray="0,0"><path id="SvgjsPath1095" d="M0,0 L14,5 L0,10 L0,0" fill="#81a0aa" stroke="#81a0aa" stroke-width="1"></path></marker><marker id="SvgjsMarker1098" markerWidth="14" markerHeight="10" refX="10" refY="5" viewBox="0 0 14 10" orient="auto" markerUnits="userSpaceOnUse" stroke-dasharray="0,0"><path id="SvgjsPath1099" d="M0,0 L14,5 L0,10 L0,0" fill="#81a0aa" stroke="#81a0aa" stroke-width="1"></path></marker><marker id="SvgjsMarker1102" markerWidth="12" markerHeight="8" refX="9" refY="4" viewBox="0 0 12 8" orient="auto" markerUnits="userSpaceOnUse" stroke-dasharray="0,0"><path id="SvgjsPath1103" d="M0,0 L12,4 L0,8 L0,0" fill="#323232" stroke="#323232" stroke-width="1"></path></marker></defs><g id="SvgjsG1008" transform="translate(25.89383370190069,51.460600745714004)"><path id="SvgjsPath1009" d="M 0 65.20606592095265C 0 -21.735355306984218 126.6937105893343 -21.735355306984218 126.6937105893343 65.20606592095265C 126.6937105893343 152.14748714888952 0 152.14748714888952 0 65.20606592095265Z" stroke="rgba(129,160,170,1)" stroke-width="2" fill="none"></path><g id="SvgjsG1010"><text id="SvgjsText1011" font-family="微软雅黑" text-anchor="middle" font-size="13px" width="107px" fill="#81a0aa" font-weight="400" align="middle" lineHeight="125%" anchor="middle" family="微软雅黑" size="13px" weight="400" font-style="" opacity="1" y="46.08106592095265" transform="rotate(0)"><tspan id="SvgjsTspan1012" dy="16" x="63.5"><tspan id="SvgjsTspan1013" style="text-decoration:;">自己的幸福</tspan></tspan><tspan id="SvgjsTspan1014" dy="16" x="63.5"><tspan id="SvgjsTspan1015" style="text-decoration:;">由自己闭环</tspan></tspan></text></g></g><g id="SvgjsG1016" transform="translate(271.171875,24.999999999999943)"><path id="SvgjsPath1017" d="M 0 25C 0 -8.333333333333334 50 -8.333333333333334 50 25C 50 58.333333333333336 0 58.333333333333336 0 25Z" stroke="rgba(97,97,97,1)" stroke-width="1" fill-opacity="1" fill="#f6f3ee"></path><g id="SvgjsG1018"><text id="SvgjsText1019" font-family="微软雅黑" text-anchor="middle" font-size="13px" width="30px" fill="#3d4b58" font-weight="400" align="middle" lineHeight="125%" anchor="middle" family="微软雅黑" size="13px" weight="400" font-style="" opacity="1" y="14.375" transform="rotate(0)"><tspan id="SvgjsTspan1020" dy="16" x="25"><tspan id="SvgjsTspan1021" style="text-decoration:;">他人</tspan></tspan></text></g></g><g id="SvgjsG1022" transform="translate(361.171875,24.999999999999943)"><path id="SvgjsPath1023" d="M 0 25C 0 -8.333333333333334 50 -8.333333333333334 50 25C 50 58.333333333333336 0 58.333333333333336 0 25Z" stroke="rgba(97,97,97,1)" stroke-width="1" fill-opacity="1" fill="#f6f3ee"></path><g id="SvgjsG1024"><text id="SvgjsText1025" font-family="微软雅黑" text-anchor="middle" font-size="13px" width="30px" fill="#3d4b58" font-weight="400" align="middle" lineHeight="125%" anchor="middle" family="微软雅黑" size="13px" weight="400" font-style="" opacity="1" y="14.375" transform="rotate(0)"><tspan id="SvgjsTspan1026" dy="16" x="25"><tspan id="SvgjsTspan1027" style="text-decoration:;">他人</tspan></tspan></text></g></g><g id="SvgjsG1028" transform="translate(415.171875,90)"><path id="SvgjsPath1029" d="M 0 25C 0 -8.333333333333334 50 -8.333333333333334 50 25C 50 58.333333333333336 0 58.333333333333336 0 25Z" stroke="rgba(97,97,97,1)" stroke-width="1" fill-opacity="1" fill="#f6f3ee"></path><g id="SvgjsG1030"><text id="SvgjsText1031" font-family="微软雅黑" text-anchor="middle" font-size="13px" width="30px" fill="#3d4b58" font-weight="400" align="middle" lineHeight="125%" anchor="middle" family="微软雅黑" size="13px" weight="400" font-style="" opacity="1" y="14.375" transform="rotate(0)"><tspan id="SvgjsTspan1032" dy="16" x="25"><tspan id="SvgjsTspan1033" style="text-decoration:;">他人</tspan></tspan></text></g></g><g id="SvgjsG1034" transform="translate(365.171875,154.99999999999994)"><path id="SvgjsPath1035" d="M 0 25C 0 -8.333333333333334 50 -8.333333333333334 50 25C 50 58.333333333333336 0 58.333333333333336 0 25Z" stroke="rgba(97,97,97,1)" stroke-width="1" fill-opacity="1" fill="#f6f3ee"></path><g id="SvgjsG1036"><text id="SvgjsText1037" font-family="微软雅黑" text-anchor="middle" font-size="13px" width="30px" fill="#3d4b58" font-weight="400" align="middle" lineHeight="125%" anchor="middle" family="微软雅黑" size="13px" weight="400" font-style="" opacity="1" y="14.375" transform="rotate(0)"><tspan id="SvgjsTspan1038" dy="16" x="25"><tspan id="SvgjsTspan1039" style="text-decoration:;">他人</tspan></tspan></text></g></g><g id="SvgjsG1040" transform="translate(271.171875,154.99999999999994)"><path id="SvgjsPath1041" d="M 0 25C 0 -8.333333333333334 50 -8.333333333333334 50 25C 50 58.333333333333336 0 58.333333333333336 0 25Z" stroke="rgba(97,97,97,1)" stroke-width="1" fill-opacity="1" fill="#f6f3ee"></path><g id="SvgjsG1042"><text id="SvgjsText1043" font-family="微软雅黑" text-anchor="middle" font-size="13px" width="30px" fill="#3d4b58" font-weight="400" align="middle" lineHeight="125%" anchor="middle" family="微软雅黑" size="13px" weight="400" font-style="" opacity="1" y="14.375" transform="rotate(0)"><tspan id="SvgjsTspan1044" dy="16" x="25"><tspan id="SvgjsTspan1045" style="text-decoration:;">他人</tspan></tspan></text></g></g><g id="SvgjsG1046" transform="translate(127.171875,90)"><path id="SvgjsPath1047" d="M 0 25C 0 -8.333333333333334 50 -8.333333333333334 50 25C 50 58.333333333333336 0 58.333333333333336 0 25Z" stroke="rgba(97,97,97,1)" stroke-width="1" fill-opacity="1" fill="#81a0aa"></path><g id="SvgjsG1048"><text id="SvgjsText1049" font-family="微软雅黑" text-anchor="middle" font-size="13px" width="30px" fill="#f6f3ee" font-weight="400" align="middle" lineHeight="125%" anchor="middle" family="微软雅黑" size="13px" weight="400" font-style="" opacity="1" y="14.375" transform="rotate(0)"><tspan id="SvgjsTspan1050" dy="16" x="25"><tspan id="SvgjsTspan1051" style="text-decoration:;">自己</tspan></tspan></text></g></g><g id="SvgjsG1052" transform="translate(177.171875,25)"><path id="SvgjsPath1053" d="M 0 25C 0 -8.333333333333334 50 -8.333333333333334 50 25C 50 58.333333333333336 0 58.333333333333336 0 25Z" stroke="rgba(97,97,97,1)" stroke-width="1" fill-opacity="1" fill="#f6f3ee"></path><g id="SvgjsG1054"><text id="SvgjsText1055" font-family="微软雅黑" text-anchor="middle" font-size="13px" width="30px" fill="#3d4b58" font-weight="400" align="middle" lineHeight="125%" anchor="middle" family="微软雅黑" size="13px" weight="400" font-style="" opacity="1" y="14.375" transform="rotate(0)"><tspan id="SvgjsTspan1056" dy="16" x="25"><tspan id="SvgjsTspan1057" style="text-decoration:;">他人</tspan></tspan></text></g></g><g id="SvgjsG1058" transform="translate(177.171875,154.99999999999994)"><path id="SvgjsPath1059" d="M 0 25C 0 -8.333333333333334 50 -8.333333333333334 50 25C 50 58.333333333333336 0 58.333333333333336 0 25Z" stroke="rgba(97,97,97,1)" stroke-width="1" fill-opacity="1" fill="#f6f3ee"></path><g id="SvgjsG1060"><text id="SvgjsText1061" font-family="微软雅黑" text-anchor="middle" font-size="13px" width="30px" fill="#3d4b58" font-weight="400" align="middle" lineHeight="125%" anchor="middle" family="微软雅黑" size="13px" weight="400" font-style="" opacity="1" y="14.375" transform="rotate(0)"><tspan id="SvgjsTspan1062" dy="16" x="25"><tspan id="SvgjsTspan1063" style="text-decoration:;">他人</tspan></tspan></text></g></g><g id="SvgjsG1064"><path id="SvgjsPath1065" d="M227.671875 50L269.371875 49.99999999999994" stroke="#323232" stroke-width="1" fill="none" marker-end="url(#SvgjsMarker1066)"></path></g><g id="SvgjsG1068"><path id="SvgjsPath1069" d="M321.671875 49.99999999999994L359.37187500000005 49.99999999999994" stroke="#323232" stroke-width="1" fill="none" marker-end="url(#SvgjsMarker1070)"></path></g><g id="SvgjsG1072"><path id="SvgjsPath1073" d="M411.671875 49.99999999999994L440.171875 49.99999999999994L440.171875 88.19999999999999" stroke="#323232" stroke-width="1" fill="none" marker-end="url(#SvgjsMarker1074)"></path></g><g id="SvgjsG1076"><path id="SvgjsPath1077" d="M440.171875 140.5L440.171875 179.99999999999994L416.97187499999995 179.99999999999994" stroke="#323232" stroke-width="1" fill="none" marker-end="url(#SvgjsMarker1078)"></path></g><g id="SvgjsG1080"><path id="SvgjsPath1081" d="M270.671875 179.99999999999994L228.971875 179.99999999999994" stroke="#323232" stroke-width="1" fill="none" marker-end="url(#SvgjsMarker1082)"></path></g><g id="SvgjsG1084"><path id="SvgjsPath1085" d="M176.671875 179.99999999999994L152.171875 179.99999999999994L152.171875 141.8" stroke="#323232" stroke-width="1" fill="none" marker-end="url(#SvgjsMarker1086)"></path></g><g id="SvgjsG1088"><path id="SvgjsPath1089" d="M152.171875 89.5L152.171875 50L175.371875 50" stroke="#323232" stroke-width="1" fill="none" marker-end="url(#SvgjsMarker1090)"></path></g><g id="SvgjsG1092"><path id="SvgjsPath1093" d="M25.9528602879858 115.66841025565057C 25.005208333333513 89.9166666666668 42.921875 52.4166666666668 85.67034256051113 51.92171496859524" stroke="#81a0aa" stroke-width="2" fill="none" marker-end="url(#SvgjsMarker1094)"></path></g><g id="SvgjsG1096"><path id="SvgjsPath1097" d="M152.4848445435589 117.66137906823198C 152.50520833333337 158.25 120.99005681818142 182.3030303030306 92.82697085244354 181.55875416445883" stroke="#81a0aa" stroke-width="2" fill="none" marker-end="url(#SvgjsMarker1098)"></path></g><g id="SvgjsG1100"><path id="SvgjsPath1101" d="M364.671875 179.99999999999994L322.97187499999995 179.99999999999994" stroke="#323232" stroke-width="1" fill="none" marker-end="url(#SvgjsMarker1102)"></path></g><g id="SvgjsG1104" transform="translate(236.171875,100)"><path id="SvgjsPath1105" d="M 0 0L 120 0L 120 30L 0 30Z" stroke="none" fill="none"></path><g id="SvgjsG1106"><text id="SvgjsText1107" font-family="&quot;Times New Roman&quot;" text-anchor="middle" font-size="13px" width="120px" fill="#e0e0e0" font-weight="400" align="middle" lineHeight="125%" anchor="middle" family="&quot;Times New Roman&quot;" size="13px" weight="400" font-style="" opacity="1" y="4.375" transform="rotate(0)"><tspan id="SvgjsTspan1108" dy="16" x="60"><tspan id="SvgjsTspan1109" style="text-decoration:;">www.kofes.cn</tspan></tspan></text></g></g></svg>