<svg id="SvgjsSvg1006" width="538" height="234.3359375" xmlns="http://www.w3.org/2000/svg" version="1.1" xmlns:xlink="http://www.w3.org/1999/xlink" xmlns:svgjs="http://svgjs.com/svgjs"><defs id="SvgjsDefs1007"><marker id="SvgjsMarker1074" markerWidth="12" markerHeight="8" refX="3" refY="4" viewBox="0 0 12 8" orient="auto" markerUnits="userSpaceOnUse" stroke-dasharray="0,0"><path id="SvgjsPath1075" d="M12,0 L0,4 L12,8 L12,0" fill="#323232" stroke="#323232" stroke-width="1"></path></marker><marker id="SvgjsMarker1076" markerWidth="12" markerHeight="8" refX="9" refY="4" viewBox="0 0 12 8" orient="auto" markerUnits="userSpaceOnUse" stroke-dasharray="0,0"><path id="SvgjsPath1077" d="M0,0 L12,4 L0,8 L0,0" fill="#323232" stroke="#323232" stroke-width="1"></path></marker></defs><g id="SvgjsG1008" transform="translate(93,29.3359375)"><path id="SvgjsPath1009" d="M 160 0L 320 180L 0 180Z" stroke="rgba(97,97,97,1)" stroke-width="1" fill-opacity="1" fill="#f6f3ee"></path><g id="SvgjsG1010"><text id="SvgjsText1011" font-family="微软雅黑" text-anchor="middle" font-size="13px" width="300px" fill="#3d4b58" font-weight="400" align="middle" lineHeight="125%" anchor="middle" family="微软雅黑" size="13px" weight="400" font-style="" opacity="1" y="101.875" transform="rotate(0)"></text></g></g><g id="SvgjsG1012"><path id="SvgjsPath1013" d="M173.5 119.3359375L332.5 119.3359375" stroke="#616161" stroke-width="1" fill="none"></path></g><g id="SvgjsG1014"><path id="SvgjsPath1015" d="M147.33333333333331 148.3359375L358.9499145324635 148.3359375" stroke="#616161" stroke-width="1" fill="none"></path></g><g id="SvgjsG1016"><path id="SvgjsPath1017" d="M120.29629629629625 178.3359375L385.1538461538462 178.3359375" stroke="#616161" stroke-width="1" fill="none"></path></g><g id="SvgjsG1018" transform="translate(193,179.33593750000023)"><path id="SvgjsPath1019" d="M 0 0L 120 0L 120 30L 0 30Z" stroke="none" fill="none"></path><g id="SvgjsG1020"><text id="SvgjsText1021" font-family="微软雅黑" text-anchor="middle" font-size="13px" width="120px" fill="#3d4b58" font-weight="400" align="middle" lineHeight="125%" anchor="middle" family="微软雅黑" size="13px" weight="400" font-style="" opacity="1" y="4.375" transform="rotate(0)"><tspan id="SvgjsTspan1022" dy="16" x="60"><tspan id="SvgjsTspan1023" style="text-decoration:;">生理需求</tspan></tspan></text></g></g><g id="SvgjsG1024" transform="translate(192.9999999999999,149.33593750000023)"><path id="SvgjsPath1025" d="M 0 0L 120 0L 120 30L 0 30Z" stroke="none" fill="none"></path><g id="SvgjsG1026"><text id="SvgjsText1027" font-family="微软雅黑" text-anchor="middle" font-size="13px" width="120px" fill="#3d4b58" font-weight="400" align="middle" lineHeight="125%" anchor="middle" family="微软雅黑" size="13px" weight="400" font-style="" opacity="1" y="4.375" transform="rotate(0)"><tspan id="SvgjsTspan1028" dy="16" x="60"><tspan id="SvgjsTspan1029" style="text-decoration:;">安全需求</tspan></tspan></text></g></g><g id="SvgjsG1030" transform="translate(193,119.33593750000023)"><path id="SvgjsPath1031" d="M 0 0L 120 0L 120 30L 0 30Z" stroke="none" fill="none"></path><g id="SvgjsG1032"><text id="SvgjsText1033" font-family="微软雅黑" text-anchor="middle" font-size="13px" width="120px" fill="#3d4b58" font-weight="400" align="middle" lineHeight="125%" anchor="middle" family="微软雅黑" size="13px" weight="400" font-style="" opacity="1" y="4.375" transform="rotate(0)"><tspan id="SvgjsTspan1034" dy="16" x="60"><tspan id="SvgjsTspan1035" style="text-decoration:;">社交需求</tspan></tspan></text></g></g><g id="SvgjsG1036"><path id="SvgjsPath1037" d="M197.50484863285317 90.92853009259272L308.23076923076917 90.92853009259272" stroke="#616161" stroke-width="1" fill="none"></path></g><g id="SvgjsG1038" transform="translate(192.9999999999999,89.3359375)"><path id="SvgjsPath1039" d="M 0 0L 120 0L 120 30L 0 30Z" stroke="none" fill="none"></path><g id="SvgjsG1040"><text id="SvgjsText1041" font-family="微软雅黑" text-anchor="middle" font-size="13px" width="120px" fill="#3d4b58" font-weight="400" align="middle" lineHeight="125%" anchor="middle" family="微软雅黑" size="13px" weight="400" font-style="" opacity="1" y="4.375" transform="rotate(0)"><tspan id="SvgjsTspan1042" dy="16" x="60"><tspan id="SvgjsTspan1043" style="text-decoration:;">尊重需求</tspan></tspan></text></g></g><g id="SvgjsG1044" transform="translate(192.9999999999999,59.335937500000284)"><path id="SvgjsPath1045" d="M 0 0L 120 0L 120 30L 0 30Z" stroke="none" fill="none"></path><g id="SvgjsG1046"><text id="SvgjsText1047" font-family="微软雅黑" text-anchor="middle" font-size="13px" width="120px" fill="#3d4b58" font-weight="400" align="middle" lineHeight="125%" anchor="middle" family="微软雅黑" size="13px" weight="400" font-style="" opacity="1" y="4.375" transform="rotate(0)"><tspan id="SvgjsTspan1048" dy="16" x="60"><tspan id="SvgjsTspan1049" style="text-decoration:;">自我实现</tspan></tspan></text></g></g><g id="SvgjsG1050" transform="translate(327,31.3359375)"><path id="SvgjsPath1051" d="M 0 60Q 2 60 2 54L 2 36Q 2 30 22 30Q 2 30 2 24L 2 6Q 2 0 0 0" stroke="rgba(97,97,97,1)" stroke-width="1" fill-opacity="1" fill="#f6f3ee"></path><path id="SvgjsPath1052" d="M 0 0L 20 0L 20 60L 0 60Z" stroke="none" fill="none"></path><g id="SvgjsG1053"><text id="SvgjsText1054" font-family="微软雅黑" text-anchor="start" font-size="13px" width="0" fill="#3d4b58" font-weight="400" align="middle" lineHeight="125%" anchor="start" family="微软雅黑" size="13px" weight="400" font-style="" opacity="1" y="19.375" transform="rotate(0)"></text></g></g><g id="SvgjsG1055" transform="translate(421,89.3359375)"><path id="SvgjsPath1056" d="M 0 120.00000000000023Q 2 120.00000000000023 2 111.00000000000023L 2 69.00000000000011Q 2 60.000000000000114 22 60.000000000000114Q 2 60.000000000000114 2 51.000000000000114L 2 9Q 2 0 0 0" stroke="rgba(97,97,97,1)" stroke-width="1" fill-opacity="1" fill="#f6f3ee"></path><path id="SvgjsPath1057" d="M 0 0L 20 0L 20 120.00000000000023L 0 120.00000000000023Z" stroke="none" fill="none"></path><g id="SvgjsG1058"><text id="SvgjsText1059" font-family="微软雅黑" text-anchor="start" font-size="13px" width="0" fill="#3d4b58" font-weight="400" align="middle" lineHeight="125%" anchor="start" family="微软雅黑" size="13px" weight="400" font-style="" opacity="1" y="49.375000000000114" transform="rotate(0)"></text></g></g><g id="SvgjsG1060" transform="translate(361,46.3359375)"><path id="SvgjsPath1061" d="M 0 0L 60 0L 60 30L 0 30Z" stroke="none" fill="none"></path><g id="SvgjsG1062"><text id="SvgjsText1063" font-family="微软雅黑" text-anchor="middle" font-size="13px" width="60px" fill="#688f4e" font-weight="400" align="middle" lineHeight="125%" anchor="middle" family="微软雅黑" size="13px" weight="400" font-style="" opacity="1" y="4.375" transform="rotate(0)"><tspan id="SvgjsTspan1064" dy="16" x="30"><tspan id="SvgjsTspan1065" style="text-decoration:;">由内而外</tspan></tspan></text></g></g><g id="SvgjsG1066" transform="translate(453,134.3359375000001)"><path id="SvgjsPath1067" d="M 0 0L 60 0L 60 30L 0 30Z" stroke="none" fill="none"></path><g id="SvgjsG1068"><text id="SvgjsText1069" font-family="微软雅黑" text-anchor="middle" font-size="13px" width="60px" fill="#688f4e" font-weight="400" align="middle" lineHeight="125%" anchor="middle" family="微软雅黑" size="13px" weight="400" font-style="" opacity="1" y="4.375" transform="rotate(0)"><tspan id="SvgjsTspan1070" dy="16" x="30"><tspan id="SvgjsTspan1071" style="text-decoration:;">向外索取</tspan></tspan></text></g></g><g id="SvgjsG1072"><path id="SvgjsPath1073" d="M80.66666666666669 202.78038194444446L238.4444444444443 25.002604166666686" stroke="#323232" stroke-width="1" fill="none" marker-start="url(#SvgjsMarker1074)" marker-end="url(#SvgjsMarker1076)"></path></g><g id="SvgjsG1078" transform="translate(24.999999999999716,79.3359375)"><path id="SvgjsPath1079" d="M 0 0L 120 0L 120 40L 0 40Z" stroke="none" fill="none"></path><g id="SvgjsG1080"><text id="SvgjsText1081" font-family="微软雅黑" text-anchor="middle" font-size="13px" width="120px" fill="#212121" font-weight="400" align="middle" lineHeight="125%" anchor="middle" family="微软雅黑" size="13px" weight="400" font-style="" opacity="1" y="0.875" transform="rotate(0)"><tspan id="SvgjsTspan1082" dy="16" x="60"><tspan id="SvgjsTspan1083" style="text-decoration:;">需求自底向上升级</tspan></tspan><tspan id="SvgjsTspan1084" dy="16" x="60"><tspan id="SvgjsTspan1085" style="text-decoration:;">需求也可向下降级</tspan></tspan></text></g></g><g id="SvgjsG1086" transform="translate(24.999999999999716,31.3359375)"><path id="SvgjsPath1087" d="M 0 0L 120 0L 120 30L 0 30Z" stroke="none" fill="none"></path><g id="SvgjsG1088"><text id="SvgjsText1089" font-family="&quot;Times New Roman&quot;" text-anchor="middle" font-size="13px" width="120px" fill="#e0e0e0" font-weight="400" align="middle" lineHeight="125%" anchor="middle" family="&quot;Times New Roman&quot;" size="13px" weight="400" font-style="" opacity="1" y="4.375" transform="rotate(0)"><tspan id="SvgjsTspan1090" dy="16" x="60"><tspan id="SvgjsTspan1091" style="text-decoration:;">www.kofes.cn</tspan></tspan></text></g></g></svg>