<svg id="SvgjsSvg1001" width="532" height="303" xmlns="http://www.w3.org/2000/svg" version="1.1" xmlns:xlink="http://www.w3.org/1999/xlink" xmlns:svgjs="http://svgjs.com/svgjs"><defs id="SvgjsDefs1002"><marker id="SvgjsMarker1016" markerWidth="12" markerHeight="8" refX="9" refY="4" viewBox="0 0 12 8" orient="auto" markerUnits="userSpaceOnUse" stroke-dasharray="0,0"><path id="SvgjsPath1017" d="M0,0 L12,4 L0,8 L0,0" fill="#323232" stroke="#323232" stroke-width="1"></path></marker><marker id="SvgjsMarker1020" markerWidth="12" markerHeight="8" refX="9" refY="4" viewBox="0 0 12 8" orient="auto" markerUnits="userSpaceOnUse" stroke-dasharray="0,0"><path id="SvgjsPath1021" d="M0,0 L12,4 L0,8 L0,0" fill="#323232" stroke="#323232" stroke-width="1"></path></marker></defs><g id="SvgjsG1008" transform="translate(265,100)"><path id="SvgjsPath1009" d="M 0 0L 45 0L 45 45L 0 45Z" stroke="none" fill="none"></path><g id="SvgjsG1010"><text id="SvgjsText1011" font-family="微软雅黑" text-anchor="middle" font-size="13px" width="45px" fill="#000000" font-weight="400" align="middle" lineHeight="125%" anchor="middle" family="微软雅黑" size="13px" weight="400" font-style="" opacity="1" y="11.875" transform="rotate(0)"><tspan id="SvgjsTspan1012" dy="16" x="22.5"><tspan id="SvgjsTspan1013" style="text-decoration:;">2 号区</tspan></tspan></text></g></g><g id="SvgjsG1014"><path id="SvgjsPath1015" d="M70.23076923076923 278C 190.23076923076923 278 249.23076923076923 100 250.23076923076923 43" stroke="#323232" stroke-width="1" fill="none" marker-end="url(#SvgjsMarker1016)"></path></g><g id="SvgjsG1018"><path id="SvgjsPath1019" d="M505 278C 386 278 325 98 325 43" stroke="#323232" stroke-width="1" fill="none" marker-end="url(#SvgjsMarker1020)"></path></g><g id="SvgjsG1022"><path id="SvgjsPath1023" d="M160 160.5L288.5 160.5L288.5 160.5L416 160.5" stroke-dasharray="8,5" stroke="#323232" stroke-width="1" fill="none"></path></g><g id="SvgjsG1024"><path id="SvgjsPath1025" d="M205 85L287.5 85L287.5 85L370 85" stroke-dasharray="8,5" stroke="#323232" stroke-width="1" fill="none"></path></g><g id="SvgjsG1026" transform="translate(265,25)"><path id="SvgjsPath1027" d="M 0 0L 45 0L 45 45L 0 45Z" stroke="none" fill="none"></path><g id="SvgjsG1028"><text id="SvgjsText1029" font-family="微软雅黑" text-anchor="middle" font-size="13px" width="45px" fill="#000000" font-weight="400" align="middle" lineHeight="125%" anchor="middle" family="微软雅黑" size="13px" weight="400" font-style="" opacity="1" y="11.875" transform="rotate(0)"><tspan id="SvgjsTspan1030" dy="16" x="22.5"><tspan id="SvgjsTspan1031" style="text-decoration:;">1 号区</tspan></tspan></text></g></g><g id="SvgjsG1032" transform="translate(265,177)"><path id="SvgjsPath1033" d="M 0 0L 45 0L 45 45L 0 45Z" stroke="none" fill="none"></path><g id="SvgjsG1034"><text id="SvgjsText1035" font-family="微软雅黑" text-anchor="middle" font-size="13px" width="45px" fill="#000000" font-weight="400" align="middle" lineHeight="125%" anchor="middle" family="微软雅黑" size="13px" weight="400" font-style="" opacity="1" y="11.875" transform="rotate(0)"><tspan id="SvgjsTspan1036" dy="16" x="22.5"><tspan id="SvgjsTspan1037" style="text-decoration:;">3 号区</tspan></tspan></text></g></g><g id="SvgjsG1038" transform="translate(438,100)"><path id="SvgjsPath1039" d="M 0 0L 45 0L 45 45L 0 45Z" stroke="none" fill="none"></path><g id="SvgjsG1040"><text id="SvgjsText1041" font-family="微软雅黑" text-anchor="middle" font-size="13px" width="45px" fill="#688f4e" font-weight="400" align="middle" lineHeight="125%" anchor="middle" family="微软雅黑" size="13px" weight="400" font-style="" opacity="1" y="11.875" transform="rotate(0)"><tspan id="SvgjsTspan1042" dy="16" x="22.5"><tspan id="SvgjsTspan1043" style="text-decoration:;">有序</tspan></tspan></text></g></g><g id="SvgjsG1044" transform="translate(438,177)"><path id="SvgjsPath1045" d="M 0 0L 45 0L 45 45L 0 45Z" stroke="none" fill="none"></path><g id="SvgjsG1046"><text id="SvgjsText1047" font-family="微软雅黑" text-anchor="middle" font-size="13px" width="45px" fill="#d32f2f" font-weight="400" align="middle" lineHeight="125%" anchor="middle" family="微软雅黑" size="13px" weight="400" font-style="" opacity="1" y="11.875" transform="rotate(0)"><tspan id="SvgjsTspan1048" dy="16" x="22.5"><tspan id="SvgjsTspan1049" style="text-decoration:;">无序</tspan></tspan></text></g></g><g id="SvgjsG1050" transform="translate(417,138)"><path id="SvgjsPath1051" d="M 0 0L 90 0L 90 45L 0 45Z" stroke="none" fill="none"></path><g id="SvgjsG1052"><text id="SvgjsText1053" font-family="微软雅黑" text-anchor="middle" font-size="13px" width="90px" fill="#000000" font-weight="400" align="middle" lineHeight="125%" anchor="middle" family="微软雅黑" size="13px" weight="400" font-style="" opacity="1" y="11.875" transform="rotate(0)"><tspan id="SvgjsTspan1054" dy="16" x="45"><tspan id="SvgjsTspan1055" style="text-decoration:;">秩序分界线</tspan></tspan></text></g></g><g id="SvgjsG1056" transform="translate(205,236)"><path id="SvgjsPath1057" d="M 0 15C 0 -5 30 -5 30 15C 30 35 0 35 0 15Z" stroke="rgba(97,97,97,1)" stroke-width="1" fill-opacity="1" fill="#81a0aa"></path><g id="SvgjsG1058"><text id="SvgjsText1059" font-family="微软雅黑" text-anchor="middle" font-size="12px" width="10px" fill="#f6f3ee" font-weight="400" align="middle" lineHeight="125%" anchor="middle" family="微软雅黑" size="12px" weight="400" font-style="" opacity="1" y="5" transform="rotate(0)"><tspan id="SvgjsTspan1060" dy="15" x="15"><tspan id="SvgjsTspan1061" style="text-decoration:;">势</tspan></tspan></text></g></g><g id="SvgjsG1062" transform="translate(250,236)"><path id="SvgjsPath1063" d="M 0 15C 0 -5 30 -5 30 15C 30 35 0 35 0 15Z" stroke="rgba(97,97,97,1)" stroke-width="1" fill-opacity="1" fill="#81a0aa"></path><g id="SvgjsG1064"><text id="SvgjsText1065" font-family="微软雅黑" text-anchor="middle" font-size="12px" width="10px" fill="#f6f3ee" font-weight="400" align="middle" lineHeight="125%" anchor="middle" family="微软雅黑" size="12px" weight="400" font-style="" opacity="1" y="5" transform="rotate(0)"><tspan id="SvgjsTspan1066" dy="15" x="15"><tspan id="SvgjsTspan1067" style="text-decoration:;">爽</tspan></tspan></text></g></g><g id="SvgjsG1068" transform="translate(295,236)"><path id="SvgjsPath1069" d="M 0 15C 0 -5 30 -5 30 15C 30 35 0 35 0 15Z" stroke="rgba(97,97,97,1)" stroke-width="1" fill-opacity="1" fill="#81a0aa"></path><g id="SvgjsG1070"><text id="SvgjsText1071" font-family="微软雅黑" text-anchor="middle" font-size="12px" width="10px" fill="#f6f3ee" font-weight="400" align="middle" lineHeight="125%" anchor="middle" family="微软雅黑" size="12px" weight="400" font-style="" opacity="1" y="5" transform="rotate(0)"><tspan id="SvgjsTspan1072" dy="15" x="15"><tspan id="SvgjsTspan1073" style="text-decoration:;">钱</tspan></tspan></text></g></g><g id="SvgjsG1074" transform="translate(340,236)"><path id="SvgjsPath1075" d="M 0 15C 0 -5 30 -5 30 15C 30 35 0 35 0 15Z" stroke="rgba(97,97,97,1)" stroke-width="1" fill-opacity="1" fill="#81a0aa"></path><g id="SvgjsG1076"><text id="SvgjsText1077" font-family="微软雅黑" text-anchor="middle" font-size="12px" width="10px" fill="#f6f3ee" font-weight="400" align="middle" lineHeight="125%" anchor="middle" family="微软雅黑" size="12px" weight="400" font-style="" opacity="1" y="5" transform="rotate(0)"><tspan id="SvgjsTspan1078" dy="15" x="15"><tspan id="SvgjsTspan1079" style="text-decoration:;">安</tspan></tspan></text></g></g><g id="SvgjsG1080" transform="translate(25,25)"><path id="SvgjsPath1081" d="M 0 0L 180 0L 180 45L 0 45Z" stroke="none" fill="none"></path><g id="SvgjsG1082"><text id="SvgjsText1083" font-family="微软雅黑" text-anchor="middle" font-size="13px" width="180px" fill="#000000" font-weight="400" align="middle" lineHeight="150%" anchor="middle" family="微软雅黑" size="13px" weight="400" font-style="" opacity="1" y="8.25" transform="rotate(0)"><tspan id="SvgjsTspan1084" dy="19" x="90"><tspan id="SvgjsTspan1085" style="text-decoration:;">有成就的</tspan><tspan id="SvgjsTspan1086" style="text-decoration:;font-size: inherit;">学者/投资者/创业者</tspan></tspan></text></g></g><g id="SvgjsG1087" transform="translate(25,100)"><path id="SvgjsPath1088" d="M 0 0L 180 0L 180 45L 0 45Z" stroke="none" fill="none"></path><g id="SvgjsG1089"><text id="SvgjsText1090" font-family="微软雅黑" text-anchor="middle" font-size="13px" width="180px" fill="#000000" font-weight="400" align="middle" lineHeight="125%" anchor="middle" family="微软雅黑" size="13px" weight="400" font-style="" opacity="1" y="11.875" transform="rotate(0)"><tspan id="SvgjsTspan1091" dy="16" x="90"><tspan id="SvgjsTspan1092" style="text-decoration:;">良性循环的人群</tspan></tspan></text></g></g><g id="SvgjsG1093" transform="translate(25,177)"><path id="SvgjsPath1094" d="M 0 0L 180 0L 180 45L 0 45Z" stroke="none" fill="none"></path><g id="SvgjsG1095"><text id="SvgjsText1096" font-family="微软雅黑" text-anchor="middle" font-size="13px" width="180px" fill="#000000" font-weight="400" align="middle" lineHeight="125%" anchor="middle" family="微软雅黑" size="13px" weight="400" font-style="" opacity="1" y="11.875" transform="rotate(0)"><tspan id="SvgjsTspan1097" dy="16" x="90"><tspan id="SvgjsTspan1098" style="text-decoration:;">非良性循环的人群</tspan></tspan></text></g></g></svg>