<svg id="SvgjsSvg1006" width="738" height="351.5" xmlns="http://www.w3.org/2000/svg" version="1.1" xmlns:xlink="http://www.w3.org/1999/xlink" xmlns:svgjs="http://svgjs.com/svgjs"><defs id="SvgjsDefs1007"><marker id="SvgjsMarker1054" markerWidth="12" markerHeight="8" refX="9" refY="4" viewBox="0 0 12 8" orient="auto" markerUnits="userSpaceOnUse" stroke-dasharray="0,0"><path id="SvgjsPath1055" d="M0,0 L12,4 L0,8 L0,0" fill="#323232" stroke="#323232" stroke-width="1"></path></marker><marker id="SvgjsMarker1087" markerWidth="12" markerHeight="8" refX="3" refY="4" viewBox="0 0 12 8" orient="auto" markerUnits="userSpaceOnUse" stroke-dasharray="0,0"><path id="SvgjsPath1088" d="M12,0 L0,4 L12,8 L12,0" fill="#323232" stroke="#323232" stroke-width="1"></path></marker></defs><g id="SvgjsG1008" transform="translate(359,25)"><path id="SvgjsPath1009" d="M 0 10C 0 -3.3333333333333335 20 -3.3333333333333335 20 10C 20 23.333333333333332 0 23.333333333333332 0 10Z" stroke="rgba(50,50,50,1)" stroke-width="1" fill-opacity="1" fill="#ffffff"></path><g id="SvgjsG1010"><text id="SvgjsText1011" font-family="微软雅黑" text-anchor="middle" font-size="13px" width="0px" fill="#323232" font-weight="400" align="middle" lineHeight="125%" anchor="middle" family="微软雅黑" size="13px" weight="400" font-style="" opacity="1" y="-0.625" transform="rotate(0)"></text></g></g><g id="SvgjsG1012" transform="translate(339,165)"><path id="SvgjsPath1013" d="M 0 30C 0 -10 60 -10 60 30C 60 70 0 70 0 30Z" stroke="rgba(50,50,50,1)" stroke-width="1" fill-opacity="1" fill="#ffffff"></path><g id="SvgjsG1014"><text id="SvgjsText1015" font-family="微软雅黑" text-anchor="middle" font-size="13px" width="40px" fill="#323232" font-weight="400" align="middle" lineHeight="125%" anchor="middle" family="微软雅黑" size="13px" weight="400" font-style="" opacity="1" y="19.375" transform="rotate(0)"><tspan id="SvgjsTspan1016" dy="16" x="30"><tspan id="SvgjsTspan1017" style="text-decoration:;">3</tspan></tspan></text></g></g><g id="SvgjsG1018" transform="translate(236,144)"><path id="SvgjsPath1019" d="M 0 30C 0 -10 60 -10 60 30C 60 70 0 70 0 30Z" stroke="rgba(50,50,50,1)" stroke-width="1" fill-opacity="1" fill="#ffffff"></path><g id="SvgjsG1020"><text id="SvgjsText1021" font-family="微软雅黑" text-anchor="middle" font-size="13px" width="40px" fill="#323232" font-weight="400" align="middle" lineHeight="125%" anchor="middle" family="微软雅黑" size="13px" weight="400" font-style="" opacity="1" y="19.375" transform="rotate(0)"><tspan id="SvgjsTspan1022" dy="16" x="30"><tspan id="SvgjsTspan1023" style="text-decoration:;">2</tspan></tspan></text></g></g><g id="SvgjsG1024" transform="translate(446,144)"><path id="SvgjsPath1025" d="M 0 30C 0 -10 60 -10 60 30C 60 70 0 70 0 30Z" stroke="rgba(50,50,50,1)" stroke-width="1" fill-opacity="1" fill="#ffffff"></path><g id="SvgjsG1026"><text id="SvgjsText1027" font-family="微软雅黑" text-anchor="middle" font-size="13px" width="40px" fill="#323232" font-weight="400" align="middle" lineHeight="125%" anchor="middle" family="微软雅黑" size="13px" weight="400" font-style="" opacity="1" y="19.375" transform="rotate(0)"><tspan id="SvgjsTspan1028" dy="16" x="30"><tspan id="SvgjsTspan1029" style="text-decoration:;">4</tspan></tspan></text></g></g><g id="SvgjsG1030" transform="translate(553,114)"><path id="SvgjsPath1031" d="M 0 30C 0 -10 60 -10 60 30C 60 70 0 70 0 30Z" stroke="rgba(50,50,50,1)" stroke-width="1" fill-opacity="1" fill="#ffffff"></path><g id="SvgjsG1032"><text id="SvgjsText1033" font-family="微软雅黑" text-anchor="middle" font-size="13px" width="40px" fill="#323232" font-weight="400" align="middle" lineHeight="125%" anchor="middle" family="微软雅黑" size="13px" weight="400" font-style="" opacity="1" y="19.375" transform="rotate(0)"><tspan id="SvgjsTspan1034" dy="16" x="30"><tspan id="SvgjsTspan1035" style="text-decoration:;">5</tspan></tspan></text></g></g><g id="SvgjsG1036" transform="translate(125,114)"><path id="SvgjsPath1037" d="M 0 30C 0 -10 60 -10 60 30C 60 70 0 70 0 30Z" stroke="rgba(50,50,50,1)" stroke-width="1" fill-opacity="1" fill="#ffffff"></path><g id="SvgjsG1038"><text id="SvgjsText1039" font-family="微软雅黑" text-anchor="middle" font-size="13px" width="40px" fill="#323232" font-weight="400" align="middle" lineHeight="125%" anchor="middle" family="微软雅黑" size="13px" weight="400" font-style="" opacity="1" y="19.375" transform="rotate(0)"><tspan id="SvgjsTspan1040" dy="16" x="30"><tspan id="SvgjsTspan1041" style="text-decoration:;">1</tspan></tspan></text></g></g><g id="SvgjsG1042"><path id="SvgjsPath1043" d="M368.5357481237694 45.1856615076324L176.18764369907467 122.10864423777178" stroke-dasharray="3,3" stroke="#323232" stroke-width="1" fill="none"></path></g><g id="SvgjsG1044"><path id="SvgjsPath1045" d="M369.46228324662223 45.19051036688964L560.2717810634008 123.8245246875677" stroke-dasharray="3,3" stroke="#323232" stroke-width="1" fill="none"></path></g><g id="SvgjsG1046"><path id="SvgjsPath1047" d="M369.30684527385137 45.39477332472583L453.42721903617166 153.6202617297315" stroke-dasharray="3,3" stroke="#323232" stroke-width="1" fill="none"></path></g><g id="SvgjsG1048"><path id="SvgjsPath1049" d="M368.6959097701884 45.39689939800044L286.94177912797875 152.10261386980528" stroke-dasharray="3,3" stroke="#323232" stroke-width="1" fill="none"></path></g><g id="SvgjsG1050"><path id="SvgjsPath1051" d="M369 45.5L369 164.5" stroke-dasharray="3,3" stroke="#323232" stroke-width="1" fill="none"></path></g><g id="SvgjsG1052"><path id="SvgjsPath1053" d="M154 85C 368 164 368 164 584 85" stroke="#323232" stroke-width="1" fill="none" marker-end="url(#SvgjsMarker1054)"></path></g><g id="SvgjsG1056" transform="translate(25,121.5)"><path id="SvgjsPath1057" d="M 0 0L 90 0L 90 45L 0 45Z" stroke="none" fill="none"></path><g id="SvgjsG1058"><text id="SvgjsText1059" font-family="微软雅黑" text-anchor="middle" font-size="13px" width="90px" fill="#81a0aa" font-weight="700" align="middle" lineHeight="125%" anchor="middle" family="微软雅黑" size="13px" weight="700" font-style="" opacity="1" y="11.875" transform="rotate(0)"><tspan id="SvgjsTspan1060" dy="16" x="45"><tspan id="SvgjsTspan1061" style="text-decoration:;">精力旺盛</tspan></tspan></text></g></g><g id="SvgjsG1062" transform="translate(623,121.5)"><path id="SvgjsPath1063" d="M 0 0L 90 0L 90 45L 0 45Z" stroke="none" fill="none"></path><g id="SvgjsG1064"><text id="SvgjsText1065" font-family="微软雅黑" text-anchor="middle" font-size="13px" width="90px" fill="#d32f2f" font-weight="700" align="middle" lineHeight="125%" anchor="middle" family="微软雅黑" size="13px" weight="700" font-style="" opacity="1" y="11.875" transform="rotate(0)"><tspan id="SvgjsTspan1066" dy="16" x="45"><tspan id="SvgjsTspan1067" style="text-decoration:;">精力匮乏</tspan></tspan></text></g></g><g id="SvgjsG1068" transform="matrix(6.123233995736766e-17,1,-1,6.123233995736766e-17,612.5,269)"><path id="SvgjsPath1069" d="M 0 165Q 2 165 2 156L 2 91.5Q 2 82.5 22 82.5Q 2 82.5 2 73.5L 2 9Q 2 0 0 0" stroke="rgba(50,50,50,1)" stroke-width="1" fill="none"></path><path id="SvgjsPath1070" d="M 0 0L 20 0L 20 165L 0 165Z" stroke="none" fill="none"></path><g id="SvgjsG1071"><text id="SvgjsText1072" font-family="微软雅黑" text-anchor="start" font-size="13px" width="0" fill="#323232" font-weight="400" align="middle" lineHeight="125%" anchor="start" family="微软雅黑" size="13px" weight="400" font-style="" opacity="1" y="71.875" transform="rotate(0)"></text></g></g><g id="SvgjsG1073" transform="translate(485,291.5)"><path id="SvgjsPath1074" d="M 0 0L 90 0L 90 35L 0 35Z" stroke="none" fill="none"></path><g id="SvgjsG1075"><text id="SvgjsText1076" font-family="微软雅黑" text-anchor="middle" font-size="13px" width="90px" fill="#d32f2f" font-weight="400" align="middle" lineHeight="125%" anchor="middle" family="微软雅黑" size="13px" weight="400" font-style="" opacity="1" y="6.875" transform="rotate(0)"><tspan id="SvgjsTspan1077" dy="16" x="45"><tspan id="SvgjsTspan1078" style="text-decoration:;">迟钝状态</tspan></tspan></text></g></g><g id="SvgjsG1079" transform="translate(351.5,86.5)"><path id="SvgjsPath1080" d="M 0 0L 35 0L 35 35L 0 35Z" stroke="none" fill="none"></path><g id="SvgjsG1081"><text id="SvgjsText1082" font-family="微软雅黑" text-anchor="middle" font-size="13px" width="35px" fill="#d32f2f" font-weight="400" align="middle" lineHeight="125%" anchor="middle" family="微软雅黑" size="13px" weight="400" font-style="" opacity="1" y="6.875" transform="rotate(0)"><tspan id="SvgjsTspan1083" dy="16" x="17.5"><tspan id="SvgjsTspan1084" style="text-decoration:;">消耗</tspan></tspan></text></g></g><g id="SvgjsG1085"><path id="SvgjsPath1086" d="M159 191C 373 270 373 270 589 191" stroke="#323232" stroke-width="1" fill="none" marker-start="url(#SvgjsMarker1087)"></path></g><g id="SvgjsG1089" transform="translate(351.5,261.5)"><path id="SvgjsPath1090" d="M 0 0L 35 0L 35 35L 0 35Z" stroke="none" fill="none"></path><g id="SvgjsG1091"><text id="SvgjsText1092" font-family="微软雅黑" text-anchor="middle" font-size="13px" width="35px" fill="#81a0aa" font-weight="400" align="middle" lineHeight="125%" anchor="middle" family="微软雅黑" size="13px" weight="400" font-style="" opacity="1" y="6.875" transform="rotate(0)"><tspan id="SvgjsTspan1093" dy="16" x="17.5"><tspan id="SvgjsTspan1094" style="text-decoration:;">补充</tspan></tspan></text></g></g></svg>