<svg id="SvgjsSvg1006" width="560" height="305" xmlns="http://www.w3.org/2000/svg" version="1.1" xmlns:xlink="http://www.w3.org/1999/xlink" xmlns:svgjs="http://svgjs.com/svgjs"><defs id="SvgjsDefs1007"><marker id="SvgjsMarker1028" markerWidth="12" markerHeight="8" refX="9" refY="4" viewBox="0 0 12 8" orient="auto" markerUnits="userSpaceOnUse" stroke-dasharray="0,0"><path id="SvgjsPath1029" d="M0,0 L12,4 L0,8 L0,0" fill="#323232" stroke="#323232" stroke-width="1"></path></marker><marker id="SvgjsMarker1032" markerWidth="12" markerHeight="8" refX="9" refY="4" viewBox="0 0 12 8" orient="auto" markerUnits="userSpaceOnUse" stroke-dasharray="0,0"><path id="SvgjsPath1033" d="M0,0 L12,4 L0,8 L0,0" fill="#323232" stroke="#323232" stroke-width="1"></path></marker><marker id="SvgjsMarker1036" markerWidth="12" markerHeight="8" refX="9" refY="4" viewBox="0 0 12 8" orient="auto" markerUnits="userSpaceOnUse" stroke-dasharray="0,0"><path id="SvgjsPath1037" d="M0,0 L12,4 L0,8 L0,0" fill="#323232" stroke="#323232" stroke-width="1"></path></marker><marker id="SvgjsMarker1076" markerWidth="12" markerHeight="8" refX="9" refY="4" viewBox="0 0 12 8" orient="auto" markerUnits="userSpaceOnUse" stroke-dasharray="0,0"><path id="SvgjsPath1077" d="M0,0 L12,4 L0,8 L0,0" fill="#323232" stroke="#323232" stroke-width="1"></path></marker></defs><g id="SvgjsG1008" transform="translate(55.00674019607794,115.0056678921579)"><path id="SvgjsPath1009" d="M 0 45C 0 -15 90 -15 90 45C 90 105 0 105 0 45Z" stroke="rgba(97,97,97,1)" stroke-width="1" fill-opacity="1" fill="#f6f3ee"></path><g id="SvgjsG1010"><text id="SvgjsText1011" font-family="微软雅黑" text-anchor="middle" font-size="13px" width="70px" fill="#3d4b58" font-weight="400" align="middle" lineHeight="125%" anchor="middle" family="微软雅黑" size="13px" weight="400" font-style="" opacity="1" y="34.375" transform="rotate(0)"><tspan id="SvgjsTspan1012" dy="16" x="45"><tspan id="SvgjsTspan1013" style="text-decoration:;">精力管理</tspan></tspan></text></g></g><g id="SvgjsG1014" transform="translate(235.006740196078,25.005667892157902)"><path id="SvgjsPath1015" d="M 0 45C 0 -15 90 -15 90 45C 90 105 0 105 0 45Z" stroke="rgba(97,97,97,1)" stroke-width="1" fill-opacity="1" fill="#f6f3ee"></path><g id="SvgjsG1016"><text id="SvgjsText1017" font-family="微软雅黑" text-anchor="middle" font-size="13px" width="70px" fill="#3d4b58" font-weight="400" align="middle" lineHeight="125%" anchor="middle" family="微软雅黑" size="13px" weight="400" font-style="" opacity="1" y="34.375" transform="rotate(0)"><tspan id="SvgjsTspan1018" dy="16" x="45"><tspan id="SvgjsTspan1019" style="text-decoration:;">身价管理</tspan></tspan></text></g></g><g id="SvgjsG1020" transform="translate(415.006740196078,25.005667892157902)"><path id="SvgjsPath1021" d="M 0 45C 0 -15 90 -15 90 45C 90 105 0 105 0 45Z" stroke="rgba(97,97,97,1)" stroke-width="1" fill-opacity="1" fill="#f6f3ee"></path><g id="SvgjsG1022"><text id="SvgjsText1023" font-family="微软雅黑" text-anchor="middle" font-size="13px" width="70px" fill="#3d4b58" font-weight="400" align="middle" lineHeight="125%" anchor="middle" family="微软雅黑" size="13px" weight="400" font-style="" opacity="1" y="34.375" transform="rotate(0)"><tspan id="SvgjsTspan1024" dy="16" x="45"><tspan id="SvgjsTspan1025" style="text-decoration:;">企业管理</tspan></tspan></text></g></g><g id="SvgjsG1026"><path id="SvgjsPath1027" d="M100.48108184510318 114.84755400914949L233.29911025958705 70.57487787098822" stroke="#323232" stroke-width="1" fill="none" marker-end="url(#SvgjsMarker1028)"></path></g><g id="SvgjsG1030"><path id="SvgjsPath1031" d="M325.506740196078 70.0056678921579L413.20674019607804 70.0056678921579" stroke="#323232" stroke-width="1" fill="none" marker-end="url(#SvgjsMarker1032)"></path></g><g id="SvgjsG1034"><path id="SvgjsPath1035" d="M145.50673803410814 160.00419752991672C 278.28125 159.0546875 414.28125 174.0546875 458.823834130622 116.3624041378252" stroke="#323232" stroke-width="1" fill="none" marker-end="url(#SvgjsMarker1036)"></path></g><g id="SvgjsG1038" transform="translate(115.28125,55.0056678921579)"><path id="SvgjsPath1039" d="M 0 0L 90 0L 90 30L 0 30Z" stroke="none" fill="none"></path><g id="SvgjsG1040"><text id="SvgjsText1041" font-family="微软雅黑" text-anchor="middle" font-size="13px" width="90px" fill="#323232" font-weight="400" align="middle" lineHeight="125%" anchor="middle" family="微软雅黑" size="13px" weight="400" font-style="" opacity="1" y="4.375" transform="rotate(0)"><tspan id="SvgjsTspan1042" dy="16" x="45"><tspan id="SvgjsTspan1043" style="text-decoration:;">通向</tspan></tspan></text></g></g><g id="SvgjsG1044" transform="translate(325.28125,25.005667892157902)"><path id="SvgjsPath1045" d="M 0 0L 90 0L 90 30L 0 30Z" stroke="none" fill="none"></path><g id="SvgjsG1046"><text id="SvgjsText1047" font-family="微软雅黑" text-anchor="middle" font-size="13px" width="90px" fill="#323232" font-weight="400" align="middle" lineHeight="125%" anchor="middle" family="微软雅黑" size="13px" weight="400" font-style="" opacity="1" y="4.375" transform="rotate(0)"><tspan id="SvgjsTspan1048" dy="16" x="45"><tspan id="SvgjsTspan1049" style="text-decoration:;">通向</tspan></tspan></text></g></g><g id="SvgjsG1050" transform="translate(153.28125,99.0056678921579)"><path id="SvgjsPath1051" d="M 0 0L 90 0L 90 30L 0 30Z" stroke="none" fill="none"></path><g id="SvgjsG1052"><text id="SvgjsText1053" font-family="微软雅黑" text-anchor="middle" font-size="13px" width="90px" fill="#81a0aa" font-weight="400" align="middle" lineHeight="125%" anchor="middle" family="微软雅黑" size="13px" weight="400" font-style="" opacity="1" y="4.375" transform="rotate(0)"><tspan id="SvgjsTspan1054" dy="16" x="45"><tspan id="SvgjsTspan1055" style="text-decoration:;">组织攀爬</tspan></tspan></text></g></g><g id="SvgjsG1056" transform="translate(325.28125,99.0056678921579)"><path id="SvgjsPath1057" d="M 0 0L 90 0L 90 30L 0 30Z" stroke="none" fill="none"></path><g id="SvgjsG1058"><text id="SvgjsText1059" font-family="微软雅黑" text-anchor="middle" font-size="13px" width="90px" fill="#81a0aa" font-weight="400" align="middle" lineHeight="125%" anchor="middle" family="微软雅黑" size="13px" weight="400" font-style="" opacity="1" y="4.375" transform="rotate(0)"><tspan id="SvgjsTspan1060" dy="16" x="45"><tspan id="SvgjsTspan1061" style="text-decoration:;">自主创业</tspan></tspan></text></g></g><g id="SvgjsG1062" transform="translate(235.006740196078,125.0056678921579)"><path id="SvgjsPath1063" d="M 0 0L 90 0L 90 30L 0 30Z" stroke="none" fill="none"></path><g id="SvgjsG1064"><text id="SvgjsText1065" font-family="微软雅黑" text-anchor="middle" font-size="13px" width="90px" fill="#323232" font-weight="400" align="middle" lineHeight="125%" anchor="middle" family="微软雅黑" size="13px" weight="400" font-style="" opacity="1" y="4.375" transform="rotate(0)"><tspan id="SvgjsTspan1066" dy="16" x="45"><tspan id="SvgjsTspan1067" style="text-decoration:;">通向</tspan></tspan></text></g></g><g id="SvgjsG1068" transform="translate(160.006740196078,173.00566789215793)"><path id="SvgjsPath1069" d="M 0 0L 240 0L 240 30L 0 30Z" stroke="none" fill="none"></path><g id="SvgjsG1070"><text id="SvgjsText1071" font-family="微软雅黑" text-anchor="middle" font-size="13px" width="240px" fill="#81a0aa" font-weight="400" align="middle" lineHeight="125%" anchor="middle" family="微软雅黑" size="13px" weight="400" font-style="" opacity="1" y="4.375" transform="rotate(0)"><tspan id="SvgjsTspan1072" dy="16" x="120"><tspan id="SvgjsTspan1073" style="text-decoration:;">选择做自己，成为某一领域匠人</tspan></tspan></text></g></g><g id="SvgjsG1074"><path id="SvgjsPath1075" d="M56.00674019607794 235.00566789215793L280.006740196078 235.00566789215793L280.006740196078 235.00566789215793L502.70674019607804 235.00566789215793" stroke="#323232" stroke-width="1" fill="none" marker-end="url(#SvgjsMarker1076)"></path></g><g id="SvgjsG1078" transform="translate(25.006740196077942,220.00566789215793)"><path id="SvgjsPath1079" d="M 0 0L 30 0L 30 30L 0 30Z" stroke="none" fill="none"></path><g id="SvgjsG1080"><text id="SvgjsText1081" font-family="微软雅黑" text-anchor="middle" font-size="13px" width="30px" fill="#323232" font-weight="400" align="middle" lineHeight="125%" anchor="middle" family="微软雅黑" size="13px" weight="400" font-style="" opacity="1" y="4.375" transform="rotate(0)"><tspan id="SvgjsTspan1082" dy="16" x="15"><tspan id="SvgjsTspan1083" style="text-decoration:;">少</tspan></tspan></text></g></g><g id="SvgjsG1084" transform="translate(505.006740196078,220.00566789215793)"><path id="SvgjsPath1085" d="M 0 0L 30 0L 30 30L 0 30Z" stroke="none" fill="none"></path><g id="SvgjsG1086"><text id="SvgjsText1087" font-family="微软雅黑" text-anchor="middle" font-size="13px" width="30px" fill="#323232" font-weight="400" align="middle" lineHeight="125%" anchor="middle" family="微软雅黑" size="13px" weight="400" font-style="" opacity="1" y="4.375" transform="rotate(0)"><tspan id="SvgjsTspan1088" dy="16" x="15"><tspan id="SvgjsTspan1089" style="text-decoration:;">多</tspan></tspan></text></g></g><g id="SvgjsG1090" transform="translate(243.28125,250.00566789215793)"><path id="SvgjsPath1091" d="M 0 0L 90 0L 90 30L 0 30Z" stroke="none" fill="none"></path><g id="SvgjsG1092"><text id="SvgjsText1093" font-family="微软雅黑" text-anchor="middle" font-size="13px" width="90px" fill="#81a0aa" font-weight="400" align="middle" lineHeight="125%" anchor="middle" family="微软雅黑" size="13px" weight="400" font-style="" opacity="1" y="4.375" transform="rotate(0)"><tspan id="SvgjsTspan1094" dy="16" x="45"><tspan id="SvgjsTspan1095" style="text-decoration:;">需要权力多少</tspan></tspan></text></g></g></svg>