<svg id="SvgjsSvg1006" width="623.1171875" height="230.5859375" xmlns="http://www.w3.org/2000/svg" version="1.1" xmlns:xlink="http://www.w3.org/1999/xlink" xmlns:svgjs="http://svgjs.com/svgjs"><defs id="SvgjsDefs1007"></defs><g id="SvgjsG1008" transform="translate(88.1171875,115.296875)"><path id="SvgjsPath1009" d="M 0 15C 0 -5 30 -5 30 15C 30 35 0 35 0 15Z" stroke="rgba(97,97,97,1)" stroke-width="1" fill-opacity="1" fill="#81a0aa"></path><g id="SvgjsG1010"><text id="SvgjsText1011" font-family="微软雅黑" text-anchor="middle" font-size="13px" width="10px" fill="#f6f3ee" font-weight="400" align="middle" lineHeight="125%" anchor="middle" family="微软雅黑" size="13px" weight="400" font-style="" opacity="1" y="4.875" transform="rotate(0)"><tspan id="SvgjsTspan1012" dy="16" x="15"><tspan id="SvgjsTspan1013" style="text-decoration:;">A</tspan></tspan></text></g></g><g id="SvgjsG1014" transform="translate(25.006076388888744,115.296875)"><path id="SvgjsPath1015" d="M 0 15C 0 -5 30 -5 30 15C 30 35 0 35 0 15Z" stroke="rgba(97,97,97,1)" stroke-width="1" fill-opacity="1" fill="#f6f3ee"></path><g id="SvgjsG1016"><text id="SvgjsText1017" font-family="微软雅黑" text-anchor="middle" font-size="13px" width="10px" fill="#3d4b58" font-weight="400" align="middle" lineHeight="125%" anchor="middle" family="微软雅黑" size="13px" weight="400" font-style="" opacity="1" y="4.875" transform="rotate(0)"><tspan id="SvgjsTspan1018" dy="16" x="15"><tspan id="SvgjsTspan1019" style="text-decoration:;">1</tspan></tspan></text></g></g><g id="SvgjsG1020" transform="translate(48.339409722222,155.59365862573156)"><path id="SvgjsPath1021" d="M 0 15C 0 -5 30 -5 30 15C 30 35 0 35 0 15Z" stroke="rgba(97,97,97,1)" stroke-width="1" fill-opacity="1" fill="#f6f3ee"></path><g id="SvgjsG1022"><text id="SvgjsText1023" font-family="微软雅黑" text-anchor="middle" font-size="13px" width="10px" fill="#3d4b58" font-weight="400" align="middle" lineHeight="125%" anchor="middle" family="微软雅黑" size="13px" weight="400" font-style="" opacity="1" y="4.875" transform="rotate(0)"><tspan id="SvgjsTspan1024" dy="16" x="15"><tspan id="SvgjsTspan1025" style="text-decoration:;">1</tspan></tspan></text></g></g><g id="SvgjsG1026" transform="translate(88.1171875,175.59365862573156)"><path id="SvgjsPath1027" d="M 0 15C 0 -5 30 -5 30 15C 30 35 0 35 0 15Z" stroke="rgba(97,97,97,1)" stroke-width="1" fill-opacity="1" fill="#f6f3ee"></path><g id="SvgjsG1028"><text id="SvgjsText1029" font-family="微软雅黑" text-anchor="middle" font-size="13px" width="10px" fill="#3d4b58" font-weight="400" align="middle" lineHeight="125%" anchor="middle" family="微软雅黑" size="13px" weight="400" font-style="" opacity="1" y="4.875" transform="rotate(0)"><tspan id="SvgjsTspan1030" dy="16" x="15"><tspan id="SvgjsTspan1031" style="text-decoration:;">1</tspan></tspan></text></g></g><g id="SvgjsG1032"><path id="SvgjsPath1033" d="M87.6171875 130.296875L55.506076388888744 130.296875" stroke="#323232" stroke-width="1" fill="none"></path></g><g id="SvgjsG1034"><path id="SvgjsPath1035" d="M91.75060121284838 141.05274568381435L73.79478156185391 159.51992775911947" stroke="#323232" stroke-width="1" fill="none"></path></g><g id="SvgjsG1036"><path id="SvgjsPath1037" d="M103.1171875 145.796875L103.1171875 175.09365862573156" stroke="#323232" stroke-width="1" fill="none"></path></g><g id="SvgjsG1038" transform="translate(88.1171875,55.000091374268465)"><path id="SvgjsPath1039" d="M 0 15C 0 -5 30 -5 30 15C 30 35 0 35 0 15Z" stroke="rgba(97,97,97,1)" stroke-width="1" fill-opacity="1" fill="#f6f3ee"></path><g id="SvgjsG1040"><text id="SvgjsText1041" font-family="微软雅黑" text-anchor="middle" font-size="13px" width="10px" fill="#3d4b58" font-weight="400" align="middle" lineHeight="125%" anchor="middle" family="微软雅黑" size="13px" weight="400" font-style="" opacity="1" y="4.875" transform="rotate(0)"><tspan id="SvgjsTspan1042" dy="16" x="15"><tspan id="SvgjsTspan1043" style="text-decoration:;">1</tspan></tspan></text></g></g><g id="SvgjsG1044"><path id="SvgjsPath1045" d="M103.1171875 114.796875L103.1171875 85.50009137426846" stroke="#323232" stroke-width="1" fill="none"></path></g><g id="SvgjsG1046" transform="translate(45.006076388888744,75.00009137426852)"><path id="SvgjsPath1047" d="M 0 15C 0 -5 30 -5 30 15C 30 35 0 35 0 15Z" stroke="rgba(97,97,97,1)" stroke-width="1" fill-opacity="1" fill="#f6f3ee"></path><g id="SvgjsG1048"><text id="SvgjsText1049" font-family="微软雅黑" text-anchor="middle" font-size="13px" width="10px" fill="#3d4b58" font-weight="400" align="middle" lineHeight="125%" anchor="middle" family="微软雅黑" size="13px" weight="400" font-style="" opacity="1" y="4.875" transform="rotate(0)"><tspan id="SvgjsTspan1050" dy="16" x="15"><tspan id="SvgjsTspan1051" style="text-decoration:;">1</tspan></tspan></text></g></g><g id="SvgjsG1052"><path id="SvgjsPath1053" d="M92.65788515024559 119.48360665928425L71.38881376834482 99.44387494518776" stroke="#323232" stroke-width="1" fill="none"></path></g><g id="SvgjsG1054" transform="translate(127.8949652777778,155.59365862573156)"><path id="SvgjsPath1055" d="M 0 15C 0 -5 30 -5 30 15C 30 35 0 35 0 15Z" stroke="rgba(97,97,97,1)" stroke-width="1" fill-opacity="1" fill="#f6f3ee"></path><g id="SvgjsG1056"><text id="SvgjsText1057" font-family="微软雅黑" text-anchor="middle" font-size="13px" width="10px" fill="#3d4b58" font-weight="400" align="middle" lineHeight="125%" anchor="middle" family="微软雅黑" size="13px" weight="400" font-style="" opacity="1" y="4.875" transform="rotate(0)"><tspan id="SvgjsTspan1058" dy="16" x="15"><tspan id="SvgjsTspan1059" style="text-decoration:;">1</tspan></tspan></text></g></g><g id="SvgjsG1060" transform="translate(127.89496527777783,75.00009137426832)"><path id="SvgjsPath1061" d="M 0 15C 0 -5 30 -5 30 15C 30 35 0 35 0 15Z" stroke="rgba(97,97,97,1)" stroke-width="1" fill-opacity="1" fill="#f6f3ee"></path><g id="SvgjsG1062"><text id="SvgjsText1063" font-family="微软雅黑" text-anchor="middle" font-size="13px" width="10px" fill="#3d4b58" font-weight="400" align="middle" lineHeight="125%" anchor="middle" family="微软雅黑" size="13px" weight="400" font-style="" opacity="1" y="4.875" transform="rotate(0)"><tspan id="SvgjsTspan1064" dy="16" x="15"><tspan id="SvgjsTspan1065" style="text-decoration:;">1</tspan></tspan></text></g></g><g id="SvgjsG1066"><path id="SvgjsPath1067" d="M131.06268569690405 100.2879742135301L113.27643478791214 119.0390384090341" stroke="#323232" stroke-width="1" fill="none"></path></g><g id="SvgjsG1068"><path id="SvgjsPath1069" d="M114.24438836510859 140.9272907301285L131.42013478217171 159.98316544288056" stroke="#323232" stroke-width="1" fill="none"></path></g><g id="SvgjsG1070" transform="translate(208.1171874999996,115.296875)"><path id="SvgjsPath1071" d="M 0 15C 0 -5 30 -5 30 15C 30 35 0 35 0 15Z" stroke="rgba(97,97,97,1)" stroke-width="1" fill-opacity="1" fill="#81a0aa"></path><g id="SvgjsG1072"><text id="SvgjsText1073" font-family="微软雅黑" text-anchor="middle" font-size="13px" width="10px" fill="#f6f3ee" font-weight="400" align="middle" lineHeight="125%" anchor="middle" family="微软雅黑" size="13px" weight="400" font-style="" opacity="1" y="4.875" transform="rotate(0)"><tspan id="SvgjsTspan1074" dy="16" x="15"><tspan id="SvgjsTspan1075" style="text-decoration:;">B</tspan></tspan></text></g></g><g id="SvgjsG1076"><path id="SvgjsPath1077" d="M118.6171875 130.296875L163.11718749999977 130.296875L163.11718749999977 130.296875L207.6171874999996 130.296875" stroke="#323232" stroke-width="1" fill="none"></path></g><g id="SvgjsG1078" transform="translate(328.11718749999926,115.296875)"><path id="SvgjsPath1079" d="M 0 15C 0 -5 30 -5 30 15C 30 35 0 35 0 15Z" stroke="rgba(97,97,97,1)" stroke-width="1" fill-opacity="1" fill="#81a0aa"></path><g id="SvgjsG1080"><text id="SvgjsText1081" font-family="微软雅黑" text-anchor="middle" font-size="13px" width="10px" fill="#f6f3ee" font-weight="400" align="middle" lineHeight="125%" anchor="middle" family="微软雅黑" size="13px" weight="400" font-style="" opacity="1" y="4.875" transform="rotate(0)"><tspan id="SvgjsTspan1082" dy="16" x="15"><tspan id="SvgjsTspan1083" style="text-decoration:;">C</tspan></tspan></text></g></g><g id="SvgjsG1084"><path id="SvgjsPath1085" d="M238.6171874999996 130.296875L283.11718749999943 130.296875L283.11718749999943 130.29687500000003L327.61718749999926 130.29687500000003" stroke="#323232" stroke-width="1" fill="none"></path></g><g id="SvgjsG1086" transform="translate(448.11718749999886,115.29687499999997)"><path id="SvgjsPath1087" d="M 0 15C 0 -5 30 -5 30 15C 30 35 0 35 0 15Z" stroke="rgba(97,97,97,1)" stroke-width="1" fill-opacity="1" fill="#81a0aa"></path><g id="SvgjsG1088"><text id="SvgjsText1089" font-family="微软雅黑" text-anchor="middle" font-size="13px" width="10px" fill="#f6f3ee" font-weight="400" align="middle" lineHeight="125%" anchor="middle" family="微软雅黑" size="13px" weight="400" font-style="" opacity="1" y="4.875" transform="rotate(0)"><tspan id="SvgjsTspan1090" dy="16" x="15"><tspan id="SvgjsTspan1091" style="text-decoration:;">D</tspan></tspan></text></g></g><g id="SvgjsG1092" transform="translate(568.1171874999985,55.00009137426849)"><path id="SvgjsPath1093" d="M 0 15C 0 -5 30 -5 30 15C 30 35 0 35 0 15Z" stroke="rgba(97,97,97,1)" stroke-width="1" fill-opacity="1" fill="#81a0aa"></path><g id="SvgjsG1094"><text id="SvgjsText1095" font-family="微软雅黑" text-anchor="middle" font-size="13px" width="10px" fill="#f6f3ee" font-weight="400" align="middle" lineHeight="125%" anchor="middle" family="微软雅黑" size="13px" weight="400" font-style="" opacity="1" y="4.875" transform="rotate(0)"><tspan id="SvgjsTspan1096" dy="16" x="15"><tspan id="SvgjsTspan1097" style="text-decoration:;">E</tspan></tspan></text></g></g><g id="SvgjsG1098" transform="translate(328.1171874999992,175.59365862573156)"><path id="SvgjsPath1099" d="M 0 15C 0 -5 30 -5 30 15C 30 35 0 35 0 15Z" stroke="rgba(97,97,97,1)" stroke-width="1" fill-opacity="1" fill="#f6f3ee"></path><g id="SvgjsG1100"><text id="SvgjsText1101" font-family="微软雅黑" text-anchor="middle" font-size="13px" width="10px" fill="#3d4b58" font-weight="400" align="middle" lineHeight="125%" anchor="middle" family="微软雅黑" size="13px" weight="400" font-style="" opacity="1" y="4.875" transform="rotate(0)"><tspan id="SvgjsTspan1102" dy="16" x="15"><tspan id="SvgjsTspan1103" style="text-decoration:;">1</tspan></tspan></text></g></g><g id="SvgjsG1104" transform="translate(328.11718749999915,55.00009137426852)"><path id="SvgjsPath1105" d="M 0 15C 0 -5 30 -5 30 15C 30 35 0 35 0 15Z" stroke="rgba(97,97,97,1)" stroke-width="1" fill-opacity="1" fill="#f6f3ee"></path><g id="SvgjsG1106"><text id="SvgjsText1107" font-family="微软雅黑" text-anchor="middle" font-size="13px" width="10px" fill="#3d4b58" font-weight="400" align="middle" lineHeight="125%" anchor="middle" family="微软雅黑" size="13px" weight="400" font-style="" opacity="1" y="4.875" transform="rotate(0)"><tspan id="SvgjsTspan1108" dy="16" x="15"><tspan id="SvgjsTspan1109" style="text-decoration:;">1</tspan></tspan></text></g></g><g id="SvgjsG1110" transform="translate(448.11718749999886,55.00009137426852)"><path id="SvgjsPath1111" d="M 0 15C 0 -5 30 -5 30 15C 30 35 0 35 0 15Z" stroke="rgba(97,97,97,1)" stroke-width="1" fill-opacity="1" fill="#f6f3ee"></path><g id="SvgjsG1112"><text id="SvgjsText1113" font-family="微软雅黑" text-anchor="middle" font-size="13px" width="10px" fill="#3d4b58" font-weight="400" align="middle" lineHeight="125%" anchor="middle" family="微软雅黑" size="13px" weight="400" font-style="" opacity="1" y="4.875" transform="rotate(0)"><tspan id="SvgjsTspan1114" dy="16" x="15"><tspan id="SvgjsTspan1115" style="text-decoration:;">1</tspan></tspan></text></g></g><g id="SvgjsG1116" transform="translate(568.1171874999985,115.29687500000003)"><path id="SvgjsPath1117" d="M 0 15C 0 -5 30 -5 30 15C 30 35 0 35 0 15Z" stroke="rgba(97,97,97,1)" stroke-width="1" fill-opacity="1" fill="#f6f3ee"></path><g id="SvgjsG1118"><text id="SvgjsText1119" font-family="微软雅黑" text-anchor="middle" font-size="13px" width="10px" fill="#3d4b58" font-weight="400" align="middle" lineHeight="125%" anchor="middle" family="微软雅黑" size="13px" weight="400" font-style="" opacity="1" y="4.875" transform="rotate(0)"><tspan id="SvgjsTspan1120" dy="16" x="15"><tspan id="SvgjsTspan1121" style="text-decoration:;">2</tspan></tspan></text></g></g><g id="SvgjsG1122"><path id="SvgjsPath1123" d="M343.11718749999926 114.796875L343.11718749999926 100.14848318713427L343.11718749999926 100.14848318713427L343.11718749999926 85.50009137426852" stroke="#323232" stroke-width="1" fill="none"></path></g><g id="SvgjsG1124"><path id="SvgjsPath1125" d="M343.11718749999926 145.796875L343.11718749999926 160.44526681286578L343.11718749999926 160.44526681286578L343.11718749999926 175.09365862573156" stroke="#323232" stroke-width="1" fill="none"></path></g><g id="SvgjsG1126"><path id="SvgjsPath1127" d="M463.11718749999886 114.79687499999997L463.11718749999886 100.14848318713425L463.11718749999886 100.14848318713425L463.11718749999886 85.50009137426852" stroke="#323232" stroke-width="1" fill="none"></path></g><g id="SvgjsG1128"><path id="SvgjsPath1129" d="M478.61718749999886 130.29687499999997L523.1171874999986 130.29687499999997L523.1171874999986 130.29687499999997L567.6171874999985 130.29687499999997" stroke="#323232" stroke-width="1" fill="none"></path></g><g id="SvgjsG1130"><path id="SvgjsPath1131" d="M567.6171874999985 70.0000913742685L523.1171874999986 70.0000913742685L523.1171874999986 70.0000913742685L478.61718749999886 70.0000913742685" stroke="#323232" stroke-width="1" fill="none"></path></g><g id="SvgjsG1132"><path id="SvgjsPath1133" d="M583.1171874999985 85.5000913742685L583.1171874999985 100.14848318713427L583.1171874999985 100.14848318713427L583.1171874999985 114.79687500000003" stroke="#323232" stroke-width="1" fill="none"></path></g><g id="SvgjsG1134"><path id="SvgjsPath1135" d="M358.61718749999926 130.296875L403.1171874999991 130.296875L403.1171874999991 130.296875L447.61718749999886 130.296875" stroke="#323232" stroke-width="1" fill="none"></path></g><g id="SvgjsG1136" transform="translate(448.11718749999886,25.000091374268493)"><path id="SvgjsPath1137" d="M 0 0L 30 0L 30 30L 0 30Z" stroke="none" fill="none"></path><g id="SvgjsG1138"><text id="SvgjsText1139" font-family="微软雅黑" text-anchor="middle" font-size="13px" width="30px" fill="#688f4e" font-weight="400" align="middle" lineHeight="125%" anchor="middle" family="微软雅黑" size="13px" weight="400" font-style="" opacity="1" y="4.875" transform="rotate(0)"><tspan id="SvgjsTspan1140" dy="16" x="15"><tspan id="SvgjsTspan1141" style="text-decoration:;">5</tspan></tspan></text></g></g><g id="SvgjsG1142" transform="translate(568.1171874999985,145.29687499999997)"><path id="SvgjsPath1143" d="M 0 0L 30 0L 30 30L 0 30Z" stroke="none" fill="none"></path><g id="SvgjsG1144"><text id="SvgjsText1145" font-family="微软雅黑" text-anchor="middle" font-size="13px" width="30px" fill="#688f4e" font-weight="400" align="middle" lineHeight="125%" anchor="middle" family="微软雅黑" size="13px" weight="400" font-style="" opacity="1" y="4.875" transform="rotate(0)"><tspan id="SvgjsTspan1146" dy="16" x="15"><tspan id="SvgjsTspan1147" style="text-decoration:;">5</tspan></tspan></text></g></g></svg>