<svg id="SvgjsSvg1006" width="530" height="361.1484375" xmlns="http://www.w3.org/2000/svg" version="1.1" xmlns:xlink="http://www.w3.org/1999/xlink" xmlns:svgjs="http://svgjs.com/svgjs"><defs id="SvgjsDefs1007"></defs><g id="SvgjsG1008" transform="translate(25,25.00370065789474)"><path id="SvgjsPath1009" d="M 0 60C 0 -20 120 -20 120 60C 120 140 0 140 0 60Z" stroke="rgba(158,158,158,1)" stroke-width="1" fill="none"></path><g id="SvgjsG1010"><text id="SvgjsText1011" font-family="微软雅黑" text-anchor="middle" font-size="13px" width="100px" fill="#323232" font-weight="400" align="middle" lineHeight="125%" anchor="middle" family="微软雅黑" size="13px" weight="400" font-style="" opacity="1" y="49.375" transform="rotate(0)"></text></g></g><g id="SvgjsG1012" transform="translate(70,42.687911184210634)"><path id="SvgjsPath1013" d="M 0 15C 0 -5 30 -5 30 15C 30 35 0 35 0 15Z" stroke="rgba(97,97,97,1)" stroke-width="1" fill-opacity="1" fill="#81a0aa"></path><g id="SvgjsG1014"><text id="SvgjsText1015" font-family="微软雅黑" text-anchor="middle" font-size="13px" width="10px" fill="#f6f3ee" font-weight="400" align="middle" lineHeight="125%" anchor="middle" family="微软雅黑" size="13px" weight="400" font-style="" opacity="1" y="4.375" transform="rotate(0)"></text></g></g><g id="SvgjsG1016" transform="translate(40,82.39843749999977)"><path id="SvgjsPath1017" d="M 0 15C 0 -5 30 -5 30 15C 30 35 0 35 0 15Z" stroke="rgba(97,97,97,1)" stroke-width="1" fill-opacity="1" fill="#81a0aa"></path><g id="SvgjsG1018"><text id="SvgjsText1019" font-family="微软雅黑" text-anchor="middle" font-size="13px" width="10px" fill="#f6f3ee" font-weight="400" align="middle" lineHeight="125%" anchor="middle" family="微软雅黑" size="13px" weight="400" font-style="" opacity="1" y="4.375" transform="rotate(0)"></text></g></g><g id="SvgjsG1020" transform="translate(100,82.39843749999977)"><path id="SvgjsPath1021" d="M 0 15C 0 -5 30 -5 30 15C 30 35 0 35 0 15Z" stroke="rgba(97,97,97,1)" stroke-width="1" fill-opacity="1" fill="#81a0aa"></path><g id="SvgjsG1022"><text id="SvgjsText1023" font-family="微软雅黑" text-anchor="middle" font-size="13px" width="10px" fill="#f6f3ee" font-weight="400" align="middle" lineHeight="125%" anchor="middle" family="微软雅黑" size="13px" weight="400" font-style="" opacity="1" y="4.375" transform="rotate(0)"></text></g></g><g id="SvgjsG1024"><path id="SvgjsPath1025" d="M74.73397712527299 69.19295996994629L65.24463852307957 85.77268500565316" stroke="#688f4e" stroke-width="1" fill="none"></path></g><g id="SvgjsG1026"><path id="SvgjsPath1027" d="M95.42292028493648 69.00455718218342L105.83811698016382 84.87683132686522" stroke="#688f4e" stroke-width="1" fill="none"></path></g><g id="SvgjsG1028"><path id="SvgjsPath1029" d="M70.5 97.39843749999977L99.5 97.39843749999977" stroke="#688f4e" stroke-width="1" fill="none"></path></g><g id="SvgjsG1030" transform="translate(384.9999999999993,25.00370065789474)"><path id="SvgjsPath1031" d="M 0 60C 0 -20 120 -20 120 60C 120 140 0 140 0 60Z" stroke="rgba(158,158,158,1)" stroke-width="1" fill="none"></path><g id="SvgjsG1032"><text id="SvgjsText1033" font-family="微软雅黑" text-anchor="middle" font-size="13px" width="100px" fill="#323232" font-weight="400" align="middle" lineHeight="125%" anchor="middle" family="微软雅黑" size="13px" weight="400" font-style="" opacity="1" y="49.375" transform="rotate(0)"></text></g></g><g id="SvgjsG1034" transform="translate(429.9999999999992,39.35457785087726)"><path id="SvgjsPath1035" d="M 0 15C 0 -5 30 -5 30 15C 30 35 0 35 0 15Z" stroke="rgba(97,97,97,1)" stroke-width="1" fill-opacity="1" fill="#81a0aa"></path><g id="SvgjsG1036"><text id="SvgjsText1037" font-family="微软雅黑" text-anchor="middle" font-size="13px" width="10px" fill="#f6f3ee" font-weight="400" align="middle" lineHeight="125%" anchor="middle" family="微软雅黑" size="13px" weight="400" font-style="" opacity="1" y="4.375" transform="rotate(0)"></text></g></g><g id="SvgjsG1038" transform="translate(429.9999999999992,100.89843749999972)"><path id="SvgjsPath1039" d="M 0 15C 0 -5 30 -5 30 15C 30 35 0 35 0 15Z" stroke="rgba(97,97,97,1)" stroke-width="1" fill-opacity="1" fill="#81a0aa"></path><g id="SvgjsG1040"><text id="SvgjsText1041" font-family="微软雅黑" text-anchor="middle" font-size="13px" width="10px" fill="#f6f3ee" font-weight="400" align="middle" lineHeight="125%" anchor="middle" family="微软雅黑" size="13px" weight="400" font-style="" opacity="1" y="4.375" transform="rotate(0)"></text></g></g><g id="SvgjsG1042"><path id="SvgjsPath1043" d="M444.9999999999991 69.85457785087726L444.9999999999992 100.39843749999972" stroke="#688f4e" stroke-width="1" fill="none"></path></g><g id="SvgjsG1044" transform="translate(202.2499999999992,145.3984375)"><path id="SvgjsPath1045" d="M 0 60C 0 -20 120 -20 120 60C 120 140 0 140 0 60Z" stroke="rgba(158,158,158,1)" stroke-width="1" fill="none"></path><g id="SvgjsG1046"><text id="SvgjsText1047" font-family="微软雅黑" text-anchor="middle" font-size="13px" width="100px" fill="#323232" font-weight="400" align="middle" lineHeight="125%" anchor="middle" family="微软雅黑" size="13px" weight="400" font-style="" opacity="1" y="49.375" transform="rotate(0)"></text></g></g><g id="SvgjsG1048" transform="translate(247.2499999999992,157.68791118421063)"><path id="SvgjsPath1049" d="M 0 15C 0 -5 30 -5 30 15C 30 35 0 35 0 15Z" stroke="rgba(97,97,97,1)" stroke-width="1" fill-opacity="1" fill="#81a0aa"></path><g id="SvgjsG1050"><text id="SvgjsText1051" font-family="微软雅黑" text-anchor="middle" font-size="13px" width="10px" fill="#f6f3ee" font-weight="400" align="middle" lineHeight="125%" anchor="middle" family="微软雅黑" size="13px" weight="400" font-style="" opacity="1" y="4.375" transform="rotate(0)"></text></g></g><g id="SvgjsG1052" transform="translate(217.24999999999926,190.3984375)"><path id="SvgjsPath1053" d="M 0 15C 0 -5 30 -5 30 15C 30 35 0 35 0 15Z" stroke="rgba(97,97,97,1)" stroke-width="1" fill-opacity="1" fill="#81a0aa"></path><g id="SvgjsG1054"><text id="SvgjsText1055" font-family="微软雅黑" text-anchor="middle" font-size="13px" width="10px" fill="#f6f3ee" font-weight="400" align="middle" lineHeight="125%" anchor="middle" family="微软雅黑" size="13px" weight="400" font-style="" opacity="1" y="4.375" transform="rotate(0)"></text></g></g><g id="SvgjsG1056" transform="translate(277.2499999999993,190.3984375)"><path id="SvgjsPath1057" d="M 0 15C 0 -5 30 -5 30 15C 30 35 0 35 0 15Z" stroke="rgba(97,97,97,1)" stroke-width="1" fill-opacity="1" fill="#81a0aa"></path><g id="SvgjsG1058"><text id="SvgjsText1059" font-family="微软雅黑" text-anchor="middle" font-size="13px" width="10px" fill="#f6f3ee" font-weight="400" align="middle" lineHeight="125%" anchor="middle" family="微软雅黑" size="13px" weight="400" font-style="" opacity="1" y="4.375" transform="rotate(0)"></text></g></g><g id="SvgjsG1060"><path id="SvgjsPath1061" d="M247.74999999999932 205.3984375L276.7499999999993 205.3984375" stroke="#688f4e" stroke-width="1" fill="none"></path></g><g id="SvgjsG1062" transform="translate(247.2499999999992,220.3984375)"><path id="SvgjsPath1063" d="M 0 15C 0 -5 30 -5 30 15C 30 35 0 35 0 15Z" stroke="rgba(97,97,97,1)" stroke-width="1" fill-opacity="1" fill="#81a0aa"></path><g id="SvgjsG1064"><text id="SvgjsText1065" font-family="微软雅黑" text-anchor="middle" font-size="13px" width="10px" fill="#f6f3ee" font-weight="400" align="middle" lineHeight="125%" anchor="middle" family="微软雅黑" size="13px" weight="400" font-style="" opacity="1" y="4.375" transform="rotate(0)"></text></g></g><g id="SvgjsG1066"><path id="SvgjsPath1067" d="M291.9268510162357 190.0168949279422L277.57314898376285 173.06945375626844" stroke="#688f4e" stroke-width="1" fill="none"></path></g><g id="SvgjsG1068"><path id="SvgjsPath1069" d="M246.9268510162355 173.06945375626844L232.57314898376296 190.0168949279422" stroke="#688f4e" stroke-width="1" fill="none"></path></g><g id="SvgjsG1070"><path id="SvgjsPath1071" d="M291.8964466094061 220.75199089059322L277.6035533905924 235.04488410940678" stroke="#688f4e" stroke-width="1" fill="none"></path></g><g id="SvgjsG1072"><path id="SvgjsPath1073" d="M232.60355339059254 220.75199089059322L246.89644660940593 235.04488410940678" stroke="#688f4e" stroke-width="1" fill="none"></path></g><g id="SvgjsG1074"><path id="SvgjsPath1075" d="M130.49493152916148 97.32742495574257L429.5050684708377 54.42559039513446" stroke-dasharray="8,5" stroke="#f1485c" stroke-width="1" fill="none"></path></g><g id="SvgjsG1076"><path id="SvgjsPath1077" d="M55.43379213026992 112.64708260394491L216.81620786972934 205.14979239605486" stroke-dasharray="8,5" stroke="#f1485c" stroke-width="1" fill="none"></path></g><g id="SvgjsG1078"><path id="SvgjsPath1079" d="M307.6540119256838 205.10386261324834L429.59598807431473 116.19301238675132" stroke-dasharray="8,5" stroke="#f1485c" stroke-width="1" fill="none"></path></g><g id="SvgjsG1080"><path id="SvgjsPath1081" d="M149.7499999999992 322.3984374999998L193.7499999999992 322.3984374999998" stroke-dasharray="8,5" stroke="#f1485c" stroke-width="2" fill="none"></path></g><g id="SvgjsG1082" transform="translate(194.7499999999992,306.1484375)"><path id="SvgjsPath1083" d="M 0 0L 60 0L 60 30L 0 30Z" stroke="none" fill="none"></path><g id="SvgjsG1084"><text id="SvgjsText1085" font-family="微软雅黑" text-anchor="middle" font-size="13px" width="60px" fill="#323232" font-weight="400" align="middle" lineHeight="125%" anchor="middle" family="微软雅黑" size="13px" weight="400" font-style="" opacity="1" y="4.375" transform="rotate(0)"><tspan id="SvgjsTspan1086" dy="16" x="30"><tspan id="SvgjsTspan1087" style="text-decoration:;">弱联系</tspan></tspan></text></g></g><g id="SvgjsG1088"><path id="SvgjsPath1089" d="M269.7499999999992 322.3984374999998L313.7499999999993 322.3984374999998" stroke="#688f4e" stroke-width="2" fill="none"></path></g><g id="SvgjsG1090" transform="translate(314.7499999999993,306.1484375)"><path id="SvgjsPath1091" d="M 0 0L 60 0L 60 30L 0 30Z" stroke="none" fill="none"></path><g id="SvgjsG1092"><text id="SvgjsText1093" font-family="微软雅黑" text-anchor="middle" font-size="13px" width="60px" fill="#323232" font-weight="400" align="middle" lineHeight="125%" anchor="middle" family="微软雅黑" size="13px" weight="400" font-style="" opacity="1" y="4.375" transform="rotate(0)"><tspan id="SvgjsTspan1094" dy="16" x="30"><tspan id="SvgjsTspan1095" style="text-decoration:;">强联系</tspan></tspan></text></g></g><g id="SvgjsG1096" transform="translate(384.9999999999993,306.1484375)"><path id="SvgjsPath1097" d="M 0 0L 120 0L 120 30L 0 30Z" stroke="none" fill="none"></path><g id="SvgjsG1098"><text id="SvgjsText1099" font-family="&quot;Times New Roman&quot;" text-anchor="middle" font-size="13px" width="120px" fill="#e0e0e0" font-weight="400" align="middle" lineHeight="125%" anchor="middle" family="&quot;Times New Roman&quot;" size="13px" weight="400" font-style="" opacity="1" y="4.375" transform="rotate(0)"><tspan id="SvgjsTspan1100" dy="16" x="60"><tspan id="SvgjsTspan1101" style="text-decoration:;">www.kofes.cn</tspan></tspan></text></g></g></svg>