<svg id="SvgjsSvg1074" width="419.1953125" height="299.03125" xmlns="http://www.w3.org/2000/svg" version="1.1" xmlns:xlink="http://www.w3.org/1999/xlink" xmlns:svgjs="http://svgjs.com/svgjs"><defs id="SvgjsDefs1075"></defs><g id="SvgjsG1076" transform="translate(25.001984126984212,25.01238171550682)"><path id="SvgjsPath1077" d="M 0 4Q 0 0 4 0L 364.3888888888886 0Q 368.3888888888886 0 368.3888888888886 4L 368.3888888888886 204.5070134543879Q 368.3888888888886 208.5070134543879 364.3888888888886 208.5070134543879L 4 208.5070134543879Q 0 208.5070134543879 0 204.5070134543879Z" stroke="rgba(97,97,97,1)" stroke-width="1" fill-opacity="1" fill="#f6f3ee"></path><g id="SvgjsG1078"><text id="SvgjsText1079" font-family="微软雅黑" text-anchor="middle" font-size="13px" width="349px" fill="#3d4b58" font-weight="400" align="middle" lineHeight="125%" anchor="middle" family="微软雅黑" size="13px" weight="400" font-style="" opacity="1" y="94.12850672719395" transform="rotate(0)"></text></g></g><g id="SvgjsG1080" transform="translate(49.1964285714285,53.09031693818113)"><path id="SvgjsPath1081" d="M 0 4Q 0 0 4 0L 315.9999999999998 0Q 319.9999999999998 0 319.9999999999998 4L 319.9999999999998 146Q 319.9999999999998 150 315.9999999999998 150L 4 150Q 0 150 0 146Z" stroke="rgba(97,97,97,1)" stroke-width="1" fill-opacity="1" fill="#f6f3ee"></path><g id="SvgjsG1082"><text id="SvgjsText1083" font-family="微软雅黑" text-anchor="middle" font-size="13px" width="300px" fill="#3d4b58" font-weight="400" align="middle" lineHeight="125%" anchor="middle" family="微软雅黑" size="13px" weight="400" font-style="" opacity="1" y="64.875" transform="rotate(0)"></text></g></g><g id="SvgjsG1084" transform="translate(69.1964285714285,83.6334773755068)"><path id="SvgjsPath1085" d="M 0 4Q 0 0 4 0L 275.9999999999999 0Q 279.9999999999999 0 279.9999999999999 4L 279.9999999999999 86Q 279.9999999999999 90 275.9999999999999 90L 4 90Q 0 90 0 86Z" stroke="rgba(97,97,97,1)" stroke-width="1" fill-opacity="1" fill="#f6f3ee"></path><g id="SvgjsG1086"><text id="SvgjsText1087" font-family="微软雅黑" text-anchor="middle" font-size="13px" width="260px" fill="#3d4b58" font-weight="400" align="middle" lineHeight="125%" anchor="middle" family="微软雅黑" size="13px" weight="400" font-style="" opacity="1" y="34.875" transform="rotate(0)"></text></g></g><g id="SvgjsG1088" transform="translate(149.1964285714285,114.26588844270057)"><path id="SvgjsPath1089" d="M 0 4Q 0 0 4 0L 116 0Q 120 0 120 4L 120 26Q 120 30 116 30L 4 30Q 0 30 0 26Z" stroke="rgba(97,97,97,1)" stroke-width="1" fill-opacity="1" fill="#81a0aa"></path><g id="SvgjsG1090"><text id="SvgjsText1091" font-family="微软雅黑" text-anchor="middle" font-size="13px" width="100px" fill="#f6f3ee" font-weight="400" align="middle" lineHeight="125%" anchor="middle" family="微软雅黑" size="13px" weight="400" font-style="" opacity="1" y="4.875" transform="rotate(0)"><tspan id="SvgjsTspan1092" dy="16" x="60"><tspan id="SvgjsTspan1093" style="text-decoration:;">我</tspan></tspan></text></g></g><g id="SvgjsG1094" transform="translate(149.1964285714285,144.26057212159265)"><path id="SvgjsPath1095" d="M 0 0L 120 0L 120 30L 0 30Z" stroke="none" fill="none"></path><g id="SvgjsG1096"><text id="SvgjsText1097" font-family="微软雅黑" text-anchor="middle" font-size="13px" width="120px" fill="#323232" font-weight="400" align="middle" lineHeight="125%" anchor="middle" family="微软雅黑" size="13px" weight="400" font-style="" opacity="1" y="4.875" transform="rotate(0)"><tspan id="SvgjsTspan1098" dy="16" x="60"><tspan id="SvgjsTspan1099" style="text-decoration:;">家人连带关系</tspan></tspan></text></g></g><g id="SvgjsG1100" transform="translate(149.1964285714285,84.6334773755068)"><path id="SvgjsPath1101" d="M 0 0L 120 0L 120 30L 0 30Z" stroke="none" fill="none"></path><g id="SvgjsG1102"><text id="SvgjsText1103" font-family="微软雅黑" text-anchor="middle" font-size="14px" width="120px" fill="#323232" font-weight="400" align="middle" lineHeight="125%" anchor="middle" family="微软雅黑" size="14px" weight="400" font-style="" opacity="1" y="4.25" transform="rotate(0)"><tspan id="SvgjsTspan1104" dy="17" x="60"><tspan id="SvgjsTspan1105" style="text-decoration:;">需求法则</tspan></tspan></text></g></g><g id="SvgjsG1106" transform="translate(134.1964285714285,54.69637754424184)"><path id="SvgjsPath1107" d="M 0 0L 150 0L 150 30L 0 30Z" stroke="none" fill="none"></path><g id="SvgjsG1108"><text id="SvgjsText1109" font-family="微软雅黑" text-anchor="middle" font-size="14px" width="150px" fill="#323232" font-weight="400" align="middle" lineHeight="125%" anchor="middle" family="微软雅黑" size="14px" weight="400" font-style="" opacity="1" y="4.25" transform="rotate(0)"><tspan id="SvgjsTspan1110" dy="17" x="75"><tspan id="SvgjsTspan1111" style="text-decoration:;">人情法则</tspan></tspan></text></g></g><g id="SvgjsG1112" transform="translate(134.1964285714285,25.006382629420955)"><path id="SvgjsPath1113" d="M 0 0L 150 0L 150 30L 0 30Z" stroke="none" fill="none"></path><g id="SvgjsG1114"><text id="SvgjsText1115" font-family="微软雅黑" text-anchor="middle" font-size="14px" width="150px" fill="#323232" font-weight="400" align="middle" lineHeight="125%" anchor="middle" family="微软雅黑" size="14px" weight="400" font-style="" opacity="1" y="4.25" transform="rotate(0)"><tspan id="SvgjsTspan1116" dy="17" x="75"><tspan id="SvgjsTspan1117" style="text-decoration:;">公平法则</tspan></tspan></text></g></g><g id="SvgjsG1118" transform="translate(149.1964285714285,173.83539934115953)"><path id="SvgjsPath1119" d="M 0 0L 120 0L 120 30L 0 30Z" stroke="none" fill="none"></path><g id="SvgjsG1120"><text id="SvgjsText1121" font-family="微软雅黑" text-anchor="middle" font-size="13px" width="120px" fill="#323232" font-weight="400" align="middle" lineHeight="125%" anchor="middle" family="微软雅黑" size="13px" weight="400" font-style="" opacity="1" y="4.875" transform="rotate(0)"><tspan id="SvgjsTspan1122" dy="16" x="60"><tspan id="SvgjsTspan1123" style="text-decoration:;">熟人关系</tspan></tspan></text></g></g><g id="SvgjsG1124" transform="translate(149.1964285714285,203.88766686767843)"><path id="SvgjsPath1125" d="M 0 0L 120 0L 120 30L 0 30Z" stroke="none" fill="none"></path><g id="SvgjsG1126"><text id="SvgjsText1127" font-family="微软雅黑" text-anchor="middle" font-size="13px" width="120px" fill="#323232" font-weight="400" align="middle" lineHeight="125%" anchor="middle" family="微软雅黑" size="13px" weight="400" font-style="" opacity="1" y="4.875" transform="rotate(0)"><tspan id="SvgjsTspan1128" dy="16" x="60"><tspan id="SvgjsTspan1129" style="text-decoration:;">认识关系</tspan></tspan></text></g></g><g id="SvgjsG1130" transform="translate(274.1964285714282,54.6334773755068)"><path id="SvgjsPath1131" d="M 0 0L 120 0L 120 30L 0 30Z" stroke="none" fill="none"></path><g id="SvgjsG1132"><text id="SvgjsText1133" font-family="微软雅黑" text-anchor="middle" font-size="13px" width="120px" fill="#688f4e" font-weight="400" align="middle" lineHeight="125%" anchor="middle" family="微软雅黑" size="13px" weight="400" font-style="" opacity="1" y="4.875" transform="rotate(0)"><tspan id="SvgjsTspan1134" dy="16" x="60"><tspan id="SvgjsTspan1135" style="text-decoration:;">人情交换</tspan></tspan></text></g></g><g id="SvgjsG1136" transform="translate(274.1964285714282,25.00638262942101)"><path id="SvgjsPath1137" d="M 0 0L 120 0L 120 30L 0 30Z" stroke="none" fill="none"></path><g id="SvgjsG1138"><text id="SvgjsText1139" font-family="微软雅黑" text-anchor="middle" font-size="13px" width="120px" fill="#688f4e" font-weight="400" align="middle" lineHeight="125%" anchor="middle" family="微软雅黑" size="13px" weight="400" font-style="" opacity="1" y="4.875" transform="rotate(0)"><tspan id="SvgjsTspan1140" dy="16" x="60"><tspan id="SvgjsTspan1141" style="text-decoration:;">等价交换</tspan></tspan></text></g></g><g id="SvgjsG1142" transform="translate(134.1964285714285,244.03732130681226)"><path id="SvgjsPath1143" d="M 0 0L 150 0L 150 30L 0 30Z" stroke="none" fill="none"></path><g id="SvgjsG1144"><text id="SvgjsText1145" font-family="微软雅黑" text-anchor="middle" font-size="14px" width="150px" fill="#323232" font-weight="400" align="middle" lineHeight="125%" anchor="middle" family="微软雅黑" size="14px" weight="400" font-style="" opacity="1" y="4.25" transform="rotate(0)"><tspan id="SvgjsTspan1146" dy="17" x="75"><tspan id="SvgjsTspan1147" style="text-decoration:;">陌生人</tspan></tspan></text></g></g></svg>