<svg id="SvgjsSvg1006" width="680.8515625" height="277.84375" xmlns="http://www.w3.org/2000/svg" version="1.1" xmlns:xlink="http://www.w3.org/1999/xlink" xmlns:svgjs="http://svgjs.com/svgjs"><defs id="SvgjsDefs1007"></defs><g id="SvgjsG1008" transform="translate(88.1171875,102.2578125)"><path id="SvgjsPath1009" d="M 0 10C 0 -3.3333333333333335 20 -3.3333333333333335 20 10C 20 23.333333333333332 0 23.333333333333332 0 10Z" stroke="rgba(97,97,97,1)" stroke-width="1" fill-opacity="1" fill="#81a0aa"></path><g id="SvgjsG1010"><text id="SvgjsText1011" font-family="微软雅黑" text-anchor="middle" font-size="13px" width="0px" fill="#f6f3ee" font-weight="400" align="middle" lineHeight="125%" anchor="middle" family="微软雅黑" size="13px" weight="400" font-style="" opacity="1" y="-0.125" transform="rotate(0)"></text></g></g><g id="SvgjsG1012" transform="translate(25.006076388888744,102.2578125)"><path id="SvgjsPath1013" d="M 0 10C 0 -3.3333333333333335 20 -3.3333333333333335 20 10C 20 23.333333333333332 0 23.333333333333332 0 10Z" stroke="rgba(97,97,97,1)" stroke-width="1" fill-opacity="1" fill="#f6f3ee"></path><g id="SvgjsG1014"><text id="SvgjsText1015" font-family="微软雅黑" text-anchor="middle" font-size="13px" width="0px" fill="#3d4b58" font-weight="400" align="middle" lineHeight="125%" anchor="middle" family="微软雅黑" size="13px" weight="400" font-style="" opacity="1" y="-0.125" transform="rotate(0)"></text></g></g><g id="SvgjsG1016" transform="translate(147.89496527777771,102.25781249999994)"><path id="SvgjsPath1017" d="M 0 10C 0 -3.3333333333333335 20 -3.3333333333333335 20 10C 20 23.333333333333332 0 23.333333333333332 0 10Z" stroke="rgba(97,97,97,1)" stroke-width="1" fill-opacity="1" fill="#f6f3ee"></path><g id="SvgjsG1018"><text id="SvgjsText1019" font-family="微软雅黑" text-anchor="middle" font-size="13px" width="0px" fill="#3d4b58" font-weight="400" align="middle" lineHeight="125%" anchor="middle" family="微软雅黑" size="13px" weight="400" font-style="" opacity="1" y="-0.125" transform="rotate(0)"></text></g></g><g id="SvgjsG1020" transform="translate(48.339409722222,142.55459612573156)"><path id="SvgjsPath1021" d="M 0 10C 0 -3.3333333333333335 20 -3.3333333333333335 20 10C 20 23.333333333333332 0 23.333333333333332 0 10Z" stroke="rgba(97,97,97,1)" stroke-width="1" fill-opacity="1" fill="#f6f3ee"></path><g id="SvgjsG1022"><text id="SvgjsText1023" font-family="微软雅黑" text-anchor="middle" font-size="13px" width="0px" fill="#3d4b58" font-weight="400" align="middle" lineHeight="125%" anchor="middle" family="微软雅黑" size="13px" weight="400" font-style="" opacity="1" y="-0.125" transform="rotate(0)"></text></g></g><g id="SvgjsG1024" transform="translate(88.1171875,162.55459612573156)"><path id="SvgjsPath1025" d="M 0 10C 0 -3.3333333333333335 20 -3.3333333333333335 20 10C 20 23.333333333333332 0 23.333333333333332 0 10Z" stroke="rgba(97,97,97,1)" stroke-width="1" fill-opacity="1" fill="#f6f3ee"></path><g id="SvgjsG1026"><text id="SvgjsText1027" font-family="微软雅黑" text-anchor="middle" font-size="13px" width="0px" fill="#3d4b58" font-weight="400" align="middle" lineHeight="125%" anchor="middle" family="微软雅黑" size="13px" weight="400" font-style="" opacity="1" y="-0.125" transform="rotate(0)"></text></g></g><g id="SvgjsG1028"><path id="SvgjsPath1029" d="M87.6171875 112.2578125L45.506076388888744 112.2578125" stroke="#323232" stroke-width="1" fill="none"></path></g><g id="SvgjsG1030"><path id="SvgjsPath1031" d="M90.4218880644298 119.54652997607488L65.42723285944572 145.05397186112486" stroke="#323232" stroke-width="1" fill="none"></path></g><g id="SvgjsG1032"><path id="SvgjsPath1033" d="M98.1171875 122.7578125L98.1171875 162.05459612573156" stroke="#323232" stroke-width="1" fill="none"></path></g><g id="SvgjsG1034"><path id="SvgjsPath1035" d="M108.6171875 112.2578125L147.39496527777771 112.25781249999994" stroke="#323232" stroke-width="1" fill="none"></path></g><g id="SvgjsG1036" transform="translate(88.1171875,41.961028874268465)"><path id="SvgjsPath1037" d="M 0 10C 0 -3.3333333333333335 20 -3.3333333333333335 20 10C 20 23.333333333333332 0 23.333333333333332 0 10Z" stroke="rgba(97,97,97,1)" stroke-width="1" fill-opacity="1" fill="#f6f3ee"></path><g id="SvgjsG1038"><text id="SvgjsText1039" font-family="微软雅黑" text-anchor="middle" font-size="13px" width="0px" fill="#3d4b58" font-weight="400" align="middle" lineHeight="125%" anchor="middle" family="微软雅黑" size="13px" weight="400" font-style="" opacity="1" y="-0.125" transform="rotate(0)"></text></g></g><g id="SvgjsG1040"><path id="SvgjsPath1041" d="M98.1171875 101.7578125L98.1171875 62.461028874268465" stroke="#323232" stroke-width="1" fill="none"></path></g><g id="SvgjsG1042" transform="translate(45.006076388888744,61.96102887426852)"><path id="SvgjsPath1043" d="M 0 10C 0 -3.3333333333333335 20 -3.3333333333333335 20 10C 20 23.333333333333332 0 23.333333333333332 0 10Z" stroke="rgba(97,97,97,1)" stroke-width="1" fill-opacity="1" fill="#f6f3ee"></path><g id="SvgjsG1044"><text id="SvgjsText1045" font-family="微软雅黑" text-anchor="middle" font-size="13px" width="0px" fill="#3d4b58" font-weight="400" align="middle" lineHeight="125%" anchor="middle" family="微软雅黑" size="13px" weight="400" font-style="" opacity="1" y="-0.125" transform="rotate(0)"></text></g></g><g id="SvgjsG1046"><path id="SvgjsPath1047" d="M91.02234152397838 104.93538942571888L62.71654571804481 78.37046210201862" stroke="#323232" stroke-width="1" fill="none"></path></g><g id="SvgjsG1048" transform="translate(127.8949652777778,142.55459612573156)"><path id="SvgjsPath1049" d="M 0 10C 0 -3.3333333333333335 20 -3.3333333333333335 20 10C 20 23.333333333333332 0 23.333333333333332 0 10Z" stroke="rgba(97,97,97,1)" stroke-width="1" fill-opacity="1" fill="#f6f3ee"></path><g id="SvgjsG1050"><text id="SvgjsText1051" font-family="微软雅黑" text-anchor="middle" font-size="13px" width="0px" fill="#3d4b58" font-weight="400" align="middle" lineHeight="125%" anchor="middle" family="微软雅黑" size="13px" weight="400" font-style="" opacity="1" y="-0.125" transform="rotate(0)"></text></g></g><g id="SvgjsG1052" transform="translate(127.89496527777783,61.96102887426832)"><path id="SvgjsPath1053" d="M 0 10C 0 -3.3333333333333335 20 -3.3333333333333335 20 10C 20 23.333333333333332 0 23.333333333333332 0 10Z" stroke="rgba(97,97,97,1)" stroke-width="1" fill-opacity="1" fill="#f6f3ee"></path><g id="SvgjsG1054"><text id="SvgjsText1055" font-family="微软雅黑" text-anchor="middle" font-size="13px" width="0px" fill="#3d4b58" font-weight="400" align="middle" lineHeight="125%" anchor="middle" family="微软雅黑" size="13px" weight="400" font-style="" opacity="1" y="-0.125" transform="rotate(0)"></text></g></g><g id="SvgjsG1056"><path id="SvgjsPath1057" d="M129.88838886106615 78.93700142202817L105.00840905473726 104.63520411777074" stroke="#323232" stroke-width="1" fill="none"></path></g><g id="SvgjsG1058"><path id="SvgjsPath1059" d="M105.65298364029641 119.46298774003847L129.95405802139982 145.54642412961942" stroke="#323232" stroke-width="1" fill="none"></path></g><g id="SvgjsG1060" transform="translate(333.89496527777794,102.25781249999994)"><path id="SvgjsPath1061" d="M 0 10C 0 -3.3333333333333335 20 -3.3333333333333335 20 10C 20 23.333333333333332 0 23.333333333333332 0 10Z" stroke="rgba(97,97,97,1)" stroke-width="1" fill-opacity="1" fill="#81a0aa"></path><g id="SvgjsG1062"><text id="SvgjsText1063" font-family="微软雅黑" text-anchor="middle" font-size="13px" width="0px" fill="#f6f3ee" font-weight="400" align="middle" lineHeight="125%" anchor="middle" family="微软雅黑" size="13px" weight="400" font-style="" opacity="1" y="-0.125" transform="rotate(0)"></text></g></g><g id="SvgjsG1064" transform="translate(270.78385416666663,102.25781249999994)"><path id="SvgjsPath1065" d="M 0 10C 0 -3.3333333333333335 20 -3.3333333333333335 20 10C 20 23.333333333333332 0 23.333333333333332 0 10Z" stroke="rgba(97,97,97,1)" stroke-width="1" fill-opacity="1" fill="#f6f3ee"></path><g id="SvgjsG1066"><text id="SvgjsText1067" font-family="微软雅黑" text-anchor="middle" font-size="13px" width="0px" fill="#3d4b58" font-weight="400" align="middle" lineHeight="125%" anchor="middle" family="微软雅黑" size="13px" weight="400" font-style="" opacity="1" y="-0.125" transform="rotate(0)"></text></g></g><g id="SvgjsG1068" transform="translate(393.6727430555557,102.25781249999989)"><path id="SvgjsPath1069" d="M 0 10C 0 -3.3333333333333335 20 -3.3333333333333335 20 10C 20 23.333333333333332 0 23.333333333333332 0 10Z" stroke="rgba(97,97,97,1)" stroke-width="1" fill-opacity="1" fill="#f6f3ee"></path><g id="SvgjsG1070"><text id="SvgjsText1071" font-family="微软雅黑" text-anchor="middle" font-size="13px" width="0px" fill="#3d4b58" font-weight="400" align="middle" lineHeight="125%" anchor="middle" family="微软雅黑" size="13px" weight="400" font-style="" opacity="1" y="-0.125" transform="rotate(0)"></text></g></g><g id="SvgjsG1072" transform="translate(299.923639112903,130.94169289992502)"><path id="SvgjsPath1073" d="M 0 10C 0 -3.3333333333333335 20 -3.3333333333333335 20 10C 20 23.333333333333332 0 23.333333333333332 0 10Z" stroke="rgba(97,97,97,1)" stroke-width="1" fill-opacity="1" fill="#f6f3ee"></path><g id="SvgjsG1074"><text id="SvgjsText1075" font-family="微软雅黑" text-anchor="middle" font-size="13px" width="0px" fill="#3d4b58" font-weight="400" align="middle" lineHeight="125%" anchor="middle" family="微软雅黑" size="13px" weight="400" font-style="" opacity="1" y="-0.125" transform="rotate(0)"></text></g></g><g id="SvgjsG1076" transform="translate(333.89496527777794,162.5545961257315)"><path id="SvgjsPath1077" d="M 0 10C 0 -3.3333333333333335 20 -3.3333333333333335 20 10C 20 23.333333333333332 0 23.333333333333332 0 10Z" stroke="rgba(97,97,97,1)" stroke-width="1" fill-opacity="1" fill="#81a0aa"></path><g id="SvgjsG1078"><text id="SvgjsText1079" font-family="微软雅黑" text-anchor="middle" font-size="13px" width="0px" fill="#f6f3ee" font-weight="400" align="middle" lineHeight="125%" anchor="middle" family="微软雅黑" size="13px" weight="400" font-style="" opacity="1" y="-0.125" transform="rotate(0)"></text></g></g><g id="SvgjsG1080"><path id="SvgjsPath1081" d="M333.39496527777794 112.25781249999994L291.28385416666663 112.25781249999994" stroke="#323232" stroke-width="1" fill="none"></path></g><g id="SvgjsG1082"><path id="SvgjsPath1083" d="M336.1919845238784 165.9237863607779L317.34929286538664 147.99651286872736" stroke="#323232" stroke-width="1" fill="none"></path></g><g id="SvgjsG1084"><path id="SvgjsPath1085" d="M343.89496527777794 122.75781249999994L343.89496527777794 162.0545961257315" stroke="#323232" stroke-width="1" fill="none"></path></g><g id="SvgjsG1086"><path id="SvgjsPath1087" d="M354.39496527777794 112.25781249999994L393.1727430555557 112.25781249999989" stroke="#323232" stroke-width="1" fill="none"></path></g><g id="SvgjsG1088" transform="translate(333.89496527777794,41.96102887426838)"><path id="SvgjsPath1089" d="M 0 10C 0 -3.3333333333333335 20 -3.3333333333333335 20 10C 20 23.333333333333332 0 23.333333333333332 0 10Z" stroke="rgba(97,97,97,1)" stroke-width="1" fill-opacity="1" fill="#f6f3ee"></path><g id="SvgjsG1090"><text id="SvgjsText1091" font-family="微软雅黑" text-anchor="middle" font-size="13px" width="0px" fill="#3d4b58" font-weight="400" align="middle" lineHeight="125%" anchor="middle" family="微软雅黑" size="13px" weight="400" font-style="" opacity="1" y="-0.125" transform="rotate(0)"></text></g></g><g id="SvgjsG1092"><path id="SvgjsPath1093" d="M343.89496527777794 101.75781249999994L343.89496527777794 62.46102887426838" stroke="#323232" stroke-width="1" fill="none"></path></g><g id="SvgjsG1094" transform="translate(290.78385416666663,61.96102887426838)"><path id="SvgjsPath1095" d="M 0 10C 0 -3.3333333333333335 20 -3.3333333333333335 20 10C 20 23.333333333333332 0 23.333333333333332 0 10Z" stroke="rgba(97,97,97,1)" stroke-width="1" fill-opacity="1" fill="#81a0aa"></path><g id="SvgjsG1096"><text id="SvgjsText1097" font-family="微软雅黑" text-anchor="middle" font-size="13px" width="0px" fill="#f6f3ee" font-weight="400" align="middle" lineHeight="125%" anchor="middle" family="微软雅黑" size="13px" weight="400" font-style="" opacity="1" y="-0.125" transform="rotate(0)"></text></g></g><g id="SvgjsG1098"><path id="SvgjsPath1099" d="M336.80011930175624 104.9353894257188L308.49432349582275 78.37046210201854" stroke="#323232" stroke-width="1" fill="none"></path></g><g id="SvgjsG1100" transform="translate(373.6727430555557,142.5545961257315)"><path id="SvgjsPath1101" d="M 0 10C 0 -3.3333333333333335 20 -3.3333333333333335 20 10C 20 23.333333333333332 0 23.333333333333332 0 10Z" stroke="rgba(97,97,97,1)" stroke-width="1" fill-opacity="1" fill="#f6f3ee"></path><g id="SvgjsG1102"><text id="SvgjsText1103" font-family="微软雅黑" text-anchor="middle" font-size="13px" width="0px" fill="#3d4b58" font-weight="400" align="middle" lineHeight="125%" anchor="middle" family="微软雅黑" size="13px" weight="400" font-style="" opacity="1" y="-0.125" transform="rotate(0)"></text></g></g><g id="SvgjsG1104" transform="translate(373.6727430555557,61.961028874268266)"><path id="SvgjsPath1105" d="M 0 10C 0 -3.3333333333333335 20 -3.3333333333333335 20 10C 20 23.333333333333332 0 23.333333333333332 0 10Z" stroke="rgba(97,97,97,1)" stroke-width="1" fill-opacity="1" fill="#f6f3ee"></path><g id="SvgjsG1106"><text id="SvgjsText1107" font-family="微软雅黑" text-anchor="middle" font-size="13px" width="0px" fill="#3d4b58" font-weight="400" align="middle" lineHeight="125%" anchor="middle" family="微软雅黑" size="13px" weight="400" font-style="" opacity="1" y="-0.125" transform="rotate(0)"></text></g></g><g id="SvgjsG1108"><path id="SvgjsPath1109" d="M375.6661666388442 78.93700142202812L350.78618683251517 104.63520411777068" stroke="#323232" stroke-width="1" fill="none"></path></g><g id="SvgjsG1110"><path id="SvgjsPath1111" d="M351.4307614180743 119.46298774003839L375.73183579917765 145.54642412961937" stroke="#323232" stroke-width="1" fill="none"></path></g><g id="SvgjsG1112" transform="translate(254.76453049516948,25.00450713513804)"><path id="SvgjsPath1113" d="M 0 10C 0 -3.3333333333333335 20 -3.3333333333333335 20 10C 20 23.333333333333332 0 23.333333333333332 0 10Z" stroke="rgba(97,97,97,1)" stroke-width="1" fill-opacity="1" fill="#f6f3ee"></path><g id="SvgjsG1114"><text id="SvgjsText1115" font-family="微软雅黑" text-anchor="middle" font-size="13px" width="0px" fill="#3d4b58" font-weight="400" align="middle" lineHeight="125%" anchor="middle" family="微软雅黑" size="13px" weight="400" font-style="" opacity="1" y="-0.125" transform="rotate(0)"></text></g></g><g id="SvgjsG1116" transform="translate(290.7838541666664,25.00450713513804)"><path id="SvgjsPath1117" d="M 0 10C 0 -3.3333333333333335 20 -3.3333333333333335 20 10C 20 23.333333333333332 0 23.333333333333332 0 10Z" stroke="rgba(97,97,97,1)" stroke-width="1" fill-opacity="1" fill="#f6f3ee"></path><g id="SvgjsG1118"><text id="SvgjsText1119" font-family="微软雅黑" text-anchor="middle" font-size="13px" width="0px" fill="#3d4b58" font-weight="400" align="middle" lineHeight="125%" anchor="middle" family="微软雅黑" size="13px" weight="400" font-style="" opacity="1" y="-0.125" transform="rotate(0)"></text></g></g><g id="SvgjsG1120"><path id="SvgjsPath1121" d="M300.78385416666663 61.46102887426838L300.78385416666663 53.48276800470322L300.78385416666663 53.48276800470322L300.78385416666663 45.504507135138056" stroke="#323232" stroke-width="1" fill="none"></path></g><g id="SvgjsG1122"><path id="SvgjsPath1123" d="M293.4642422312817 64.64146029199793L272.3818085293673 42.37863900349382" stroke="#323232" stroke-width="1" fill="none"></path></g><g id="SvgjsG1124" transform="translate(250.78385416666669,61.96102887426838)"><path id="SvgjsPath1125" d="M 0 10C 0 -3.3333333333333335 20 -3.3333333333333335 20 10C 20 23.333333333333332 0 23.333333333333332 0 10Z" stroke="rgba(97,97,97,1)" stroke-width="1" fill-opacity="1" fill="#f6f3ee"></path><g id="SvgjsG1126"><text id="SvgjsText1127" font-family="微软雅黑" text-anchor="middle" font-size="13px" width="0px" fill="#3d4b58" font-weight="400" align="middle" lineHeight="125%" anchor="middle" family="微软雅黑" size="13px" weight="400" font-style="" opacity="1" y="-0.125" transform="rotate(0)"></text></g></g><g id="SvgjsG1128"><path id="SvgjsPath1129" d="M290.28385416666663 71.96102887426838L271.2838541666667 71.96102887426838" stroke="#323232" stroke-width="1" fill="none"></path></g><g id="SvgjsG1130" transform="translate(579.6727430555558,102.25781249999989)"><path id="SvgjsPath1131" d="M 0 10C 0 -3.3333333333333335 20 -3.3333333333333335 20 10C 20 23.333333333333332 0 23.333333333333332 0 10Z" stroke="rgba(97,97,97,1)" stroke-width="1" fill-opacity="1" fill="#81a0aa"></path><g id="SvgjsG1132"><text id="SvgjsText1133" font-family="微软雅黑" text-anchor="middle" font-size="13px" width="0px" fill="#f6f3ee" font-weight="400" align="middle" lineHeight="125%" anchor="middle" family="微软雅黑" size="13px" weight="400" font-style="" opacity="1" y="-0.125" transform="rotate(0)"></text></g></g><g id="SvgjsG1134" transform="translate(531.9881552419349,41.96102887426818)"><path id="SvgjsPath1135" d="M 0 10C 0 -3.3333333333333335 20 -3.3333333333333335 20 10C 20 23.333333333333332 0 23.333333333333332 0 10Z" stroke="rgba(97,97,97,1)" stroke-width="1" fill-opacity="1" fill="#81a0aa"></path><g id="SvgjsG1136"><text id="SvgjsText1137" font-family="微软雅黑" text-anchor="middle" font-size="13px" width="0px" fill="#f6f3ee" font-weight="400" align="middle" lineHeight="125%" anchor="middle" family="微软雅黑" size="13px" weight="400" font-style="" opacity="1" y="-0.125" transform="rotate(0)"></text></g></g><g id="SvgjsG1138" transform="translate(635.8591229838705,41.961028874268095)"><path id="SvgjsPath1139" d="M 0 10C 0 -3.3333333333333335 20 -3.3333333333333335 20 10C 20 23.333333333333332 0 23.333333333333332 0 10Z" stroke="rgba(97,97,97,1)" stroke-width="1" fill-opacity="1" fill="#81a0aa"></path><g id="SvgjsG1140"><text id="SvgjsText1141" font-family="微软雅黑" text-anchor="middle" font-size="13px" width="0px" fill="#f6f3ee" font-weight="400" align="middle" lineHeight="125%" anchor="middle" family="微软雅黑" size="13px" weight="400" font-style="" opacity="1" y="-0.125" transform="rotate(0)"></text></g></g><g id="SvgjsG1142" transform="translate(531.9881552419349,162.5545961257315)"><path id="SvgjsPath1143" d="M 0 10C 0 -3.3333333333333335 20 -3.3333333333333335 20 10C 20 23.333333333333332 0 23.333333333333332 0 10Z" stroke="rgba(97,97,97,1)" stroke-width="1" fill-opacity="1" fill="#81a0aa"></path><g id="SvgjsG1144"><text id="SvgjsText1145" font-family="微软雅黑" text-anchor="middle" font-size="13px" width="0px" fill="#f6f3ee" font-weight="400" align="middle" lineHeight="125%" anchor="middle" family="微软雅黑" size="13px" weight="400" font-style="" opacity="1" y="-0.125" transform="rotate(0)"></text></g></g><g id="SvgjsG1146" transform="translate(579.6727430555559,162.55459612573168)"><path id="SvgjsPath1147" d="M 0 10C 0 -3.3333333333333335 20 -3.3333333333333335 20 10C 20 23.333333333333332 0 23.333333333333332 0 10Z" stroke="rgba(97,97,97,1)" stroke-width="1" fill-opacity="1" fill="#81a0aa"></path><g id="SvgjsG1148"><text id="SvgjsText1149" font-family="微软雅黑" text-anchor="middle" font-size="13px" width="0px" fill="#f6f3ee" font-weight="400" align="middle" lineHeight="125%" anchor="middle" family="微软雅黑" size="13px" weight="400" font-style="" opacity="1" y="-0.125" transform="rotate(0)"></text></g></g><g id="SvgjsG1150" transform="translate(635.8591229838705,130.94169289992496)"><path id="SvgjsPath1151" d="M 0 10C 0 -3.3333333333333335 20 -3.3333333333333335 20 10C 20 23.333333333333332 0 23.333333333333332 0 10Z" stroke="rgba(97,97,97,1)" stroke-width="1" fill-opacity="1" fill="#81a0aa"></path><g id="SvgjsG1152"><text id="SvgjsText1153" font-family="微软雅黑" text-anchor="middle" font-size="13px" width="0px" fill="#f6f3ee" font-weight="400" align="middle" lineHeight="125%" anchor="middle" family="微软雅黑" size="13px" weight="400" font-style="" opacity="1" y="-0.125" transform="rotate(0)"></text></g></g><g id="SvgjsG1154"><path id="SvgjsPath1155" d="M552.4881552419349 51.96102887426818L635.3591229838705 51.961028874268095" stroke="#323232" stroke-width="1" fill="none"></path></g><g id="SvgjsG1156"><path id="SvgjsPath1157" d="M645.8591229838705 62.461028874268095L645.8591229838705 130.44169289992496" stroke="#323232" stroke-width="1" fill="none"></path></g><g id="SvgjsG1158"><path id="SvgjsPath1159" d="M635.4825759865773 141.27064936943034L600.0492900528491 172.225639656226" stroke="#323232" stroke-width="1" fill="none"></path></g><g id="SvgjsG1160"><path id="SvgjsPath1161" d="M579.1727430555559 172.5545961257314L552.4881552419349 172.5545961257315" stroke="#323232" stroke-width="1" fill="none"></path></g><g id="SvgjsG1162"><path id="SvgjsPath1163" d="M541.9881552419349 162.0545961257315L541.9881552419349 62.46102887426818" stroke="#323232" stroke-width="1" fill="none"></path></g><g id="SvgjsG1164"><path id="SvgjsPath1165" d="M583.2814568210724 103.77332198692943L548.6228466854141 59.540889266252265" stroke="#323232" stroke-width="1" fill="none"></path></g><g id="SvgjsG1166"><path id="SvgjsPath1167" d="M596.4454628917659 104.21673949506814L638.8460485553778 59.422836181328364" stroke="#323232" stroke-width="1" fill="none"></path></g><g id="SvgjsG1168"><path id="SvgjsPath1169" d="M598.1598773900338 118.0995926676753L637.6595330026221 134.6651144730294" stroke="#323232" stroke-width="1" fill="none"></path></g><g id="SvgjsG1170"><path id="SvgjsPath1171" d="M589.6727430555559 162.05459612573168L589.6727430555559 122.75781249999989" stroke="#323232" stroke-width="1" fill="none"></path></g><g id="SvgjsG1172"><path id="SvgjsPath1173" d="M582.2559897548405 119.55786766591186L548.1908538577703 164.07145289604898" stroke="#323232" stroke-width="1" fill="none"></path></g><g id="SvgjsG1174" transform="translate(38.11718749999997,222.851379751463)"><path id="SvgjsPath1175" d="M 0 0L 120 0L 120 30L 0 30Z" stroke="none" fill="none"></path><g id="SvgjsG1176"><text id="SvgjsText1177" font-family="微软雅黑" text-anchor="middle" font-size="13px" width="120px" fill="#323232" font-weight="400" align="middle" lineHeight="125%" anchor="middle" family="微软雅黑" size="13px" weight="400" font-style="" opacity="1" y="4.875" transform="rotate(0)"><tspan id="SvgjsTspan1178" dy="16" x="60"><tspan id="SvgjsTspan1179" style="text-decoration:;">中心式网络</tspan></tspan></text></g></g><g id="SvgjsG1180" transform="translate(283.89496527777794,222.851379751463)"><path id="SvgjsPath1181" d="M 0 0L 120 0L 120 30L 0 30Z" stroke="none" fill="none"></path><g id="SvgjsG1182"><text id="SvgjsText1183" font-family="微软雅黑" text-anchor="middle" font-size="13px" width="120px" fill="#323232" font-weight="400" align="middle" lineHeight="125%" anchor="middle" family="微软雅黑" size="13px" weight="400" font-style="" opacity="1" y="4.875" transform="rotate(0)"><tspan id="SvgjsTspan1184" dy="16" x="60"><tspan id="SvgjsTspan1185" style="text-decoration:;">分散式网络</tspan></tspan></text></g></g><g id="SvgjsG1186" transform="translate(529.672743055556,222.851379751463)"><path id="SvgjsPath1187" d="M 0 0L 120 0L 120 30L 0 30Z" stroke="none" fill="none"></path><g id="SvgjsG1188"><text id="SvgjsText1189" font-family="微软雅黑" text-anchor="middle" font-size="13px" width="120px" fill="#323232" font-weight="400" align="middle" lineHeight="125%" anchor="middle" family="微软雅黑" size="13px" weight="400" font-style="" opacity="1" y="4.875" transform="rotate(0)"><tspan id="SvgjsTspan1190" dy="16" x="60"><tspan id="SvgjsTspan1191" style="text-decoration:;">分布式网络</tspan></tspan></text></g></g><g id="SvgjsG1192" transform="translate(444.36163194444487,36.96102887426818)"><path id="SvgjsPath1193" d="M 0 0L 50 0L 50 30L 0 30Z" stroke="none" fill="none"></path><g id="SvgjsG1194"><text id="SvgjsText1195" font-family="微软雅黑" text-anchor="middle" font-size="13px" width="50px" fill="#688f4e" font-weight="400" align="middle" lineHeight="125%" anchor="middle" family="微软雅黑" size="13px" weight="400" font-style="" opacity="1" y="4.875" transform="rotate(0)"><tspan id="SvgjsTspan1196" dy="16" x="25"><tspan id="SvgjsTspan1197" style="text-decoration:;">站点</tspan></tspan></text></g></g><g id="SvgjsG1198"><path id="SvgjsPath1199" d="M531.4881552419349 51.96102887426818L494.86163194444487 51.96102887426818" stroke-dasharray="8,5" stroke="#688f4e" stroke-width="1" fill="none"></path></g><g id="SvgjsG1200" transform="translate(444.361631944445,97.25781249999989)"><path id="SvgjsPath1201" d="M 0 0L 50 0L 50 30L 0 30Z" stroke="none" fill="none"></path><g id="SvgjsG1202"><text id="SvgjsText1203" font-family="微软雅黑" text-anchor="middle" font-size="13px" width="50px" fill="#688f4e" font-weight="400" align="middle" lineHeight="125%" anchor="middle" family="微软雅黑" size="13px" weight="400" font-style="" opacity="1" y="4.875" transform="rotate(0)"><tspan id="SvgjsTspan1204" dy="16" x="25"><tspan id="SvgjsTspan1205" style="text-decoration:;">链路</tspan></tspan></text></g></g><g id="SvgjsG1206"><path id="SvgjsPath1207" d="M495.361631944445 112.25781249999989L541.6671875 112.25781249999989" stroke-dasharray="8,5" stroke="#688f4e" stroke-width="1" fill="none"></path></g><g id="SvgjsG1208"><path id="SvgjsPath1209" d="M391.27504497225146 64.64164721422878L443.87531350311065 52.0771941600394" stroke-dasharray="8,5" stroke="#688f4e" stroke-width="1" fill="none"></path></g></svg>