<svg id="SvgjsSvg1094" width="689.3828125" height="190.5234375" xmlns="http://www.w3.org/2000/svg" version="1.1" xmlns:xlink="http://www.w3.org/1999/xlink" xmlns:svgjs="http://svgjs.com/svgjs"><defs id="SvgjsDefs1095"><marker id="SvgjsMarker1120" markerWidth="12" markerHeight="8" refX="9" refY="4" viewBox="0 0 12 8" orient="auto" markerUnits="userSpaceOnUse" stroke-dasharray="0,0"><path id="SvgjsPath1121" d="M0,0 L12,4 L0,8 L0,0" fill="#616161" stroke="#616161" stroke-width="1"></path></marker><marker id="SvgjsMarker1124" markerWidth="12" markerHeight="8" refX="9" refY="4" viewBox="0 0 12 8" orient="auto" markerUnits="userSpaceOnUse" stroke-dasharray="0,0"><path id="SvgjsPath1125" d="M0,0 L12,4 L0,8 L0,0" fill="#616161" stroke="#616161" stroke-width="1"></path></marker></defs><g id="SvgjsG1096" transform="translate(25,25)"><path id="SvgjsPath1097" d="M 0 4Q 0 0 4 0L 216 0Q 220 0 220 4L 220 106Q 220 110 216 110L 4 110Q 0 110 0 106Z" stroke="rgba(97,97,97,1)" stroke-width="1" fill-opacity="1" fill="#f6f3ee"></path><g id="SvgjsG1098"><text id="SvgjsText1099" font-family="微软雅黑" text-anchor="middle" font-size="16px" width="200px" fill="#3d4b58" font-weight="400" align="middle" lineHeight="125%" anchor="middle" family="微软雅黑" size="16px" weight="400" font-style="" opacity="1" y="43" transform="rotate(0)"></text></g></g><g id="SvgjsG1100" transform="translate(45,70.33333333333331)"><path id="SvgjsPath1101" d="M 0 4Q 0 0 4 0L 176 0Q 180 0 180 4L 180 41Q 180 45 176 45L 4 45Q 0 45 0 41Z" stroke="rgba(97,97,97,1)" stroke-width="1" fill-opacity="1" fill="#81a0aa"></path><g id="SvgjsG1102"><text id="SvgjsText1103" font-family="微软雅黑" text-anchor="middle" font-size="13px" width="160px" fill="#f6f3ee" font-weight="400" align="middle" lineHeight="125%" anchor="middle" family="微软雅黑" size="13px" weight="400" font-style="" opacity="1" y="12.375" transform="rotate(0)"><tspan id="SvgjsTspan1104" dy="16" x="90"><tspan id="SvgjsTspan1105" style="text-decoration:;">命门 / 胜负手 / 关键变量</tspan></tspan></text></g></g><g id="SvgjsG1106" transform="translate(45,25)"><path id="SvgjsPath1107" d="M 0 0L 180 0L 180 45L 0 45Z" stroke="none" fill="none"></path><g id="SvgjsG1108"><text id="SvgjsText1109" font-family="微软雅黑" text-anchor="middle" font-size="15px" width="180px" fill="#616161" font-weight="700" align="middle" lineHeight="125%" anchor="middle" family="微软雅黑" size="15px" weight="700" font-style="" opacity="1" y="11.125" transform="rotate(0)"><tspan id="SvgjsTspan1110" dy="18" x="90"><tspan id="SvgjsTspan1111" style="text-decoration:;">系统</tspan></tspan></text></g></g><g id="SvgjsG1112" transform="translate(365.8157894736843,70.33333333333331)"><path id="SvgjsPath1113" d="M 0 4Q 0 0 4 0L 176 0Q 180 0 180 4L 180 41Q 180 45 176 45L 4 45Q 0 45 0 41Z" stroke="rgba(97,97,97,1)" stroke-width="1" fill-opacity="1" fill="#81a0aa"></path><g id="SvgjsG1114"><text id="SvgjsText1115" font-family="微软雅黑" text-anchor="middle" font-size="13px" width="160px" fill="#f6f3ee" font-weight="400" align="middle" lineHeight="125%" anchor="middle" family="微软雅黑" size="13px" weight="400" font-style="" opacity="1" y="12.375" transform="rotate(0)"><tspan id="SvgjsTspan1116" dy="16" x="90"><tspan id="SvgjsTspan1117" style="text-decoration:;">建立仪式</tspan></tspan></text></g></g><g id="SvgjsG1118"><path id="SvgjsPath1119" d="M225.5 92.83333333333331L295.4078947368422 92.83333333333331L295.4078947368422 92.83333333333331L364.0157894736843 92.83333333333331" stroke="#616161" stroke-width="1" fill="none" marker-end="url(#SvgjsMarker1120)"></path></g><g id="SvgjsG1122"><path id="SvgjsPath1123" d="M455.8157894736844 115.83333333333331L455.8157894736844 165L135 165L135 136.8" stroke="#616161" stroke-width="1" fill="none" marker-end="url(#SvgjsMarker1124)"></path></g><g id="SvgjsG1126" transform="translate(246.1973684210525,67.5)"><path id="SvgjsPath1127" d="M 0 0L 120 0L 120 25L 0 25Z" stroke="none" fill="none"></path><g id="SvgjsG1128"><text id="SvgjsText1129" font-family="微软雅黑" text-anchor="middle" font-size="13px" width="120px" fill="#616161" font-weight="400" align="middle" lineHeight="125%" anchor="middle" family="微软雅黑" size="13px" weight="400" font-style="" opacity="1" y="2.375" transform="rotate(0)"><tspan id="SvgjsTspan1130" dy="16" x="60"><tspan id="SvgjsTspan1131" style="text-decoration:;">寻找杠杆解</tspan></tspan></text></g></g><g id="SvgjsG1132" transform="translate(246.1973684210525,140.5263157894737)"><path id="SvgjsPath1133" d="M 0 0L 120 0L 120 25L 0 25Z" stroke="none" fill="none"></path><g id="SvgjsG1134"><text id="SvgjsText1135" font-family="微软雅黑" text-anchor="middle" font-size="13px" width="120px" fill="#616161" font-weight="400" align="middle" lineHeight="125%" anchor="middle" family="微软雅黑" size="13px" weight="400" font-style="" opacity="1" y="2.375" transform="rotate(0)"><tspan id="SvgjsTspan1136" dy="16" x="60"><tspan id="SvgjsTspan1137" style="text-decoration:;">改善系统</tspan></tspan></text></g></g><g id="SvgjsG1138" transform="translate(574.3872180451127,25)"><path id="SvgjsPath1139" d="M 0 4Q 0 0 4 0L 86 0Q 90 0 90 4L 90 26Q 90 30 86 30L 4 30Q 0 30 0 26Z" stroke="rgba(97,97,97,1)" stroke-width="1" fill-opacity="1" fill="#81a0aa"></path><g id="SvgjsG1140"><text id="SvgjsText1141" font-family="微软雅黑" text-anchor="middle" font-size="13px" width="70px" fill="#f6f3ee" font-weight="400" align="middle" lineHeight="125%" anchor="middle" family="微软雅黑" size="13px" weight="400" font-style="" opacity="1" y="4.875" transform="rotate(0)"><tspan id="SvgjsTspan1142" dy="16" x="45"><tspan id="SvgjsTspan1143" style="text-decoration:;">微习惯</tspan></tspan></text></g></g><g id="SvgjsG1144" transform="translate(574.3872180451127,61.84210526315789)"><path id="SvgjsPath1145" d="M 0 4Q 0 0 4 0L 86 0Q 90 0 90 4L 90 26Q 90 30 86 30L 4 30Q 0 30 0 26Z" stroke="rgba(97,97,97,1)" stroke-width="1" fill-opacity="1" fill="#81a0aa"></path><g id="SvgjsG1146"><text id="SvgjsText1147" font-family="微软雅黑" text-anchor="middle" font-size="13px" width="70px" fill="#f6f3ee" font-weight="400" align="middle" lineHeight="125%" anchor="middle" family="微软雅黑" size="13px" weight="400" font-style="" opacity="1" y="4.875" transform="rotate(0)"><tspan id="SvgjsTspan1148" dy="16" x="45"><tspan id="SvgjsTspan1149" style="text-decoration:;">微习惯</tspan></tspan></text></g></g><g id="SvgjsG1150" transform="translate(574.3872180451126,135.5263157894737)"><path id="SvgjsPath1151" d="M 0 4Q 0 0 4 0L 86 0Q 90 0 90 4L 90 26Q 90 30 86 30L 4 30Q 0 30 0 26Z" stroke="rgba(97,97,97,1)" stroke-width="1" fill-opacity="1" fill="#81a0aa"></path><g id="SvgjsG1152"><text id="SvgjsText1153" font-family="微软雅黑" text-anchor="middle" font-size="13px" width="70px" fill="#f6f3ee" font-weight="400" align="middle" lineHeight="125%" anchor="middle" family="微软雅黑" size="13px" weight="400" font-style="" opacity="1" y="4.875" transform="rotate(0)"><tspan id="SvgjsTspan1154" dy="16" x="45"><tspan id="SvgjsTspan1155" style="text-decoration:;">微习惯</tspan></tspan></text></g></g><g id="SvgjsG1156"><path id="SvgjsPath1157" d="M546.3157894736843 92.83333333333331L560.1015037593985 92.83333333333331L560.1015037593985 40L573.8872180451127 40" stroke="#616161" stroke-width="1" fill="none"></path></g><g id="SvgjsG1158"><path id="SvgjsPath1159" d="M546.3157894736843 92.83333333333331L560.1015037593985 92.83333333333331L560.1015037593985 76.84210526315789L573.8872180451127 76.84210526315789" stroke="#616161" stroke-width="1" fill="none"></path></g><g id="SvgjsG1160"><path id="SvgjsPath1161" d="M546.3157894736843 92.83333333333331L560.1015037593984 92.83333333333331L560.1015037593984 150.5263157894737L573.8872180451126 150.5263157894737" stroke="#616161" stroke-width="1" fill="none"></path></g><g id="SvgjsG1162" transform="translate(574.3872180451127,98.68421052631578)"><path id="SvgjsPath1163" d="M 0 0L 90 0L 90 30L 0 30Z" stroke="none" fill="none"></path><g id="SvgjsG1164"><text id="SvgjsText1165" font-family="微软雅黑" text-anchor="middle" font-size="15px" width="90px" fill="#616161" font-weight="400" align="middle" lineHeight="125%" anchor="middle" family="微软雅黑" size="15px" weight="400" font-style="" opacity="1" y="3.625" transform="rotate(0)"><tspan id="SvgjsTspan1166" dy="18" x="45"><tspan id="SvgjsTspan1167" style="text-decoration:;">···</tspan></tspan></text></g></g></svg>