<svg id="SvgjsSvg1006" width="557.75" height="408.7109375" xmlns="http://www.w3.org/2000/svg" version="1.1" xmlns:xlink="http://www.w3.org/1999/xlink" xmlns:svgjs="http://svgjs.com/svgjs"><defs id="SvgjsDefs1007"></defs><g id="SvgjsG1008" transform="translate(40,71.96030618686859)"><path id="SvgjsPath1009" d="M 0 15C 0 -5 30 -5 30 15C 30 35 0 35 0 15Z" stroke="rgba(104,143,78,1)" stroke-width="1" fill-opacity="1" fill="#b2d182"></path><g id="SvgjsG1010"><text id="SvgjsText1011" font-family="微软雅黑" text-anchor="middle" font-size="13px" width="10px" fill="#688f4e" font-weight="400" align="middle" lineHeight="125%" anchor="middle" family="微软雅黑" size="13px" weight="400" font-style="" opacity="1" y="4.375" transform="rotate(0)"><tspan id="SvgjsTspan1012" dy="16" x="15"><tspan id="SvgjsTspan1013" style="text-decoration:;">+</tspan></tspan></text></g></g><g id="SvgjsG1014" transform="translate(25.000000000000057,25.00071022727269)"><path id="SvgjsPath1015" d="M 0 4Q 0 0 4 0L 56 0Q 60 0 60 4L 60 26Q 60 30 56 30L 4 30Q 0 30 0 26Z" stroke="rgba(97,97,97,1)" stroke-width="1" fill-opacity="1" fill="#f6f3ee"></path><g id="SvgjsG1016"><text id="SvgjsText1017" font-family="微软雅黑" text-anchor="middle" font-size="13px" width="40px" fill="#616161" font-weight="400" align="middle" lineHeight="125%" anchor="middle" family="微软雅黑" size="13px" weight="400" font-style="" opacity="1" y="4.375" transform="rotate(0)"><tspan id="SvgjsTspan1018" dy="16" x="30"><tspan id="SvgjsTspan1019" style="text-decoration:;">要素</tspan></tspan></text></g></g><g id="SvgjsG1020" transform="translate(102.00000000000006,25.000710227273032)"><path id="SvgjsPath1021" d="M 0 4Q 0 0 4 0L 56 0Q 60 0 60 4L 60 26Q 60 30 56 30L 4 30Q 0 30 0 26Z" stroke="rgba(97,97,97,1)" stroke-width="1" fill-opacity="1" fill="#f6f3ee"></path><g id="SvgjsG1022"><text id="SvgjsText1023" font-family="微软雅黑" text-anchor="middle" font-size="13px" width="40px" fill="#616161" font-weight="400" align="middle" lineHeight="125%" anchor="middle" family="微软雅黑" size="13px" weight="400" font-style="" opacity="1" y="4.375" transform="rotate(0)"><tspan id="SvgjsTspan1024" dy="16" x="30"><tspan id="SvgjsTspan1025" style="text-decoration:;">关系</tspan></tspan></text></g></g><g id="SvgjsG1026" transform="translate(179.00000000000006,25.00071022727306)"><path id="SvgjsPath1027" d="M 0 4Q 0 0 4 0L 56 0Q 60 0 60 4L 60 26Q 60 30 56 30L 4 30Q 0 30 0 26Z" stroke="rgba(97,97,97,1)" stroke-width="1" fill-opacity="1" fill="#f6f3ee"></path><g id="SvgjsG1028"><text id="SvgjsText1029" font-family="微软雅黑" text-anchor="middle" font-size="13px" width="40px" fill="#616161" font-weight="400" align="middle" lineHeight="125%" anchor="middle" family="微软雅黑" size="13px" weight="400" font-style="" opacity="1" y="4.375" transform="rotate(0)"><tspan id="SvgjsTspan1030" dy="16" x="30"><tspan id="SvgjsTspan1031" style="text-decoration:;">作用</tspan></tspan></text></g></g><g id="SvgjsG1032" transform="translate(40,118.91990214646455)"><path id="SvgjsPath1033" d="M 0 15C 0 -5 30 -5 30 15C 30 35 0 35 0 15Z" stroke="rgba(209,71,108,1)" stroke-width="1" fill-opacity="1" fill="#ff9b96"></path><g id="SvgjsG1034"><text id="SvgjsText1035" font-family="微软雅黑" text-anchor="middle" font-size="13px" width="10px" fill="#d1476c" font-weight="400" align="middle" lineHeight="125%" anchor="middle" family="微软雅黑" size="13px" weight="400" font-style="" opacity="1" y="4.375" transform="rotate(0)"><tspan id="SvgjsTspan1036" dy="16" x="15"><tspan id="SvgjsTspan1037" style="text-decoration:;">-</tspan></tspan></text></g></g><g id="SvgjsG1038" transform="translate(117,71.96030618686876)"><path id="SvgjsPath1039" d="M 0 15C 0 -5 30 -5 30 15C 30 35 0 35 0 15Z" stroke="rgba(104,143,78,1)" stroke-width="1" fill-opacity="1" fill="#b2d182"></path><g id="SvgjsG1040"><text id="SvgjsText1041" font-family="微软雅黑" text-anchor="middle" font-size="13px" width="10px" fill="#688f4e" font-weight="400" align="middle" lineHeight="125%" anchor="middle" family="微软雅黑" size="13px" weight="400" font-style="" opacity="1" y="4.375" transform="rotate(0)"><tspan id="SvgjsTspan1042" dy="16" x="15"><tspan id="SvgjsTspan1043" style="text-decoration:;">+</tspan></tspan></text></g></g><g id="SvgjsG1044" transform="translate(117,118.91990214646455)"><path id="SvgjsPath1045" d="M 0 15C 0 -5 30 -5 30 15C 30 35 0 35 0 15Z" stroke="rgba(209,71,108,1)" stroke-width="1" fill-opacity="1" fill="#ff9b96"></path><g id="SvgjsG1046"><text id="SvgjsText1047" font-family="微软雅黑" text-anchor="middle" font-size="13px" width="10px" fill="#d1476c" font-weight="400" align="middle" lineHeight="125%" anchor="middle" family="微软雅黑" size="13px" weight="400" font-style="" opacity="1" y="4.375" transform="rotate(0)"><tspan id="SvgjsTspan1048" dy="16" x="15"><tspan id="SvgjsTspan1049" style="text-decoration:;">-</tspan></tspan></text></g></g><g id="SvgjsG1050" transform="translate(194,71.96030618686868)"><path id="SvgjsPath1051" d="M 0 15C 0 -5 30 -5 30 15C 30 35 0 35 0 15Z" stroke="rgba(104,143,78,1)" stroke-width="1" fill-opacity="1" fill="#b2d182"></path><g id="SvgjsG1052"><text id="SvgjsText1053" font-family="微软雅黑" text-anchor="middle" font-size="13px" width="10px" fill="#688f4e" font-weight="400" align="middle" lineHeight="125%" anchor="middle" family="微软雅黑" size="13px" weight="400" font-style="" opacity="1" y="4.375" transform="rotate(0)"><tspan id="SvgjsTspan1054" dy="16" x="15"><tspan id="SvgjsTspan1055" style="text-decoration:;">+</tspan></tspan></text></g></g><g id="SvgjsG1056" transform="translate(194,118.91990214646455)"><path id="SvgjsPath1057" d="M 0 15C 0 -5 30 -5 30 15C 30 35 0 35 0 15Z" stroke="rgba(209,71,108,1)" stroke-width="1" fill-opacity="1" fill="#ff9b96"></path><g id="SvgjsG1058"><text id="SvgjsText1059" font-family="微软雅黑" text-anchor="middle" font-size="13px" width="10px" fill="#d1476c" font-weight="400" align="middle" lineHeight="125%" anchor="middle" family="微软雅黑" size="13px" weight="400" font-style="" opacity="1" y="4.375" transform="rotate(0)"><tspan id="SvgjsTspan1060" dy="16" x="15"><tspan id="SvgjsTspan1061" style="text-decoration:;">-</tspan></tspan></text></g></g><g id="SvgjsG1062" transform="translate(333.75,71.96030618686893)"><path id="SvgjsPath1063" d="M 0 15C 0 -5 30 -5 30 15C 30 35 0 35 0 15Z" stroke="rgba(104,143,78,1)" stroke-width="1" fill-opacity="1" fill="#b2d182"></path><g id="SvgjsG1064"><text id="SvgjsText1065" font-family="微软雅黑" text-anchor="middle" font-size="13px" width="10px" fill="#688f4e" font-weight="400" align="middle" lineHeight="125%" anchor="middle" family="微软雅黑" size="13px" weight="400" font-style="" opacity="1" y="4.375" transform="rotate(0)"><tspan id="SvgjsTspan1066" dy="16" x="15"><tspan id="SvgjsTspan1067" style="text-decoration:;">+</tspan></tspan></text></g></g><g id="SvgjsG1068" transform="translate(318.75,25.000710227273032)"><path id="SvgjsPath1069" d="M 0 4Q 0 0 4 0L 56 0Q 60 0 60 4L 60 26Q 60 30 56 30L 4 30Q 0 30 0 26Z" stroke="rgba(97,97,97,1)" stroke-width="1" fill-opacity="1" fill="#f6f3ee"></path><g id="SvgjsG1070"><text id="SvgjsText1071" font-family="微软雅黑" text-anchor="middle" font-size="13px" width="40px" fill="#616161" font-weight="400" align="middle" lineHeight="125%" anchor="middle" family="微软雅黑" size="13px" weight="400" font-style="" opacity="1" y="4.375" transform="rotate(0)"><tspan id="SvgjsTspan1072" dy="16" x="30"><tspan id="SvgjsTspan1073" style="text-decoration:;">要素</tspan></tspan></text></g></g><g id="SvgjsG1074" transform="translate(395.75,25.000710227273373)"><path id="SvgjsPath1075" d="M 0 4Q 0 0 4 0L 56 0Q 60 0 60 4L 60 26Q 60 30 56 30L 4 30Q 0 30 0 26Z" stroke="rgba(97,97,97,1)" stroke-width="1" fill-opacity="1" fill="#f6f3ee"></path><g id="SvgjsG1076"><text id="SvgjsText1077" font-family="微软雅黑" text-anchor="middle" font-size="13px" width="40px" fill="#616161" font-weight="400" align="middle" lineHeight="125%" anchor="middle" family="微软雅黑" size="13px" weight="400" font-style="" opacity="1" y="4.375" transform="rotate(0)"><tspan id="SvgjsTspan1078" dy="16" x="30"><tspan id="SvgjsTspan1079" style="text-decoration:;">关系</tspan></tspan></text></g></g><g id="SvgjsG1080" transform="translate(472.75,25.00071022727343)"><path id="SvgjsPath1081" d="M 0 4Q 0 0 4 0L 56 0Q 60 0 60 4L 60 26Q 60 30 56 30L 4 30Q 0 30 0 26Z" stroke="rgba(97,97,97,1)" stroke-width="1" fill-opacity="1" fill="#f6f3ee"></path><g id="SvgjsG1082"><text id="SvgjsText1083" font-family="微软雅黑" text-anchor="middle" font-size="13px" width="40px" fill="#616161" font-weight="400" align="middle" lineHeight="125%" anchor="middle" family="微软雅黑" size="13px" weight="400" font-style="" opacity="1" y="4.375" transform="rotate(0)"><tspan id="SvgjsTspan1084" dy="16" x="30"><tspan id="SvgjsTspan1085" style="text-decoration:;">作用</tspan></tspan></text></g></g><g id="SvgjsG1086" transform="translate(333.75,118.91990214646489)"><path id="SvgjsPath1087" d="M 0 15C 0 -5 30 -5 30 15C 30 35 0 35 0 15Z" stroke="rgba(209,71,108,1)" stroke-width="1" fill-opacity="1" fill="#ff9b96"></path><g id="SvgjsG1088"><text id="SvgjsText1089" font-family="微软雅黑" text-anchor="middle" font-size="13px" width="10px" fill="#d1476c" font-weight="400" align="middle" lineHeight="125%" anchor="middle" family="微软雅黑" size="13px" weight="400" font-style="" opacity="1" y="4.375" transform="rotate(0)"><tspan id="SvgjsTspan1090" dy="16" x="15"><tspan id="SvgjsTspan1091" style="text-decoration:;">-</tspan></tspan></text></g></g><g id="SvgjsG1092" transform="translate(410.75,71.9603061868691)"><path id="SvgjsPath1093" d="M 0 15C 0 -5 30 -5 30 15C 30 35 0 35 0 15Z" stroke="rgba(104,143,78,1)" stroke-width="1" fill-opacity="1" fill="#b2d182"></path><g id="SvgjsG1094"><text id="SvgjsText1095" font-family="微软雅黑" text-anchor="middle" font-size="13px" width="10px" fill="#688f4e" font-weight="400" align="middle" lineHeight="125%" anchor="middle" family="微软雅黑" size="13px" weight="400" font-style="" opacity="1" y="4.375" transform="rotate(0)"><tspan id="SvgjsTspan1096" dy="16" x="15"><tspan id="SvgjsTspan1097" style="text-decoration:;">+</tspan></tspan></text></g></g><g id="SvgjsG1098" transform="translate(410.75,118.91990214646489)"><path id="SvgjsPath1099" d="M 0 15C 0 -5 30 -5 30 15C 30 35 0 35 0 15Z" stroke="rgba(209,71,108,1)" stroke-width="1" fill-opacity="1" fill="#ff9b96"></path><g id="SvgjsG1100"><text id="SvgjsText1101" font-family="微软雅黑" text-anchor="middle" font-size="13px" width="10px" fill="#d1476c" font-weight="400" align="middle" lineHeight="125%" anchor="middle" family="微软雅黑" size="13px" weight="400" font-style="" opacity="1" y="4.375" transform="rotate(0)"><tspan id="SvgjsTspan1102" dy="16" x="15"><tspan id="SvgjsTspan1103" style="text-decoration:;">-</tspan></tspan></text></g></g><g id="SvgjsG1104" transform="translate(487.75,71.96030618686905)"><path id="SvgjsPath1105" d="M 0 15C 0 -5 30 -5 30 15C 30 35 0 35 0 15Z" stroke="rgba(104,143,78,1)" stroke-width="1" fill-opacity="1" fill="#b2d182"></path><g id="SvgjsG1106"><text id="SvgjsText1107" font-family="微软雅黑" text-anchor="middle" font-size="13px" width="10px" fill="#688f4e" font-weight="400" align="middle" lineHeight="125%" anchor="middle" family="微软雅黑" size="13px" weight="400" font-style="" opacity="1" y="4.375" transform="rotate(0)"><tspan id="SvgjsTspan1108" dy="16" x="15"><tspan id="SvgjsTspan1109" style="text-decoration:;">+</tspan></tspan></text></g></g><g id="SvgjsG1110" transform="translate(487.75,118.91990214646466)"><path id="SvgjsPath1111" d="M 0 15C 0 -5 30 -5 30 15C 30 35 0 35 0 15Z" stroke="rgba(209,71,108,1)" stroke-width="1" fill-opacity="1" fill="#ff9b96"></path><g id="SvgjsG1112"><text id="SvgjsText1113" font-family="微软雅黑" text-anchor="middle" font-size="13px" width="10px" fill="#d1476c" font-weight="400" align="middle" lineHeight="125%" anchor="middle" family="微软雅黑" size="13px" weight="400" font-style="" opacity="1" y="4.375" transform="rotate(0)"><tspan id="SvgjsTspan1114" dy="16" x="15"><tspan id="SvgjsTspan1115" style="text-decoration:;">-</tspan></tspan></text></g></g><g id="SvgjsG1116" transform="translate(333.7500000000002,259.79869002525174)"><path id="SvgjsPath1117" d="M 0 15C 0 -5 30 -5 30 15C 30 35 0 35 0 15Z" stroke="rgba(104,143,78,1)" stroke-width="1" fill-opacity="1" fill="#b2d182"></path><g id="SvgjsG1118"><text id="SvgjsText1119" font-family="微软雅黑" text-anchor="middle" font-size="13px" width="10px" fill="#688f4e" font-weight="400" align="middle" lineHeight="125%" anchor="middle" family="微软雅黑" size="13px" weight="400" font-style="" opacity="1" y="4.375" transform="rotate(0)"><tspan id="SvgjsTspan1120" dy="16" x="15"><tspan id="SvgjsTspan1121" style="text-decoration:;">+</tspan></tspan></text></g></g><g id="SvgjsG1122" transform="translate(318.7500000000002,212.8390940656559)"><path id="SvgjsPath1123" d="M 0 4Q 0 0 4 0L 56 0Q 60 0 60 4L 60 26Q 60 30 56 30L 4 30Q 0 30 0 26Z" stroke="rgba(97,97,97,1)" stroke-width="1" fill-opacity="1" fill="#f6f3ee"></path><g id="SvgjsG1124"><text id="SvgjsText1125" font-family="微软雅黑" text-anchor="middle" font-size="13px" width="40px" fill="#616161" font-weight="400" align="middle" lineHeight="125%" anchor="middle" family="微软雅黑" size="13px" weight="400" font-style="" opacity="1" y="4.375" transform="rotate(0)"><tspan id="SvgjsTspan1126" dy="16" x="30"><tspan id="SvgjsTspan1127" style="text-decoration:;">要素</tspan></tspan></text></g></g><g id="SvgjsG1128" transform="translate(395.7500000000002,212.83909406565624)"><path id="SvgjsPath1129" d="M 0 4Q 0 0 4 0L 56 0Q 60 0 60 4L 60 26Q 60 30 56 30L 4 30Q 0 30 0 26Z" stroke="rgba(97,97,97,1)" stroke-width="1" fill-opacity="1" fill="#f6f3ee"></path><g id="SvgjsG1130"><text id="SvgjsText1131" font-family="微软雅黑" text-anchor="middle" font-size="13px" width="40px" fill="#616161" font-weight="400" align="middle" lineHeight="125%" anchor="middle" family="微软雅黑" size="13px" weight="400" font-style="" opacity="1" y="4.375" transform="rotate(0)"><tspan id="SvgjsTspan1132" dy="16" x="30"><tspan id="SvgjsTspan1133" style="text-decoration:;">关系</tspan></tspan></text></g></g><g id="SvgjsG1134" transform="translate(472.7500000000002,212.8390940656563)"><path id="SvgjsPath1135" d="M 0 4Q 0 0 4 0L 56 0Q 60 0 60 4L 60 26Q 60 30 56 30L 4 30Q 0 30 0 26Z" stroke="rgba(97,97,97,1)" stroke-width="1" fill-opacity="1" fill="#f6f3ee"></path><g id="SvgjsG1136"><text id="SvgjsText1137" font-family="微软雅黑" text-anchor="middle" font-size="13px" width="40px" fill="#616161" font-weight="400" align="middle" lineHeight="125%" anchor="middle" family="微软雅黑" size="13px" weight="400" font-style="" opacity="1" y="4.375" transform="rotate(0)"><tspan id="SvgjsTspan1138" dy="16" x="30"><tspan id="SvgjsTspan1139" style="text-decoration:;">作用</tspan></tspan></text></g></g><g id="SvgjsG1140" transform="translate(333.7500000000002,306.7582859848477)"><path id="SvgjsPath1141" d="M 0 15C 0 -5 30 -5 30 15C 30 35 0 35 0 15Z" stroke="rgba(209,71,108,1)" stroke-width="1" fill-opacity="1" fill="#ff9b96"></path><g id="SvgjsG1142"><text id="SvgjsText1143" font-family="微软雅黑" text-anchor="middle" font-size="13px" width="10px" fill="#d1476c" font-weight="400" align="middle" lineHeight="125%" anchor="middle" family="微软雅黑" size="13px" weight="400" font-style="" opacity="1" y="4.375" transform="rotate(0)"><tspan id="SvgjsTspan1144" dy="16" x="15"><tspan id="SvgjsTspan1145" style="text-decoration:;">-</tspan></tspan></text></g></g><g id="SvgjsG1146" transform="translate(410.7500000000002,259.798690025252)"><path id="SvgjsPath1147" d="M 0 15C 0 -5 30 -5 30 15C 30 35 0 35 0 15Z" stroke="rgba(104,143,78,1)" stroke-width="1" fill-opacity="1" fill="#b2d182"></path><g id="SvgjsG1148"><text id="SvgjsText1149" font-family="微软雅黑" text-anchor="middle" font-size="13px" width="10px" fill="#688f4e" font-weight="400" align="middle" lineHeight="125%" anchor="middle" family="微软雅黑" size="13px" weight="400" font-style="" opacity="1" y="4.375" transform="rotate(0)"><tspan id="SvgjsTspan1150" dy="16" x="15"><tspan id="SvgjsTspan1151" style="text-decoration:;">+</tspan></tspan></text></g></g><g id="SvgjsG1152" transform="translate(410.7500000000002,306.7582859848477)"><path id="SvgjsPath1153" d="M 0 15C 0 -5 30 -5 30 15C 30 35 0 35 0 15Z" stroke="rgba(209,71,108,1)" stroke-width="1" fill-opacity="1" fill="#ff9b96"></path><g id="SvgjsG1154"><text id="SvgjsText1155" font-family="微软雅黑" text-anchor="middle" font-size="13px" width="10px" fill="#d1476c" font-weight="400" align="middle" lineHeight="125%" anchor="middle" family="微软雅黑" size="13px" weight="400" font-style="" opacity="1" y="4.375" transform="rotate(0)"><tspan id="SvgjsTspan1156" dy="16" x="15"><tspan id="SvgjsTspan1157" style="text-decoration:;">-</tspan></tspan></text></g></g><g id="SvgjsG1158" transform="translate(487.7500000000002,259.79869002525186)"><path id="SvgjsPath1159" d="M 0 15C 0 -5 30 -5 30 15C 30 35 0 35 0 15Z" stroke="rgba(104,143,78,1)" stroke-width="1" fill-opacity="1" fill="#b2d182"></path><g id="SvgjsG1160"><text id="SvgjsText1161" font-family="微软雅黑" text-anchor="middle" font-size="13px" width="10px" fill="#688f4e" font-weight="400" align="middle" lineHeight="125%" anchor="middle" family="微软雅黑" size="13px" weight="400" font-style="" opacity="1" y="4.375" transform="rotate(0)"><tspan id="SvgjsTspan1162" dy="16" x="15"><tspan id="SvgjsTspan1163" style="text-decoration:;">+</tspan></tspan></text></g></g><g id="SvgjsG1164" transform="translate(487.7500000000002,306.7582859848475)"><path id="SvgjsPath1165" d="M 0 15C 0 -5 30 -5 30 15C 30 35 0 35 0 15Z" stroke="rgba(209,71,108,1)" stroke-width="1" fill-opacity="1" fill="#ff9b96"></path><g id="SvgjsG1166"><text id="SvgjsText1167" font-family="微软雅黑" text-anchor="middle" font-size="13px" width="10px" fill="#d1476c" font-weight="400" align="middle" lineHeight="125%" anchor="middle" family="微软雅黑" size="13px" weight="400" font-style="" opacity="1" y="4.375" transform="rotate(0)"><tspan id="SvgjsTspan1168" dy="16" x="15"><tspan id="SvgjsTspan1169" style="text-decoration:;">-</tspan></tspan></text></g></g><g id="SvgjsG1170" transform="translate(40.000000000000114,259.79869002525174)"><path id="SvgjsPath1171" d="M 0 15C 0 -5 30 -5 30 15C 30 35 0 35 0 15Z" stroke="rgba(104,143,78,1)" stroke-width="1" fill-opacity="1" fill="#b2d182"></path><g id="SvgjsG1172"><text id="SvgjsText1173" font-family="微软雅黑" text-anchor="middle" font-size="13px" width="10px" fill="#688f4e" font-weight="400" align="middle" lineHeight="125%" anchor="middle" family="微软雅黑" size="13px" weight="400" font-style="" opacity="1" y="4.375" transform="rotate(0)"><tspan id="SvgjsTspan1174" dy="16" x="15"><tspan id="SvgjsTspan1175" style="text-decoration:;">+</tspan></tspan></text></g></g><g id="SvgjsG1176" transform="translate(25.000000000000114,212.8390940656559)"><path id="SvgjsPath1177" d="M 0 4Q 0 0 4 0L 56 0Q 60 0 60 4L 60 26Q 60 30 56 30L 4 30Q 0 30 0 26Z" stroke="rgba(97,97,97,1)" stroke-width="1" fill-opacity="1" fill="#f6f3ee"></path><g id="SvgjsG1178"><text id="SvgjsText1179" font-family="微软雅黑" text-anchor="middle" font-size="13px" width="40px" fill="#616161" font-weight="400" align="middle" lineHeight="125%" anchor="middle" family="微软雅黑" size="13px" weight="400" font-style="" opacity="1" y="4.375" transform="rotate(0)"><tspan id="SvgjsTspan1180" dy="16" x="30"><tspan id="SvgjsTspan1181" style="text-decoration:;">要素</tspan></tspan></text></g></g><g id="SvgjsG1182" transform="translate(102.00000000000011,212.83909406565624)"><path id="SvgjsPath1183" d="M 0 4Q 0 0 4 0L 56 0Q 60 0 60 4L 60 26Q 60 30 56 30L 4 30Q 0 30 0 26Z" stroke="rgba(97,97,97,1)" stroke-width="1" fill-opacity="1" fill="#f6f3ee"></path><g id="SvgjsG1184"><text id="SvgjsText1185" font-family="微软雅黑" text-anchor="middle" font-size="13px" width="40px" fill="#616161" font-weight="400" align="middle" lineHeight="125%" anchor="middle" family="微软雅黑" size="13px" weight="400" font-style="" opacity="1" y="4.375" transform="rotate(0)"><tspan id="SvgjsTspan1186" dy="16" x="30"><tspan id="SvgjsTspan1187" style="text-decoration:;">关系</tspan></tspan></text></g></g><g id="SvgjsG1188" transform="translate(179.0000000000001,212.83909406565635)"><path id="SvgjsPath1189" d="M 0 4Q 0 0 4 0L 56 0Q 60 0 60 4L 60 26Q 60 30 56 30L 4 30Q 0 30 0 26Z" stroke="rgba(97,97,97,1)" stroke-width="1" fill-opacity="1" fill="#f6f3ee"></path><g id="SvgjsG1190"><text id="SvgjsText1191" font-family="微软雅黑" text-anchor="middle" font-size="13px" width="40px" fill="#616161" font-weight="400" align="middle" lineHeight="125%" anchor="middle" family="微软雅黑" size="13px" weight="400" font-style="" opacity="1" y="4.375" transform="rotate(0)"><tspan id="SvgjsTspan1192" dy="16" x="30"><tspan id="SvgjsTspan1193" style="text-decoration:;">作用</tspan></tspan></text></g></g><g id="SvgjsG1194" transform="translate(40.000000000000114,306.7582859848477)"><path id="SvgjsPath1195" d="M 0 15C 0 -5 30 -5 30 15C 30 35 0 35 0 15Z" stroke="rgba(209,71,108,1)" stroke-width="1" fill-opacity="1" fill="#ff9b96"></path><g id="SvgjsG1196"><text id="SvgjsText1197" font-family="微软雅黑" text-anchor="middle" font-size="13px" width="10px" fill="#d1476c" font-weight="400" align="middle" lineHeight="125%" anchor="middle" family="微软雅黑" size="13px" weight="400" font-style="" opacity="1" y="4.375" transform="rotate(0)"><tspan id="SvgjsTspan1198" dy="16" x="15"><tspan id="SvgjsTspan1199" style="text-decoration:;">-</tspan></tspan></text></g></g><g id="SvgjsG1200" transform="translate(117.00000000000011,259.798690025252)"><path id="SvgjsPath1201" d="M 0 15C 0 -5 30 -5 30 15C 30 35 0 35 0 15Z" stroke="rgba(104,143,78,1)" stroke-width="1" fill-opacity="1" fill="#b2d182"></path><g id="SvgjsG1202"><text id="SvgjsText1203" font-family="微软雅黑" text-anchor="middle" font-size="13px" width="10px" fill="#688f4e" font-weight="400" align="middle" lineHeight="125%" anchor="middle" family="微软雅黑" size="13px" weight="400" font-style="" opacity="1" y="4.375" transform="rotate(0)"><tspan id="SvgjsTspan1204" dy="16" x="15"><tspan id="SvgjsTspan1205" style="text-decoration:;">+</tspan></tspan></text></g></g><g id="SvgjsG1206" transform="translate(117.00000000000011,306.7582859848477)"><path id="SvgjsPath1207" d="M 0 15C 0 -5 30 -5 30 15C 30 35 0 35 0 15Z" stroke="rgba(209,71,108,1)" stroke-width="1" fill-opacity="1" fill="#ff9b96"></path><g id="SvgjsG1208"><text id="SvgjsText1209" font-family="微软雅黑" text-anchor="middle" font-size="13px" width="10px" fill="#d1476c" font-weight="400" align="middle" lineHeight="125%" anchor="middle" family="微软雅黑" size="13px" weight="400" font-style="" opacity="1" y="4.375" transform="rotate(0)"><tspan id="SvgjsTspan1210" dy="16" x="15"><tspan id="SvgjsTspan1211" style="text-decoration:;">-</tspan></tspan></text></g></g><g id="SvgjsG1212" transform="translate(194.0000000000001,259.79869002525186)"><path id="SvgjsPath1213" d="M 0 15C 0 -5 30 -5 30 15C 30 35 0 35 0 15Z" stroke="rgba(104,143,78,1)" stroke-width="1" fill-opacity="1" fill="#b2d182"></path><g id="SvgjsG1214"><text id="SvgjsText1215" font-family="微软雅黑" text-anchor="middle" font-size="13px" width="10px" fill="#688f4e" font-weight="400" align="middle" lineHeight="125%" anchor="middle" family="微软雅黑" size="13px" weight="400" font-style="" opacity="1" y="4.375" transform="rotate(0)"><tspan id="SvgjsTspan1216" dy="16" x="15"><tspan id="SvgjsTspan1217" style="text-decoration:;">+</tspan></tspan></text></g></g><g id="SvgjsG1218" transform="translate(194.0000000000001,306.7582859848475)"><path id="SvgjsPath1219" d="M 0 15C 0 -5 30 -5 30 15C 30 35 0 35 0 15Z" stroke="rgba(209,71,108,1)" stroke-width="1" fill-opacity="1" fill="#ff9b96"></path><g id="SvgjsG1220"><text id="SvgjsText1221" font-family="微软雅黑" text-anchor="middle" font-size="13px" width="10px" fill="#d1476c" font-weight="400" align="middle" lineHeight="125%" anchor="middle" family="微软雅黑" size="13px" weight="400" font-style="" opacity="1" y="4.375" transform="rotate(0)"><tspan id="SvgjsTspan1222" dy="16" x="15"><tspan id="SvgjsTspan1223" style="text-decoration:;">-</tspan></tspan></text></g></g><g id="SvgjsG1224" transform="translate(74.00000000000011,353.71788194444343)"><path id="SvgjsPath1225" d="M 0 0L 120 0L 120 30L 0 30Z" stroke="none" fill="none"></path><g id="SvgjsG1226"><text id="SvgjsText1227" font-family="微软雅黑" text-anchor="middle" font-size="15px" width="120px" fill="#616161" font-weight="700" align="middle" lineHeight="125%" anchor="middle" family="微软雅黑" size="15px" weight="700" font-style="" opacity="1" y="2.625" transform="rotate(0)"><tspan id="SvgjsTspan1228" dy="18" x="60"><tspan id="SvgjsTspan1229" style="text-decoration:;">贤者时刻</tspan></tspan></text></g></g><g id="SvgjsG1230" transform="translate(378.7500000000002,353.7178819444431)"><path id="SvgjsPath1231" d="M 0 0L 120 0L 120 30L 0 30Z" stroke="none" fill="none"></path><g id="SvgjsG1232"><text id="SvgjsText1233" font-family="微软雅黑" text-anchor="middle" font-size="15px" width="120px" fill="#616161" font-weight="700" align="middle" lineHeight="125%" anchor="middle" family="微软雅黑" size="15px" weight="700" font-style="" opacity="1" y="2.625" transform="rotate(0)"><tspan id="SvgjsTspan1234" dy="18" x="60"><tspan id="SvgjsTspan1235" style="text-decoration:;">回归平庸</tspan></tspan></text></g></g><g id="SvgjsG1236" transform="translate(74,165.87949810606023)"><path id="SvgjsPath1237" d="M 0 0L 120 0L 120 30L 0 30Z" stroke="none" fill="none"></path><g id="SvgjsG1238"><text id="SvgjsText1239" font-family="微软雅黑" text-anchor="middle" font-size="15px" width="120px" fill="#616161" font-weight="700" align="middle" lineHeight="125%" anchor="middle" family="微软雅黑" size="15px" weight="700" font-style="" opacity="1" y="2.625" transform="rotate(0)"><tspan id="SvgjsTspan1240" dy="18" x="60"><tspan id="SvgjsTspan1241" style="text-decoration:;">良性循环</tspan></tspan></text></g></g><g id="SvgjsG1242" transform="translate(365.7500000000002,165.87949810606023)"><path id="SvgjsPath1243" d="M 0 0L 120 0L 120 30L 0 30Z" stroke="none" fill="none"></path><g id="SvgjsG1244"><text id="SvgjsText1245" font-family="微软雅黑" text-anchor="middle" font-size="15px" width="120px" fill="#616161" font-weight="700" align="middle" lineHeight="125%" anchor="middle" family="微软雅黑" size="15px" weight="700" font-style="" opacity="1" y="2.625" transform="rotate(0)"><tspan id="SvgjsTspan1246" dy="18" x="60"><tspan id="SvgjsTspan1247" style="text-decoration:;">恶性循环</tspan></tspan></text></g></g><g id="SvgjsG1248"><path id="SvgjsPath1249" d="M410.39629460883 87.31370751150902L364.10370539117 133.56650082182497" stroke="#323232" stroke-width="1" fill="none"></path></g><g id="SvgjsG1250"><path id="SvgjsPath1251" d="M410.3962946088302 321.4048846602078L364.10370539117025 275.15209134989163" stroke="#323232" stroke-width="1" fill="none"></path></g><g id="SvgjsG1252"><path id="SvgjsPath1253" d="M116.50000000000011 321.7582859848477L70.50000000000011 321.7582859848477" stroke="#323232" stroke-width="1" fill="none"></path></g><g id="SvgjsG1254"><path id="SvgjsPath1255" d="M116.5 86.96030618686876L70.5 86.96030618686859" stroke="#323232" stroke-width="1" fill="none"></path></g><g id="SvgjsG1256" transform="translate(219.8750000000001,165.87949810606023)"><path id="SvgjsPath1257" d="M 0 0L 120 0L 120 30L 0 30Z" stroke="none" fill="none"></path><g id="SvgjsG1258"><text id="SvgjsText1259" font-family="&quot;Times New Roman&quot;" text-anchor="middle" font-size="13px" width="120px" fill="#e0e0e0" font-weight="400" align="middle" lineHeight="125%" anchor="middle" family="&quot;Times New Roman&quot;" size="13px" weight="400" font-style="" opacity="1" y="4.375" transform="rotate(0)"><tspan id="SvgjsTspan1260" dy="16" x="60"><tspan id="SvgjsTspan1261" style="text-decoration:;">www.kofes.cn</tspan></tspan></text></g></g></svg>