<svg id="SvgjsSvg1006" width="709" height="220" xmlns="http://www.w3.org/2000/svg" version="1.1" xmlns:xlink="http://www.w3.org/1999/xlink" xmlns:svgjs="http://svgjs.com/svgjs"><defs id="SvgjsDefs1007"><marker id="SvgjsMarker1028" markerWidth="12" markerHeight="8" refX="9" refY="4" viewBox="0 0 12 8" orient="auto" markerUnits="userSpaceOnUse" stroke-dasharray="0,0"><path id="SvgjsPath1029" d="M0,0 L12,4 L0,8 L0,0" fill="#d1476c" stroke="#d1476c" stroke-width="1"></path></marker><marker id="SvgjsMarker1032" markerWidth="12" markerHeight="8" refX="9" refY="4" viewBox="0 0 12 8" orient="auto" markerUnits="userSpaceOnUse" stroke-dasharray="0,0"><path id="SvgjsPath1033" d="M0,0 L12,4 L0,8 L0,0" fill="#688f4e" stroke="#688f4e" stroke-width="1"></path></marker><marker id="SvgjsMarker1054" markerWidth="12" markerHeight="8" refX="9" refY="4" viewBox="0 0 12 8" orient="auto" markerUnits="userSpaceOnUse" stroke-dasharray="0,0"><path id="SvgjsPath1055" d="M0,0 L12,4 L0,8 L0,0" fill="#d1476c" stroke="#d1476c" stroke-width="1"></path></marker><marker id="SvgjsMarker1058" markerWidth="12" markerHeight="8" refX="9" refY="4" viewBox="0 0 12 8" orient="auto" markerUnits="userSpaceOnUse" stroke-dasharray="0,0"><path id="SvgjsPath1059" d="M0,0 L12,4 L0,8 L0,0" fill="#d1476c" stroke="#d1476c" stroke-width="1"></path></marker></defs><g id="SvgjsG1008" transform="translate(114.50000000000006,95.0031565656559)"><path id="SvgjsPath1009" d="M 0 0L 120 0L 120 30L 0 30Z" stroke="none" fill="none"></path><g id="SvgjsG1010"><text id="SvgjsText1011" font-family="微软雅黑" text-anchor="middle" font-size="15px" width="120px" fill="#616161" font-weight="700" align="middle" lineHeight="125%" anchor="middle" family="微软雅黑" size="15px" weight="700" font-style="" opacity="1" y="2.625" transform="rotate(0)"><tspan id="SvgjsTspan1012" dy="18" x="60"><tspan id="SvgjsTspan1013" style="text-decoration:;">贤者时刻</tspan></tspan></text></g></g><g id="SvgjsG1014" transform="translate(25,95.0031565656559)"><path id="SvgjsPath1015" d="M 0 4Q 0 0 4 0L 86 0Q 90 0 90 4L 90 26Q 90 30 86 30L 4 30Q 0 30 0 26Z" stroke="rgba(97,97,97,1)" stroke-width="1" fill-opacity="1" fill="#f6f3ee"></path><g id="SvgjsG1016"><text id="SvgjsText1017" font-family="微软雅黑" text-anchor="middle" font-size="13px" width="70px" fill="#616161" font-weight="400" align="middle" lineHeight="125%" anchor="middle" family="微软雅黑" size="13px" weight="400" font-style="" opacity="1" y="4.375" transform="rotate(0)"><tspan id="SvgjsTspan1018" dy="16" x="45"><tspan id="SvgjsTspan1019" style="text-decoration:;">负罪感</tspan></tspan></text></g></g><g id="SvgjsG1020" transform="translate(235,95.0031565656559)"><path id="SvgjsPath1021" d="M 0 4Q 0 0 4 0L 86 0Q 90 0 90 4L 90 26Q 90 30 86 30L 4 30Q 0 30 0 26Z" stroke="rgba(97,97,97,1)" stroke-width="1" fill-opacity="1" fill="#f6f3ee"></path><g id="SvgjsG1022"><text id="SvgjsText1023" font-family="微软雅黑" text-anchor="middle" font-size="13px" width="70px" fill="#616161" font-weight="400" align="middle" lineHeight="125%" anchor="middle" family="微软雅黑" size="13px" weight="400" font-style="" opacity="1" y="4.375" transform="rotate(0)"><tspan id="SvgjsTspan1024" dy="16" x="45"><tspan id="SvgjsTspan1025" style="text-decoration:;">过渡娱乐</tspan></tspan></text></g></g><g id="SvgjsG1026"><path id="SvgjsPath1027" d="M70 94.5031565656559L70 65.0031565656559L280 65.0031565656559L280 93.20315656565589" stroke="#d1476c" stroke-width="1" fill="none" marker-end="url(#SvgjsMarker1028)"></path></g><g id="SvgjsG1030"><path id="SvgjsPath1031" d="M280 125.5031565656559L280 155.0031565656559L70 155.0031565656559L70 126.80315656565591" stroke="#688f4e" stroke-width="1" fill="none" marker-end="url(#SvgjsMarker1032)"></path></g><g id="SvgjsG1034" transform="translate(473.5,95.0031565656559)"><path id="SvgjsPath1035" d="M 0 0L 120 0L 120 30L 0 30Z" stroke="none" fill="none"></path><g id="SvgjsG1036"><text id="SvgjsText1037" font-family="微软雅黑" text-anchor="middle" font-size="15px" width="120px" fill="#616161" font-weight="700" align="middle" lineHeight="125%" anchor="middle" family="微软雅黑" size="15px" weight="700" font-style="" opacity="1" y="2.625" transform="rotate(0)"><tspan id="SvgjsTspan1038" dy="18" x="60"><tspan id="SvgjsTspan1039" style="text-decoration:;">回归平庸</tspan></tspan></text></g></g><g id="SvgjsG1040" transform="translate(384,95.0031565656559)"><path id="SvgjsPath1041" d="M 0 4Q 0 0 4 0L 86 0Q 90 0 90 4L 90 26Q 90 30 86 30L 4 30Q 0 30 0 26Z" stroke="rgba(97,97,97,1)" stroke-width="1" fill-opacity="1" fill="#f6f3ee"></path><g id="SvgjsG1042"><text id="SvgjsText1043" font-family="微软雅黑" text-anchor="middle" font-size="13px" width="70px" fill="#616161" font-weight="400" align="middle" lineHeight="125%" anchor="middle" family="微软雅黑" size="13px" weight="400" font-style="" opacity="1" y="4.375" transform="rotate(0)"><tspan id="SvgjsTspan1044" dy="16" x="45"><tspan id="SvgjsTspan1045" style="text-decoration:;">改变现状</tspan></tspan></text></g></g><g id="SvgjsG1046" transform="translate(594,95.0031565656559)"><path id="SvgjsPath1047" d="M 0 4Q 0 0 4 0L 86 0Q 90 0 90 4L 90 26Q 90 30 86 30L 4 30Q 0 30 0 26Z" stroke="rgba(97,97,97,1)" stroke-width="1" fill-opacity="1" fill="#f6f3ee"></path><g id="SvgjsG1048"><text id="SvgjsText1049" font-family="微软雅黑" text-anchor="middle" font-size="13px" width="70px" fill="#616161" font-weight="400" align="middle" lineHeight="125%" anchor="middle" family="微软雅黑" size="13px" weight="400" font-style="" opacity="1" y="4.375" transform="rotate(0)"><tspan id="SvgjsTspan1050" dy="16" x="45"><tspan id="SvgjsTspan1051" style="text-decoration:;">过去成绩</tspan></tspan></text></g></g><g id="SvgjsG1052"><path id="SvgjsPath1053" d="M429 94.5031565656559L429 65.0031565656559L639 65.0031565656559L639 93.20315656565589" stroke="#d1476c" stroke-width="1" fill="none" marker-end="url(#SvgjsMarker1054)"></path></g><g id="SvgjsG1056"><path id="SvgjsPath1057" d="M639 125.5031565656559L639 156.0031565656559L429 156.0031565656559L429 126.80315656565591" stroke="#d1476c" stroke-width="1" fill="none" marker-end="url(#SvgjsMarker1058)"></path></g><g id="SvgjsG1060" transform="translate(281,65.0031565656559)"><path id="SvgjsPath1061" d="M 0 0L 30 0L 30 30L 0 30Z" stroke="none" fill="none"></path><g id="SvgjsG1062"><text id="SvgjsText1063" font-family="&quot;Times New Roman&quot;" text-anchor="middle" font-size="15px" width="30px" fill="#d1476c" font-weight="400" align="middle" lineHeight="125%" anchor="middle" family="&quot;Times New Roman&quot;" size="15px" weight="400" font-style="" opacity="1" y="2.625" transform="rotate(0)"><tspan id="SvgjsTspan1064" dy="18" x="15"><tspan id="SvgjsTspan1065" style="text-decoration:;">-</tspan></tspan></text></g></g><g id="SvgjsG1066" transform="translate(39.6666666666666,125.00315656565567)"><path id="SvgjsPath1067" d="M 0 0L 30 0L 30 30L 0 30Z" stroke="none" fill="none"></path><g id="SvgjsG1068"><text id="SvgjsText1069" font-family="&quot;Times New Roman&quot;" text-anchor="middle" font-size="15px" width="30px" fill="#688f4e" font-weight="400" align="middle" lineHeight="125%" anchor="middle" family="&quot;Times New Roman&quot;" size="15px" weight="400" font-style="" opacity="1" y="2.625" transform="rotate(0)"><tspan id="SvgjsTspan1070" dy="18" x="15"><tspan id="SvgjsTspan1071" style="text-decoration:;">+</tspan></tspan></text></g></g><g id="SvgjsG1072" transform="translate(399,125.0031565656559)"><path id="SvgjsPath1073" d="M 0 0L 30 0L 30 30L 0 30Z" stroke="none" fill="none"></path><g id="SvgjsG1074"><text id="SvgjsText1075" font-family="&quot;Times New Roman&quot;" text-anchor="middle" font-size="15px" width="30px" fill="#d1476c" font-weight="400" align="middle" lineHeight="125%" anchor="middle" family="&quot;Times New Roman&quot;" size="15px" weight="400" font-style="" opacity="1" y="2.625" transform="rotate(0)"><tspan id="SvgjsTspan1076" dy="18" x="15"><tspan id="SvgjsTspan1077" style="text-decoration:;">-</tspan></tspan></text></g></g><g id="SvgjsG1078" transform="translate(640,65.0031565656559)"><path id="SvgjsPath1079" d="M 0 0L 30 0L 30 30L 0 30Z" stroke="none" fill="none"></path><g id="SvgjsG1080"><text id="SvgjsText1081" font-family="&quot;Times New Roman&quot;" text-anchor="middle" font-size="15px" width="30px" fill="#d1476c" font-weight="400" align="middle" lineHeight="125%" anchor="middle" family="&quot;Times New Roman&quot;" size="15px" weight="400" font-style="" opacity="1" y="2.625" transform="rotate(0)"><tspan id="SvgjsTspan1082" dy="18" x="15"><tspan id="SvgjsTspan1083" style="text-decoration:;">-</tspan></tspan></text></g></g><g id="SvgjsG1084" transform="translate(443.5,25.0031565656559)"><path id="SvgjsPath1085" d="M 0 0L 180 0L 180 40L 0 40Z" stroke="none" fill="none"></path><g id="SvgjsG1086"><text id="SvgjsText1087" font-family="微软雅黑" text-anchor="middle" font-size="13px" width="180px" fill="#616161" font-weight="400" align="middle" lineHeight="125%" anchor="middle" family="微软雅黑" size="13px" weight="400" font-style="" opacity="1" y="9.375" transform="rotate(0)"><tspan id="SvgjsTspan1088" dy="16" x="90"><tspan id="SvgjsTspan1089" style="text-decoration:;">抛弃过往成绩改变现状</tspan></tspan></text></g></g><g id="SvgjsG1090" transform="translate(443.5,155.0031565656559)"><path id="SvgjsPath1091" d="M 0 0L 180 0L 180 40L 0 40Z" stroke="none" fill="none"></path><g id="SvgjsG1092"><text id="SvgjsText1093" font-family="微软雅黑" text-anchor="middle" font-size="13px" width="180px" fill="#616161" font-weight="400" align="middle" lineHeight="125%" anchor="middle" family="微软雅黑" size="13px" weight="400" font-style="" opacity="1" y="9.375" transform="rotate(0)"><tspan id="SvgjsTspan1094" dy="16" x="90"><tspan id="SvgjsTspan1095" style="text-decoration:;">过去成绩越好越不想改变现状</tspan></tspan></text></g></g><g id="SvgjsG1096" transform="translate(84.50000000000006,25.0031565656559)"><path id="SvgjsPath1097" d="M 0 0L 180 0L 180 40L 0 40Z" stroke="none" fill="none"></path><g id="SvgjsG1098"><text id="SvgjsText1099" font-family="微软雅黑" text-anchor="middle" font-size="13px" width="180px" fill="#616161" font-weight="400" align="middle" lineHeight="125%" anchor="middle" family="微软雅黑" size="13px" weight="400" font-style="" opacity="1" y="9.375" transform="rotate(0)"><tspan id="SvgjsTspan1100" dy="16" x="90"><tspan id="SvgjsTspan1101" style="text-decoration:;">制约</tspan></tspan></text></g></g><g id="SvgjsG1102" transform="translate(84.50000000000006,155.00315656565567)"><path id="SvgjsPath1103" d="M 0 0L 180 0L 180 40L 0 40Z" stroke="none" fill="none"></path><g id="SvgjsG1104"><text id="SvgjsText1105" font-family="微软雅黑" text-anchor="middle" font-size="13px" width="180px" fill="#616161" font-weight="400" align="middle" lineHeight="125%" anchor="middle" family="微软雅黑" size="13px" weight="400" font-style="" opacity="1" y="9.375" transform="rotate(0)"><tspan id="SvgjsTspan1106" dy="16" x="90"><tspan id="SvgjsTspan1107" style="text-decoration:;">增强</tspan></tspan></text></g></g><g id="SvgjsG1108" transform="translate(294,160.00315656565567)"><path id="SvgjsPath1109" d="M 0 0L 120 0L 120 30L 0 30Z" stroke="none" fill="none"></path><g id="SvgjsG1110"><text id="SvgjsText1111" font-family="&quot;Times New Roman&quot;" text-anchor="middle" font-size="13px" width="120px" fill="#e0e0e0" font-weight="400" align="middle" lineHeight="125%" anchor="middle" family="&quot;Times New Roman&quot;" size="13px" weight="400" font-style="" opacity="1" y="4.375" transform="rotate(0)"><tspan id="SvgjsTspan1112" dy="16" x="60"><tspan id="SvgjsTspan1113" style="text-decoration:;">www.kofes.cn</tspan></tspan></text></g></g></svg>