<svg id="SvgjsSvg1006" width="620" height="201" xmlns="http://www.w3.org/2000/svg" version="1.1" xmlns:xlink="http://www.w3.org/1999/xlink" xmlns:svgjs="http://svgjs.com/svgjs"><defs id="SvgjsDefs1007"><marker id="SvgjsMarker1034" markerWidth="12" markerHeight="8" refX="9" refY="4" viewBox="0 0 12 8" orient="auto" markerUnits="userSpaceOnUse" stroke-dasharray="0,0"><path id="SvgjsPath1035" d="M0,0 L12,4 L0,8 L0,0" fill="#323232" stroke="#323232" stroke-width="1"></path></marker><marker id="SvgjsMarker1050" markerWidth="12" markerHeight="8" refX="9" refY="4" viewBox="0 0 12 8" orient="auto" markerUnits="userSpaceOnUse" stroke-dasharray="0,0"><path id="SvgjsPath1051" d="M0,0 L12,4 L0,8 L0,0" fill="#323232" stroke="#323232" stroke-width="1"></path></marker><marker id="SvgjsMarker1064" markerWidth="12" markerHeight="8" refX="9" refY="4" viewBox="0 0 12 8" orient="auto" markerUnits="userSpaceOnUse" stroke-dasharray="0,0"><path id="SvgjsPath1065" d="M0,0 L12,4 L0,8 L0,0" fill="#323232" stroke="#323232" stroke-width="1"></path></marker></defs><g id="SvgjsG1008" transform="translate(25,25)"><path id="SvgjsPath1009" d="M 0 4Q 0 0 4 0L 116 0Q 120 0 120 4L 120 76Q 120 80 116 80L 4 80Q 0 80 0 76Z" stroke="rgba(50,50,50,1)" stroke-width="1" fill-opacity="1" fill="#ffffff"></path><g id="SvgjsG1010"><text id="SvgjsText1011" font-family="&quot;Times New Roman&quot;" text-anchor="middle" font-size="13px" width="100px" fill="#323232" font-weight="400" align="middle" lineHeight="125%" anchor="middle" family="&quot;Times New Roman&quot;" size="13px" weight="400" font-style="" opacity="1" y="4.875" transform="rotate(0)"><tspan id="SvgjsTspan1012" dy="16" x="60"><tspan id="SvgjsTspan1013" style="text-decoration:;">Record</tspan></tspan><tspan id="SvgjsTspan1014" dy="16" x="60"><tspan id="SvgjsTspan1015" style="text-decoration:;">TRX_ID = 3</tspan></tspan><tspan id="SvgjsTspan1016" dy="16" x="60"><tspan id="SvgjsTspan1017" style="text-decoration:;">id = 1</tspan></tspan><tspan id="SvgjsTspan1018" dy="16" x="60"><tspan id="SvgjsTspan1019" style="text-decoration:;">a = "C"</tspan></tspan></text></g></g><g id="SvgjsG1020" transform="translate(175,96)"><path id="SvgjsPath1021" d="M 0 4Q 0 0 4 0L 116 0Q 120 0 120 4L 120 76Q 120 80 116 80L 4 80Q 0 80 0 76Z" stroke="rgba(50,50,50,1)" stroke-width="1" fill-opacity="1" fill="#ffffff"></path><g id="SvgjsG1022"><text id="SvgjsText1023" font-family="&quot;Times New Roman&quot;" text-anchor="middle" font-size="13px" width="100px" fill="#323232" font-weight="400" align="middle" lineHeight="125%" anchor="middle" family="&quot;Times New Roman&quot;" size="13px" weight="400" font-style="" opacity="1" y="4.875" transform="rotate(0)"><tspan id="SvgjsTspan1024" dy="16" x="60"><tspan id="SvgjsTspan1025" style="text-decoration:;">Undo Update</tspan></tspan><tspan id="SvgjsTspan1026" dy="16" x="60"><tspan id="SvgjsTspan1027" style="text-decoration:;">TRX_ID = 2</tspan></tspan><tspan id="SvgjsTspan1028" dy="16" x="60"><tspan id="SvgjsTspan1029" style="text-decoration:;">id = 1</tspan></tspan><tspan id="SvgjsTspan1030" dy="16" x="60"><tspan id="SvgjsTspan1031" style="text-decoration:;">a = "B"</tspan></tspan></text></g></g><g id="SvgjsG1032"><path id="SvgjsPath1033" d="M85.09321294394658 105.49123451332414C 85 143.07571404451926 136.92428595548074 136 173.20021866214626 136.02805594256927" stroke="#323232" stroke-width="1" fill="none" marker-end="url(#SvgjsMarker1034)"></path></g><g id="SvgjsG1036" transform="translate(325,96)"><path id="SvgjsPath1037" d="M 0 4Q 0 0 4 0L 116 0Q 120 0 120 4L 120 76Q 120 80 116 80L 4 80Q 0 80 0 76Z" stroke="rgba(50,50,50,1)" stroke-width="1" fill-opacity="1" fill="#ffffff"></path><g id="SvgjsG1038"><text id="SvgjsText1039" font-family="&quot;Times New Roman&quot;" text-anchor="middle" font-size="13px" width="100px" fill="#323232" font-weight="400" align="middle" lineHeight="125%" anchor="middle" family="&quot;Times New Roman&quot;" size="13px" weight="400" font-style="" opacity="1" y="4.875" transform="rotate(0)"><tspan id="SvgjsTspan1040" dy="16" x="60"><tspan id="SvgjsTspan1041" style="text-decoration:;">Undo Update</tspan></tspan><tspan id="SvgjsTspan1042" dy="16" x="60"><tspan id="SvgjsTspan1043" style="text-decoration:;">TRX_ID = 1</tspan></tspan><tspan id="SvgjsTspan1044" dy="16" x="60"><tspan id="SvgjsTspan1045" style="text-decoration:;">id = 1</tspan></tspan><tspan id="SvgjsTspan1046" dy="16" x="60"><tspan id="SvgjsTspan1047" style="text-decoration:;">a = "A"</tspan></tspan></text></g></g><g id="SvgjsG1048"><path id="SvgjsPath1049" d="M295.5 136C 307 136 313 136 323.2 136" stroke="#323232" stroke-width="1" fill="none" marker-end="url(#SvgjsMarker1050)"></path></g><g id="SvgjsG1052" transform="translate(475,96)"><path id="SvgjsPath1053" d="M 0 4Q 0 0 4 0L 116 0Q 120 0 120 4L 120 76Q 120 80 116 80L 4 80Q 0 80 0 76Z" stroke="rgba(50,50,50,1)" stroke-width="1" fill-opacity="1" fill="#ffffff"></path><g id="SvgjsG1054"><text id="SvgjsText1055" font-family="&quot;Times New Roman&quot;" text-anchor="middle" font-size="13px" width="100px" fill="#323232" font-weight="400" align="middle" lineHeight="125%" anchor="middle" family="&quot;Times New Roman&quot;" size="13px" weight="400" font-style="" opacity="1" y="12.875" transform="rotate(0)"><tspan id="SvgjsTspan1056" dy="16" x="60"><tspan id="SvgjsTspan1057" style="text-decoration:;">Undo Insert</tspan></tspan><tspan id="SvgjsTspan1058" dy="16" x="60"><tspan id="SvgjsTspan1059" style="text-decoration:;">id = 1</tspan></tspan><tspan id="SvgjsTspan1060" dy="16" x="60"><tspan id="SvgjsTspan1061" style="text-decoration:;">a = "Z"</tspan></tspan></text></g></g><g id="SvgjsG1062"><path id="SvgjsPath1063" d="M445.5 136C 457 136 463 136 473.20000000000005 136" stroke="#323232" stroke-width="1" fill="none" marker-end="url(#SvgjsMarker1064)"></path></g></svg>