<svg id="SvgjsSvg1006" width="545" height="322" xmlns="http://www.w3.org/2000/svg" version="1.1" xmlns:xlink="http://www.w3.org/1999/xlink" xmlns:svgjs="http://svgjs.com/svgjs"><defs id="SvgjsDefs1007"><marker id="SvgjsMarker1088" markerWidth="16" markerHeight="12" refX="10" refY="6" viewBox="0 0 16 12" orient="auto" markerUnits="userSpaceOnUse" stroke-dasharray="0,0"><path id="SvgjsPath1089" d="M0,3 L10,6 L0,9 L0,3" fill="#323232" stroke="#323232" stroke-width="1"></path></marker><marker id="SvgjsMarker1092" markerWidth="16" markerHeight="12" refX="10" refY="6" viewBox="0 0 16 12" orient="auto" markerUnits="userSpaceOnUse" stroke-dasharray="0,0"><path id="SvgjsPath1093" d="M0,3 L10,6 L0,9 L0,3" fill="#323232" stroke="#323232" stroke-width="1"></path></marker><marker id="SvgjsMarker1096" markerWidth="16" markerHeight="12" refX="10" refY="6" viewBox="0 0 16 12" orient="auto" markerUnits="userSpaceOnUse" stroke-dasharray="0,0"><path id="SvgjsPath1097" d="M0,3 L10,6 L0,9 L0,3" fill="#323232" stroke="#323232" stroke-width="1"></path></marker><marker id="SvgjsMarker1100" markerWidth="16" markerHeight="12" refX="10" refY="6" viewBox="0 0 16 12" orient="auto" markerUnits="userSpaceOnUse" stroke-dasharray="0,0"><path id="SvgjsPath1101" d="M0,3 L10,6 L0,9 L0,3" fill="#323232" stroke="#323232" stroke-width="1"></path></marker><marker id="SvgjsMarker1104" markerWidth="16" markerHeight="12" refX="10" refY="6" viewBox="0 0 16 12" orient="auto" markerUnits="userSpaceOnUse" stroke-dasharray="0,0"><path id="SvgjsPath1105" d="M0,3 L10,6 L0,9 L0,3" fill="#323232" stroke="#323232" stroke-width="1"></path></marker><marker id="SvgjsMarker1108" markerWidth="16" markerHeight="12" refX="10" refY="6" viewBox="0 0 16 12" orient="auto" markerUnits="userSpaceOnUse" stroke-dasharray="0,0"><path id="SvgjsPath1109" d="M0,3 L10,6 L0,9 L0,3" fill="#323232" stroke="#323232" stroke-width="1"></path></marker><marker id="SvgjsMarker1112" markerWidth="16" markerHeight="12" refX="10" refY="6" viewBox="0 0 16 12" orient="auto" markerUnits="userSpaceOnUse" stroke-dasharray="0,0"><path id="SvgjsPath1113" d="M0,3 L10,6 L0,9 L0,3" fill="#323232" stroke="#323232" stroke-width="1"></path></marker><marker id="SvgjsMarker1116" markerWidth="16" markerHeight="12" refX="10" refY="6" viewBox="0 0 16 12" orient="auto" markerUnits="userSpaceOnUse" stroke-dasharray="0,0"><path id="SvgjsPath1117" d="M0,3 L10,6 L0,9 L0,3" fill="#323232" stroke="#323232" stroke-width="1"></path></marker><marker id="SvgjsMarker1120" markerWidth="16" markerHeight="12" refX="10" refY="6" viewBox="0 0 16 12" orient="auto" markerUnits="userSpaceOnUse" stroke-dasharray="0,0"><path id="SvgjsPath1121" d="M0,3 L10,6 L0,9 L0,3" fill="#323232" stroke="#323232" stroke-width="1"></path></marker><marker id="SvgjsMarker1124" markerWidth="16" markerHeight="12" refX="10" refY="6" viewBox="0 0 16 12" orient="auto" markerUnits="userSpaceOnUse" stroke-dasharray="0,0"><path id="SvgjsPath1125" d="M0,3 L10,6 L0,9 L0,3" fill="#323232" stroke="#323232" stroke-width="1"></path></marker><marker id="SvgjsMarker1128" markerWidth="16" markerHeight="12" refX="10" refY="6" viewBox="0 0 16 12" orient="auto" markerUnits="userSpaceOnUse" stroke-dasharray="0,0"><path id="SvgjsPath1129" d="M0,3 L10,6 L0,9 L0,3" fill="#323232" stroke="#323232" stroke-width="1"></path></marker><marker id="SvgjsMarker1132" markerWidth="16" markerHeight="12" refX="10" refY="6" viewBox="0 0 16 12" orient="auto" markerUnits="userSpaceOnUse" stroke-dasharray="0,0"><path id="SvgjsPath1133" d="M0,3 L10,6 L0,9 L0,3" fill="#323232" stroke="#323232" stroke-width="1"></path></marker><marker id="SvgjsMarker1136" markerWidth="16" markerHeight="12" refX="10" refY="6" viewBox="0 0 16 12" orient="auto" markerUnits="userSpaceOnUse" stroke-dasharray="0,0"><path id="SvgjsPath1137" d="M0,3 L10,6 L0,9 L0,3" fill="#323232" stroke="#323232" stroke-width="1"></path></marker><marker id="SvgjsMarker1182" markerWidth="16" markerHeight="12" refX="10" refY="6" viewBox="0 0 16 12" orient="auto" markerUnits="userSpaceOnUse" stroke-dasharray="0,0"><path id="SvgjsPath1183" d="M0,3 L10,6 L0,9 L0,3" fill="#323232" stroke="#323232" stroke-width="1"></path></marker><marker id="SvgjsMarker1186" markerWidth="16" markerHeight="12" refX="10" refY="6" viewBox="0 0 16 12" orient="auto" markerUnits="userSpaceOnUse" stroke-dasharray="0,0"><path id="SvgjsPath1187" d="M0,3 L10,6 L0,9 L0,3" fill="#323232" stroke="#323232" stroke-width="1"></path></marker><marker id="SvgjsMarker1190" markerWidth="16" markerHeight="12" refX="10" refY="6" viewBox="0 0 16 12" orient="auto" markerUnits="userSpaceOnUse" stroke-dasharray="0,0"><path id="SvgjsPath1191" d="M0,3 L10,6 L0,9 L0,3" fill="#323232" stroke="#323232" stroke-width="1"></path></marker><marker id="SvgjsMarker1194" markerWidth="16" markerHeight="12" refX="10" refY="6" viewBox="0 0 16 12" orient="auto" markerUnits="userSpaceOnUse" stroke-dasharray="0,0"><path id="SvgjsPath1195" d="M0,3 L10,6 L0,9 L0,3" fill="#323232" stroke="#323232" stroke-width="1"></path></marker><marker id="SvgjsMarker1198" markerWidth="16" markerHeight="12" refX="10" refY="6" viewBox="0 0 16 12" orient="auto" markerUnits="userSpaceOnUse" stroke-dasharray="0,0"><path id="SvgjsPath1199" d="M0,3 L10,6 L0,9 L0,3" fill="#323232" stroke="#323232" stroke-width="1"></path></marker><marker id="SvgjsMarker1202" markerWidth="16" markerHeight="12" refX="10" refY="6" viewBox="0 0 16 12" orient="auto" markerUnits="userSpaceOnUse" stroke-dasharray="0,0"><path id="SvgjsPath1203" d="M0,3 L10,6 L0,9 L0,3" fill="#323232" stroke="#323232" stroke-width="1"></path></marker></defs><g id="SvgjsG1008" transform="translate(25,25)"><path id="SvgjsPath1009" d="M 0 0L 30 0L 30 30L 0 30Z" stroke="rgba(50,50,50,1)" stroke-width="1" fill-opacity="1" fill="#ffffff"></path><g id="SvgjsG1010"><text id="SvgjsText1011" font-family="&quot;Times New Roman&quot;" text-anchor="middle" font-size="13px" width="10px" fill="#323232" font-weight="400" align="middle" lineHeight="125%" anchor="middle" family="&quot;Times New Roman&quot;" size="13px" weight="400" font-style="" opacity="1" y="5.375" transform="rotate(0)"><tspan id="SvgjsTspan1012" dy="16" x="15"><tspan id="SvgjsTspan1013" style="text-decoration:;">R</tspan></tspan></text></g></g><g id="SvgjsG1014" transform="translate(88,25)"><path id="SvgjsPath1015" d="M 0 15C 0 -5 30 -5 30 15C 30 35 0 35 0 15Z" stroke="rgba(50,50,50,1)" stroke-width="1" fill-opacity="1" fill="#ffffff"></path><g id="SvgjsG1016"><text id="SvgjsText1017" font-family="&quot;Times New Roman&quot;" text-anchor="middle" font-size="13px" width="10px" fill="#323232" font-weight="400" align="middle" lineHeight="125%" anchor="middle" family="&quot;Times New Roman&quot;" size="13px" weight="400" font-style="" opacity="1" y="5.375" transform="rotate(0)"><tspan id="SvgjsTspan1018" dy="16" x="15"><tspan id="SvgjsTspan1019" style="text-decoration:;">A</tspan></tspan></text></g></g><g id="SvgjsG1020" transform="translate(88,86)"><path id="SvgjsPath1021" d="M 0 0L 30 0L 30 30L 0 30Z" stroke="rgba(50,50,50,1)" stroke-width="1" fill-opacity="1" fill="#ffffff"></path><g id="SvgjsG1022"><text id="SvgjsText1023" font-family="&quot;Times New Roman&quot;" text-anchor="middle" font-size="13px" width="10px" fill="#323232" font-weight="400" align="middle" lineHeight="125%" anchor="middle" family="&quot;Times New Roman&quot;" size="13px" weight="400" font-style="" opacity="1" y="5.375" transform="rotate(0)"><tspan id="SvgjsTspan1024" dy="16" x="15"><tspan id="SvgjsTspan1025" style="text-decoration:;">S</tspan></tspan></text></g></g><g id="SvgjsG1026" transform="translate(25,86)"><path id="SvgjsPath1027" d="M 0 15C 0 -5 30 -5 30 15C 30 35 0 35 0 15Z" stroke="rgba(50,50,50,1)" stroke-width="1" fill-opacity="1" fill="#ffffff"></path><g id="SvgjsG1028"><text id="SvgjsText1029" font-family="&quot;Times New Roman&quot;" text-anchor="middle" font-size="13px" width="10px" fill="#323232" font-weight="400" align="middle" lineHeight="125%" anchor="middle" family="&quot;Times New Roman&quot;" size="13px" weight="400" font-style="" opacity="1" y="5.375" transform="rotate(0)"><tspan id="SvgjsTspan1030" dy="16" x="15"><tspan id="SvgjsTspan1031" style="text-decoration:;">C</tspan></tspan></text></g></g><g id="SvgjsG1032" transform="translate(88,206)"><path id="SvgjsPath1033" d="M 0 0L 30 0L 30 30L 0 30Z" stroke="rgba(50,50,50,1)" stroke-width="1" fill-opacity="1" fill="#ffffff"></path><g id="SvgjsG1034"><text id="SvgjsText1035" font-family="&quot;Times New Roman&quot;" text-anchor="middle" font-size="13px" width="10px" fill="#323232" font-weight="400" align="middle" lineHeight="125%" anchor="middle" family="&quot;Times New Roman&quot;" size="13px" weight="400" font-style="" opacity="1" y="5.375" transform="rotate(0)"><tspan id="SvgjsTspan1036" dy="16" x="15"><tspan id="SvgjsTspan1037" style="text-decoration:;">R</tspan></tspan></text></g></g><g id="SvgjsG1038" transform="translate(88,146)"><path id="SvgjsPath1039" d="M 0 15C 0 -5 30 -5 30 15C 30 35 0 35 0 15Z" stroke="rgba(50,50,50,1)" stroke-width="1" fill-opacity="1" fill="#ffffff"></path><g id="SvgjsG1040"><text id="SvgjsText1041" font-family="&quot;Times New Roman&quot;" text-anchor="middle" font-size="13px" width="10px" fill="#323232" font-weight="400" align="middle" lineHeight="125%" anchor="middle" family="&quot;Times New Roman&quot;" size="13px" weight="400" font-style="" opacity="1" y="5.375" transform="rotate(0)"><tspan id="SvgjsTspan1042" dy="16" x="15"><tspan id="SvgjsTspan1043" style="text-decoration:;">F</tspan></tspan></text></g></g><g id="SvgjsG1044" transform="translate(147,86)"><path id="SvgjsPath1045" d="M 0 15C 0 -5 30 -5 30 15C 30 35 0 35 0 15Z" stroke="rgba(50,50,50,1)" stroke-width="1" fill-opacity="1" fill="#ffe6cc"></path><g id="SvgjsG1046"><text id="SvgjsText1047" font-family="&quot;Times New Roman&quot;" text-anchor="middle" font-size="13px" width="10px" fill="#323232" font-weight="400" align="middle" lineHeight="125%" anchor="middle" family="&quot;Times New Roman&quot;" size="13px" weight="400" font-style="" opacity="1" y="5.375" transform="rotate(0)"><tspan id="SvgjsTspan1048" dy="16" x="15"><tspan id="SvgjsTspan1049" style="text-decoration:;">D</tspan></tspan></text></g></g><g id="SvgjsG1050" transform="translate(147,146)"><path id="SvgjsPath1051" d="M 0 0L 30 0L 30 30L 0 30Z" stroke="rgba(50,50,50,1)" stroke-width="1" fill-opacity="1" fill="#ffe6cc"></path><g id="SvgjsG1052"><text id="SvgjsText1053" font-family="&quot;Times New Roman&quot;" text-anchor="middle" font-size="13px" width="10px" fill="#323232" font-weight="400" align="middle" lineHeight="125%" anchor="middle" family="&quot;Times New Roman&quot;" size="13px" weight="400" font-style="" opacity="1" y="5.375" transform="rotate(0)"><tspan id="SvgjsTspan1054" dy="16" x="15"><tspan id="SvgjsTspan1055" style="text-decoration:;">U</tspan></tspan></text></g></g><g id="SvgjsG1056" transform="translate(147,206)"><path id="SvgjsPath1057" d="M 0 15C 0 -5 30 -5 30 15C 30 35 0 35 0 15Z" stroke="rgba(50,50,50,1)" stroke-width="1" fill-opacity="1" fill="#ffe6cc"></path><g id="SvgjsG1058"><text id="SvgjsText1059" font-family="&quot;Times New Roman&quot;" text-anchor="middle" font-size="13px" width="10px" fill="#323232" font-weight="400" align="middle" lineHeight="125%" anchor="middle" family="&quot;Times New Roman&quot;" size="13px" weight="400" font-style="" opacity="1" y="5.375" transform="rotate(0)"><tspan id="SvgjsTspan1060" dy="16" x="15"><tspan id="SvgjsTspan1061" style="text-decoration:;">G</tspan></tspan></text></g></g><g id="SvgjsG1062" transform="translate(207,86)"><path id="SvgjsPath1063" d="M 0 0L 30 0L 30 30L 0 30Z" stroke="rgba(50,50,50,1)" stroke-width="1" fill-opacity="1" fill="#ffe6cc"></path><g id="SvgjsG1064"><text id="SvgjsText1065" font-family="&quot;Times New Roman&quot;" text-anchor="middle" font-size="13px" width="10px" fill="#323232" font-weight="400" align="middle" lineHeight="125%" anchor="middle" family="&quot;Times New Roman&quot;" size="13px" weight="400" font-style="" opacity="1" y="5.375" transform="rotate(0)"><tspan id="SvgjsTspan1066" dy="16" x="15"><tspan id="SvgjsTspan1067" style="text-decoration:;">T</tspan></tspan></text></g></g><g id="SvgjsG1068" transform="translate(207,25)"><path id="SvgjsPath1069" d="M 0 15C 0 -5 30 -5 30 15C 30 35 0 35 0 15Z" stroke="rgba(50,50,50,1)" stroke-width="1" fill-opacity="1" fill="#ffffff"></path><g id="SvgjsG1070"><text id="SvgjsText1071" font-family="&quot;Times New Roman&quot;" text-anchor="middle" font-size="13px" width="10px" fill="#323232" font-weight="400" align="middle" lineHeight="125%" anchor="middle" family="&quot;Times New Roman&quot;" size="13px" weight="400" font-style="" opacity="1" y="5.375" transform="rotate(0)"><tspan id="SvgjsTspan1072" dy="16" x="15"><tspan id="SvgjsTspan1073" style="text-decoration:;">B</tspan></tspan></text></g></g><g id="SvgjsG1074" transform="translate(265,86)"><path id="SvgjsPath1075" d="M 0 15C 0 -5 30 -5 30 15C 30 35 0 35 0 15Z" stroke="rgba(50,50,50,1)" stroke-width="1" fill-opacity="1" fill="#ffe6cc"></path><g id="SvgjsG1076"><text id="SvgjsText1077" font-family="&quot;Times New Roman&quot;" text-anchor="middle" font-size="13px" width="10px" fill="#323232" font-weight="400" align="middle" lineHeight="125%" anchor="middle" family="&quot;Times New Roman&quot;" size="13px" weight="400" font-style="" opacity="1" y="5.375" transform="rotate(0)"><tspan id="SvgjsTspan1078" dy="16" x="15"><tspan id="SvgjsTspan1079" style="text-decoration:;">E</tspan></tspan></text></g></g><g id="SvgjsG1080" transform="translate(265,146)"><path id="SvgjsPath1081" d="M 0 0L 30 0L 30 30L 0 30Z" stroke="rgba(50,50,50,1)" stroke-width="1" fill-opacity="1" fill="#ffe6cc"></path><g id="SvgjsG1082"><text id="SvgjsText1083" font-family="&quot;Times New Roman&quot;" text-anchor="middle" font-size="13px" width="10px" fill="#323232" font-weight="400" align="middle" lineHeight="125%" anchor="middle" family="&quot;Times New Roman&quot;" size="13px" weight="400" font-style="" opacity="1" y="5.375" transform="rotate(0)"><tspan id="SvgjsTspan1084" dy="16" x="15"><tspan id="SvgjsTspan1085" style="text-decoration:;">V</tspan></tspan></text></g></g><g id="SvgjsG1086"><path id="SvgjsPath1087" d="M55 40L71.5 40L71.5 40L88 40" stroke="#323232" stroke-width="1" fill="none" marker-end="url(#SvgjsMarker1088)"></path></g><g id="SvgjsG1090"><path id="SvgjsPath1091" d="M103 55L103 70.5L103 70.5L103 86" stroke="#323232" stroke-width="1" fill="none" marker-end="url(#SvgjsMarker1092)"></path></g><g id="SvgjsG1094"><path id="SvgjsPath1095" d="M55 101L71.5 101L71.5 101L88 101" stroke="#323232" stroke-width="1" fill="none" marker-end="url(#SvgjsMarker1096)"></path></g><g id="SvgjsG1098"><path id="SvgjsPath1099" d="M147 101L132.5 101L132.5 101L118 101" stroke="#323232" stroke-width="1" fill="none" marker-end="url(#SvgjsMarker1100)"></path></g><g id="SvgjsG1102"><path id="SvgjsPath1103" d="M177 101L192 101L192 101L207 101" stroke="#323232" stroke-width="1" fill="none" marker-end="url(#SvgjsMarker1104)"></path></g><g id="SvgjsG1106"><path id="SvgjsPath1107" d="M162 146L162 131L162 131L162 116" stroke="#323232" stroke-width="1" fill="none" marker-end="url(#SvgjsMarker1108)"></path></g><g id="SvgjsG1110"><path id="SvgjsPath1111" d="M103 146L103 131L103 131L103 116" stroke="#323232" stroke-width="1" fill="none" marker-end="url(#SvgjsMarker1112)"></path></g><g id="SvgjsG1114"><path id="SvgjsPath1115" d="M103 206L103 191L103 191L103 176" stroke="#323232" stroke-width="1" fill="none" marker-end="url(#SvgjsMarker1116)"></path></g><g id="SvgjsG1118"><path id="SvgjsPath1119" d="M162 206L162 191L162 191L162 176" stroke="#323232" stroke-width="1" fill="none" marker-end="url(#SvgjsMarker1120)"></path></g><g id="SvgjsG1122"><path id="SvgjsPath1123" d="M280 176L280 221L177 221" stroke="#323232" stroke-width="1" fill="none" marker-end="url(#SvgjsMarker1124)"></path></g><g id="SvgjsG1126"><path id="SvgjsPath1127" d="M280 116L280 131L280 131L280 146" stroke="#323232" stroke-width="1" fill="none" marker-end="url(#SvgjsMarker1128)"></path></g><g id="SvgjsG1130"><path id="SvgjsPath1131" d="M237 101L251 101L251 101L265 101" stroke="#323232" stroke-width="1" fill="none" marker-end="url(#SvgjsMarker1132)"></path></g><g id="SvgjsG1134"><path id="SvgjsPath1135" d="M222 86L222 70.5L222 70.5L222 55" stroke="#323232" stroke-width="1" fill="none" marker-end="url(#SvgjsMarker1136)"></path></g><g id="SvgjsG1138" transform="translate(102,267)"><path id="SvgjsPath1139" d="M 0 0L 120 0L 120 30L 0 30Z" stroke="none" fill="none"></path><g id="SvgjsG1140"><text id="SvgjsText1141" font-family="微软雅黑" text-anchor="middle" font-size="13px" width="120px" fill="#323232" font-weight="400" align="middle" lineHeight="125%" anchor="middle" family="微软雅黑" size="13px" weight="400" font-style="" opacity="1" y="5.375" transform="rotate(0)"><tspan id="SvgjsTspan1142" dy="16" x="60"><tspan id="SvgjsTspan1143" style="text-decoration:;">(a) 资源分配图</tspan></tspan></text></g></g><g id="SvgjsG1144" transform="translate(372,83)"><path id="SvgjsPath1145" d="M 0 15C 0 -5 30 -5 30 15C 30 35 0 35 0 15Z" stroke="rgba(50,50,50,1)" stroke-width="1" fill-opacity="1" fill="#ffe6cc"></path><g id="SvgjsG1146"><text id="SvgjsText1147" font-family="&quot;Times New Roman&quot;" text-anchor="middle" font-size="13px" width="10px" fill="#323232" font-weight="400" align="middle" lineHeight="125%" anchor="middle" family="&quot;Times New Roman&quot;" size="13px" weight="400" font-style="" opacity="1" y="5.375" transform="rotate(0)"><tspan id="SvgjsTspan1148" dy="16" x="15"><tspan id="SvgjsTspan1149" style="text-decoration:;">D</tspan></tspan></text></g></g><g id="SvgjsG1150" transform="translate(372,143)"><path id="SvgjsPath1151" d="M 0 0L 30 0L 30 30L 0 30Z" stroke="rgba(50,50,50,1)" stroke-width="1" fill-opacity="1" fill="#ffe6cc"></path><g id="SvgjsG1152"><text id="SvgjsText1153" font-family="&quot;Times New Roman&quot;" text-anchor="middle" font-size="13px" width="10px" fill="#323232" font-weight="400" align="middle" lineHeight="125%" anchor="middle" family="&quot;Times New Roman&quot;" size="13px" weight="400" font-style="" opacity="1" y="5.375" transform="rotate(0)"><tspan id="SvgjsTspan1154" dy="16" x="15"><tspan id="SvgjsTspan1155" style="text-decoration:;">U</tspan></tspan></text></g></g><g id="SvgjsG1156" transform="translate(372,203)"><path id="SvgjsPath1157" d="M 0 15C 0 -5 30 -5 30 15C 30 35 0 35 0 15Z" stroke="rgba(50,50,50,1)" stroke-width="1" fill-opacity="1" fill="#ffe6cc"></path><g id="SvgjsG1158"><text id="SvgjsText1159" font-family="&quot;Times New Roman&quot;" text-anchor="middle" font-size="13px" width="10px" fill="#323232" font-weight="400" align="middle" lineHeight="125%" anchor="middle" family="&quot;Times New Roman&quot;" size="13px" weight="400" font-style="" opacity="1" y="5.375" transform="rotate(0)"><tspan id="SvgjsTspan1160" dy="16" x="15"><tspan id="SvgjsTspan1161" style="text-decoration:;">G</tspan></tspan></text></g></g><g id="SvgjsG1162" transform="translate(432,83)"><path id="SvgjsPath1163" d="M 0 0L 30 0L 30 30L 0 30Z" stroke="rgba(50,50,50,1)" stroke-width="1" fill-opacity="1" fill="#ffe6cc"></path><g id="SvgjsG1164"><text id="SvgjsText1165" font-family="&quot;Times New Roman&quot;" text-anchor="middle" font-size="13px" width="10px" fill="#323232" font-weight="400" align="middle" lineHeight="125%" anchor="middle" family="&quot;Times New Roman&quot;" size="13px" weight="400" font-style="" opacity="1" y="5.375" transform="rotate(0)"><tspan id="SvgjsTspan1166" dy="16" x="15"><tspan id="SvgjsTspan1167" style="text-decoration:;">T</tspan></tspan></text></g></g><g id="SvgjsG1168" transform="translate(490,83)"><path id="SvgjsPath1169" d="M 0 15C 0 -5 30 -5 30 15C 30 35 0 35 0 15Z" stroke="rgba(50,50,50,1)" stroke-width="1" fill-opacity="1" fill="#ffe6cc"></path><g id="SvgjsG1170"><text id="SvgjsText1171" font-family="&quot;Times New Roman&quot;" text-anchor="middle" font-size="13px" width="10px" fill="#323232" font-weight="400" align="middle" lineHeight="125%" anchor="middle" family="&quot;Times New Roman&quot;" size="13px" weight="400" font-style="" opacity="1" y="5.375" transform="rotate(0)"><tspan id="SvgjsTspan1172" dy="16" x="15"><tspan id="SvgjsTspan1173" style="text-decoration:;">E</tspan></tspan></text></g></g><g id="SvgjsG1174" transform="translate(490,143)"><path id="SvgjsPath1175" d="M 0 0L 30 0L 30 30L 0 30Z" stroke="rgba(50,50,50,1)" stroke-width="1" fill-opacity="1" fill="#ffe6cc"></path><g id="SvgjsG1176"><text id="SvgjsText1177" font-family="&quot;Times New Roman&quot;" text-anchor="middle" font-size="13px" width="10px" fill="#323232" font-weight="400" align="middle" lineHeight="125%" anchor="middle" family="&quot;Times New Roman&quot;" size="13px" weight="400" font-style="" opacity="1" y="5.375" transform="rotate(0)"><tspan id="SvgjsTspan1178" dy="16" x="15"><tspan id="SvgjsTspan1179" style="text-decoration:;">V</tspan></tspan></text></g></g><g id="SvgjsG1180"><path id="SvgjsPath1181" d="M402 98L417 98L417 98L432 98" stroke="#323232" stroke-width="1" fill="none" marker-end="url(#SvgjsMarker1182)"></path></g><g id="SvgjsG1184"><path id="SvgjsPath1185" d="M387 143L387 128L387 128L387 113" stroke="#323232" stroke-width="1" fill="none" marker-end="url(#SvgjsMarker1186)"></path></g><g id="SvgjsG1188"><path id="SvgjsPath1189" d="M387 203L387 188L387 188L387 173" stroke="#323232" stroke-width="1" fill="none" marker-end="url(#SvgjsMarker1190)"></path></g><g id="SvgjsG1192"><path id="SvgjsPath1193" d="M505 173L505 218L402 218" stroke="#323232" stroke-width="1" fill="none" marker-end="url(#SvgjsMarker1194)"></path></g><g id="SvgjsG1196"><path id="SvgjsPath1197" d="M505 113L505 128L505 128L505 143" stroke="#323232" stroke-width="1" fill="none" marker-end="url(#SvgjsMarker1198)"></path></g><g id="SvgjsG1200"><path id="SvgjsPath1201" d="M462 98L476 98L476 98L490 98" stroke="#323232" stroke-width="1" fill="none" marker-end="url(#SvgjsMarker1202)"></path></g><g id="SvgjsG1204" transform="translate(387,267)"><path id="SvgjsPath1205" d="M 0 0L 120 0L 120 30L 0 30Z" stroke="none" fill="none"></path><g id="SvgjsG1206"><text id="SvgjsText1207" font-family="微软雅黑" text-anchor="middle" font-size="13px" width="120px" fill="#323232" font-weight="400" align="middle" lineHeight="125%" anchor="middle" family="微软雅黑" size="13px" weight="400" font-style="" opacity="1" y="5.375" transform="rotate(0)"><tspan id="SvgjsTspan1208" dy="16" x="60"><tspan id="SvgjsTspan1209" style="text-decoration:;">(a) 抽取出"环"</tspan></tspan></text></g></g></svg>