<svg id="SvgjsSvg1006" width="410" height="179.5" xmlns="http://www.w3.org/2000/svg" version="1.1" xmlns:xlink="http://www.w3.org/1999/xlink" xmlns:svgjs="http://svgjs.com/svgjs"><defs id="SvgjsDefs1007"><marker id="SvgjsMarker1034" markerWidth="12" markerHeight="8" refX="9" refY="4" viewBox="0 0 12 8" orient="auto" markerUnits="userSpaceOnUse" stroke-dasharray="0,0"><path id="SvgjsPath1035" d="M0,0 L12,4 L0,8 L0,0" fill="#323232" stroke="#323232" stroke-width="1"></path></marker><marker id="SvgjsMarker1038" markerWidth="12" markerHeight="8" refX="9" refY="4" viewBox="0 0 12 8" orient="auto" markerUnits="userSpaceOnUse" stroke-dasharray="0,0"><path id="SvgjsPath1039" d="M0,0 L12,4 L0,8 L0,0" fill="#323232" stroke="#323232" stroke-width="1"></path></marker><marker id="SvgjsMarker1042" markerWidth="12" markerHeight="8" refX="9" refY="4" viewBox="0 0 12 8" orient="auto" markerUnits="userSpaceOnUse" stroke-dasharray="0,0"><path id="SvgjsPath1043" d="M0,0 L12,4 L0,8 L0,0" fill="#323232" stroke="#323232" stroke-width="1"></path></marker><marker id="SvgjsMarker1046" markerWidth="12" markerHeight="8" refX="9" refY="4" viewBox="0 0 12 8" orient="auto" markerUnits="userSpaceOnUse" stroke-dasharray="0,0"><path id="SvgjsPath1047" d="M0,0 L12,4 L0,8 L0,0" fill="#323232" stroke="#323232" stroke-width="1"></path></marker></defs><g id="SvgjsG1008" transform="translate(84.99999999999972,59.99999999999994)"><path id="SvgjsPath1009" d="M 0 0L 60 0L 60 35L 0 35Z" stroke="none" fill="none"></path><g id="SvgjsG1010"><text id="SvgjsText1011" font-family="&quot;Times New Roman&quot;" text-anchor="middle" font-size="13px" width="60px" fill="#b71c1c" font-weight="400" align="middle" lineHeight="125%" anchor="middle" family="&quot;Times New Roman&quot;" size="13px" weight="400" font-style="" opacity="1" y="6.875" transform="rotate(0)"><tspan id="SvgjsTspan1012" dy="16" x="30"><tspan id="SvgjsTspan1013" style="text-decoration:;">指令</tspan></tspan></text></g></g><g id="SvgjsG1014" transform="translate(145,25)"><path id="SvgjsPath1015" d="M 0 4Q 0 0 4 0L 116 0Q 120 0 120 4L 120 31Q 120 35 116 35L 4 35Q 0 35 0 31Z" stroke="rgba(50,50,50,1)" stroke-width="1" fill-opacity="1" fill="#ffffff"></path><g id="SvgjsG1016"><text id="SvgjsText1017" font-family="微软雅黑" text-anchor="middle" font-size="13px" width="100px" fill="#323232" font-weight="400" align="middle" lineHeight="125%" anchor="middle" family="微软雅黑" size="13px" weight="400" font-style="" opacity="1" y="6.875" transform="rotate(0)"><tspan id="SvgjsTspan1018" dy="16" x="60"><tspan id="SvgjsTspan1019" style="text-decoration:;">控制单元</tspan></tspan></text></g></g><g id="SvgjsG1020" transform="translate(25,119.5)"><path id="SvgjsPath1021" d="M 0 4Q 0 0 4 0L 116 0Q 120 0 120 4L 120 31Q 120 35 116 35L 4 35Q 0 35 0 31Z" stroke="rgba(50,50,50,1)" stroke-width="1" fill-opacity="1" fill="#ffffff"></path><g id="SvgjsG1022"><text id="SvgjsText1023" font-family="微软雅黑" text-anchor="middle" font-size="13px" width="100px" fill="#323232" font-weight="400" align="middle" lineHeight="125%" anchor="middle" family="微软雅黑" size="13px" weight="400" font-style="" opacity="1" y="6.875" transform="rotate(0)"><tspan id="SvgjsTspan1024" dy="16" x="60"><tspan id="SvgjsTspan1025" style="text-decoration:;">存储单元</tspan></tspan></text></g></g><g id="SvgjsG1026" transform="translate(265,119.5)"><path id="SvgjsPath1027" d="M 0 4Q 0 0 4 0L 116 0Q 120 0 120 4L 120 31Q 120 35 116 35L 4 35Q 0 35 0 31Z" stroke="rgba(50,50,50,1)" stroke-width="1" fill-opacity="1" fill="#ffffff"></path><g id="SvgjsG1028"><text id="SvgjsText1029" font-family="微软雅黑" text-anchor="middle" font-size="13px" width="100px" fill="#323232" font-weight="400" align="middle" lineHeight="125%" anchor="middle" family="微软雅黑" size="13px" weight="400" font-style="" opacity="1" y="6.875" transform="rotate(0)"><tspan id="SvgjsTspan1030" dy="16" x="60"><tspan id="SvgjsTspan1031" style="text-decoration:;">运算单元</tspan></tspan></text></g></g><g id="SvgjsG1032"><path id="SvgjsPath1033" d="M144.5 42.5L85 42.5L85 117.69999999999999" stroke="#323232" stroke-width="1" fill="none" marker-end="url(#SvgjsMarker1034)"></path></g><g id="SvgjsG1036"><path id="SvgjsPath1037" d="M265.5 42.5L325 42.5L325 117.69999999999999" stroke="#323232" stroke-width="1" fill="none" marker-end="url(#SvgjsMarker1038)"></path></g><g id="SvgjsG1040"><path id="SvgjsPath1041" d="M144.96153846153845 129.84615384615384L204.8461538461538 129.84615384615384L204.8461538461538 129.84615384615384L263.4307692307692 129.84615384615384" stroke="#323232" stroke-width="1" fill="none" marker-end="url(#SvgjsMarker1042)"></path></g><g id="SvgjsG1044"><path id="SvgjsPath1045" d="M264.71320629888487 144.82851195654928L204.8388359578687 144.82851195654928L204.8388359578687 144.82851195654928L146.26446561685248 144.82851195654928" stroke="#323232" stroke-width="1" fill="none" marker-end="url(#SvgjsMarker1046)"></path></g><g id="SvgjsG1048" transform="translate(264.9999999999999,59.999999999999886)"><path id="SvgjsPath1049" d="M 0 0L 60 0L 60 35L 0 35Z" stroke="none" fill="none"></path><g id="SvgjsG1050"><text id="SvgjsText1051" font-family="&quot;Times New Roman&quot;" text-anchor="middle" font-size="13px" width="60px" fill="#b71c1c" font-weight="400" align="middle" lineHeight="125%" anchor="middle" family="&quot;Times New Roman&quot;" size="13px" weight="400" font-style="" opacity="1" y="6.875" transform="rotate(0)"><tspan id="SvgjsTspan1052" dy="16" x="30"><tspan id="SvgjsTspan1053" style="text-decoration:;">指令</tspan></tspan></text></g></g><g id="SvgjsG1054" transform="translate(175,94.99999999999986)"><path id="SvgjsPath1055" d="M 0 0L 60 0L 60 35L 0 35Z" stroke="none" fill="none"></path><g id="SvgjsG1056"><text id="SvgjsText1057" font-family="&quot;Times New Roman&quot;" text-anchor="middle" font-size="13px" width="60px" fill="#4caf50" font-weight="400" align="middle" lineHeight="125%" anchor="middle" family="&quot;Times New Roman&quot;" size="13px" weight="400" font-style="" opacity="1" y="6.875" transform="rotate(0)"><tspan id="SvgjsTspan1058" dy="16" x="30"><tspan id="SvgjsTspan1059" style="text-decoration:;">数据</tspan></tspan></text></g></g></svg>