<svg id="SvgjsSvg1144" width="582" height="470.671875" xmlns="http://www.w3.org/2000/svg" version="1.1" xmlns:xlink="http://www.w3.org/1999/xlink" xmlns:svgjs="http://svgjs.com/svgjs"><defs id="SvgjsDefs1145"><marker id="SvgjsMarker1204" markerWidth="12" markerHeight="8" refX="9" refY="4" viewBox="0 0 12 8" orient="auto" markerUnits="userSpaceOnUse" stroke-dasharray="0,0"><path id="SvgjsPath1205" d="M0,0 L12,4 L0,8 L0,0" fill="#323232" stroke="#323232" stroke-width="1"></path></marker><marker id="SvgjsMarker1208" markerWidth="12" markerHeight="8" refX="9" refY="4" viewBox="0 0 12 8" orient="auto" markerUnits="userSpaceOnUse" stroke-dasharray="0,0"><path id="SvgjsPath1209" d="M0,0 L12,4 L0,8 L0,0" fill="#323232" stroke="#323232" stroke-width="1"></path></marker><marker id="SvgjsMarker1212" markerWidth="12" markerHeight="8" refX="9" refY="4" viewBox="0 0 12 8" orient="auto" markerUnits="userSpaceOnUse" stroke-dasharray="0,0"><path id="SvgjsPath1213" d="M0,0 L12,4 L0,8 L0,0" fill="#212121" stroke="#212121" stroke-width="1"></path></marker><marker id="SvgjsMarker1216" markerWidth="12" markerHeight="8" refX="9" refY="4" viewBox="0 0 12 8" orient="auto" markerUnits="userSpaceOnUse" stroke-dasharray="0,0"><path id="SvgjsPath1217" d="M0,0 L12,4 L0,8 L0,0" fill="#212121" stroke="#212121" stroke-width="1"></path></marker><marker id="SvgjsMarker1220" markerWidth="12" markerHeight="8" refX="9" refY="4" viewBox="0 0 12 8" orient="auto" markerUnits="userSpaceOnUse" stroke-dasharray="0,0"><path id="SvgjsPath1221" d="M0,0 L12,4 L0,8 L0,0" fill="#212121" stroke="#212121" stroke-width="1"></path></marker><marker id="SvgjsMarker1224" markerWidth="12" markerHeight="8" refX="3" refY="4" viewBox="0 0 12 8" orient="auto" markerUnits="userSpaceOnUse" stroke-dasharray="0,0"><path id="SvgjsPath1225" d="M12,0 L0,4 L12,8 L12,0" fill="#b71c1c" stroke="#b71c1c" stroke-width="1"></path></marker><marker id="SvgjsMarker1226" markerWidth="12" markerHeight="8" refX="9" refY="4" viewBox="0 0 12 8" orient="auto" markerUnits="userSpaceOnUse" stroke-dasharray="0,0"><path id="SvgjsPath1227" d="M0,0 L12,4 L0,8 L0,0" fill="#b71c1c" stroke="#b71c1c" stroke-width="1"></path></marker><marker id="SvgjsMarker1230" markerWidth="12" markerHeight="8" refX="9" refY="4" viewBox="0 0 12 8" orient="auto" markerUnits="userSpaceOnUse" stroke-dasharray="0,0"><path id="SvgjsPath1231" d="M0,0 L12,4 L0,8 L0,0" fill="#4caf50" stroke="#4caf50" stroke-width="1"></path></marker><marker id="SvgjsMarker1234" markerWidth="12" markerHeight="8" refX="9" refY="4" viewBox="0 0 12 8" orient="auto" markerUnits="userSpaceOnUse" stroke-dasharray="0,0"><path id="SvgjsPath1235" d="M0,0 L12,4 L0,8 L0,0" fill="#4caf50" stroke="#4caf50" stroke-width="1"></path></marker><marker id="SvgjsMarker1238" markerWidth="12" markerHeight="8" refX="9" refY="4" viewBox="0 0 12 8" orient="auto" markerUnits="userSpaceOnUse" stroke-dasharray="0,0"><path id="SvgjsPath1239" d="M0,0 L12,4 L0,8 L0,0" fill="#4caf50" stroke="#4caf50" stroke-width="1"></path></marker><marker id="SvgjsMarker1242" markerWidth="12" markerHeight="8" refX="3" refY="4" viewBox="0 0 12 8" orient="auto" markerUnits="userSpaceOnUse" stroke-dasharray="0,0"><path id="SvgjsPath1243" d="M12,0 L0,4 L12,8 L12,0" fill="#4caf50" stroke="#4caf50" stroke-width="1"></path></marker><marker id="SvgjsMarker1244" markerWidth="12" markerHeight="8" refX="9" refY="4" viewBox="0 0 12 8" orient="auto" markerUnits="userSpaceOnUse" stroke-dasharray="0,0"><path id="SvgjsPath1245" d="M0,0 L12,4 L0,8 L0,0" fill="#4caf50" stroke="#4caf50" stroke-width="1"></path></marker><marker id="SvgjsMarker1248" markerWidth="12" markerHeight="8" refX="9" refY="4" viewBox="0 0 12 8" orient="auto" markerUnits="userSpaceOnUse" stroke-dasharray="0,0"><path id="SvgjsPath1249" d="M0,0 L12,4 L0,8 L0,0" fill="#323232" stroke="#323232" stroke-width="1"></path></marker><marker id="SvgjsMarker1258" markerWidth="12" markerHeight="8" refX="9" refY="4" viewBox="0 0 12 8" orient="auto" markerUnits="userSpaceOnUse" stroke-dasharray="0,0"><path id="SvgjsPath1259" d="M0,0 L12,4 L0,8 L0,0" fill="#4caf50" stroke="#4caf50" stroke-width="1"></path></marker><marker id="SvgjsMarker1268" markerWidth="12" markerHeight="8" refX="9" refY="4" viewBox="0 0 12 8" orient="auto" markerUnits="userSpaceOnUse" stroke-dasharray="0,0"><path id="SvgjsPath1269" d="M0,0 L12,4 L0,8 L0,0" fill="#b71c1c" stroke="#b71c1c" stroke-width="1"></path></marker></defs><g id="SvgjsG1146" transform="translate(101.94444444444451,410.6718749999995)"><path id="SvgjsPath1147" d="M 0 0L 60 0L 60 35L 0 35Z" stroke="none" fill="none"></path><g id="SvgjsG1148"><text id="SvgjsText1149" font-family="&quot;Times New Roman&quot;" text-anchor="middle" font-size="13px" width="60px" fill="#323232" font-weight="400" align="middle" lineHeight="125%" anchor="middle" family="&quot;Times New Roman&quot;" size="13px" weight="400" font-style="" opacity="1" y="6.875" transform="rotate(0)"><tspan id="SvgjsTspan1150" dy="16" x="30"><tspan id="SvgjsTspan1151" style="text-decoration:;">控制</tspan></tspan></text></g></g><g id="SvgjsG1152" transform="translate(25.000000000000114,25.005208333333385)"><path id="SvgjsPath1153" d="M 0 0L 532 0L 532 165L 0 165Z" stroke="rgba(50,50,50,1)" stroke-width="1" fill="none"></path><g id="SvgjsG1154"><text id="SvgjsText1155" font-family="微软雅黑" text-anchor="middle" font-size="13px" width="512px" fill="#323232" font-weight="400" align="middle" lineHeight="125%" anchor="middle" family="微软雅黑" size="13px" weight="400" font-style="" opacity="1" y="71.875" transform="rotate(0)"></text></g></g><g id="SvgjsG1156" transform="translate(51.00000000000014,54.00520833333323)"><path id="SvgjsPath1157" d="M 0 4Q 0 0 4 0L 116 0Q 120 0 120 4L 120 31Q 120 35 116 35L 4 35Q 0 35 0 31Z" stroke="rgba(50,50,50,1)" stroke-width="1" fill-opacity="1" fill="#cce5ff"></path><g id="SvgjsG1158"><text id="SvgjsText1159" font-family="微软雅黑" text-anchor="middle" font-size="13px" width="100px" fill="#323232" font-weight="400" align="middle" lineHeight="125%" anchor="middle" family="微软雅黑" size="13px" weight="400" font-style="" opacity="1" y="6.875" transform="rotate(0)"><tspan id="SvgjsTspan1160" dy="16" x="60"><tspan id="SvgjsTspan1161" style="text-decoration:;">输入设备</tspan></tspan></text></g></g><g id="SvgjsG1162" transform="translate(231,54.00520833333323)"><path id="SvgjsPath1163" d="M 0 4Q 0 0 4 0L 116 0Q 120 0 120 4L 120 31Q 120 35 116 35L 4 35Q 0 35 0 31Z" stroke="rgba(50,50,50,1)" stroke-width="1" fill-opacity="1" fill="#cce5ff"></path><g id="SvgjsG1164"><text id="SvgjsText1165" font-family="微软雅黑" text-anchor="middle" font-size="13px" width="100px" fill="#323232" font-weight="400" align="middle" lineHeight="125%" anchor="middle" family="微软雅黑" size="13px" weight="400" font-style="" opacity="1" y="6.875" transform="rotate(0)"><tspan id="SvgjsTspan1166" dy="16" x="60"><tspan id="SvgjsTspan1167" style="text-decoration:;">存储器</tspan></tspan></text></g></g><g id="SvgjsG1168" transform="translate(410.99999999999966,54.00520833333323)"><path id="SvgjsPath1169" d="M 0 4Q 0 0 4 0L 116 0Q 120 0 120 4L 120 31Q 120 35 116 35L 4 35Q 0 35 0 31Z" stroke="rgba(50,50,50,1)" stroke-width="1" fill-opacity="1" fill="#cce5ff"></path><g id="SvgjsG1170"><text id="SvgjsText1171" font-family="微软雅黑" text-anchor="middle" font-size="13px" width="100px" fill="#323232" font-weight="400" align="middle" lineHeight="125%" anchor="middle" family="微软雅黑" size="13px" weight="400" font-style="" opacity="1" y="6.875" transform="rotate(0)"><tspan id="SvgjsTspan1172" dy="16" x="60"><tspan id="SvgjsTspan1173" style="text-decoration:;">输出设备</tspan></tspan></text></g></g><g id="SvgjsG1174" transform="translate(231,124.00520833333323)"><path id="SvgjsPath1175" d="M 0 4Q 0 0 4 0L 116 0Q 120 0 120 4L 120 31Q 120 35 116 35L 4 35Q 0 35 0 31Z" stroke="rgba(50,50,50,1)" stroke-width="1" fill-opacity="1" fill="#ffffff"></path><g id="SvgjsG1176"><text id="SvgjsText1177" font-family="微软雅黑" text-anchor="middle" font-size="13px" width="100px" fill="#323232" font-weight="400" align="middle" lineHeight="125%" anchor="middle" family="微软雅黑" size="13px" weight="400" font-style="" opacity="1" y="6.875" transform="rotate(0)"><tspan id="SvgjsTspan1178" dy="16" x="60"><tspan id="SvgjsTspan1179" style="text-decoration:;">辅助存储器</tspan></tspan></text></g></g><g id="SvgjsG1180" transform="translate(25.000000000000114,227.00520833333331)"><path id="SvgjsPath1181" d="M 0 0L 532 0L 532 165L 0 165Z" stroke="rgba(50,50,50,1)" stroke-width="1" fill="none"></path><g id="SvgjsG1182"><text id="SvgjsText1183" font-family="微软雅黑" text-anchor="middle" font-size="13px" width="512px" fill="#323232" font-weight="400" align="middle" lineHeight="125%" anchor="middle" family="微软雅黑" size="13px" weight="400" font-style="" opacity="1" y="71.875" transform="rotate(0)"></text></g></g><g id="SvgjsG1184" transform="translate(231,258.0052083333332)"><path id="SvgjsPath1185" d="M 0 4Q 0 0 4 0L 116 0Q 120 0 120 4L 120 31Q 120 35 116 35L 4 35Q 0 35 0 31Z" stroke="rgba(50,50,50,1)" stroke-width="1" fill-opacity="1" fill="#ffffff"></path><g id="SvgjsG1186"><text id="SvgjsText1187" font-family="微软雅黑" text-anchor="middle" font-size="13px" width="100px" fill="#323232" font-weight="400" align="middle" lineHeight="125%" anchor="middle" family="微软雅黑" size="13px" weight="400" font-style="" opacity="1" y="6.875" transform="rotate(0)"><tspan id="SvgjsTspan1188" dy="16" x="60"><tspan id="SvgjsTspan1189" style="text-decoration:;">主存储器</tspan></tspan></text></g></g><g id="SvgjsG1190" transform="translate(138.9999999999999,328.0052083333332)"><path id="SvgjsPath1191" d="M 0 4Q 0 0 4 0L 116 0Q 120 0 120 4L 120 31Q 120 35 116 35L 4 35Q 0 35 0 31Z" stroke="rgba(50,50,50,1)" stroke-width="1" fill-opacity="1" fill="#ffe6cc"></path><g id="SvgjsG1192"><text id="SvgjsText1193" font-family="微软雅黑" text-anchor="middle" font-size="13px" width="100px" fill="#323232" font-weight="400" align="middle" lineHeight="125%" anchor="middle" family="微软雅黑" size="13px" weight="400" font-style="" opacity="1" y="6.875" transform="rotate(0)"><tspan id="SvgjsTspan1194" dy="16" x="60"><tspan id="SvgjsTspan1195" style="text-decoration:;">运算器</tspan></tspan></text></g></g><g id="SvgjsG1196" transform="translate(324.9999999999998,328.0052083333332)"><path id="SvgjsPath1197" d="M 0 4Q 0 0 4 0L 116 0Q 120 0 120 4L 120 31Q 120 35 116 35L 4 35Q 0 35 0 31Z" stroke="rgba(50,50,50,1)" stroke-width="1" fill-opacity="1" fill="#ffe6cc"></path><g id="SvgjsG1198"><text id="SvgjsText1199" font-family="微软雅黑" text-anchor="middle" font-size="13px" width="100px" fill="#323232" font-weight="400" align="middle" lineHeight="125%" anchor="middle" family="微软雅黑" size="13px" weight="400" font-style="" opacity="1" y="6.875" transform="rotate(0)"><tspan id="SvgjsTspan1200" dy="16" x="60"><tspan id="SvgjsTspan1201" style="text-decoration:;">控制器</tspan></tspan></text></g></g><g id="SvgjsG1202"><path id="SvgjsPath1203" d="M324.4999999999998 345.5052083333332L291.9999999999997 345.5052083333332L291.9999999999997 345.5052083333332L260.79999999999967 345.5052083333332" stroke="#323232" stroke-width="1" fill="none" marker-end="url(#SvgjsMarker1204)"></path></g><g id="SvgjsG1206"><path id="SvgjsPath1207" d="M445.49999999999966 345.5052083333332L470.99999999999966 345.5052083333332L470.99999999999966 90.80520833333324" stroke="#323232" stroke-width="1" fill="none" marker-end="url(#SvgjsMarker1208)"></path></g><g id="SvgjsG1210"><path id="SvgjsPath1211" d="M384.9999999999999 363.5052083333332L384.9999999999999 377.0052083333332L111.00000000000006 377.0052083333332L111.00000000000006 90.80520833333324" stroke="#212121" stroke-width="1" fill="none" marker-end="url(#SvgjsMarker1212)"></path></g><g id="SvgjsG1214"><path id="SvgjsPath1215" d="M384.9999999999999 327.5052083333332L384.9999999999999 275.5052083333332L352.79999999999995 275.5052083333332" stroke="#212121" stroke-width="1" fill="none" marker-end="url(#SvgjsMarker1216)"></path></g><g id="SvgjsG1218"><path id="SvgjsPath1219" d="M384.9999999999999 327.5052083333332L384.9999999999999 71.50520833333326L352.79999999999995 71.50520833333326" stroke="#212121" stroke-width="1" fill="none" marker-end="url(#SvgjsMarker1220)"></path></g><g id="SvgjsG1222"><path id="SvgjsPath1223" d="M323.6285714285712 336.1480654761905L290.99999999999983 336.1480654761905L290.99999999999983 294.8052083333332" stroke="#b71c1c" stroke-width="1" fill="none" marker-start="url(#SvgjsMarker1224)" marker-end="url(#SvgjsMarker1226)"></path></g><g id="SvgjsG1228"><path id="SvgjsPath1229" d="M198.99999999999983 327.5052083333332L198.99999999999983 150.295107616705L229.8984631039295 150.295107616705" stroke="#4caf50" stroke-width="1" fill="none" marker-end="url(#SvgjsMarker1230)"></path></g><g id="SvgjsG1232"><path id="SvgjsPath1233" d="M171.5 71.50520833333326L199.23076923076928 71.50520833333326L199.23076923076928 134.2616185897436L229.2512820512821 134.2616185897436" stroke="#4caf50" stroke-width="1" fill="none" marker-end="url(#SvgjsMarker1234)"></path></g><g id="SvgjsG1236"><path id="SvgjsPath1237" d="M351.5 141.50520833333323L436.99999999999966 141.50520833333323L436.99999999999966 90.80520833333335" stroke="#4caf50" stroke-width="1" fill="none" marker-end="url(#SvgjsMarker1238)"></path></g><g id="SvgjsG1240"><path id="SvgjsPath1241" d="M291 122.20520833333322L291 106.50520833333323L291 106.50520833333323L291 90.80520833333324" stroke="#4caf50" stroke-width="1" fill="none" marker-start="url(#SvgjsMarker1242)" marker-end="url(#SvgjsMarker1244)"></path></g><g id="SvgjsG1246"><path id="SvgjsPath1247" d="M60.05555555555557 428.4496527777776L81 428.4496527777776L81 428.4496527777776L99.6444444444445 428.4496527777776" stroke="#323232" stroke-width="1" fill="none" marker-end="url(#SvgjsMarker1248)"></path></g><g id="SvgjsG1250" transform="translate(281.9444444444445,410.6718749999995)"><path id="SvgjsPath1251" d="M 0 0L 60 0L 60 35L 0 35Z" stroke="none" fill="none"></path><g id="SvgjsG1252"><text id="SvgjsText1253" font-family="&quot;Times New Roman&quot;" text-anchor="middle" font-size="13px" width="60px" fill="#4caf50" font-weight="400" align="middle" lineHeight="125%" anchor="middle" family="&quot;Times New Roman&quot;" size="13px" weight="400" font-style="" opacity="1" y="6.875" transform="rotate(0)"><tspan id="SvgjsTspan1254" dy="16" x="30"><tspan id="SvgjsTspan1255" style="text-decoration:;">数据</tspan></tspan></text></g></g><g id="SvgjsG1256"><path id="SvgjsPath1257" d="M240.0555555555555 428.4496527777777L261 428.4496527777777L261 428.4496527777776L279.6444444444445 428.4496527777776" stroke="#4caf50" stroke-width="1" fill="none" marker-end="url(#SvgjsMarker1258)"></path></g><g id="SvgjsG1260" transform="translate(467.5555555555553,410.6718749999995)"><path id="SvgjsPath1261" d="M 0 0L 60 0L 60 35L 0 35Z" stroke="none" fill="none"></path><g id="SvgjsG1262"><text id="SvgjsText1263" font-family="&quot;Times New Roman&quot;" text-anchor="middle" font-size="13px" width="60px" fill="#b71c1c" font-weight="400" align="middle" lineHeight="125%" anchor="middle" family="&quot;Times New Roman&quot;" size="13px" weight="400" font-style="" opacity="1" y="6.875" transform="rotate(0)"><tspan id="SvgjsTspan1264" dy="16" x="30"><tspan id="SvgjsTspan1265" style="text-decoration:;">地址/指令</tspan></tspan></text></g></g><g id="SvgjsG1266"><path id="SvgjsPath1267" d="M414.44444444444423 428.4496527777776L434.44444444444423 428.4496527777776L434.44444444444423 428.4496527777776L454.44444444444423 428.4496527777776" stroke="#b71c1c" stroke-width="1" fill="none" marker-end="url(#SvgjsMarker1268)"></path></g><g id="SvgjsG1270" transform="translate(25.000000000000114,154.83854166666657)"><path id="SvgjsPath1271" d="M 0 0L 60 0L 60 35L 0 35Z" stroke="none" fill="none"></path><g id="SvgjsG1272"><text id="SvgjsText1273" font-family="微软雅黑" text-anchor="middle" font-size="13px" width="60px" fill="#323232" font-weight="400" align="middle" lineHeight="125%" anchor="middle" family="微软雅黑" size="13px" weight="400" font-style="" opacity="1" y="6.875" transform="rotate(0)"><tspan id="SvgjsTspan1274" dy="16" x="30"><tspan id="SvgjsTspan1275" style="text-decoration:;">外设</tspan></tspan></text></g></g><g id="SvgjsG1276" transform="translate(25.000000000000085,357.06076388888874)"><path id="SvgjsPath1277" d="M 0 0L 60 0L 60 35L 0 35Z" stroke="none" fill="none"></path><g id="SvgjsG1278"><text id="SvgjsText1279" font-family="微软雅黑" text-anchor="middle" font-size="13px" width="60px" fill="#323232" font-weight="400" align="middle" lineHeight="125%" anchor="middle" family="微软雅黑" size="13px" weight="400" font-style="" opacity="1" y="6.875" transform="rotate(0)"><tspan id="SvgjsTspan1280" dy="16" x="30"><tspan id="SvgjsTspan1281" style="text-decoration:;">主机</tspan></tspan></text></g></g></svg>