<svg id="SvgjsSvg1006" width="530" height="353" xmlns="http://www.w3.org/2000/svg" version="1.1" xmlns:xlink="http://www.w3.org/1999/xlink" xmlns:svgjs="http://svgjs.com/svgjs"><defs id="SvgjsDefs1007"><marker id="SvgjsMarker1039" markerWidth="16" markerHeight="12" refX="10" refY="6" viewBox="0 0 16 12" orient="auto" markerUnits="userSpaceOnUse" stroke-dasharray="0,0"><path id="SvgjsPath1040" d="M0,3 L10,6 L0,9 L0,3" fill="#323232" stroke="#323232" stroke-width="1"></path></marker><marker id="SvgjsMarker1043" markerWidth="16" markerHeight="12" refX="10" refY="6" viewBox="0 0 16 12" orient="auto" markerUnits="userSpaceOnUse" stroke-dasharray="0,0"><path id="SvgjsPath1044" d="M0,3 L10,6 L0,9 L0,3" fill="#323232" stroke="#323232" stroke-width="1"></path></marker><marker id="SvgjsMarker1047" markerWidth="16" markerHeight="12" refX="10" refY="6" viewBox="0 0 16 12" orient="auto" markerUnits="userSpaceOnUse" stroke-dasharray="0,0"><path id="SvgjsPath1048" d="M0,3 L10,6 L0,9 L0,3" fill="#323232" stroke="#323232" stroke-width="1"></path></marker><marker id="SvgjsMarker1071" markerWidth="16" markerHeight="12" refX="10" refY="6" viewBox="0 0 16 12" orient="auto" markerUnits="userSpaceOnUse" stroke-dasharray="0,0"><path id="SvgjsPath1072" d="M0,3 L10,6 L0,9 L0,3" fill="#323232" stroke="#323232" stroke-width="1"></path></marker><marker id="SvgjsMarker1075" markerWidth="16" markerHeight="12" refX="10" refY="6" viewBox="0 0 16 12" orient="auto" markerUnits="userSpaceOnUse" stroke-dasharray="0,0"><path id="SvgjsPath1076" d="M0,3 L10,6 L0,9 L0,3" fill="#323232" stroke="#323232" stroke-width="1"></path></marker><marker id="SvgjsMarker1083" markerWidth="16" markerHeight="12" refX="10" refY="6" viewBox="0 0 16 12" orient="auto" markerUnits="userSpaceOnUse" stroke-dasharray="0,0"><path id="SvgjsPath1084" d="M0,3 L10,6 L0,9 L0,3" fill="#323232" stroke="#323232" stroke-width="1"></path></marker></defs><g id="SvgjsG1008" transform="translate(25,102)"><path id="SvgjsPath1009" d="M 0 4Q 0 0 4 0L 116 0Q 120 0 120 4L 120 176Q 120 180 116 180L 4 180Q 0 180 0 176Z" stroke="rgba(50,50,50,1)" stroke-width="1" fill-opacity="1" fill="#ffffff"></path><g id="SvgjsG1010"><text id="SvgjsText1011" font-family="微软雅黑" text-anchor="middle" font-size="13px" width="100px" fill="#323232" font-weight="400" align="middle" lineHeight="125%" anchor="middle" family="微软雅黑" size="13px" weight="400" font-style="" opacity="1" y="80.375" transform="rotate(0)"></text></g></g><g id="SvgjsG1012" transform="translate(45,125)"><path id="SvgjsPath1013" d="M 0 4Q 0 0 4 0L 76 0Q 80 0 80 4L 80 26Q 80 30 76 30L 4 30Q 0 30 0 26Z" stroke="rgba(50,50,50,1)" stroke-width="1" fill-opacity="1" fill="#cce5ff"></path><g id="SvgjsG1014"><text id="SvgjsText1015" font-family="微软雅黑" text-anchor="middle" font-size="13px" width="60px" fill="#323232" font-weight="400" align="middle" lineHeight="125%" anchor="middle" family="微软雅黑" size="13px" weight="400" font-style="" opacity="1" y="5.375" transform="rotate(0)"><tspan id="SvgjsTspan1016" dy="16" x="40"><tspan id="SvgjsTspan1017" style="text-decoration:;">S:=S-1</tspan></tspan></text></g></g><g id="SvgjsG1018" transform="translate(45,209)"><path id="SvgjsPath1019" d="M 0 15L 40 0L 80 15L 40 30Z" stroke="rgba(50,50,50,1)" stroke-width="1" fill-opacity="1" fill="#ffe6cc"></path><g id="SvgjsG1020"><text id="SvgjsText1021" font-family="微软雅黑" text-anchor="middle" font-size="13px" width="60px" fill="#323232" font-weight="400" align="middle" lineHeight="125%" anchor="middle" family="微软雅黑" size="13px" weight="400" font-style="" opacity="1" y="5.525" transform="rotate(0)"><tspan id="SvgjsTspan1022" dy="16" x="40"><tspan id="SvgjsTspan1023" style="text-decoration:;">S&lt;0</tspan></tspan></text></g></g><g id="SvgjsG1024" transform="translate(207,102)"><path id="SvgjsPath1025" d="M0 0L120 0L120 20 L0 20Z" stroke="rgba(102, 102, 102,1)" stroke-width="1" fill-opacity="1" fill="#ffffff"></path><path id="SvgjsPath1026" d="M0 20L120 20L120 40 L0 40Z" stroke="rgba(102, 102, 102,1)" stroke-width="1" fill-opacity="1" fill="#ffffff"></path><path id="SvgjsPath1027" d="M0 40L120 40L120 60 L0 60Z" stroke="rgba(102, 102, 102,1)" stroke-width="1" fill-opacity="1" fill="#ffffff"></path><path id="SvgjsPath1028" d="M0 60L120 60L120 80 L0 80Z" stroke="rgba(102, 102, 102,1)" stroke-width="1" fill-opacity="1" fill="#ffffff"></path><g id="SvgjsG1029"><text id="SvgjsText1030" font-family="微软雅黑" text-anchor="middle" font-size="16px" width="120px" fill="#323232" font-weight="400" align="middle" lineHeight="125%" anchor="middle" family="微软雅黑" size="16px" weight="400" font-style="" opacity="1" y="-2" transform="rotate(0)"></text></g><g id="SvgjsG1031"><text id="SvgjsText1032" font-family="微软雅黑" text-anchor="middle" font-size="16px" width="120px" fill="#323232" font-weight="400" align="middle" lineHeight="125%" anchor="middle" family="微软雅黑" size="16px" weight="400" font-style="" opacity="1" y="18" transform="rotate(0)"></text></g><g id="SvgjsG1033"><text id="SvgjsText1034" font-family="微软雅黑" text-anchor="middle" font-size="16px" width="120px" fill="#323232" font-weight="400" align="middle" lineHeight="125%" anchor="middle" family="微软雅黑" size="16px" weight="400" font-style="" opacity="1" y="38" transform="rotate(0)"></text></g><g id="SvgjsG1035"><text id="SvgjsText1036" font-family="微软雅黑" text-anchor="middle" font-size="16px" width="120px" fill="#323232" font-weight="400" align="middle" lineHeight="125%" anchor="middle" family="微软雅黑" size="16px" weight="400" font-style="" opacity="1" y="58" transform="rotate(0)"></text></g></g><g id="SvgjsG1037"><path id="SvgjsPath1038" d="M85 155L85 182L85 182L85 209" stroke="#323232" stroke-width="1" fill="none" marker-end="url(#SvgjsMarker1039)"></path></g><g id="SvgjsG1041"><path id="SvgjsPath1042" d="M125 224L267 224L267 182" stroke="#323232" stroke-width="1" fill="none" marker-end="url(#SvgjsMarker1043)"></path></g><g id="SvgjsG1045"><path id="SvgjsPath1046" d="M85 239L85 268.5L87 268.5L87 298" stroke="#323232" stroke-width="1" fill="none" marker-end="url(#SvgjsMarker1047)"></path><rect id="SvgjsRect1049" width="7" height="16" x="82.5" y="260.5" fill="#ffffff"></rect><text id="SvgjsText1050" font-family="微软雅黑" text-anchor="middle" font-size="13px" width="7px" fill="#323232" font-weight="400" align="top" lineHeight="16px" anchor="middle" family="微软雅黑" size="13px" weight="400" font-style="" opacity="1" y="258.875" transform="rotate(0)"><tspan id="SvgjsTspan1051" dy="16" x="86"><tspan id="SvgjsTspan1052" style="text-decoration:;">F</tspan></tspan></text></g><g id="SvgjsG1053" transform="translate(385,102)"><path id="SvgjsPath1054" d="M 0 4Q 0 0 4 0L 116 0Q 120 0 120 4L 120 176Q 120 180 116 180L 4 180Q 0 180 0 176Z" stroke="rgba(50,50,50,1)" stroke-width="1" fill-opacity="1" fill="#ffffff"></path><g id="SvgjsG1055"><text id="SvgjsText1056" font-family="微软雅黑" text-anchor="middle" font-size="13px" width="100px" fill="#323232" font-weight="400" align="middle" lineHeight="125%" anchor="middle" family="微软雅黑" size="13px" weight="400" font-style="" opacity="1" y="80.375" transform="rotate(0)"></text></g></g><g id="SvgjsG1057" transform="translate(405,125)"><path id="SvgjsPath1058" d="M 0 4Q 0 0 4 0L 76 0Q 80 0 80 4L 80 26Q 80 30 76 30L 4 30Q 0 30 0 26Z" stroke="rgba(50,50,50,1)" stroke-width="1" fill-opacity="1" fill="#cce5ff"></path><g id="SvgjsG1059"><text id="SvgjsText1060" font-family="微软雅黑" text-anchor="middle" font-size="13px" width="60px" fill="#323232" font-weight="400" align="middle" lineHeight="125%" anchor="middle" family="微软雅黑" size="13px" weight="400" font-style="" opacity="1" y="5.375" transform="rotate(0)"><tspan id="SvgjsTspan1061" dy="16" x="40"><tspan id="SvgjsTspan1062" style="text-decoration:;">S:=S+1</tspan></tspan></text></g></g><g id="SvgjsG1063" transform="translate(405,209)"><path id="SvgjsPath1064" d="M 0 15L 40 0L 80 15L 40 30Z" stroke="rgba(50,50,50,1)" stroke-width="1" fill-opacity="1" fill="#ffe6cc"></path><g id="SvgjsG1065"><text id="SvgjsText1066" font-family="微软雅黑" text-anchor="middle" font-size="13px" width="60px" fill="#323232" font-weight="400" align="middle" lineHeight="125%" anchor="middle" family="微软雅黑" size="13px" weight="400" font-style="" opacity="1" y="5.525" transform="rotate(0)"><tspan id="SvgjsTspan1067" dy="16" x="40"><tspan id="SvgjsTspan1068" style="text-decoration:;">S&lt;=0</tspan></tspan></text></g></g><g id="SvgjsG1069"><path id="SvgjsPath1070" d="M445 155L445 182L445 182L445 209" stroke="#323232" stroke-width="1" fill="none" marker-end="url(#SvgjsMarker1071)"></path></g><g id="SvgjsG1073"><path id="SvgjsPath1074" d="M445 239L445 268.5L445 268.5L445 298" stroke="#323232" stroke-width="1" fill="none" marker-end="url(#SvgjsMarker1075)"></path><rect id="SvgjsRect1077" width="7" height="16" x="441.5" y="260.5" fill="#ffffff"></rect><text id="SvgjsText1078" font-family="微软雅黑" text-anchor="middle" font-size="13px" width="7px" fill="#323232" font-weight="400" align="top" lineHeight="16px" anchor="middle" family="微软雅黑" size="13px" weight="400" font-style="" opacity="1" y="258.875" transform="rotate(0)"><tspan id="SvgjsTspan1079" dy="16" x="445"><tspan id="SvgjsTspan1080" style="text-decoration:;">F</tspan></tspan></text></g><g id="SvgjsG1081"><path id="SvgjsPath1082" d="M267 102L267 72L356 72L356 224L405 224" stroke="#323232" stroke-width="1" fill="none" marker-end="url(#SvgjsMarker1083)"></path></g><g id="SvgjsG1085" transform="translate(237,195)"><path id="SvgjsPath1086" d="M 0 0L 30 0L 30 30L 0 30Z" stroke="none" fill="none"></path><g id="SvgjsG1087"><text id="SvgjsText1088" font-family="&quot;Times New Roman&quot;" text-anchor="middle" font-size="13px" width="30px" fill="#323232" font-weight="400" align="middle" lineHeight="125%" anchor="middle" family="&quot;Times New Roman&quot;" size="13px" weight="400" font-style="" opacity="1" y="5.375" transform="rotate(0)"><tspan id="SvgjsTspan1089" dy="16" x="15"><tspan id="SvgjsTspan1090" style="text-decoration:;">T</tspan></tspan></text></g></g><g id="SvgjsG1091" transform="translate(267,72)"><path id="SvgjsPath1092" d="M 0 0L 30 0L 30 30L 0 30Z" stroke="none" fill="none"></path><g id="SvgjsG1093"><text id="SvgjsText1094" font-family="&quot;Times New Roman&quot;" text-anchor="middle" font-size="13px" width="30px" fill="#323232" font-weight="400" align="middle" lineHeight="125%" anchor="middle" family="&quot;Times New Roman&quot;" size="13px" weight="400" font-style="" opacity="1" y="5.375" transform="rotate(0)"><tspan id="SvgjsTspan1095" dy="16" x="15"><tspan id="SvgjsTspan1096" style="text-decoration:;">T</tspan></tspan></text></g></g><g id="SvgjsG1097" transform="translate(207,25)"><path id="SvgjsPath1098" d="M 0 0L 120 0L 120 30L 0 30Z" stroke="none" fill="none"></path><g id="SvgjsG1099"><text id="SvgjsText1100" font-family="&quot;Times New Roman&quot;" text-anchor="middle" font-size="13px" width="120px" fill="#323232" font-weight="400" align="middle" lineHeight="125%" anchor="middle" family="&quot;Times New Roman&quot;" size="13px" weight="400" font-style="" opacity="1" y="5.375" transform="rotate(0)"><tspan id="SvgjsTspan1101" dy="16" x="60"><tspan id="SvgjsTspan1102" style="text-decoration:;">阻塞队列</tspan></tspan></text></g></g><g id="SvgjsG1103" transform="translate(25,55)"><path id="SvgjsPath1104" d="M 0 0L 120 0L 120 30L 0 30Z" stroke="none" fill="none"></path><g id="SvgjsG1105"><text id="SvgjsText1106" font-family="微软雅黑" text-anchor="middle" font-size="13px" width="120px" fill="#323232" font-weight="400" align="middle" lineHeight="125%" anchor="middle" family="微软雅黑" size="13px" weight="400" font-style="" opacity="1" y="5.375" transform="rotate(0)"><tspan id="SvgjsTspan1107" dy="16" x="60"><tspan id="SvgjsTspan1108" style="text-decoration:;">P 操作</tspan></tspan></text></g></g><g id="SvgjsG1109" transform="translate(385,55)"><path id="SvgjsPath1110" d="M 0 0L 120 0L 120 30L 0 30Z" stroke="none" fill="none"></path><g id="SvgjsG1111"><text id="SvgjsText1112" font-family="微软雅黑" text-anchor="middle" font-size="13px" width="120px" fill="#323232" font-weight="400" align="middle" lineHeight="125%" anchor="middle" family="微软雅黑" size="13px" weight="400" font-style="" opacity="1" y="5.375" transform="rotate(0)"><tspan id="SvgjsTspan1113" dy="16" x="60"><tspan id="SvgjsTspan1114" style="text-decoration:;">V 操作</tspan></tspan></text></g></g><g id="SvgjsG1115" transform="translate(147,225)"><path id="SvgjsPath1116" d="M 0 0L 120 0L 120 30L 0 30Z" stroke="none" fill="none"></path><g id="SvgjsG1117"><text id="SvgjsText1118" font-family="微软雅黑" text-anchor="middle" font-size="13px" width="120px" fill="#323232" font-weight="400" align="middle" lineHeight="125%" anchor="middle" family="微软雅黑" size="13px" weight="400" font-style="" opacity="1" y="5.375" transform="rotate(0)"><tspan id="SvgjsTspan1119" dy="16" x="60"><tspan id="SvgjsTspan1120" style="text-decoration:;">置进程为阻塞状态</tspan></tspan></text></g></g><g id="SvgjsG1121" transform="translate(285,225)"><path id="SvgjsPath1122" d="M 0 0L 120 0L 120 30L 0 30Z" stroke="none" fill="none"></path><g id="SvgjsG1123"><text id="SvgjsText1124" font-family="微软雅黑" text-anchor="middle" font-size="13px" width="120px" fill="#323232" font-weight="400" align="middle" lineHeight="125%" anchor="middle" family="微软雅黑" size="13px" weight="400" font-style="" opacity="1" y="5.375" transform="rotate(0)"><tspan id="SvgjsTspan1125" dy="16" x="60"><tspan id="SvgjsTspan1126" style="text-decoration:;">唤醒进程</tspan></tspan></text></g></g><g id="SvgjsG1127" transform="translate(27,298)"><path id="SvgjsPath1128" d="M 0 0L 120 0L 120 30L 0 30Z" stroke="none" fill="none"></path><g id="SvgjsG1129"><text id="SvgjsText1130" font-family="微软雅黑" text-anchor="middle" font-size="13px" width="120px" fill="#323232" font-weight="400" align="middle" lineHeight="125%" anchor="middle" family="微软雅黑" size="13px" weight="400" font-style="" opacity="1" y="5.375" transform="rotate(0)"><tspan id="SvgjsTspan1131" dy="16" x="60"><tspan id="SvgjsTspan1132" style="text-decoration:;">继续执行</tspan></tspan></text></g></g><g id="SvgjsG1133" transform="translate(385,298)"><path id="SvgjsPath1134" d="M 0 0L 120 0L 120 30L 0 30Z" stroke="none" fill="none"></path><g id="SvgjsG1135"><text id="SvgjsText1136" font-family="微软雅黑" text-anchor="middle" font-size="13px" width="120px" fill="#323232" font-weight="400" align="middle" lineHeight="125%" anchor="middle" family="微软雅黑" size="13px" weight="400" font-style="" opacity="1" y="5.375" transform="rotate(0)"><tspan id="SvgjsTspan1137" dy="16" x="60"><tspan id="SvgjsTspan1138" style="text-decoration:;">继续执行</tspan></tspan></text></g></g></svg>