<svg id="SvgjsSvg1266" width="576" height="275" xmlns="http://www.w3.org/2000/svg" version="1.1" xmlns:xlink="http://www.w3.org/1999/xlink" xmlns:svgjs="http://svgjs.com/svgjs"><defs id="SvgjsDefs1267"></defs><g id="SvgjsG1268" transform="translate(311,25)"><path id="SvgjsPath1269" d="M 0 0L 120 0L 120 45L 0 45Z" stroke="rgba(50,50,50,1)" stroke-width="1" fill-opacity="1" fill="#ffffff"></path><g id="SvgjsG1270"><text id="SvgjsText1271" font-family="&quot;Times New Roman&quot;" text-anchor="middle" font-size="13px" width="100px" fill="#323232" font-weight="400" align="middle" anchor="middle" family="&quot;Times New Roman&quot;" size="13px" weight="400" font-style="" opacity="1" y="12.55" transform="rotate(0)"><tspan id="SvgjsTspan1272" dy="16" x="60"><tspan id="SvgjsTspan1273" style="text-decoration:;">Food</tspan></tspan></text></g></g><g id="SvgjsG1274" transform="translate(191,114)"><path id="SvgjsPath1275" d="M 0 0L 120 0L 120 45L 0 45Z" stroke="rgba(50,50,50,1)" stroke-width="1" fill-opacity="1" fill="#ffffff"></path><g id="SvgjsG1276"><text id="SvgjsText1277" font-family="&quot;Times New Roman&quot;" text-anchor="middle" font-size="13px" width="100px" fill="#323232" font-weight="400" align="middle" anchor="middle" family="&quot;Times New Roman&quot;" size="13px" weight="400" font-style="" opacity="1" y="12.55" transform="rotate(0)"><tspan id="SvgjsTspan1278" dy="16" x="60"><tspan id="SvgjsTspan1279" style="text-decoration:;">Fruit</tspan></tspan></text></g></g><g id="SvgjsG1280" transform="translate(431,114)"><path id="SvgjsPath1281" d="M 0 0L 120 0L 120 45L 0 45Z" stroke="rgba(50,50,50,1)" stroke-width="1" fill-opacity="1" fill="#ffffff"></path><g id="SvgjsG1282"><text id="SvgjsText1283" font-family="&quot;Times New Roman&quot;" text-anchor="middle" font-size="13px" width="100px" fill="#323232" font-weight="400" align="middle" anchor="middle" family="&quot;Times New Roman&quot;" size="13px" weight="400" font-style="" opacity="1" y="12.55" transform="rotate(0)"><tspan id="SvgjsTspan1284" dy="16" x="60"><tspan id="SvgjsTspan1285" style="text-decoration:;">Meat</tspan></tspan></text></g></g><g id="SvgjsG1286" transform="translate(191,205)"><path id="SvgjsPath1287" d="M 0 0L 120 0L 120 45L 0 45Z" stroke="rgba(50,50,50,1)" stroke-width="1" fill-opacity="1" fill="#ffffff"></path><g id="SvgjsG1288"><text id="SvgjsText1289" font-family="&quot;Times New Roman&quot;" text-anchor="middle" font-size="13px" width="100px" fill="#323232" font-weight="400" align="middle" anchor="middle" family="&quot;Times New Roman&quot;" size="13px" weight="400" font-style="" opacity="1" y="12.55" transform="rotate(0)"><tspan id="SvgjsTspan1290" dy="16" x="60"><tspan id="SvgjsTspan1291" style="text-decoration:;">Banana</tspan></tspan></text></g></g><g id="SvgjsG1292" transform="translate(356,205)"><path id="SvgjsPath1293" d="M 0 0L 120 0L 120 45L 0 45Z" stroke="rgba(50,50,50,1)" stroke-width="1" fill-opacity="1" fill="#ffffff"></path><g id="SvgjsG1294"><text id="SvgjsText1295" font-family="&quot;Times New Roman&quot;" text-anchor="middle" font-size="13px" width="100px" fill="#323232" font-weight="400" align="middle" anchor="middle" family="&quot;Times New Roman&quot;" size="13px" weight="400" font-style="" opacity="1" y="12.55" transform="rotate(0)"><tspan id="SvgjsTspan1296" dy="16" x="60"><tspan id="SvgjsTspan1297" style="text-decoration:;">Cherry</tspan></tspan></text></g></g><g id="SvgjsG1298" transform="translate(25,205)"><path id="SvgjsPath1299" d="M 0 0L 120 0L 120 45L 0 45Z" stroke="rgba(50,50,50,1)" stroke-width="1" fill-opacity="1" fill="#ffffff"></path><g id="SvgjsG1300"><text id="SvgjsText1301" font-family="&quot;Times New Roman&quot;" text-anchor="middle" font-size="13px" width="100px" fill="#323232" font-weight="400" align="middle" anchor="middle" family="&quot;Times New Roman&quot;" size="13px" weight="400" font-style="" opacity="1" y="12.55" transform="rotate(0)"><tspan id="SvgjsTspan1302" dy="16" x="60"><tspan id="SvgjsTspan1303" style="text-decoration:;">Apple</tspan></tspan></text></g></g><g id="SvgjsG1304"><path id="SvgjsPath1305" d="M371 70L371 92L251 92L251 114" stroke="#323232" stroke-width="1" fill="none"></path></g><g id="SvgjsG1306"><path id="SvgjsPath1307" d="M371 70L371 92L491 92L491 114" stroke="#323232" stroke-width="1" fill="none"></path></g><g id="SvgjsG1308"><path id="SvgjsPath1309" d="M251 159L251 182L251 182L251 205" stroke="#323232" stroke-width="1" fill="none"></path></g><g id="SvgjsG1310"><path id="SvgjsPath1311" d="M251 159L251 182L85 182L85 205" stroke="#323232" stroke-width="1" fill="none"></path></g><g id="SvgjsG1312"><path id="SvgjsPath1313" d="M251 159L251 182L416 182L416 205" stroke="#323232" stroke-width="1" fill="none"></path></g></svg>