<svg id="SvgjsSvg1006" width="946" height="327" xmlns="http://www.w3.org/2000/svg" version="1.1" xmlns:xlink="http://www.w3.org/1999/xlink" xmlns:svgjs="http://svgjs.com/svgjs"><defs id="SvgjsDefs1007"><marker id="SvgjsMarker1038" markerWidth="12" markerHeight="8" refX="9" refY="4" viewBox="0 0 12 8" orient="auto" markerUnits="userSpaceOnUse" stroke-dasharray="0,0"><path id="SvgjsPath1039" d="M0,0 L12,4 L0,8 L0,0" fill="#323232" stroke="#323232" stroke-width="1"></path></marker><marker id="SvgjsMarker1048" markerWidth="12" markerHeight="8" refX="9" refY="4" viewBox="0 0 12 8" orient="auto" markerUnits="userSpaceOnUse" stroke-dasharray="0,0"><path id="SvgjsPath1049" d="M0,0 L12,4 L0,8 L0,0" fill="#323232" stroke="#323232" stroke-width="1"></path></marker><marker id="SvgjsMarker1058" markerWidth="12" markerHeight="8" refX="9" refY="4" viewBox="0 0 12 8" orient="auto" markerUnits="userSpaceOnUse" stroke-dasharray="0,0"><path id="SvgjsPath1059" d="M0,0 L12,4 L0,8 L0,0" fill="#323232" stroke="#323232" stroke-width="1"></path></marker><marker id="SvgjsMarker1074" markerWidth="12" markerHeight="8" refX="9" refY="4" viewBox="0 0 12 8" orient="auto" markerUnits="userSpaceOnUse" stroke-dasharray="0,0"><path id="SvgjsPath1075" d="M0,0 L12,4 L0,8 L0,0" fill="#323232" stroke="#323232" stroke-width="1"></path></marker><marker id="SvgjsMarker1090" markerWidth="12" markerHeight="8" refX="9" refY="4" viewBox="0 0 12 8" orient="auto" markerUnits="userSpaceOnUse" stroke-dasharray="0,0"><path id="SvgjsPath1091" d="M0,0 L12,4 L0,8 L0,0" fill="#323232" stroke="#323232" stroke-width="1"></path></marker><marker id="SvgjsMarker1100" markerWidth="12" markerHeight="8" refX="9" refY="4" viewBox="0 0 12 8" orient="auto" markerUnits="userSpaceOnUse" stroke-dasharray="0,0"><path id="SvgjsPath1101" d="M0,0 L12,4 L0,8 L0,0" fill="#323232" stroke="#323232" stroke-width="1"></path></marker></defs><g id="SvgjsG1008" transform="translate(25,47)"><path id="SvgjsPath1009" d="M 0 4Q 0 0 4 0L 116 0Q 120 0 120 4L 120 41Q 120 45 116 45L 4 45Q 0 45 0 41Z" stroke="rgba(50,50,50,1)" stroke-width="1" fill-opacity="1" fill="#ffffff"></path><g id="SvgjsG1010"><text id="SvgjsText1011" font-family="&quot;Times New Roman&quot;" text-anchor="middle" font-size="13px" width="100px" fill="#323232" font-weight="400" align="middle" lineHeight="125%" anchor="middle" family="&quot;Times New Roman&quot;" size="13px" weight="400" font-style="" opacity="1" y="11.875" transform="rotate(0)"><tspan id="SvgjsTspan1012" dy="16" x="60"><tspan id="SvgjsTspan1013" style="text-decoration:;">事务并行执行</tspan></tspan></text></g></g><g id="SvgjsG1014" transform="translate(215,47)"><path id="SvgjsPath1015" d="M 0 4Q 0 0 4 0L 116 0Q 120 0 120 4L 120 41Q 120 45 116 45L 4 45Q 0 45 0 41Z" stroke="rgba(50,50,50,1)" stroke-width="1" fill-opacity="1" fill="#cce5ff"></path><g id="SvgjsG1016"><text id="SvgjsText1017" font-family="&quot;Times New Roman&quot;" text-anchor="middle" font-size="13px" width="100px" fill="#323232" font-weight="400" align="middle" lineHeight="125%" anchor="middle" family="&quot;Times New Roman&quot;" size="13px" weight="400" font-style="" opacity="1" y="3.375" transform="rotate(0)"><tspan id="SvgjsTspan1018" dy="16" x="60"><tspan id="SvgjsTspan1019" style="text-decoration:;">隔离性</tspan></tspan><tspan id="SvgjsTspan1020" dy="16" x="60"><tspan id="SvgjsTspan1021" style="text-decoration:;">Isolation</tspan></tspan></text></g></g><g id="SvgjsG1022" transform="translate(405,47)"><path id="SvgjsPath1023" d="M 0 4Q 0 0 4 0L 116 0Q 120 0 120 4L 120 41Q 120 45 116 45L 4 45Q 0 45 0 41Z" stroke="rgba(50,50,50,1)" stroke-width="1" fill-opacity="1" fill="#ffffff"></path><g id="SvgjsG1024"><text id="SvgjsText1025" font-family="&quot;Times New Roman&quot;" text-anchor="middle" font-size="13px" width="100px" fill="#323232" font-weight="400" align="middle" lineHeight="125%" anchor="middle" family="&quot;Times New Roman&quot;" size="13px" weight="400" font-style="" opacity="1" y="11.875" transform="rotate(0)"><tspan id="SvgjsTspan1026" dy="16" x="60"><tspan id="SvgjsTspan1027" style="text-decoration:;">并发一致性问题</tspan></tspan></text></g></g><g id="SvgjsG1028" transform="translate(611,47)"><path id="SvgjsPath1029" d="M 0 4Q 0 0 4 0L 116 0Q 120 0 120 4L 120 41Q 120 45 116 45L 4 45Q 0 45 0 41Z" stroke="rgba(50,50,50,1)" stroke-width="1" fill-opacity="1" fill="#cce5ff"></path><g id="SvgjsG1030"><text id="SvgjsText1031" font-family="&quot;Times New Roman&quot;" text-anchor="middle" font-size="13px" width="100px" fill="#323232" font-weight="400" align="middle" lineHeight="125%" anchor="middle" family="&quot;Times New Roman&quot;" size="13px" weight="400" font-style="" opacity="1" y="3.375" transform="rotate(0)"><tspan id="SvgjsTspan1032" dy="16" x="60"><tspan id="SvgjsTspan1033" style="text-decoration:;">一致性</tspan></tspan><tspan id="SvgjsTspan1034" dy="16" x="60"><tspan id="SvgjsTspan1035" style="text-decoration:;">Consistency</tspan></tspan></text></g></g><g id="SvgjsG1036"><path id="SvgjsPath1037" d="M145.5 69.5L180 69.5L180 69.5L213.2 69.5" stroke="#323232" stroke-width="1" fill="none" marker-end="url(#SvgjsMarker1038)"></path></g><g id="SvgjsG1040" transform="translate(150,25)"><path id="SvgjsPath1041" d="M 0 0L 60 0L 60 45L 0 45Z" stroke="none" fill="none"></path><g id="SvgjsG1042"><text id="SvgjsText1043" font-family="&quot;Times New Roman&quot;" text-anchor="middle" font-size="13px" width="60px" fill="#212121" font-weight="400" align="middle" lineHeight="125%" anchor="middle" family="&quot;Times New Roman&quot;" size="13px" weight="400" font-style="" opacity="1" y="11.875" transform="rotate(0)"><tspan id="SvgjsTspan1044" dy="16" x="30"><tspan id="SvgjsTspan1045" style="text-decoration:;">难以保证</tspan></tspan></text></g></g><g id="SvgjsG1046"><path id="SvgjsPath1047" d="M335.5 69.5L370 69.5L370 69.5L403.2 69.5" stroke="#323232" stroke-width="1" fill="none" marker-end="url(#SvgjsMarker1048)"></path></g><g id="SvgjsG1050" transform="translate(340,25)"><path id="SvgjsPath1051" d="M 0 0L 60 0L 60 45L 0 45Z" stroke="none" fill="none"></path><g id="SvgjsG1052"><text id="SvgjsText1053" font-family="&quot;Times New Roman&quot;" text-anchor="middle" font-size="13px" width="60px" fill="#212121" font-weight="400" align="middle" lineHeight="125%" anchor="middle" family="&quot;Times New Roman&quot;" size="13px" weight="400" font-style="" opacity="1" y="11.875" transform="rotate(0)"><tspan id="SvgjsTspan1054" dy="16" x="30"><tspan id="SvgjsTspan1055" style="text-decoration:;">引发</tspan></tspan></text></g></g><g id="SvgjsG1056"><path id="SvgjsPath1057" d="M525.5 69.5L568 69.5L568 69.5L609.2 69.5" stroke="#323232" stroke-width="1" fill="none" marker-end="url(#SvgjsMarker1058)"></path></g><g id="SvgjsG1060" transform="translate(538,25)"><path id="SvgjsPath1061" d="M 0 0L 60 0L 60 45L 0 45Z" stroke="none" fill="none"></path><g id="SvgjsG1062"><text id="SvgjsText1063" font-family="&quot;Times New Roman&quot;" text-anchor="middle" font-size="13px" width="60px" fill="#212121" font-weight="400" align="middle" lineHeight="125%" anchor="middle" family="&quot;Times New Roman&quot;" size="13px" weight="400" font-style="" opacity="1" y="11.875" transform="rotate(0)"><tspan id="SvgjsTspan1064" dy="16" x="30"><tspan id="SvgjsTspan1065" style="text-decoration:;">破坏</tspan></tspan></text></g></g><g id="SvgjsG1066" transform="translate(801,47)"><path id="SvgjsPath1067" d="M 0 4Q 0 0 4 0L 116 0Q 120 0 120 4L 120 41Q 120 45 116 45L 4 45Q 0 45 0 41Z" stroke="rgba(50,50,50,1)" stroke-width="1" fill-opacity="1" fill="#ffffff"></path><g id="SvgjsG1068"><text id="SvgjsText1069" font-family="&quot;Times New Roman&quot;" text-anchor="middle" font-size="13px" width="100px" fill="#323232" font-weight="400" align="middle" lineHeight="125%" anchor="middle" family="&quot;Times New Roman&quot;" size="13px" weight="400" font-style="" opacity="1" y="11.875" transform="rotate(0)"><tspan id="SvgjsTspan1070" dy="16" x="60"><tspan id="SvgjsTspan1071" style="text-decoration:;">执行结果不正确</tspan></tspan></text></g></g><g id="SvgjsG1072"><path id="SvgjsPath1073" d="M731.5 69.5L766 69.5L766 69.5L799.2 69.5" stroke="#323232" stroke-width="1" fill="none" marker-end="url(#SvgjsMarker1074)"></path></g><g id="SvgjsG1076" transform="translate(736,25)"><path id="SvgjsPath1077" d="M 0 0L 60 0L 60 45L 0 45Z" stroke="none" fill="none"></path><g id="SvgjsG1078"><text id="SvgjsText1079" font-family="&quot;Times New Roman&quot;" text-anchor="middle" font-size="13px" width="60px" fill="#212121" font-weight="400" align="middle" lineHeight="125%" anchor="middle" family="&quot;Times New Roman&quot;" size="13px" weight="400" font-style="" opacity="1" y="11.875" transform="rotate(0)"><tspan id="SvgjsTspan1080" dy="16" x="30"><tspan id="SvgjsTspan1081" style="text-decoration:;">导致</tspan></tspan></text></g></g><g id="SvgjsG1082" transform="translate(525,152)"><path id="SvgjsPath1083" d="M 0 4Q 0 0 4 0L 116 0Q 120 0 120 4L 120 41Q 120 45 116 45L 4 45Q 0 45 0 41Z" stroke="rgba(50,50,50,1)" stroke-width="1" fill-opacity="1" fill="#ffe6cc"></path><g id="SvgjsG1084"><text id="SvgjsText1085" font-family="&quot;Times New Roman&quot;" text-anchor="middle" font-size="13px" width="100px" fill="#323232" font-weight="400" align="middle" lineHeight="125%" anchor="middle" family="&quot;Times New Roman&quot;" size="13px" weight="400" font-style="" opacity="1" y="11.875" transform="rotate(0)"><tspan id="SvgjsTspan1086" dy="16" x="60"><tspan id="SvgjsTspan1087" style="text-decoration:;">并发控制</tspan></tspan></text></g></g><g id="SvgjsG1088"><path id="SvgjsPath1089" d="M584.5527864045 151.77639320225L466.60996894379986 92.8049844718999" stroke="#323232" stroke-width="1" fill="none" marker-end="url(#SvgjsMarker1090)"></path></g><g id="SvgjsG1092" transform="translate(285,152)"><path id="SvgjsPath1093" d="M 0 4Q 0 0 4 0L 116 0Q 120 0 120 4L 120 41Q 120 45 116 45L 4 45Q 0 45 0 41Z" stroke="rgba(50,50,50,1)" stroke-width="1" fill-opacity="1" fill="#ffe6cc"></path><g id="SvgjsG1094"><text id="SvgjsText1095" font-family="&quot;Times New Roman&quot;" text-anchor="middle" font-size="13px" width="100px" fill="#323232" font-weight="400" align="middle" lineHeight="125%" anchor="middle" family="&quot;Times New Roman&quot;" size="13px" weight="400" font-style="" opacity="1" y="11.875" transform="rotate(0)"><tspan id="SvgjsTspan1096" dy="16" x="60"><tspan id="SvgjsTspan1097" style="text-decoration:;">隔离级别</tspan></tspan></text></g></g><g id="SvgjsG1098"><path id="SvgjsPath1099" d="M345.44721359549993 151.77639320225L463.39003105620014 92.8049844718999" stroke="#323232" stroke-width="1" fill="none" marker-end="url(#SvgjsMarker1100)"></path></g><g id="SvgjsG1102" transform="translate(435,107)"><path id="SvgjsPath1103" d="M 0 0L 60 0L 60 45L 0 45Z" stroke="none" fill="none"></path><g id="SvgjsG1104"><text id="SvgjsText1105" font-family="&quot;Times New Roman&quot;" text-anchor="middle" font-size="13px" width="60px" fill="#688f4e" font-weight="400" align="middle" lineHeight="125%" anchor="middle" family="&quot;Times New Roman&quot;" size="13px" weight="400" font-style="" opacity="1" y="11.875" transform="rotate(0)"><tspan id="SvgjsTspan1106" dy="16" x="30"><tspan id="SvgjsTspan1107" style="text-decoration:;">解决方案</tspan></tspan></text></g></g><g id="SvgjsG1108" transform="translate(210,257)"><path id="SvgjsPath1109" d="M 0 4Q 0 0 4 0L 116 0Q 120 0 120 4L 120 41Q 120 45 116 45L 4 45Q 0 45 0 41Z" stroke="rgba(50,50,50,1)" stroke-width="1" fill-opacity="1" fill="#ffe6cc"></path><g id="SvgjsG1110"><text id="SvgjsText1111" font-family="&quot;Times New Roman&quot;" text-anchor="middle" font-size="13px" width="100px" fill="#323232" font-weight="400" align="middle" lineHeight="125%" anchor="middle" family="&quot;Times New Roman&quot;" size="13px" weight="400" font-style="" opacity="1" y="11.875" transform="rotate(0)"><tspan id="SvgjsTspan1112" dy="16" x="60"><tspan id="SvgjsTspan1113" style="text-decoration:;">多版本并发控制</tspan></tspan></text></g></g><g id="SvgjsG1114" transform="translate(360,257)"><path id="SvgjsPath1115" d="M 0 4Q 0 0 4 0L 116 0Q 120 0 120 4L 120 41Q 120 45 116 45L 4 45Q 0 45 0 41Z" stroke="rgba(50,50,50,1)" stroke-width="1" fill-opacity="1" fill="#ffe6cc"></path><g id="SvgjsG1116"><text id="SvgjsText1117" font-family="&quot;Times New Roman&quot;" text-anchor="middle" font-size="13px" width="100px" fill="#323232" font-weight="400" align="middle" lineHeight="125%" anchor="middle" family="&quot;Times New Roman&quot;" size="13px" weight="400" font-style="" opacity="1" y="11.875" transform="rotate(0)"><tspan id="SvgjsTspan1118" dy="16" x="60"><tspan id="SvgjsTspan1119" style="text-decoration:;">Next-Key Locks</tspan></tspan></text></g></g><g id="SvgjsG1120" transform="translate(525,257)"><path id="SvgjsPath1121" d="M 0 4Q 0 0 4 0L 116 0Q 120 0 120 4L 120 41Q 120 45 116 45L 4 45Q 0 45 0 41Z" stroke="rgba(50,50,50,1)" stroke-width="1" fill-opacity="1" fill="#ffe6cc"></path><g id="SvgjsG1122"><text id="SvgjsText1123" font-family="&quot;Times New Roman&quot;" text-anchor="middle" font-size="13px" width="100px" fill="#323232" font-weight="400" align="middle" lineHeight="125%" anchor="middle" family="&quot;Times New Roman&quot;" size="13px" weight="400" font-style="" opacity="1" y="11.875" transform="rotate(0)"><tspan id="SvgjsTspan1124" dy="16" x="60"><tspan id="SvgjsTspan1125" style="text-decoration:;">封锁</tspan></tspan></text></g></g><g id="SvgjsG1126"><path id="SvgjsPath1127" d="M270.1292890127119 256.5170048124546C 270 218.5812545754029 345 235.4187454245971 344.8707109872881 197.48299518754538" stroke="#323232" stroke-width="1" fill="none"></path></g><g id="SvgjsG1128"><path id="SvgjsPath1129" d="M419.8707109872881 256.5170048124546C 420 218.5812545754029 345 235.4187454245971 345.1292890127119 197.48299518754538" stroke="#323232" stroke-width="1" fill="none"></path></g><g id="SvgjsG1130"><path id="SvgjsPath1131" d="M585 256.5L585 227L585 227L585 197.5" stroke="#323232" stroke-width="1" fill="none"></path></g></svg>