<svg id="SvgjsSvg1006" width="770" height="171" xmlns="http://www.w3.org/2000/svg" version="1.1" xmlns:xlink="http://www.w3.org/1999/xlink" xmlns:svgjs="http://svgjs.com/svgjs"><defs id="SvgjsDefs1007"></defs><g id="SvgjsG1008" transform="translate(25,101)"><path id="SvgjsPath1009" d="M 0 0L 120 0L 120 45L 0 45Z" stroke="rgba(120,120,120,1)" stroke-width="1" fill-opacity="1" fill="#cce5ff"></path><path id="SvgjsPath1010" d="M 3 3L 117 3L 117 42L 3 42Z" stroke="rgba(50,50,50,1)" stroke-width="1" fill="none"></path><path id="SvgjsPath1011" d="M 0 0L 120 0L 120 45L 0 45Z" stroke="none" fill="none"></path><g id="SvgjsG1012"><text id="SvgjsText1013" font-family="微软雅黑" text-anchor="middle" font-size="13px" width="100px" fill="#323232" font-weight="400" align="middle" lineHeight="125%" anchor="middle" family="微软雅黑" size="13px" weight="400" font-style="" opacity="1" y="12.875" transform="rotate(0)"><tspan id="SvgjsTspan1014" dy="16" x="60"><tspan id="SvgjsTspan1015" style="text-decoration:;">弱实体</tspan></tspan></text></g></g><g id="SvgjsG1016" transform="translate(176,101)"><path id="SvgjsPath1017" d="M 0 22.5L 60 0L 120 22.5L 60 45L 0 22.5Z" stroke="rgba(50,50,50,1)" stroke-width="1" fill-opacity="1" fill="#ffffff"></path><path id="SvgjsPath1018" d="M 4.8 22.5L 60 2.25L 115.2 22.5L 60 42.75L 4.8 22.5Z" stroke="rgba(50,50,50,1)" stroke-width="1" fill="none"></path><path id="SvgjsPath1019" d="M 0 22.5L 60 0L 120 22.5L 60 45L 0 22.5Z" stroke="none" fill="none"></path><g id="SvgjsG1020"><text id="SvgjsText1021" font-family="微软雅黑" text-anchor="middle" font-size="13px" width="100px" fill="#323232" font-weight="400" align="middle" lineHeight="125%" anchor="middle" family="微软雅黑" size="13px" weight="400" font-style="" opacity="1" y="12.875" transform="rotate(0)"><tspan id="SvgjsTspan1022" dy="16" x="60"><tspan id="SvgjsTspan1023" style="text-decoration:;">弱联系</tspan></tspan></text></g></g><g id="SvgjsG1024" transform="translate(325,101)"><path id="SvgjsPath1025" d="M 0 0L 120 0L 120 45L 0 45Z" stroke="rgba(50,50,50,1)" stroke-width="1" fill-opacity="1" fill="#cce5ff"></path><g id="SvgjsG1026"><text id="SvgjsText1027" font-family="微软雅黑" text-anchor="middle" font-size="13px" width="100px" fill="#323232" font-weight="400" align="middle" lineHeight="125%" anchor="middle" family="微软雅黑" size="13px" weight="400" font-style="" opacity="1" y="12.875" transform="rotate(0)"><tspan id="SvgjsTspan1028" dy="16" x="60"><tspan id="SvgjsTspan1029" style="text-decoration:;">实体</tspan></tspan></text></g></g><g id="SvgjsG1030" transform="translate(625,101)"><path id="SvgjsPath1031" d="M 0 0L 120 0L 120 45L 0 45Z" stroke="rgba(50,50,50,1)" stroke-width="1" fill-opacity="1" fill="#cce5ff"></path><g id="SvgjsG1032"><text id="SvgjsText1033" font-family="微软雅黑" text-anchor="middle" font-size="13px" width="100px" fill="#323232" font-weight="400" align="middle" lineHeight="125%" anchor="middle" family="微软雅黑" size="13px" weight="400" font-style="" opacity="1" y="12.875" transform="rotate(0)"><tspan id="SvgjsTspan1034" dy="16" x="60"><tspan id="SvgjsTspan1035" style="text-decoration:;">实体</tspan></tspan></text></g></g><g id="SvgjsG1036" transform="translate(325,25)"><path id="SvgjsPath1037" d="M 0 22.5C 0 -7.5 120 -7.5 120 22.5C 120 52.5 0 52.5 0 22.5Z" stroke="rgba(50,50,50,1)" stroke-width="1" fill-opacity="1" fill="#ffe6cc"></path><g id="SvgjsG1038"><text id="SvgjsText1039" font-family="微软雅黑" text-anchor="middle" font-size="13px" width="100px" fill="#323232" font-weight="400" align="middle" lineHeight="125%" anchor="middle" family="微软雅黑" size="13px" weight="400" font-style="" opacity="1" y="12.875" transform="rotate(0)"><tspan id="SvgjsTspan1040" dy="16" x="60"><tspan id="SvgjsTspan1041" style="text-decoration:;">属性</tspan></tspan></text></g></g><g id="SvgjsG1042" transform="translate(476,101)"><path id="SvgjsPath1043" d="M 0 22.5L 60 0L 120 22.5L 60 45L 0 22.5Z" stroke="rgba(50,50,50,1)" stroke-width="1" fill-opacity="1" fill="#ffffff"></path><g id="SvgjsG1044"><text id="SvgjsText1045" font-family="微软雅黑" text-anchor="middle" font-size="13px" width="100px" fill="#323232" font-weight="400" align="middle" lineHeight="125%" anchor="middle" family="微软雅黑" size="13px" weight="400" font-style="" opacity="1" y="12.875" transform="rotate(0)"><tspan id="SvgjsTspan1046" dy="16" x="60"><tspan id="SvgjsTspan1047" style="text-decoration:;">联系</tspan></tspan></text></g></g><g id="SvgjsG1048"><path id="SvgjsPath1049" d="M145 123.5L160.5 123.5L160.5 123.5L176 123.5" stroke="#323232" stroke-width="1" fill="none"></path></g><g id="SvgjsG1050"><path id="SvgjsPath1051" d="M296 123.5L310.5 123.5L310.5 123.5L325 123.5" stroke="#323232" stroke-width="1" fill="none"></path></g><g id="SvgjsG1052"><path id="SvgjsPath1053" d="M445 123.5L460.5 123.5L460.5 123.5L476 123.5" stroke="#323232" stroke-width="1" fill="none"></path></g><g id="SvgjsG1054"><path id="SvgjsPath1055" d="M596 123.5L610.5 123.5L610.5 123.5L625 123.5" stroke="#323232" stroke-width="1" fill="none"></path></g><g id="SvgjsG1056"><path id="SvgjsPath1057" d="M385 101L385 85.5L385 85.5L385 70" stroke="#323232" stroke-width="1" fill="none"></path></g><g id="SvgjsG1058" transform="translate(625,25)"><path id="SvgjsPath1059" d="M 0 22.5C 0 -7.5 120 -7.5 120 22.5C 120 52.5 0 52.5 0 22.5Z" stroke="rgba(50,50,50,1)" stroke-width="1" fill-opacity="1" fill="#ffe6cc"></path><g id="SvgjsG1060"><text id="SvgjsText1061" font-family="微软雅黑" text-anchor="middle" font-size="13px" width="100px" fill="#323232" font-weight="400" align="middle" lineHeight="125%" anchor="middle" family="微软雅黑" size="13px" weight="400" font-style="" opacity="1" y="12.875" transform="rotate(0)"><tspan id="SvgjsTspan1062" dy="16" x="60"><tspan id="SvgjsTspan1063" style="text-decoration:;">属性</tspan></tspan></text></g></g><g id="SvgjsG1064"><path id="SvgjsPath1065" d="M685 101L685 85.5L685 85.5L685 70" stroke="#323232" stroke-width="1" fill="none"></path></g></svg>