<svg id="SvgjsSvg1130" width="500" height="585" xmlns="http://www.w3.org/2000/svg" version="1.1" xmlns:xlink="http://www.w3.org/1999/xlink" xmlns:svgjs="http://svgjs.com/svgjs"><defs id="SvgjsDefs1131"><marker id="SvgjsMarker1170" markerWidth="12" markerHeight="8" refX="9" refY="4" viewBox="0 0 12 8" orient="auto" markerUnits="userSpaceOnUse" stroke-dasharray="0,0"><path id="SvgjsPath1171" d="M0,0 L12,4 L0,8 L0,0" fill="#323232" stroke="#323232" stroke-width="1"></path></marker><marker id="SvgjsMarker1174" markerWidth="12" markerHeight="8" refX="9" refY="4" viewBox="0 0 12 8" orient="auto" markerUnits="userSpaceOnUse" stroke-dasharray="0,0"><path id="SvgjsPath1175" d="M0,0 L12,4 L0,8 L0,0" fill="#323232" stroke="#323232" stroke-width="1"></path></marker><marker id="SvgjsMarker1178" markerWidth="12" markerHeight="8" refX="9" refY="4" viewBox="0 0 12 8" orient="auto" markerUnits="userSpaceOnUse" stroke-dasharray="0,0"><path id="SvgjsPath1179" d="M0,0 L12,4 L0,8 L0,0" fill="#323232" stroke="#323232" stroke-width="1"></path></marker><marker id="SvgjsMarker1188" markerWidth="12" markerHeight="8" refX="9" refY="4" viewBox="0 0 12 8" orient="auto" markerUnits="userSpaceOnUse" stroke-dasharray="0,0"><path id="SvgjsPath1189" d="M0,0 L12,4 L0,8 L0,0" fill="#323232" stroke="#323232" stroke-width="1"></path></marker><marker id="SvgjsMarker1226" markerWidth="12" markerHeight="8" refX="9" refY="4" viewBox="0 0 12 8" orient="auto" markerUnits="userSpaceOnUse" stroke-dasharray="0,0"><path id="SvgjsPath1227" d="M0,0 L12,4 L0,8 L0,0" fill="#323232" stroke="#323232" stroke-width="1"></path></marker><marker id="SvgjsMarker1230" markerWidth="12" markerHeight="8" refX="9" refY="4" viewBox="0 0 12 8" orient="auto" markerUnits="userSpaceOnUse" stroke-dasharray="0,0"><path id="SvgjsPath1231" d="M0,0 L12,4 L0,8 L0,0" fill="#323232" stroke="#323232" stroke-width="1"></path></marker><marker id="SvgjsMarker1248" markerWidth="12" markerHeight="8" refX="9" refY="4" viewBox="0 0 12 8" orient="auto" markerUnits="userSpaceOnUse" stroke-dasharray="0,0"><path id="SvgjsPath1249" d="M0,0 L12,4 L0,8 L0,0" fill="#323232" stroke="#323232" stroke-width="1"></path></marker><marker id="SvgjsMarker1252" markerWidth="12" markerHeight="8" refX="9" refY="4" viewBox="0 0 12 8" orient="auto" markerUnits="userSpaceOnUse" stroke-dasharray="0,0"><path id="SvgjsPath1253" d="M0,0 L12,4 L0,8 L0,0" fill="#323232" stroke="#323232" stroke-width="1"></path></marker><marker id="SvgjsMarker1270" markerWidth="12" markerHeight="8" refX="9" refY="4" viewBox="0 0 12 8" orient="auto" markerUnits="userSpaceOnUse" stroke-dasharray="0,0"><path id="SvgjsPath1271" d="M0,0 L12,4 L0,8 L0,0" fill="#323232" stroke="#323232" stroke-width="1"></path></marker></defs><g id="SvgjsG1132" transform="translate(175,190)"><path id="SvgjsPath1133" d="M 0 0L 150 0L 150 35L 0 35Z" stroke="none" fill="none"></path><g id="SvgjsG1134"><text id="SvgjsText1135" font-family="&quot;Times New Roman&quot;" text-anchor="middle" font-size="13px" width="150px" fill="#323232" font-weight="400" align="middle" lineHeight="125%" anchor="middle" family="&quot;Times New Roman&quot;" size="13px" weight="400" font-style="" opacity="1" y="6.875" transform="rotate(0)"><tspan id="SvgjsTspan1136" dy="16" x="75"><tspan id="SvgjsTspan1137" style="text-decoration:;">事务串行执行（无并发）</tspan></tspan></text></g></g><g id="SvgjsG1138" transform="translate(25,25)"><path id="SvgjsPath1139" d="M 0 4Q 0 0 4 0L 116 0Q 120 0 120 4L 120 41Q 120 45 116 45L 4 45Q 0 45 0 41Z" stroke="rgba(50,50,50,1)" stroke-width="1" fill-opacity="1" fill="#cce5ff"></path><g id="SvgjsG1140"><text id="SvgjsText1141" font-family="&quot;Times New Roman&quot;" text-anchor="middle" font-size="13px" width="100px" fill="#323232" font-weight="400" align="middle" lineHeight="125%" anchor="middle" family="&quot;Times New Roman&quot;" size="13px" weight="400" font-style="" opacity="1" y="3.375" transform="rotate(0)"><tspan id="SvgjsTspan1142" dy="16" x="60"><tspan id="SvgjsTspan1143" style="text-decoration:;">隔离性</tspan></tspan><tspan id="SvgjsTspan1144" dy="16" x="60"><tspan id="SvgjsTspan1145" style="text-decoration:;">Isolation</tspan></tspan></text></g></g><g id="SvgjsG1146" transform="translate(190,115)"><path id="SvgjsPath1147" d="M 0 22.5L 60 0L 120 22.5L 60 45Z" stroke="rgba(50,50,50,1)" stroke-width="1" fill-opacity="1" fill="#f8f8f8"></path><g id="SvgjsG1148"><text id="SvgjsText1149" font-family="微软雅黑" text-anchor="middle" font-size="13px" width="100px" fill="#323232" font-weight="400" align="middle" lineHeight="125%" anchor="middle" family="微软雅黑" size="13px" weight="400" font-style="" opacity="1" y="12.100000000000001" transform="rotate(0)"><tspan id="SvgjsTspan1150" dy="16" x="60"><tspan id="SvgjsTspan1151" style="text-decoration:;">是否满足？</tspan></tspan></text></g></g><g id="SvgjsG1152" transform="translate(190,25)"><path id="SvgjsPath1153" d="M 0 4Q 0 0 4 0L 116 0Q 120 0 120 4L 120 41Q 120 45 116 45L 4 45Q 0 45 0 41Z" stroke="rgba(50,50,50,1)" stroke-width="1" fill-opacity="1" fill="#cce5ff"></path><g id="SvgjsG1154"><text id="SvgjsText1155" font-family="&quot;Times New Roman&quot;" text-anchor="middle" font-size="13px" width="100px" fill="#323232" font-weight="400" align="middle" lineHeight="125%" anchor="middle" family="&quot;Times New Roman&quot;" size="13px" weight="400" font-style="" opacity="1" y="3.375" transform="rotate(0)"><tspan id="SvgjsTspan1156" dy="16" x="60"><tspan id="SvgjsTspan1157" style="text-decoration:;">一致性</tspan></tspan><tspan id="SvgjsTspan1158" dy="16" x="60"><tspan id="SvgjsTspan1159" style="text-decoration:;">Consistency</tspan></tspan></text></g></g><g id="SvgjsG1160" transform="translate(25,115)"><path id="SvgjsPath1161" d="M 0 4Q 0 0 4 0L 116 0Q 120 0 120 4L 120 41Q 120 45 116 45L 4 45Q 0 45 0 41Z" stroke="rgba(50,50,50,1)" stroke-width="1" fill-opacity="1" fill="#cce5ff"></path><g id="SvgjsG1162"><text id="SvgjsText1163" font-family="&quot;Times New Roman&quot;" text-anchor="middle" font-size="13px" width="100px" fill="#323232" font-weight="400" align="middle" lineHeight="125%" anchor="middle" family="&quot;Times New Roman&quot;" size="13px" weight="400" font-style="" opacity="1" y="3.375" transform="rotate(0)"><tspan id="SvgjsTspan1164" dy="16" x="60"><tspan id="SvgjsTspan1165" style="text-decoration:;">原子性</tspan></tspan><tspan id="SvgjsTspan1166" dy="16" x="60"><tspan id="SvgjsTspan1167" style="text-decoration:;">Atomicity</tspan></tspan></text></g></g><g id="SvgjsG1168"><path id="SvgjsPath1169" d="M145.5 137.5L167.5 137.5L167.5 137.5L188.2 137.5" stroke="#323232" stroke-width="1" fill="none" marker-end="url(#SvgjsMarker1170)"></path></g><g id="SvgjsG1172"><path id="SvgjsPath1173" d="M250 114.5L250 92.5L250 92.5L250 71.8" stroke="#323232" stroke-width="1" fill="none" marker-end="url(#SvgjsMarker1174)"></path></g><g id="SvgjsG1176"><path id="SvgjsPath1177" d="M145.5 47.5L167.5 47.5L167.5 47.5L188.2 47.5" stroke="#323232" stroke-width="1" fill="none" marker-end="url(#SvgjsMarker1178)"></path></g><g id="SvgjsG1180" transform="translate(355,25)"><path id="SvgjsPath1181" d="M 0 4Q 0 0 4 0L 116 0Q 120 0 120 4L 120 41Q 120 45 116 45L 4 45Q 0 45 0 41Z" stroke="rgba(50,50,50,1)" stroke-width="1" fill-opacity="1" fill="#ffe6cc"></path><g id="SvgjsG1182"><text id="SvgjsText1183" font-family="&quot;Times New Roman&quot;" text-anchor="middle" font-size="13px" width="100px" fill="#323232" font-weight="400" align="middle" lineHeight="125%" anchor="middle" family="&quot;Times New Roman&quot;" size="13px" weight="400" font-style="" opacity="1" y="11.875" transform="rotate(0)"><tspan id="SvgjsTspan1184" dy="16" x="60"><tspan id="SvgjsTspan1185" style="text-decoration:;">执行结果正确</tspan></tspan></text></g></g><g id="SvgjsG1186"><path id="SvgjsPath1187" d="M310.5 47.5L332.5 47.5L332.5 47.5L353.20000000000005 47.5" stroke="#323232" stroke-width="1" fill="none" marker-end="url(#SvgjsMarker1188)"></path></g><g id="SvgjsG1190" transform="translate(251,80)"><path id="SvgjsPath1191" d="M 0 0L 35 0L 35 35L 0 35Z" stroke="none" fill="none"></path><g id="SvgjsG1192"><text id="SvgjsText1193" font-family="&quot;Times New Roman&quot;" text-anchor="middle" font-size="13px" width="35px" fill="#688f4e" font-weight="400" align="middle" lineHeight="125%" anchor="middle" family="&quot;Times New Roman&quot;" size="13px" weight="400" font-style="" opacity="1" y="6.875" transform="rotate(0)"><tspan id="SvgjsTspan1194" dy="16" x="17.5"><tspan id="SvgjsTspan1195" style="text-decoration:;">Y</tspan></tspan></text></g></g><g id="SvgjsG1196" transform="translate(175,435)"><path id="SvgjsPath1197" d="M 0 0L 150 0L 150 35L 0 35Z" stroke="none" fill="none"></path><g id="SvgjsG1198"><text id="SvgjsText1199" font-family="&quot;Times New Roman&quot;" text-anchor="middle" font-size="13px" width="150px" fill="#323232" font-weight="400" align="middle" lineHeight="125%" anchor="middle" family="&quot;Times New Roman&quot;" size="13px" weight="400" font-style="" opacity="1" y="6.875" transform="rotate(0)"><tspan id="SvgjsTspan1200" dy="16" x="75"><tspan id="SvgjsTspan1201" style="text-decoration:;">事务并行执行（并发）</tspan></tspan></text></g></g><g id="SvgjsG1202" transform="translate(25,270)"><path id="SvgjsPath1203" d="M 0 4Q 0 0 4 0L 116 0Q 120 0 120 4L 120 41Q 120 45 116 45L 4 45Q 0 45 0 41Z" stroke="rgba(50,50,50,1)" stroke-width="1" fill-opacity="1" fill="#cce5ff"></path><g id="SvgjsG1204"><text id="SvgjsText1205" font-family="&quot;Times New Roman&quot;" text-anchor="middle" font-size="13px" width="100px" fill="#323232" font-weight="400" align="middle" lineHeight="125%" anchor="middle" family="&quot;Times New Roman&quot;" size="13px" weight="400" font-style="" opacity="1" y="3.375" transform="rotate(0)"><tspan id="SvgjsTspan1206" dy="16" x="60"><tspan id="SvgjsTspan1207" style="text-decoration:;">隔离性</tspan></tspan><tspan id="SvgjsTspan1208" dy="16" x="60"><tspan id="SvgjsTspan1209" style="text-decoration:;">Isolation</tspan></tspan></text></g></g><g id="SvgjsG1210" transform="translate(190,315)"><path id="SvgjsPath1211" d="M 0 22.5L 60 0L 120 22.5L 60 45Z" stroke="rgba(50,50,50,1)" stroke-width="1" fill-opacity="1" fill="#f8f8f8"></path><g id="SvgjsG1212"><text id="SvgjsText1213" font-family="微软雅黑" text-anchor="middle" font-size="13px" width="100px" fill="#323232" font-weight="400" align="middle" lineHeight="125%" anchor="middle" family="微软雅黑" size="13px" weight="400" font-style="" opacity="1" y="12.100000000000001" transform="rotate(0)"><tspan id="SvgjsTspan1214" dy="16" x="60"><tspan id="SvgjsTspan1215" style="text-decoration:;">同时满足？</tspan></tspan></text></g></g><g id="SvgjsG1216" transform="translate(25,360)"><path id="SvgjsPath1217" d="M 0 4Q 0 0 4 0L 116 0Q 120 0 120 4L 120 41Q 120 45 116 45L 4 45Q 0 45 0 41Z" stroke="rgba(50,50,50,1)" stroke-width="1" fill-opacity="1" fill="#cce5ff"></path><g id="SvgjsG1218"><text id="SvgjsText1219" font-family="&quot;Times New Roman&quot;" text-anchor="middle" font-size="13px" width="100px" fill="#323232" font-weight="400" align="middle" lineHeight="125%" anchor="middle" family="&quot;Times New Roman&quot;" size="13px" weight="400" font-style="" opacity="1" y="3.375" transform="rotate(0)"><tspan id="SvgjsTspan1220" dy="16" x="60"><tspan id="SvgjsTspan1221" style="text-decoration:;">原子性</tspan></tspan><tspan id="SvgjsTspan1222" dy="16" x="60"><tspan id="SvgjsTspan1223" style="text-decoration:;">Atomicity</tspan></tspan></text></g></g><g id="SvgjsG1224"><path id="SvgjsPath1225" d="M145.5 382.5L250 382.5L250 361.8" stroke="#323232" stroke-width="1" fill="none" marker-end="url(#SvgjsMarker1226)"></path></g><g id="SvgjsG1228"><path id="SvgjsPath1229" d="M145.5 292.5L250 292.5L250 313.2" stroke="#323232" stroke-width="1" fill="none" marker-end="url(#SvgjsMarker1230)"></path></g><g id="SvgjsG1232" transform="translate(315,302.5)"><path id="SvgjsPath1233" d="M 0 0L 35 0L 35 35L 0 35Z" stroke="none" fill="none"></path><g id="SvgjsG1234"><text id="SvgjsText1235" font-family="&quot;Times New Roman&quot;" text-anchor="middle" font-size="13px" width="35px" fill="#688f4e" font-weight="400" align="middle" lineHeight="125%" anchor="middle" family="&quot;Times New Roman&quot;" size="13px" weight="400" font-style="" opacity="1" y="6.875" transform="rotate(0)"><tspan id="SvgjsTspan1236" dy="16" x="17.5"><tspan id="SvgjsTspan1237" style="text-decoration:;">Y</tspan></tspan></text></g></g><g id="SvgjsG1238" transform="translate(355,315)"><path id="SvgjsPath1239" d="M 0 4Q 0 0 4 0L 116 0Q 120 0 120 4L 120 41Q 120 45 116 45L 4 45Q 0 45 0 41Z" stroke="rgba(50,50,50,1)" stroke-width="1" fill-opacity="1" fill="#cce5ff"></path><g id="SvgjsG1240"><text id="SvgjsText1241" font-family="&quot;Times New Roman&quot;" text-anchor="middle" font-size="13px" width="100px" fill="#323232" font-weight="400" align="middle" lineHeight="125%" anchor="middle" family="&quot;Times New Roman&quot;" size="13px" weight="400" font-style="" opacity="1" y="3.375" transform="rotate(0)"><tspan id="SvgjsTspan1242" dy="16" x="60"><tspan id="SvgjsTspan1243" style="text-decoration:;">一致性</tspan></tspan><tspan id="SvgjsTspan1244" dy="16" x="60"><tspan id="SvgjsTspan1245" style="text-decoration:;">Consistency</tspan></tspan></text></g></g><g id="SvgjsG1246"><path id="SvgjsPath1247" d="M310.5 337.5L332.5 337.5L332.5 337.5L353.20000000000005 337.5" stroke="#323232" stroke-width="1" fill="none" marker-end="url(#SvgjsMarker1248)"></path></g><g id="SvgjsG1250"><path id="SvgjsPath1251" d="M415 314.5L415 192.5L415 192.5L415 71.8" stroke="#323232" stroke-width="1" fill="none" marker-end="url(#SvgjsMarker1252)"></path></g><g id="SvgjsG1254" transform="translate(25,515)"><path id="SvgjsPath1255" d="M 0 4Q 0 0 4 0L 116 0Q 120 0 120 4L 120 41Q 120 45 116 45L 4 45Q 0 45 0 41Z" stroke="rgba(50,50,50,1)" stroke-width="1" fill-opacity="1" fill="#cce5ff"></path><g id="SvgjsG1256"><text id="SvgjsText1257" font-family="&quot;Times New Roman&quot;" text-anchor="middle" font-size="13px" width="100px" fill="#323232" font-weight="400" align="middle" lineHeight="125%" anchor="middle" family="&quot;Times New Roman&quot;" size="13px" weight="400" font-style="" opacity="1" y="3.375" transform="rotate(0)"><tspan id="SvgjsTspan1258" dy="16" x="60"><tspan id="SvgjsTspan1259" style="text-decoration:;">持久性</tspan></tspan><tspan id="SvgjsTspan1260" dy="16" x="60"><tspan id="SvgjsTspan1261" style="text-decoration:;">Durability</tspan></tspan></text></g></g><g id="SvgjsG1262" transform="translate(355,515)"><path id="SvgjsPath1263" d="M 0 4Q 0 0 4 0L 116 0Q 120 0 120 4L 120 41Q 120 45 116 45L 4 45Q 0 45 0 41Z" stroke="rgba(50,50,50,1)" stroke-width="1" fill-opacity="1" fill="#ffe6cc"></path><g id="SvgjsG1264"><text id="SvgjsText1265" font-family="&quot;Times New Roman&quot;" text-anchor="middle" font-size="13px" width="100px" fill="#323232" font-weight="400" align="middle" lineHeight="125%" anchor="middle" family="&quot;Times New Roman&quot;" size="13px" weight="400" font-style="" opacity="1" y="11.875" transform="rotate(0)"><tspan id="SvgjsTspan1266" dy="16" x="60"><tspan id="SvgjsTspan1267" style="text-decoration:;">应对数据库崩溃</tspan></tspan></text></g></g><g id="SvgjsG1268"><path id="SvgjsPath1269" d="M145.5 537.5L250 537.5L250 537.5L353.20000000000005 537.5" stroke="#323232" stroke-width="1" fill="none" marker-end="url(#SvgjsMarker1270)"></path></g></svg>