<svg id="SvgjsSvg1006" width="1185.5" height="687.25" xmlns="http://www.w3.org/2000/svg" version="1.1" xmlns:xlink="http://www.w3.org/1999/xlink" xmlns:svgjs="http://svgjs.com/svgjs"><defs id="SvgjsDefs1007"><marker id="SvgjsMarker1078" markerWidth="12" markerHeight="8" refX="9" refY="4" viewBox="0 0 12 8" orient="auto" markerUnits="userSpaceOnUse" stroke-dasharray="0,0"><path id="SvgjsPath1079" d="M0,0 L12,4 L0,8 L0,0" fill="#323232" stroke="#323232" stroke-width="1"></path></marker><marker id="SvgjsMarker1082" markerWidth="12" markerHeight="8" refX="9" refY="4" viewBox="0 0 12 8" orient="auto" markerUnits="userSpaceOnUse" stroke-dasharray="0,0"><path id="SvgjsPath1083" d="M0,0 L12,4 L0,8 L0,0" fill="#323232" stroke="#323232" stroke-width="1"></path></marker><marker id="SvgjsMarker1086" markerWidth="12" markerHeight="8" refX="9" refY="4" viewBox="0 0 12 8" orient="auto" markerUnits="userSpaceOnUse" stroke-dasharray="0,0"><path id="SvgjsPath1087" d="M0,0 L12,4 L0,8 L0,0" fill="#323232" stroke="#323232" stroke-width="1"></path></marker><marker id="SvgjsMarker1090" markerWidth="12" markerHeight="8" refX="9" refY="4" viewBox="0 0 12 8" orient="auto" markerUnits="userSpaceOnUse" stroke-dasharray="0,0"><path id="SvgjsPath1091" d="M0,0 L12,4 L0,8 L0,0" fill="#323232" stroke="#323232" stroke-width="1"></path></marker><marker id="SvgjsMarker1094" markerWidth="12" markerHeight="8" refX="9" refY="4" viewBox="0 0 12 8" orient="auto" markerUnits="userSpaceOnUse" stroke-dasharray="0,0"><path id="SvgjsPath1095" d="M0,0 L12,4 L0,8 L0,0" fill="#323232" stroke="#323232" stroke-width="1"></path></marker><marker id="SvgjsMarker1098" markerWidth="12" markerHeight="8" refX="9" refY="4" viewBox="0 0 12 8" orient="auto" markerUnits="userSpaceOnUse" stroke-dasharray="0,0"><path id="SvgjsPath1099" d="M0,0 L12,4 L0,8 L0,0" fill="#323232" stroke="#323232" stroke-width="1"></path></marker><marker id="SvgjsMarker1120" markerWidth="12" markerHeight="8" refX="9" refY="4" viewBox="0 0 12 8" orient="auto" markerUnits="userSpaceOnUse" stroke-dasharray="0,0"><path id="SvgjsPath1121" d="M0,0 L12,4 L0,8 L0,0" fill="#323232" stroke="#323232" stroke-width="1"></path></marker><marker id="SvgjsMarker1124" markerWidth="12" markerHeight="8" refX="9" refY="4" viewBox="0 0 12 8" orient="auto" markerUnits="userSpaceOnUse" stroke-dasharray="0,0"><path id="SvgjsPath1125" d="M0,0 L12,4 L0,8 L0,0" fill="#323232" stroke="#323232" stroke-width="1"></path></marker><marker id="SvgjsMarker1128" markerWidth="12" markerHeight="8" refX="9" refY="4" viewBox="0 0 12 8" orient="auto" markerUnits="userSpaceOnUse" stroke-dasharray="0,0"><path id="SvgjsPath1129" d="M0,0 L12,4 L0,8 L0,0" fill="#323232" stroke="#323232" stroke-width="1"></path></marker><marker id="SvgjsMarker1132" markerWidth="12" markerHeight="8" refX="9" refY="4" viewBox="0 0 12 8" orient="auto" markerUnits="userSpaceOnUse" stroke-dasharray="0,0"><path id="SvgjsPath1133" d="M0,0 L12,4 L0,8 L0,0" fill="#323232" stroke="#323232" stroke-width="1"></path></marker><marker id="SvgjsMarker1208" markerWidth="12" markerHeight="8" refX="9" refY="4" viewBox="0 0 12 8" orient="auto" markerUnits="userSpaceOnUse" stroke-dasharray="0,0"><path id="SvgjsPath1209" d="M0,0 L12,4 L0,8 L0,0" fill="#323232" stroke="#323232" stroke-width="1"></path></marker><marker id="SvgjsMarker1212" markerWidth="12" markerHeight="8" refX="9" refY="4" viewBox="0 0 12 8" orient="auto" markerUnits="userSpaceOnUse" stroke-dasharray="0,0"><path id="SvgjsPath1213" d="M0,0 L12,4 L0,8 L0,0" fill="#323232" stroke="#323232" stroke-width="1"></path></marker><marker id="SvgjsMarker1216" markerWidth="12" markerHeight="8" refX="9" refY="4" viewBox="0 0 12 8" orient="auto" markerUnits="userSpaceOnUse" stroke-dasharray="0,0"><path id="SvgjsPath1217" d="M0,0 L12,4 L0,8 L0,0" fill="#323232" stroke="#323232" stroke-width="1"></path></marker><marker id="SvgjsMarker1220" markerWidth="12" markerHeight="8" refX="9" refY="4" viewBox="0 0 12 8" orient="auto" markerUnits="userSpaceOnUse" stroke-dasharray="0,0"><path id="SvgjsPath1221" d="M0,0 L12,4 L0,8 L0,0" fill="#323232" stroke="#323232" stroke-width="1"></path></marker><marker id="SvgjsMarker1224" markerWidth="12" markerHeight="8" refX="9" refY="4" viewBox="0 0 12 8" orient="auto" markerUnits="userSpaceOnUse" stroke-dasharray="0,0"><path id="SvgjsPath1225" d="M0,0 L12,4 L0,8 L0,0" fill="#323232" stroke="#323232" stroke-width="1"></path></marker><marker id="SvgjsMarker1228" markerWidth="12" markerHeight="8" refX="9" refY="4" viewBox="0 0 12 8" orient="auto" markerUnits="userSpaceOnUse" stroke-dasharray="0,0"><path id="SvgjsPath1229" d="M0,0 L12,4 L0,8 L0,0" fill="#323232" stroke="#323232" stroke-width="1"></path></marker><marker id="SvgjsMarker1238" markerWidth="12" markerHeight="8" refX="9" refY="4" viewBox="0 0 12 8" orient="auto" markerUnits="userSpaceOnUse" stroke-dasharray="0,0"><path id="SvgjsPath1239" d="M0,0 L12,4 L0,8 L0,0" fill="#323232" stroke="#323232" stroke-width="1"></path></marker><marker id="SvgjsMarker1242" markerWidth="12" markerHeight="8" refX="9" refY="4" viewBox="0 0 12 8" orient="auto" markerUnits="userSpaceOnUse" stroke-dasharray="0,0"><path id="SvgjsPath1243" d="M0,0 L12,4 L0,8 L0,0" fill="#323232" stroke="#323232" stroke-width="1"></path></marker><marker id="SvgjsMarker1256" markerWidth="12" markerHeight="8" refX="9" refY="4" viewBox="0 0 12 8" orient="auto" markerUnits="userSpaceOnUse" stroke-dasharray="0,0"><path id="SvgjsPath1257" d="M0,0 L12,4 L0,8 L0,0" fill="#323232" stroke="#323232" stroke-width="1"></path></marker><marker id="SvgjsMarker1328" markerWidth="12" markerHeight="8" refX="9" refY="4" viewBox="0 0 12 8" orient="auto" markerUnits="userSpaceOnUse" stroke-dasharray="0,0"><path id="SvgjsPath1329" d="M0,0 L12,4 L0,8 L0,0" fill="#323232" stroke="#323232" stroke-width="1"></path></marker><marker id="SvgjsMarker1332" markerWidth="12" markerHeight="8" refX="9" refY="4" viewBox="0 0 12 8" orient="auto" markerUnits="userSpaceOnUse" stroke-dasharray="0,0"><path id="SvgjsPath1333" d="M0,0 L12,4 L0,8 L0,0" fill="#323232" stroke="#323232" stroke-width="1"></path></marker><marker id="SvgjsMarker1336" markerWidth="12" markerHeight="8" refX="9" refY="4" viewBox="0 0 12 8" orient="auto" markerUnits="userSpaceOnUse" stroke-dasharray="0,0"><path id="SvgjsPath1337" d="M0,0 L12,4 L0,8 L0,0" fill="#323232" stroke="#323232" stroke-width="1"></path></marker><marker id="SvgjsMarker1340" markerWidth="12" markerHeight="8" refX="9" refY="4" viewBox="0 0 12 8" orient="auto" markerUnits="userSpaceOnUse" stroke-dasharray="0,0"><path id="SvgjsPath1341" d="M0,0 L12,4 L0,8 L0,0" fill="#323232" stroke="#323232" stroke-width="1"></path></marker><marker id="SvgjsMarker1344" markerWidth="12" markerHeight="8" refX="9" refY="4" viewBox="0 0 12 8" orient="auto" markerUnits="userSpaceOnUse" stroke-dasharray="0,0"><path id="SvgjsPath1345" d="M0,0 L12,4 L0,8 L0,0" fill="#323232" stroke="#323232" stroke-width="1"></path></marker><marker id="SvgjsMarker1348" markerWidth="12" markerHeight="8" refX="9" refY="4" viewBox="0 0 12 8" orient="auto" markerUnits="userSpaceOnUse" stroke-dasharray="0,0"><path id="SvgjsPath1349" d="M0,0 L12,4 L0,8 L0,0" fill="#323232" stroke="#323232" stroke-width="1"></path></marker><marker id="SvgjsMarker1370" markerWidth="12" markerHeight="8" refX="9" refY="4" viewBox="0 0 12 8" orient="auto" markerUnits="userSpaceOnUse" stroke-dasharray="0,0"><path id="SvgjsPath1371" d="M0,0 L12,4 L0,8 L0,0" fill="#323232" stroke="#323232" stroke-width="1"></path></marker><marker id="SvgjsMarker1374" markerWidth="12" markerHeight="8" refX="9" refY="4" viewBox="0 0 12 8" orient="auto" markerUnits="userSpaceOnUse" stroke-dasharray="0,0"><path id="SvgjsPath1375" d="M0,0 L12,4 L0,8 L0,0" fill="#323232" stroke="#323232" stroke-width="1"></path></marker><marker id="SvgjsMarker1378" markerWidth="12" markerHeight="8" refX="9" refY="4" viewBox="0 0 12 8" orient="auto" markerUnits="userSpaceOnUse" stroke-dasharray="0,0"><path id="SvgjsPath1379" d="M0,0 L12,4 L0,8 L0,0" fill="#323232" stroke="#323232" stroke-width="1"></path></marker><marker id="SvgjsMarker1382" markerWidth="12" markerHeight="8" refX="9" refY="4" viewBox="0 0 12 8" orient="auto" markerUnits="userSpaceOnUse" stroke-dasharray="0,0"><path id="SvgjsPath1383" d="M0,0 L12,4 L0,8 L0,0" fill="#323232" stroke="#323232" stroke-width="1"></path></marker></defs><g id="SvgjsG1008" transform="translate(25.000000000000114,25)"><path id="SvgjsPath1009" d="M 0 0L 180 0L 180 584.75L 0 584.75Z" stroke="rgba(50,50,50,1)" stroke-width="1" fill="none"></path><path id="SvgjsPath1010" d="M 0 0L 180 0L 180 40L 0 40Z" stroke="rgba(50,50,50,1)" stroke-width="1" fill-opacity="1" fill="#ffffff"></path><g id="SvgjsG1011"><text id="SvgjsText1012" font-family="&quot;Times New Roman&quot;" text-anchor="middle" font-size="16px" width="160px" fill="#323232" font-weight="400" align="middle" lineHeight="125%" anchor="middle" family="&quot;Times New Roman&quot;" size="16px" weight="400" font-style="" opacity="1" y="6" transform="rotate(0)"><tspan id="SvgjsTspan1013" dy="20" x="90"><tspan id="SvgjsTspan1014" style="text-decoration:;">T1</tspan></tspan></text></g></g><g id="SvgjsG1015" transform="translate(55.000000000000114,92.5)"><path id="SvgjsPath1016" d="M 0 18Q 0 0 18 0L 102 0Q 120 0 120 18L 120 17Q 120 35 102 35L 18 35Q 0 35 0 17L 0 18Z" stroke="rgba(50,50,50,1)" stroke-width="1" fill-opacity="1" fill="#f8f8f8"></path><g id="SvgjsG1017"><text id="SvgjsText1018" font-family="&quot;Times New Roman&quot;" text-anchor="middle" font-size="13px" width="100px" fill="#323232" font-weight="400" align="middle" lineHeight="125%" anchor="middle" family="&quot;Times New Roman&quot;" size="13px" weight="400" font-style="" opacity="1" y="6.875" transform="rotate(0)"><tspan id="SvgjsTspan1019" dy="16" x="60"><tspan id="SvgjsTspan1020" style="text-decoration:;">Lock-X(A)</tspan></tspan></text></g></g><g id="SvgjsG1021" transform="translate(55.000000000000114,143.25)"><path id="SvgjsPath1022" d="M 0 18Q 0 0 18 0L 102 0Q 120 0 120 18L 120 17Q 120 35 102 35L 18 35Q 0 35 0 17L 0 18Z" stroke="rgba(50,50,50,1)" stroke-width="1" fill-opacity="1" fill="#ffffff"></path><g id="SvgjsG1023"><text id="SvgjsText1024" font-family="&quot;Times New Roman&quot;" text-anchor="middle" font-size="13px" width="100px" fill="#323232" font-weight="400" align="middle" lineHeight="125%" anchor="middle" family="&quot;Times New Roman&quot;" size="13px" weight="400" font-style="" opacity="1" y="6.875" transform="rotate(0)"><tspan id="SvgjsTspan1025" dy="16" x="60"><tspan id="SvgjsTspan1026" style="text-decoration:;">read A = 20</tspan></tspan></text></g></g><g id="SvgjsG1027" transform="translate(205.0000000000001,25)"><path id="SvgjsPath1028" d="M 0 0L 178 0L 178 584.75L 0 584.75Z" stroke="rgba(50,50,50,1)" stroke-width="1" fill="none"></path><path id="SvgjsPath1029" d="M 0 0L 178 0L 178 40L 0 40Z" stroke="rgba(50,50,50,1)" stroke-width="1" fill-opacity="1" fill="#ffffff"></path><g id="SvgjsG1030"><text id="SvgjsText1031" font-family="&quot;Times New Roman&quot;" text-anchor="middle" font-size="16px" width="158px" fill="#323232" font-weight="400" align="middle" lineHeight="125%" anchor="middle" family="&quot;Times New Roman&quot;" size="16px" weight="400" font-style="" opacity="1" y="6" transform="rotate(0)"><tspan id="SvgjsTspan1032" dy="20" x="89"><tspan id="SvgjsTspan1033" style="text-decoration:;">T2</tspan></tspan></text></g></g><g id="SvgjsG1034" transform="translate(234.0000000000001,193)"><path id="SvgjsPath1035" d="M 0 18Q 0 0 18 0L 102 0Q 120 0 120 18L 120 17Q 120 35 102 35L 18 35Q 0 35 0 17L 0 18Z" stroke="rgba(50,50,50,1)" stroke-width="1" fill-opacity="1" fill="#f8f8f8"></path><g id="SvgjsG1036"><text id="SvgjsText1037" font-family="&quot;Times New Roman&quot;" text-anchor="middle" font-size="13px" width="100px" fill="#323232" font-weight="400" align="middle" lineHeight="125%" anchor="middle" family="&quot;Times New Roman&quot;" size="13px" weight="400" font-style="" opacity="1" y="6.875" transform="rotate(0)"><tspan id="SvgjsTspan1038" dy="16" x="60"><tspan id="SvgjsTspan1039" style="text-decoration:;">Lock-X(A)</tspan></tspan></text></g></g><g id="SvgjsG1040" transform="translate(234.0000000000001,243)"><path id="SvgjsPath1041" d="M 0 18Q 0 0 18 0L 102 0Q 120 0 120 18L 120 17Q 120 35 102 35L 18 35Q 0 35 0 17L 0 18Z" stroke="rgba(50,50,50,1)" stroke-width="1" fill-opacity="1" fill="#ffffff"></path><g id="SvgjsG1042"><text id="SvgjsText1043" font-family="&quot;Times New Roman&quot;" text-anchor="middle" font-size="13px" width="100px" fill="#323232" font-weight="400" align="middle" lineHeight="125%" anchor="middle" family="&quot;Times New Roman&quot;" size="13px" weight="400" font-style="" opacity="1" y="6.875" transform="rotate(0)"><tspan id="SvgjsTspan1044" dy="16" x="60"><tspan id="SvgjsTspan1045" style="text-decoration:;">wating</tspan></tspan></text></g></g><g id="SvgjsG1046" transform="translate(55.000000000000114,243)"><path id="SvgjsPath1047" d="M 0 18Q 0 0 18 0L 102 0Q 120 0 120 18L 120 17Q 120 35 102 35L 18 35Q 0 35 0 17L 0 18Z" stroke="rgba(50,50,50,1)" stroke-width="1" fill-opacity="1" fill="#ffffff"></path><g id="SvgjsG1048"><text id="SvgjsText1049" font-family="&quot;Times New Roman&quot;" text-anchor="middle" font-size="13px" width="100px" fill="#323232" font-weight="400" align="middle" lineHeight="125%" anchor="middle" family="&quot;Times New Roman&quot;" size="13px" weight="400" font-style="" opacity="1" y="6.875" transform="rotate(0)"><tspan id="SvgjsTspan1050" dy="16" x="60"><tspan id="SvgjsTspan1051" style="text-decoration:;">write A = 25</tspan></tspan></text></g></g><g id="SvgjsG1052" transform="translate(55.000000000000114,293)"><path id="SvgjsPath1053" d="M 0 18Q 0 0 18 0L 102 0Q 120 0 120 18L 120 17Q 120 35 102 35L 18 35Q 0 35 0 17L 0 18Z" stroke="rgba(50,50,50,1)" stroke-width="1" fill-opacity="1" fill="#cce5ff"></path><g id="SvgjsG1054"><text id="SvgjsText1055" font-family="&quot;Times New Roman&quot;" text-anchor="middle" font-size="13px" width="100px" fill="#323232" font-weight="400" align="middle" lineHeight="125%" anchor="middle" family="&quot;Times New Roman&quot;" size="13px" weight="400" font-style="" opacity="1" y="6.875" transform="rotate(0)"><tspan id="SvgjsTspan1056" dy="16" x="60"><tspan id="SvgjsTspan1057" style="text-decoration:;">commit</tspan></tspan></text></g></g><g id="SvgjsG1058" transform="translate(55.000000000000114,343)"><path id="SvgjsPath1059" d="M 0 18Q 0 0 18 0L 102 0Q 120 0 120 18L 120 17Q 120 35 102 35L 18 35Q 0 35 0 17L 0 18Z" stroke="rgba(50,50,50,1)" stroke-width="1" fill-opacity="1" fill="#f8f8f8"></path><g id="SvgjsG1060"><text id="SvgjsText1061" font-family="&quot;Times New Roman&quot;" text-anchor="middle" font-size="13px" width="100px" fill="#323232" font-weight="400" align="middle" lineHeight="125%" anchor="middle" family="&quot;Times New Roman&quot;" size="13px" weight="400" font-style="" opacity="1" y="6.875" transform="rotate(0)"><tspan id="SvgjsTspan1062" dy="16" x="60"><tspan id="SvgjsTspan1063" style="text-decoration:;">Unlock-X(A)</tspan></tspan></text></g></g><g id="SvgjsG1064" transform="translate(234.0000000000001,343)"><path id="SvgjsPath1065" d="M 0 18Q 0 0 18 0L 102 0Q 120 0 120 18L 120 17Q 120 35 102 35L 18 35Q 0 35 0 17L 0 18Z" stroke="rgba(50,50,50,1)" stroke-width="1" fill-opacity="1" fill="#ffffff"></path><g id="SvgjsG1066"><text id="SvgjsText1067" font-family="&quot;Times New Roman&quot;" text-anchor="middle" font-size="13px" width="100px" fill="#323232" font-weight="400" align="middle" lineHeight="125%" anchor="middle" family="&quot;Times New Roman&quot;" size="13px" weight="400" font-style="" opacity="1" y="6.875" transform="rotate(0)"><tspan id="SvgjsTspan1068" dy="16" x="60"><tspan id="SvgjsTspan1069" style="text-decoration:;">obtaining</tspan></tspan></text></g></g><g id="SvgjsG1070" transform="translate(234.0000000000001,393.25)"><path id="SvgjsPath1071" d="M 0 18Q 0 0 18 0L 102 0Q 120 0 120 18L 120 17Q 120 35 102 35L 18 35Q 0 35 0 17L 0 18Z" stroke="rgba(50,50,50,1)" stroke-width="1" fill-opacity="1" fill="#ffffff"></path><g id="SvgjsG1072"><text id="SvgjsText1073" font-family="&quot;Times New Roman&quot;" text-anchor="middle" font-size="13px" width="100px" fill="#323232" font-weight="400" align="middle" lineHeight="125%" anchor="middle" family="&quot;Times New Roman&quot;" size="13px" weight="400" font-style="" opacity="1" y="6.875" transform="rotate(0)"><tspan id="SvgjsTspan1074" dy="16" x="60"><tspan id="SvgjsTspan1075" style="text-decoration:;">read A = 25</tspan></tspan></text></g></g><g id="SvgjsG1076"><path id="SvgjsPath1077" d="M294.0000000000001 378.5L294.0000000000001 385.625L294.0000000000001 385.625L294.0000000000001 391.45" stroke="#323232" stroke-width="1" fill="none" marker-end="url(#SvgjsMarker1078)"></path></g><g id="SvgjsG1080"><path id="SvgjsPath1081" d="M115.00000000000011 178.75L115.00000000000011 210.625L115.00000000000011 210.625L115.00000000000011 241.2" stroke="#323232" stroke-width="1" fill="none" marker-end="url(#SvgjsMarker1082)"></path></g><g id="SvgjsG1084"><path id="SvgjsPath1085" d="M115.00000000000011 128L115.00000000000011 135.375L115.00000000000011 135.375L115.00000000000011 141.45" stroke="#323232" stroke-width="1" fill="none" marker-end="url(#SvgjsMarker1086)"></path></g><g id="SvgjsG1088"><path id="SvgjsPath1089" d="M115.00000000000011 278.5L115.00000000000011 285.5L115.00000000000011 285.5L115.00000000000011 291.2" stroke="#323232" stroke-width="1" fill="none" marker-end="url(#SvgjsMarker1090)"></path></g><g id="SvgjsG1092"><path id="SvgjsPath1093" d="M115.00000000000011 328.5L115.00000000000011 335.5L115.00000000000011 335.5L115.00000000000011 341.2" stroke="#323232" stroke-width="1" fill="none" marker-end="url(#SvgjsMarker1094)"></path></g><g id="SvgjsG1096"><path id="SvgjsPath1097" d="M294.0000000000001 228.5L294.0000000000001 235.5L294.0000000000001 235.5L294.0000000000001 241.2" stroke="#323232" stroke-width="1" fill="none" marker-end="url(#SvgjsMarker1098)"></path></g><g id="SvgjsG1100" transform="translate(234.0000000000001,443.5)"><path id="SvgjsPath1101" d="M 0 18Q 0 0 18 0L 102 0Q 120 0 120 18L 120 17Q 120 35 102 35L 18 35Q 0 35 0 17L 0 18Z" stroke="rgba(50,50,50,1)" stroke-width="1" fill-opacity="1" fill="#ffffff"></path><g id="SvgjsG1102"><text id="SvgjsText1103" font-family="&quot;Times New Roman&quot;" text-anchor="middle" font-size="13px" width="100px" fill="#323232" font-weight="400" align="middle" lineHeight="125%" anchor="middle" family="&quot;Times New Roman&quot;" size="13px" weight="400" font-style="" opacity="1" y="6.875" transform="rotate(0)"><tspan id="SvgjsTspan1104" dy="16" x="60"><tspan id="SvgjsTspan1105" style="text-decoration:;">write A = 30</tspan></tspan></text></g></g><g id="SvgjsG1106" transform="translate(234.0000000000001,493.75)"><path id="SvgjsPath1107" d="M 0 18Q 0 0 18 0L 102 0Q 120 0 120 18L 120 17Q 120 35 102 35L 18 35Q 0 35 0 17L 0 18Z" stroke="rgba(50,50,50,1)" stroke-width="1" fill-opacity="1" fill="#cce5ff"></path><g id="SvgjsG1108"><text id="SvgjsText1109" font-family="&quot;Times New Roman&quot;" text-anchor="middle" font-size="13px" width="100px" fill="#323232" font-weight="400" align="middle" lineHeight="125%" anchor="middle" family="&quot;Times New Roman&quot;" size="13px" weight="400" font-style="" opacity="1" y="6.875" transform="rotate(0)"><tspan id="SvgjsTspan1110" dy="16" x="60"><tspan id="SvgjsTspan1111" style="text-decoration:;">commit</tspan></tspan></text></g></g><g id="SvgjsG1112" transform="translate(234.0000000000001,544)"><path id="SvgjsPath1113" d="M 0 18Q 0 0 18 0L 102 0Q 120 0 120 18L 120 17Q 120 35 102 35L 18 35Q 0 35 0 17L 0 18Z" stroke="rgba(50,50,50,1)" stroke-width="1" fill-opacity="1" fill="#f8f8f8"></path><g id="SvgjsG1114"><text id="SvgjsText1115" font-family="&quot;Times New Roman&quot;" text-anchor="middle" font-size="13px" width="100px" fill="#323232" font-weight="400" align="middle" lineHeight="125%" anchor="middle" family="&quot;Times New Roman&quot;" size="13px" weight="400" font-style="" opacity="1" y="6.875" transform="rotate(0)"><tspan id="SvgjsTspan1116" dy="16" x="60"><tspan id="SvgjsTspan1117" style="text-decoration:;">Unlock-X(A)</tspan></tspan></text></g></g><g id="SvgjsG1118"><path id="SvgjsPath1119" d="M294.0000000000001 428.75L294.0000000000001 435.875L294.0000000000001 435.875L294.0000000000001 441.7" stroke="#323232" stroke-width="1" fill="none" marker-end="url(#SvgjsMarker1120)"></path></g><g id="SvgjsG1122"><path id="SvgjsPath1123" d="M294.0000000000001 479L294.0000000000001 486.125L294.0000000000001 486.125L294.0000000000001 491.95000000000005" stroke="#323232" stroke-width="1" fill="none" marker-end="url(#SvgjsMarker1124)"></path></g><g id="SvgjsG1126"><path id="SvgjsPath1127" d="M294.0000000000001 529.25L294.0000000000001 536.375L294.0000000000001 536.375L294.0000000000001 542.2" stroke="#323232" stroke-width="1" fill="none" marker-end="url(#SvgjsMarker1128)"></path></g><g id="SvgjsG1130"><path id="SvgjsPath1131" d="M294.0000000000001 278.5L294.0000000000001 310.5L294.0000000000001 310.5L294.0000000000001 341.2" stroke="#323232" stroke-width="1" fill="none" marker-end="url(#SvgjsMarker1132)"></path><rect id="SvgjsRect1134" width="9" height="16" x="289.5000000000001" y="301.84999999999997" fill="#ffffff"></rect><text id="SvgjsText1135" font-family="微软雅黑" text-anchor="middle" font-size="13px" width="9px" fill="#323232" font-weight="400" align="top" lineHeight="16px" anchor="middle" family="微软雅黑" size="13px" weight="400" font-style="" opacity="1" y="299.22499999999997" transform="rotate(0)"><tspan id="SvgjsTspan1136" dy="16" x="294.0000000000001"><tspan id="SvgjsTspan1137" style="text-decoration:;">···</tspan></tspan></text></g><g id="SvgjsG1138" transform="translate(414.49999999999994,25)"><path id="SvgjsPath1139" d="M 0 0L 180 0L 180 584.75L 0 584.75Z" stroke="rgba(50,50,50,1)" stroke-width="1" fill="none"></path><path id="SvgjsPath1140" d="M 0 0L 180 0L 180 40L 0 40Z" stroke="rgba(50,50,50,1)" stroke-width="1" fill-opacity="1" fill="#ffffff"></path><g id="SvgjsG1141"><text id="SvgjsText1142" font-family="&quot;Times New Roman&quot;" text-anchor="middle" font-size="16px" width="160px" fill="#323232" font-weight="400" align="middle" lineHeight="125%" anchor="middle" family="&quot;Times New Roman&quot;" size="16px" weight="400" font-style="" opacity="1" y="6" transform="rotate(0)"><tspan id="SvgjsTspan1143" dy="20" x="90"><tspan id="SvgjsTspan1144" style="text-decoration:;">T1</tspan></tspan></text></g></g><g id="SvgjsG1145" transform="translate(444.49999999999994,92.5)"><path id="SvgjsPath1146" d="M 0 18Q 0 0 18 0L 102 0Q 120 0 120 18L 120 17Q 120 35 102 35L 18 35Q 0 35 0 17L 0 18Z" stroke="rgba(50,50,50,1)" stroke-width="1" fill-opacity="1" fill="#f8f8f8"></path><g id="SvgjsG1147"><text id="SvgjsText1148" font-family="&quot;Times New Roman&quot;" text-anchor="middle" font-size="13px" width="100px" fill="#323232" font-weight="400" align="middle" lineHeight="125%" anchor="middle" family="&quot;Times New Roman&quot;" size="13px" weight="400" font-style="" opacity="1" y="6.875" transform="rotate(0)"><tspan id="SvgjsTspan1149" dy="16" x="60"><tspan id="SvgjsTspan1150" style="text-decoration:;">Lock-X(A)</tspan></tspan></text></g></g><g id="SvgjsG1151" transform="translate(444.49999999999994,143.25)"><path id="SvgjsPath1152" d="M 0 18Q 0 0 18 0L 102 0Q 120 0 120 18L 120 17Q 120 35 102 35L 18 35Q 0 35 0 17L 0 18Z" stroke="rgba(50,50,50,1)" stroke-width="1" fill-opacity="1" fill="#ffffff"></path><g id="SvgjsG1153"><text id="SvgjsText1154" font-family="&quot;Times New Roman&quot;" text-anchor="middle" font-size="13px" width="100px" fill="#323232" font-weight="400" align="middle" lineHeight="125%" anchor="middle" family="&quot;Times New Roman&quot;" size="13px" weight="400" font-style="" opacity="1" y="6.875" transform="rotate(0)"><tspan id="SvgjsTspan1155" dy="16" x="60"><tspan id="SvgjsTspan1156" style="text-decoration:;">read A = 20</tspan></tspan></text></g></g><g id="SvgjsG1157" transform="translate(594.4999999999999,25)"><path id="SvgjsPath1158" d="M 0 0L 178 0L 178 584.75L 0 584.75Z" stroke="rgba(50,50,50,1)" stroke-width="1" fill="none"></path><path id="SvgjsPath1159" d="M 0 0L 178 0L 178 40L 0 40Z" stroke="rgba(50,50,50,1)" stroke-width="1" fill-opacity="1" fill="#ffffff"></path><g id="SvgjsG1160"><text id="SvgjsText1161" font-family="&quot;Times New Roman&quot;" text-anchor="middle" font-size="16px" width="158px" fill="#323232" font-weight="400" align="middle" lineHeight="125%" anchor="middle" family="&quot;Times New Roman&quot;" size="16px" weight="400" font-style="" opacity="1" y="6" transform="rotate(0)"><tspan id="SvgjsTspan1162" dy="20" x="89"><tspan id="SvgjsTspan1163" style="text-decoration:;">T2</tspan></tspan></text></g></g><g id="SvgjsG1164" transform="translate(623.4999999999999,243)"><path id="SvgjsPath1165" d="M 0 18Q 0 0 18 0L 102 0Q 120 0 120 18L 120 17Q 120 35 102 35L 18 35Q 0 35 0 17L 0 18Z" stroke="rgba(50,50,50,1)" stroke-width="1" fill-opacity="1" fill="#f8f8f8"></path><g id="SvgjsG1166"><text id="SvgjsText1167" font-family="&quot;Times New Roman&quot;" text-anchor="middle" font-size="13px" width="100px" fill="#323232" font-weight="400" align="middle" lineHeight="125%" anchor="middle" family="&quot;Times New Roman&quot;" size="13px" weight="400" font-style="" opacity="1" y="6.875" transform="rotate(0)"><tspan id="SvgjsTspan1168" dy="16" x="60"><tspan id="SvgjsTspan1169" style="text-decoration:;">Lock-S(A)</tspan></tspan></text></g></g><g id="SvgjsG1170" transform="translate(623.4999999999999,293)"><path id="SvgjsPath1171" d="M 0 18Q 0 0 18 0L 102 0Q 120 0 120 18L 120 17Q 120 35 102 35L 18 35Q 0 35 0 17L 0 18Z" stroke="rgba(50,50,50,1)" stroke-width="1" fill-opacity="1" fill="#ffffff"></path><g id="SvgjsG1172"><text id="SvgjsText1173" font-family="&quot;Times New Roman&quot;" text-anchor="middle" font-size="13px" width="100px" fill="#323232" font-weight="400" align="middle" lineHeight="125%" anchor="middle" family="&quot;Times New Roman&quot;" size="13px" weight="400" font-style="" opacity="1" y="6.875" transform="rotate(0)"><tspan id="SvgjsTspan1174" dy="16" x="60"><tspan id="SvgjsTspan1175" style="text-decoration:;">wating</tspan></tspan></text></g></g><g id="SvgjsG1176" transform="translate(444.49999999999994,193)"><path id="SvgjsPath1177" d="M 0 18Q 0 0 18 0L 102 0Q 120 0 120 18L 120 17Q 120 35 102 35L 18 35Q 0 35 0 17L 0 18Z" stroke="rgba(50,50,50,1)" stroke-width="1" fill-opacity="1" fill="#ffffff"></path><g id="SvgjsG1178"><text id="SvgjsText1179" font-family="&quot;Times New Roman&quot;" text-anchor="middle" font-size="13px" width="100px" fill="#323232" font-weight="400" align="middle" lineHeight="125%" anchor="middle" family="&quot;Times New Roman&quot;" size="13px" weight="400" font-style="" opacity="1" y="6.875" transform="rotate(0)"><tspan id="SvgjsTspan1180" dy="16" x="60"><tspan id="SvgjsTspan1181" style="text-decoration:;">write A = 25</tspan></tspan></text></g></g><g id="SvgjsG1182" transform="translate(444.49999999999994,293)"><path id="SvgjsPath1183" d="M 0 18Q 0 0 18 0L 102 0Q 120 0 120 18L 120 17Q 120 35 102 35L 18 35Q 0 35 0 17L 0 18Z" stroke="rgba(50,50,50,1)" stroke-width="1" fill-opacity="1" fill="#ffe6cc"></path><g id="SvgjsG1184"><text id="SvgjsText1185" font-family="&quot;Times New Roman&quot;" text-anchor="middle" font-size="13px" width="100px" fill="#323232" font-weight="400" align="middle" lineHeight="125%" anchor="middle" family="&quot;Times New Roman&quot;" size="13px" weight="400" font-style="" opacity="1" y="6.875" transform="rotate(0)"><tspan id="SvgjsTspan1186" dy="16" x="60"><tspan id="SvgjsTspan1187" style="text-decoration:;">Rollback</tspan></tspan></text></g></g><g id="SvgjsG1188" transform="translate(444.49999999999994,393.49999999999994)"><path id="SvgjsPath1189" d="M 0 18Q 0 0 18 0L 102 0Q 120 0 120 18L 120 17Q 120 35 102 35L 18 35Q 0 35 0 17L 0 18Z" stroke="rgba(50,50,50,1)" stroke-width="1" fill-opacity="1" fill="#f8f8f8"></path><g id="SvgjsG1190"><text id="SvgjsText1191" font-family="&quot;Times New Roman&quot;" text-anchor="middle" font-size="13px" width="100px" fill="#323232" font-weight="400" align="middle" lineHeight="125%" anchor="middle" family="&quot;Times New Roman&quot;" size="13px" weight="400" font-style="" opacity="1" y="6.875" transform="rotate(0)"><tspan id="SvgjsTspan1192" dy="16" x="60"><tspan id="SvgjsTspan1193" style="text-decoration:;">Unlock-X(A)</tspan></tspan></text></g></g><g id="SvgjsG1194" transform="translate(623.4999999999999,393.5)"><path id="SvgjsPath1195" d="M 0 18Q 0 0 18 0L 102 0Q 120 0 120 18L 120 17Q 120 35 102 35L 18 35Q 0 35 0 17L 0 18Z" stroke="rgba(50,50,50,1)" stroke-width="1" fill-opacity="1" fill="#ffffff"></path><g id="SvgjsG1196"><text id="SvgjsText1197" font-family="&quot;Times New Roman&quot;" text-anchor="middle" font-size="13px" width="100px" fill="#323232" font-weight="400" align="middle" lineHeight="125%" anchor="middle" family="&quot;Times New Roman&quot;" size="13px" weight="400" font-style="" opacity="1" y="6.875" transform="rotate(0)"><tspan id="SvgjsTspan1198" dy="16" x="60"><tspan id="SvgjsTspan1199" style="text-decoration:;">obtaining</tspan></tspan></text></g></g><g id="SvgjsG1200" transform="translate(623.4999999999999,443.49999999999994)"><path id="SvgjsPath1201" d="M 0 18Q 0 0 18 0L 102 0Q 120 0 120 18L 120 17Q 120 35 102 35L 18 35Q 0 35 0 17L 0 18Z" stroke="rgba(50,50,50,1)" stroke-width="1" fill-opacity="1" fill="#ffffff"></path><g id="SvgjsG1202"><text id="SvgjsText1203" font-family="&quot;Times New Roman&quot;" text-anchor="middle" font-size="13px" width="100px" fill="#323232" font-weight="400" align="middle" lineHeight="125%" anchor="middle" family="&quot;Times New Roman&quot;" size="13px" weight="400" font-style="" opacity="1" y="6.875" transform="rotate(0)"><tspan id="SvgjsTspan1204" dy="16" x="60"><tspan id="SvgjsTspan1205" style="text-decoration:;">read A = 25</tspan></tspan></text></g></g><g id="SvgjsG1206"><path id="SvgjsPath1207" d="M683.4999999999999 429L683.4999999999999 436L683.4999999999999 436L683.4999999999999 441.69999999999993" stroke="#323232" stroke-width="1" fill="none" marker-end="url(#SvgjsMarker1208)"></path></g><g id="SvgjsG1210"><path id="SvgjsPath1211" d="M504.4999999999999 178.75L504.4999999999999 185.625L504.4999999999999 185.625L504.4999999999999 191.2" stroke="#323232" stroke-width="1" fill="none" marker-end="url(#SvgjsMarker1212)"></path></g><g id="SvgjsG1214"><path id="SvgjsPath1215" d="M504.4999999999999 128L504.4999999999999 135.375L504.4999999999999 135.375L504.4999999999999 141.45" stroke="#323232" stroke-width="1" fill="none" marker-end="url(#SvgjsMarker1216)"></path></g><g id="SvgjsG1218"><path id="SvgjsPath1219" d="M504.4999999999999 228.5L504.4999999999999 260.5L504.4999999999999 260.5L504.4999999999999 291.2" stroke="#323232" stroke-width="1" fill="none" marker-end="url(#SvgjsMarker1220)"></path></g><g id="SvgjsG1222"><path id="SvgjsPath1223" d="M504.4999999999999 328.5L504.4999999999999 335.625L504.4999999999999 335.625L504.4999999999999 341.45" stroke="#323232" stroke-width="1" fill="none" marker-end="url(#SvgjsMarker1224)"></path></g><g id="SvgjsG1226"><path id="SvgjsPath1227" d="M683.4999999999999 278.5L683.4999999999999 285.5L683.4999999999999 285.5L683.4999999999999 291.2" stroke="#323232" stroke-width="1" fill="none" marker-end="url(#SvgjsMarker1228)"></path></g><g id="SvgjsG1230" transform="translate(623.4999999999999,493.75)"><path id="SvgjsPath1231" d="M 0 18Q 0 0 18 0L 102 0Q 120 0 120 18L 120 17Q 120 35 102 35L 18 35Q 0 35 0 17L 0 18Z" stroke="rgba(50,50,50,1)" stroke-width="1" fill-opacity="1" fill="#cce5ff"></path><g id="SvgjsG1232"><text id="SvgjsText1233" font-family="&quot;Times New Roman&quot;" text-anchor="middle" font-size="13px" width="100px" fill="#323232" font-weight="400" align="middle" lineHeight="125%" anchor="middle" family="&quot;Times New Roman&quot;" size="13px" weight="400" font-style="" opacity="1" y="6.875" transform="rotate(0)"><tspan id="SvgjsTspan1234" dy="16" x="60"><tspan id="SvgjsTspan1235" style="text-decoration:;">commit</tspan></tspan></text></g></g><g id="SvgjsG1236"><path id="SvgjsPath1237" d="M683.4999999999999 479L683.4999999999999 486.125L683.4999999999999 486.125L683.4999999999999 493.75" stroke="#323232" stroke-width="1" fill="none" marker-end="url(#SvgjsMarker1238)"></path></g><g id="SvgjsG1240"><path id="SvgjsPath1241" d="M683.4999999999999 328.5L683.4999999999999 360.75L683.4999999999999 360.75L683.4999999999999 391.7" stroke="#323232" stroke-width="1" fill="none" marker-end="url(#SvgjsMarker1242)"></path><rect id="SvgjsRect1244" width="9" height="16" x="678.9999999999999" y="352.1" fill="#ffffff"></rect><text id="SvgjsText1245" font-family="微软雅黑" text-anchor="middle" font-size="13px" width="9px" fill="#323232" font-weight="400" align="top" lineHeight="16px" anchor="middle" family="微软雅黑" size="13px" weight="400" font-style="" opacity="1" y="349.475" transform="rotate(0)"><tspan id="SvgjsTspan1246" dy="16" x="683.4999999999999"><tspan id="SvgjsTspan1247" style="text-decoration:;">···</tspan></tspan></text></g><g id="SvgjsG1248" transform="translate(444.49999999999994,343.25)"><path id="SvgjsPath1249" d="M 0 18Q 0 0 18 0L 102 0Q 120 0 120 18L 120 17Q 120 35 102 35L 18 35Q 0 35 0 17L 0 18Z" stroke="rgba(50,50,50,1)" stroke-width="1" fill-opacity="1" fill="#ffffff"></path><g id="SvgjsG1250"><text id="SvgjsText1251" font-family="&quot;Times New Roman&quot;" text-anchor="middle" font-size="13px" width="100px" fill="#323232" font-weight="400" align="middle" lineHeight="125%" anchor="middle" family="&quot;Times New Roman&quot;" size="13px" weight="400" font-style="" opacity="1" y="6.875" transform="rotate(0)"><tspan id="SvgjsTspan1252" dy="16" x="60"><tspan id="SvgjsTspan1253" style="text-decoration:;">A = 20</tspan></tspan></text></g></g><g id="SvgjsG1254"><path id="SvgjsPath1255" d="M683.4999999999999 528.75L683.4999999999999 536.375L683.4999999999999 536.375L683.4999999999999 542.1999999999999" stroke="#323232" stroke-width="1" fill="none" marker-end="url(#SvgjsMarker1256)"></path></g><g id="SvgjsG1258" transform="translate(802.5,25)"><path id="SvgjsPath1259" d="M 0 0L 180 0L 180 584.75L 0 584.75Z" stroke="rgba(50,50,50,1)" stroke-width="1" fill="none"></path><path id="SvgjsPath1260" d="M 0 0L 180 0L 180 40L 0 40Z" stroke="rgba(50,50,50,1)" stroke-width="1" fill-opacity="1" fill="#ffffff"></path><g id="SvgjsG1261"><text id="SvgjsText1262" font-family="&quot;Times New Roman&quot;" text-anchor="middle" font-size="16px" width="160px" fill="#323232" font-weight="400" align="middle" lineHeight="125%" anchor="middle" family="&quot;Times New Roman&quot;" size="16px" weight="400" font-style="" opacity="1" y="6" transform="rotate(0)"><tspan id="SvgjsTspan1263" dy="20" x="90"><tspan id="SvgjsTspan1264" style="text-decoration:;">T1</tspan></tspan></text></g></g><g id="SvgjsG1265" transform="translate(832.5,92.5)"><path id="SvgjsPath1266" d="M 0 18Q 0 0 18 0L 102 0Q 120 0 120 18L 120 17Q 120 35 102 35L 18 35Q 0 35 0 17L 0 18Z" stroke="rgba(50,50,50,1)" stroke-width="1" fill-opacity="1" fill="#f8f8f8"></path><g id="SvgjsG1267"><text id="SvgjsText1268" font-family="&quot;Times New Roman&quot;" text-anchor="middle" font-size="13px" width="100px" fill="#323232" font-weight="400" align="middle" lineHeight="125%" anchor="middle" family="&quot;Times New Roman&quot;" size="13px" weight="400" font-style="" opacity="1" y="6.875" transform="rotate(0)"><tspan id="SvgjsTspan1269" dy="16" x="60"><tspan id="SvgjsTspan1270" style="text-decoration:;">Lock-S(A)</tspan></tspan></text></g></g><g id="SvgjsG1271" transform="translate(832.5,143.25)"><path id="SvgjsPath1272" d="M 0 18Q 0 0 18 0L 102 0Q 120 0 120 18L 120 17Q 120 35 102 35L 18 35Q 0 35 0 17L 0 18Z" stroke="rgba(50,50,50,1)" stroke-width="1" fill-opacity="1" fill="#ffffff"></path><g id="SvgjsG1273"><text id="SvgjsText1274" font-family="&quot;Times New Roman&quot;" text-anchor="middle" font-size="13px" width="100px" fill="#323232" font-weight="400" align="middle" lineHeight="125%" anchor="middle" family="&quot;Times New Roman&quot;" size="13px" weight="400" font-style="" opacity="1" y="6.875" transform="rotate(0)"><tspan id="SvgjsTspan1275" dy="16" x="60"><tspan id="SvgjsTspan1276" style="text-decoration:;">read A = 20</tspan></tspan></text></g></g><g id="SvgjsG1277" transform="translate(982.5,25)"><path id="SvgjsPath1278" d="M 0 0L 178 0L 178 584.75L 0 584.75Z" stroke="rgba(50,50,50,1)" stroke-width="1" fill="none"></path><path id="SvgjsPath1279" d="M 0 0L 178 0L 178 40L 0 40Z" stroke="rgba(50,50,50,1)" stroke-width="1" fill-opacity="1" fill="#ffffff"></path><g id="SvgjsG1280"><text id="SvgjsText1281" font-family="&quot;Times New Roman&quot;" text-anchor="middle" font-size="16px" width="158px" fill="#323232" font-weight="400" align="middle" lineHeight="125%" anchor="middle" family="&quot;Times New Roman&quot;" size="16px" weight="400" font-style="" opacity="1" y="6" transform="rotate(0)"><tspan id="SvgjsTspan1282" dy="20" x="89"><tspan id="SvgjsTspan1283" style="text-decoration:;">T2</tspan></tspan></text></g></g><g id="SvgjsG1284" transform="translate(1011.5,193)"><path id="SvgjsPath1285" d="M 0 18Q 0 0 18 0L 102 0Q 120 0 120 18L 120 17Q 120 35 102 35L 18 35Q 0 35 0 17L 0 18Z" stroke="rgba(50,50,50,1)" stroke-width="1" fill-opacity="1" fill="#f8f8f8"></path><g id="SvgjsG1286"><text id="SvgjsText1287" font-family="&quot;Times New Roman&quot;" text-anchor="middle" font-size="13px" width="100px" fill="#323232" font-weight="400" align="middle" lineHeight="125%" anchor="middle" family="&quot;Times New Roman&quot;" size="13px" weight="400" font-style="" opacity="1" y="6.875" transform="rotate(0)"><tspan id="SvgjsTspan1288" dy="16" x="60"><tspan id="SvgjsTspan1289" style="text-decoration:;">Lock-X(A)</tspan></tspan></text></g></g><g id="SvgjsG1290" transform="translate(1011.5,243)"><path id="SvgjsPath1291" d="M 0 18Q 0 0 18 0L 102 0Q 120 0 120 18L 120 17Q 120 35 102 35L 18 35Q 0 35 0 17L 0 18Z" stroke="rgba(50,50,50,1)" stroke-width="1" fill-opacity="1" fill="#ffffff"></path><g id="SvgjsG1292"><text id="SvgjsText1293" font-family="&quot;Times New Roman&quot;" text-anchor="middle" font-size="13px" width="100px" fill="#323232" font-weight="400" align="middle" lineHeight="125%" anchor="middle" family="&quot;Times New Roman&quot;" size="13px" weight="400" font-style="" opacity="1" y="6.875" transform="rotate(0)"><tspan id="SvgjsTspan1294" dy="16" x="60"><tspan id="SvgjsTspan1295" style="text-decoration:;">wating</tspan></tspan></text></g></g><g id="SvgjsG1296" transform="translate(832.5,243)"><path id="SvgjsPath1297" d="M 0 18Q 0 0 18 0L 102 0Q 120 0 120 18L 120 17Q 120 35 102 35L 18 35Q 0 35 0 17L 0 18Z" stroke="rgba(50,50,50,1)" stroke-width="1" fill-opacity="1" fill="#ffffff"></path><g id="SvgjsG1298"><text id="SvgjsText1299" font-family="&quot;Times New Roman&quot;" text-anchor="middle" font-size="13px" width="100px" fill="#323232" font-weight="400" align="middle" lineHeight="125%" anchor="middle" family="&quot;Times New Roman&quot;" size="13px" weight="400" font-style="" opacity="1" y="6.875" transform="rotate(0)"><tspan id="SvgjsTspan1300" dy="16" x="60"><tspan id="SvgjsTspan1301" style="text-decoration:;">read A = 20</tspan></tspan></text></g></g><g id="SvgjsG1302" transform="translate(832.5,293)"><path id="SvgjsPath1303" d="M 0 18Q 0 0 18 0L 102 0Q 120 0 120 18L 120 17Q 120 35 102 35L 18 35Q 0 35 0 17L 0 18Z" stroke="rgba(50,50,50,1)" stroke-width="1" fill-opacity="1" fill="#cce5ff"></path><g id="SvgjsG1304"><text id="SvgjsText1305" font-family="&quot;Times New Roman&quot;" text-anchor="middle" font-size="13px" width="100px" fill="#323232" font-weight="400" align="middle" lineHeight="125%" anchor="middle" family="&quot;Times New Roman&quot;" size="13px" weight="400" font-style="" opacity="1" y="6.875" transform="rotate(0)"><tspan id="SvgjsTspan1306" dy="16" x="60"><tspan id="SvgjsTspan1307" style="text-decoration:;">commit</tspan></tspan></text></g></g><g id="SvgjsG1308" transform="translate(832.5,343)"><path id="SvgjsPath1309" d="M 0 18Q 0 0 18 0L 102 0Q 120 0 120 18L 120 17Q 120 35 102 35L 18 35Q 0 35 0 17L 0 18Z" stroke="rgba(50,50,50,1)" stroke-width="1" fill-opacity="1" fill="#f8f8f8"></path><g id="SvgjsG1310"><text id="SvgjsText1311" font-family="&quot;Times New Roman&quot;" text-anchor="middle" font-size="13px" width="100px" fill="#323232" font-weight="400" align="middle" lineHeight="125%" anchor="middle" family="&quot;Times New Roman&quot;" size="13px" weight="400" font-style="" opacity="1" y="6.875" transform="rotate(0)"><tspan id="SvgjsTspan1312" dy="16" x="60"><tspan id="SvgjsTspan1313" style="text-decoration:;">Unlock-S(A)</tspan></tspan></text></g></g><g id="SvgjsG1314" transform="translate(1011.5,343)"><path id="SvgjsPath1315" d="M 0 18Q 0 0 18 0L 102 0Q 120 0 120 18L 120 17Q 120 35 102 35L 18 35Q 0 35 0 17L 0 18Z" stroke="rgba(50,50,50,1)" stroke-width="1" fill-opacity="1" fill="#ffffff"></path><g id="SvgjsG1316"><text id="SvgjsText1317" font-family="&quot;Times New Roman&quot;" text-anchor="middle" font-size="13px" width="100px" fill="#323232" font-weight="400" align="middle" lineHeight="125%" anchor="middle" family="&quot;Times New Roman&quot;" size="13px" weight="400" font-style="" opacity="1" y="6.875" transform="rotate(0)"><tspan id="SvgjsTspan1318" dy="16" x="60"><tspan id="SvgjsTspan1319" style="text-decoration:;">obtaining</tspan></tspan></text></g></g><g id="SvgjsG1320" transform="translate(1011.5,393.5)"><path id="SvgjsPath1321" d="M 0 18Q 0 0 18 0L 102 0Q 120 0 120 18L 120 17Q 120 35 102 35L 18 35Q 0 35 0 17L 0 18Z" stroke="rgba(50,50,50,1)" stroke-width="1" fill-opacity="1" fill="#ffffff"></path><g id="SvgjsG1322"><text id="SvgjsText1323" font-family="&quot;Times New Roman&quot;" text-anchor="middle" font-size="13px" width="100px" fill="#323232" font-weight="400" align="middle" lineHeight="125%" anchor="middle" family="&quot;Times New Roman&quot;" size="13px" weight="400" font-style="" opacity="1" y="6.875" transform="rotate(0)"><tspan id="SvgjsTspan1324" dy="16" x="60"><tspan id="SvgjsTspan1325" style="text-decoration:;">read A = 20</tspan></tspan></text></g></g><g id="SvgjsG1326"><path id="SvgjsPath1327" d="M1071.5 378.5L1071.5 385.75L1071.5 385.75L1071.5 391.7" stroke="#323232" stroke-width="1" fill="none" marker-end="url(#SvgjsMarker1328)"></path></g><g id="SvgjsG1330"><path id="SvgjsPath1331" d="M892.5 178.75L892.5 210.625L892.5 210.625L892.5 241.2" stroke="#323232" stroke-width="1" fill="none" marker-end="url(#SvgjsMarker1332)"></path></g><g id="SvgjsG1334"><path id="SvgjsPath1335" d="M892.5 128L892.5 135.375L892.5 135.375L892.5 141.45" stroke="#323232" stroke-width="1" fill="none" marker-end="url(#SvgjsMarker1336)"></path></g><g id="SvgjsG1338"><path id="SvgjsPath1339" d="M892.5 278.5L892.5 285.5L892.5 285.5L892.5 291.2" stroke="#323232" stroke-width="1" fill="none" marker-end="url(#SvgjsMarker1340)"></path></g><g id="SvgjsG1342"><path id="SvgjsPath1343" d="M892.5 328.5L892.5 335.5L892.5 335.5L892.5 341.2" stroke="#323232" stroke-width="1" fill="none" marker-end="url(#SvgjsMarker1344)"></path></g><g id="SvgjsG1346"><path id="SvgjsPath1347" d="M1071.5 228.5L1071.5 235.5L1071.5 235.5L1071.5 241.2" stroke="#323232" stroke-width="1" fill="none" marker-end="url(#SvgjsMarker1348)"></path></g><g id="SvgjsG1350" transform="translate(1011.5,443.5)"><path id="SvgjsPath1351" d="M 0 18Q 0 0 18 0L 102 0Q 120 0 120 18L 120 17Q 120 35 102 35L 18 35Q 0 35 0 17L 0 18Z" stroke="rgba(50,50,50,1)" stroke-width="1" fill-opacity="1" fill="#ffffff"></path><g id="SvgjsG1352"><text id="SvgjsText1353" font-family="&quot;Times New Roman&quot;" text-anchor="middle" font-size="13px" width="100px" fill="#323232" font-weight="400" align="middle" lineHeight="125%" anchor="middle" family="&quot;Times New Roman&quot;" size="13px" weight="400" font-style="" opacity="1" y="6.875" transform="rotate(0)"><tspan id="SvgjsTspan1354" dy="16" x="60"><tspan id="SvgjsTspan1355" style="text-decoration:;">write A = 25</tspan></tspan></text></g></g><g id="SvgjsG1356" transform="translate(1011.5,493.75)"><path id="SvgjsPath1357" d="M 0 18Q 0 0 18 0L 102 0Q 120 0 120 18L 120 17Q 120 35 102 35L 18 35Q 0 35 0 17L 0 18Z" stroke="rgba(50,50,50,1)" stroke-width="1" fill-opacity="1" fill="#cce5ff"></path><g id="SvgjsG1358"><text id="SvgjsText1359" font-family="&quot;Times New Roman&quot;" text-anchor="middle" font-size="13px" width="100px" fill="#323232" font-weight="400" align="middle" lineHeight="125%" anchor="middle" family="&quot;Times New Roman&quot;" size="13px" weight="400" font-style="" opacity="1" y="6.875" transform="rotate(0)"><tspan id="SvgjsTspan1360" dy="16" x="60"><tspan id="SvgjsTspan1361" style="text-decoration:;">commit</tspan></tspan></text></g></g><g id="SvgjsG1362" transform="translate(1011.5,544)"><path id="SvgjsPath1363" d="M 0 18Q 0 0 18 0L 102 0Q 120 0 120 18L 120 17Q 120 35 102 35L 18 35Q 0 35 0 17L 0 18Z" stroke="rgba(50,50,50,1)" stroke-width="1" fill-opacity="1" fill="#f8f8f8"></path><g id="SvgjsG1364"><text id="SvgjsText1365" font-family="&quot;Times New Roman&quot;" text-anchor="middle" font-size="13px" width="100px" fill="#323232" font-weight="400" align="middle" lineHeight="125%" anchor="middle" family="&quot;Times New Roman&quot;" size="13px" weight="400" font-style="" opacity="1" y="6.875" transform="rotate(0)"><tspan id="SvgjsTspan1366" dy="16" x="60"><tspan id="SvgjsTspan1367" style="text-decoration:;">Unlock-X(A)</tspan></tspan></text></g></g><g id="SvgjsG1368"><path id="SvgjsPath1369" d="M1071.5 429L1071.5 436L1071.5 436L1071.5 441.7" stroke="#323232" stroke-width="1" fill="none" marker-end="url(#SvgjsMarker1370)"></path></g><g id="SvgjsG1372"><path id="SvgjsPath1373" d="M1071.5 479L1071.5 486.125L1071.5 486.125L1071.5 491.95000000000005" stroke="#323232" stroke-width="1" fill="none" marker-end="url(#SvgjsMarker1374)"></path></g><g id="SvgjsG1376"><path id="SvgjsPath1377" d="M1071.5 529.25L1071.5 536.375L1071.5 536.375L1071.5 542.2" stroke="#323232" stroke-width="1" fill="none" marker-end="url(#SvgjsMarker1378)"></path></g><g id="SvgjsG1380"><path id="SvgjsPath1381" d="M1071.5 278.5L1071.5 310.5L1071.5 310.5L1071.5 341.2" stroke="#323232" stroke-width="1" fill="none" marker-end="url(#SvgjsMarker1382)"></path><rect id="SvgjsRect1384" width="9" height="16" x="1067" y="301.84999999999997" fill="#ffffff"></rect><text id="SvgjsText1385" font-family="微软雅黑" text-anchor="middle" font-size="13px" width="9px" fill="#323232" font-weight="400" align="top" lineHeight="16px" anchor="middle" family="微软雅黑" size="13px" weight="400" font-style="" opacity="1" y="299.22499999999997" transform="rotate(0)"><tspan id="SvgjsTspan1386" dy="16" x="1071.5"><tspan id="SvgjsTspan1387" style="text-decoration:;">···</tspan></tspan></text></g><g id="SvgjsG1388" transform="translate(146.5,627.25)"><path id="SvgjsPath1389" d="M 0 0L 120 0L 120 35L 0 35Z" stroke="none" fill="none"></path><g id="SvgjsG1390"><text id="SvgjsText1391" font-family="微软雅黑" text-anchor="middle" font-size="13px" width="120px" fill="#323232" font-weight="400" align="middle" lineHeight="125%" anchor="middle" family="微软雅黑" size="13px" weight="400" font-style="" opacity="1" y="6.875" transform="rotate(0)"><tspan id="SvgjsTspan1392" dy="16" x="60"><tspan id="SvgjsTspan1393" style="text-decoration:;">一级封锁协议</tspan></tspan></text></g></g><g id="SvgjsG1394" transform="translate(535.2499999999999,627.25)"><path id="SvgjsPath1395" d="M 0 0L 120 0L 120 35L 0 35Z" stroke="none" fill="none"></path><g id="SvgjsG1396"><text id="SvgjsText1397" font-family="微软雅黑" text-anchor="middle" font-size="13px" width="120px" fill="#323232" font-weight="400" align="middle" lineHeight="125%" anchor="middle" family="微软雅黑" size="13px" weight="400" font-style="" opacity="1" y="6.875" transform="rotate(0)"><tspan id="SvgjsTspan1398" dy="16" x="60"><tspan id="SvgjsTspan1399" style="text-decoration:;">二级封锁协议</tspan></tspan></text></g></g><g id="SvgjsG1400" transform="translate(924,627.25)"><path id="SvgjsPath1401" d="M 0 0L 120 0L 120 35L 0 35Z" stroke="none" fill="none"></path><g id="SvgjsG1402"><text id="SvgjsText1403" font-family="微软雅黑" text-anchor="middle" font-size="13px" width="120px" fill="#323232" font-weight="400" align="middle" lineHeight="125%" anchor="middle" family="微软雅黑" size="13px" weight="400" font-style="" opacity="1" y="6.875" transform="rotate(0)"><tspan id="SvgjsTspan1404" dy="16" x="60"><tspan id="SvgjsTspan1405" style="text-decoration:;">三级封锁协议</tspan></tspan></text></g></g><g id="SvgjsG1406" transform="translate(623.4999999999999,543.9999999999999)"><path id="SvgjsPath1407" d="M 0 18Q 0 0 18 0L 102 0Q 120 0 120 18L 120 17Q 120 35 102 35L 18 35Q 0 35 0 17L 0 18Z" stroke="rgba(50,50,50,1)" stroke-width="1" fill-opacity="1" fill="#f8f8f8"></path><g id="SvgjsG1408"><text id="SvgjsText1409" font-family="&quot;Times New Roman&quot;" text-anchor="middle" font-size="13px" width="100px" fill="#323232" font-weight="400" align="middle" lineHeight="125%" anchor="middle" family="&quot;Times New Roman&quot;" size="13px" weight="400" font-style="" opacity="1" y="6.875" transform="rotate(0)"><tspan id="SvgjsTspan1410" dy="16" x="60"><tspan id="SvgjsTspan1411" style="text-decoration:;">Unlock-S(A)</tspan></tspan></text></g></g></svg>