<svg id="SvgjsSvg1074" width="526" height="230.5" xmlns="http://www.w3.org/2000/svg" version="1.1" xmlns:xlink="http://www.w3.org/1999/xlink" xmlns:svgjs="http://svgjs.com/svgjs"><defs id="SvgjsDefs1075"><marker id="SvgjsMarker1108" markerWidth="16" markerHeight="12" refX="10" refY="6" viewBox="0 0 16 12" orient="auto" markerUnits="userSpaceOnUse" stroke-dasharray="0,0"><path id="SvgjsPath1109" d="M0,3 L10,6 L0,9 L0,3" fill="#323232" stroke="#323232" stroke-width="1"></path></marker><marker id="SvgjsMarker1116" markerWidth="16" markerHeight="12" refX="10" refY="6" viewBox="0 0 16 12" orient="auto" markerUnits="userSpaceOnUse" stroke-dasharray="0,0"><path id="SvgjsPath1117" d="M0,3 L10,6 L0,9 L0,3" fill="#323232" stroke="#323232" stroke-width="1"></path></marker><marker id="SvgjsMarker1124" markerWidth="16" markerHeight="12" refX="10" refY="6" viewBox="0 0 16 12" orient="auto" markerUnits="userSpaceOnUse" stroke-dasharray="0,0"><path id="SvgjsPath1125" d="M0,3 L10,6 L0,9 L0,3" fill="#323232" stroke="#323232" stroke-width="1"></path></marker><marker id="SvgjsMarker1132" markerWidth="16" markerHeight="12" refX="10" refY="6" viewBox="0 0 16 12" orient="auto" markerUnits="userSpaceOnUse" stroke-dasharray="0,0"><path id="SvgjsPath1133" d="M0,3 L10,6 L0,9 L0,3" fill="#323232" stroke="#323232" stroke-width="1"></path></marker><marker id="SvgjsMarker1140" markerWidth="16" markerHeight="12" refX="10" refY="6" viewBox="0 0 16 12" orient="auto" markerUnits="userSpaceOnUse" stroke-dasharray="0,0"><path id="SvgjsPath1141" d="M0,3 L10,6 L0,9 L0,3" fill="#323232" stroke="#323232" stroke-width="1"></path></marker><marker id="SvgjsMarker1144" markerWidth="16" markerHeight="12" refX="10" refY="6" viewBox="0 0 16 12" orient="auto" markerUnits="userSpaceOnUse" stroke-dasharray="0,0"><path id="SvgjsPath1145" d="M0,3 L10,6 L0,9 L0,3" fill="#323232" stroke="#323232" stroke-width="1"></path></marker></defs><g id="SvgjsG1076" transform="translate(224,55)"><path id="SvgjsPath1077" d="M 0 4Q 0 0 4 0L 76 0Q 80 0 80 4L 80 26Q 80 30 76 30L 4 30Q 0 30 0 26Z" stroke="rgba(50,50,50,1)" stroke-width="1" fill-opacity="1" fill="#ffffff"></path><g id="SvgjsG1078"><text id="SvgjsText1079" font-family="微软雅黑" text-anchor="middle" font-size="13px" width="60px" fill="#323232" font-weight="400" align="middle" lineHeight="125%" anchor="middle" family="微软雅黑" size="13px" weight="400" font-style="" opacity="1" y="5.375" transform="rotate(0)"><tspan id="SvgjsTspan1080" dy="16" x="40"><tspan id="SvgjsTspan1081" style="text-decoration:;">运行</tspan></tspan></text></g></g><g id="SvgjsG1082" transform="translate(144,145)"><path id="SvgjsPath1083" d="M 0 4Q 0 0 4 0L 76 0Q 80 0 80 4L 80 26Q 80 30 76 30L 4 30Q 0 30 0 26Z" stroke="rgba(50,50,50,1)" stroke-width="1" fill-opacity="1" fill="#ffffff"></path><g id="SvgjsG1084"><text id="SvgjsText1085" font-family="微软雅黑" text-anchor="middle" font-size="13px" width="60px" fill="#323232" font-weight="400" align="middle" lineHeight="125%" anchor="middle" family="微软雅黑" size="13px" weight="400" font-style="" opacity="1" y="5.375" transform="rotate(0)"><tspan id="SvgjsTspan1086" dy="16" x="40"><tspan id="SvgjsTspan1087" style="text-decoration:;">阻塞</tspan></tspan></text></g></g><g id="SvgjsG1088" transform="translate(304,145)"><path id="SvgjsPath1089" d="M 0 4Q 0 0 4 0L 76 0Q 80 0 80 4L 80 26Q 80 30 76 30L 4 30Q 0 30 0 26Z" stroke="rgba(50,50,50,1)" stroke-width="1" fill-opacity="1" fill="#ffffff"></path><g id="SvgjsG1090"><text id="SvgjsText1091" font-family="微软雅黑" text-anchor="middle" font-size="13px" width="60px" fill="#323232" font-weight="400" align="middle" lineHeight="125%" anchor="middle" family="微软雅黑" size="13px" weight="400" font-style="" opacity="1" y="5.375" transform="rotate(0)"><tspan id="SvgjsTspan1092" dy="16" x="40"><tspan id="SvgjsTspan1093" style="text-decoration:;">就绪</tspan></tspan></text></g></g><g id="SvgjsG1094" transform="translate(421,145)"><path id="SvgjsPath1095" d="M 0 4Q 0 0 4 0L 76 0Q 80 0 80 4L 80 26Q 80 30 76 30L 4 30Q 0 30 0 26Z" stroke="rgba(50,50,50,1)" stroke-width="1" fill-opacity="1" fill="#ffffff"></path><g id="SvgjsG1096"><text id="SvgjsText1097" font-family="微软雅黑" text-anchor="middle" font-size="13px" width="60px" fill="#323232" font-weight="400" align="middle" lineHeight="125%" anchor="middle" family="微软雅黑" size="13px" weight="400" font-style="" opacity="1" y="5.375" transform="rotate(0)"><tspan id="SvgjsTspan1098" dy="16" x="40"><tspan id="SvgjsTspan1099" style="text-decoration:;">新建</tspan></tspan></text></g></g><g id="SvgjsG1100" transform="translate(25,55)"><path id="SvgjsPath1101" d="M 0 4Q 0 0 4 0L 76 0Q 80 0 80 4L 80 26Q 80 30 76 30L 4 30Q 0 30 0 26Z" stroke="rgba(50,50,50,1)" stroke-width="1" fill-opacity="1" fill="#ffffff"></path><g id="SvgjsG1102"><text id="SvgjsText1103" font-family="微软雅黑" text-anchor="middle" font-size="13px" width="60px" fill="#323232" font-weight="400" align="middle" lineHeight="125%" anchor="middle" family="微软雅黑" size="13px" weight="400" font-style="" opacity="1" y="5.375" transform="rotate(0)"><tspan id="SvgjsTspan1104" dy="16" x="40"><tspan id="SvgjsTspan1105" style="text-decoration:;">终止</tspan></tspan></text></g></g><g id="SvgjsG1106"><path id="SvgjsPath1107" d="M224 70L184 70L184 145" stroke="#323232" stroke-width="1" fill="none" marker-end="url(#SvgjsMarker1108)"></path><rect id="SvgjsRect1110" width="65" height="16" x="151.5" y="79.5" fill="#ffffff"></rect><text id="SvgjsText1111" font-family="微软雅黑" text-anchor="middle" font-size="13px" width="65px" fill="#323232" font-weight="400" align="top" lineHeight="16px" anchor="middle" family="微软雅黑" size="13px" weight="400" font-style="" opacity="1" y="77.875" transform="rotate(0)"><tspan id="SvgjsTspan1112" dy="16" x="184"><tspan id="SvgjsTspan1113" style="text-decoration:;">等待某事件</tspan></tspan></text></g><g id="SvgjsG1114"><path id="SvgjsPath1115" d="M184 175L184 205L344 205L344 175" stroke="#323232" stroke-width="1" fill="none" marker-end="url(#SvgjsMarker1116)"></path><rect id="SvgjsRect1118" width="91" height="16" x="218.5" y="197" fill="#ffffff"></rect><text id="SvgjsText1119" font-family="微软雅黑" text-anchor="middle" font-size="13px" width="91px" fill="#323232" font-weight="400" align="top" lineHeight="16px" anchor="middle" family="微软雅黑" size="13px" weight="400" font-style="" opacity="1" y="195.375" transform="rotate(0)"><tspan id="SvgjsTspan1120" dy="16" x="264"><tspan id="SvgjsTspan1121" style="text-decoration:;">等待的事件发生</tspan></tspan></text></g><g id="SvgjsG1122"><path id="SvgjsPath1123" d="M344 145L344 25L264 25L264 55" stroke="#323232" stroke-width="1" fill="none" marker-end="url(#SvgjsMarker1124)"></path><rect id="SvgjsRect1126" width="39" height="16" x="324.5" y="21.999999999999996" fill="#ffffff"></rect><text id="SvgjsText1127" font-family="微软雅黑" text-anchor="middle" font-size="13px" width="39px" fill="#323232" font-weight="400" align="top" lineHeight="16px" anchor="middle" family="微软雅黑" size="13px" weight="400" font-style="" opacity="1" y="20.374999999999996" transform="rotate(0)"><tspan id="SvgjsTspan1128" dy="16" x="344"><tspan id="SvgjsTspan1129" style="text-decoration:;">被调度</tspan></tspan></text></g><g id="SvgjsG1130"><path id="SvgjsPath1131" d="M264 85L264 160L304 160" stroke="#323232" stroke-width="1" fill="none" marker-end="url(#SvgjsMarker1132)"></path><rect id="SvgjsRect1134" width="52" height="16" x="238" y="134.5" fill="#ffffff"></rect><text id="SvgjsText1135" font-family="微软雅黑" text-anchor="middle" font-size="13px" width="52px" fill="#323232" font-weight="400" align="top" lineHeight="16px" anchor="middle" family="微软雅黑" size="13px" weight="400" font-style="" opacity="1" y="132.875" transform="rotate(0)"><tspan id="SvgjsTspan1136" dy="16" x="264"><tspan id="SvgjsTspan1137" style="text-decoration:;">时间片到</tspan></tspan></text></g><g id="SvgjsG1138"><path id="SvgjsPath1139" d="M421 160L402.5 160L402.5 160L384 160" stroke="#323232" stroke-width="1" fill="none" marker-end="url(#SvgjsMarker1140)"></path></g><g id="SvgjsG1142"><path id="SvgjsPath1143" d="M224 70L164.5 70L164.5 70L105 70" stroke="#323232" stroke-width="1" fill="none" marker-end="url(#SvgjsMarker1144)"></path></g></svg>