<svg id="SvgjsSvg1006" width="344.75" height="155" xmlns="http://www.w3.org/2000/svg" version="1.1" xmlns:xlink="http://www.w3.org/1999/xlink" xmlns:svgjs="http://svgjs.com/svgjs"><defs id="SvgjsDefs1007"></defs><g id="SvgjsG1008" transform="translate(119.875,25)"><path id="SvgjsPath1009" d="M 0 52.5C 0 -17.5 105 -17.5 105 52.5C 105 122.5 0 122.5 0 52.5Z" stroke="rgba(50,50,50,1)" stroke-width="1" fill-opacity="1" fill="#ffffff"></path><g id="SvgjsG1010"><text id="SvgjsText1011" font-family="&quot;Times New Roman&quot;" text-anchor="middle" font-size="13px" width="85px" fill="#323232" font-weight="400" align="middle" lineHeight="125%" anchor="middle" family="&quot;Times New Roman&quot;" size="13px" weight="400" font-style="" opacity="1" y="41.875" transform="rotate(0)"><tspan id="SvgjsTspan1012" dy="16" x="52.5"><tspan id="SvgjsTspan1013" style="text-decoration:;">+</tspan></tspan></text></g></g><g id="SvgjsG1014" transform="translate(137.875,43)"><path id="SvgjsPath1015" d="M 0 35C 0 -11.666666666666666 70 -11.666666666666666 70 35C 70 81.66666666666667 0 81.66666666666667 0 35Z" stroke="rgba(50,50,50,1)" stroke-width="1" fill-opacity="1" fill="#ffe6cc"></path><g id="SvgjsG1016"><text id="SvgjsText1017" font-family="&quot;Times New Roman&quot;" text-anchor="middle" font-size="13px" width="50px" fill="#323232" font-weight="400" align="middle" lineHeight="125%" anchor="middle" family="&quot;Times New Roman&quot;" size="13px" weight="400" font-style="" opacity="1" y="24.375" transform="rotate(0)"><tspan id="SvgjsTspan1018" dy="16" x="35"><tspan id="SvgjsTspan1019" style="text-decoration:;">+</tspan></tspan></text></g></g><g id="SvgjsG1020" transform="translate(259.75,90.375)"><path id="SvgjsPath1021" d="M 0 0L 60 0L 60 35L 0 35Z" stroke="none" fill="none"></path><g id="SvgjsG1022"><text id="SvgjsText1023" font-family="&quot;Times New Roman&quot;" text-anchor="middle" font-size="13px" width="60px" fill="#323232" font-weight="400" align="middle" lineHeight="125%" anchor="middle" family="&quot;Times New Roman&quot;" size="13px" weight="400" font-style="" opacity="1" y="6.875" transform="rotate(0)"><tspan id="SvgjsTspan1024" dy="16" x="30"><tspan id="SvgjsTspan1025" style="text-decoration:;">扇区</tspan></tspan></text></g></g><g id="SvgjsG1026" transform="translate(172.15277777777783,76.66666666666669)"><path id="SvgjsPath1027" d="M 0 0L 53 0L 53 53L 0 53Z" stroke-dasharray="3,4" stroke="rgba(33,33,33,0.9)" stroke-width="1" fill-opacity="0.9" fill="#cce5ff"></path><g id="SvgjsG1028"><text id="SvgjsText1029" font-family="微软雅黑" text-anchor="middle" font-size="13px" width="33px" fill="#323232" font-weight="400" align="middle" lineHeight="125%" anchor="middle" family="微软雅黑" size="13px" weight="400" font-style="" opacity="0.9" y="15.875" transform="rotate(0)"></text></g></g><g id="SvgjsG1030" transform="translate(154.875,60)"><path id="SvgjsPath1031" d="M 0 17.5C 0 -5.833333333333333 35 -5.833333333333333 35 17.5C 35 40.833333333333336 0 40.833333333333336 0 17.5Z" stroke="rgba(50,50,50,1)" stroke-width="1" fill-opacity="1" fill="#ffffff"></path><g id="SvgjsG1032"><text id="SvgjsText1033" font-family="&quot;Times New Roman&quot;" text-anchor="middle" font-size="13px" width="15px" fill="#323232" font-weight="400" align="middle" lineHeight="125%" anchor="middle" family="&quot;Times New Roman&quot;" size="13px" weight="400" font-style="" opacity="1" y="6.875" transform="rotate(0)"></text></g></g><g id="SvgjsG1034"><path id="SvgjsPath1035" d="M200.75 108.125L228.875 108.125L228.875 108.125L257 108.125" stroke="#323232" stroke-width="1" fill="none"></path></g><g id="SvgjsG1036"><path id="SvgjsPath1037" d="M86.56730769230768 78L116.56730769230768 78L116.56730769230768 78L146.56730769230768 78" stroke="#323232" stroke-width="1" fill="none"></path></g><g id="SvgjsG1038" transform="translate(24.99999999999983,59.99999999999997)"><path id="SvgjsPath1039" d="M 0 0L 60 0L 60 35L 0 35Z" stroke="none" fill="none"></path><g id="SvgjsG1040"><text id="SvgjsText1041" font-family="&quot;Times New Roman&quot;" text-anchor="middle" font-size="13px" width="60px" fill="#323232" font-weight="400" align="middle" lineHeight="125%" anchor="middle" family="&quot;Times New Roman&quot;" size="13px" weight="400" font-style="" opacity="1" y="6.875" transform="rotate(0)"><tspan id="SvgjsTspan1042" dy="16" x="30"><tspan id="SvgjsTspan1043" style="text-decoration:;">磁道</tspan></tspan></text></g></g></svg>